<?xml version="1.0" encoding="UTF-8" standalone="no"?>
<!-- Created with Inkscape (http://www.inkscape.org/) -->

<svg
   width="1920"
   height="1080"
   viewBox="0 0 507.99999 285.75"
   version="1.1"
   id="svg1"
   inkscape:export-filename="../../../../../Downloads/elastic_search_python_tuto_cover_w_text.png"
   inkscape:export-xdpi="96"
   inkscape:export-ydpi="96"
   inkscape:version="1.4.2 (1:1.4.2+202505120737+ebf0e940d0)"
   sodipodi:docname="coverImage.svg"
   xmlns:inkscape="http://www.inkscape.org/namespaces/inkscape"
   xmlns:sodipodi="http://sodipodi.sourceforge.net/DTD/sodipodi-0.dtd"
   xmlns:xlink="http://www.w3.org/1999/xlink"
   xmlns="http://www.w3.org/2000/svg"
   xmlns:svg="http://www.w3.org/2000/svg">
  <sodipodi:namedview
     id="namedview1"
     pagecolor="#ffffff"
     bordercolor="#000000"
     borderopacity="0.25"
     inkscape:showpageshadow="2"
     inkscape:pageopacity="0.0"
     inkscape:pagecheckerboard="0"
     inkscape:deskcolor="#d1d1d1"
     inkscape:document-units="px"
     inkscape:zoom="0.5946522"
     inkscape:cx="787.01467"
     inkscape:cy="607.91838"
     inkscape:window-width="2560"
     inkscape:window-height="1371"
     inkscape:window-x="0"
     inkscape:window-y="32"
     inkscape:window-maximized="1"
     inkscape:current-layer="layer1" />
  <defs
     id="defs1">
    <inkscape:path-effect
       effect="bspline"
       id="path-effect11"
       is_visible="true"
       lpeversion="1.3"
       weight="33.333333"
       steps="2"
       helper_size="0"
       apply_no_weight="true"
       apply_with_weight="true"
       only_selected="false"
       uniform="false" />
    <inkscape:path-effect
       effect="bspline"
       id="path-effect10"
       is_visible="true"
       lpeversion="1.3"
       weight="33.333333"
       steps="2"
       helper_size="0"
       apply_no_weight="true"
       apply_with_weight="true"
       only_selected="false"
       uniform="false" />
    <linearGradient
       id="paint0_linear_87_8204"
       x1="12.4809"
       y1="2"
       x2="12.4809"
       y2="22.7407"
       gradientUnits="userSpaceOnUse">
      <stop
         stop-color="#327EBD"
         id="stop2" />
      <stop
         offset="1"
         stop-color="#1565A7"
         id="stop3" />
    </linearGradient>
    <linearGradient
       id="paint1_linear_87_8204"
       x1="19.518999"
       y1="9.2592802"
       x2="19.518999"
       y2="30"
       gradientUnits="userSpaceOnUse">
      <stop
         stop-color="#FFDA4B"
         id="stop4" />
      <stop
         offset="1"
         stop-color="#F9C600"
         id="stop5" />
    </linearGradient>
    <linearGradient
       inkscape:collect="always"
       xlink:href="#paint0_linear_87_8204"
       id="linearGradient9"
       gradientUnits="userSpaceOnUse"
       x1="12.4809"
       y1="2"
       x2="12.4809"
       y2="22.7407" />
    <linearGradient
       inkscape:collect="always"
       xlink:href="#paint1_linear_87_8204"
       id="linearGradient10"
       gradientUnits="userSpaceOnUse"
       x1="19.518999"
       y1="9.2592802"
       x2="19.518999"
       y2="30" />
  </defs>
  <g
     inkscape:label="Layer 1"
     inkscape:groupmode="layer"
     id="layer1">
    <rect
       style="fill:#ffffff;stroke:none;stroke-width:1.32292;stroke-linecap:round"
       id="rect2"
       width="508"
       height="285.75"
       x="-6.6035158e-05"
       y="0" />
    <g
       id="g10"
       transform="translate(-552.69832,45.89799)">
      <g
         id="g7"
         transform="matrix(1.6708249,0,0,1.6708249,489.91207,-65.710975)">
        <path
           d="m 129.33707,115.27949 h -16.65142 c 0.0797,0.39836 0.23901,0.79671 0.31869,1.1154 0.5577,1.91213 0.87639,3.90393 1.03573,5.97539 0.0797,0.79672 0.0797,1.67311 0.0797,2.46983 0,0.79672 0,1.67311 -0.0797,2.46983 -0.15934,2.07147 -0.47803,4.06327 -1.03573,5.97539 -0.0797,0.39836 -0.23902,0.79672 -0.31869,1.11541 h 16.65142 c 5.25835,0 9.48096,-4.30228 9.48096,-9.56063 0,-5.25834 -4.22261,-9.56062 -9.48096,-9.56062 z"
           fill="#00a9e5"
           id="path2"
           style="stroke-width:0.796719" />
        <path
           d="m 114.04007,127.30994 c 0.0797,-0.79672 0.0797,-1.67311 0.0797,-2.46983 0,-0.79672 0,-1.67311 -0.0797,-2.46983 -0.15934,-2.07146 -0.47803,-4.06326 -1.03573,-5.97539 -0.0797,-0.39836 -0.23902,-0.79672 -0.31869,-1.1154 H 86.951628 c -0.956063,3.02753 -1.434094,6.2144 -1.434094,9.56062 0,3.34622 0.478031,6.5331 1.434094,9.56063 h 25.734022 c 0.0797,-0.39836 0.23901,-0.79672 0.31869,-1.11541 0.5577,-1.91212 0.87639,-3.90392 1.03573,-5.97539 z"
           fill="#353535"
           id="path3"
           style="stroke-width:0.796719" />
        <path
           d="m 132.20526,137.58762 h -20.71469 c -0.63738,1.43409 -1.35442,2.78851 -2.15114,4.06326 -1.19508,1.9918 -2.62917,3.74458 -4.22261,5.41769 -0.5577,0.5577 -1.11541,1.03573 -1.67311,1.59344 -1.11541,1.03573 -2.39016,1.91212 -3.664908,2.78851 5.019328,3.34622 11.074388,5.25835 17.527818,5.25835 11.07439,0 20.79436,-5.65671 26.53074,-14.1816 -2.94786,-3.02753 -7.0908,-4.93965 -11.6321,-4.93965 z"
           fill="#00bfb3"
           id="path4"
           style="stroke-width:0.796719" />
        <path
           d="m 109.33943,141.65088 c 0.79672,-1.27475 1.51376,-2.62917 2.15114,-4.06326 H 88.146706 c 2.469828,5.6567 6.533095,10.51668 11.711768,13.8629 1.274746,-0.87639 2.469826,-1.75278 3.664906,-2.78851 0.5577,-0.47803 1.11541,-1.03574 1.67311,-1.59344 1.51377,-1.59344 2.94786,-3.42589 4.14294,-5.41769 z"
           fill="#019b8f"
           id="path5"
           style="stroke-width:0.796719" />
        <path
           d="m 105.11682,102.61166 c -0.5577,-0.55771 -1.11541,-1.03574 -1.67311,-1.59344 -1.11541,-1.035737 -2.39016,-1.912128 -3.664908,-2.788519 -5.099001,3.346219 -9.162268,8.206209 -11.711768,13.862909 H 111.4109 c -0.63738,-1.43409 -1.35442,-2.78852 -2.15114,-4.06327 -1.11541,-1.99179 -2.5495,-3.82425 -4.14294,-5.41768 z"
           fill="#f9b110"
           id="path6"
           style="stroke-width:0.796719" />
        <path
           d="m 117.30662,92.971357 c -6.45343,0 -12.50849,1.912125 -17.527818,5.258344 1.274748,0.876391 2.469828,1.752782 3.664908,2.788519 0.5577,0.47803 1.11541,1.03573 1.67311,1.59344 1.59344,1.67311 3.02753,3.42589 4.22261,5.41768 0.79672,1.27475 1.51376,2.62918 2.15114,4.06327 h 20.71469 c 4.5413,0 8.68424,-1.91213 11.6321,-4.93966 -5.73638,-8.524889 -15.45635,-14.181593 -26.53074,-14.181593 z"
           fill="#fed10a"
           id="path7"
           style="stroke-width:0.796719" />
      </g>
      <g
         style="fill:none"
         id="g9"
         transform="matrix(3.8033653,0,0,3.8033653,866.49942,82.021151)">
        <path
           fill-rule="evenodd"
           clip-rule="evenodd"
           d="M 13.0164,2 C 10.8193,2 9.03825,3.72453 9.03825,5.85185 V 8.51852 H 15.9235 V 9.25926 H 5.97814 C 3.78107,9.25926 2,10.9838 2,13.1111 v 5.7778 c 0,2.1273 1.78107,3.8518 3.97814,3.8518 h 2.29508 v -3.2592 c 0,-2.1273 1.78108,-3.8519 3.97818,-3.8519 h 7.3442 c 1.8591,0 3.3661,-1.4592 3.3661,-3.2592 V 5.85185 C 22.9617,3.72453 21.1807,2 18.9836,2 Z m -0.918,4.74074 c 0.7605,0 1.377,-0.59696 1.377,-1.33333 0,-0.73638 -0.6165,-1.33334 -1.377,-1.33334 -0.7606,0 -1.3771,0.59696 -1.3771,1.33334 0,0.73637 0.6165,1.33333 1.3771,1.33333 z"
           fill="url(#paint0_linear_87_8204)"
           id="path8"
           style="fill:url(#linearGradient9)" />
        <path
           fill-rule="evenodd"
           clip-rule="evenodd"
           d="m 18.9834,30 c 2.1971,0 3.9782,-1.7245 3.9782,-3.8518 v -2.6667 h -6.8853 v -0.7407 h 9.9454 c 2.1971,0 3.9781,-1.7246 3.9781,-3.8519 v -5.7778 c 0,-2.1273 -1.781,-3.85182 -3.9781,-3.85182 h -2.2951 v 3.25922 c 0,2.1274 -1.7811,3.8519 -3.9781,3.8519 h -7.3443 c -1.8591,0 -3.36611,1.4592 -3.36611,3.2592 v 6.5186 C 9.03809,28.2755 10.8192,30 13.0162,30 Z m 0.9181,-4.7407 c -0.7606,0 -1.3771,0.5969 -1.3771,1.3333 0,0.7364 0.6165,1.3333 1.3771,1.3333 0.7605,0 1.377,-0.5969 1.377,-1.3333 0,-0.7364 -0.6165,-1.3333 -1.377,-1.3333 z"
           fill="url(#paint1_linear_87_8204)"
           id="path9"
           style="fill:url(#linearGradient10)" />
      </g>
    </g>
    <g
       id="path10"
       style="opacity:1"
       transform="translate(-571.71183,48.17807)">
      <path
         style="baseline-shift:baseline;display:inline;overflow:visible;vector-effect:none;stroke-linecap:round;enable-background:accumulate;stop-color:#000000;stop-opacity:1"
         d="m 859.57843,106.72826 c -22.57777,22.57777 -45.15556,45.15555 -67.73333,67.73332"
         id="path13" />
      <path
         style="baseline-shift:baseline;display:inline;overflow:visible;vector-effect:none;stroke-linecap:round;enable-background:accumulate;stop-color:#000000;stop-opacity:1"
         d="m 859.57812,106.06641 a 0.66145998,0.66145998 0 0 0 -0.46679,0.19336 l -67.73438,67.73437 a 0.66145998,0.66145998 0 0 0 0,0.93555 0.66145998,0.66145998 0 0 0 0.93555,0 l 67.73437,-67.73438 a 0.66145998,0.66145998 0 0 0 0,-0.93554 0.66145998,0.66145998 0 0 0 -0.46875,-0.19336 z"
         id="path14" />
    </g>
    <g
       id="path11"
       style="opacity:1"
       transform="translate(-571.71183,48.17807)">
      <path
         style="baseline-shift:baseline;display:inline;overflow:visible;vector-effect:none;stroke-linecap:round;enable-background:accumulate;stop-color:#000000;stop-opacity:1"
         d="m 791.8451,106.72826 c 22.57777,22.57776 45.15555,45.15555 67.73333,67.73332"
         id="path1" />
      <path
         style="baseline-shift:baseline;display:inline;overflow:visible;vector-effect:none;stroke-linecap:round;enable-background:accumulate;stop-color:#000000;stop-opacity:1"
         d="m 791.8457,106.06641 a 0.66145998,0.66145998 0 0 0 -0.46875,0.19336 0.66145998,0.66145998 0 0 0 0,0.93554 l 67.73438,67.73438 a 0.66145998,0.66145998 0 0 0 0.93554,0 0.66145998,0.66145998 0 0 0 0,-0.93555 L 792.3125,106.25977 a 0.66145998,0.66145998 0 0 0 -0.4668,-0.19336 z"
         id="path12" />
    </g>
    <path
       style="font-weight:300;font-size:50.8px;font-family:Roboto;-inkscape-font-specification:'Roboto Light';text-align:center;text-anchor:middle;stroke-width:6.49397;stroke-linecap:round"
       d="M 122.29945,58.747623 V 22.631999 h 22.37383 v 2.604492 h -19.32285 v 14.014648 h 16.81758 v 2.629297 h -16.81758 v 16.867187 z m 37.62871,-24.50703 q -3.00136,0 -4.86171,1.686718 -1.83555,1.661914 -2.57969,4.316016 V 58.747623 H 149.5102 V 31.908952 h 2.90214 l 0.0744,4.191992 q 2.38125,-4.688086 7.54062,-4.688086 1.19063,0 1.98438,0.297656 l -0.0992,2.703711 q -1.16582,-0.173632 -1.98438,-0.173632 z m 26.14414,20.240624 q -1.31464,1.959571 -3.62148,3.373438 -2.30684,1.389062 -5.90352,1.389062 -5.23378,0 -8.63203,-3.695898 -3.39824,-3.695899 -3.39824,-9.475391 v -1.066601 q 0,-6.201172 3.44785,-9.89707 3.47266,-3.695899 8.06153,-3.695899 5.10976,0 7.86308,3.472656 2.75332,3.447852 2.75332,8.805664 v 1.810743 h -19.14922 v 0.570507 q 0,4.440039 2.53008,7.56543 2.55488,3.100586 6.64766,3.100586 4.73769,0 7.51582,-3.671094 z M 176.02641,33.942936 q -3.39825,0 -5.68028,2.480469 -2.25722,2.480469 -2.72851,6.548437 h 16.04863 v -0.322461 q -0.0744,-3.373437 -1.98437,-6.027538 -1.88516,-2.678907 -5.65547,-2.678907 z m 36.31406,20.538281 q -1.31465,1.959571 -3.62149,3.373438 -2.30683,1.389062 -5.90351,1.389062 -5.23379,0 -8.63203,-3.695898 -3.39825,-3.695899 -3.39825,-9.475391 v -1.066601 q 0,-6.201172 3.44785,-9.89707 3.47266,-3.695899 8.06153,-3.695899 5.10976,0 7.86308,3.472656 2.75332,3.447852 2.75332,8.805664 v 1.810743 h -19.14921 v 0.570507 q 0,4.440039 2.53007,7.56543 2.55489,3.100586 6.64766,3.100586 4.7377,0 7.51582,-3.671094 z m -10.0459,-20.538281 q -3.39824,0 -5.68028,2.480469 -2.25722,2.480469 -2.72851,6.548437 h 16.04863 v -0.322461 q -0.0744,-3.373437 -1.98437,-6.027538 -1.88516,-2.678907 -5.65547,-2.678907 z m 51.99063,13.543359 h 3.05097 q -0.57051,5.506641 -3.94394,8.632032 -3.37344,3.12539 -9.32657,3.12539 -6.12675,0 -9.82265,-4.415234 -3.6959,-4.415234 -3.77031,-11.608594 v -4.787304 q 0,-7.317383 3.7207,-11.807031 3.74551,-4.489649 10.0707,-4.489649 5.77949,0 9.12813,3.125391 3.37343,3.100586 3.94394,8.656836 h -3.05097 q -0.54571,-4.365625 -2.95176,-6.77168 -2.40606,-2.406055 -7.06934,-2.406055 -5.01054,0 -7.88789,3.770313 -2.85254,3.745508 -2.85254,9.872265 v 4.564063 q 0,5.977929 2.75332,9.847461 2.75332,3.869531 7.78867,3.869531 4.78731,0 7.21817,-2.306836 2.43086,-2.306836 3.00137,-6.870899 z m 8.16073,-2.554882 q 0,-5.853906 3.27422,-9.673828 3.27422,-3.844727 8.68164,-3.844727 5.43223,0 8.68164,3.770313 3.24941,3.745507 3.32383,9.500195 v 1.041797 q 0,5.878711 -3.27422,9.698632 -3.24941,3.819922 -8.68164,3.819922 -5.45703,0 -8.73125,-3.819922 -3.27422,-3.819921 -3.27422,-9.698632 z m 2.97656,0.79375 q 0,4.440039 2.30684,7.714257 2.33164,3.274219 6.72207,3.274219 4.34082,0 6.64766,-3.274219 2.33164,-3.274218 2.33164,-7.714257 v -0.79375 q 0,-4.340821 -2.33164,-7.664649 -2.33164,-3.323828 -6.69727,-3.323828 -4.34082,0 -6.67246,3.323828 -2.30684,3.323828 -2.30684,7.689453 z m 44.45001,13.02246 -0.0744,-3.398242 q -2.6789,3.894336 -8.53281,3.894336 -3.91914,0 -6.3748,-2.306836 -2.43086,-2.306836 -2.45567,-7.739062 V 31.908952 h 2.97656 v 17.214453 q 0,4.291211 1.81075,5.92832 1.83554,1.612305 4.39043,1.612305 3.54707,0 5.45703,-1.488282 1.93476,-1.513085 2.6789,-3.795117 V 31.908952 h 2.97657 v 26.838671 z m 20.98476,-24.50703 q -3.00137,0 -4.86172,1.686718 -1.83554,1.661914 -2.57968,4.316016 v 18.504296 h -2.97657 V 31.908952 h 2.90215 l 0.0744,4.191992 q 2.38125,-4.688086 7.54062,-4.688086 1.19063,0 1.98438,0.297656 l -0.0992,2.703711 q -1.16582,-0.173632 -1.98438,-0.173632 z m 22.79551,17.660937 q 0,-1.661914 -1.36426,-3.175 -1.33945,-1.537891 -5.8291,-2.480469 -4.48965,-0.942578 -6.92051,-2.579687 -2.43086,-1.63711 -2.43086,-4.960938 0,-3.001367 2.53008,-5.13457 2.55488,-2.158008 6.92051,-2.158008 4.66328,0 7.29258,2.282031 2.62929,2.282032 2.62929,5.729883 h -3.00136 q 0,-2.083594 -1.78594,-3.770312 -1.78594,-1.711524 -5.13457,-1.711524 -3.47266,0 -4.98574,1.488282 -1.51309,1.488281 -1.51309,3.174999 0,1.761133 1.28984,2.976563 1.31465,1.21543 5.8043,2.257226 4.51445,1.016993 6.79649,2.604493 2.6789,1.860351 2.6789,5.308203 0,3.323828 -2.70371,5.407421 -2.6789,2.083594 -7.19336,2.083594 -5.10976,0 -7.81347,-2.430859 -2.70372,-2.455664 -2.70372,-5.605859 h 2.95176 q 0.19844,3.175 2.60449,4.34082 2.40606,1.16582 4.96094,1.16582 3.37344,0 5.13457,-1.463476 1.78594,-1.463477 1.78594,-3.348633 z m 29.56719,2.579687 q -1.31465,1.959571 -3.62148,3.373438 -2.30684,1.389062 -5.90352,1.389062 -5.23379,0 -8.63203,-3.695898 -3.39824,-3.695899 -3.39824,-9.475391 v -1.066601 q 0,-6.201172 3.44785,-9.89707 3.47265,-3.695899 8.06152,-3.695899 5.10977,0 7.86309,3.472656 2.75332,3.447852 2.75332,8.805664 v 1.810743 h -19.14922 v 0.570507 q 0,4.440039 2.53008,7.56543 2.55488,3.100586 6.64765,3.100586 4.7377,0 7.51582,-3.671094 z m -10.0459,-20.538281 q -3.39824,0 -5.68027,2.480469 -2.25723,2.480469 -2.72852,6.548437 h 16.04864 v -0.322461 q -0.0744,-3.373437 -1.98438,-6.027538 -1.88516,-2.678907 -5.65547,-2.678907 z"
       id="text11"
       aria-label="Free Course " />
    <path
       style="font-weight:300;font-size:25.4px;font-family:Roboto;-inkscape-font-specification:'Roboto Light';text-align:center;text-anchor:middle;stroke-width:3.72112;stroke-linecap:round"
       d="m 188.55896,86.337476 h -3.21221 v 12.203906 h -1.47588 V 86.337476 h -2.23242 v -1.21543 h 2.23242 V 83.39812 q 0.0124,-2.009179 1.0666,-3.088183 1.06661,-1.079004 2.88975,-1.079004 0.84336,0 1.5875,0.21084 l -0.11162,1.240234 q -0.60772,-0.148828 -1.36426,-0.148828 -1.20303,0 -1.89756,0.756543 -0.69453,0.756543 -0.69453,2.158008 v 1.674316 h 3.21221 z m 1.83554,5.2958 q 0,-2.926953 1.63711,-4.836914 1.63711,-1.922363 4.34082,-1.922363 2.71612,0 4.34082,1.885156 1.62471,1.872754 1.66192,4.750098 v 0.520898 q 0,2.939356 -1.63711,4.849317 -1.62471,1.909961 -4.34082,1.909961 -2.72852,0 -4.36563,-1.909961 -1.63711,-1.909961 -1.63711,-4.849317 z m 1.48829,0.396875 q 0,2.22002 1.15341,3.857129 1.16582,1.63711 3.36104,1.63711 2.17041,0 3.32383,-1.63711 1.16582,-1.637109 1.16582,-3.857129 v -0.396875 q 0,-2.17041 -1.16582,-3.832324 -1.16582,-1.661914 -3.34864,-1.661914 -2.17041,0 -3.33623,1.661914 -1.15341,1.661914 -1.15341,3.844727 z m 18.76474,-5.742285 q -1.50068,0 -2.43086,0.84336 -0.91777,0.830957 -1.28984,2.158008 v 9.252148 h -1.48828 V 85.122046 h 1.45107 l 0.0372,2.095996 q 1.19062,-2.344043 3.77031,-2.344043 0.59531,0 0.99219,0.148828 l -0.0496,1.351856 q -0.58291,-0.08682 -0.99219,-0.08682 z m 20.35225,5.680274 q 0,3.001367 -1.35186,4.911328 -1.33945,1.909961 -3.77031,1.909961 -2.81533,0 -4.2416,-2.095996 l -0.0744,1.847949 h -1.38906 v -19.05 h 1.48828 v 7.56543 q 1.42627,-2.182813 4.192,-2.182813 2.45566,0 3.79511,1.860352 1.35186,1.847949 1.35186,4.97334 z m -5.43223,-5.804297 q -1.67431,0 -2.59209,0.843359 -0.90537,0.830957 -1.31465,1.897559 v 6.064746 q 0.45889,1.066601 1.42627,1.79834 0.96739,0.731738 2.50528,0.731738 2.02158,0 2.95175,-1.575098 0.94258,-1.575097 0.95498,-3.894336 v -0.32246 q 0,-2.344043 -0.93017,-3.943946 -0.91777,-1.599902 -3.00137,-1.599902 z m 18.65313,10.244336 q -0.65733,0.979785 -1.81075,1.686718 -1.15341,0.694532 -2.95175,0.694532 -2.6169,0 -4.31602,-1.847949 -1.69912,-1.84795 -1.69912,-4.737696 v -0.5333 q 0,-3.100586 1.72393,-4.948536 1.73632,-1.847949 4.03076,-1.847949 2.55488,0 3.93154,1.736328 1.37666,1.723926 1.37666,4.402832 v 0.905371 h -9.57461 v 0.285254 q 0,2.22002 1.26504,3.782715 1.27744,1.550293 3.32383,1.550293 2.36885,0 3.75791,-1.835547 z m -5.02295,-10.269141 q -1.69912,0 -2.84014,1.240235 -1.12861,1.240234 -1.36426,3.274218 h 8.02432 v -0.16123 q -0.0372,-1.686719 -0.99219,-3.01377 -0.94258,-1.339453 -2.82773,-1.339453 z m 13.03486,17.760152 q -1.25264,0 -2.56729,-0.58291 -1.30224,-0.5705 -2.1084,-1.71152 l 0.83096,-0.90537 q 1.55029,1.93477 3.75791,1.93477 1.89756,0 2.93936,-1.12862 1.04179,-1.12861 1.04179,-3.150193 v -1.562696 q -1.43867,1.996778 -4.16718,1.996778 -2.36885,0 -3.74551,-1.860352 -1.36426,-1.872754 -1.40147,-4.812109 v -0.409277 q 0,-3.125391 1.37666,-4.97334 1.37666,-1.860352 3.79512,-1.860352 2.75332,0 4.17959,2.17041 l 0.062,-1.922363 h 1.38906 v 13.183691 q 0,2.616893 -1.47587,4.105173 -1.46348,1.48828 -3.90674,1.48828 z m -3.93155,-11.93105 q 0,2.344043 0.95499,3.943945 0.96738,1.5875 2.98896,1.5875 1.52549,0 2.45566,-0.706934 0.94258,-0.706933 1.42627,-1.773535 v -6.201172 q -0.42168,-1.029394 -1.32705,-1.835546 -0.89297,-0.818555 -2.53008,-0.818555 -2.04638,0 -3.01376,1.599902 -0.95499,1.599903 -0.95499,3.943946 z m 13.10928,-10.728027 q 0,-1.00459 1.01699,-1.00459 1.0294,0 1.0294,1.00459 0,0.979785 -1.0294,0.979785 -1.01699,0 -1.01699,-0.979785 z m 1.74873,3.881933 v 13.419336 h -1.47588 V 85.122046 Z m 9.525,1.029395 q -1.56269,0 -2.56728,0.979785 -0.99219,0.967383 -1.42627,2.182812 v 9.227344 h -1.48828 V 85.122046 h 1.42626 l 0.0496,2.269629 q 0.69454,-1.141016 1.81075,-1.823145 1.12861,-0.694531 2.56728,-0.694531 1.98438,0 3.12539,1.128613 1.14102,1.116211 1.15342,3.733106 v 8.805664 h -1.48828 v -8.805664 q -0.0124,-2.046387 -0.86817,-2.815332 -0.84335,-0.768945 -2.29443,-0.768945 z m 13.96504,0 q -1.56269,0 -2.56728,0.979785 -0.99219,0.967383 -1.42627,2.182812 v 9.227344 h -1.48828 V 85.122046 h 1.42627 l 0.0496,2.269629 q 0.69453,-1.141016 1.81074,-1.823145 1.12861,-0.694531 2.56728,-0.694531 1.98438,0 3.12539,1.128613 1.14102,1.116211 1.15342,3.733106 v 8.805664 h -1.48828 v -8.805664 q -0.0124,-2.046387 -0.86816,-2.815332 -0.84336,-0.768945 -2.29444,-0.768945 z m 18.44229,10.256738 q -0.65732,0.979785 -1.81074,1.686718 -1.15342,0.694532 -2.95176,0.694532 -2.61689,0 -4.31601,-1.847949 -1.69913,-1.84795 -1.69913,-4.737696 v -0.5333 q 0,-3.100586 1.72393,-4.948536 1.73633,-1.847949 4.03076,-1.847949 2.55488,0 3.93155,1.736328 1.37666,1.723926 1.37666,4.402832 v 0.905371 h -9.57461 v 0.285254 q 0,2.22002 1.26503,3.782715 1.27745,1.550293 3.32383,1.550293 2.36885,0 3.75791,-1.835547 z m -5.02295,-10.269141 q -1.69912,0 -2.84013,1.240235 -1.12862,1.240234 -1.36426,3.274218 h 8.02431 v -0.16123 q -0.0372,-1.686719 -0.99218,-3.01377 -0.94258,-1.339453 -2.82774,-1.339453 z m 13.40693,0.148828 q -1.50068,0 -2.43086,0.84336 -0.91777,0.830957 -1.28984,2.158008 v 9.252148 h -1.48828 V 85.122046 h 1.45107 l 0.0372,2.095996 q 1.19062,-2.344043 3.77031,-2.344043 0.59531,0 0.99219,0.148828 l -0.0496,1.351856 q -0.58291,-0.08682 -0.99219,-0.08682 z m 11.39776,8.830469 q 0,-0.830957 -0.68212,-1.5875 -0.66973,-0.768945 -2.91456,-1.240234 -2.24482,-0.471289 -3.46025,-1.289844 -1.21543,-0.818555 -1.21543,-2.480469 0,-1.500683 1.26504,-2.567285 1.27744,-1.079004 3.46025,-1.079004 2.33164,0 3.64629,1.141016 1.31465,1.141015 1.31465,2.864941 h -1.50068 q 0,-1.041797 -0.89297,-1.885156 -0.89297,-0.855762 -2.56729,-0.855762 -1.73632,0 -2.49287,0.744141 -0.75654,0.74414 -0.75654,1.5875 0,0.880566 0.64492,1.488281 0.65733,0.607715 2.90215,1.128613 2.25723,0.508496 3.39824,1.302246 1.33946,0.930176 1.33946,2.654102 0,1.661914 -1.35186,2.703711 -1.33945,1.041797 -3.59668,1.041797 -2.55488,0 -3.90674,-1.21543 -1.35185,-1.227832 -1.35185,-2.80293 h 1.47588 q 0.0992,1.5875 1.30224,2.170411 1.20303,0.58291 2.48047,0.58291 1.68672,0 2.56729,-0.731739 0.89296,-0.731738 0.89296,-1.674316 z"
       id="text13"
       aria-label="for beginners" />
  </g>
</svg>
