<?xml version="1.0" encoding="UTF-8" standalone="no"?>
<!-- Created with Inkscape (http://www.inkscape.org/) -->

<svg
   width="49.375256"
   height="49.376961"
   viewBox="0 0 13.063869 13.064321"
   version="1.1"
   id="svg1"
   inkscape:version="1.4.2 (ebf0e940d0, 2025-05-08)"
   sodipodi:docname="moon_day_6.svg"
   xml:space="preserve"
   xmlns:inkscape="http://www.inkscape.org/namespaces/inkscape"
   xmlns:sodipodi="http://sodipodi.sourceforge.net/DTD/sodipodi-0.dtd"
   xmlns="http://www.w3.org/2000/svg"
   xmlns:svg="http://www.w3.org/2000/svg"><sodipodi:namedview
     id="namedview1"
     pagecolor="#ffffff"
     bordercolor="#000000"
     borderopacity="0.25"
     inkscape:showpageshadow="2"
     inkscape:pageopacity="0.0"
     inkscape:pagecheckerboard="0"
     inkscape:deskcolor="#d1d1d1"
     inkscape:document-units="px"
     inkscape:zoom="0.70710678"
     inkscape:cx="624.37529"
     inkscape:cy="467.39758"
     inkscape:window-width="2560"
     inkscape:window-height="1371"
     inkscape:window-x="0"
     inkscape:window-y="0"
     inkscape:window-maximized="1"
     inkscape:current-layer="layer1"
     showguides="true" /><defs
     id="defs1" /><g
     inkscape:label="Layer 1"
     inkscape:groupmode="layer"
     id="layer1"
     transform="translate(-27.411087,-131.7305)"><rect
       style="fill:#03071e;fill-opacity:1;stroke-width:1.32292;stroke-linecap:square"
       id="rect526"
       width="13.063866"
       height="13.064321"
       x="27.411087"
       y="131.7305" /><circle
       style="opacity:0.05;fill:#ffffff;fill-opacity:1;stroke-width:2.64583;stroke-linejoin:round"
       id="circle186"
       cx="33.943024"
       cy="138.26266"
       r="6.5319328" /><path
       style="fill:#e5e7eb;fill-opacity:1;stroke-width:2.64583;stroke-linejoin:round"
       d="m 34.93557,131.80644 c 0.53108,2.1541 0.92139,4.31151 0.92139,6.47713 0,2.13759 -0.38016,4.28339 -0.90072,6.43216 a 6.5319328,6.5319328 0 0 0 5.51852,-6.45283 6.5319328,6.5319328 0 0 0 -5.53919,-6.45646 z"
       id="path186" /><circle
       style="opacity:0.07;fill:#ffffff;fill-opacity:1;stroke-width:3.4535;stroke-linejoin:round"
       id="circle532"
       cx="36.91951"
       cy="136.11302"
       r="1.6178758" /><circle
       style="opacity:0.07;fill:#ffffff;fill-opacity:1;stroke-width:1.55965;stroke-linejoin:round"
       id="circle533"
       cx="33.645706"
       cy="137.11339"
       r="0.73065364" /><circle
       style="opacity:0.07;fill:#ffffff;fill-opacity:1;stroke-width:1.55965;stroke-linejoin:round"
       id="circle534"
       cx="35.185303"
       cy="139.7881"
       r="0.73065364" /><circle
       style="opacity:0.07;fill:#ffffff;fill-opacity:1;stroke-width:1.55965;stroke-linejoin:round"
       id="circle535"
       cx="30.500275"
       cy="140.87856"
       r="1.1516031" /><circle
       style="fill:#03071e;fill-opacity:1;stroke-width:3.4535;stroke-linejoin:round"
       id="circle544"
       cx="36.91951"
       cy="136.11304"
       r="1.6178758" /><circle
       style="opacity:0.07;fill:#ffffff;fill-opacity:1;stroke-width:1.55965;stroke-linejoin:round"
       id="circle545"
       cx="33.645706"
       cy="137.1134"
       r="0.73065364" /><circle
       style="fill:#03071e;fill-opacity:1;stroke-width:1.55965;stroke-linejoin:round"
       id="circle546"
       cx="35.185303"
       cy="139.78812"
       r="0.73065364" /><circle
       style="opacity:0.07;fill:#ffffff;fill-opacity:1;stroke-width:1.55965;stroke-linejoin:round"
       id="circle547"
       cx="30.500275"
       cy="140.87857"
       r="1.1516031" /><path
       id="circle651"
       style="opacity:0.07;fill:#ffffff;fill-opacity:1;stroke-width:1.55965;stroke-linejoin:round"
       d="m 35.61303,135.15878 a 1.6178758,1.6178758 0 0 0 -0.31161,0.95447 1.6178758,1.6178758 0 0 0 0.5302,1.19734 c -0.037,-0.71807 -0.11298,-1.43521 -0.21859,-2.15181 z m -0.42788,3.89847 a 0.73065364,0.73065364 0 0 0 -0.73071,0.73071 0.73065364,0.73065364 0 0 0 0.73071,0.7307 0.73065364,0.73065364 0 0 0 0.57257,-0.27647 c 0.0265,-0.27094 0.0479,-0.54215 0.0641,-0.81287 a 0.73065364,0.73065364 0 0 0 -0.63665,-0.37207 z" /></g></svg>
