<?xml version="1.0" encoding="UTF-8" standalone="no" ?>
<!-- Created with Inkscape (http://www.inkscape.org/) -->
<svg
  width="49.375286"
  height="49.377102"
  viewBox="0 0 13.063877 13.064358"
  version="1.1"
  id="svg1"
  inkscape:version="1.4.2 (ebf0e940d0, 2025-05-08)"
  sodipodi:docname="moon_day_9.svg"
  xml:space="preserve"
  xmlns:inkscape="http://www.inkscape.org/namespaces/inkscape"
  xmlns:sodipodi="http://sodipodi.sourceforge.net/DTD/sodipodi-0.dtd"
  xmlns="http://www.w3.org/2000/svg"
  xmlns:svg="http://www.w3.org/2000/svg"
><sodipodi:namedview
    id="namedview1"
    pagecolor="#ffffff"
    bordercolor="#000000"
    borderopacity="0.25"
    inkscape:showpageshadow="2"
    inkscape:pageopacity="0.0"
    inkscape:pagecheckerboard="0"
    inkscape:deskcolor="#d1d1d1"
    inkscape:document-units="px"
    inkscape:zoom="0.70710678"
    inkscape:cx="334.46151"
    inkscape:cy="303.34881"
    inkscape:window-width="2560"
    inkscape:window-height="1371"
    inkscape:window-x="0"
    inkscape:window-y="0"
    inkscape:window-maximized="1"
    inkscape:current-layer="layer1"
    showguides="true"
  /><defs id="defs1" /><g
    inkscape:label="Layer 1"
    inkscape:groupmode="layer"
    id="layer1"
    transform="translate(-104.40484,-175.12217)"
  ><rect
      style="fill:#03071e;fill-opacity:1;stroke-width:1.32292;stroke-linecap:square"
      id="rect523"
      width="13.063866"
      height="13.064321"
      x="104.40484"
      y="175.12221"
    /><circle
      style="opacity:0.05;fill:#ffffff;fill-opacity:1;stroke-width:2.64583;stroke-linejoin:round"
      id="circle213"
      cx="110.93678"
      cy="181.65437"
      r="6.5319328"
    /><path
      id="circle199"
      style="fill:#e5e7eb;fill-opacity:1;stroke-width:2.64583;stroke-linejoin:round"
      d="m 110.93674,175.1222 a 6.5319328,6.5319328 0 0 0 -0.49816,0.0191 c -0.26599,2.15243 -0.46148,4.30809 -0.46147,6.47196 0,2.17818 0.19795,4.365 0.46663,6.55463 a 6.5319328,6.5319328 0 0 0 0.493,0.0186 6.5319328,6.5319328 0 0 0 6.5319,-6.5319 6.5319328,6.5319328 0 0 0 -6.5319,-6.53242 z"
    /><circle
      style="fill:#03071e;fill-opacity:1;stroke-width:3.4535;stroke-linejoin:round"
      id="circle557"
      cx="113.91325"
      cy="179.50475"
      r="1.6178758"
    /><circle
      style="fill:#03071e;fill-opacity:1;stroke-width:1.55965;stroke-linejoin:round"
      id="circle558"
      cx="110.63946"
      cy="180.50511"
      r="0.73065364"
    /><circle
      style="fill:#03071e;fill-opacity:1;stroke-width:1.55965;stroke-linejoin:round"
      id="circle559"
      cx="112.17905"
      cy="183.17982"
      r="0.73065364"
    /><circle
      style="opacity:0.07;fill:#ffffff;fill-opacity:1;stroke-width:1.55965;stroke-linejoin:round"
      id="circle560"
      cx="107.49403"
      cy="184.27028"
      r="1.1516031"
    /><path
      id="circle648"
      style="opacity:0.07;fill:#808080;fill-opacity:1;stroke-width:1.55965;stroke-linejoin:round"
      d="m 110.00595,180.1411 a 0.73065364,0.73065364 0 0 0 -0.0971,0.3638 0.73065364,0.73065364 0 0 0 0.0765,0.32608 c 0.005,-0.22993 0.0119,-0.46011 0.0207,-0.68988 z"
    /></g></svg>
