<?xml version="1.0" encoding="UTF-8" standalone="no"?>
<!-- Created with Inkscape (http://www.inkscape.org/) -->

<svg
   width="49.376152"
   height="49.376976"
   viewBox="0 0 13.064106 13.064325"
   version="1.1"
   id="svg1"
   inkscape:version="1.4.2 (ebf0e940d0, 2025-05-08)"
   sodipodi:docname="moon_day_16.svg"
   xml:space="preserve"
   xmlns:inkscape="http://www.inkscape.org/namespaces/inkscape"
   xmlns:sodipodi="http://sodipodi.sourceforge.net/DTD/sodipodi-0.dtd"
   xmlns="http://www.w3.org/2000/svg"
   xmlns:svg="http://www.w3.org/2000/svg"><sodipodi:namedview
     id="namedview1"
     pagecolor="#ffffff"
     bordercolor="#000000"
     borderopacity="0.25"
     inkscape:showpageshadow="2"
     inkscape:pageopacity="0.0"
     inkscape:pagecheckerboard="0"
     inkscape:deskcolor="#d1d1d1"
     inkscape:document-units="px"
     inkscape:zoom="0.70710678"
     inkscape:cx="423.55696"
     inkscape:cy="238.29499"
     inkscape:window-width="2560"
     inkscape:window-height="1371"
     inkscape:window-x="0"
     inkscape:window-y="0"
     inkscape:window-maximized="1"
     inkscape:current-layer="layer1"
     showguides="true" /><defs
     id="defs1" /><g
     inkscape:label="Layer 1"
     inkscape:groupmode="layer"
     id="layer1"
     transform="translate(-80.856918,-192.32008)"><rect
       style="fill:#03071e;fill-opacity:1;stroke-width:1.32292;stroke-linecap:square"
       id="rect666"
       width="13.063866"
       height="13.064321"
       x="-93.920799"
       y="192.32008"
       transform="scale(-1,1)" /><circle
       style="opacity:0.05;fill:#ffffff;fill-opacity:1;stroke-width:2.64583;stroke-linejoin:round"
       id="circle679"
       cx="-87.389091"
       cy="198.85225"
       r="6.5319328"
       transform="scale(-1,1)" /><path
       id="path680"
       style="fill:#e5e7eb;fill-opacity:1;stroke-width:2.64583;stroke-linejoin:round"
       d="m 87.389338,192.32008 a 6.5319328,6.5319328 0 0 1 3.84731,1.25367 c 1.13586,1.74223 1.90117,3.48703 1.90117,5.23741 0,1.78468 -0.79556,3.57512 -1.96835,5.36814 a 6.5319328,6.5319328 0 0 1 -3.78013,1.2051 6.5319328,6.5319328 0 0 1 -6.53242,-6.5319 6.5319328,6.5319328 0 0 1 6.53242,-6.53242 z" /><circle
       style="fill:#03071e;fill-opacity:1;stroke-width:3.4535;stroke-linejoin:round"
       id="circle733"
       cx="-84.412376"
       cy="196.70262"
       r="1.6178758"
       transform="scale(-1,1)" /><circle
       style="fill:#03071e;fill-opacity:1;stroke-width:1.55965;stroke-linejoin:round"
       id="circle734"
       cx="-87.68618"
       cy="197.70299"
       r="0.73065364"
       transform="scale(-1,1)" /><circle
       style="fill:#03071e;fill-opacity:1;stroke-width:1.55965;stroke-linejoin:round"
       id="circle735"
       cx="-86.146568"
       cy="200.3777"
       r="0.73065364"
       transform="scale(-1,1)" /><circle
       style="fill:#03071e;fill-opacity:1;stroke-width:1.55965;stroke-linejoin:round"
       id="circle736"
       cx="-90.831596"
       cy="201.46815"
       r="1.1516031"
       transform="scale(-1,1)" /></g></svg>
