<?xml version="1.0" encoding="UTF-8" standalone="no"?>
<!-- Created with Inkscape (http://www.inkscape.org/) -->

<svg
   width="49.375401"
   height="49.376961"
   viewBox="0 0 13.063907 13.064321"
   version="1.1"
   id="svg1"
   inkscape:version="1.4.2 (ebf0e940d0, 2025-05-08)"
   sodipodi:docname="moon_day_27.svg"
   xml:space="preserve"
   xmlns:inkscape="http://www.inkscape.org/namespaces/inkscape"
   xmlns:sodipodi="http://sodipodi.sourceforge.net/DTD/sodipodi-0.dtd"
   xmlns="http://www.w3.org/2000/svg"
   xmlns:svg="http://www.w3.org/2000/svg"><sodipodi:namedview
     id="namedview1"
     pagecolor="#ffffff"
     bordercolor="#000000"
     borderopacity="0.25"
     inkscape:showpageshadow="2"
     inkscape:pageopacity="0.0"
     inkscape:pagecheckerboard="0"
     inkscape:deskcolor="#d1d1d1"
     inkscape:document-units="px"
     inkscape:zoom="5.6568542"
     inkscape:cx="44.636116"
     inkscape:cy="40.039922"
     inkscape:window-width="2560"
     inkscape:window-height="1371"
     inkscape:window-x="0"
     inkscape:window-y="0"
     inkscape:window-maximized="1"
     inkscape:current-layer="layer1"
     showguides="true" /><defs
     id="defs1" /><g
     inkscape:label="Layer 1"
     inkscape:groupmode="layer"
     id="layer1"
     transform="translate(-77.681915,-171.68259)"><circle
       style="fill:#ffffff;fill-opacity:0.188235;stroke-width:2.64583;stroke-linejoin:round"
       id="circle671"
       cx="-84.21389"
       cy="178.21474"
       r="6.5319328"
       transform="scale(-1,1)" /><path
       style="fill:#ffffff;fill-opacity:1;stroke-width:2.64583;stroke-linejoin:round"
       d="m 81.39048,172.3244 c -1.15148,1.96604 -1.9637,3.93524 -1.9637,5.91127 0,1.94127 0.78388,3.88908 1.90324,5.83995 a 6.5319328,6.5319328 0 0 1 -3.64784,-5.86062 6.5319328,6.5319328 0 0 1 3.7083,-5.8906 z"
       id="path671" /><rect
       style="fill:#03071e;fill-opacity:1;stroke-width:1.32292;stroke-linecap:square"
       id="rect683"
       width="13.063866"
       height="13.064321"
       x="-90.745781"
       y="171.68259"
       transform="scale(-1,1)" /><circle
       style="opacity:0.05;fill:#ffffff;fill-opacity:1;stroke-width:2.64583;stroke-linejoin:round"
       id="circle684"
       cx="-84.21386"
       cy="178.21475"
       r="6.5319328"
       transform="scale(-1,1)" /><path
       style="fill:#e5e7eb;fill-opacity:1;stroke-width:2.64583;stroke-linejoin:round"
       d="m 81.39048,172.3244 c -1.15148,1.96604 -1.9637,3.93524 -1.9637,5.91127 0,1.94127 0.78388,3.88908 1.90324,5.83995 a 6.5319328,6.5319328 0 0 1 -3.64784,-5.86062 6.5319328,6.5319328 0 0 1 3.7083,-5.8906 z"
       id="path684" /><circle
       style="opacity:0.07;fill:#ffffff;fill-opacity:1;stroke-width:3.4535;stroke-linejoin:round"
       id="circle685"
       cx="-81.237419"
       cy="176.06512"
       r="1.6178758"
       transform="scale(-1,1)" /><circle
       style="opacity:0.07;fill:#ffffff;fill-opacity:1;stroke-width:1.55965;stroke-linejoin:round"
       id="circle686"
       cx="-84.511223"
       cy="177.06549"
       r="0.73065364"
       transform="scale(-1,1)" /><circle
       style="opacity:0.07;fill:#ffffff;fill-opacity:1;stroke-width:1.55965;stroke-linejoin:round"
       id="circle687"
       cx="-82.971611"
       cy="179.7402"
       r="0.73065364"
       transform="scale(-1,1)" /><circle
       style="opacity:0.07;fill:#ffffff;fill-opacity:1;stroke-width:1.55965;stroke-linejoin:round"
       id="circle688"
       cx="-87.656609"
       cy="180.83066"
       r="1.1516031"
       transform="scale(-1,1)" /><path
       id="path688"
       style="fill:#03071e;fill-opacity:1;stroke-width:2.64583;stroke-linejoin:round"
       d="m 80.11722,174.89797 c -0.19227,0.49449 -0.35012,0.98901 -0.46612,1.48415 a 1.6178758,1.6178758 0 0 1 -0.0315,-0.31677 1.6178758,1.6178758 0 0 1 0.49765,-1.16738 z" /></g></svg>
