<?xml version="1.0" encoding="UTF-8" standalone="no" ?>
<!-- Created with Inkscape (http://www.inkscape.org/) -->
<svg
  width="49.37524"
  height="49.376961"
  viewBox="0 0 13.063865 13.064321"
  version="1.1"
  id="svg1"
  inkscape:version="1.4.2 (ebf0e940d0, 2025-05-08)"
  sodipodi:docname="moon_day_3.svg"
  xml:space="preserve"
  xmlns:inkscape="http://www.inkscape.org/namespaces/inkscape"
  xmlns:sodipodi="http://sodipodi.sourceforge.net/DTD/sodipodi-0.dtd"
  xmlns="http://www.w3.org/2000/svg"
  xmlns:svg="http://www.w3.org/2000/svg"
><sodipodi:namedview
    id="namedview1"
    pagecolor="#ffffff"
    bordercolor="#000000"
    borderopacity="0.25"
    inkscape:showpageshadow="2"
    inkscape:pageopacity="0.0"
    inkscape:pagecheckerboard="0"
    inkscape:deskcolor="#d1d1d1"
    inkscape:document-units="px"
    inkscape:zoom="8"
    inkscape:cx="23.5625"
    inkscape:cy="46.1875"
    inkscape:window-width="2560"
    inkscape:window-height="1371"
    inkscape:window-x="0"
    inkscape:window-y="0"
    inkscape:window-maximized="1"
    inkscape:current-layer="layer1"
    showguides="true"
  /><defs id="defs1" /><g
    inkscape:label="Layer 1"
    inkscape:groupmode="layer"
    id="layer1"
    transform="translate(-51.770309,-126.96695)"
  ><circle
      style="fill:#ffffff;fill-opacity:0.188235;stroke-width:2.64583;stroke-linejoin:round"
      id="circle183"
      cx="58.302242"
      cy="133.4991"
      r="6.5319328"
    /><path
      style="fill:#ffffff;fill-opacity:1;stroke-width:2.64583;stroke-linejoin:round"
      d="m 61.125657,127.60875 c 1.15148,1.96604 1.9637,3.93524 1.9637,5.91127 0,1.94127 -0.78388,3.88908 -1.90324,5.83995 a 6.5319328,6.5319328 0 0 0 3.64784,-5.86062 6.5319328,6.5319328 0 0 0 -3.7083,-5.8906 z"
      id="path183"
    /><rect
      style="fill:#03071e;fill-opacity:1;stroke-width:1.32292;stroke-linecap:square"
      id="rect263"
      width="13.063866"
      height="13.064321"
      x="51.770309"
      y="126.96695"
    /><circle
      style="opacity:0.05;fill:#ffffff;fill-opacity:1;stroke-width:2.64583;stroke-linejoin:round"
      id="circle264"
      cx="58.302242"
      cy="133.49911"
      r="6.5319328"
    /><path
      style="fill:#e5e7eb;fill-opacity:1;stroke-width:2.64583;stroke-linejoin:round"
      d="m 61.125657,127.60875 c 1.15148,1.96604 1.9637,3.93524 1.9637,5.91127 0,1.94127 -0.78388,3.88908 -1.90324,5.83995 a 6.5319328,6.5319328 0 0 0 3.64784,-5.86062 6.5319328,6.5319328 0 0 0 -3.7083,-5.8906 z"
      id="path264"
    /><circle
      style="opacity:0.07;fill:#ffffff;fill-opacity:1;stroke-width:3.4535;stroke-linejoin:round"
      id="circle494"
      cx="61.278713"
      cy="131.34949"
      r="1.6178758"
    /><circle
      style="opacity:0.07;fill:#ffffff;fill-opacity:1;stroke-width:1.55965;stroke-linejoin:round"
      id="circle495"
      cx="58.00491"
      cy="132.34985"
      r="0.73065364"
    /><circle
      style="opacity:0.07;fill:#ffffff;fill-opacity:1;stroke-width:1.55965;stroke-linejoin:round"
      id="circle496"
      cx="59.544506"
      cy="135.02457"
      r="0.73065364"
    /><circle
      style="opacity:0.07;fill:#ffffff;fill-opacity:1;stroke-width:1.55965;stroke-linejoin:round"
      id="circle497"
      cx="54.859478"
      cy="136.11502"
      r="1.1516031"
    /><path
      id="path497"
      style="fill:#03071e;fill-opacity:1;stroke-width:2.64583;stroke-linejoin:round"
      d="m 62.398917,130.18232 c 0.19227,0.49449 0.35012,0.98901 0.46612,1.48415 a 1.6178758,1.6178758 0 0 0 0.0315,-0.31677 1.6178758,1.6178758 0 0 0 -0.49765,-1.16738 z"
    /></g></svg>
