<?xml version="1.0" encoding="UTF-8" standalone="no"?>
<!-- Created with Inkscape (http://www.inkscape.org/) -->

<svg
   width="49.375256"
   height="49.376961"
   viewBox="0 0 13.063869 13.064321"
   version="1.1"
   id="svg1"
   inkscape:version="1.4.2 (ebf0e940d0, 2025-05-08)"
   sodipodi:docname="moon_day_4.svg"
   xml:space="preserve"
   xmlns:inkscape="http://www.inkscape.org/namespaces/inkscape"
   xmlns:sodipodi="http://sodipodi.sourceforge.net/DTD/sodipodi-0.dtd"
   xmlns="http://www.w3.org/2000/svg"
   xmlns:svg="http://www.w3.org/2000/svg"><sodipodi:namedview
     id="namedview1"
     pagecolor="#ffffff"
     bordercolor="#000000"
     borderopacity="0.25"
     inkscape:showpageshadow="2"
     inkscape:pageopacity="0.0"
     inkscape:pagecheckerboard="0"
     inkscape:deskcolor="#d1d1d1"
     inkscape:document-units="px"
     inkscape:zoom="0.70710678"
     inkscape:cx="215.66757"
     inkscape:cy="286.37825"
     inkscape:window-width="2560"
     inkscape:window-height="1371"
     inkscape:window-x="0"
     inkscape:window-y="0"
     inkscape:window-maximized="1"
     inkscape:current-layer="layer1"
     showguides="true" /><defs
     id="defs1" /><g
     inkscape:label="Layer 1"
     inkscape:groupmode="layer"
     id="layer1"
     transform="translate(-135.89024,-179.62009)"><rect
       style="fill:#03071e;fill-opacity:1;stroke-width:1.32292;stroke-linecap:square"
       id="rect498"
       width="13.063866"
       height="13.064321"
       x="135.89024"
       y="179.62009" /><circle
       style="opacity:0.05;fill:#ffffff;fill-opacity:1;stroke-width:2.64583;stroke-linejoin:round"
       id="circle184"
       cx="142.42218"
       cy="186.15225"
       r="6.5319328" /><path
       style="fill:#e5e7eb;fill-opacity:1;stroke-width:2.64583;stroke-linejoin:round"
       d="m 144.54391,179.97457 c 0.99276,2.06157 1.70738,4.12625 1.70738,6.19859 10e-6,2.04121 -0.69342,4.08962 -1.66294,6.14122 a 6.5319328,6.5319328 0 0 0 4.36562,-6.16189 6.5319328,6.5319328 0 0 0 -4.41006,-6.17792 z"
       id="path184" /><circle
       style="fill:#03071e;fill-opacity:1;stroke-width:3.4535;stroke-linejoin:round"
       id="circle498"
       cx="145.39867"
       cy="184.00262"
       r="1.6178758" /><circle
       style="opacity:0.07;fill:#ffffff;fill-opacity:1;stroke-width:1.55965;stroke-linejoin:round"
       id="circle499"
       cx="142.12486"
       cy="185.00299"
       r="0.73065364" /><circle
       style="opacity:0.07;fill:#ffffff;fill-opacity:1;stroke-width:1.55965;stroke-linejoin:round"
       id="circle500"
       cx="143.66446"
       cy="187.6777"
       r="0.73065364" /><circle
       style="opacity:0.07;fill:#ffffff;fill-opacity:1;stroke-width:1.55965;stroke-linejoin:round"
       id="circle501"
       cx="138.97943"
       cy="188.76816"
       r="1.1516031" /><path
       id="circle653"
       style="opacity:0.07;fill:#ffffff;fill-opacity:1;stroke-width:3.4535;stroke-linejoin:round"
       d="m 145.39887,182.38485 a 1.6178758,1.6178758 0 0 0 -1.61799,1.61799 1.6178758,1.6178758 0 0 0 1.61799,1.61747 1.6178758,1.6178758 0 0 0 0.82011,-0.22324 c -0.0832,-1.00318 -0.32163,-2.00462 -0.66508,-3.00499 a 1.6178758,1.6178758 0 0 0 -0.15503,-0.007 z" /></g></svg>
