<?xml version="1.0" encoding="UTF-8" standalone="no" ?>
<!-- Created with Inkscape (http://www.inkscape.org/) -->
<svg
  width="49.375286"
  height="49.377045"
  viewBox="0 0 13.063877 13.064343"
  version="1.1"
  id="svg1"
  inkscape:version="1.4.2 (ebf0e940d0, 2025-05-08)"
  sodipodi:docname="moon_day_11.svg"
  xml:space="preserve"
  xmlns:inkscape="http://www.inkscape.org/namespaces/inkscape"
  xmlns:sodipodi="http://sodipodi.sourceforge.net/DTD/sodipodi-0.dtd"
  xmlns="http://www.w3.org/2000/svg"
  xmlns:svg="http://www.w3.org/2000/svg"
><sodipodi:namedview
    id="namedview1"
    pagecolor="#ffffff"
    bordercolor="#000000"
    borderopacity="0.25"
    inkscape:showpageshadow="2"
    inkscape:pageopacity="0.0"
    inkscape:pagecheckerboard="0"
    inkscape:deskcolor="#d1d1d1"
    inkscape:document-units="px"
    inkscape:zoom="0.70710678"
    inkscape:cx="297.69196"
    inkscape:cy="272.23611"
    inkscape:window-width="2560"
    inkscape:window-height="1371"
    inkscape:window-x="0"
    inkscape:window-y="0"
    inkscape:window-maximized="1"
    inkscape:current-layer="layer1"
    showguides="true"
  /><defs id="defs1" /><g
    inkscape:label="Layer 1"
    inkscape:groupmode="layer"
    id="layer1"
    transform="translate(-113.92984,-183.58883)"
  ><rect
      style="fill:#03071e;fill-opacity:1;stroke-width:1.32292;stroke-linecap:square"
      id="rect521"
      width="13.063866"
      height="13.064321"
      x="113.92985"
      y="183.58885"
    /><circle
      style="opacity:0.05;fill:#ffffff;fill-opacity:1;stroke-width:2.64583;stroke-linejoin:round"
      id="circle215"
      cx="120.46177"
      cy="190.12102"
      r="6.5319328"
    /><path
      id="circle203"
      style="fill:#e5e7eb;fill-opacity:1;stroke-width:2.64583;stroke-linejoin:round"
      d="m 120.46172,183.58883 a 6.5319328,6.5319328 0 0 0 -1.55546,0.1881 c -0.76507,2.09632 -1.31981,4.19568 -1.31981,6.30298 0,2.12349 0.56371,4.25477 1.3379,6.38927 a 6.5319328,6.5319328 0 0 0 1.53737,0.18397 6.5319328,6.5319328 0 0 0 6.53191,-6.5319 6.5319328,6.5319328 0 0 0 -6.53191,-6.53242 z"
    /><circle
      style="fill:#03071e;fill-opacity:1;stroke-width:3.4535;stroke-linejoin:round"
      id="circle565"
      cx="123.43826"
      cy="187.97139"
      r="1.6178758"
    /><circle
      style="fill:#03071e;fill-opacity:1;stroke-width:1.55965;stroke-linejoin:round"
      id="circle566"
      cx="120.16445"
      cy="188.97176"
      r="0.73065364"
    /><circle
      style="fill:#03071e;fill-opacity:1;stroke-width:1.55965;stroke-linejoin:round"
      id="circle567"
      cx="121.70405"
      cy="191.64647"
      r="0.73065364"
    /><circle
      style="fill:#03071e;fill-opacity:1;stroke-width:1.55965;stroke-linejoin:round"
      id="circle568"
      cx="117.01902"
      cy="192.73692"
      r="1.1516031"
    /><path
      id="circle647"
      style="opacity:0.07;fill:#ffffff;fill-opacity:1;stroke-width:1.55965;stroke-linejoin:round"
      d="m 117.01893,191.58533 a 1.1516031,1.1516031 0 0 0 -1.15135,1.15135 1.1516031,1.1516031 0 0 0 1.15135,1.15187 1.1516031,1.1516031 0 0 0 0.96687,-0.52607 c -0.11817,-0.51744 -0.21361,-1.03459 -0.28164,-1.55133 a 1.1516031,1.1516031 0 0 0 -0.68523,-0.22582 z"
    /></g></svg>
