<?xml version="1.0" encoding="UTF-8" standalone="no" ?>
<!-- Created with Inkscape (http://www.inkscape.org/) -->
<svg
  width="49.375355"
  height="49.376999"
  viewBox="0 0 13.063895 13.064331"
  version="1.1"
  id="svg1"
  inkscape:version="1.4.2 (ebf0e940d0, 2025-05-08)"
  sodipodi:docname="moon_day_13.svg"
  xml:space="preserve"
  xmlns:inkscape="http://www.inkscape.org/namespaces/inkscape"
  xmlns:sodipodi="http://sodipodi.sourceforge.net/DTD/sodipodi-0.dtd"
  xmlns="http://www.w3.org/2000/svg"
  xmlns:svg="http://www.w3.org/2000/svg"
><sodipodi:namedview
    id="namedview1"
    pagecolor="#ffffff"
    bordercolor="#000000"
    borderopacity="0.25"
    inkscape:showpageshadow="2"
    inkscape:pageopacity="0.0"
    inkscape:pagecheckerboard="0"
    inkscape:deskcolor="#d1d1d1"
    inkscape:document-units="px"
    inkscape:zoom="0.70710678"
    inkscape:cx="454.66966"
    inkscape:cy="276.47875"
    inkscape:window-width="2560"
    inkscape:window-height="1371"
    inkscape:window-x="0"
    inkscape:window-y="0"
    inkscape:window-maximized="1"
    inkscape:current-layer="layer1"
    showguides="true"
  /><defs id="defs1" /><g
    inkscape:label="Layer 1"
    inkscape:groupmode="layer"
    id="layer1"
    transform="translate(-72.654835,-182.26592)"
  ><rect
      style="fill:#03071e;fill-opacity:1;stroke-width:1.32292;stroke-linecap:square"
      id="rect519"
      width="13.063866"
      height="13.064321"
      x="72.654846"
      y="182.26593"
    /><circle
      style="opacity:0.05;fill:#ffffff;fill-opacity:1;stroke-width:2.64583;stroke-linejoin:round"
      id="circle221"
      cx="79.186768"
      cy="188.7981"
      r="6.5319328"
    /><path
      id="circle207"
      style="fill:#e5e7eb;fill-opacity:1;stroke-width:2.64583;stroke-linejoin:round"
      d="M 79.18683,182.26592 A 6.5319328,6.5319328 0 0 0 76.31,182.93358 c -1.12515,1.93688 -1.9141,3.87685 -1.9141,5.82342 1e-5,1.96936 0.80766,3.94556 1.95389,5.9247 a 6.5319328,6.5319328 0 0 0 2.83704,0.64854 6.5319328,6.5319328 0 0 0 6.5319,-6.5319 6.5319328,6.5319328 0 0 0 -6.5319,-6.53242 z"
    /><circle
      style="fill:#03071e;fill-opacity:1;stroke-width:3.4535;stroke-linejoin:round"
      id="circle573"
      cx="82.163269"
      cy="186.64847"
      r="1.6178758"
    /><circle
      style="fill:#03071e;fill-opacity:1;stroke-width:1.55965;stroke-linejoin:round"
      id="circle574"
      cx="78.889465"
      cy="187.64883"
      r="0.73065364"
    /><circle
      style="fill:#03071e;fill-opacity:1;stroke-width:1.55965;stroke-linejoin:round"
      id="circle575"
      cx="80.429047"
      cy="190.32355"
      r="0.73065364"
    /><circle
      style="fill:#03071e;fill-opacity:1;stroke-width:1.55965;stroke-linejoin:round"
      id="circle576"
      cx="75.744019"
      cy="191.414"
      r="1.1516031"
    /><path
      id="circle645"
      style="opacity:0.07;fill:#ffffff;fill-opacity:1;stroke-width:1.55965;stroke-linejoin:round"
      d="m 74.69956,190.92904 a 1.1516031,1.1516031 0 0 0 -0.10697,0.48473 1.1516031,1.1516031 0 0 0 0.62838,1.02629 c -0.20993,-0.50387 -0.38631,-1.00778 -0.52141,-1.51102 z"
    /></g></svg>
