<?xml version="1.0" encoding="UTF-8" standalone="no" ?>
<!-- Created with Inkscape (http://www.inkscape.org/) -->
<svg
  width="49.375286"
  height="49.376961"
  viewBox="0 0 13.063877 13.064321"
  version="1.1"
  id="svg1"
  inkscape:version="1.4.2 (ebf0e940d0, 2025-05-08)"
  sodipodi:docname="moon_day_24.svg"
  xml:space="preserve"
  xmlns:inkscape="http://www.inkscape.org/namespaces/inkscape"
  xmlns:sodipodi="http://sodipodi.sourceforge.net/DTD/sodipodi-0.dtd"
  xmlns="http://www.w3.org/2000/svg"
  xmlns:svg="http://www.w3.org/2000/svg"
><sodipodi:namedview
    id="namedview1"
    pagecolor="#ffffff"
    bordercolor="#000000"
    borderopacity="0.25"
    inkscape:showpageshadow="2"
    inkscape:pageopacity="0.0"
    inkscape:pagecheckerboard="0"
    inkscape:deskcolor="#d1d1d1"
    inkscape:document-units="px"
    inkscape:zoom="0.70710678"
    inkscape:cx="550.83618"
    inkscape:cy="328.80465"
    inkscape:window-width="2560"
    inkscape:window-height="1371"
    inkscape:window-x="0"
    inkscape:window-y="0"
    inkscape:window-maximized="1"
    inkscape:current-layer="layer1"
    showguides="true"
  /><defs id="defs1" /><g
    inkscape:label="Layer 1"
    inkscape:groupmode="layer"
    id="layer1"
    transform="translate(-46.990246,-168.50758)"
  ><rect
      style="fill:#03071e;fill-opacity:1;stroke-width:1.32292;stroke-linecap:square"
      id="rect661"
      width="13.063866"
      height="13.064321"
      x="-60.054111"
      y="168.50758"
      transform="scale(-1,1)"
    /><circle
      style="opacity:0.05;fill:#ffffff;fill-opacity:1;stroke-width:2.64583;stroke-linejoin:round"
      id="circle674"
      cx="-53.52219"
      cy="175.03975"
      r="6.5319328"
      transform="scale(-1,1)"
    /><path
      style="fill:#e5e7eb;fill-opacity:1;stroke-width:2.64583;stroke-linejoin:round"
      d="m 52.52963,168.58354 c -0.53108,2.1541 -0.92139,4.31151 -0.92139,6.47713 0,2.13759 0.38016,4.28339 0.90072,6.43216 a 6.5319328,6.5319328 0 0 1 -5.51852,-6.45283 6.5319328,6.5319328 0 0 1 5.53919,-6.45646 z"
      id="path674"
    /><circle
      style="opacity:0.07;fill:#ffffff;fill-opacity:1;stroke-width:3.4535;stroke-linejoin:round"
      id="circle697"
      cx="-50.545689"
      cy="172.89011"
      r="1.6178758"
      transform="scale(-1,1)"
    /><circle
      style="opacity:0.07;fill:#ffffff;fill-opacity:1;stroke-width:1.55965;stroke-linejoin:round"
      id="circle698"
      cx="-53.819492"
      cy="173.89047"
      r="0.73065364"
      transform="scale(-1,1)"
    /><circle
      style="opacity:0.07;fill:#ffffff;fill-opacity:1;stroke-width:1.55965;stroke-linejoin:round"
      id="circle699"
      cx="-52.279896"
      cy="176.56519"
      r="0.73065364"
      transform="scale(-1,1)"
    /><circle
      style="opacity:0.07;fill:#ffffff;fill-opacity:1;stroke-width:1.55965;stroke-linejoin:round"
      id="circle700"
      cx="-56.964924"
      cy="177.65564"
      r="1.1516031"
      transform="scale(-1,1)"
    /><circle
      style="fill:#03071e;fill-opacity:1;stroke-width:3.4535;stroke-linejoin:round"
      id="circle701"
      cx="-50.545658"
      cy="172.89012"
      r="1.6178758"
      transform="scale(-1,1)"
    /><circle
      style="opacity:0.07;fill:#ffffff;fill-opacity:1;stroke-width:1.55965;stroke-linejoin:round"
      id="circle702"
      cx="-53.819492"
      cy="173.89049"
      r="0.73065364"
      transform="scale(-1,1)"
    /><circle
      style="fill:#03071e;fill-opacity:1;stroke-width:1.55965;stroke-linejoin:round"
      id="circle703"
      cx="-52.279881"
      cy="176.5652"
      r="0.73065364"
      transform="scale(-1,1)"
    /><circle
      style="opacity:0.07;fill:#ffffff;fill-opacity:1;stroke-width:1.55965;stroke-linejoin:round"
      id="circle704"
      cx="-56.964939"
      cy="177.65565"
      r="1.1516031"
      transform="scale(-1,1)"
    /><path
      id="path742"
      style="opacity:0.07;fill:#ffffff;fill-opacity:1;stroke-width:1.55965;stroke-linejoin:round"
      d="m 51.85217,171.93588 a 1.6178758,1.6178758 0 0 1 0.31161,0.95447 1.6178758,1.6178758 0 0 1 -0.5302,1.19734 c 0.037,-0.71807 0.11298,-1.43521 0.21859,-2.15181 z m 0.42788,3.89847 a 0.73065364,0.73065364 0 0 1 0.73071,0.73071 0.73065364,0.73065364 0 0 1 -0.73071,0.7307 0.73065364,0.73065364 0 0 1 -0.57257,-0.27647 c -0.0265,-0.27094 -0.0479,-0.54215 -0.0641,-0.81287 a 0.73065364,0.73065364 0 0 1 0.63665,-0.37207 z"
    /></g></svg>
