<?xml version="1.0" encoding="UTF-8" standalone="no"?>
<!-- Created with Inkscape (http://www.inkscape.org/) -->

<svg
   width="49.375286"
   height="49.377098"
   viewBox="0 0 13.063877 13.064357"
   version="1.1"
   id="svg1"
   inkscape:version="1.4.2 (ebf0e940d0, 2025-05-08)"
   sodipodi:docname="moon_day_21.svg"
   xml:space="preserve"
   xmlns:inkscape="http://www.inkscape.org/namespaces/inkscape"
   xmlns:sodipodi="http://sodipodi.sourceforge.net/DTD/sodipodi-0.dtd"
   xmlns="http://www.w3.org/2000/svg"
   xmlns:svg="http://www.w3.org/2000/svg"><sodipodi:namedview
     id="namedview1"
     pagecolor="#ffffff"
     bordercolor="#000000"
     borderopacity="0.25"
     inkscape:showpageshadow="2"
     inkscape:pageopacity="0.0"
     inkscape:pagecheckerboard="0"
     inkscape:deskcolor="#d1d1d1"
     inkscape:document-units="px"
     inkscape:zoom="0.70710678"
     inkscape:cx="539.52247"
     inkscape:cy="354.2605"
     inkscape:window-width="2560"
     inkscape:window-height="1371"
     inkscape:window-x="0"
     inkscape:window-y="0"
     inkscape:window-maximized="1"
     inkscape:current-layer="layer1"
     showguides="true" /><defs
     id="defs1" /><g
     inkscape:label="Layer 1"
     inkscape:groupmode="layer"
     id="layer1"
     transform="translate(-50.165253,-161.893)"><rect
       style="fill:#03071e;fill-opacity:1;stroke-width:1.32292;stroke-linecap:square"
       id="rect659"
       width="13.063866"
       height="13.064321"
       x="-63.229118"
       y="161.89304"
       transform="scale(-1,1)" /><circle
       style="opacity:0.05;fill:#ffffff;fill-opacity:1;stroke-width:2.64583;stroke-linejoin:round"
       id="circle676"
       cx="-56.697197"
       cy="168.4252"
       r="6.5319328"
       transform="scale(-1,1)" /><path
       id="path677"
       style="fill:#e5e7eb;fill-opacity:1;stroke-width:2.64583;stroke-linejoin:round"
       d="m 56.69726,161.89303 a 6.5319328,6.5319328 0 0 1 0.49816,0.0191 c 0.26599,2.15243 0.46148,4.30809 0.46147,6.47196 0,2.17818 -0.19795,4.365 -0.46663,6.55463 a 6.5319328,6.5319328 0 0 1 -0.493,0.0186 6.5319328,6.5319328 0 0 1 -6.5319,-6.5319 6.5319328,6.5319328 0 0 1 6.5319,-6.53242 z" /><circle
       style="fill:#03071e;fill-opacity:1;stroke-width:3.4535;stroke-linejoin:round"
       id="circle713"
       cx="-53.720726"
       cy="166.27557"
       r="1.6178758"
       transform="scale(-1,1)" /><circle
       style="fill:#03071e;fill-opacity:1;stroke-width:1.55965;stroke-linejoin:round"
       id="circle714"
       cx="-56.99453"
       cy="167.27594"
       r="0.73065364"
       transform="scale(-1,1)" /><circle
       style="fill:#03071e;fill-opacity:1;stroke-width:1.55965;stroke-linejoin:round"
       id="circle715"
       cx="-55.454918"
       cy="169.95065"
       r="0.73065364"
       transform="scale(-1,1)" /><circle
       style="opacity:0.07;fill:#ffffff;fill-opacity:1;stroke-width:1.55965;stroke-linejoin:round"
       id="circle716"
       cx="-60.139946"
       cy="171.04111"
       r="1.1516031"
       transform="scale(-1,1)" /><path
       id="path739"
       style="opacity:0.07;fill:#808080;fill-opacity:1;stroke-width:1.55965;stroke-linejoin:round"
       d="m 57.62805,166.91193 a 0.73065364,0.73065364 0 0 1 0.0971,0.3638 0.73065364,0.73065364 0 0 1 -0.0765,0.32608 c -0.005,-0.22993 -0.0119,-0.46011 -0.0207,-0.68988 z" /></g></svg>
