<?xml version="1.0" encoding="UTF-8" standalone="no"?>
<!-- Created with Inkscape (http://www.inkscape.org/) -->

<svg
   width="49.375286"
   height="49.376991"
   viewBox="0 0 13.063877 13.064329"
   version="1.1"
   id="svg1"
   inkscape:version="1.4.2 (ebf0e940d0, 2025-05-08)"
   sodipodi:docname="moon_day_19.svg"
   xml:space="preserve"
   xmlns:inkscape="http://www.inkscape.org/namespaces/inkscape"
   xmlns:sodipodi="http://sodipodi.sourceforge.net/DTD/sodipodi-0.dtd"
   xmlns="http://www.w3.org/2000/svg"
   xmlns:svg="http://www.w3.org/2000/svg"><sodipodi:namedview
     id="namedview1"
     pagecolor="#ffffff"
     bordercolor="#000000"
     borderopacity="0.25"
     inkscape:showpageshadow="2"
     inkscape:pageopacity="0.0"
     inkscape:pagecheckerboard="0"
     inkscape:deskcolor="#d1d1d1"
     inkscape:document-units="px"
     inkscape:zoom="0.70710678"
     inkscape:cx="443.35595"
     inkscape:cy="341.53258"
     inkscape:window-width="2560"
     inkscape:window-height="1371"
     inkscape:window-x="0"
     inkscape:window-y="0"
     inkscape:window-maximized="1"
     inkscape:current-layer="layer1"
     showguides="true" /><defs
     id="defs1" /><g
     inkscape:label="Layer 1"
     inkscape:groupmode="layer"
     id="layer1"
     transform="translate(-75.56525,-165.068)"><rect
       style="fill:#03071e;fill-opacity:1;stroke-width:1.32292;stroke-linecap:square"
       id="rect664"
       width="13.063866"
       height="13.064321"
       x="-88.629128"
       y="165.06801"
       transform="scale(-1,1)" /><circle
       style="opacity:0.05;fill:#ffffff;fill-opacity:1;stroke-width:2.64583;stroke-linejoin:round"
       id="circle669"
       cx="-82.097183"
       cy="171.60017"
       r="6.5319328"
       transform="scale(-1,1)" /><path
       id="path669"
       style="fill:#e5e7eb;fill-opacity:1;stroke-width:2.64583;stroke-linejoin:round"
       d="m 82.097253,165.068 a 6.5319328,6.5319328 0 0 1 1.55546,0.1881 c 0.76507,2.09632 1.31981,4.19568 1.31981,6.30298 0,2.12349 -0.56371,4.25477 -1.3379,6.38927 a 6.5319328,6.5319328 0 0 1 -1.53737,0.18397 6.5319328,6.5319328 0 0 1 -6.53191,-6.5319 6.5319328,6.5319328 0 0 1 6.53191,-6.53242 z" /><circle
       style="fill:#03071e;fill-opacity:1;stroke-width:3.4535;stroke-linejoin:round"
       id="circle721"
       cx="-79.120712"
       cy="169.45055"
       r="1.6178758"
       transform="scale(-1,1)" /><circle
       style="fill:#03071e;fill-opacity:1;stroke-width:1.55965;stroke-linejoin:round"
       id="circle722"
       cx="-82.394516"
       cy="170.45091"
       r="0.73065364"
       transform="scale(-1,1)" /><circle
       style="fill:#03071e;fill-opacity:1;stroke-width:1.55965;stroke-linejoin:round"
       id="circle723"
       cx="-80.854935"
       cy="173.12563"
       r="0.73065364"
       transform="scale(-1,1)" /><circle
       style="fill:#03071e;fill-opacity:1;stroke-width:1.55965;stroke-linejoin:round"
       id="circle724"
       cx="-85.539963"
       cy="174.21608"
       r="1.1516031"
       transform="scale(-1,1)" /><path
       id="path738"
       style="opacity:0.07;fill:#ffffff;fill-opacity:1;stroke-width:1.55965;stroke-linejoin:round"
       d="m 85.540043,173.0645 a 1.1516031,1.1516031 0 0 1 1.15135,1.15135 1.1516031,1.1516031 0 0 1 -1.15135,1.15187 1.1516031,1.1516031 0 0 1 -0.96687,-0.52607 c 0.11817,-0.51744 0.21361,-1.03459 0.28164,-1.55133 a 1.1516031,1.1516031 0 0 1 0.68523,-0.22582 z" /></g></svg>
