<?xml version="1.0" encoding="UTF-8" standalone="no" ?>
<!-- Created with Inkscape (http://www.inkscape.org/) -->
<svg
  width="49.375324"
  height="49.376961"
  viewBox="0 0 13.063887 13.064321"
  version="1.1"
  id="svg1"
  inkscape:version="1.4.2 (ebf0e940d0, 2025-05-08)"
  sodipodi:docname="moon_day_17.svg"
  xml:space="preserve"
  xmlns:inkscape="http://www.inkscape.org/namespaces/inkscape"
  xmlns:sodipodi="http://sodipodi.sourceforge.net/DTD/sodipodi-0.dtd"
  xmlns="http://www.w3.org/2000/svg"
  xmlns:svg="http://www.w3.org/2000/svg"
><sodipodi:namedview
    id="namedview1"
    pagecolor="#ffffff"
    bordercolor="#000000"
    borderopacity="0.25"
    inkscape:showpageshadow="2"
    inkscape:pageopacity="0.0"
    inkscape:pagecheckerboard="0"
    inkscape:deskcolor="#d1d1d1"
    inkscape:document-units="px"
    inkscape:zoom="0.70710678"
    inkscape:cx="457.49809"
    inkscape:cy="362.74578"
    inkscape:window-width="2560"
    inkscape:window-height="1371"
    inkscape:window-x="0"
    inkscape:window-y="0"
    inkscape:window-maximized="1"
    inkscape:current-layer="layer1"
    showguides="true"
  /><defs id="defs1" /><g
    inkscape:label="Layer 1"
    inkscape:groupmode="layer"
    id="layer1"
    transform="translate(-71.861085,-159.51175)"
  ><rect
      style="fill:#03071e;fill-opacity:1;stroke-width:1.32292;stroke-linecap:square"
      id="rect662"
      width="13.063866"
      height="13.064321"
      x="-84.924973"
      y="159.51175"
      transform="scale(-1,1)"
    /><circle
      style="opacity:0.05;fill:#ffffff;fill-opacity:1;stroke-width:2.64583;stroke-linejoin:round"
      id="circle678"
      cx="-78.393021"
      cy="166.04391"
      r="6.5319328"
      transform="scale(-1,1)"
    /><path
      id="path679"
      style="fill:#e5e7eb;fill-opacity:1;stroke-width:2.64583;stroke-linejoin:round"
      d="m 78.392985,159.51175 a 6.5319328,6.5319328 0 0 1 2.87683,0.66766 c 1.12515,1.93688 1.9141,3.87685 1.9141,5.82342 -1e-5,1.96936 -0.80766,3.94556 -1.95389,5.9247 a 6.5319328,6.5319328 0 0 1 -2.83704,0.64854 6.5319328,6.5319328 0 0 1 -6.5319,-6.5319 6.5319328,6.5319328 0 0 1 6.5319,-6.53242 z"
    /><circle
      style="fill:#03071e;fill-opacity:1;stroke-width:3.4535;stroke-linejoin:round"
      id="circle729"
      cx="-75.41655"
      cy="163.89429"
      r="1.6178758"
      transform="scale(-1,1)"
    /><circle
      style="fill:#03071e;fill-opacity:1;stroke-width:1.55965;stroke-linejoin:round"
      id="circle730"
      cx="-78.690353"
      cy="164.89465"
      r="0.73065364"
      transform="scale(-1,1)"
    /><circle
      style="fill:#03071e;fill-opacity:1;stroke-width:1.55965;stroke-linejoin:round"
      id="circle731"
      cx="-77.150772"
      cy="167.56937"
      r="0.73065364"
      transform="scale(-1,1)"
    /><circle
      style="fill:#03071e;fill-opacity:1;stroke-width:1.55965;stroke-linejoin:round"
      id="circle732"
      cx="-81.8358"
      cy="168.65982"
      r="1.1516031"
      transform="scale(-1,1)"
    /><path
      id="path736"
      style="opacity:0.07;fill:#ffffff;fill-opacity:1;stroke-width:1.55965;stroke-linejoin:round"
      d="m 82.880255,168.17487 a 1.1516031,1.1516031 0 0 1 0.10698,0.48473 1.1516031,1.1516031 0 0 1 -0.62839,1.02629 c 0.20994,-0.50387 0.38631,-1.00778 0.52141,-1.51102 z"
    /></g></svg>
