<?xml version="1.0" encoding="UTF-8" standalone="no"?>
<!-- Created with Inkscape (http://www.inkscape.org/) -->

<svg
   width="49.376183"
   height="49.37711"
   viewBox="0 0 13.064114 13.06436"
   version="1.1"
   id="svg1"
   inkscape:version="1.4.2 (ebf0e940d0, 2025-05-08)"
   sodipodi:docname="moon_day_20.svg"
   xml:space="preserve"
   xmlns:inkscape="http://www.inkscape.org/namespaces/inkscape"
   xmlns:sodipodi="http://sodipodi.sourceforge.net/DTD/sodipodi-0.dtd"
   xmlns="http://www.w3.org/2000/svg"
   xmlns:svg="http://www.w3.org/2000/svg"><sodipodi:namedview
     id="namedview1"
     pagecolor="#ffffff"
     bordercolor="#000000"
     borderopacity="0.25"
     inkscape:showpageshadow="2"
     inkscape:pageopacity="0.0"
     inkscape:pagecheckerboard="0"
     inkscape:deskcolor="#d1d1d1"
     inkscape:document-units="px"
     inkscape:zoom="0.70710678"
     inkscape:cx="402.34376"
     inkscape:cy="375.4737"
     inkscape:window-width="2560"
     inkscape:window-height="1371"
     inkscape:window-x="0"
     inkscape:window-y="0"
     inkscape:window-maximized="1"
     inkscape:current-layer="layer1"
     showguides="true" /><defs
     id="defs1" /><g
     inkscape:label="Layer 1"
     inkscape:groupmode="layer"
     id="layer1"
     transform="translate(-86.148585,-156.33675)"><rect
       style="fill:#03071e;fill-opacity:1;stroke-width:1.32292;stroke-linecap:square"
       id="rect665"
       width="13.063866"
       height="13.064321"
       x="-99.2127"
       y="156.33676"
       transform="scale(-1,1)" /><circle
       style="opacity:0.05;fill:#ffffff;fill-opacity:1;stroke-width:2.64583;stroke-linejoin:round"
       id="circle668"
       cx="-92.680748"
       cy="162.86893"
       r="6.5319328"
       transform="scale(-1,1)" /><path
       id="path668"
       style="fill:#e5e7eb;fill-opacity:1;stroke-width:2.64583;stroke-linejoin:round"
       d="m 92.680995,156.33675 a 6.5319328,6.5319328 0 0 1 1.01028,0.0791 c 0.52388,2.13262 0.90692,4.26812 0.90692,6.41202 0,2.15884 -0.38827,4.3261 -0.91777,6.49624 a 6.5319328,6.5319328 0 0 1 -0.99943,0.077 6.5319328,6.5319328 0 0 1 -6.53241,-6.5319 6.5319328,6.5319328 0 0 1 6.53241,-6.53242 z" /><circle
       style="fill:#03071e;fill-opacity:1;stroke-width:3.4535;stroke-linejoin:round"
       id="circle717"
       cx="-89.704277"
       cy="160.7193"
       r="1.6178758"
       transform="scale(-1,1)" /><circle
       style="fill:#03071e;fill-opacity:1;stroke-width:1.55965;stroke-linejoin:round"
       id="circle718"
       cx="-92.978081"
       cy="161.71967"
       r="0.73065364"
       transform="scale(-1,1)" /><circle
       style="fill:#03071e;fill-opacity:1;stroke-width:1.55965;stroke-linejoin:round"
       id="circle719"
       cx="-91.438469"
       cy="164.39438"
       r="0.73065364"
       transform="scale(-1,1)" /><circle
       style="opacity:0.07;fill:#ffffff;fill-opacity:1;stroke-width:1.55965;stroke-linejoin:round"
       id="circle720"
       cx="-96.123528"
       cy="165.48483"
       r="1.1516031"
       transform="scale(-1,1)" /></g></svg>
