<?xml version="1.0" encoding="UTF-8" standalone="no" ?>
<!-- Created with Inkscape (http://www.inkscape.org/) -->
<svg
  width="49.375313"
  height="49.377022"
  viewBox="0 0 13.063884 13.064337"
  version="1.1"
  id="svg1"
  inkscape:version="1.4.2 (ebf0e940d0, 2025-05-08)"
  sodipodi:docname="moon_day_22.svg"
  xml:space="preserve"
  xmlns:inkscape="http://www.inkscape.org/namespaces/inkscape"
  xmlns:sodipodi="http://sodipodi.sourceforge.net/DTD/sodipodi-0.dtd"
  xmlns="http://www.w3.org/2000/svg"
  xmlns:svg="http://www.w3.org/2000/svg"
><sodipodi:namedview
    id="namedview1"
    pagecolor="#ffffff"
    bordercolor="#000000"
    borderopacity="0.25"
    inkscape:showpageshadow="2"
    inkscape:pageopacity="0.0"
    inkscape:pagecheckerboard="0"
    inkscape:deskcolor="#d1d1d1"
    inkscape:document-units="px"
    inkscape:zoom="0.70710678"
    inkscape:cx="437.6991"
    inkscape:cy="280.72139"
    inkscape:window-width="2560"
    inkscape:window-height="1371"
    inkscape:window-x="0"
    inkscape:window-y="0"
    inkscape:window-maximized="1"
    inkscape:current-layer="layer1"
    showguides="true"
  /><defs id="defs1" /><g
    inkscape:label="Layer 1"
    inkscape:groupmode="layer"
    id="layer1"
    transform="translate(-76.888165,-181.20758)"
  ><rect
      style="fill:#03071e;fill-opacity:1;stroke-width:1.32292;stroke-linecap:square"
      id="rect660"
      width="13.063866"
      height="13.064321"
      x="-89.952049"
      y="181.2076"
      transform="scale(-1,1)"
    /><circle
      style="opacity:0.05;fill:#ffffff;fill-opacity:1;stroke-width:2.64583;stroke-linejoin:round"
      id="circle675"
      cx="-83.420097"
      cy="187.73976"
      r="6.5319328"
      transform="scale(-1,1)"
    /><path
      id="path676"
      style="fill:#e5e7eb;fill-opacity:1;stroke-width:2.64583;stroke-linejoin:round"
      d="m 83.420279,181.20758 v 13.06432 a 6.5319328,6.5319328 0 0 1 -6.5319,-6.5319 6.5319328,6.5319328 0 0 1 6.5319,-6.53242 z"
    /><circle
      style="fill:#03071e;fill-opacity:1;stroke-width:3.4535;stroke-linejoin:round"
      id="circle709"
      cx="-80.443626"
      cy="185.59013"
      r="1.6178758"
      transform="scale(-1,1)"
    /><circle
      style="fill:#03071e;fill-opacity:1;stroke-width:1.55965;stroke-linejoin:round"
      id="circle710"
      cx="-83.71743"
      cy="186.5905"
      r="0.73065364"
      transform="scale(-1,1)"
    /><circle
      style="fill:#03071e;fill-opacity:1;stroke-width:1.55965;stroke-linejoin:round"
      id="circle711"
      cx="-82.177849"
      cy="189.26521"
      r="0.73065364"
      transform="scale(-1,1)"
    /><circle
      style="opacity:0.07;fill:#ffffff;fill-opacity:1;stroke-width:1.55965;stroke-linejoin:round"
      id="circle712"
      cx="-86.862877"
      cy="190.35567"
      r="1.1516031"
      transform="scale(-1,1)"
    /><path
      id="path740"
      style="opacity:0.07;fill:#ffffff;fill-opacity:1;stroke-width:1.55965;stroke-linejoin:round"
      d="m 83.717249,185.8601 a 0.73065364,0.73065364 0 0 1 0.7307,0.73018 0.73065364,0.73065364 0 0 1 -0.7307,0.73071 0.73065364,0.73065364 0 0 1 -0.29714,-0.063 v -1.3348 a 0.73065364,0.73065364 0 0 1 0.29714,-0.063 z"
    /></g></svg>
