<?xml version="1.0" encoding="UTF-8" standalone="no" ?>
<!-- Created with Inkscape (http://www.inkscape.org/) -->
<svg
  width="49.375286"
  height="49.376961"
  viewBox="0 0 13.063877 13.064321"
  version="1.1"
  id="svg1"
  inkscape:version="1.4.2 (ebf0e940d0, 2025-05-08)"
  sodipodi:docname="moon_day_25.svg"
  xml:space="preserve"
  xmlns:inkscape="http://www.inkscape.org/namespaces/inkscape"
  xmlns:sodipodi="http://sodipodi.sourceforge.net/DTD/sodipodi-0.dtd"
  xmlns="http://www.w3.org/2000/svg"
  xmlns:svg="http://www.w3.org/2000/svg"
><sodipodi:namedview
    id="namedview1"
    pagecolor="#ffffff"
    bordercolor="#000000"
    borderopacity="0.25"
    inkscape:showpageshadow="2"
    inkscape:pageopacity="0.0"
    inkscape:pagecheckerboard="0"
    inkscape:deskcolor="#d1d1d1"
    inkscape:document-units="px"
    inkscape:zoom="0.70710678"
    inkscape:cx="577.70624"
    inkscape:cy="406.5864"
    inkscape:window-width="2560"
    inkscape:window-height="1371"
    inkscape:window-x="0"
    inkscape:window-y="0"
    inkscape:window-maximized="1"
    inkscape:current-layer="layer1"
    showguides="true"
  /><defs id="defs1" /><g
    inkscape:label="Layer 1"
    inkscape:groupmode="layer"
    id="layer1"
    transform="translate(-40.111088,-147.87009)"
  ><rect
      style="fill:#03071e;fill-opacity:1;stroke-width:1.32292;stroke-linecap:square"
      id="rect658"
      width="13.063866"
      height="13.064321"
      x="-53.174953"
      y="147.87009"
      transform="scale(-1,1)"
    /><circle
      style="opacity:0.05;fill:#ffffff;fill-opacity:1;stroke-width:2.64583;stroke-linejoin:round"
      id="circle673"
      cx="-46.643032"
      cy="154.40225"
      r="6.5319328"
      transform="scale(-1,1)"
    /><path
      style="fill:#e5e7eb;fill-opacity:1;stroke-width:2.64583;stroke-linejoin:round"
      d="m 45.11496,148.05146 c -0.777,2.11906 -1.34359,4.24142 -1.34359,6.37171 0,2.10113 0.55094,4.21008 1.31155,6.32209 a 6.5319328,6.5319328 0 0 1 -4.97179,-6.34276 6.5319328,6.5319328 0 0 1 5.00383,-6.35104 z"
      id="path673"
    /><circle
      style="fill:#03071e;fill-opacity:1;stroke-width:3.4535;stroke-linejoin:round"
      id="circle693"
      cx="-43.666531"
      cy="152.25262"
      r="1.6178758"
      transform="scale(-1,1)"
    /><circle
      style="opacity:0.07;fill:#ffffff;fill-opacity:1;stroke-width:1.55965;stroke-linejoin:round"
      id="circle694"
      cx="-46.940334"
      cy="153.25299"
      r="0.73065364"
      transform="scale(-1,1)"
    /><circle
      style="opacity:0.07;fill:#ffffff;fill-opacity:1;stroke-width:1.55965;stroke-linejoin:round"
      id="circle695"
      cx="-45.400784"
      cy="155.9277"
      r="0.73065364"
      transform="scale(-1,1)"
    /><circle
      style="opacity:0.07;fill:#ffffff;fill-opacity:1;stroke-width:1.55965;stroke-linejoin:round"
      id="circle696"
      cx="-50.085781"
      cy="157.01816"
      r="1.1516031"
      transform="scale(-1,1)"
    /><path
      id="path743"
      style="opacity:0.07;fill:#ffffff;fill-opacity:1;stroke-width:3.4535;stroke-linejoin:round"
      d="m 44.26699,150.75009 a 1.6178758,1.6178758 0 0 1 1.01751,1.50276 1.6178758,1.6178758 0 0 1 -1.50068,1.61333 c 0.047,-1.04027 0.22205,-2.07887 0.48317,-3.11609 z"
    /></g></svg>
