<?xml version="1.0" encoding="UTF-8" standalone="no" ?>
<!-- Created with Inkscape (http://www.inkscape.org/) -->
<svg
  width="49.376099"
  height="49.37701"
  viewBox="0 0 13.064092 13.064334"
  version="1.1"
  id="svg1"
  inkscape:version="1.4.2 (ebf0e940d0, 2025-05-08)"
  sodipodi:docname="moon_day_12.svg"
  xml:space="preserve"
  xmlns:inkscape="http://www.inkscape.org/namespaces/inkscape"
  xmlns:sodipodi="http://sodipodi.sourceforge.net/DTD/sodipodi-0.dtd"
  xmlns="http://www.w3.org/2000/svg"
  xmlns:svg="http://www.w3.org/2000/svg"
><sodipodi:namedview
    id="namedview1"
    pagecolor="#ffffff"
    bordercolor="#000000"
    borderopacity="0.25"
    inkscape:showpageshadow="2"
    inkscape:pageopacity="0.0"
    inkscape:pagecheckerboard="0"
    inkscape:deskcolor="#d1d1d1"
    inkscape:document-units="px"
    inkscape:zoom="0.70710678"
    inkscape:cx="515.48084"
    inkscape:cy="430.62803"
    inkscape:window-width="2560"
    inkscape:window-height="1371"
    inkscape:window-x="0"
    inkscape:window-y="0"
    inkscape:window-maximized="1"
    inkscape:current-layer="layer1"
    showguides="true"
  /><defs id="defs1" /><g
    inkscape:label="Layer 1"
    inkscape:groupmode="layer"
    id="layer1"
    transform="translate(-56.250668,-141.78467)"
  ><rect
      style="fill:#03071e;fill-opacity:1;stroke-width:1.32292;stroke-linecap:square"
      id="rect520"
      width="13.063866"
      height="13.064321"
      x="56.250679"
      y="141.78468"
    /><circle
      style="opacity:0.05;fill:#ffffff;fill-opacity:1;stroke-width:2.64583;stroke-linejoin:round"
      id="circle220"
      cx="62.7826"
      cy="148.31685"
      r="6.5319328"
    /><path
      id="circle205"
      style="fill:#e5e7eb;fill-opacity:1;stroke-width:2.64583;stroke-linejoin:round"
      d="m 62.78286,141.78467 a 6.5319328,6.5319328 0 0 0 -2.16059,0.36794 c -0.9748,2.03658 -1.67277,4.07605 -1.67277,6.12314 0,2.06551 0.71055,4.13854 1.69912,6.2146 a 6.5319328,6.5319328 0 0 0 2.13424,0.35864 6.5319328,6.5319328 0 0 0 6.5319,-6.5319 6.5319328,6.5319328 0 0 0 -6.5319,-6.53242 z"
    /><circle
      style="fill:#03071e;fill-opacity:1;stroke-width:3.4535;stroke-linejoin:round"
      id="circle569"
      cx="65.759102"
      cy="146.16722"
      r="1.6178758"
    /><circle
      style="fill:#03071e;fill-opacity:1;stroke-width:1.55965;stroke-linejoin:round"
      id="circle570"
      cx="62.485298"
      cy="147.16759"
      r="0.73065364"
    /><circle
      style="fill:#03071e;fill-opacity:1;stroke-width:1.55965;stroke-linejoin:round"
      id="circle571"
      cx="64.024879"
      cy="149.8423"
      r="0.73065364"
    /><circle
      style="fill:#03071e;fill-opacity:1;stroke-width:1.55965;stroke-linejoin:round"
      id="circle572"
      cx="59.339851"
      cy="150.93275"
      r="1.1516031"
    /><path
      id="circle646"
      style="opacity:0.07;fill:#ffffff;fill-opacity:1;stroke-width:1.55965;stroke-linejoin:round"
      d="m 59.074,149.81217 a 1.1516031,1.1516031 0 0 0 -0.88574,1.12035 1.1516031,1.1516031 0 0 0 1.15135,1.15187 1.1516031,1.1516031 0 0 0 0.29869,-0.0393 c -0.25273,-0.74491 -0.44732,-1.48947 -0.5643,-2.23294 z"
    /></g></svg>
