<?xml version="1.0" encoding="UTF-8" standalone="no" ?>
<!-- Created with Inkscape (http://www.inkscape.org/) -->
<svg
  width="49.376099"
  height="49.377022"
  viewBox="0 0 13.064092 13.064337"
  version="1.1"
  id="svg1"
  inkscape:version="1.4.2 (ebf0e940d0, 2025-05-08)"
  sodipodi:docname="moon_day_18.svg"
  xml:space="preserve"
  xmlns:inkscape="http://www.inkscape.org/namespaces/inkscape"
  xmlns:sodipodi="http://sodipodi.sourceforge.net/DTD/sodipodi-0.dtd"
  xmlns="http://www.w3.org/2000/svg"
  xmlns:svg="http://www.w3.org/2000/svg"
><sodipodi:namedview
    id="namedview1"
    pagecolor="#ffffff"
    bordercolor="#000000"
    borderopacity="0.25"
    inkscape:showpageshadow="2"
    inkscape:pageopacity="0.0"
    inkscape:pagecheckerboard="0"
    inkscape:deskcolor="#d1d1d1"
    inkscape:document-units="px"
    inkscape:zoom="0.70710678"
    inkscape:cx="372.64527"
    inkscape:cy="235.46656"
    inkscape:window-width="2560"
    inkscape:window-height="1371"
    inkscape:window-x="0"
    inkscape:window-y="0"
    inkscape:window-maximized="1"
    inkscape:current-layer="layer1"
    showguides="true"
  /><defs id="defs1" /><g
    inkscape:label="Layer 1"
    inkscape:groupmode="layer"
    id="layer1"
    transform="translate(-94.086085,-193.11383)"
  ><rect
      style="fill:#03071e;fill-opacity:1;stroke-width:1.32292;stroke-linecap:square"
      id="rect663"
      width="13.063866"
      height="13.064321"
      x="-107.15018"
      y="193.11385"
      transform="scale(-1,1)"
    /><circle
      style="opacity:0.05;fill:#ffffff;fill-opacity:1;stroke-width:2.64583;stroke-linejoin:round"
      id="circle677"
      cx="-100.61823"
      cy="199.64601"
      r="6.5319328"
      transform="scale(-1,1)"
    /><path
      id="path678"
      style="fill:#e5e7eb;fill-opacity:1;stroke-width:2.64583;stroke-linejoin:round"
      d="m 100.61799,193.11383 a 6.5319328,6.5319328 0 0 1 2.16058,0.36794 c 0.97481,2.03658 1.67278,4.07605 1.67278,6.12314 0,2.06551 -0.71056,4.13854 -1.69912,6.2146 a 6.5319328,6.5319328 0 0 1 -2.13424,0.35864 6.5319328,6.5319328 0 0 1 -6.531905,-6.5319 6.5319328,6.5319328 0 0 1 6.531905,-6.53242 z"
    /><circle
      style="fill:#03071e;fill-opacity:1;stroke-width:3.4535;stroke-linejoin:round"
      id="circle725"
      cx="-97.641754"
      cy="197.49638"
      r="1.6178758"
      transform="scale(-1,1)"
    /><circle
      style="fill:#03071e;fill-opacity:1;stroke-width:1.55965;stroke-linejoin:round"
      id="circle726"
      cx="-100.91556"
      cy="198.49675"
      r="0.73065364"
      transform="scale(-1,1)"
    /><circle
      style="fill:#03071e;fill-opacity:1;stroke-width:1.55965;stroke-linejoin:round"
      id="circle727"
      cx="-99.375946"
      cy="201.17146"
      r="0.73065364"
      transform="scale(-1,1)"
    /><circle
      style="fill:#03071e;fill-opacity:1;stroke-width:1.55965;stroke-linejoin:round"
      id="circle728"
      cx="-104.06097"
      cy="202.26192"
      r="1.1516031"
      transform="scale(-1,1)"
    /><path
      id="path737"
      style="opacity:0.07;fill:#ffffff;fill-opacity:1;stroke-width:1.55965;stroke-linejoin:round"
      d="m 104.32684,201.14133 a 1.1516031,1.1516031 0 0 1 0.88574,1.12035 1.1516031,1.1516031 0 0 1 -1.15134,1.15187 1.1516031,1.1516031 0 0 1 -0.29869,-0.0393 c 0.25273,-0.74491 0.44732,-1.48947 0.5643,-2.23294 z"
    /></g></svg>
