<?xml version="1.0" encoding="UTF-8" standalone="no" ?>
<!-- Created with Inkscape (http://www.inkscape.org/) -->
<svg
  width="49.375286"
  height="49.376961"
  viewBox="0 0 13.063877 13.064321"
  version="1.1"
  id="svg1"
  inkscape:version="1.4.2 (ebf0e940d0, 2025-05-08)"
  sodipodi:docname="moon_day_26.svg"
  xml:space="preserve"
  xmlns:inkscape="http://www.inkscape.org/namespaces/inkscape"
  xmlns:sodipodi="http://sodipodi.sourceforge.net/DTD/sodipodi-0.dtd"
  xmlns="http://www.w3.org/2000/svg"
  xmlns:svg="http://www.w3.org/2000/svg"
><sodipodi:namedview
    id="namedview1"
    pagecolor="#ffffff"
    bordercolor="#000000"
    borderopacity="0.25"
    inkscape:showpageshadow="2"
    inkscape:pageopacity="0.0"
    inkscape:pagecheckerboard="0"
    inkscape:deskcolor="#d1d1d1"
    inkscape:document-units="px"
    inkscape:zoom="0.70710678"
    inkscape:cx="525.38034"
    inkscape:cy="395.27269"
    inkscape:window-width="2560"
    inkscape:window-height="1371"
    inkscape:window-x="0"
    inkscape:window-y="0"
    inkscape:window-maximized="1"
    inkscape:current-layer="layer1"
    showguides="true"
  /><defs id="defs1" /><g
    inkscape:label="Layer 1"
    inkscape:groupmode="layer"
    id="layer1"
    transform="translate(-53.869423,-150.7805)"
  ><rect
      style="fill:#03071e;fill-opacity:1;stroke-width:1.32292;stroke-linecap:square"
      id="rect667"
      width="13.063866"
      height="13.064321"
      x="-66.933289"
      y="150.7805"
      transform="scale(-1,1)"
    /><circle
      style="opacity:0.05;fill:#ffffff;fill-opacity:1;stroke-width:2.64583;stroke-linejoin:round"
      id="circle672"
      cx="-60.401367"
      cy="157.31267"
      r="6.5319328"
      transform="scale(-1,1)"
    /><path
      style="fill:#e5e7eb;fill-opacity:1;stroke-width:2.64583;stroke-linejoin:round"
      d="m 58.27963,151.135 c -0.99276,2.06157 -1.70738,4.12625 -1.70738,6.19859 -10e-6,2.04121 0.69342,4.08962 1.66294,6.14122 a 6.5319328,6.5319328 0 0 1 -4.36562,-6.16189 6.5319328,6.5319328 0 0 1 4.41006,-6.17792 z"
      id="path672"
    /><circle
      style="fill:#03071e;fill-opacity:1;stroke-width:3.4535;stroke-linejoin:round"
      id="circle689"
      cx="-57.424866"
      cy="155.16304"
      r="1.6178758"
      transform="scale(-1,1)"
    /><circle
      style="opacity:0.07;fill:#ffffff;fill-opacity:1;stroke-width:1.55965;stroke-linejoin:round"
      id="circle690"
      cx="-60.698669"
      cy="156.16341"
      r="0.73065364"
      transform="scale(-1,1)"
    /><circle
      style="opacity:0.07;fill:#ffffff;fill-opacity:1;stroke-width:1.55965;stroke-linejoin:round"
      id="circle691"
      cx="-59.159058"
      cy="158.83812"
      r="0.73065364"
      transform="scale(-1,1)"
    /><circle
      style="opacity:0.07;fill:#ffffff;fill-opacity:1;stroke-width:1.55965;stroke-linejoin:round"
      id="circle692"
      cx="-63.844116"
      cy="159.92857"
      r="1.1516031"
      transform="scale(-1,1)"
    /><path
      id="path744"
      style="opacity:0.07;fill:#ffffff;fill-opacity:1;stroke-width:3.4535;stroke-linejoin:round"
      d="m 57.42467,153.54528 a 1.6178758,1.6178758 0 0 1 1.61799,1.61799 1.6178758,1.6178758 0 0 1 -1.61799,1.61747 1.6178758,1.6178758 0 0 1 -0.82011,-0.22324 c 0.0832,-1.00318 0.32163,-2.00462 0.66508,-3.00499 a 1.6178758,1.6178758 0 0 1 0.15503,-0.007 z"
    /></g></svg>
