<?xml version="1.0" encoding="UTF-8" standalone="no" ?>
<!-- Created with Inkscape (http://www.inkscape.org/) -->
<svg
  width="49.375313"
  height="49.376961"
  viewBox="0 0 13.063884 13.064321"
  version="1.1"
  id="svg1"
  inkscape:version="1.4.2 (ebf0e940d0, 2025-05-08)"
  sodipodi:docname="moon_day_23.svg"
  xml:space="preserve"
  xmlns:inkscape="http://www.inkscape.org/namespaces/inkscape"
  xmlns:sodipodi="http://sodipodi.sourceforge.net/DTD/sodipodi-0.dtd"
  xmlns="http://www.w3.org/2000/svg"
  xmlns:svg="http://www.w3.org/2000/svg"
><sodipodi:namedview
    id="namedview1"
    pagecolor="#ffffff"
    bordercolor="#000000"
    borderopacity="0.25"
    inkscape:showpageshadow="2"
    inkscape:pageopacity="0.0"
    inkscape:pagecheckerboard="0"
    inkscape:deskcolor="#d1d1d1"
    inkscape:document-units="px"
    inkscape:zoom="5.6568542"
    inkscape:cx="17.942835"
    inkscape:cy="49.939417"
    inkscape:window-width="2560"
    inkscape:window-height="1371"
    inkscape:window-x="0"
    inkscape:window-y="0"
    inkscape:window-maximized="1"
    inkscape:current-layer="layer1"
    showguides="true"
  /><defs id="defs1" /><g
    inkscape:label="Layer 1"
    inkscape:groupmode="layer"
    id="layer1"
    transform="translate(-42.756924,-152.63258)"
  ><rect
      style="fill:#03071e;fill-opacity:1;stroke-width:1.32292;stroke-linecap:square"
      id="rect657"
      width="13.063866"
      height="13.064321"
      x="-55.820808"
      y="152.63258"
      transform="scale(-1,1)"
    /><circle
      style="opacity:0.05;fill:#ffffff;fill-opacity:1;stroke-width:2.64583;stroke-linejoin:round"
      id="circle658"
      cx="-49.288857"
      cy="159.16475"
      r="6.5319328"
      transform="scale(-1,1)"
    /><path
      style="fill:#e5e7eb;fill-opacity:1;stroke-width:2.64583;stroke-linejoin:round"
      d="m 48.80013,152.65118 c -0.26893,2.17323 -0.46715,4.34959 -0.46715,6.53449 0,2.15748 0.19303,4.32329 0.45682,6.49211 a 6.5319328,6.5319328 0 0 1 -6.03271,-6.51278 6.5319328,6.5319328 0 0 1 6.04304,-6.51382 z"
      id="path675"
    /><circle
      style="fill:#03071e;fill-opacity:1;stroke-width:3.4535;stroke-linejoin:round"
      id="circle705"
      cx="-46.312386"
      cy="157.01512"
      r="1.6178758"
      transform="scale(-1,1)"
    /><circle
      style="opacity:0.07;fill:#ffffff;fill-opacity:1;stroke-width:1.55965;stroke-linejoin:round"
      id="circle706"
      cx="-49.586189"
      cy="158.01549"
      r="0.73065364"
      transform="scale(-1,1)"
    /><circle
      style="fill:#03071e;fill-opacity:1;stroke-width:1.55965;stroke-linejoin:round"
      id="circle707"
      cx="-48.046608"
      cy="160.6902"
      r="0.73065364"
      transform="scale(-1,1)"
    /><circle
      style="opacity:0.07;fill:#ffffff;fill-opacity:1;stroke-width:1.55965;stroke-linejoin:round"
      id="circle708"
      cx="-52.731606"
      cy="161.78065"
      r="1.1516031"
      transform="scale(-1,1)"
    /><path
      id="path741"
      style="opacity:0.07;fill:#ffffff;fill-opacity:1;stroke-width:1.55965;stroke-linejoin:round"
      d="m 48.34252,160.02188 a 0.73065364,0.73065364 0 0 1 0.4346,0.66818 0.73065364,0.73065364 0 0 1 -0.38499,0.64388 c -0.0232,-0.43758 -0.0399,-0.87506 -0.0496,-1.31206 z"
    /></g></svg>
