<?xml version="1.0" encoding="UTF-8" standalone="no"?>
<!-- Created with Inkscape (http://www.inkscape.org/) -->

<svg
   width="1803.7067"
   height="1297.0074"
   viewBox="0 0 477.23071 343.16655"
   version="1.1"
   id="svg1"
   xml:space="preserve"
   inkscape:version="1.4.3 (0d15f75042, 2025-12-25)"
   sodipodi:docname="how_ssh_keys_work.svg"
   inkscape:export-filename="how_ssh_keys_work.png"
   inkscape:export-xdpi="96"
   inkscape:export-ydpi="96"
   xmlns:inkscape="http://www.inkscape.org/namespaces/inkscape"
   xmlns:sodipodi="http://sodipodi.sourceforge.net/DTD/sodipodi-0.dtd"
   xmlns="http://www.w3.org/2000/svg"
   xmlns:svg="http://www.w3.org/2000/svg"><sodipodi:namedview
     id="namedview1"
     pagecolor="#ffffff"
     bordercolor="#000000"
     borderopacity="0.25"
     inkscape:showpageshadow="2"
     inkscape:pageopacity="0.0"
     inkscape:pagecheckerboard="0"
     inkscape:deskcolor="#d1d1d1"
     inkscape:document-units="px"
     showguides="true"
     inkscape:zoom="0.74646489"
     inkscape:cx="814.50582"
     inkscape:cy="699.96594"
     inkscape:window-width="2560"
     inkscape:window-height="1371"
     inkscape:window-x="0"
     inkscape:window-y="0"
     inkscape:window-maximized="1"
     inkscape:current-layer="layer1" /><defs
     id="defs1"><inkscape:path-effect
   effect="bspline"
   id="path-effect176"
   is_visible="true"
   lpeversion="1.3"
   weight="33.333333"
   steps="2"
   helper_size="0"
   apply_no_weight="true"
   apply_with_weight="true"
   only_selected="false"
   uniform="false" /><inkscape:path-effect
   effect="bspline"
   id="path-effect167"
   is_visible="true"
   lpeversion="1.3"
   weight="33.333333"
   steps="2"
   helper_size="0"
   apply_no_weight="true"
   apply_with_weight="true"
   only_selected="false"
   uniform="false" /><inkscape:path-effect
   effect="bspline"
   id="path-effect156"
   is_visible="true"
   lpeversion="1.3"
   weight="33.333333"
   steps="2"
   helper_size="0"
   apply_no_weight="true"
   apply_with_weight="true"
   only_selected="false"
   uniform="false" /><inkscape:path-effect
   effect="bspline"
   id="path-effect145"
   is_visible="true"
   lpeversion="1.3"
   weight="33.333333"
   steps="2"
   helper_size="0"
   apply_no_weight="true"
   apply_with_weight="true"
   only_selected="false"
   uniform="false" /><inkscape:path-effect
   effect="bspline"
   id="path-effect143"
   is_visible="true"
   lpeversion="1.3"
   weight="33.333333"
   steps="2"
   helper_size="0"
   apply_no_weight="true"
   apply_with_weight="true"
   only_selected="false"
   uniform="false" /><inkscape:path-effect
   effect="bspline"
   id="path-effect123"
   is_visible="true"
   lpeversion="1.3"
   weight="33.333333"
   steps="2"
   helper_size="0"
   apply_no_weight="true"
   apply_with_weight="true"
   only_selected="false"
   uniform="false" /><inkscape:path-effect
   effect="bspline"
   id="path-effect121"
   is_visible="true"
   lpeversion="1.3"
   weight="33.333333"
   steps="2"
   helper_size="0"
   apply_no_weight="true"
   apply_with_weight="true"
   only_selected="false"
   uniform="false" /><inkscape:path-effect
   effect="bspline"
   id="path-effect117"
   is_visible="true"
   lpeversion="1.3"
   weight="33.333333"
   steps="2"
   helper_size="0"
   apply_no_weight="true"
   apply_with_weight="true"
   only_selected="false"
   uniform="false" /><inkscape:path-effect
   effect="bspline"
   id="path-effect115"
   is_visible="true"
   lpeversion="1.3"
   weight="33.333333"
   steps="2"
   helper_size="0"
   apply_no_weight="true"
   apply_with_weight="true"
   only_selected="false"
   uniform="false" /><inkscape:path-effect
   effect="bspline"
   id="path-effect113"
   is_visible="true"
   lpeversion="1.3"
   weight="33.333333"
   steps="2"
   helper_size="0"
   apply_no_weight="true"
   apply_with_weight="true"
   only_selected="false"
   uniform="false" /><inkscape:path-effect
   effect="bspline"
   id="path-effect67"
   is_visible="true"
   lpeversion="1.3"
   weight="33.333333"
   steps="2"
   helper_size="0"
   apply_no_weight="true"
   apply_with_weight="true"
   only_selected="false"
   uniform="false" /><marker
   style="overflow:visible"
   id="marker65"
   refX="0"
   refY="0"
   orient="auto-start-reverse"
   inkscape:stockid="Wide arrow"
   markerWidth="1"
   markerHeight="1"
   viewBox="0 0 1 1"
   inkscape:isstock="true"
   inkscape:collect="always"
   preserveAspectRatio="xMidYMid"><path
     style="fill:none;stroke:context-stroke;stroke-width:1;stroke-linecap:butt"
     d="M 3,-3 0,0 3,3"
     transform="rotate(180,0.125,0)"
     sodipodi:nodetypes="ccc"
     id="path65" /></marker><inkscape:path-effect
   effect="bspline"
   id="path-effect64"
   is_visible="true"
   lpeversion="1.3"
   weight="33.333333"
   steps="2"
   helper_size="0"
   apply_no_weight="true"
   apply_with_weight="true"
   only_selected="false"
   uniform="false" /><inkscape:path-effect
   effect="bspline"
   id="path-effect62"
   is_visible="true"
   lpeversion="1.3"
   weight="33.333333"
   steps="2"
   helper_size="0"
   apply_no_weight="true"
   apply_with_weight="true"
   only_selected="false"
   uniform="false" /><inkscape:path-effect
   effect="bspline"
   id="path-effect40"
   is_visible="true"
   lpeversion="1.3"
   weight="33.333333"
   steps="2"
   helper_size="0"
   apply_no_weight="true"
   apply_with_weight="true"
   only_selected="false"
   uniform="false" />
	
	
<style
   id="style1-2">.a{fill:none;stroke:#000000;stroke-linecap:round;stroke-linejoin:round;}</style>
		
	</defs><g
     inkscape:label="Layer 1"
     inkscape:groupmode="layer"
     id="layer1"
     transform="translate(20.875469,-261.09344)"><rect
       style="fill:#ffffff;fill-opacity:1;stroke:none;stroke-width:0.529167;stroke-dasharray:none;stroke-opacity:1"
       id="rect176"
       width="477.23071"
       height="343.16656"
       x="-20.875469"
       y="261.09344" /><g
       id="SVGRepo_bgCarrier"
       stroke-width="0"
       transform="matrix(4.3414795,0,0,4.3414795,182.27703,161.5949)" /><g
       id="SVGRepo_tracerCarrier"
       stroke-linecap="round"
       stroke-linejoin="round"
       transform="matrix(4.3414795,0,0,4.3414795,182.27703,161.5949)"
       style="stroke-width:0.0609431" /><g
       id="SVGRepo_bgCarrier-3"
       stroke-width="0"
       transform="matrix(2.0554808,0,0,2.0554808,150.68915,161.64126)" /><g
       id="SVGRepo_tracerCarrier-7"
       stroke-linecap="round"
       stroke-linejoin="round"
       transform="matrix(2.0554808,0,0,2.0554808,150.68915,161.64126)" /><g
       id="SVGRepo_bgCarrier-0"
       stroke-width="0"
       transform="matrix(3.853374,0,0,3.853374,294.87508,202.27092)" /><g
       id="SVGRepo_tracerCarrier-6"
       stroke-linecap="round"
       stroke-linejoin="round"
       transform="matrix(3.853374,0,0,3.853374,294.87508,202.27092)"
       style="stroke-width:0.0686628" /><g
       id="SVGRepo_bgCarrier-9"
       stroke-width="0"
       transform="matrix(3.2773952,0,0,3.2773952,389.57121,190.6289)" /><g
       id="SVGRepo_tracerCarrier-2"
       stroke-linecap="round"
       stroke-linejoin="round"
       transform="matrix(3.2773952,0,0,3.2773952,389.57121,190.6289)"
       style="stroke-width:0.0807298" /><g
       id="SVGRepo_bgCarrier-97"
       stroke-width="0"
       transform="matrix(2.9390581,0,0,2.9390581,91.202133,194.38963)" /><g
       id="SVGRepo_tracerCarrier-3"
       stroke-linecap="round"
       stroke-linejoin="round"
       transform="matrix(2.9390581,0,0,2.9390581,91.202133,194.38963)" /><g
       id="SVGRepo_bgCarrier-94"
       stroke-width="0"
       transform="matrix(4.7044267,0,0,4.7044267,-89.758753,100.7421)" /><g
       id="SVGRepo_tracerCarrier-78"
       stroke-linecap="round"
       stroke-linejoin="round"
       transform="matrix(4.7044267,0,0,4.7044267,-89.758753,100.7421)"
       style="stroke-width:0.0562414" /><g
       id="SVGRepo_bgCarrier-1"
       stroke-width="0"
       transform="matrix(3.9166629,0,0,3.9166629,-87.550048,174.59337)" /><g
       id="SVGRepo_tracerCarrier-0"
       stroke-linecap="round"
       stroke-linejoin="round"
       transform="matrix(3.9166629,0,0,3.9166629,-87.550048,174.59337)"
       style="stroke-width:0.0675533" /><g
       id="SVGRepo_bgCarrier-5"
       stroke-width="0"
       transform="matrix(4.3676765,0,0,4.3676765,-182.83339,128.5912)" /><g
       id="SVGRepo_tracerCarrier-4"
       stroke-linecap="round"
       stroke-linejoin="round"
       transform="matrix(4.3676765,0,0,4.3676765,-182.83339,128.5912)"
       style="stroke-width:0.0605776" /><g
       id="SVGRepo_bgCarrier-4"
       stroke-width="0"
       transform="matrix(0.87155667,0,0,0.87155667,403.47248,41.03465)" /><g
       id="SVGRepo_tracerCarrier-43"
       stroke-linecap="round"
       stroke-linejoin="round"
       transform="matrix(0.87155667,0,0,0.87155667,403.47248,41.03465)"
       style="stroke-width:0.303576" /><rect
       style="fill:#f7f7f7;fill-opacity:1;stroke:#404040;stroke-width:0.529167;stroke-dasharray:none;stroke-opacity:1"
       id="rect78"
       width="158.75"
       height="92.604179"
       x="-6.6987834"
       y="275.27014" /><g
       id="g79"
       transform="translate(-46.445573,176.00778)"><path
         d="m 162.78363,148.20176 c -1.18208,0 -2.14029,0.95821 -2.14029,2.14029 v 3.21045 3.21045 1.07015 1.07014 1.07015 3.21045 3.21044 c 0,1.18251 0.95821,2.1403 2.14029,2.1403 h 9.63134 9.63133 c 1.18251,0 2.1403,-0.95779 2.1403,-2.1403 v -3.21044 -4.2806 -2.14029 -3.21045 -3.21045 c 0,-1.18208 -0.95779,-2.14029 -2.1403,-2.14029 h -9.63133 z"
         fill="#34495e"
         id="path78"
         style="fill:#e5e5e5;fill-opacity:1;stroke:#333333;stroke-width:0.529167;stroke-dasharray:none;stroke-opacity:1" /><path
         d="m 163.85378,151.54597 v 1.20392 l 3.21045,1.87276 -3.21045,1.87276 v 1.20392 l 5.35074,-3.07668 z m 5.35074,5.21698 v 1.07015 h 5.35074 v -1.07015 z"
         fill="#ecf0f1"
         id="path79"
         style="fill:#333333;fill-opacity:1;stroke-width:2.93907" /></g><g
       id="g80"
       transform="matrix(0.8451429,0,0,0.8451429,1.9970921,301.89416)"
       style="fill:#333333;fill-opacity:1;stroke-width:0.313064"><path
         fill="#000000"
         d="M 8.294,1 C 8.204,1 8.11,1.005 8.014,1.012 5.549,1.206 6.203,3.816 6.164,4.686 6.121,5.323 5.99,5.826 5.552,6.448 5.036,7.061 4.312,8.052 3.968,9.085 3.806,9.57 3.728,10.067 3.801,10.537 a 0.247,0.247 0 0 0 -0.064,0.079 c -0.152,0.156 -0.263,0.35 -0.387,0.49 -0.116,0.115 -0.283,0.155 -0.465,0.232 -0.183,0.08 -0.384,0.157 -0.504,0.397 a 0.78,0.78 0 0 0 -0.077,0.351 c 0,0.116 0.016,0.234 0.032,0.313 0.034,0.233 0.068,0.425 0.023,0.566 -0.145,0.396 -0.163,0.668 -0.062,0.865 0.102,0.195 0.313,0.275 0.549,0.351 0.472,0.117 1.114,0.079 1.618,0.35 0.54,0.272 1.088,0.39 1.526,0.274 0.307,-0.067 0.566,-0.27 0.705,-0.552 0.342,-10e-4 0.717,-0.157 1.318,-0.194 0.408,-0.034 0.918,0.155 1.503,0.116 0.015,0.078 0.037,0.116 0.067,0.194 l 10e-4,0.002 c 0.229,0.454 0.65,0.66 1.1,0.625 0.45,-0.035 0.928,-0.313 1.316,-0.762 0.368,-0.446 0.982,-0.632 1.387,-0.877 0.203,-0.116 0.367,-0.273 0.379,-0.497 0.013,-0.234 -0.117,-0.473 -0.417,-0.803 V 12.001 L 13.347,11.999 C 13.248,11.882 13.202,11.687 13.15,11.459 13.1,11.225 13.044,11 12.863,10.849 h -10e-4 c -0.035,-0.032 -0.072,-0.04 -0.11,-0.08 a 0.208,0.208 0 0 0 -0.11,-0.037 C 12.892,9.987 12.795,9.245 12.54,8.578 12.23,7.755 11.686,7.038 11.271,6.546 10.807,5.959 10.352,5.404 10.361,4.581 10.377,3.326 10.499,1.003 8.294,1 Z M 8.603,2.986 H 8.61 c 0.125,0 0.231,0.036 0.34,0.116 a 0.89,0.89 0 0 1 0.256,0.31 C 9.268,3.564 9.299,3.68 9.303,3.835 9.303,3.823 9.307,3.812 9.307,3.8 V 3.861 A 0.05,0.05 0 0 1 9.304,3.849 L 9.302,3.835 C 9.301,3.977 9.272,4.117 9.215,4.247 A 0.556,0.556 0 0 1 9.09,4.442 0.415,0.415 0 0 0 9.039,4.418 C 8.979,4.391 8.924,4.38 8.873,4.34 A 0.765,0.765 0 0 0 8.745,4.302 C 8.775,4.267 8.83,4.224 8.852,4.186 A 0.69,0.69 0 0 0 8.903,3.952 V 3.94 A 0.706,0.706 0 0 0 8.868,3.707 C 8.841,3.628 8.808,3.59 8.761,3.512 8.711,3.474 8.663,3.435 8.605,3.435 h -0.01 c -0.054,0 -0.102,0.018 -0.152,0.077 A 0.467,0.467 0 0 0 8.323,3.707 0.688,0.688 0 0 0 8.271,3.941 v 0.01 c 0,0.053 0.004,0.105 0.011,0.156 C 8.17,4.068 8.027,4.029 7.928,3.99 A 0.954,0.954 0 0 1 7.918,3.873 V 3.86 A 1.034,1.034 0 0 1 8.005,3.412 0.63,0.63 0 0 1 8.256,3.102 0.575,0.575 0 0 1 8.603,2.985 Z M 6.875,3.021 h 0.02 c 0.084,0 0.158,0.028 0.234,0.078 a 0.806,0.806 0 0 1 0.2,0.272 C 7.382,3.487 7.411,3.604 7.419,3.76 V 3.762 A 0.856,0.856 0 0 1 7.417,3.917 V 3.964 L 7.369,3.978 C 7.28,4.01 7.209,4.057 7.139,4.095 A 0.633,0.633 0 0 0 7.141,3.939 V 3.93 C 7.134,3.852 7.118,3.813 7.094,3.736 A 0.358,0.358 0 0 0 6.997,3.58 0.145,0.145 0 0 0 6.89,3.543 H 6.878 C 6.836,3.546 6.802,3.566 6.769,3.62 A 0.322,0.322 0 0 0 6.699,3.777 0.55,0.55 0 0 0 6.686,3.97 v 0.008 c 0.007,0.08 0.021,0.117 0.047,0.195 A 0.363,0.363 0 0 0 6.829,4.33 C 6.835,4.335 6.841,4.34 6.849,4.344 6.809,4.377 6.781,4.384 6.747,4.423 A 0.177,0.177 0 0 1 6.67,4.463 1.53,1.53 0 0 1 6.51,4.228 1.034,1.034 0 0 1 6.42,3.839 C 6.41,3.707 6.425,3.575 6.466,3.449 A 0.834,0.834 0 0 1 6.631,3.137 C 6.706,3.06 6.783,3.021 6.875,3.021 Z m 0.799,0.995 c 0.194,0 0.428,0.038 0.71,0.233 0.17,0.116 0.304,0.157 0.613,0.273 H 8.999 C 9.148,4.601 9.235,4.677 9.278,4.754 V 4.678 A 0.333,0.333 0 0 1 9.287,4.952 C 9.215,5.132 8.986,5.327 8.667,5.443 V 5.444 C 8.511,5.524 8.375,5.639 8.215,5.716 8.054,5.794 7.872,5.886 7.625,5.871 A 0.664,0.664 0 0 1 7.363,5.832 2.077,2.077 0 0 1 7.175,5.717 C 7.062,5.638 6.964,5.523 6.818,5.446 V 5.443 H 6.815 C 6.582,5.299 6.456,5.144 6.415,5.029 6.375,4.872 6.412,4.754 6.528,4.679 6.658,4.599 6.749,4.52 6.81,4.482 6.87,4.439 6.893,4.423 6.912,4.406 H 6.913 V 4.404 C 7.012,4.287 7.168,4.13 7.403,4.054 7.483,4.033 7.574,4.016 7.675,4.016 Z m 1.633,1.25 c 0.21,0.826 0.698,2.026 1.012,2.609 0.167,0.311 0.5,0.967 0.643,1.764 0.091,-0.003 0.193,0.01 0.3,0.037 C 11.638,8.701 10.943,7.654 10.626,7.362 10.498,7.246 10.491,7.167 10.555,7.167 c 0.344,0.312 0.796,0.917 0.96,1.608 0.075,0.312 0.093,0.644 0.012,0.974 0.039,0.017 0.079,0.035 0.12,0.04 0.601,0.311 0.824,0.547 0.717,0.896 V 10.66 c -0.035,-0.002 -0.07,0 -0.105,0 h -0.01 c 0.089,-0.272 -0.106,-0.481 -0.62,-0.714 -0.534,-0.233 -0.96,-0.196 -1.033,0.271 -0.005,0.025 -0.008,0.039 -0.01,0.079 -0.04,0.013 -0.082,0.03 -0.123,0.037 -0.25,0.157 -0.386,0.39 -0.462,0.693 -0.076,0.31 -0.1,0.674 -0.12,1.09 v 0.002 C 9.87,12.313 9.782,12.607 9.695,12.905 8.82,13.531 7.607,13.802 6.575,13.1 a 1.543,1.543 0 0 0 -0.234,-0.31 0.846,0.846 0 0 0 -0.16,-0.195 0.963,0.963 0 0 0 0.27,-0.04 0.359,0.359 0 0 0 0.184,-0.194 c 0.063,-0.156 0,-0.407 -0.201,-0.678 C 6.233,11.41 5.891,11.103 5.391,10.795 5.023,10.562 4.816,10.288 4.72,9.981 4.624,9.669 4.637,9.348 4.711,9.021 4.854,8.397 5.221,7.791 5.454,7.41 5.517,7.372 5.476,7.488 5.216,7.978 4.986,8.416 4.551,9.434 5.146,10.226 5.168,9.648 5.296,9.08 5.523,8.548 5.852,7.803 6.539,6.504 6.593,5.475 6.622,5.496 6.72,5.555 6.763,5.593 6.889,5.671 6.983,5.787 7.106,5.864 A 0.694,0.694 0 0 0 7.617,6.06 l 0.065,0.003 c 0.24,0 0.425,-0.078 0.581,-0.156 C 8.433,5.829 8.567,5.712 8.695,5.674 H 8.698 C 8.97,5.594 9.185,5.439 9.307,5.265 Z m 1.275,5.225 c 0.021,0.35 0.2,0.726 0.514,0.803 0.343,0.078 0.837,-0.194 1.045,-0.446 l 0.123,-0.006 c 0.184,-0.004 0.337,0.006 0.494,0.156 L 12.76,11 c 0.121,0.116 0.178,0.31 0.228,0.511 0.05,0.233 0.09,0.455 0.239,0.622 0.283,0.307 0.376,0.528 0.37,0.665 L 13.6,12.794 v 0.01 l -0.002,-0.007 c -0.009,0.153 -0.108,0.231 -0.29,0.347 -0.368,0.234 -1.02,0.416 -1.434,0.916 -0.36,0.43 -0.8,0.665 -1.188,0.695 -0.387,0.03 -0.721,-0.117 -0.918,-0.524 L 9.765,14.229 c -0.122,-0.233 -0.07,-0.597 0.033,-0.985 0.103,-0.39 0.25,-0.784 0.27,-1.107 0.022,-0.417 0.044,-0.779 0.114,-1.058 0.07,-0.271 0.18,-0.465 0.374,-0.574 l 0.026,-0.013 z M 4.274,10.519 H 4.28 a 0.53,0.53 0 0 1 0.091,0.009 c 0.22,0.032 0.412,0.194 0.597,0.438 l 0.53,0.97 0.003,0.003 c 0.141,0.31 0.44,0.62 0.693,0.955 0.253,0.348 0.45,0.66 0.425,0.915 v 0.004 c -0.033,0.434 -0.28,0.67 -0.656,0.755 -0.376,0.079 -0.887,0 -1.397,-0.27 C 4.001,13.984 3.331,14.024 2.899,13.946 2.684,13.907 2.544,13.829 2.478,13.713 2.414,13.596 2.412,13.361 2.549,12.995 V 12.993 L 2.551,12.991 C 2.619,12.796 2.568,12.552 2.535,12.339 2.503,12.105 2.486,11.925 2.56,11.79 2.653,11.596 2.79,11.557 2.962,11.48 3.134,11.4 3.336,11.362 3.496,11.205 h 10e-4 c 0.15,-0.157 0.26,-0.351 0.39,-0.49 0.11,-0.117 0.222,-0.196 0.387,-0.196 z M 8.45,5.226 C 8.196,5.343 7.899,5.538 7.582,5.538 7.266,5.538 7.016,5.383 6.835,5.266 6.745,5.188 6.672,5.11 6.618,5.071 6.522,4.993 6.534,4.877 6.574,4.877 6.638,4.887 6.65,4.955 6.691,4.994 6.747,5.032 6.816,5.11 6.901,5.188 7.071,5.304 7.297,5.46 7.581,5.46 7.864,5.46 8.196,5.304 8.397,5.188 8.511,5.11 8.657,4.994 8.775,4.916 8.865,4.836 8.862,4.76 8.938,4.76 9.012,4.77 8.958,4.838 8.852,4.954 8.722,5.052 8.588,5.143 8.449,5.227 Z M 7.819,4.303 V 4.29 C 7.815,4.278 7.826,4.266 7.836,4.26 7.879,4.236 7.941,4.245 7.987,4.263 c 0.037,0 0.094,0.04 0.088,0.079 C 8.071,4.371 8.025,4.38 7.996,4.38 7.964,4.38 7.942,4.355 7.914,4.34 7.884,4.33 7.829,4.336 7.819,4.303 Z m -0.322,0 C 7.486,4.337 7.431,4.331 7.4,4.341 7.373,4.356 7.35,4.381 7.319,4.381 7.289,4.381 7.243,4.369 7.239,4.341 7.234,4.303 7.291,4.264 7.327,4.264 7.374,4.246 7.434,4.236 7.478,4.261 7.489,4.266 7.499,4.278 7.496,4.29 v 0.012 h 10e-4 z"
         id="path80"
         style="fill:#333333;fill-opacity:1;stroke-width:0.313064" /></g><g
       id="g82"
       transform="matrix(0.84513145,0,0,0.84513145,34.063109,301.89417)"
       style="fill:#333333;fill-opacity:1;stroke-width:0.313068"><g
         fill="#000000"
         id="g81"
         style="fill:#333333;fill-opacity:1;stroke-width:0.313068"><path
           d="M 1,1 H 7.5 V 7.5 H 1 Z M 8.5,1 H 15 V 7.5 H 8.5 Z M 1,8.5 H 7.5 V 15 H 1 Z m 7.5,0 H 15 V 15 H 8.5 Z"
           id="path81"
           style="fill:#333333;fill-opacity:1;stroke-width:0.313068" /></g></g><g
       id="g83"
       transform="matrix(0.84513139,0,0,0.84513139,18.051172,301.89417)"
       style="fill:#333333;fill-opacity:1;stroke-width:0.313068"><path
         fill="#000000"
         d="m 9.4256023,3.242 c 0.435,-0.523 0.7419997,-1.24 0.7419997,-1.958 0,-0.105 -0.008,-0.202 -0.03,-0.284 -0.7039997,0.03 -1.5499997,0.47 -2.0599997,1.069 -0.397,0.448 -0.772,1.173 -0.772,1.891 0,0.112 0.023,0.217 0.03,0.254 0.045,0.008 0.12,0.015 0.188,0.015 0.636,0 1.43,-0.419 1.902,-0.987 z m 0.495,1.144 c -1.057,0 -1.918,0.643 -2.465,0.643 -0.591,0 -1.355,-0.606 -2.284,-0.606 -1.745,0 -3.513,1.443 -3.513,4.157 0,1.697 0.652,3.491 1.46,4.642 0.697,0.971 1.304,1.778 2.18,1.778 0.869,0 1.251,-0.575 2.33,-0.575 1.093,0 1.333,0.56 2.292,0.56 0.9499997,0 1.5869997,-0.867 2.1799997,-1.727 0.673,-0.986 0.95,-1.943 0.958,-1.988 -0.053,-0.015 -1.873,-0.755 -1.873,-2.833 0,-1.794 1.431,-2.6 1.513,-2.66 -0.943,-1.354 -2.381,-1.391 -2.7779997,-1.391 z"
         id="path82"
         style="fill:#333333;fill-opacity:1;stroke-width:0.313068" /></g><text
       xml:space="preserve"
       style="font-weight:bold;font-size:12.7px;line-height:1.2;font-family:Inter;-inkscape-font-specification:'Inter Bold';writing-mode:lr-tb;direction:ltr;fill:#000000;fill-opacity:1;stroke-width:5.29167"
       x="3.8287473"
       y="293.79718"
       id="text83"><tspan
         sodipodi:role="line"
         id="tspan83"
         style="font-size:12.7px;fill:#000000;stroke-width:5.29167"
         x="3.8287473"
         y="293.79718">Your laptop / desktop</tspan></text><text
       xml:space="preserve"
       style="font-weight:bold;font-size:7.76111px;line-height:1.2;font-family:Inter;-inkscape-font-specification:'Inter Bold';writing-mode:lr-tb;direction:ltr;fill:#000000;fill-opacity:1;stroke-width:5.29167"
       x="111.48402"
       y="357.74954"
       id="text84"><tspan
         sodipodi:role="line"
         id="tspan84"
         style="font-style:normal;font-variant:normal;font-weight:500;font-stretch:normal;font-size:7.76111px;font-family:Inter;-inkscape-font-specification:'Inter Medium';fill:#000000;fill-opacity:1;stroke-width:5.29167"
         x="111.48402"
         y="357.74954">Terminal</tspan></text><g
       id="g86"
       transform="translate(24.095416,235.48482)"
       style="stroke-width:0.529167;stroke-dasharray:none"><path
         id="path84"
         style="fill:#e5e5e5;fill-opacity:1;stroke:#404040;stroke-width:0.529167;stroke-dasharray:none;stroke-opacity:1"
         d="M 47.967663,87.493351 V 110.2889 h 18.81736 V 91.892932 l -4.399579,-4.399581 z" /><g
         id="g85"
         transform="matrix(0.73630092,0,0,0.73630092,51.638418,93.001786)"
         style="fill:#333333;fill-opacity:1;stroke-width:0.718683;stroke-dasharray:none"><path
           fill-rule="evenodd"
           clip-rule="evenodd"
           d="M 10.5,9 C 12.9853,9 15,6.98528 15,4.5 15,2.01472 12.9853,0 10.5,0 8.01475,0 6.00003,2.01472 6.00003,4.5 c 0,0.88054 0.25291,1.70201 0.69005,2.39574 L 0.585815,13 3.58292,15.9971 4.99714,14.5829 3.41424,13 5.00003,11.4142 6.58292,12.9971 7.99714,11.5829 6.41424,10 8.10429,8.30995 C 8.79801,8.74709 9.61949,9 10.5,9 Z m 0,-2 C 11.8807,7 13,5.88071 13,4.5 13,3.11929 11.8807,2 10.5,2 9.11932,2 8.00003,3.11929 8.00003,4.5 8.00003,5.88071 9.11932,7 10.5,7 Z"
           fill="#000000"
           id="path85"
           style="fill:#333333;fill-opacity:1;stroke-width:0.718683;stroke-dasharray:none" /></g></g><text
       xml:space="preserve"
       style="font-weight:bold;font-size:7.76111px;line-height:1.2;font-family:Inter;-inkscape-font-specification:'Inter Bold';writing-mode:lr-tb;direction:ltr;fill:#000000;fill-opacity:1;stroke-width:5.29167"
       x="62.382988"
       y="357.00299"
       id="text86"><tspan
         sodipodi:role="line"
         id="tspan86"
         style="font-style:normal;font-variant:normal;font-weight:500;font-stretch:normal;font-size:7.76111px;font-family:Inter;-inkscape-font-specification:'Inter Medium';fill:#000000;fill-opacity:1;stroke-width:5.29167"
         x="62.382988"
         y="357.00299">Private key</tspan></text><rect
       style="fill:#f7f7f7;fill-opacity:1;stroke:#404040;stroke-width:0.529167;stroke-dasharray:none;stroke-opacity:1"
       id="rect86"
       width="158.75"
       height="92.604172"
       x="283.42856"
       y="275.27014" /><text
       xml:space="preserve"
       style="font-weight:bold;font-size:12.7px;line-height:1.2;font-family:Inter;-inkscape-font-specification:'Inter Bold';writing-mode:lr-tb;direction:ltr;fill:#000000;fill-opacity:1;stroke-width:5.29167"
       x="293.95609"
       y="295.09323"
       id="text87"><tspan
         sodipodi:role="line"
         id="tspan87"
         style="font-size:12.7px;fill:#000000;stroke-width:5.29167"
         x="293.95609"
         y="295.09323">Server on the cloud</tspan></text><g
       id="g91"
       transform="matrix(0.68606763,0,0,0.68606763,48.792386,274.8538)"
       style="fill:#333333;fill-opacity:1;stroke-width:1.45759"><g
         id="g90"
         style="fill:#333333;fill-opacity:1;stroke-width:4.89296"
         transform="matrix(0.07881813,0,0,0.07881813,350.9166,37.08874)">
			<g
   id="g89"
   style="fill:#333333;fill-opacity:1;stroke-width:4.89296">
				<g
   id="g88"
   style="fill:#333333;fill-opacity:1;stroke-width:4.89296">
					<g
   id="g87"
   style="fill:#333333;fill-opacity:1;stroke-width:4.89296">
						
					</g>
					<polygon
   id="polygon87"
   class="st1"
   points="177.1,187.5 143,187.5 143,153.4 177.1,153.4 "
   style="fill:#333333;fill-opacity:1;stroke-width:4.89296" />
					<polygon
   id="polygon88"
   class="st1"
   points="116.9,213.6 116.9,187.5 143,187.5 143,213.6 "
   style="fill:#333333;fill-opacity:1;stroke-width:4.89296" />
					<path
   id="path88"
   class="st1"
   d="M 116.9,187.5 H 95 c 0,0 0,0 0,0 v -21.9 c 0,0 0,0 0,0 h 21.9 c 0,0 0,0 0,0 z"
   style="fill:#333333;fill-opacity:1;stroke-width:4.89296" />
				</g>
			</g>
		</g><path
         id="path90"
         class="st0"
         d="m 364.86741,54.546956 v -2.69558 c 2.85322,0 5.068,-2.829571 3.97243,-5.832542 -0.40197,-1.103454 -1.29261,-1.994099 -2.40395,-2.396071 -3.00297,-1.08769 -5.83254,1.119217 -5.83254,3.972434 0,0 0,0 0,0 h -2.6877 c 0,-4.547806 4.39805,-8.094622 9.16655,-6.60496 2.0808,0.654191 3.74386,2.309372 4.39017,4.39017 1.48966,4.768497 -2.05715,9.166549 -6.60496,9.166549 z"
         style="fill:#333333;fill-opacity:1;stroke-width:0.385655" /></g><g
       id="g92"
       style="fill:#333333;fill-opacity:1;stroke-width:0.730141"
       transform="matrix(0.36237264,0,0,0.36237264,328.23809,298.75982)"><path
         d="m 14.4,20.6 a 5.1,5.1 0 0 0 0.2,1.3 l 0.4,1 a 0.4,0.4 0 0 1 0.1,0.3 c 0,0.2 -0.1,0.3 -0.2,0.5 l -1,0.6 h -0.3 a 0.6,0.6 0 0 1 -0.5,-0.2 1.8,1.8 0 0 1 -0.5,-0.7 5.6,5.6 0 0 1 -0.5,-0.8 5.4,5.4 0 0 1 -4.3,2 4,4 0 0 1 -2.9,-1.1 3.8,3.8 0 0 1 -1.1,-2.8 3.9,3.9 0 0 1 1.4,-3 5.2,5.2 0 0 1 3.5,-1.1 h 1.6 L 12,16.9 V 16 A 3.5,3.5 0 0 0 11.3,13.7 3.8,3.8 0 0 0 8.9,13 L 7.3,13.2 5.7,13.7 5.2,13.9 H 5 C 4.8,13.9 4.7,13.7 4.7,13.4 V 12.7 A 0.7,0.7 0 0 1 4.8,12.2 L 5.2,11.9 A 7.5,7.5 0 0 1 7,11.3 9.1,9.1 0 0 1 9.3,11 a 5.5,5.5 0 0 1 3.9,1.2 4.9,4.9 0 0 1 1.2,3.6 z M 8.5,22.8 10,22.5 a 4.2,4.2 0 0 0 1.4,-0.9 3.1,3.1 0 0 0 0.5,-1 c 0,-0.3 0.1,-0.7 0.1,-1.2 V 18.8 L 10.7,18.5 H 9.3 a 3.4,3.4 0 0 0 -2.2,0.6 2.1,2.1 0 0 0 -0.7,1.7 2.1,2.1 0 0 0 0.5,1.5 2.1,2.1 0 0 0 1.6,0.5 z m 11.7,1.6 A 0.6,0.6 0 0 1 19.7,24.2 0.9,0.9 0 0 1 19.3,23.6 L 15.9,12.3 a 1.8,1.8 0 0 1 -0.1,-0.6 0.3,0.3 0 0 1 0.3,-0.3 h 2 a 1.6,1.6 0 0 1 0.3,0.6 l 2.5,9.7 2.3,-9.7 a 0.8,0.8 0 0 1 0.2,-0.6 h 2.4 l 0.3,0.6 2.3,9.8 2.5,-9.8 0.3,-0.6 h 1.9 c 0.3,0 0.4,0.1 0.4,0.3 V 12 c 0,0.1 -0.1,0.2 -0.1,0.3 l -3.6,11.4 a 0.6,0.6 0 0 1 -0.3,0.5 L 29,24.4 h -1.3 a 0.7,0.7 0 0 1 -0.8,-0.8 l -2.3,-9.4 -2.3,9.4 a 0.8,0.8 0 0 1 -0.2,0.6 l -0.6,0.2 z M 39,24.8 a 8.3,8.3 0 0 1 -2.2,-0.3 l -1.7,-0.6 a 1.1,1.1 0 0 1 -0.5,-0.4 c 0,-0.1 -0.1,-0.3 -0.1,-0.4 v -0.8 a 0.4,0.4 0 0 1 0.4,-0.4 h 0.2 l 0.4,0.2 1.6,0.5 1.8,0.2 a 4.1,4.1 0 0 0 2.1,-0.5 1.6,1.6 0 0 0 0.8,-1.4 1.5,1.5 0 0 0 -0.4,-1 3.5,3.5 0 0 0 -1.5,-0.8 l -2.1,-0.7 a 4.6,4.6 0 0 1 -2.4,-1.4 3.6,3.6 0 0 1 -0.7,-2.2 2.9,2.9 0 0 1 0.4,-1.6 2.9,2.9 0 0 1 1,-1.2 l 1.6,-0.8 1.8,-0.2 h 1.9 l 0.9,0.3 0.6,0.2 c 0.2,0.1 0.3,0.3 0.4,0.4 a 0.7,0.7 0 0 1 0.1,0.5 v 0.7 c 0,0.3 -0.1,0.4 -0.3,0.4 a 0.6,0.6 0 0 1 -0.5,-0.2 8.8,8.8 0 0 0 -2.9,-0.5 3.6,3.6 0 0 0 -1.9,0.4 1.4,1.4 0 0 0 -0.7,1.3 1.4,1.4 0 0 0 0.5,1 2.9,2.9 0 0 0 1.6,0.8 l 2,0.7 a 4,4 0 0 1 2.3,1.4 3.1,3.1 0 0 1 0.7,2 4.3,4.3 0 0 1 -0.4,1.7 3.5,3.5 0 0 1 -1.1,1.3 3,3 0 0 1 -1.6,0.8 4.9,4.9 0 0 1 -2.1,0.6 z"
         id="path91"
         style="fill:#333333;fill-opacity:1;stroke-width:0.730141" /><path
         d="M 41.8,31.9 C 37,35.4 30,37.3 24,37.3 A 32.1,32.1 0 0 1 2.2,29 c -0.5,-0.4 0,-1 0.5,-0.6 a 44,44 0 0 0 21.8,5.8 45.2,45.2 0 0 0 16.6,-3.4 c 0.8,-0.4 1.5,0.5 0.7,1.1 z m 2,-2.3 C 43.2,28.8 39.7,29.2 38.2,29.4 36.7,29.6 37.6,29 38,28.7 c 2.8,-1.9 7.3,-1.3 7.8,-0.7 0.5,0.6 -0.1,5.2 -2.7,7.4 -0.4,0.3 -0.8,0.1 -0.6,-0.3 0.2,-0.4 1.9,-4.7 1.3,-5.5 z"
         id="path92"
         style="fill:#333333;fill-opacity:1;stroke-width:0.730141" /></g><g
       id="g94"
       transform="matrix(0.87155667,0,0,0.87155667,309.44974,300.97132)"
       style="fill:#333333;fill-opacity:1;stroke-width:0.303576"><g
         fill="#000000"
         id="g93"
         style="fill:#333333;fill-opacity:1;stroke-width:0.303576"><path
           d="M 7.47,12.412 10.818,11.82 10.849,11.813 9.127,9.764 A 291.474,291.474 0 0 1 7.404,7.706 c 0,-0.01 1.779,-4.909 1.789,-4.926 a 788.95,788.95 0 0 1 2.934,5.066 l 2.95,5.115 L 15.1,13 4.152,12.999 7.469,12.412 Z M 0.9,11.788 c 0,-0.003 0.811,-1.412 1.803,-3.131 L 4.507,5.53 6.609,3.766 C 7.765,2.797 8.714,2 8.717,2 A 0.37,0.37 0 0 1 8.684,2.085 L 6.4,6.981 4.16,11.789 2.53,11.791 c -0.897,10e-4 -1.63,0 -1.63,-0.003 z"
           id="path93"
           style="fill:#333333;fill-opacity:1;stroke-width:0.303576" /></g></g><g
       id="g96"
       transform="translate(37.106116,236.92518)"><path
         id="path94"
         style="fill:#e5e5e5;fill-opacity:1;stroke:#404040;stroke-width:0.529166;stroke-dasharray:none;stroke-opacity:1"
         d="m 366.66905,86.052993 v 22.795547 h 18.81736 V 90.452574 l -4.39958,-4.399581 z" /><g
         id="g95"
         transform="matrix(0.73616739,0,0,0.73616739,370.18839,91.561427)"
         style="fill:#333333;fill-opacity:1;stroke-width:0.359406"><path
           fill-rule="evenodd"
           clip-rule="evenodd"
           d="M 4,6 V 4 C 4,1.79086 5.79086,0 8,0 c 2.2091,0 4,1.79086 4,4 v 2 h 2 V 16 H 2 V 6 Z M 6,4 C 6,2.89543 6.89543,2 8,2 9.10457,2 10,2.89543 10,4 V 6 H 6 Z m 1,9 V 9 h 2 v 4 z"
           fill="#000000"
           id="path95"
           style="fill:#333333;fill-opacity:1;stroke-width:0.359406" /></g></g><text
       xml:space="preserve"
       style="font-weight:bold;font-size:7.76111px;line-height:1.2;font-family:Inter;-inkscape-font-specification:'Inter Bold';writing-mode:lr-tb;direction:ltr;fill:#000000;fill-opacity:1;stroke-width:5.29167"
       x="395.45218"
       y="357.00299"
       id="text96"><tspan
         sodipodi:role="line"
         id="tspan96"
         style="font-style:normal;font-variant:normal;font-weight:500;font-stretch:normal;font-size:7.76111px;font-family:Inter;-inkscape-font-specification:'Inter Medium';fill:#000000;fill-opacity:1;stroke-width:5.29167"
         x="395.45218"
         y="357.00299">Public key</tspan></text><g
       id="g179"><g
         id="g145"
         transform="translate(-6.2760779)"><text
           xml:space="preserve"
           style="font-weight:bold;font-size:7.76111px;line-height:1.2;font-family:Inter;-inkscape-font-specification:'Inter Bold';writing-mode:lr-tb;direction:ltr;fill:#000000;fill-opacity:1;stroke-width:5.29167"
           x="88.279823"
           y="395.25943"
           id="text118"><tspan
             sodipodi:role="line"
             style="font-style:normal;font-variant:normal;font-weight:bold;font-stretch:normal;font-size:7.76111px;font-family:Inter;-inkscape-font-specification:'Inter Medium';fill:#000000;stroke-width:5.29167"
             x="88.279823"
             y="395.25943"
             id="tspan119">1. SSH request</tspan></text><text
           xml:space="preserve"
           style="font-style:normal;font-variant:normal;font-weight:500;font-stretch:normal;font-size:6.35px;line-height:1.2;font-family:Inter;-inkscape-font-specification:'Inter Medium';writing-mode:lr-tb;direction:ltr;fill:#333333;fill-opacity:1;stroke:none;stroke-width:0.529167;stroke-dasharray:none;stroke-opacity:1"
           x="88.005943"
           y="404.20633"
           id="text120"><tspan
             sodipodi:role="line"
             id="tspan120"
             style="font-size:6.35px;fill:#333333;fill-opacity:1;stroke-width:0.529167"
             x="88.005943"
             y="404.20633">Let me connect please. I want to use key ID: id_rsa. </tspan></text></g><path
         style="fill:#000000;fill-opacity:1;stroke:#333333;stroke-width:0.79375;stroke-dasharray:none;stroke-opacity:1;marker-end:url(#marker65)"
         d="m 269.78119,112.47311 c -90.13901,0 -180.277993,0 -270.417001,0"
         id="path120"
         inkscape:path-effect="#path-effect121"
         inkscape:original-d="m 269.78119,112.47311 c -90.13901,0 -180.277993,0 -270.417001,0"
         transform="matrix(-1,0,0,1,351.93273,297.02489)"
         sodipodi:nodetypes="cc" /></g><path
       style="fill:#333333;fill-opacity:1;stroke:#404040;stroke-width:0.529167;stroke-dasharray:none;stroke-opacity:1"
       d="m 74.792881,367.87431 c 0,74.15787 0,148.31573 0,222.47358"
       id="path143"
       inkscape:path-effect="#path-effect143"
       inkscape:original-d="m 74.792881,367.87431 c 0,74.15787 0,148.31573 0,222.47358"
       transform="translate(-2.1166667)"
       sodipodi:nodetypes="cc" /><path
       style="fill:#333333;fill-opacity:1;stroke:#404040;stroke-width:0.529167;stroke-dasharray:none;stroke-opacity:1"
       d="m 74.792881,367.87431 c 0,74.15787 0,148.31573 0,222.47358"
       id="path144"
       inkscape:path-effect="#path-effect145"
       inkscape:original-d="m 74.792881,367.87431 c 0,74.15787 0,148.31573 0,222.47358"
       transform="translate(288.01065)"
       sodipodi:nodetypes="cc" /><g
       id="g180"
       transform="translate(0,3.0311687)"><path
         style="fill:#000000;fill-opacity:1;stroke:#333333;stroke-width:0.79375;stroke-dasharray:none;stroke-opacity:1;marker-end:url(#marker65)"
         d="m 269.78119,112.47311 c -90.13901,0 -180.277993,0 -270.417001,0"
         id="path155"
         inkscape:path-effect="#path-effect156"
         inkscape:original-d="m 269.78119,112.47311 c -90.13901,0 -180.277993,0 -270.417001,0"
         transform="translate(83.547054,342.64009)"
         sodipodi:nodetypes="cc" /><text
         xml:space="preserve"
         style="font-weight:bold;font-size:7.76111px;line-height:1.2;font-family:Inter;-inkscape-font-specification:'Inter Bold';writing-mode:lr-tb;direction:ltr;fill:#000000;fill-opacity:1;stroke-width:5.29167"
         x="309.38263"
         y="440.87463"
         id="text121"><tspan
           sodipodi:role="line"
           style="font-style:normal;font-variant:normal;font-weight:bold;font-stretch:normal;font-size:7.76111px;font-family:Inter;-inkscape-font-specification:'Inter Medium';fill:#000000;stroke-width:5.29167"
           x="309.38263"
           y="440.87463"
           id="tspan121">2. Challenge</tspan></text><text
         xml:space="preserve"
         style="font-style:normal;font-variant:normal;font-weight:500;font-stretch:normal;font-size:6.35px;line-height:1.2;font-family:Inter;-inkscape-font-specification:'Inter Medium';writing-mode:lr-tb;direction:ltr;fill:#333333;fill-opacity:1;stroke:none;stroke-width:0.529167;stroke-dasharray:none;stroke-opacity:1"
         x="219.4274"
         y="449.82153"
         id="text122"><tspan
           sodipodi:role="line"
           id="tspan122"
           style="font-size:6.35px;fill:#333333;fill-opacity:1;stroke-width:0.529167"
           x="219.4274"
           y="449.82153">Prove you own that key. Sign this random string.</tspan></text><g
         id="g156"
         transform="translate(-154.0442,-42.971425)"><rect
           style="fill:#f7f7f7;fill-opacity:1;stroke:#404040;stroke-width:0.529169;stroke-dasharray:none;stroke-opacity:1"
           id="rect145"
           width="51.347797"
           height="22.460768"
           x="283.07602"
           y="486.85425" /><text
           xml:space="preserve"
           style="font-style:normal;font-variant:normal;font-weight:500;font-stretch:normal;font-size:4.23333px;line-height:1.2;font-family:Inter;-inkscape-font-specification:'Inter Medium';writing-mode:lr-tb;direction:ltr;fill:#333333;fill-opacity:1;stroke:none;stroke-width:0.529167;stroke-dasharray:none;stroke-opacity:1"
           x="285.90555"
           y="494.54459"
           id="text132"><tspan
             sodipodi:role="line"
             style="font-size:4.23333px;fill:#333333;fill-opacity:1;stroke-width:0.529167"
             x="285.90555"
             y="494.54459"
             id="tspan136">wGFOYwnY78eBsNQE0</tspan><tspan
             sodipodi:role="line"
             style="font-size:4.23333px;fill:#333333;fill-opacity:1;stroke-width:0.529167"
             x="285.90555"
             y="499.62457"
             id="tspan145">9baXT6SH7m1FoGXgHa</tspan><tspan
             sodipodi:role="line"
             style="font-size:4.23333px;fill:#333333;fill-opacity:1;stroke-width:0.529167"
             x="285.90555"
             y="504.70459"
             id="tspan146">CZxiNPZ</tspan></text></g><text
         xml:space="preserve"
         style="font-style:normal;font-variant:normal;font-weight:500;font-stretch:normal;font-size:6.35px;line-height:1.2;font-family:Inter;-inkscape-font-specification:'Inter Medium';writing-mode:lr-tb;direction:ltr;fill:#333333;fill-opacity:1;stroke:none;stroke-width:0.529167;stroke-dasharray:none;stroke-opacity:1"
         x="122.19793"
         y="438.1792"
         id="text147"><tspan
           sodipodi:role="line"
           id="tspan147"
           style="font-size:6.35px;fill:#000000;fill-opacity:1;stroke-width:0.529167"
           x="122.19793"
           y="438.1792">Random string (Nonce)</tspan></text></g><g
       id="g181"
       transform="translate(0,-2.1982569)"><path
         style="fill:#000000;fill-opacity:1;stroke:#333333;stroke-width:0.79375;stroke-dasharray:none;stroke-opacity:1;marker-end:url(#marker65)"
         d="m 269.78119,112.47311 c -90.13901,0 -180.277993,0 -270.417001,0"
         id="path157"
         inkscape:path-effect="#path-effect167"
         inkscape:original-d="m 269.78119,112.47311 c -90.13901,0 -180.277993,0 -270.417001,0"
         transform="matrix(-1,0,0,1,351.93274,404.79705)"
         sodipodi:nodetypes="cc" /><text
         xml:space="preserve"
         style="font-weight:bold;font-size:7.76111px;line-height:1.2;font-family:Inter;-inkscape-font-specification:'Inter Bold';writing-mode:lr-tb;direction:ltr;fill:#000000;fill-opacity:1;stroke-width:5.29167"
         x="81.871109"
         y="503.03162"
         id="text157"><tspan
           sodipodi:role="line"
           style="font-style:normal;font-variant:normal;font-weight:bold;font-stretch:normal;font-size:7.76111px;font-family:Inter;-inkscape-font-specification:'Inter Medium';fill:#000000;stroke-width:5.29167"
           x="81.871109"
           y="503.03162"
           id="tspan157">3. Send signature</tspan></text><text
         xml:space="preserve"
         style="font-style:normal;font-variant:normal;font-weight:500;font-stretch:normal;font-size:6.35px;line-height:1.2;font-family:Inter;-inkscape-font-specification:'Inter Medium';writing-mode:lr-tb;direction:ltr;fill:#333333;fill-opacity:1;stroke:none;stroke-width:0.529167;stroke-dasharray:none;stroke-opacity:1"
         x="81.918999"
         y="511.97852"
         id="text158"><tspan
           sodipodi:role="line"
           id="tspan158"
           style="font-size:6.35px;fill:#333333;fill-opacity:1;stroke-width:0.529167"
           x="81.918999"
           y="511.97852">I signed it using my private key. Here is the signature.</tspan></text><rect
         style="fill:#f7f7f7;fill-opacity:1;stroke:#404040;stroke-width:0.529169;stroke-dasharray:none;stroke-opacity:1"
         id="rect162"
         width="51.347797"
         height="22.460768"
         x="261.5379"
         y="506.03976" /><text
         xml:space="preserve"
         style="font-style:normal;font-variant:normal;font-weight:500;font-stretch:normal;font-size:4.23333px;line-height:1.2;font-family:Inter;-inkscape-font-specification:'Inter Medium';writing-mode:lr-tb;direction:ltr;fill:#333333;fill-opacity:1;stroke:none;stroke-width:0.529167;stroke-dasharray:none;stroke-opacity:1"
         x="265.20407"
         y="515.86292"
         id="text165"><tspan
           sodipodi:role="line"
           style="font-size:4.23333px;fill:#333333;fill-opacity:1;stroke-width:0.529167"
           x="265.20407"
           y="515.86292"
           id="tspan165">Sig_7s8d6f9g0h1j2k3l4</tspan><tspan
           sodipodi:role="line"
           style="font-size:4.23333px;fill:#333333;fill-opacity:1;stroke-width:0.529167"
           x="265.20407"
           y="520.94293"
           id="tspan177">m5n6o7p8q9r0s</tspan></text><text
         xml:space="preserve"
         style="font-style:normal;font-variant:normal;font-weight:500;font-stretch:normal;font-size:6.35px;line-height:1.2;font-family:Inter;-inkscape-font-specification:'Inter Medium';writing-mode:lr-tb;direction:ltr;fill:#333333;fill-opacity:1;stroke:none;stroke-width:0.529167;stroke-dasharray:none;stroke-opacity:1"
         x="264.28265"
         y="500.33618"
         id="text166"><tspan
           sodipodi:role="line"
           id="tspan166"
           style="font-size:6.35px;fill:#000000;fill-opacity:1;stroke-width:0.529167"
           x="264.28265"
           y="500.33618">Digital signature</tspan></text></g><g
       id="g182"
       transform="translate(0,-2.4811397)"><path
         style="fill:#000000;fill-opacity:1;stroke:#333333;stroke-width:0.79375;stroke-dasharray:none;stroke-opacity:1;marker-end:url(#marker65)"
         d="m 269.78119,112.47311 c -90.13901,0 -180.277993,0 -270.417001,0"
         id="path168"
         inkscape:path-effect="#path-effect176"
         inkscape:original-d="m 269.78119,112.47311 c -90.13901,0 -180.277993,0 -270.417001,0"
         transform="translate(83.547054,460.31698)"
         sodipodi:nodetypes="cc" /><text
         xml:space="preserve"
         style="font-weight:bold;font-size:7.76111px;line-height:1.2;font-family:Inter;-inkscape-font-specification:'Inter Bold';writing-mode:lr-tb;direction:ltr;fill:#000000;fill-opacity:1;stroke-width:5.29167"
         x="309.23557"
         y="558.55151"
         id="text168"><tspan
           sodipodi:role="line"
           style="font-style:normal;font-variant:normal;font-weight:bold;font-stretch:normal;font-size:7.76111px;font-family:Inter;-inkscape-font-specification:'Inter Medium';fill:#000000;stroke-width:5.29167"
           x="309.23557"
           y="558.55151"
           id="tspan168">4. The result</tspan></text><text
         xml:space="preserve"
         style="font-style:normal;font-variant:normal;font-weight:500;font-stretch:normal;font-size:6.35px;line-height:1.2;font-family:Inter;-inkscape-font-specification:'Inter Medium';writing-mode:lr-tb;direction:ltr;fill:#333333;fill-opacity:1;stroke:none;stroke-width:0.529167;stroke-dasharray:none;stroke-opacity:1"
         x="255.86702"
         y="567.49841"
         id="text169"><tspan
           sodipodi:role="line"
           id="tspan169"
           style="font-size:6.35px;fill:#333333;fill-opacity:1;stroke-width:0.529167"
           x="255.86702"
           y="567.49841">Signature verified. Access granted.</tspan></text></g></g><style
     type="text/css"
     id="style1">
	.st0{fill:#0080FF;}
	.st1{fill-rule:evenodd;clip-rule:evenodd;fill:#0080FF;}
</style></svg>
