<?xml version="1.0" encoding="UTF-8" standalone="no"?>
<!-- Created with Inkscape (http://www.inkscape.org/) -->

<svg
   width="1920"
   height="1080"
   viewBox="0 0 507.99999 285.75"
   version="1.1"
   id="svg1"
   inkscape:export-filename="../../../../../Downloads/elastic_search_python_tuto_cover_w_text.png"
   inkscape:export-xdpi="96"
   inkscape:export-ydpi="96"
   inkscape:version="1.4.3 (0d15f75042, 2025-12-25)"
   sodipodi:docname="coverImage.svg"
   xml:space="preserve"
   xmlns:inkscape="http://www.inkscape.org/namespaces/inkscape"
   xmlns:sodipodi="http://sodipodi.sourceforge.net/DTD/sodipodi-0.dtd"
   xmlns:xlink="http://www.w3.org/1999/xlink"
   xmlns="http://www.w3.org/2000/svg"
   xmlns:svg="http://www.w3.org/2000/svg"><sodipodi:namedview
     id="namedview1"
     pagecolor="#ffffff"
     bordercolor="#000000"
     borderopacity="0.25"
     inkscape:showpageshadow="2"
     inkscape:pageopacity="0.0"
     inkscape:pagecheckerboard="0"
     inkscape:deskcolor="#d1d1d1"
     inkscape:document-units="px"
     inkscape:zoom="0.4204826"
     inkscape:cx="1114.1959"
     inkscape:cy="305.60123"
     inkscape:window-width="2560"
     inkscape:window-height="1371"
     inkscape:window-x="0"
     inkscape:window-y="0"
     inkscape:window-maximized="1"
     inkscape:current-layer="layer1"
     showguides="true" /><defs
     id="defs1"><radialGradient
       id="paint0_radial"
       cx="0"
       cy="0"
       r="1"
       gradientUnits="userSpaceOnUse"
       gradientTransform="matrix(0,44.008625,-44.008625,0,116.20244,179.33892)"><stop
         stop-color="#665CEE"
         id="stop3" /><stop
         offset="1"
         stop-color="#332E91"
         id="stop4" /></radialGradient><radialGradient
       id="paint1_radial"
       cx="0"
       cy="0"
       r="1"
       gradientUnits="userSpaceOnUse"
       gradientTransform="matrix(0,44.008625,-44.008625,0,116.20244,179.33892)"><stop
         stop-color="#665CEE"
         id="stop5" /><stop
         offset="1"
         stop-color="#332E91"
         id="stop6" /></radialGradient><defs
       id="defs1-7" /><radialGradient
       id="IconifyId17ecdb2904d178eab21129"
       cx="63.599998"
       cy="1104.9"
       r="56.959999"
       gradientTransform="matrix(0.26458333,0,0,0.26458333,298.18541,-206.11041)"
       gradientUnits="userSpaceOnUse"><stop
         offset=".5"
         stop-color="#fde030"
         id="stop1" /><stop
         offset=".92"
         stop-color="#f7c02b"
         id="stop2" /><stop
         offset="1"
         stop-color="#f4a223"
         id="stop3-9" /></radialGradient><linearGradient
       id="IconifyId17ecdb2904d178eab21130"
       gradientUnits="userSpaceOnUse"
       x1="63.599998"
       y1="1160.8"
       x2="63.599998"
       y2="1049"
       gradientTransform="matrix(0.26458333,0,0,0.26458333,298.18541,-206.11041)"><stop
         offset="0"
         stop-color="#f4a223"
         id="stop4-6" /><stop
         offset=".08"
         stop-color="#f7c02b"
         id="stop5-0" /><stop
         offset=".54"
         stop-color="#fde030"
         stop-opacity="0"
         id="stop6-6" /></linearGradient><radialGradient
       inkscape:collect="always"
       xlink:href="#IconifyId17ecdb2904d178eab21129"
       id="radialGradient47"
       gradientUnits="userSpaceOnUse"
       gradientTransform="matrix(0.26458333,0,0,0.26458333,298.18541,-206.11041)"
       cx="63.599998"
       cy="1104.9"
       r="56.959999" /><linearGradient
       inkscape:collect="always"
       xlink:href="#IconifyId17ecdb2904d178eab21130"
       id="linearGradient47"
       gradientUnits="userSpaceOnUse"
       gradientTransform="matrix(0.26458333,0,0,0.26458333,298.18541,-206.11041)"
       x1="63.599998"
       y1="1160.8"
       x2="63.599998"
       y2="1049" /><radialGradient
       inkscape:collect="always"
       xlink:href="#IconifyId17ecdb2904d178eab21131"
       id="radialGradient48"
       gradientUnits="userSpaceOnUse"
       gradientTransform="matrix(1,0,0,-0.94,0,107.02)"
       cx="41.450001"
       cy="25.006001"
       r="59.431999" /><radialGradient
       inkscape:collect="always"
       xlink:href="#paint0_radial"
       id="radialGradient49"
       gradientUnits="userSpaceOnUse"
       gradientTransform="matrix(0,44.008625,-44.008625,0,116.20244,179.33892)"
       cx="0"
       cy="0"
       r="1" /><radialGradient
       inkscape:collect="always"
       xlink:href="#paint1_radial"
       id="radialGradient50"
       gradientUnits="userSpaceOnUse"
       gradientTransform="matrix(0,44.008625,-44.008625,0,116.20244,179.33892)"
       cx="0"
       cy="0"
       r="1" /></defs><g
     inkscape:label="Layer 1"
     inkscape:groupmode="layer"
     id="layer1"><rect
       style="fill:#ffffff;stroke:none;stroke-width:1.32292;stroke-linecap:round"
       id="rect2"
       width="508"
       height="285.75"
       x="-6.6035158e-05"
       y="0" /><g
       id="g6"
       transform="matrix(6.181208,0,0,6.181208,-1692.7223,-393.41004)"
       style="opacity:0.25;stroke-width:0.161781"><path
         d="m 315.01291,101.01792 c -7.38188,0 -15.34583,-4.630213 -15.34583,-14.790213 0,-10.159999 7.96395,-14.790208 15.34583,-14.790208 4.10104,0 7.88458,1.349375 10.68917,3.81 3.0427,2.69875 4.65666,6.50875 4.65666,10.980208 0,4.471459 -1.61396,8.255 -4.65666,10.95375 -2.80459,2.460625 -6.61459,3.836463 -10.68917,3.836463 z"
         fill="url(#IconifyId17ecdb2904d178eab21129)"
         id="path3-3"
         style="fill:url(#radialGradient47);stroke-width:0.0428044" /><path
         d="m 315.01291,101.01792 c -7.38188,0 -15.34583,-4.630213 -15.34583,-14.790213 0,-10.159999 7.96395,-14.790208 15.34583,-14.790208 4.10104,0 7.88458,1.349375 10.68917,3.81 3.0427,2.69875 4.65666,6.50875 4.65666,10.980208 0,4.471459 -1.61396,8.255 -4.65666,10.95375 -2.80459,2.460625 -6.61459,3.836463 -10.68917,3.836463 z"
         fill="url(#IconifyId17ecdb2904d178eab21130)"
         id="path6"
         style="fill:url(#linearGradient47);stroke-width:0.0428044" /><path
         d="m 327.68381,77.435603 c 1.41022,2.275417 2.14577,4.98475 2.14577,7.998354 0,4.471459 -1.61396,8.255 -4.65667,10.95375 -2.80458,2.460625 -6.61458,3.836463 -10.68917,3.836463 -4.77837,0 -9.78958,-1.944692 -12.74762,-6.069546 2.84691,4.672542 8.20208,6.863296 13.27679,6.863296 4.07458,0 7.88458,-1.375838 10.68917,-3.836463 3.0427,-2.69875 4.65666,-6.482291 4.65666,-10.95375 0,-3.370791 -0.9181,-6.365874 -2.67493,-8.792104 z"
         fill="#eb8f00"
         id="path7"
         style="stroke-width:0.0428044" /><g
         id="g11"
         transform="matrix(0.26458333,0,0,0.26458333,298.18541,69.585416)"
         style="stroke-width:0.161781"><radialGradient
           id="IconifyId17ecdb2904d178eab21131"
           cx="41.450001"
           cy="25.006001"
           r="59.431999"
           gradientTransform="matrix(1,0,0,-0.94,0,107.02)"
           gradientUnits="userSpaceOnUse"><stop
             offset=".27"
             stop-color="#fff176"
             id="stop7" /><stop
             offset="1"
             stop-color="#ffc400"
             id="stop8" /></radialGradient><path
           d="m 6.36,75.1 c -1.82,2.21 2.05,8.08 2.74,11.07 1.66,7.22 0,9 -0.13,15.42 -0.11,7.06 2,13 7.38,16.79 5.06,3.59 11.16,5.43 18.96,3.13 7.8,-2.3 12.54,-4.84 12.94,-8.68 0.22,-1.59 -0.62,-3.15 -2.08,-3.83 0.78,-0.37 1.4,-1 1.75,-1.79 1.86,-4.44 -1.85,-5.38 -1.85,-5.38 0.51,-0.61 0.94,-1.28 1.28,-2 1.11,-2.21 0.93,-5.21 -2.27,-6.19 -1.47,-0.45 -1.87,-0.21 -1.87,-0.21 1.52,-1.56 3.34,-2.81 5.35,-3.65 5.38,-2.31 11.76,-3.71 13.35,-5.06 2.31,-2 2.45,-5.85 -1.63,-7 C 54.42,76 43.64,80 37.08,84.17 30.52,88.34 24.5,90.59 22.5,89.83 c -2,-0.76 -3.24,-2 -4,-5 C 17.09,79.25 16,77.09 13.61,75 11.63,73.3 7.76,73.4 6.36,75.1 Z"
           fill="url(#IconifyId17ecdb2904d178eab21131)"
           id="path8"
           style="fill:url(#radialGradient48);stroke-width:0.161781" /><path
           d="M 64.19,80.38 C 63.52,71.22 45.48,76.88 36.27,82.91 24.82,90.41 23.14,89.08 22.02,88.38 20.67,87.54 19.82,86.84 19.16,84.24 17.67,78.36 17.26,76.2 14.58,73.86 12.34,71.79 5.59,71.84 5.14,75.12 4.65,78.65 6.65,79.31 8,86.1 c 1.67,6.88 1,14.48 1,14.48 0,0 3.12,-7.25 0.12,-18.55 -0.61,-3.05 -3.51,-7.72 1.39,-7.19 4.74,0.51 5.05,4.64 6.53,10.35 0.82,3.23 1.66,5.13 4.92,6.03 3.24,0.89 10.73,-3.27 16.11,-6.69 6.59,-4.19 16.36,-7.85 21.49,-6.35 2.22,0.48 3.7,3.35 1.37,5.38 -3.7,3.49 -17.93,5.06 -26.5,14.33 0,0 1.04,0.38 2.6,-0.39 1.57,-0.77 7.43,-3.67 7.43,-3.67 1.75,0.74 2.59,3.65 1.64,5.2 -1.54,2.51 -7.53,5.98 -10.52,5.83 0,0 -0.05,1.53 2.95,1.12 0.95,-0.13 4.88,-0.99 7.63,-3.12 2.05,1.48 1.47,4 -0.07,5.82 -1.53,1.81 -5.27,4.15 -9.12,4.56 0,0 -0.38,1.46 2.21,1.43 2.59,-0.03 5.4,-1.35 7.47,-2.96 0.31,0.49 0.6,1.56 0.25,3.03 -0.54,2.27 -3.59,4.57 -9.48,5.85 -5.43,1.18 -11.55,2.01 -23.36,-4.12 0,0 4.41,5.73 15.92,6.75 11.04,0.98 23.93,-3.91 18.76,-13.72 0,0 1.12,-1.66 1.26,-3.94 0.1,-1.56 -0.39,-3.69 -1.54,-4.66 1.08,-3.18 0.74,-5.38 0.05,-6.68 -0.46,-0.86 -1.62,-1.7 -1.62,-1.7 0,0 2.29,-2.07 9.04,-3.81 4.33,-1.13 8.67,-2.73 8.26,-8.33 z"
           fill="#eb8f00"
           id="path9"
           style="stroke-width:0.161781" /><path
           d="m 18.64,82.13 c 0,0 4.83,7.86 15.47,2.16 0,0 -6.53,6.85 -11.61,5.54 -5.08,-1.31 -3.86,-7.7 -3.86,-7.7 z"
           fill="#eb8f00"
           id="path10"
           style="stroke-width:0.161781" /><path
           d="m 49,95.54 c 0,0 2.46,-5.28 6.94,-6.85 0,0 -7.28,0.62 -10.05,3.61 z"
           fill="#eb8f00"
           id="path11"
           style="stroke-width:0.161781" /></g><g
         id="g18"
         transform="matrix(0.26458333,0,0,0.26458333,298.18541,69.585416)"
         style="stroke-width:0.161781"><g
           fill="#422b0d"
           id="g14"
           style="stroke-width:0.161781"><path
             d="M 76.87,71.31 C 76.55,71.25 76.25,71.12 76,70.91 A 32.924,32.924 0 0 0 60.4,64.05 c -5.71,-0.99 -11.57,-0.45 -17,1.56 -0.3,0.12 -0.62,0.16 -0.94,0.11 -0.7,-0.12 -1.27,-0.64 -1.46,-1.33 -0.19,-0.68 0.04,-1.4 0.58,-1.85 10.6,-8.8 26.32,-7.34 35.12,3.26 0.72,0.87 1.38,1.79 1.98,2.74 0.38,0.59 0.38,1.35 0,1.94 -0.39,0.61 -1.1,0.93 -1.81,0.83 z"
             id="path12"
             style="stroke-width:0.161781" /><path
             d="m 80.77,31.11 c 4.19,0 8,3.54 8,9.42 0,5.88 -3.81,9.41 -8,9.41 -4.19,0 -8,-3.54 -8,-9.41 0,-5.87 3.81,-9.42 8,-9.42 z"
             id="path13"
             style="stroke-width:0.161781" /><path
             d="m 46.14,22 c -4.19,0 -8,3.54 -8,9.41 0,5.87 3.81,9.42 8,9.42 4.2,0 8,-3.54 8,-9.42 0,-5.88 -3.8,-9.41 -8,-9.41 z"
             id="path14"
             style="stroke-width:0.161781" /></g><path
           d="M 39.73,10.63 C 39.28,9.89 39.22,8.97 39.57,8.18 c 0.38,-0.79 1.13,-1.33 2,-1.44 5.45,-0.85 11.01,0.44 15.53,3.59 1.69,1.16 3.19,2.56 4.46,4.17 0.08,0.1 0.15,0.21 0.22,0.33 0.68,1.06 0.45,2.46 -0.53,3.25 A 2.75,2.75 0 0 1 57.65,18 l 0.42,-0.68 -0.51,0.6 A 25.46,25.46 0 0 0 42,12 c -0.95,0 -1.83,-0.5 -2.31,-1.32 z"
           fill="#422b0d"
           id="path15"
           style="stroke-width:0.161781" /><path
           d="m 93,28.52 a 2.65,2.65 0 0 0 1.34,-2 2.59,2.59 0 0 0 -1,-2.24 C 89.01,20.83 83.51,19.18 78,19.7 c -2.04,0.17 -4.04,0.65 -5.94,1.42 l -0.36,0.17 c -1.11,0.59 -1.6,1.92 -1.14,3.09 a 2.743,2.743 0 0 0 3.15,1.7 v -0.8 l 0.14,0.78 c 5.6,-1.04 11.39,-0.17 16.44,2.47 0.83,0.47 1.84,0.47 2.67,0 z"
           fill="#422b0d"
           id="path16"
           style="stroke-width:0.161781" /><path
           d="m 45.96,25.15 c -1.03,-0.72 -2.58,-0.49 -3.58,0.95 -1,1.45 -0.67,2.97 0.36,3.69 1.03,0.72 2.58,0.49 3.58,-0.95 1,-1.45 0.67,-2.97 -0.36,-3.69 z"
           fill="#896024"
           id="path17"
           style="stroke-width:0.161781" /><path
           d="m 80.57,33.71 c -1.03,-0.72 -2.58,-0.49 -3.58,0.95 -1,1.45 -0.67,2.97 0.36,3.69 1.03,0.72 2.58,0.49 3.58,-0.95 1.01,-1.45 0.68,-2.97 -0.36,-3.69 z"
           fill="#896024"
           id="path18"
           style="stroke-width:0.161781" /></g></g><g
       id="SVGRepo_bgCarrier"
       stroke-width="0"
       transform="matrix(1.3074066,0,0,1.3074066,306.55699,115.99516)" /><g
       id="SVGRepo_tracerCarrier"
       stroke-linecap="round"
       stroke-linejoin="round"
       transform="matrix(1.3074066,0,0,1.3074066,306.55699,115.99516)"
       style="stroke-width:0.202373" /><g
       id="SVGRepo_bgCarrier-6"
       stroke-width="0"
       transform="matrix(2.081408,0,0,2.081408,221.08562,153.88133)" /><g
       id="SVGRepo_tracerCarrier-2"
       stroke-linecap="round"
       stroke-linejoin="round"
       transform="matrix(2.081408,0,0,2.081408,221.08562,153.88133)"
       style="stroke-width:0.127117" /><g
       id="g51"><g
         id="g7"
         transform="translate(14.407821,-32.101279)"><path
           d="m 149.12969,183.18967 -8.55527,-14.85291 4.51528,-7.59149 c 0.36087,-0.63372 0.36087,-1.41708 0,-2.0508 l -4.51528,-7.59149 c -0.22885,-0.40928 -0.66453,-0.66453 -1.14423,-0.66453 h -16.67927 l -3.84635,-6.73332 c -0.22885,-0.40928 -0.66453,-0.66453 -1.14423,-0.66453 H 108.853 c -0.4797,0 -0.91538,0.25525 -1.14423,0.66453 l -8.555272,14.84851 h -8.907346 c -0.479694,0 -0.915379,0.25525 -1.144224,0.66453 l -4.515285,7.59149 c -0.360871,0.63372 -0.360871,1.41708 0,2.0508 l 7.639897,13.7791 -3.846354,6.73332 c -0.36087,0.63373 -0.36087,1.41708 0,2.0508 l 4.515285,7.59149 c 0.228845,0.40928 0.66453,0.66453 1.144224,0.66453 h 16.679265 l 3.84636,6.73332 c 0.22884,0.40928 0.66453,0.66453 1.14422,0.66453 h 8.90735 c 0.47969,0 0.91538,-0.25525 1.14422,-0.66453 l 8.55528,-14.84851 h 7.6399 c 0.47969,0 0.91538,-0.25525 1.14422,-0.66453 l 4.51529,-7.59149 c 0.36087,-0.63372 0.36087,-1.41707 0,-2.0508 z"
           fill="url(#paint0_radial)"
           id="path1"
           style="fill:url(#radialGradient49);stroke-width:0.264583" /><path
           d="m 124.61689,207.07755 h -8.90735 l -4.99058,-8.06238 H 94.039695 l 5.113803,-8.06238 h 8.555272 L 89.101928,159.66266 h 10.05157 l 9.699502,-15.95753 4.51528,8.06238 -4.51528,7.89515 h 34.44995 l -4.51528,7.59149 8.55527,14.84851 h -8.55527 l -4.47128,-7.89515 -17.59465,32.87004 z"
           fill="#ffffff"
           id="path2"
           style="stroke-width:0.264583" /><path
           d="m 128.46324,170.46238 h -22.76126 l 11.01976,18.60684 z"
           fill="url(#paint1_radial)"
           id="path3"
           style="fill:url(#radialGradient50);stroke-width:0.264583" /></g><g
         id="g50"><path
           style="opacity:1;fill:#ffffff;stroke-width:1.32292;stroke-linecap:square;stroke-linejoin:round"
           d="m 261.79037,117.24115 -6.22914,-3.5317 c 0,0 -7.20243,-0.94549 -7.31366,-0.94549 -0.11124,0 -4.8387,2.55839 -4.8387,2.55839 0,0 -2.39154,3.5317 -2.44716,3.64294 -0.0556,0.11123 -2.16907,3.53169 -2.16907,3.53169 l -4.44938,2.39154 -5.00556,3.19799 -3.30922,4.06006 0.27809,4.17129 1.77975,8.78753 2.72524,5.20021 -1.75194,3.64293 1.55728,4.36595 3.92102,6.59065 c 0,0 6.89654,3.05895 7.03558,3.08676 0.13904,0.0278 6.77386,-1.40009 6.77386,-1.40009 l 2.72741,3.92065 c 0,0 9.32516,1.73415 9.4364,1.73415 0.11123,0 9.78864,-6.09008 9.78864,-6.09008 l 1.36261,-3.72636 6.97997,-2.19688 c 0,0 4.4772,-6.47941 4.53281,-6.67407 0.0556,-0.19466 -0.66741,-12.18018 -0.66741,-12.29141 0,-0.11124 -1.08452,-3.97663 -1.16797,-4.58842 -0.0834,-0.61179 -0.63958,-4.8387 -0.63958,-5.45049 0,-0.61179 -5.56173,-11.98552 -5.56173,-11.98552 0,0 -5.50611,-0.69522 -5.86764,-0.75083 -0.3615,-0.0556 -7.20242,-0.0556 -7.20242,-0.0556 z"
           id="path50" /><path
           d="m 282.57668,137.04607 a 16.009661,16.009661 0 0 0 -1.37955,-13.13687 16.17418,16.17418 0 0 0 -17.41436,-7.75779 16.224739,16.224739 0 0 0 -27.48851,5.80898 16.009661,16.009661 0 0 0 -10.69424,7.75778 16.17418,16.17418 0 0 0 1.9868,18.98411 15.997088,15.997088 0 0 0 1.36697,13.1366 16.18702,16.18702 0 0 0 17.4272,7.75805 16.009661,16.009661 0 0 0 12.06095,5.37909 16.199593,16.199593 0 0 0 15.44013,-11.25093 16.022234,16.022234 0 0 0 10.69424,-7.75805 16.199593,16.199593 0 0 0 -1.99963,-18.9207 z m -24.13474,33.72791 a 11.972403,11.972403 0 0 1 -7.69466,-2.78425 l 0.3796,-0.21507 12.78242,-7.37846 a 2.1261682,2.1261682 0 0 0 1.05051,-1.82254 v -18.02187 l 5.4037,3.12612 a 0.18993199,0.18993199 0 0 1 0.10166,0.1391 v 14.934 a 12.048643,12.048643 0 0 1 -12.02323,12.02297 z m -25.84333,-11.03585 a 11.95983,11.95983 0 0 1 -1.4301,-8.06195 l 0.37986,0.22792 12.795,7.37846 a 2.0630359,2.0630359 0 0 0 2.08818,0 l 15.63006,-9.01107 v 6.2394 a 0.21507791,0.21507791 0 0 1 -0.0888,0.16452 l -12.94694,7.467 a 12.035803,12.035803 0 0 1 -16.42725,-4.40428 z m -3.36634,-27.84296 a 11.997816,11.997816 0 0 1 6.32795,-5.27744 v 15.18707 a 2.0501954,2.0501954 0 0 0 1.03767,1.80971 l 15.55409,8.97308 -5.40397,3.12585 a 0.20250495,0.20250495 0 0 1 -0.18993,0 l -12.92153,-7.45416 a 12.048643,12.048643 0 0 1 -4.40428,-16.42725 z m 44.39674,10.31464 -15.60466,-9.06163 5.3914,-3.11381 a 0.20250495,0.20250495 0 0 1 0.18993,0 l 12.92153,7.467 a 12.022962,12.022962 0 0 1 -1.80971,21.67953 v -15.18707 a 2.1133277,2.1133277 0 0 0 -1.08876,-1.78429 z m 5.37882,-8.08709 -0.37987,-0.22792 -12.76958,-7.44159 a 2.0756088,2.0756088 0 0 0 -2.10102,0 l -15.61696,9.01081 v -6.23914 a 0.17709151,0.17709151 0 0 1 0.076,-0.16451 l 12.92153,-7.45443 a 12.035803,12.035803 0 0 1 17.87019,12.46595 z m -33.81673,11.06073 -5.40369,-3.11328 a 0.21507791,0.21507791 0 0 1 -0.10166,-0.15168 v -14.89575 a 12.035803,12.035803 0 0 1 19.73073,-9.23898 l -0.37987,0.21534 -12.78215,7.37792 a 2.1261682,2.1261682 0 0 0 -1.05051,1.82255 z m 2.93619,-6.32768 6.96061,-4.01211 6.97371,4.01211 v 8.02369 l -6.9483,4.01185 -6.97318,-4.01185 z"
           id="path1-2"
           style="stroke-width:0.264582" /></g><g
         id="Icons"
         stroke="none"
         stroke-width="0.193916"
         fill="none"
         fill-rule="evenodd"
         transform="matrix(1.3644238,0,0,1.3644238,346.3141,110.21162)"><g
           id="Color-"
           transform="translate(-401,-860)"
           style="stroke-width:0.193916"><g
             id="Google"
             transform="translate(401,860)"
             style="stroke-width:0.193916"><path
               d="m 9.8272727,24 c 0,-1.524267 0.2531593,-2.9856 0.7050003,-4.356267 L 2.6234546,13.604267 C 1.0820682,16.733867 0.21363636,20.260267 0.21363636,24 c 0,3.736533 0.86736364,7.2608 2.40661364,10.388267 l 7.904546,-6.0512 C 10.077227,26.9728 9.8272727,25.5168 9.8272727,24"
               id="Fill-1"
               fill="#fbbc05"
               style="stroke-width:0.193916" /><path
               d="m 23.713636,10.133333 c 3.311364,0 6.302273,1.173334 8.652273,3.093334 L 39.202273,6.4 C 35.036364,2.7733333 29.695454,0.53333333 23.713636,0.53333333 c -9.286772,0 -17.2682269,5.31093337 -21.0901814,13.07093367 l 7.9088184,6.039466 c 1.822318,-5.531733 7.016886,-9.5104 13.181363,-9.5104"
               id="Fill-2"
               fill="#eb4335"
               style="stroke-width:0.193916" /><path
               d="m 23.713636,37.866667 c -6.164477,0 -11.359045,-3.978667 -13.181363,-9.5104 l -7.9088184,6.0384 c 3.8219545,7.761066 11.8034094,13.072 21.0901814,13.072 5.731864,0 11.204159,-2.0352 15.311318,-5.848534 L 31.517773,35.8144 c -2.118205,1.3344 -4.785455,2.052267 -7.804137,2.052267"
               id="Fill-3"
               fill="#34a853"
               style="stroke-width:0.193916" /><path
               d="m 46.145454,24 c 0,-1.386667 -0.213636,-2.88 -0.53409,-4.266667 H 23.713636 V 28.8 h 12.604546 c -0.630228,3.0912 -2.345728,5.467733 -4.800409,7.0144 l 7.507181,5.803733 C 43.339341,37.613867 46.145454,31.649067 46.145454,24"
               id="Fill-4"
               fill="#4285f4"
               style="stroke-width:0.193916" /></g></g></g></g></g></svg>
