<?xml version="1.0" encoding="UTF-8" standalone="no"?>
<!-- Created with Inkscape (http://www.inkscape.org/) -->

<svg
   width="1920"
   height="1080"
   viewBox="0 0 507.99999 285.75"
   version="1.1"
   id="svg1"
   inkscape:version="1.4.2 (ebf0e940d0, 2025-05-08)"
   xml:space="preserve"
   sodipodi:docname="grub_menu.svg"
   inkscape:export-filename="gnu_grub.jpg"
   inkscape:export-xdpi="96"
   inkscape:export-ydpi="96"
   xmlns:inkscape="http://www.inkscape.org/namespaces/inkscape"
   xmlns:sodipodi="http://sodipodi.sourceforge.net/DTD/sodipodi-0.dtd"
   xmlns="http://www.w3.org/2000/svg"
   xmlns:svg="http://www.w3.org/2000/svg"><sodipodi:namedview
     id="namedview1"
     pagecolor="#ffffff"
     bordercolor="#000000"
     borderopacity="0.25"
     inkscape:showpageshadow="2"
     inkscape:pageopacity="0.0"
     inkscape:pagecheckerboard="0"
     inkscape:deskcolor="#d1d1d1"
     inkscape:document-units="px"
     showguides="true"
     inkscape:zoom="0.44809906"
     inkscape:cx="639.36755"
     inkscape:cy="748.71837"
     inkscape:window-width="2560"
     inkscape:window-height="1371"
     inkscape:window-x="0"
     inkscape:window-y="0"
     inkscape:window-maximized="1"
     inkscape:current-layer="layer1"><sodipodi:guide
       position="-429.36381,-194.92911"
       orientation="1,0"
       id="guide13"
       inkscape:locked="false" /></sodipodi:namedview><defs
     id="defs1" /><g
     inkscape:label="Layer 1"
     inkscape:groupmode="layer"
     id="layer1"><rect
       style="opacity:1;fill:#000000;fill-opacity:1;stroke-width:0.458523;stroke-linejoin:round"
       id="rect1"
       width="508"
       height="285.75"
       x="0"
       y="0" /><path
       style="font-size:5.05023px;line-height:1;font-family:'Perfect DOS VGA 437';-inkscape-font-specification:'Perfect DOS VGA 437, ';text-align:center;letter-spacing:0px;text-anchor:middle;white-space:pre;fill:#ffffff;stroke-width:1.6834;stroke-linejoin:round"
       d="m 225.43464,18.204655 h 1.26256 v 1.578197 h -0.31564 v -0.315639 h -0.31564 v -0.946918 h -0.63128 z m 0.63128,-1.262557 h -0.63128 v 0.315639 H 225.119 v 1.893836 h 0.31564 v 0.31564 h 0.63128 v 0.315639 H 225.119 v -0.315639 h -0.31564 v -0.31564 h -0.31564 v -1.893836 h 0.31564 v -0.315639 h 0.31564 v -0.31564 h 1.26256 v 0.31564 h 0.31564 v 0.631279 h -0.31564 v -0.31564 h -0.31564 z m 2.52511,1.262557 h -0.31564 v -0.315639 h -0.31563 v 1.893836 h -0.63128 v -3.156394 h 0.63128 v 0.31564 h 0.31563 v 0.315639 h 0.31564 v 0.31564 h 0.31564 v -0.946919 h 0.63128 v 3.156394 h -0.63128 v -1.262557 h -0.31564 z m 1.5782,-1.578197 h 0.63128 v 2.840755 h 0.94692 v -2.840755 h 0.63128 v 2.840755 h -0.31564 v 0.315639 h -1.5782 v -0.315639 h -0.31564 z m 6.62843,1.578197 h 1.26256 v 1.578197 h -0.31564 v -0.315639 h -0.31564 v -0.946918 h -0.63128 z m 0.63128,-1.262557 h -0.63128 v 0.315639 h -0.31564 v 1.893836 h 0.31564 v 0.31564 h 0.63128 v 0.315639 h -0.94692 v -0.315639 h -0.31564 v -0.31564 h -0.31564 v -1.893836 h 0.31564 v -0.315639 h 0.31564 v -0.31564 h 1.26256 v 0.31564 h 0.31564 v 0.631279 h -0.31564 v -0.31564 h -0.31564 z m 2.84075,0 h -0.63128 v 0.946918 h 0.63128 z m 0,1.578197 h -0.31564 v -0.31564 h -0.31564 v 1.578197 h -0.94692 v -0.315639 h 0.31564 v -2.525115 h -0.31564 v -0.31564 h 1.89384 v 0.31564 h 0.31564 v 0.946918 h -0.31564 v 0.631279 h 0.31564 v 1.262557 h -0.63128 z m 1.26256,-1.893837 h 0.63128 v 2.840755 h 0.94692 v -2.840755 h 0.63127 v 2.840755 h -0.31563 v 0.315639 h -1.5782 v -0.315639 h -0.31564 z m 3.78767,1.262558 h 0.63128 v -0.946918 h -0.63128 z m 0.63128,0.315639 h -0.63128 v 1.262558 h 0.63128 z m -1.5782,1.262558 h 0.31564 V 16.942098 H 244.373 v -0.31564 h 1.89384 v 0.31564 h 0.31564 v 0.946918 h -0.31564 v 0.315639 h 0.31564 v 1.262558 h -0.31564 v 0.315639 H 244.373 Z m 7.25971,-1.893836 h 0.63128 v 1.578196 h -0.31564 v 0.31564 h -0.31564 v 0.315639 h -0.94692 v -0.315639 h -0.31564 v -0.31564 h -0.31564 v -1.578196 h 0.63128 v 1.578196 h 0.31564 v 0.31564 h 0.31564 v -0.31564 h 0.31564 z m 1.89384,0.631278 h 0.94691 v -0.315639 h -0.94691 z m -0.31564,-0.631278 h 1.57819 v 0.315639 h 0.31564 v 0.631279 h -1.57819 v 0.946918 h 0.94691 v -0.31564 h 0.63128 v 0.31564 h -0.31564 v 0.315639 h -1.57819 v -0.315639 h -0.31564 v -1.578197 h 0.31564 z m 3.78767,0.631278 h -0.31564 v 1.262558 h 0.31564 v 0.315639 h -1.26256 v -0.315639 h 0.31564 v -1.578197 h -0.31564 v -0.315639 h 0.63128 v 0.315639 h 0.31564 v -0.315639 h 0.94692 v 0.315639 h 0.31564 v 0.631279 h -0.63128 v -0.631279 h -0.31564 z m 3.15639,-0.315639 h -0.94691 v 0.315639 h 0.31563 v 0.31564 h 0.63128 v 0.315639 h 0.31564 v 0.315639 h 0.31564 v 0.31564 h -0.31564 v 0.315639 h -1.57819 v -0.315639 h -0.31564 v -0.31564 h 0.63128 v 0.31564 h 0.94691 v -0.31564 h -0.31564 v -0.315639 h -0.63127 v -0.315639 h -0.31564 v -0.31564 h -0.31564 v -0.315639 h 0.31564 v -0.315639 h 1.57819 v 0.315639 h 0.31564 v 0.315639 h -0.63128 z m 2.20948,-1.262558 h 0.63128 v 0.631279 h -0.63128 z m -0.31564,0.946919 h 0.94692 v 1.893836 h 0.31564 v 0.315639 h -1.26256 v -0.315639 h 0.31564 v -1.578197 h -0.31564 z m 3.78767,0.315639 h -0.94692 v 1.578197 h 0.94692 z m -1.26256,1.578197 h -0.31564 v -1.578197 h 0.31564 v -0.315639 h 1.5782 v 0.315639 h 0.31564 v 1.578197 h -0.31564 v 0.315639 h -1.5782 z m 2.84076,-1.578197 h -0.31564 v -0.315639 h 0.63128 v 0.315639 h 0.31564 v 1.893836 h -0.63128 z m 0.63128,-0.315639 h 0.94692 v 0.315639 h 0.31563 v 1.893836 h -0.63127 v -1.893836 h -0.63128 z m 4.73459,1.262557 h 0.31564 v -0.315639 h 0.31564 v -0.31564 h 0.31564 v -0.315639 h 0.31564 v -0.315639 h 0.31564 v -0.631279 h -0.94692 v 0.315639 h -0.63128 v -0.315639 h 0.31564 v -0.31564 h 1.5782 v 0.31564 h 0.31564 v 0.631279 h -0.31564 v 0.315639 h -0.31564 v 0.315639 h -0.31564 v 0.31564 h -0.31564 v 0.315639 h -0.31564 v 0.631279 h 0.94692 v -0.31564 h 0.63128 v 0.631279 h -2.20948 z m 3.78767,0.315639 h 0.63128 v 0.631279 h -0.63128 z m 2.20948,-1.893836 h 0.31564 v -0.315639 h 0.31564 v -0.31564 h 0.63127 v 2.840755 h 0.63128 v 0.315639 h -1.89383 v -0.315639 h 0.63128 v -1.893836 h -0.63128 z m 2.52511,1.578197 h 0.31564 v -0.315639 h 0.31564 v -0.31564 h 0.31564 v -0.315639 h 0.31564 v -0.315639 h 0.31564 v -0.631279 h -0.94692 v 0.315639 h -0.63128 v -0.315639 h 0.31564 v -0.31564 h 1.5782 v 0.31564 h 0.31564 v 0.631279 h -0.31564 v 0.315639 h -0.31564 v 0.315639 h -0.31564 v 0.31564 h -0.31564 v 0.315639 h -0.31564 v 0.631279 h 0.94692 v -0.31564 h 0.63128 v 0.631279 h -2.20948 z"
       id="text140"
       aria-label="GNU GRUB version 2.12" /><rect
       style="fill:#000000;stroke:#ffffff;stroke-width:0.768054;stroke-linejoin:round;stroke-dasharray:none"
       id="rect2"
       width="478.29605"
       height="225.54906"
       x="14.851974"
       y="30.10047" /><path
       style="fill:#ffffff;stroke:none;stroke-width:0.794266;stroke-linejoin:round;stroke-dasharray:none"
       d="m 17.578036,35.777426 v 7.160541 H 490.42196 v -7.160541 z"
       id="path10" /><path
       style="font-size:5.05023px;line-height:1;font-family:'Perfect DOS VGA 437';-inkscape-font-specification:'Perfect DOS VGA 437, ';letter-spacing:0px;white-space:pre;stroke-width:1.6834;stroke-linejoin:round"
       d="m 20.822308,37.530893 h 0.631278 v 2.840754 h 0.946918 v -2.840754 h 0.631279 v 2.840754 h -0.315639 v 0.315639 h -1.578197 v -0.315639 h -0.315639 z m 4.103312,1.262557 h -0.31564 v 1.578197 h 0.631279 V 39.109089 H 24.92562 Z m -0.31564,-0.315639 h 0.631279 v 0.315639 h 0.315639 v 0.315639 h 0.31564 v 1.262558 h -0.31564 v 0.315639 h -1.578197 v -2.840754 h -0.315639 v -0.315639 h 0.946918 z m 3.156394,0 h 0.631279 v 1.893836 h 0.315639 v 0.315639 h -0.631279 v -0.315639 h -0.315639 z m -1.262557,0 h 0.631278 v 1.893836 h 0.631279 v 0.315639 h -0.946918 v -0.315639 h -0.315639 z m 3.156393,0.315639 h -0.315639 v -0.315639 h 0.631279 v 0.315639 h 0.315639 v 1.893836 H 29.66021 Z m 0.631279,-0.315639 h 0.946918 v 0.315639 h 0.31564 v 1.893836 H 30.922768 V 38.79345 h -0.631279 z m 1.893837,0 h 0.631278 v -0.631279 h 0.31564 v -0.315639 h 0.315639 v 0.946918 h 0.631279 v 0.315639 h -0.631279 v 1.578197 h 0.31564 v -0.315639 h 0.631278 v 0.315639 h -0.315639 v 0.315639 h -0.946918 v -0.315639 h -0.31564 V 38.79345 h -0.631278 z m 4.103312,0 h 0.631278 v 1.893836 h 0.31564 v 0.315639 h -0.631279 v -0.315639 h -0.315639 z m -1.262558,0 h 0.631279 v 1.893836 h 0.631279 v 0.315639 H 35.34172 v -0.315639 h -0.31564 z"
       id="text2"
       aria-label="Ubuntu" /><path
       style="font-size:5.05023px;line-height:1;font-family:'Perfect DOS VGA 437';-inkscape-font-specification:'Perfect DOS VGA 437, ';letter-spacing:0px;white-space:pre;fill:#ffffff;stroke-width:1.6834;stroke-linejoin:round"
       d="m 22.084865,45.845597 h -0.315639 v 0.31564 h -0.31564 v 0.631278 h 0.946918 v -0.631278 h -0.315639 z m 0.315639,2.525115 v -1.262557 h -0.946918 v 1.262557 h -0.631278 v -2.209475 h 0.315639 v -0.31564 h 0.315639 v -0.315639 h 0.31564 v -0.315639 h 0.315639 v 0.315639 h 0.315639 v 0.315639 h 0.31564 v 0.31564 h 0.315639 v 2.209475 z m 2.525116,-1.893836 h -0.31564 v 0.315639 h -0.315639 v 1.262558 h 0.628813 l 0.0025,0.0025 v 0.313173 h -0.946919 v -0.315639 h -0.315639 v -1.262558 h 0.315639 v -0.315639 h 0.31564 v -0.315639 h 0.631279 v -0.631279 h -0.31564 v -0.315639 h 0.946918 v 2.840754 h 0.31564 v 0.315639 H 25.241259 V 48.055073 H 24.92562 Z m 3.156393,-0.315639 h 0.631279 v 1.578197 h -0.315639 v 0.315639 h -0.31564 v 0.315639 h -0.946918 v -0.315639 h -0.315639 v -0.315639 h -0.315639 v -1.578197 h 0.631278 v 1.578197 h 0.31564 v 0.315639 h 0.315639 v -0.315639 h 0.315639 z m 2.525116,2.209475 H 29.66021 v -0.315639 h -0.315639 v -0.946918 h 0.315639 v -0.31564 h 0.946919 V 46.476876 H 29.66021 v -0.315639 h 1.262558 v 0.315639 h 0.315639 v 1.578197 h 0.31564 v 0.315639 h -0.631279 v -0.315639 h -0.313173 l -0.0025,-0.0025 V 47.108155 H 29.97585 v 0.946918 h 0.631279 z m 1.893836,-1.893836 h -0.315639 v -0.315639 h 0.631278 v 0.315639 h 0.31564 v 1.893836 h -0.631279 z m 0.631279,-0.315639 h 0.946918 v 0.315639 h 0.315639 v 1.893836 h -0.631278 v -1.893836 h -0.631279 z m 3.472033,0.315639 h -0.946918 v 1.578197 h 0.946918 v -0.315639 h 0.631279 v 0.315639 h -0.31564 v 0.315639 H 35.34172 v -0.315639 h -0.31564 v -1.578197 h 0.31564 v -0.315639 h 1.578196 v 0.315639 h 0.31564 v 0.315639 h -0.631279 z m 1.893836,0.315639 h 0.946919 v -0.315639 h -0.946919 z m -0.315639,-0.631278 h 1.578197 v 0.315639 h 0.315639 v 0.631279 h -1.578197 v 0.946918 h 0.946919 v -0.315639 h 0.631278 v 0.315639 h -0.315639 v 0.315639 h -1.578197 v -0.315639 h -0.315639 v -1.578197 h 0.315639 z m 3.787672,0.315639 h -0.31564 v 0.315639 h -0.315639 v 1.262558 h 0.628813 l 0.0025,0.0025 v 0.313173 h -0.946918 v -0.315639 h -0.31564 v -1.262558 h 0.31564 v -0.315639 h 0.315639 v -0.315639 h 0.631279 v -0.631279 h -0.31564 v -0.315639 h 0.946918 v 2.840754 h 0.31564 v 0.315639 h -0.631279 v -0.315639 h -0.315639 z m 5.99715,0 h -0.946918 v 1.578197 h 0.946918 z m -1.262558,1.578197 h -0.315639 v -1.578197 h 0.315639 v -0.315639 h 1.578197 v 0.315639 h 0.31564 v 1.578197 h -0.31564 v 0.315639 h -1.578197 z m 3.472033,-1.893836 h 0.946918 v 0.315639 h 0.315639 v 1.578197 h -0.315639 v 0.315639 h -0.946918 v 0.631279 h 0.315639 v 0.315639 h -1.262557 v -0.315639 h 0.315639 v -2.525115 h -0.315639 v -0.315639 h 0.631278 v 0.315639 h 0.313174 l 0.0025,0.0025 v 1.575731 h 0.631279 v -1.578197 h -0.631279 z m 1.893835,0 h 0.631279 v -0.631279 h 0.315639 v -0.315639 h 0.31564 v 0.946918 h 0.631278 v 0.315639 h -0.631278 v 1.578197 h 0.315639 v -0.315639 h 0.631279 v 0.315639 h -0.31564 v 0.315639 h -0.946918 v -0.315639 h -0.315639 v -1.578197 h -0.631279 z m 3.787674,-0.946918 h 0.631279 v 0.631278 H 55.85828 Z m -0.31564,0.946918 h 0.946919 v 1.893836 h 0.315639 v 0.315639 H 55.54264 v -0.315639 h 0.31564 v -1.578197 h -0.31564 z m 3.787674,0.315639 h -0.946918 v 1.578197 h 0.946918 z m -1.262557,1.578197 h -0.31564 v -1.578197 h 0.31564 v -0.315639 h 1.578196 v 0.315639 h 0.31564 v 1.578197 h -0.31564 v 0.315639 h -1.578196 z m 2.840751,-1.578197 h -0.315639 v -0.315639 h 0.631279 v 0.315639 h 0.315639 v 1.893836 h -0.631279 z m 0.631279,-0.315639 h 0.946918 v 0.315639 h 0.315639 v 1.893836 h -0.631278 v -1.893836 h -0.631279 z m 3.472034,0.315639 h -0.946918 v 0.315639 h 0.315639 v 0.31564 h 0.631279 v 0.315639 h 0.31564 v 0.31564 H 65.6431 v 0.315639 h -0.315639 v 0.315639 h -1.578197 v -0.315639 h -0.31564 v -0.315639 h 0.631279 v 0.315639 h 0.946918 v -0.315639 h -0.315639 v -0.31564 h -0.631279 v -0.315639 h -0.315639 v -0.31564 h -0.31564 v -0.315639 h 0.31564 v -0.315639 h 1.578197 v 0.315639 H 65.6431 v 0.315639 h -0.631279 z m 4.418954,0 h 0.315639 v -0.946918 h 0.315639 v -0.315639 h 0.946918 v 0.315639 h 0.31564 v 0.631279 h -0.31564 v -0.31564 h -0.315639 v -0.315639 h -0.315639 v 0.946918 h 0.315639 v 0.315639 h -0.315639 v 1.262558 h 0.315639 v 0.315639 h -1.262557 v -0.315639 h 0.315639 v -1.262558 h -0.315639 z m 4.103313,0 h -0.946919 v 1.578197 h 0.946919 z m -1.262558,1.578197 h -0.315639 v -1.578197 h 0.315639 v -0.315639 h 1.578197 v 0.315639 h 0.315639 v 1.578197 h -0.315639 v 0.315639 H 72.27153 Z m 3.78767,-1.262558 h -0.31564 v 1.262558 h 0.31564 v 0.315639 h -1.262558 v -0.315639 h 0.31564 v -1.578197 h -0.31564 v -0.315639 h 0.631279 v 0.315639 h 0.315639 v -0.315639 h 0.946919 v 0.315639 h 0.315639 v 0.631279 H 76.374839 V 46.476876 H 76.0592 Z m 4.418953,-1.578196 h 0.631279 v 2.840754 h 0.946918 v -2.840754 h 0.631279 v 2.840754 h -0.31564 v 0.315639 h -1.578196 v -0.315639 h -0.31564 z m 4.103309,1.262557 h -0.315639 v 1.578197 h 0.631279 v -1.262558 h -0.31564 z m -0.315639,-0.315639 h 0.631279 v 0.315639 h 0.315639 v 0.315639 h 0.31564 v 1.262558 h -0.31564 v 0.315639 h -1.578197 v -2.840754 h -0.315639 v -0.315639 h 0.946918 z m 3.156399,0 H 88.0535 v 1.893836 h 0.31564 v 0.315639 h -0.631279 v -0.315639 h -0.315639 z m -1.262558,0 h 0.631279 v 1.893836 h 0.631279 v 0.315639 h -0.946918 v -0.315639 h -0.31564 z m 3.156391,0.315639 h -0.315639 v -0.315639 h 0.631279 v 0.315639 h 0.315639 v 1.893836 h -0.631279 z m 0.631279,-0.315639 h 0.946918 v 0.315639 h 0.315639 v 1.893836 h -0.631278 v -1.893836 h -0.631279 z m 1.893833,0 h 0.631279 v -0.631279 h 0.31564 v -0.315639 h 0.315639 v 0.946918 h 0.631279 v 0.315639 h -0.631279 v 1.578197 h 0.315639 v -0.315639 h 0.631279 v 0.315639 h -0.315639 v 0.315639 h -0.946918 v -0.315639 h -0.31564 v -1.578197 h -0.631279 z m 4.103317,0 h 0.631279 v 1.893836 h 0.315639 v 0.315639 h -0.631278 v -0.315639 h -0.31564 z m -1.262557,0 h 0.631278 v 1.893836 h 0.631279 v 0.315639 h -0.946918 v -0.315639 h -0.315639 z"
       id="text3"
       aria-label="Advanced options for Ubuntu" /><path
       style="font-size:5.05023px;line-height:1;font-family:'Perfect DOS VGA 437';-inkscape-font-specification:'Perfect DOS VGA 437, ';letter-spacing:0px;white-space:pre;fill:#ffffff;stroke-width:1.6834;stroke-linejoin:round"
       d="m 22.084865,55.422864 h -0.315639 v -0.31564 h -0.31564 v 1.893836 h -0.631278 v -3.156393 h 0.631278 v 0.315639 h 0.31564 v 0.315639 h 0.315639 v -0.315639 h 0.315639 v -0.315639 h 0.631279 v 3.156393 h -0.631279 v -1.893836 h -0.315639 z m 2.209476,0 h 0.946918 v -0.31564 h -0.946918 z m -0.31564,-0.631279 h 1.578197 v 0.315639 h 0.31564 v 0.631279 h -1.578197 v 0.946918 h 0.946918 v -0.315639 h 0.631279 v 0.315639 h -0.31564 v 0.315639 h -1.578197 v -0.315639 h -0.315639 v -1.578197 h 0.315639 z m 4.103312,0.631279 h -0.315639 v 1.262557 h -0.315639 v -1.262557 h -0.31564 v 1.578196 h -0.631278 v -2.209475 h 0.946918 v 0.315639 h 0.315639 v -0.315639 h 0.631279 v 0.315639 h 0.315639 v 1.893836 h -0.631279 z m 2.840755,-0.31564 H 29.97585 v 1.578197 h 0.946918 z m -1.262558,1.578197 h -0.315639 v -1.578197 h 0.315639 v -0.315639 h 1.578197 v 0.315639 h 0.31564 v 1.578197 h -0.31564 V 57.00106 H 29.66021 Z m 3.787673,-1.262557 h -0.315639 v 1.262557 h 0.315639 v 0.315639 h -1.262557 v -0.315639 h 0.315639 v -1.578197 h -0.315639 v -0.315639 h 0.631278 v 0.315639 h 0.31564 v -0.315639 h 0.946918 v 0.315639 h 0.315639 v 0.631279 h -0.631278 v -0.631279 h -0.31564 z m 1.578197,2.209475 h 1.262558 V 57.3167 h 0.315639 V 57.00106 H 35.34172 v -0.315639 h -0.31564 v -1.893836 h 0.631279 v 1.893836 h 0.946918 v -1.893836 h 0.631279 V 57.3167 h -0.31564 v 0.315639 h -0.315639 v 0.31564 H 35.02608 Z m 5.681508,-2.840754 h 0.631279 v -0.631279 h 0.315639 v -0.315639 h 0.31564 v 0.946918 h 0.631278 v 0.315639 h -0.631278 v 1.578197 h 0.315639 v -0.315639 h 0.631279 v 0.315639 h -0.31564 v 0.315639 h -0.946918 v -0.315639 h -0.315639 v -1.578197 h -0.631279 z m 3.472034,0.631279 h 0.946919 v -0.31564 h -0.946919 z m -0.315639,-0.631279 h 1.578197 v 0.315639 h 0.315639 v 0.631279 h -1.578197 v 0.946918 h 0.946919 v -0.315639 h 0.631278 v 0.315639 H 45.44218 v 0.315639 h -1.578197 v -0.315639 h -0.315639 v -1.578197 h 0.315639 z m 4.103313,0.315639 h -0.946918 v 0.31564 h 0.315639 v 0.315639 h 0.631279 v 0.315639 h 0.315639 v 0.31564 h 0.31564 v 0.315639 h -0.31564 v 0.315639 h -1.578197 v -0.315639 h -0.315639 v -0.315639 h 0.631279 v 0.315639 h 0.946918 v -0.315639 h -0.315639 v -0.31564 h -0.631279 v -0.315639 h -0.31564 v -0.315639 h -0.315639 v -0.31564 h 0.315639 v -0.315639 h 1.578197 v 0.315639 h 0.31564 v 0.31564 h -0.631279 z m 1.262557,-0.315639 h 0.631278 v -0.631279 h 0.31564 v -0.315639 h 0.315639 v 0.946918 h 0.631279 v 0.315639 H 50.49241 v 1.578197 h 0.31564 v -0.315639 h 0.631278 v 0.315639 h -0.315639 v 0.315639 h -0.946918 v -0.315639 h -0.31564 v -1.578197 h -0.631278 z m 6.312787,-0.31564 h 0.31564 v -0.315639 h 0.315639 v -0.315639 h 0.631279 v 0.315639 h -0.315639 v 0.315639 h -0.31564 v 1.893837 h 0.31564 v 0.315639 h 0.315639 V 57.00106 H 56.173919 V 56.685421 H 55.85828 v -0.315639 h -0.31564 z m 3.787674,0.946919 h -0.315639 v 1.262557 h -0.31564 v -1.262557 h -0.315639 v 1.578196 h -0.631279 v -2.209475 h 0.946918 v 0.315639 h 0.31564 v -0.315639 h 0.631278 v 0.315639 h 0.31564 v 1.893836 h -0.631279 z m 1.893834,0 h 0.946918 v -0.31564 h -0.946918 z m -0.31564,-0.631279 h 1.578197 v 0.315639 h 0.315639 v 0.631279 h -1.578196 v 0.946918 h 0.946918 v -0.315639 h 0.631278 v 0.315639 h -0.315639 v 0.315639 h -1.578197 v -0.315639 h -0.315639 v -1.578197 h 0.315639 z m 4.103313,0.631279 h -0.315639 v 1.262557 h -0.31564 v -1.262557 h -0.315639 v 1.578196 h -0.631279 v -2.209475 h 0.946918 v 0.315639 h 0.31564 v -0.315639 h 0.631279 v 0.315639 H 65.6431 v 1.893836 h -0.631279 z m 1.262559,-0.631279 h 0.631278 v -0.631279 h 0.31564 v -0.315639 h 0.315639 v 0.946918 h 0.631279 v 0.315639 h -0.631279 v 1.578197 h 0.31564 v -0.315639 h 0.631278 v 0.315639 h -0.315639 v 0.315639 h -0.946918 v -0.315639 h -0.31564 V 55.107224 H 66.27438 Z m 3.472034,0.631279 h 0.946918 v -0.31564 h -0.946918 z m -0.315639,-0.631279 h 1.578196 v 0.315639 h 0.31564 v 0.631279 h -1.578197 v 0.946918 h 0.946918 v -0.315639 h 0.631279 v 0.315639 h -0.31564 v 0.315639 h -1.578196 v -0.315639 h -0.31564 v -1.578197 h 0.31564 z m 4.103313,0.315639 h -0.946919 v 0.31564 h 0.31564 v 0.315639 h 0.631279 v 0.315639 h 0.315639 v 0.31564 h 0.315639 v 0.315639 H 73.849727 V 57.00106 H 72.27153 v -0.315639 h -0.315639 v -0.315639 h 0.631278 v 0.315639 h 0.946919 v -0.315639 h -0.31564 v -0.31564 H 72.587169 V 55.738503 H 72.27153 v -0.315639 h -0.315639 v -0.31564 h 0.315639 v -0.315639 h 1.578197 v 0.315639 h 0.315639 v 0.31564 h -0.631278 z m 1.262554,-0.315639 h 0.631279 v -0.631279 h 0.315639 v -0.315639 h 0.31564 v 0.946918 h 0.631279 v 0.315639 H 76.0592 v 1.578197 h 0.315639 v -0.315639 h 0.631279 v 0.315639 H 76.690479 V 57.00106 H 75.74356 v -0.315639 h -0.315639 v -1.578197 h -0.631279 z m 4.418953,-0.631279 h -0.946918 v 0.946918 h 0.946918 z m 0,1.262558 h -0.946918 v 1.262557 h 0.946918 z m -1.578197,0 h 0.315639 v -0.31564 h -0.315639 v -0.946918 h 0.315639 v -0.315639 h 1.578197 v 0.315639 h 0.315639 v 0.946918 h -0.315639 v 0.31564 h 0.315639 v 1.262557 h -0.315639 v 0.315639 h -1.578197 v -0.315639 h -0.315639 z m 4.418952,0 h -0.946918 v 1.262557 h 0.946918 z m -1.262557,-1.262558 h 0.315639 v -0.315639 h 0.946918 v 0.315639 h -0.631279 v 0.315639 h -0.315639 v 0.631279 h 1.262557 v 0.31564 h 0.31564 v 1.262557 h -0.31564 v 0.315639 h -1.578196 v -0.315639 h -0.31564 v -2.209476 h 0.31564 z m 2.840751,1.262558 h 0.631279 v -0.631279 h 0.631279 v 0.631279 h 0.631279 v 0.315639 h -0.631279 v 0.631279 h -0.631279 v -0.631279 h -0.631279 z m 4.103317,0 h -0.946918 v 1.262557 h 0.946918 z m -1.262557,-1.262558 h 0.315639 v -0.315639 h 0.946918 v 0.315639 h -0.631279 v 0.315639 h -0.315639 v 0.631279 H 88.0535 v 0.31564 h 0.31564 v 1.262557 H 88.0535 v 0.315639 h -1.578196 v -0.315639 h -0.31564 v -2.209476 h 0.31564 z m 3.156391,1.262558 h 0.631278 v -0.631279 h -0.315639 v 0.315639 h -0.315639 z m 1.578196,0 v 0.315639 h -0.315639 v 0.946918 h 0.315639 v 0.315639 h -1.262557 v -0.315639 h 0.315639 v -0.946918 h -1.262557 v -0.631279 h 0.315639 v -0.315639 h 0.31564 v -0.31564 h 0.315639 v -0.315639 h 0.315639 v -0.315639 h 0.631279 v 1.578197 z m 1.578195,0.946918 h 0.631278 v 0.631278 h -0.631278 z m 2.525119,-0.946918 h 0.946919 v -0.31564 h -0.946919 z m -0.315639,-0.631279 h 1.578197 v 0.315639 h 0.315639 v 0.631279 h -1.578197 v 0.946918 h 0.946919 v -0.315639 h 0.631278 v 0.315639 h -0.315639 v 0.315639 h -1.578197 v -0.315639 h -0.315639 v -1.578197 h 0.315639 z m 2.840752,0.315639 h 0.315639 v -0.946918 h 0.31564 v -0.315639 h 0.946918 v 0.315639 h 0.315639 v 0.631279 h -0.315639 v -0.31564 h -0.31564 v -0.315639 h -0.315639 v 0.946918 h 0.315639 v 0.31564 h -0.315639 v 1.262557 h 0.315639 v 0.315639 h -1.262557 v -0.315639 h 0.315639 v -1.262557 h -0.315639 z m 3.472032,-1.262557 h 0.63128 v 0.631278 h -0.63128 z m -0.31564,0.946918 h 0.94692 v 1.893836 h 0.31564 v 0.315639 h -1.26256 v -0.315639 h 0.31564 v -1.578197 h -0.31564 z m 2.84076,1.893836 h 0.31564 v -0.315639 h 0.31564 v -1.893837 h -0.31564 v -0.315639 h -0.31564 v -0.315639 h 0.63128 v 0.315639 h 0.31564 v 0.315639 h 0.31564 v 1.893837 h -0.31564 v 0.315639 h -0.31564 v 0.315639 h -0.63128 z"
       id="text4"
       aria-label="Memory test (memtest86+64.efi)" /><path
       style="font-size:5.05023px;line-height:1;font-family:'Perfect DOS VGA 437';-inkscape-font-specification:'Perfect DOS VGA 437, ';letter-spacing:0px;white-space:pre;fill:#ffffff;stroke-width:1.6834;stroke-linejoin:round"
       d="m 22.084865,64.053212 h -0.315639 v -0.31564 h -0.31564 v 1.893837 h -0.631278 v -3.156394 h 0.631278 v 0.315639 h 0.31564 v 0.31564 h 0.315639 v -0.31564 h 0.315639 v -0.315639 h 0.631279 v 3.156394 h -0.631279 v -1.893837 h -0.315639 z m 2.209476,0 h 0.946918 v -0.31564 h -0.946918 z m -0.31564,-0.631279 h 1.578197 v 0.315639 h 0.31564 v 0.631279 h -1.578197 v 0.946918 h 0.946918 V 65.00013 h 0.631279 v 0.315639 h -0.31564 v 0.31564 h -1.578197 v -0.31564 h -0.315639 v -1.578197 h 0.315639 z m 4.103312,0.631279 h -0.315639 v 1.262557 h -0.315639 v -1.262557 h -0.31564 v 1.578197 h -0.631278 v -2.209476 h 0.946918 v 0.315639 h 0.315639 v -0.315639 h 0.631279 v 0.315639 h 0.315639 v 1.893837 h -0.631279 z m 2.840755,-0.31564 H 29.97585 v 1.578197 h 0.946918 z m -1.262558,1.578197 h -0.315639 v -1.578197 h 0.315639 v -0.315639 h 1.578197 v 0.315639 h 0.31564 v 1.578197 h -0.31564 v 0.31564 H 29.66021 Z m 3.787673,-1.262557 h -0.315639 v 1.262557 h 0.315639 v 0.31564 h -1.262557 v -0.31564 h 0.315639 v -1.578197 h -0.315639 v -0.315639 h 0.631278 v 0.315639 h 0.31564 v -0.315639 h 0.946918 v 0.315639 h 0.315639 v 0.631279 h -0.631278 v -0.631279 h -0.31564 z m 1.578197,2.209475 h 1.262558 v -0.315639 h 0.315639 V 65.631409 H 35.34172 v -0.31564 h -0.31564 v -1.893836 h 0.631279 v 1.893836 h 0.946918 v -1.893836 h 0.631279 v 2.525115 h -0.31564 v 0.315639 h -0.315639 v 0.31564 H 35.02608 Z m 5.681508,-2.840754 h 0.631279 v -0.631279 h 0.315639 v -0.315639 h 0.31564 v 0.946918 h 0.631278 v 0.315639 h -0.631278 v 1.578197 h 0.315639 V 65.00013 h 0.631279 v 0.315639 h -0.31564 v 0.31564 h -0.946918 v -0.31564 h -0.315639 v -1.578197 h -0.631279 z m 3.472034,0.631279 h 0.946919 v -0.31564 h -0.946919 z m -0.315639,-0.631279 h 1.578197 v 0.315639 h 0.315639 v 0.631279 h -1.578197 v 0.946918 h 0.946919 V 65.00013 h 0.631278 v 0.315639 H 45.44218 v 0.31564 h -1.578197 v -0.31564 h -0.315639 v -1.578197 h 0.315639 z m 4.103313,0.315639 h -0.946918 v 0.31564 h 0.315639 v 0.315639 h 0.631279 v 0.31564 h 0.315639 v 0.315639 h 0.31564 v 0.315639 h -0.31564 v 0.31564 h -1.578197 v -0.31564 H 46.389099 V 65.00013 h 0.631279 v 0.315639 h 0.946918 V 65.00013 h -0.315639 v -0.315639 h -0.631279 v -0.31564 h -0.31564 v -0.315639 h -0.315639 v -0.31564 h 0.315639 v -0.315639 h 1.578197 v 0.315639 h 0.31564 v 0.31564 h -0.631279 z m 1.262557,-0.315639 h 0.631278 v -0.631279 h 0.31564 v -0.315639 h 0.315639 v 0.946918 h 0.631279 v 0.315639 H 50.49241 v 1.578197 h 0.31564 V 65.00013 h 0.631278 v 0.315639 h -0.315639 v 0.31564 h -0.946918 v -0.31564 h -0.31564 v -1.578197 h -0.631278 z m 6.312787,-0.315639 h 0.31564 v -0.31564 h 0.315639 v -0.315639 h 0.631279 v 0.315639 h -0.315639 v 0.31564 h -0.31564 v 1.893836 h 0.31564 v 0.315639 h 0.315639 v 0.31564 h -0.631279 v -0.31564 H 55.85828 V 65.00013 h -0.31564 z m 3.787674,0.946918 h -0.315639 v 1.262557 h -0.31564 v -1.262557 h -0.315639 v 1.578197 h -0.631279 v -2.209476 h 0.946918 v 0.315639 h 0.31564 v -0.315639 h 0.631278 v 0.315639 h 0.31564 v 1.893837 h -0.631279 z m 1.893834,0 h 0.946918 v -0.31564 h -0.946918 z m -0.31564,-0.631279 h 1.578197 v 0.315639 h 0.315639 v 0.631279 h -1.578196 v 0.946918 h 0.946918 V 65.00013 h 0.631278 v 0.315639 h -0.315639 v 0.31564 h -1.578197 v -0.31564 h -0.315639 v -1.578197 h 0.315639 z m 4.103313,0.631279 h -0.315639 v 1.262557 h -0.31564 v -1.262557 h -0.315639 v 1.578197 h -0.631279 v -2.209476 h 0.946918 v 0.315639 h 0.31564 v -0.315639 h 0.631279 v 0.315639 H 65.6431 v 1.893837 h -0.631279 z m 1.262559,-0.631279 h 0.631278 v -0.631279 h 0.31564 v -0.315639 h 0.315639 v 0.946918 h 0.631279 v 0.315639 h -0.631279 v 1.578197 h 0.31564 V 65.00013 h 0.631278 v 0.315639 h -0.315639 v 0.31564 h -0.946918 v -0.31564 h -0.31564 V 63.737572 H 66.27438 Z m 3.472034,0.631279 h 0.946918 v -0.31564 h -0.946918 z m -0.315639,-0.631279 h 1.578196 v 0.315639 h 0.31564 v 0.631279 h -1.578197 v 0.946918 h 0.946918 V 65.00013 h 0.631279 v 0.315639 h -0.31564 v 0.31564 h -1.578196 v -0.31564 h -0.31564 v -1.578197 h 0.31564 z m 4.103313,0.315639 h -0.946919 v 0.31564 h 0.31564 v 0.315639 h 0.631279 v 0.31564 h 0.315639 v 0.315639 h 0.315639 v 0.315639 h -0.315639 v 0.31564 H 72.27153 v -0.31564 H 71.955891 V 65.00013 h 0.631278 v 0.315639 h 0.946919 V 65.00013 h -0.31564 v -0.315639 h -0.631279 v -0.31564 H 72.27153 v -0.315639 h -0.315639 v -0.31564 h 0.315639 v -0.315639 h 1.578197 v 0.315639 h 0.315639 v 0.31564 h -0.631278 z m 1.262554,-0.315639 h 0.631279 v -0.631279 h 0.315639 v -0.315639 h 0.31564 v 0.946918 h 0.631279 v 0.315639 H 76.0592 v 1.578197 h 0.315639 V 65.00013 h 0.631279 v 0.315639 h -0.315639 v 0.31564 H 75.74356 v -0.31564 h -0.315639 v -1.578197 h -0.631279 z m 4.418953,-0.631279 h -0.946918 v 0.946918 h 0.946918 z m 0,1.262558 h -0.946918 v 1.262557 h 0.946918 z m -1.578197,0 h 0.315639 v -0.31564 h -0.315639 v -0.946918 h 0.315639 v -0.315639 h 1.578197 v 0.315639 h 0.315639 v 0.946918 h -0.315639 v 0.31564 h 0.315639 v 1.262557 h -0.315639 v 0.31564 h -1.578197 v -0.31564 h -0.315639 z m 4.418952,0 h -0.946918 v 1.262557 h 0.946918 z m -1.262557,-1.262558 h 0.315639 v -0.315639 h 0.946918 v 0.315639 h -0.631279 v 0.31564 h -0.315639 v 0.631278 h 1.262557 v 0.31564 h 0.31564 v 1.262557 h -0.31564 v 0.31564 h -1.578196 v -0.31564 h -0.31564 v -2.209475 h 0.31564 z m 2.840751,1.262558 h 0.631279 v -0.631279 h 0.631279 v 0.631279 h 0.631279 v 0.315639 h -0.631279 v 0.631279 h -0.631279 v -0.631279 h -0.631279 z m 4.103317,0 h -0.946918 v 1.262557 h 0.946918 z m -1.262557,-1.262558 h 0.315639 v -0.315639 h 0.946918 v 0.315639 h -0.631279 v 0.31564 h -0.315639 v 0.631278 H 88.0535 v 0.31564 h 0.31564 v 1.262557 H 88.0535 v 0.31564 h -1.578196 v -0.31564 h -0.31564 v -2.209475 h 0.31564 z m 3.156391,1.262558 h 0.631278 v -0.631279 h -0.315639 v 0.315639 h -0.315639 z m 1.578196,0 v 0.315639 h -0.315639 v 0.946918 h 0.315639 v 0.31564 h -1.262557 v -0.31564 h 0.315639 v -0.946918 h -1.262557 v -0.631279 h 0.315639 v -0.315639 h 0.31564 v -0.315639 h 0.315639 v -0.31564 h 0.315639 v -0.315639 h 0.631279 v 1.578197 z m 1.578195,0.946918 h 0.631278 v 0.631279 h -0.631278 z m 2.525119,-0.946918 h 0.946919 v -0.31564 h -0.946919 z m -0.315639,-0.631279 h 1.578197 v 0.315639 h 0.315639 v 0.631279 h -1.578197 v 0.946918 h 0.946919 V 65.00013 h 0.631278 v 0.315639 h -0.315639 v 0.31564 h -1.578197 v -0.31564 h -0.315639 v -1.578197 h 0.315639 z m 2.840752,0.315639 h 0.315639 v -0.946918 h 0.31564 v -0.315639 h 0.946918 v 0.315639 h 0.315639 v 0.631279 h -0.315639 v -0.315639 h -0.31564 v -0.31564 h -0.315639 v 0.946918 h 0.315639 v 0.31564 h -0.315639 v 1.262557 h 0.315639 v 0.31564 h -1.262557 v -0.31564 h 0.315639 v -1.262557 h -0.315639 z m 3.472032,-1.262557 h 0.63128 v 0.631279 h -0.63128 z m -0.31564,0.946918 h 0.94692 v 1.893836 h 0.31564 v 0.31564 h -1.26256 v -0.31564 h 0.31564 v -1.578197 h -0.31564 z m 2.84076,2.209476 h 0.31564 v -0.946918 h 0.63128 v 0.946918 h -0.31564 v 0.315639 h -0.63128 z m 6.62843,-1.893837 h -0.94692 v 0.31564 h 0.31564 v 0.315639 h 0.63128 v 0.31564 h 0.31564 v 0.315639 h 0.31564 v 0.315639 h -0.31564 v 0.31564 h -1.5782 v -0.31564 H 108.8857 V 65.00013 h 0.63128 v 0.315639 h 0.94692 V 65.00013 h -0.31564 v -0.315639 h -0.63128 v -0.31564 h -0.31564 v -0.315639 h -0.31564 v -0.31564 h 0.31564 v -0.315639 h 1.5782 v 0.315639 h 0.31564 v 0.31564 h -0.63128 z m 1.89383,0.31564 h 0.94692 v -0.31564 h -0.94692 z m -0.31564,-0.631279 h 1.5782 v 0.315639 h 0.31564 v 0.631279 h -1.5782 v 0.946918 h 0.94692 V 65.00013 h 0.63128 v 0.315639 h -0.31564 v 0.31564 h -1.5782 v -0.31564 h -0.31564 v -1.578197 h 0.31564 z m 3.78767,0.631279 h -0.31564 v 1.262557 h 0.31564 v 0.31564 h -1.26256 v -0.31564 h 0.31564 v -1.578197 h -0.31564 v -0.315639 h 0.63128 v 0.315639 h 0.31564 v -0.315639 h 0.94692 v 0.315639 h 0.31564 v 0.631279 h -0.63128 v -0.631279 h -0.31564 z m 2.52512,-1.578197 h 0.63128 v 0.631279 h -0.63128 z m -0.31564,0.946918 h 0.94692 v 1.893836 h 0.31564 v 0.31564 h -1.26256 v -0.31564 h 0.31564 v -1.578197 h -0.31564 z m 3.47203,2.209476 h -0.94692 v -0.31564 h -0.31564 v -0.946918 h 0.31564 v -0.315639 h 0.94692 v -0.31564 h -0.94692 v -0.315639 h 1.26256 v 0.315639 h 0.31564 v 1.578197 h 0.31564 v 0.31564 h -0.63128 v -0.31564 h -0.31317 l -0.002,-0.0025 v -0.944452 h -0.63128 v 0.946918 h 0.63128 z m 2.20948,-3.156394 h 0.94692 v 2.840754 h 0.31564 v 0.31564 h -1.26256 v -0.31564 h 0.31564 v -2.525115 h -0.31564 z m 6.62842,1.262557 h -0.94691 v 1.578197 h 0.94691 V 65.00013 h 0.63128 v 0.315639 h -0.31564 v 0.31564 h -1.57819 v -0.31564 h -0.31564 v -1.578197 h 0.31564 v -0.315639 h 1.57819 v 0.315639 h 0.31564 v 0.31564 h -0.63128 z m 2.84076,0 h -0.94691 v 1.578197 h 0.94691 z m -1.26255,1.578197 h -0.31564 v -1.578197 h 0.31564 v -0.315639 h 1.57819 v 0.315639 h 0.31564 v 1.578197 h -0.31564 v 0.31564 h -1.57819 z m 2.84075,-1.578197 h -0.31564 v -0.315639 h 0.63128 v 0.315639 h 0.31564 v 1.893837 h -0.63128 z m 0.63128,-0.315639 h 0.94691 v 0.315639 h 0.31564 v 1.893837 h -0.63128 v -1.893837 h -0.63127 z m 3.47203,0.315639 h -0.94692 v 0.31564 h 0.31564 v 0.315639 h 0.63128 v 0.31564 h 0.31564 v 0.315639 h 0.31564 v 0.315639 h -0.31564 v 0.31564 h -1.5782 v -0.31564 h -0.31564 V 65.00013 h 0.63128 v 0.315639 h 0.94692 V 65.00013 h -0.31564 v -0.315639 h -0.63128 v -0.31564 h -0.31564 v -0.315639 h -0.31564 v -0.31564 h 0.31564 v -0.315639 h 1.5782 v 0.315639 h 0.31564 v 0.31564 h -0.63128 z m 2.84076,0 h -0.94692 v 1.578197 h 0.94692 z m -1.26256,1.578197 H 140.134 v -1.578197 h 0.31564 v -0.315639 h 1.5782 v 0.315639 h 0.31563 v 1.578197 h -0.31563 v 0.31564 h -1.5782 z m 3.15639,-2.840754 h 0.94692 v 2.840754 h 0.31564 v 0.31564 h -1.26256 v -0.31564 h 0.31564 v -2.525115 h -0.31564 z m 2.84075,1.578197 h 0.94692 v -0.31564 h -0.94692 z m -0.31564,-0.631279 h 1.5782 v 0.315639 h 0.31564 v 0.631279 h -1.5782 v 0.946918 h 0.94692 V 65.00013 h 0.63128 v 0.315639 h -0.31564 v 0.31564 h -1.5782 v -0.31564 h -0.31564 v -1.578197 h 0.31564 z m 3.1564,1.893836 h 0.31564 V 65.00013 h 0.31564 v -1.893836 h -0.31564 v -0.31564 h -0.31564 v -0.315639 h 0.63128 v 0.315639 h 0.31564 v 0.31564 h 0.31564 v 1.893836 h -0.31564 v 0.315639 h -0.31564 v 0.31564 h -0.63128 z"
       id="text5"
       aria-label="Memory test (memtest86+64.efi, serial console)" /><path
       style="font-size:5.05023px;line-height:1;font-family:'Perfect DOS VGA 437';-inkscape-font-specification:'Perfect DOS VGA 437, ';letter-spacing:0px;white-space:pre;fill:#ffffff;stroke-width:1.6834;stroke-linejoin:round"
       d="M 21.769226,74.261749 H 21.137947 V 73.94611 h -0.315639 v -2.840754 h 0.631278 v 2.209475 h 0.31564 v -0.946918 h 0.315639 v 0.946918 h 0.315639 v -2.209475 h 0.631279 v 2.840754 h -0.315639 v 0.315639 h -0.631279 v -0.631278 h -0.315639 z m 2.840754,-3.156393 h 0.631279 v 0.631278 H 24.60998 Z m -0.315639,0.946918 h 0.946918 v 1.893836 h 0.315639 v 0.315639 H 24.294341 V 73.94611 h 0.315639 v -1.578197 h -0.315639 z m 2.525115,0.315639 h -0.315639 v -0.315639 h 0.631278 v 0.315639 h 0.31564 v 1.893836 h -0.631279 z m 0.631279,-0.315639 h 0.946918 v 0.315639 h 0.315639 v 1.893836 h -0.631279 v -1.893836 h -0.631278 z m 3.156394,0.315639 h -0.31564 v 0.315639 H 29.97585 v 1.262558 h 0.628813 l 0.0025,0.0025 v 0.313173 H 29.66021 V 73.94611 h -0.315639 v -1.262558 h 0.315639 v -0.315639 h 0.31564 v -0.315639 h 0.631279 v -0.631279 h -0.31564 v -0.315639 h 0.946918 v 2.840754 h 0.31564 v 0.315639 H 30.922768 V 73.94611 h -0.315639 z m 3.156394,0 h -0.946919 v 1.578197 h 0.946919 z m -1.262558,1.578197 h -0.315639 v -1.578197 h 0.315639 v -0.315639 h 1.578197 v 0.315639 h 0.315639 v 1.578197 h -0.315639 v 0.315639 h -1.578197 z m 4.418951,0.315639 H 36.288638 V 73.94611 h -0.31564 v 0.315639 H 35.34172 V 73.94611 h -0.31564 v -1.893836 h 0.631279 v 1.578197 h 0.315639 v -0.946919 h 0.31564 v 0.946919 h 0.315639 v -1.578197 h 0.631279 v 1.893836 h -0.31564 z m 2.525116,-1.893836 h -0.946919 v 0.315639 h 0.31564 v 0.31564 h 0.631279 v 0.315639 h 0.315639 v 0.31564 h 0.315639 v 0.315639 h -0.315639 v 0.315639 H 38.182474 V 73.94611 h -0.315639 v -0.315639 h 0.631278 v 0.315639 h 0.946919 v -0.315639 h -0.31564 v -0.31564 h -0.631279 v -0.315639 h -0.315639 v -0.31564 h -0.315639 v -0.315639 h 0.315639 v -0.315639 h 1.578197 v 0.315639 h 0.315639 v 0.315639 h -0.631278 z m 5.05023,0 h 0.631279 v -0.946918 h -0.631279 z m 0.631279,0.315639 h -0.631279 v 1.262558 h 0.631279 z m -1.578197,1.262558 h 0.315639 v -2.525115 h -0.315639 v -0.315639 h 1.893836 v 0.315639 h 0.315639 v 0.946918 H 45.44218 v 0.315639 h 0.315639 V 73.94611 H 45.44218 v 0.315639 h -1.893836 z m 4.418952,-1.578197 h -0.946918 v 1.578197 h 0.946918 z m -1.262558,1.578197 h -0.315639 v -1.578197 h 0.315639 v -0.315639 h 1.578197 v 0.315639 h 0.31564 v 1.578197 h -0.31564 v 0.315639 h -1.578197 z m 4.103312,-1.578197 h -0.946919 v 1.578197 h 0.946919 z m -1.262558,1.578197 h -0.315639 v -1.578197 h 0.315639 v -0.315639 h 1.578197 v 0.315639 h 0.315639 v 1.578197 h -0.315639 v 0.315639 h -1.578197 z m 2.525114,-1.893836 h 0.631279 v -0.631279 h 0.315639 v -0.315639 h 0.31564 v 0.946918 h 0.631278 v 0.315639 h -0.631278 v 1.578197 h 0.315639 v -0.315639 h 0.631279 v 0.315639 h -0.31564 v 0.315639 H 53.017524 V 73.94611 h -0.315639 v -1.578197 h -0.631279 z m 6.944069,0.631278 h -0.31564 v -0.315639 h -0.315639 v 1.893836 h -0.631279 v -3.156393 h 0.631279 v 0.315639 h 0.315639 v 0.315639 h 0.31564 v -0.315639 h 0.315639 v -0.315639 h 0.631279 v 3.156393 h -0.631279 v -1.893836 h -0.315639 z m 2.840751,1.578197 H 60.908508 V 73.94611 h -0.315639 v -0.946918 h 0.315639 v -0.31564 h 0.946918 v -0.315639 h -0.946918 v -0.315639 h 1.262558 v 0.315639 h 0.315639 v 1.578197 h 0.315639 v 0.315639 H 62.171066 V 73.94611 h -0.313174 l -0.0025,-0.0025 v -0.944452 h -0.631278 v 0.946918 h 0.631278 z m 1.893838,-1.893836 h -0.31564 v -0.315639 h 0.631279 v 0.315639 h 0.315639 v 1.893836 h -0.631278 z m 0.631278,-0.315639 h 0.946919 v 0.315639 H 65.6431 v 1.893836 h -0.631279 v -1.893836 h -0.631279 z m 3.156395,2.209475 H 66.590019 V 73.94611 H 66.27438 v -0.946918 h 0.315639 v -0.31564 h 0.946918 v -0.315639 h -0.946918 v -0.315639 h 1.262558 v 0.315639 h 0.315639 v 1.578197 h 0.315639 v 0.315639 H 67.852577 V 73.94611 h -0.313174 l -0.0025,-0.0025 v -0.944452 h -0.631279 v 0.946918 h 0.631279 z m 2.840756,-1.89137 0.0025,-0.0025 h 0.313173 v -0.315639 h 0.631279 v 0.315639 h -0.31564 v 2.525115 h -0.315639 v 0.315639 h -1.262557 v -0.315639 h -0.31564 v -0.315639 h 0.631279 v 0.315639 h 0.631279 V 74.261749 H 69.430775 V 73.94611 h -0.31564 v -1.578197 h 0.31564 v -0.315639 h 0.946918 v 0.315639 h -0.631279 v 1.578197 h 0.631279 z m 2.209476,0.313173 h 0.946919 V 72.367913 H 72.587169 Z M 72.27153,72.052274 h 1.578197 v 0.315639 h 0.315639 v 0.631279 h -1.578197 v 0.946918 h 0.946919 v -0.315639 h 0.631278 v 0.315639 h -0.315639 v 0.315639 H 72.27153 V 73.94611 h -0.315639 v -1.578197 h 0.315639 z m 3.78767,0.631278 h -0.31564 v 1.262558 h 0.31564 v 0.315639 H 74.796642 V 73.94611 h 0.31564 v -1.578197 h -0.31564 v -0.315639 h 0.631279 v 0.315639 h 0.315639 v -0.315639 h 0.946919 v 0.315639 h 0.315639 v 0.631279 H 76.374839 V 72.367913 H 76.0592 Z m 5.050232,-0.946918 h 0.315639 v -0.315639 h 0.31564 v -0.315639 h 0.631278 v 0.315639 H 82.05635 v 0.315639 h -0.315639 v 1.893837 h 0.315639 v 0.315639 h 0.315639 v 0.315639 H 81.740711 V 73.94611 h -0.31564 v -0.315639 h -0.315639 z m 3.78767,0.631279 h -0.946918 v 1.578197 h 0.946918 z m -1.262558,1.578197 h -0.315639 v -1.578197 h 0.315639 v -0.315639 h 1.578197 v 0.315639 h 0.31564 v 1.578197 h -0.31564 v 0.315639 h -1.578197 z m 2.84076,-1.578197 h -0.31564 v -0.315639 h 0.631279 v 0.315639 h 0.315639 v 1.893836 h -0.631278 z m 0.631278,-0.315639 H 88.0535 v 0.315639 h 0.31564 v 1.893836 h -0.631279 v -1.893836 h -0.631279 z m 6.628422,0.631278 h -0.31564 v 0.31564 h -0.315639 v 0.315639 h -0.315639 v 0.31564 h -0.31564 v 0.315639 h -0.315639 v 0.315639 h -0.31564 v -0.631278 h 0.31564 v -0.31564 h 0.315639 v -0.315639 h 0.31564 v -0.31564 h 0.315639 v -0.315639 h 0.315639 v -0.315639 h 0.31564 v -0.31564 h 0.315639 v 0.631279 h -0.315639 z m 2.20948,-0.315639 h -0.315639 v 0.315639 h -0.31564 v 1.262558 h 0.628813 l 0.0025,0.0025 v 0.313173 H 94.997566 V 73.94611 h -0.315639 v -1.262558 h 0.315639 v -0.315639 h 0.315639 v -0.315639 h 0.631279 v -0.631279 h -0.315639 v -0.315639 h 0.946918 v 2.840754 h 0.315639 v 0.315639 H 96.260124 V 73.94611 h -0.31564 z m 2.209473,0.315639 h 0.946918 v -0.315639 h -0.946918 z m -0.315639,-0.631278 h 1.578197 v 0.315639 h 0.315639 v 0.631279 h -1.578197 v 0.946918 h 0.946918 v -0.315639 h 0.631279 v 0.315639 h -0.315639 v 0.315639 H 97.838318 V 73.94611 h -0.31564 v -1.578197 h 0.31564 z m 4.103312,0 h 0.63128 v 1.578197 h -0.31564 v 0.315639 h -0.31564 v 0.315639 h -0.94692 V 73.94611 h -0.31564 v -0.315639 h -0.31564 v -1.578197 h 0.63128 v 1.578197 h 0.31564 v 0.315639 h 0.31564 v -0.315639 h 0.31564 z m 3.1564,0.631278 h -0.31564 v 0.31564 h -0.31564 v 0.315639 h -0.31564 v 0.31564 h -0.31564 v 0.315639 h -0.31564 v 0.315639 h -0.31564 v -0.631278 h 0.31564 v -0.31564 h 0.31564 v -0.315639 h 0.31564 v -0.31564 h 0.31564 v -0.315639 h 0.31564 v -0.315639 h 0.31564 v -0.31564 h 0.31563 v 0.631279 h -0.31563 z m 1.26255,-0.315639 h -0.31564 v -0.315639 h 0.63128 v 0.315639 h 0.31564 v 1.893836 h -0.63128 z m 0.63128,-0.315639 h 0.94692 v 0.315639 h 0.31564 v 1.893836 h -0.63128 v -1.893836 h -0.63128 z m 3.47204,0 h 0.63128 v 1.578197 h -0.31564 v 0.315639 h -0.31564 v 0.315639 h -0.94692 V 73.94611 h -0.31564 v -0.315639 h -0.31564 v -1.578197 h 0.63128 v 1.578197 h 0.31564 v 0.315639 h 0.31564 v -0.315639 h 0.31564 z m 2.84075,0.631278 h -0.31564 v 1.262558 h -0.31564 v -1.262558 h -0.31564 v 1.578197 h -0.63128 v -2.209475 h 0.94692 v 0.315639 h 0.31564 v -0.315639 h 0.63128 v 0.315639 h 0.31564 v 1.893836 h -0.63128 z m 1.89383,0 h 0.94692 v -0.315639 h -0.94692 z m -0.31564,-0.631278 h 1.5782 v 0.315639 h 0.31564 v 0.631279 h -1.5782 v 0.946918 h 0.94692 v -0.315639 h 0.63128 v 0.315639 h -0.31564 v 0.315639 h -1.5782 V 73.94611 h -0.31564 v -1.578197 h 0.31564 z m 3.47204,0.315639 h 0.31564 v 0.631279 h -0.31564 z m 0.31564,1.262558 h 0.31564 v -1.893837 h -0.31564 v -0.315639 h -0.31564 v 0.315639 h -0.31564 v 1.893837 h 0.31564 v 0.315639 h 0.31564 z m -0.63128,0.315639 h -0.31564 v -0.315639 h -0.31564 v -1.893837 h 0.31564 v -0.315639 h 0.31564 v -0.315639 h 0.94692 v 0.315639 h 0.31564 v 0.315639 h 0.31564 v 1.893837 h -0.31564 v 0.315639 h -0.31564 v 0.315639 h -0.94692 z m 2.52511,-1.578197 h -0.31564 v -0.315639 h 0.63128 v 0.315639 h 0.31564 v 1.893836 h -0.63128 z m 0.63128,-0.315639 h 0.94692 v 0.315639 h 0.31564 v 1.893836 h -0.63128 v -1.893836 h -0.63128 z m 2.20948,-0.31564 h 0.31564 v -0.315639 h 0.31564 v -0.315639 h 0.63128 v 2.840754 h 0.63128 v 0.315639 h -1.89384 V 73.94611 h 0.63128 v -1.893836 h -0.63128 z m 3.47203,0.31564 h 0.94692 v 0.315639 h 0.31564 v 1.578197 h -0.31564 v 0.315639 h -0.94692 v 0.631279 h 0.31564 v 0.315639 h -1.26255 v -0.315639 h 0.31563 v -2.525115 h -0.31563 v -0.315639 h 0.63127 v 0.315639 h 0.31318 l 0.002,0.0025 v 1.575731 h 0.63128 v -1.578197 h -0.63128 z m 2.20948,-0.31564 h 0.31564 v -0.315639 h 0.31564 v -0.315639 h 0.63127 v 2.840754 h 0.63128 v 0.315639 h -1.89383 V 73.94611 h 0.63128 v -1.893836 h -0.63128 z m 3.1564,2.209476 h 0.31563 v -0.315639 h 0.31564 v -1.893837 h -0.31564 v -0.315639 h -0.31563 v -0.315639 h 0.63127 v 0.315639 h 0.31564 v 0.315639 h 0.31564 v 1.893837 h -0.31564 v 0.315639 h -0.31564 v 0.315639 h -0.63127 z"
       id="text6"
       aria-label="Windows Boot Manager (on /dev/nvme0n1p1)" /><path
       style="font-size:5.05023px;line-height:1;font-family:'Perfect DOS VGA 437';-inkscape-font-specification:'Perfect DOS VGA 437, ';letter-spacing:0px;white-space:pre;fill:#ffffff;stroke-width:1.6834;stroke-linejoin:round"
       d="m 20.822308,79.735704 h 0.631278 v 2.840754 h 0.946918 v -2.840754 h 0.631279 v 2.840754 h -0.315639 v 0.315639 h -1.578197 v -0.315639 h -0.315639 z m 4.103312,1.578197 h -0.31564 v 1.262557 h 0.631279 v -0.315639 h 0.315639 v -0.31564 h 0.31564 v 0.946918 h -2.209476 v -0.315639 h 0.315639 v -2.525115 h -0.315639 v -0.315639 h 2.209476 v 0.946918 h -0.31564 v -0.31564 H 25.241259 V 80.051343 H 24.60998 v 0.946918 h 0.31564 v -0.315639 h 0.315639 V 81.62954 H 24.92562 Z m 3.472033,-0.946919 h -0.31564 v -0.315639 h -0.631278 v 0.946918 h 0.315639 v -0.315639 h 0.315639 v 0.946918 h -0.315639 v -0.315639 h -0.315639 v 1.262557 h 0.315639 v 0.315639 h -1.262557 v -0.315639 h 0.315639 v -2.525115 h -0.315639 v -0.315639 h 2.209475 v 0.946918 h -0.315639 z m 1.578197,-0.631278 h 1.262557 v 0.315639 h -0.315639 v 2.525115 h 0.315639 v 0.315639 H 29.97585 v -0.315639 h 0.315639 V 80.051343 H 29.97585 Z m 6.944066,0.631278 h -0.315639 v -0.315639 h -0.631279 v 0.946918 h 0.31564 v -0.315639 h 0.315639 v 0.946918 h -0.315639 v -0.315639 h -0.31564 v 1.262557 h 0.31564 v 0.315639 H 35.02608 v -0.315639 h 0.31564 v -2.525115 h -0.31564 v -0.315639 h 2.209476 v 0.946918 h -0.31564 z m 1.893837,-0.631278 h 0.631279 v 0.631278 h -0.631279 z m -0.31564,0.946918 h 0.946919 v 1.893836 h 0.315639 v 0.315639 h -1.262558 v -0.315639 h 0.31564 v -1.578197 h -0.31564 z m 3.472033,0.631279 h -0.31564 v 1.262557 h 0.31564 v 0.315639 h -1.262558 v -0.315639 h 0.31564 v -1.578197 h -0.31564 v -0.315639 h 0.631279 v 0.315639 h 0.315639 v -0.315639 h 0.946918 v 0.315639 h 0.31564 v 0.631279 h -0.631279 v -0.631279 h -0.315639 z m 3.156395,0 h -0.31564 v 1.262557 h -0.315639 v -1.262557 h -0.31564 v 1.578196 h -0.631278 v -2.209475 h 0.946918 v 0.315639 h 0.315639 v -0.315639 h 0.631279 v 0.315639 h 0.315639 v 1.893836 h -0.631278 z m 3.156394,1.578196 h -0.631278 v -0.315639 h -0.31564 v 0.315639 h -0.631279 v -0.315639 h -0.315639 v -1.893836 h 0.631279 v 1.578197 h 0.315639 v -0.946918 h 0.31564 v 0.946918 h 0.315639 v -1.578197 h 0.631279 v 1.893836 h -0.31564 z m 2.209475,0 H 49.545492 V 82.576458 H 49.229853 V 81.62954 h 0.315639 v -0.315639 h 0.946918 v -0.31564 h -0.946918 v -0.315639 h 1.262558 v 0.315639 h 0.315639 v 1.578197 h 0.315639 v 0.315639 H 50.80805 v -0.315639 h -0.313174 l -0.0025,-0.0025 V 81.62954 h -0.631279 v 0.946918 h 0.631279 z m 2.840754,-1.578196 h -0.31564 v 1.262557 h 0.31564 v 0.315639 h -1.262558 v -0.315639 h 0.31564 v -1.578197 h -0.31564 v -0.315639 h 0.631279 v 0.315639 h 0.315639 v -0.315639 h 0.946918 v 0.315639 h 0.31564 v 0.631279 h -0.631279 v -0.631279 h -0.315639 z m 2.209476,0 h 0.946919 v -0.31564 H 55.54264 Z m -0.315639,-0.631279 h 1.578197 v 0.315639 h 0.315639 V 81.62954 H 55.54264 v 0.946918 h 0.946919 v -0.315639 h 0.631278 v 0.315639 h -0.315639 v 0.315639 h -1.578197 v -0.315639 h -0.315639 v -1.578197 h 0.315639 z m 5.365868,1.262557 h 0.631279 v 0.631279 h 0.946918 V 81.62954 h -0.31564 v -0.315639 h -0.631278 v -0.31564 h -0.31564 v -0.315639 h -0.315639 v -0.631279 h 0.315639 v -0.315639 h 1.578197 v 0.315639 h 0.315639 v 0.631279 h -0.631278 v -0.631279 h -0.946918 v 0.631279 h 0.315639 v 0.315639 h 0.631279 v 0.31564 h 0.315639 v 0.315639 h 0.315639 v 0.946918 h -0.315639 v 0.315639 h -1.578197 v -0.315639 h -0.315639 z m 3.472034,-0.631278 h 0.946918 v -0.31564 h -0.946918 z m -0.315639,-0.631279 h 1.578197 v 0.315639 H 65.6431 v 0.631279 h -1.578197 v 0.946918 h 0.946918 V 82.260819 H 65.6431 v 0.315639 h -0.315639 v 0.315639 h -1.578197 v -0.315639 h -0.31564 v -1.578197 h 0.31564 z m 2.525116,0 h 0.631278 v -0.631279 h 0.31564 v -0.315639 h 0.315639 v 0.946918 h 0.631279 v 0.315639 h -0.631279 v 1.578197 h 0.31564 v -0.315639 h 0.631278 v 0.315639 h -0.315639 v 0.315639 h -0.946918 v -0.315639 h -0.31564 V 80.998261 H 66.27438 Z m 2.840755,0 h 0.631279 v -0.631279 h 0.315639 v -0.315639 h 0.31564 v 0.946918 h 0.631278 v 0.315639 h -0.631278 v 1.578197 h 0.315639 v -0.315639 h 0.631279 v 0.315639 h -0.31564 v 0.315639 h -0.946918 v -0.315639 h -0.315639 v -1.578197 h -0.631279 z m 3.787674,-0.946918 h 0.631279 v 0.631278 h -0.631279 z m -0.31564,0.946918 h 0.946919 v 1.893836 h 0.315639 v 0.315639 h -1.262558 v -0.315639 h 0.31564 v -1.578197 h -0.31564 z m 2.525113,0.315639 h -0.31564 v -0.315639 h 0.631279 v 0.315639 h 0.315639 v 1.893836 h -0.631278 z m 0.631278,-0.315639 h 0.946919 v 0.315639 h 0.315639 v 1.893836 H 76.374839 V 80.998261 H 75.74356 Z m 3.156395,0.318105 0.0025,-0.0025 h 0.313174 v -0.315639 h 0.631278 v 0.315639 h -0.315639 v 2.525115 h -0.315639 v 0.31564 h -1.262558 v -0.31564 h -0.315639 v -0.315639 h 0.631279 v 0.315639 h 0.631278 v -0.631279 h -0.946918 v -0.315639 h -0.315639 v -1.578197 h 0.315639 v -0.315639 h 0.946918 v 0.315639 h -0.631278 v 1.578197 h 0.631278 z m 3.156395,-0.0025 h -0.946918 v 0.31564 h 0.315639 v 0.315639 h 0.631279 v 0.315639 h 0.315639 v 0.31564 h 0.31564 v 0.315639 h -0.31564 v 0.315639 h -1.578196 v -0.315639 h -0.31564 v -0.315639 h 0.631279 v 0.315639 h 0.946918 v -0.315639 h -0.315639 v -0.31564 H 81.109432 V 81.62954 h -0.315639 v -0.315639 h -0.31564 v -0.31564 h 0.31564 v -0.315639 h 1.578196 v 0.315639 h 0.31564 v 0.31564 H 82.05635 Z"
       id="text7"
       aria-label="UEFI Firmware Settings" /><path
       d="m 18.49087,38.612997 h 0.396875 v 0.198438 h 0.396875 v -0.198438 h 0.396875 v 0.198438 h -0.198437 v 0.198437 h 0.396875 v 0.198438 h -0.396875 v 0.198437 h 0.198437 v 0.198438 H 19.28462 v -0.198438 h -0.396875 v 0.198438 H 18.49087 v -0.198438 h 0.198438 V 39.20831 h -0.396875 v -0.198438 h 0.396875 V 38.811435 H 18.49087 Z"
       id="text10"
       style="font-weight:bold;font-size:3.175px;line-height:1;font-family:'Perfect DOS VGA 437';-inkscape-font-specification:'Perfect DOS VGA 437 Bold';letter-spacing:0px;white-space:pre;stroke-width:0.79375;stroke-linejoin:round"
       aria-label="*" /><path
       style="font-size:5.05023px;line-height:1;font-family:'Perfect DOS VGA 437';-inkscape-font-specification:'Perfect DOS VGA 437, ';letter-spacing:0px;white-space:pre;fill:#ffffff;stroke-width:1.6834;stroke-linejoin:round"
       d="m 20.822308,263.79493 h 0.631278 v 2.84076 h 0.946918 v -2.84076 h 0.631279 v 2.84076 h -0.315639 v 0.31563 h -1.578197 v -0.31563 h -0.315639 z m 4.418951,1.26256 h -0.946918 v 0.31564 h 0.315639 v 0.31564 h 0.631279 v 0.31564 h 0.315639 v 0.31564 h 0.31564 v 0.31564 h -0.31564 v 0.31563 h -1.578197 v -0.31563 h -0.315639 v -0.31564 h 0.631279 v 0.31564 h 0.946918 v -0.31564 H 24.92562 v -0.31564 h -0.631279 v -0.31564 h -0.31564 v -0.31564 h -0.315639 v -0.31564 h 0.315639 v -0.31564 h 1.578197 v 0.31564 h 0.31564 v 0.31564 h -0.631279 z m 1.893836,0.31564 h 0.946918 v -0.31564 h -0.946918 z m -0.315639,-0.63128 h 1.578197 v 0.31564 h 0.315639 v 0.63128 h -1.578197 v 0.94692 h 0.946918 v -0.31564 h 0.631279 v 0.31564 h -0.315639 v 0.31563 h -1.578197 v -0.31563 h -0.315639 v -1.5782 h 0.315639 z m 5.36587,0 h 0.631278 v -0.63128 h 0.31564 v -0.31564 h 0.315639 v 0.94692 h 0.631279 v 0.31564 h -0.631279 v 1.5782 h 0.31564 v -0.31564 h 0.631278 v 0.31564 h -0.315639 v 0.31563 h -0.946918 v -0.31563 h -0.31564 v -1.5782 h -0.631278 z m 4.103312,0 h 0.631278 v 0.31564 h 0.31564 v 1.89383 h -0.631279 v -1.89383 h -0.315639 z m -0.31564,2.20947 H 35.02608 v -0.31563 h 0.31564 v -2.52512 h -0.31564 v -0.31564 h 0.946918 v 1.26256 h 0.31564 v 0.31564 h -0.31564 z m 2.525115,-1.57819 h 0.946919 v -0.31564 h -0.946919 z m -0.315639,-0.63128 h 1.578197 v 0.31564 h 0.315639 v 0.63128 h -1.578197 v 0.94692 h 0.946919 v -0.31564 h 0.631278 v 0.31564 h -0.315639 v 0.31563 h -1.578197 v -0.31563 h -0.315639 v -1.5782 h 0.315639 z m 7.592607,2.22674 h -0.221934 l -0.971578,-0.97158 0.295912,-0.29591 0.577029,0.57702 v -3.00843 h 0.419208 v 3.00843 l 0.572096,-0.57702 0.295912,0.29591 z m 6.108114,-0.0173 h -0.946918 v -0.31563 h -0.315639 v -0.94692 h 0.315639 v -0.31564 h 0.946918 v -0.31564 h -0.946918 v -0.31564 h 1.262558 v 0.31564 h 0.315639 v 1.5782 h 0.31564 v 0.31563 h -0.631279 v -0.31563 h -0.313174 l -0.0025,-0.002 v -0.94445 h -0.631278 v 0.94692 h 0.631278 z m 1.893836,-1.89383 h -0.31564 v -0.31564 h 0.631279 v 0.31564 h 0.31564 v 1.89383 h -0.631279 z m 0.631279,-0.31564 h 0.946918 v 0.31564 h 0.315639 v 1.89383 h -0.631279 v -1.89383 H 54.40831 Z m 3.156394,0.31564 h -0.315639 v 0.31564 h -0.315639 v 1.26256 h 0.628812 l 0.0025,0.002 v 0.31317 h -0.946918 v -0.31563 h -0.315639 v -1.26256 h 0.315639 v -0.31564 h 0.31564 v -0.31564 h 0.631278 v -0.63128 h -0.315639 v -0.31564 h 0.946918 v 2.84076 h 0.31564 v 0.31563 h -0.631279 v -0.31563 h -0.31564 z m 6.423757,-1.80506 h 0.221934 l 0.966646,0.97157 -0.295912,0.29591 -0.572097,-0.57702 v 3.00843 h -0.419208 v -3.00843 l -0.577028,0.57702 -0.295912,-0.29591 z m 6.330047,1.80506 h 0.315639 v -0.31564 h 0.631279 v 0.31564 h -0.31564 v 0.31564 h -0.315639 v 0.63128 h 0.315639 v 0.31564 h 0.31564 v 0.63127 h -0.631279 v -0.63127 h -0.315639 v -0.31564 h -0.31564 v 0.94691 H 69.05595 v -0.31563 h 0.31564 v -2.52512 h -0.31564 v -0.31564 h 0.946918 v 1.5782 h 0.31564 z m 2.209476,0.31564 h 0.946919 v -0.31564 h -0.946919 z m -0.315639,-0.63128 h 1.578197 v 0.31564 h 0.315639 v 0.63128 h -1.578197 v 0.94692 h 0.946919 v -0.31564 h 0.631278 v 0.31564 h -0.315639 v 0.31563 h -1.578197 v -0.31563 h -0.315639 v -1.5782 h 0.315639 z m 2.525116,2.84075 h 1.262558 v -0.31564 h 0.315639 v -0.31564 H 75.0531 v -0.31563 h -0.315639 v -1.89384 h 0.631279 v 1.89384 h 0.946918 v -1.89384 h 0.631279 v 2.52511 h -0.31564 v 0.31564 h -0.315639 v 0.31564 h -1.578197 z m 4.418949,-2.52511 h -0.946919 v 0.31564 h 0.31564 v 0.31564 h 0.631279 v 0.31564 h 0.315639 v 0.31564 h 0.315639 v 0.31564 h -0.315639 v 0.31563 h -1.578197 v -0.31563 h -0.315639 v -0.31564 h 0.631278 v 0.31564 h 0.946919 v -0.31564 h -0.31564 v -0.31564 h -0.631279 v -0.31564 h -0.315639 v -0.31564 h -0.315639 v -0.31564 h 0.315639 v -0.31564 h 1.578197 v 0.31564 h 0.315639 v 0.31564 H 79.15641 Z m 4.103314,-0.31564 h 0.631278 v -0.63128 h 0.31564 v -0.31564 h 0.315639 v 0.94692 h 0.631279 v 0.31564 h -0.631279 v 1.5782 h 0.31564 v -0.31564 h 0.631278 v 0.31564 H 85.15356 v 0.31563 h -0.946918 v -0.31563 h -0.31564 v -1.5782 h -0.631278 z m 4.418948,0.31564 h -0.946918 v 1.5782 h 0.946918 z m -1.262557,1.5782 h -0.31564 v -1.5782 h 0.31564 v -0.31564 h 1.578197 v 0.31564 h 0.315639 v 1.5782 h -0.315639 v 0.31563 h -1.578197 z m 6.944068,-1.5782 h -0.946918 v 0.31564 h 0.315639 v 0.31564 h 0.631279 v 0.31564 h 0.315639 v 0.31564 h 0.31564 v 0.31564 h -0.31564 v 0.31563 h -1.578196 v -0.31563 h -0.31564 v -0.31564 h 0.631279 v 0.31564 h 0.946918 v -0.31564 h -0.315639 v -0.31564 h -0.631279 v -0.31564 h -0.315639 v -0.31564 h -0.31564 v -0.31564 h 0.31564 v -0.31564 h 1.578196 v 0.31564 h 0.31564 v 0.31564 h -0.631279 z m 1.893834,0.31564 h 0.946918 v -0.31564 h -0.946918 z m -0.31564,-0.63128 h 1.578197 v 0.31564 h 0.31564 v 0.63128 h -1.578197 v 0.94692 h 0.946918 v -0.31564 h 0.631279 v 0.31564 h -0.31564 v 0.31563 h -1.578197 v -0.31563 h -0.315639 v -1.5782 h 0.315639 z m 3.156399,-0.94692 h 0.946918 v 2.84076 h 0.315639 v 0.31563 h -1.262557 v -0.31563 h 0.315639 v -2.52512 h -0.315639 z m 2.840754,1.5782 h 0.94692 v -0.31564 h -0.94692 z m -0.31564,-0.63128 h 1.5782 v 0.31564 h 0.31563 v 0.63128 h -1.57819 v 0.94692 h 0.94692 v -0.31564 h 0.63127 v 0.31564 h -0.31563 v 0.31563 h -1.5782 v -0.31563 h -0.31564 v -1.5782 h 0.31564 z m 4.10331,0.31564 h -0.94691 v 1.5782 h 0.94691 v -0.31564 h 0.63128 v 0.31564 h -0.31564 v 0.31563 h -1.57819 v -0.31563 h -0.31564 v -1.5782 h 0.31564 v -0.31564 h 1.57819 v 0.31564 h 0.31564 v 0.31564 h -0.63128 z m 1.26256,-0.31564 h 0.63128 v -0.63128 h 0.31564 v -0.31564 h 0.31564 v 0.94692 h 0.63128 v 0.31564 h -0.63128 v 1.5782 h 0.31564 v -0.31564 h 0.63128 v 0.31564 h -0.31564 v 0.31563 h -0.94692 v -0.31563 h -0.31564 v -1.5782 h -0.63128 z m 7.57535,2.20947 h -0.63128 v -0.31563 h -0.31564 v 0.31563 h -0.63128 v -0.31563 h -0.31564 v -1.89384 h 0.63128 v 1.5782 h 0.31564 v -0.94692 h 0.31564 v 0.94692 h 0.31564 v -1.5782 h 0.63128 v 1.89384 h -0.31564 z m 2.20947,-2.20947 h 0.63128 v 0.31564 h 0.31564 v 1.89383 h -0.63128 v -1.89383 h -0.31564 z m -0.31564,2.20947 h -0.94692 v -0.31563 h 0.31564 v -2.52512 h -0.31564 v -0.31564 h 0.94692 v 1.26256 h 0.31564 v 0.31564 h -0.31564 z m 2.84076,-3.15639 h 0.63128 v 0.63128 h -0.63128 z m -0.31564,0.94692 h 0.94692 v 1.89384 h 0.31564 v 0.31563 h -1.26256 v -0.31563 h 0.31564 v -1.5782 h -0.31564 z m 3.78767,0.31564 h -0.94692 v 1.5782 h 0.94692 v -0.31564 h 0.63128 v 0.31564 h -0.31564 v 0.31563 h -1.5782 v -0.31563 h -0.31564 v -1.5782 h 0.31564 v -0.31564 h 1.5782 v 0.31564 h 0.31564 v 0.31564 h -0.63128 z m 2.52511,-0.31564 h 0.63128 v 0.31564 h 0.31564 v 1.89383 h -0.63128 v -1.89383 h -0.31564 z m -0.31564,2.20947 h -0.94692 v -0.31563 h 0.31564 v -2.52512 h -0.31564 v -0.31564 h 0.94692 v 1.26256 h 0.31564 v 0.31564 h -0.31564 z m 5.36587,-1.57819 h 0.94692 v -0.31564 h -0.94692 z m -0.31563,-0.63128 h 1.57819 v 0.31564 h 0.31564 v 0.63128 h -1.5782 v 0.94692 h 0.94692 v -0.31564 h 0.63128 v 0.31564 h -0.31564 v 0.31563 h -1.57819 v -0.31563 h -0.31564 v -1.5782 h 0.31564 z m 2.84075,0.31564 h -0.31564 v -0.31564 h 0.63128 v 0.31564 h 0.31564 v 1.89383 h -0.63128 z m 0.63128,-0.31564 h 0.94691 v 0.31564 h 0.31564 v 1.89383 h -0.63128 v -1.89383 h -0.63127 z m 1.89384,0 h 0.63128 v -0.63128 h 0.31563 v -0.31564 h 0.31564 v 0.94692 h 0.63128 v 0.31564 h -0.63128 v 1.5782 h 0.31564 v -0.31564 h 0.63128 v 0.31564 h -0.31564 v 0.31563 h -0.94692 v -0.31563 h -0.31563 v -1.5782 h -0.63128 z m 4.10331,0.63128 h -0.31564 v 1.26256 h 0.31564 v 0.31563 h -1.26256 v -0.31563 h 0.31564 v -1.5782 h -0.31564 v -0.31564 h 0.63128 v 0.31564 h 0.31564 v -0.31564 h 0.94691 v 0.31564 h 0.31564 v 0.63128 h -0.63127 v -0.63128 h -0.31564 z m 1.57819,2.20947 h 1.26256 v -0.31564 h 0.31564 v -0.31564 h -1.26256 v -0.31563 h -0.31564 v -1.89384 h 0.63128 v 1.89384 h 0.94692 v -1.89384 h 0.63128 v 2.52511 h -0.31564 v 0.31564 h -0.31564 v 0.31564 h -1.5782 z m 6.62843,-3.78767 h 0.63128 v 0.63128 h -0.63128 z m -0.31564,0.94692 h 0.94692 v 1.89384 h 0.31564 v 0.31563 h -1.26256 v -0.31563 h 0.31564 v -1.5782 h -0.31564 z m 3.78768,0.31564 h -0.94692 v 0.31564 h 0.31564 v 0.31564 h 0.63128 v 0.31564 h 0.31564 v 0.31564 h 0.31564 v 0.31564 h -0.31564 v 0.31563 h -1.5782 v -0.31563 h -0.31564 v -0.31564 h 0.63128 v 0.31564 h 0.94692 v -0.31564 h -0.31564 v -0.31564 h -0.63128 v -0.31564 h -0.31564 v -0.31564 h -0.31564 v -0.31564 h 0.31564 v -0.31564 h 1.5782 v 0.31564 h 0.31564 v 0.31564 h -0.63128 z m 5.36587,-0.31564 h 0.63128 v 0.31564 h 0.31564 v 1.89383 h -0.63128 v -1.89383 h -0.31564 z m -0.31564,2.20947 h -0.94692 v -0.31563 h 0.31564 v -2.52512 h -0.31564 v -0.31564 h 0.94692 v 1.26256 h 0.31564 v 0.31564 h -0.31564 z m 2.84074,-3.15639 h 0.63128 v 0.63128 h -0.63128 z m -0.31564,0.94692 h 0.94692 v 1.89384 h 0.31564 v 0.31563 h -1.26256 v -0.31563 h 0.31564 v -1.5782 h -0.31564 z m 3.47204,0.3181 0.002,-0.002 h 0.31317 v -0.31564 h 0.63128 v 0.31564 h -0.31564 v 2.52511 h -0.31564 v 0.31564 h -1.26256 v -0.31564 h -0.31564 v -0.31564 h 0.63128 v 0.31564 h 0.63128 v -0.63128 h -0.94692 v -0.31563 h -0.31564 v -1.5782 h 0.31564 v -0.31564 h 0.94692 v 0.31564 h -0.63128 v 1.5782 h 0.63128 z m 2.84076,-0.3181 h 0.63128 v 0.31564 h 0.31564 v 1.89383 h -0.63128 v -1.89383 h -0.31564 z m -0.31564,2.20947 h -0.94692 v -0.31563 h 0.31564 v -2.52512 h -0.31564 v -0.31564 h 0.94692 v 1.26256 h 0.31564 v 0.31564 h -0.31564 z m 2.52511,-3.15639 h 0.94691 v 2.84076 h 0.31564 v 0.31563 h -1.26255 v -0.31563 h 0.31564 v -2.52512 h -0.31564 z m 3.1564,0 h 0.63127 v 0.63128 h -0.63127 z m -0.31564,0.94692 h 0.94691 v 1.89384 h 0.31564 v 0.31563 h -1.26255 v -0.31563 h 0.31564 v -1.5782 h -0.31564 z m 3.47203,0.3181 0.002,-0.002 h 0.31317 v -0.31564 h 0.63128 v 0.31564 h -0.31564 v 2.52511 h -0.31564 v 0.31564 h -1.26255 v -0.31564 h -0.31564 v -0.31564 h 0.63128 v 0.31564 h 0.63127 v -0.63128 h -0.94691 v -0.31563 h -0.31564 v -1.5782 h 0.31564 v -0.31564 h 0.94691 v 0.31564 h -0.63127 v 1.5782 h 0.63127 z m 2.84075,-0.3181 h 0.63128 v 0.31564 h 0.31564 v 1.89383 h -0.63128 v -1.89383 h -0.31564 z m -0.31564,2.20947 h -0.94692 v -0.31563 h 0.31564 v -2.52512 h -0.31564 v -0.31564 h 0.94692 v 1.26256 h 0.31564 v 0.31564 h -0.31564 z m 1.89384,-2.20947 h 0.63128 v -0.63128 h 0.31564 v -0.31564 h 0.31564 v 0.94692 h 0.63128 v 0.31564 h -0.63128 v 1.5782 h 0.31564 v -0.31564 h 0.63128 v 0.31564 h -0.31564 v 0.31563 h -0.94692 v -0.31563 h -0.31564 v -1.5782 h -0.63128 z m 3.47204,0.63128 h 0.94692 v -0.31564 h -0.94692 z m -0.31564,-0.63128 h 1.5782 v 0.31564 h 0.31563 v 0.63128 h -1.57819 v 0.94692 h 0.94692 v -0.31564 h 0.63127 v 0.31564 h -0.31563 v 0.31563 h -1.5782 v -0.31563 h -0.31564 v -1.5782 h 0.31564 z m 3.78768,0.31564 h -0.31564 v 0.31564 h -0.31564 v 1.26256 h 0.62881 l 0.002,0.002 v 0.31317 h -0.94692 v -0.31563 h -0.31564 v -1.26256 h 0.31564 v -0.31564 h 0.31564 v -0.31564 h 0.63128 v -0.63128 h -0.31564 v -0.31564 h 0.94691 v 2.84076 h 0.31564 v 0.31563 h -0.63127 v -0.31563 h -0.31564 z m 2.5251,1.26256 h 0.63128 v 0.63127 h -0.63128 z"
       id="text12"
       aria-label="Use the  and  keys to select which entry is highlighted. " /><path
       style="font-size:5.05023px;line-height:1;font-family:'Perfect DOS VGA 437';-inkscape-font-specification:'Perfect DOS VGA 437, ';letter-spacing:0px;white-space:pre;fill:#ffffff;stroke-width:1.6834;stroke-linejoin:round"
       d="m 22.400504,272.14777 h -0.631278 v 0.94692 h 0.631278 z m -0.631278,2.52512 h 0.315639 v 0.31564 h -1.262557 v -0.31564 h 0.315639 v -2.52512 h -0.315639 v -0.31564 h 1.893836 v 0.31564 h 0.315639 v 0.94692 h -0.315639 v 0.31564 h -0.946918 z m 3.156394,-1.26256 h -0.31564 v 1.26256 h 0.31564 v 0.31564 h -1.262558 v -0.31564 h 0.315639 v -1.5782 h -0.315639 v -0.31564 h 0.631279 v 0.31564 h 0.315639 v -0.31564 h 0.946918 v 0.31564 h 0.31564 v 0.63128 h -0.631279 v -0.63128 H 24.92562 Z m 2.209475,0 h 0.946918 v -0.31564 h -0.946918 z m -0.315639,-0.63128 h 1.578197 v 0.31564 h 0.315639 v 0.63128 h -1.578197 v 0.94692 h 0.946918 v -0.31564 h 0.631279 v 0.31564 h -0.315639 v 0.31564 h -1.578197 v -0.31564 h -0.315639 v -1.5782 h 0.315639 z m 4.103312,0.31564 H 29.97585 v 0.31564 h 0.315639 v 0.31564 h 0.631279 v 0.31564 h 0.315639 v 0.31564 h 0.31564 v 0.31564 h -0.31564 v 0.31564 H 29.66021 v -0.31564 h -0.315639 v -0.31564 h 0.631279 v 0.31564 h 0.946918 v -0.31564 h -0.315639 v -0.31564 H 29.97585 v -0.31564 h -0.31564 v -0.31564 h -0.315639 v -0.31564 h 0.315639 v -0.31564 h 1.578197 v 0.31564 h 0.31564 v 0.31564 h -0.631279 z m 2.840755,0 h -0.946919 v 0.31564 h 0.31564 v 0.31564 h 0.631279 v 0.31564 h 0.315639 v 0.31564 h 0.315639 v 0.31564 h -0.315639 v 0.31564 h -1.578197 v -0.31564 h -0.315639 v -0.31564 h 0.631278 v 0.31564 h 0.946919 v -0.31564 h -0.31564 v -0.31564 h -0.631279 v -0.31564 h -0.315639 v -0.31564 h -0.315639 v -0.31564 h 0.315639 v -0.31564 h 1.578197 v 0.31564 h 0.315639 v 0.31564 h -0.631278 z m 4.73459,0.31564 h 0.946919 v -0.31564 h -0.946919 z m -0.315639,-0.63128 h 1.578197 v 0.31564 h 0.315639 v 0.63128 h -1.578197 v 0.94692 h 0.946919 v -0.31564 h 0.631278 v 0.31564 h -0.315639 v 0.31564 h -1.578197 v -0.31564 h -0.315639 v -1.5782 h 0.315639 z m 2.840754,0.31564 h -0.31564 v -0.31564 h 0.631279 v 0.31564 h 0.315639 v 1.89384 h -0.631278 z m 0.631278,-0.31564 h 0.946918 v 0.31564 h 0.31564 v 1.89384 h -0.631279 v -1.89384 h -0.631279 z m 1.893838,0 h 0.631278 v -0.63128 h 0.31564 v -0.31564 h 0.315639 v 0.94692 h 0.631279 v 0.31564 h -0.631279 v 1.5782 h 0.31564 v -0.31564 h 0.631278 v 0.31564 H 45.44218 v 0.31564 h -0.946918 v -0.31564 h -0.31564 v -1.5782 h -0.631278 z m 3.472034,0.63128 h 0.946918 v -0.31564 h -0.946918 z m -0.31564,-0.63128 h 1.578197 v 0.31564 h 0.31564 v 0.63128 h -1.578197 v 0.94692 h 0.946918 v -0.31564 h 0.631279 v 0.31564 h -0.31564 v 0.31564 h -1.578197 v -0.31564 h -0.315639 v -1.5782 h 0.315639 z m 3.787672,0.63128 h -0.315639 v 1.26256 h 0.315639 v 0.31564 h -1.262557 v -0.31564 h 0.315639 v -1.5782 h -0.315639 v -0.31564 h 0.631278 v 0.31564 h 0.31564 v -0.31564 h 0.946918 v 0.31564 h 0.315639 v 0.63128 H 50.80805 v -0.63128 h -0.31564 z m 4.418952,-0.63128 h 0.631278 v -0.63128 h 0.31564 v -0.31564 h 0.315639 v 0.94692 h 0.631279 v 0.31564 h -0.631279 v 1.5782 h 0.31564 v -0.31564 h 0.631278 v 0.31564 h -0.315639 v 0.31564 H 55.85828 v -0.31564 h -0.31564 v -1.5782 h -0.631278 z m 4.418952,0.31564 h -0.946918 v 1.5782 h 0.946918 z m -1.262557,1.5782 h -0.31564 v -1.5782 h 0.31564 v -0.31564 h 1.578196 v 0.31564 h 0.31564 v 1.5782 h -0.31564 v 0.31564 h -1.578196 z m 6.628425,-1.5782 h -0.31564 v 1.5782 h 0.631279 v -1.26256 h -0.315639 z m -0.31564,-0.31564 h 0.631279 v 0.31564 h 0.31564 v 0.31564 H 65.6431 v 1.26256 h -0.315639 v 0.31564 h -1.578197 v -2.84076 h -0.31564 v -0.31564 h 0.946918 z m 3.472035,0.31564 h -0.946919 v 1.5782 h 0.946919 z m -1.262558,1.5782 H 66.27438 v -1.5782 h 0.315639 v -0.31564 h 1.578197 v 0.31564 h 0.315639 v 1.5782 h -0.315639 v 0.31564 h -1.578197 z m 4.103313,-1.5782 h -0.946918 v 1.5782 h 0.946918 z m -1.262557,1.5782 h -0.31564 v -1.5782 h 0.31564 v -0.31564 h 1.578196 v 0.31564 h 0.31564 v 1.5782 h -0.31564 v 0.31564 h -1.578196 z m 2.525116,-1.89384 h 0.631278 v -0.63128 h 0.31564 v -0.31564 h 0.315639 v 0.94692 h 0.631279 v 0.31564 h -0.631279 v 1.5782 h 0.31564 v -0.31564 h 0.631278 v 0.31564 h -0.315639 v 0.31564 h -0.946918 v -0.31564 h -0.31564 v -1.5782 h -0.631278 z m 5.681507,0 h 0.631279 v -0.63128 h 0.315639 v -0.31564 h 0.315639 v 0.94692 h 0.631279 v 0.31564 h -0.631279 v 1.5782 h 0.31564 v -0.31564 h 0.631278 v 0.31564 h -0.315639 v 0.31564 h -0.946918 v -0.31564 h -0.315639 v -1.5782 h -0.631279 z m 4.103313,0 h 0.631278 v 0.31564 h 0.31564 v 1.89384 H 82.05635 v -1.89384 h -0.315639 z m -0.31564,2.20948 h -0.946918 v -0.31564 h 0.31564 v -2.52512 h -0.31564 v -0.31564 h 0.946918 v 1.26256 h 0.31564 v 0.31564 h -0.31564 z m 2.525113,-1.5782 h 0.946918 v -0.31564 h -0.946918 z m -0.31564,-0.63128 h 1.578197 v 0.31564 h 0.31564 v 0.63128 h -1.578197 v 0.94692 h 0.946918 v -0.31564 h 0.631279 v 0.31564 h -0.31564 v 0.31564 h -1.578197 v -0.31564 h -0.315639 v -1.5782 h 0.315639 z m 6.944069,0.31564 h -0.946918 v 0.31564 h 0.315639 v 0.31564 h 0.631279 v 0.31564 h 0.315639 v 0.31564 h 0.315639 v 0.31564 h -0.315639 v 0.31564 h -1.578197 v -0.31564 h -0.315639 v -0.31564 h 0.631279 v 0.31564 h 0.946918 v -0.31564 h -0.31564 v -0.31564 h -0.631278 v -0.31564 h -0.31564 v -0.31564 h -0.315639 v -0.31564 h 0.315639 v -0.31564 h 1.578197 v 0.31564 h 0.315639 v 0.31564 h -0.631278 z m 1.893833,0.31564 h 0.946918 v -0.31564 h -0.946918 z m -0.315639,-0.63128 h 1.578197 v 0.31564 h 0.315639 v 0.63128 h -1.578197 v 0.94692 h 0.946918 v -0.31564 h 0.631279 v 0.31564 h -0.315639 v 0.31564 h -1.578197 v -0.31564 h -0.31564 v -1.5782 h 0.31564 z m 3.156398,-0.94692 h 0.946919 v 2.84076 h 0.315639 v 0.31564 h -1.262558 v -0.31564 h 0.31564 v -2.52512 h -0.31564 z m 2.840752,1.5782 h 0.946918 v -0.31564 h -0.946918 z m -0.315639,-0.63128 h 1.578197 v 0.31564 h 0.315639 v 0.63128 h -1.578197 v 0.94692 h 0.946918 v -0.31564 h 0.631279 v 0.31564 h -0.315639 v 0.31564 h -1.578197 v -0.31564 h -0.31564 v -1.5782 h 0.31564 z m 4.103312,0.31564 h -0.94692 v 1.5782 h 0.94692 v -0.31564 h 0.63128 v 0.31564 h -0.31564 v 0.31564 h -1.5782 v -0.31564 h -0.31564 v -1.5782 h 0.31564 v -0.31564 h 1.5782 v 0.31564 h 0.31564 v 0.31564 h -0.63128 z m 1.26256,-0.31564 h 0.63128 v -0.63128 h 0.31564 v -0.31564 h 0.31564 v 0.94692 h 0.63128 v 0.31564 h -0.63128 v 1.5782 h 0.31564 v -0.31564 h 0.63127 v 0.31564 h -0.31563 v 0.31564 h -0.94692 v -0.31564 h -0.31564 v -1.5782 h -0.63128 z m 3.47203,0.63128 h 0.94692 v -0.31564 h -0.94692 z m -0.31564,-0.63128 h 1.5782 v 0.31564 h 0.31564 v 0.63128 h -1.5782 v 0.94692 h 0.94692 v -0.31564 h 0.63128 v 0.31564 h -0.31564 v 0.31564 h -1.5782 v -0.31564 h -0.31564 v -1.5782 h 0.31564 z m 3.78768,0.31564 h -0.31564 v 0.31564 h -0.31564 v 1.26256 h 0.62881 l 0.002,0.002 v 0.31318 h -0.94692 v -0.31564 h -0.31564 v -1.26256 h 0.31564 v -0.31564 h 0.31564 v -0.31564 h 0.63128 v -0.63128 h -0.31564 v -0.31564 h 0.94692 v 2.84076 h 0.31564 v 0.31564 h -0.63128 v -0.31564 h -0.31564 z m 5.99714,-0.94692 h -0.94692 v 2.52512 h 0.94692 z m -1.5782,0 h 0.31564 v -0.31564 h 1.5782 v 0.31564 h 0.31564 v 2.52512 h -0.31564 v 0.31564 h -1.5782 v -0.31564 h -0.31564 z m 2.84076,1.89384 h 0.63128 v 0.63128 h 0.94692 v -0.94692 h -0.31564 v -0.31564 h -0.63128 v -0.31564 h -0.31564 v -0.31564 h -0.31564 v -0.63128 h 0.31564 v -0.31564 h 1.5782 v 0.31564 h 0.31564 v 0.63128 h -0.63128 v -0.63128 h -0.94692 v 0.63128 h 0.31564 v 0.31564 h 0.63128 v 0.31564 h 0.31564 v 0.31564 h 0.31564 v 0.94692 h -0.31564 v 0.31564 h -1.5782 v -0.31564 h -0.31564 z m 3.47203,0.94692 h 0.31564 v -0.94692 h 0.63128 v 0.94692 h -0.31564 v 0.31563 h -0.63128 z m 5.36587,-2.52512 h 0.31564 v -0.94692 h 0.63128 v 0.94692 h -0.31564 v 0.31564 h -0.63128 z m 3.1564,0.94692 h 0.94691 v -0.31564 h -0.94691 z m -0.31564,-0.63128 h 1.57819 v 0.31564 h 0.31564 v 0.63128 h -1.57819 v 0.94692 h 0.94691 v -0.31564 h 0.63128 v 0.31564 h -0.31564 v 0.31564 h -1.57819 v -0.31564 h -0.31564 v -1.5782 h 0.31564 z m 2.84076,-0.31564 h 0.31564 v -0.94692 h 0.63127 v 0.94692 h -0.31564 v 0.31564 h -0.63127 z m 5.36586,0.31564 h 0.63128 v -0.63128 h 0.31564 v -0.31564 h 0.31564 v 0.94692 h 0.63128 v 0.31564 h -0.63128 v 1.5782 h 0.31564 v -0.31564 h 0.63128 v 0.31564 h -0.31564 v 0.31564 h -0.94692 v -0.31564 h -0.31564 v -1.5782 h -0.63128 z m 4.41896,0.31564 h -0.94692 v 1.5782 h 0.94692 z m -1.26256,1.5782 H 140.134 v -1.5782 h 0.31564 v -0.31564 h 1.5782 v 0.31564 h 0.31563 v 1.5782 h -0.31563 v 0.31564 h -1.5782 z m 5.99714,-1.26256 h 0.94692 v -0.31564 h -0.94692 z m -0.31564,-0.63128 h 1.5782 v 0.31564 h 0.31564 v 0.63128 h -1.5782 v 0.94692 h 0.94692 v -0.31564 h 0.63128 v 0.31564 h -0.31564 v 0.31564 h -1.5782 v -0.31564 h -0.31564 v -1.5782 h 0.31564 z m 3.78768,0.31564 h -0.31564 v 0.31564 h -0.31564 v 1.26256 h 0.62881 l 0.002,0.002 v 0.31318 h -0.94692 v -0.31564 h -0.31564 v -1.26256 h 0.31564 v -0.31564 h 0.31564 v -0.31564 h 0.63128 v -0.63128 h -0.31564 v -0.31564 h 0.94692 v 2.84076 h 0.31564 v 0.31564 h -0.63128 v -0.31564 h -0.31564 z m 2.52512,-1.26256 h 0.63128 v 0.63128 h -0.63128 z m -0.31564,0.94692 h 0.94692 v 1.89384 h 0.31564 v 0.31564 h -1.26256 v -0.31564 h 0.31564 v -1.5782 h -0.31564 z m 2.20946,0 h 0.63128 v -0.63128 h 0.31564 v -0.31564 h 0.31564 v 0.94692 h 0.63128 v 0.31564 h -0.63128 v 1.5782 h 0.31564 v -0.31564 h 0.63128 v 0.31564 h -0.31564 v 0.31564 h -0.94692 v -0.31564 h -0.31564 v -1.5782 h -0.63128 z m 5.68152,0 h 0.63128 v -0.63128 h 0.31564 v -0.31564 h 0.31564 v 0.94692 h 0.63128 v 0.31564 h -0.63128 v 1.5782 h 0.31564 v -0.31564 h 0.63128 v 0.31564 h -0.31564 v 0.31564 h -0.94692 v -0.31564 h -0.31564 v -1.5782 h -0.63128 z m 4.1033,0 h 0.63128 v 0.31564 h 0.31564 v 1.89384 h -0.63128 v -1.89384 h -0.31564 z m -0.31563,2.20948 h -0.94692 v -0.31564 h 0.31564 v -2.52512 h -0.31564 v -0.31564 h 0.94692 v 1.26256 h 0.31563 v 0.31564 h -0.31563 z m 2.52512,-1.5782 h 0.94691 v -0.31564 h -0.94691 z m -0.31564,-0.63128 h 1.57819 v 0.31564 h 0.31564 v 0.63128 h -1.57819 v 0.94692 h 0.94691 v -0.31564 h 0.63128 v 0.31564 h -0.31564 v 0.31564 h -1.57819 v -0.31564 h -0.31564 v -1.5782 h 0.31564 z m 6.94406,0.31564 h -0.94692 v 1.5782 h 0.94692 v -0.31564 h 0.63128 v 0.31564 h -0.31564 v 0.31564 h -1.5782 v -0.31564 h -0.31564 v -1.5782 h 0.31564 v -0.31564 h 1.5782 v 0.31564 h 0.31564 v 0.31564 h -0.63128 z m 2.84076,0 h -0.94692 v 1.5782 h 0.94692 z m -1.26256,1.5782 h -0.31564 v -1.5782 h 0.31564 v -0.31564 h 1.5782 v 0.31564 h 0.31563 v 1.5782 h -0.31563 v 0.31564 h -1.5782 z m 4.10332,-1.26256 h -0.31564 v 1.26256 h -0.31564 v -1.26256 h -0.31564 v 1.5782 h -0.63128 v -2.20948 h 0.94692 v 0.31564 h 0.31564 v -0.31564 h 0.63127 v 0.31564 h 0.31564 v 1.89384 h -0.63127 z m 2.84074,0 h -0.31564 v 1.26256 h -0.31564 v -1.26256 h -0.31564 v 1.5782 h -0.63128 v -2.20948 h 0.94692 v 0.31564 h 0.31564 v -0.31564 h 0.63128 v 0.31564 h 0.31564 v 1.89384 h -0.63128 z m 2.52512,1.5782 h -0.94692 v -0.31564 h -0.31564 v -0.94692 h 0.31564 v -0.31564 h 0.94692 v -0.31564 h -0.94692 v -0.31564 h 1.26256 v 0.31564 h 0.31564 v 1.5782 h 0.31564 v 0.31564 h -0.63128 v -0.31564 h -0.31317 l -0.002,-0.002 v -0.94445 h -0.63128 v 0.94692 h 0.63128 z m 1.89384,-1.89384 h -0.31564 v -0.31564 h 0.63128 v 0.31564 h 0.31564 v 1.89384 h -0.63128 z m 0.63128,-0.31564 h 0.94692 v 0.31564 h 0.31564 v 1.89384 h -0.63128 v -1.89384 h -0.63128 z m 3.1564,0.31564 h -0.31564 v 0.31564 h -0.31564 v 1.26256 h 0.62881 l 0.002,0.002 v 0.31318 h -0.94692 v -0.31564 h -0.31564 v -1.26256 h 0.31564 v -0.31564 h 0.31564 v -0.31564 h 0.63128 v -0.63128 h -0.31564 v -0.31564 h 0.94692 v 2.84076 h 0.31564 v 0.31564 h -0.63128 v -0.31564 h -0.31564 z m 3.15638,0 h -0.94692 v 0.31564 h 0.31564 v 0.31564 h 0.63128 v 0.31564 h 0.31564 v 0.31564 h 0.31564 v 0.31564 h -0.31564 v 0.31564 h -1.5782 v -0.31564 h -0.31564 v -0.31564 h 0.63128 v 0.31564 h 0.94692 v -0.31564 h -0.31564 v -0.31564 h -0.63128 v -0.31564 h -0.31564 v -0.31564 h -0.31564 v -0.31564 h 0.31564 v -0.31564 h 1.5782 v 0.31564 h 0.31564 v 0.31564 h -0.63128 z m 5.36588,0 h -0.31564 v 1.5782 h 0.63128 v -1.26256 h -0.31564 z m -0.31564,-0.31564 h 0.63128 v 0.31564 h 0.31564 v 0.31564 h 0.31564 v 1.26256 h -0.31564 v 0.31564 h -1.5782 v -2.84076 h -0.31564 v -0.31564 h 0.94692 z m 2.52511,0.63128 h 0.94691 v -0.31564 h -0.94691 z m -0.31564,-0.63128 h 1.57819 v 0.31564 h 0.31564 v 0.63128 h -1.57819 v 0.94692 h 0.94691 v -0.31564 h 0.63128 v 0.31564 h -0.31564 v 0.31564 h -1.57819 v -0.31564 h -0.31564 v -1.5782 h 0.31564 z m 2.84076,0.31564 h 0.31563 v -0.94692 h 0.31564 v -0.31564 h 0.94692 v 0.31564 h 0.31564 v 0.63128 h -0.31564 v -0.31564 h -0.31564 v -0.31564 h -0.31564 v 0.94692 h 0.31564 v 0.31564 h -0.31564 v 1.26256 h 0.31564 v 0.31564 h -1.26255 v -0.31564 h 0.31563 v -1.26256 h -0.31563 z m 4.10331,0 h -0.94692 v 1.5782 h 0.94692 z m -1.26256,1.5782 h -0.31563 v -1.5782 h 0.31563 v -0.31564 h 1.5782 v 0.31564 h 0.31564 v 1.5782 h -0.31564 v 0.31564 h -1.5782 z m 3.78767,-1.26256 h -0.31564 v 1.26256 h 0.31564 v 0.31564 h -1.26256 v -0.31564 h 0.31564 v -1.5782 h -0.31564 v -0.31564 h 0.63128 v 0.31564 h 0.31564 v -0.31564 h 0.94692 v 0.31564 h 0.31564 v 0.63128 h -0.63128 v -0.63128 h -0.31564 z m 2.20948,0 h 0.94692 v -0.31564 h -0.94692 z m -0.31564,-0.63128 h 1.57819 v 0.31564 h 0.31564 v 0.63128 h -1.57819 v 0.94692 h 0.94692 v -0.31564 h 0.63127 v 0.31564 h -0.31564 v 0.31564 h -1.57819 v -0.31564 h -0.31564 v -1.5782 h 0.31564 z m 6.62842,0.31564 h -0.31564 v 1.5782 h 0.63128 v -1.26256 h -0.31564 z m -0.31564,-0.31564 h 0.63128 v 0.31564 h 0.31564 v 0.31564 h 0.31564 v 1.26256 h -0.31564 v 0.31564 H 217.15 v -2.84076 h -0.31564 v -0.31564 h 0.94692 z m 3.47204,0.31564 h -0.94692 v 1.5782 h 0.94692 z m -1.26256,1.5782 h -0.31564 v -1.5782 h 0.31564 v -0.31564 h 1.5782 v 0.31564 h 0.31564 v 1.5782 h -0.31564 v 0.31564 h -1.5782 z m 4.10332,-1.5782 h -0.94692 v 1.5782 h 0.94692 z m -1.26256,1.5782 h -0.31564 v -1.5782 h 0.31564 v -0.31564 h 1.5782 v 0.31564 h 0.31564 v 1.5782 h -0.31564 v 0.31564 h -1.5782 z m 2.52512,-1.89384 h 0.63128 v -0.63128 h 0.31564 v -0.31564 h 0.31564 v 0.94692 h 0.63128 v 0.31564 h -0.63128 v 1.5782 h 0.31564 v -0.31564 h 0.63128 v 0.31564 h -0.31564 v 0.31564 h -0.94692 v -0.31564 h -0.31564 v -1.5782 h -0.63128 z m 3.78766,-0.94692 h 0.63128 v 0.63128 h -0.63128 z m -0.31564,0.94692 h 0.94692 v 1.89384 h 0.31564 v 0.31564 h -1.26256 v -0.31564 h 0.31564 v -1.5782 h -0.31564 z m 2.52512,0.31564 h -0.31564 v -0.31564 h 0.63128 v 0.31564 h 0.31564 v 1.89384 h -0.63128 z m 0.63128,-0.31564 h 0.94692 v 0.31564 h 0.31564 v 1.89384 h -0.63128 v -1.89384 h -0.63128 z m 3.1564,0.31811 0.002,-0.002 h 0.31317 v -0.31564 h 0.63128 v 0.31564 h -0.31564 v 2.52511 h -0.31564 v 0.31564 h -1.26256 v -0.31564 h -0.31564 v -0.31564 h 0.63128 v 0.31564 h 0.63128 v -0.63127 h -0.94692 v -0.31564 h -0.31564 v -1.5782 h 0.31564 v -0.31564 h 0.94692 v 0.31564 h -0.63128 v 1.5782 h 0.63128 z m 5.99714,-0.002 h -0.94692 v 1.5782 h 0.94692 z m -1.26255,1.5782 h -0.31564 v -1.5782 h 0.31564 v -0.31564 h 1.57819 v 0.31564 h 0.31564 v 1.5782 h -0.31564 v 0.31564 h -1.57819 z m 3.78767,-1.26256 h -0.31564 v 1.26256 h 0.31564 v 0.31564 h -1.26255 v -0.31564 h 0.31563 v -1.5782 h -0.31563 v -0.31564 h 0.63127 v 0.31564 h 0.31564 v -0.31564 h 0.94692 v 0.31564 h 0.31564 v 0.63128 h -0.63128 v -0.63128 h -0.31564 z m 4.73459,-0.94692 h 0.31564 v -0.94692 h 0.63128 v 0.94692 h -0.31564 v 0.31564 h -0.63128 z m 4.10331,0.63128 h -0.94691 v 1.5782 h 0.94691 v -0.31564 h 0.63128 v 0.31564 h -0.31564 v 0.31564 h -1.57819 v -0.31564 h -0.31564 v -1.5782 h 0.31564 v -0.31564 h 1.57819 v 0.31564 h 0.31564 v 0.31564 h -0.63128 z m 1.57819,-0.63128 h 0.31564 v -0.94692 h 0.63128 v 0.94692 h -0.31564 v 0.31564 h -0.63128 z m 5.68152,0.63128 h 0.31564 v -0.94692 h 0.31564 v -0.31564 h 0.94692 v 0.31564 h 0.31564 v 0.63128 h -0.31564 v -0.31564 h -0.31564 v -0.31564 h -0.31564 v 0.94692 h 0.31564 v 0.31564 h -0.31564 v 1.26256 h 0.31564 v 0.31564 h -1.26256 v -0.31564 h 0.31564 v -1.26256 h -0.31564 z m 4.1033,0 h -0.94692 v 1.5782 h 0.94692 z m -1.26256,1.5782 h -0.31564 v -1.5782 h 0.31564 v -0.31564 h 1.5782 v 0.31564 h 0.31564 v 1.5782 h -0.31564 v 0.31564 h -1.5782 z m 3.78768,-1.26256 h -0.31564 v 1.26256 h 0.31564 v 0.31564 h -1.26256 v -0.31564 h 0.31564 v -1.5782 h -0.31564 v -0.31564 h 0.63128 v 0.31564 h 0.31564 v -0.31564 h 0.94692 v 0.31564 h 0.31564 v 0.63128 h -0.63128 v -0.63128 h -0.31564 z m 5.6815,1.5782 h -0.94691 v -0.31564 h -0.31564 v -0.94692 h 0.31564 v -0.31564 h 0.94691 v -0.31564 h -0.94691 v -0.31564 h 1.26255 v 0.31564 h 0.31564 v 1.5782 h 0.31564 v 0.31564 h -0.63128 v -0.31564 h -0.31317 l -0.002,-0.002 v -0.94445 h -0.63127 v 0.94692 h 0.63127 z m 5.99716,-1.89384 h -0.94692 v 1.5782 h 0.94692 v -0.31564 h 0.63128 v 0.31564 h -0.31564 v 0.31564 h -1.5782 v -0.31564 h -0.31563 v -1.5782 h 0.31563 v -0.31564 h 1.5782 v 0.31564 h 0.31564 v 0.31564 h -0.63128 z m 2.84076,0 h -0.94692 v 1.5782 h 0.94692 z m -1.26256,1.5782 h -0.31564 v -1.5782 h 0.31564 v -0.31564 h 1.5782 v 0.31564 h 0.31564 v 1.5782 h -0.31564 v 0.31564 h -1.5782 z m 4.10332,-1.26256 h -0.31564 v 1.26256 h -0.31564 v -1.26256 h -0.31564 v 1.5782 h -0.63128 v -2.20948 h 0.94692 v 0.31564 h 0.31564 v -0.31564 h 0.63128 v 0.31564 h 0.31564 v 1.89384 h -0.63128 z m 2.84073,0 h -0.31564 v 1.26256 h -0.31564 v -1.26256 h -0.31564 v 1.5782 h -0.63128 v -2.20948 h 0.94692 v 0.31564 h 0.31564 v -0.31564 h 0.63128 v 0.31564 h 0.31564 v 1.89384 h -0.63128 z m 2.52512,1.5782 h -0.94692 v -0.31564 h -0.31564 v -0.94692 h 0.31564 v -0.31564 h 0.94692 v -0.31564 h -0.94692 v -0.31564 h 1.26256 v 0.31564 h 0.31564 v 1.5782 h 0.31564 v 0.31564 h -0.63128 v -0.31564 h -0.31317 l -0.002,-0.002 v -0.94445 h -0.63128 v 0.94692 h 0.63128 z m 1.89384,-1.89384 h -0.31564 v -0.31564 h 0.63128 v 0.31564 h 0.31564 v 1.89384 h -0.63128 z m 0.63128,-0.31564 h 0.94692 v 0.31564 h 0.31564 v 1.89384 h -0.63128 v -1.89384 h -0.63128 z m 3.1564,0.31564 h -0.31564 v 0.31564 h -0.31564 v 1.26256 h 0.62881 l 0.002,0.002 v 0.31318 h -0.94692 v -0.31564 h -0.31564 v -1.26256 h 0.31564 v -0.31564 h 0.31564 v -0.31564 h 0.63128 v -0.63128 h -0.31564 v -0.31564 h 0.94692 v 2.84076 h 0.31564 v 0.31564 h -0.63128 v -0.31564 h -0.31564 z m 1.5782,0.31564 h 2.20948 v 0.31564 h -2.20948 z m 3.47204,-1.5782 h 0.94692 v 2.84076 h 0.31564 v 0.31564 h -1.26256 v -0.31564 h 0.31564 v -2.52512 h -0.31564 z m 3.1564,0 h 0.63128 v 0.63128 h -0.63128 z m -0.31564,0.94692 h 0.94692 v 1.89384 h 0.31563 v 0.31564 h -1.26255 v -0.31564 h 0.31564 v -1.5782 h -0.31564 z m 2.52509,0.31564 h -0.31564 v -0.31564 h 0.63128 v 0.31564 h 0.31564 v 1.89384 h -0.63128 z m 0.63128,-0.31564 h 0.94691 v 0.31564 h 0.31564 v 1.89384 h -0.63128 v -1.89384 h -0.63127 z m 2.52512,0.63128 h 0.94691 v -0.31564 h -0.94691 z m -0.31564,-0.63128 h 1.57819 v 0.31564 h 0.31564 v 0.63128 h -1.57819 v 0.94692 h 0.94691 v -0.31564 h 0.63128 v 0.31564 h -0.31564 v 0.31564 h -1.57819 v -0.31564 h -0.31564 v -1.5782 h 0.31564 z m 3.47203,1.5782 h 0.63128 v 0.63128 h -0.63128 z m 5.99716,-0.94692 h -0.31564 v 1.26256 h 0.63128 v -0.31564 h 0.31564 v -0.31564 h 0.31564 v 0.94692 h -2.20948 v -0.31564 h 0.31564 v -2.52512 h -0.31564 v -0.31564 h 2.20948 v 0.94692 h -0.31564 v -0.31564 h -0.31564 v -0.31564 h -0.63128 v 0.94692 h 0.31564 v -0.31564 h 0.31564 v 0.94692 h -0.31564 z m 1.5782,0.63128 h 0.63128 v 0.63128 h 0.94692 v -0.94692 h -0.31564 v -0.31564 h -0.63128 v -0.31564 h -0.31564 v -0.31564 h -0.31564 v -0.63128 h 0.31564 v -0.31564 h 1.5782 v 0.31564 h 0.31564 v 0.63128 h -0.63128 v -0.63128 h -0.94692 v 0.63128 h 0.31564 v 0.31564 h 0.63128 v 0.31564 h 0.31564 v 0.31564 h 0.31564 v 0.94692 h -0.31564 v 0.31564 h -1.5782 v -0.31564 h -0.31564 z m 4.41893,-1.89384 h -0.63128 v 0.31564 h -0.31564 v 1.89384 h 0.31564 v 0.31564 h 0.63128 v -0.31564 h 0.31564 v -0.31564 h 0.31564 v 0.63128 h -0.31564 v 0.31564 h -1.26256 v -0.31564 h -0.31564 v -0.31564 h -0.31564 v -1.89384 h 0.31564 v -0.31564 h 0.31564 v -0.31564 h 1.26256 v 0.31564 h 0.31564 v 0.63128 h -0.31564 v -0.31564 h -0.31564 z m 4.10332,0.63128 h 0.63128 v -0.63128 h 0.31564 v -0.31564 h 0.31564 v 0.94692 h 0.63128 v 0.31564 h -0.63128 v 1.5782 h 0.31564 v -0.31564 h 0.63128 v 0.31564 h -0.31564 v 0.31564 h -0.94692 v -0.31564 h -0.31564 v -1.5782 h -0.63128 z m 4.41896,0.31564 h -0.94692 v 1.5782 h 0.94692 z m -1.26256,1.5782 h -0.31564 v -1.5782 h 0.31564 v -0.31564 h 1.5782 v 0.31564 h 0.31564 v 1.5782 h -0.31564 v 0.31564 h -1.5782 z m 6.62844,-1.26256 h -0.31564 v 1.26256 h 0.31564 v 0.31564 h -1.26256 v -0.31564 h 0.31564 v -1.5782 h -0.31564 v -0.31564 h 0.63128 v 0.31564 h 0.31564 v -0.31564 h 0.94691 v 0.31564 h 0.31564 v 0.63128 h -0.63127 v -0.63128 h -0.31564 z m 2.20945,0 h 0.94691 v -0.31564 h -0.94691 z m -0.31564,-0.63128 h 1.57819 v 0.31564 h 0.31564 v 0.63128 h -1.57819 v 0.94692 h 0.94691 v -0.31564 h 0.63128 v 0.31564 h -0.31564 v 0.31564 h -1.57819 v -0.31564 h -0.31564 v -1.5782 h 0.31564 z m 2.52512,0 h 0.63128 v -0.63128 h 0.31563 v -0.31564 h 0.31564 v 0.94692 h 0.63128 v 0.31564 h -0.63128 v 1.5782 h 0.31564 v -0.31564 h 0.63128 v 0.31564 h -0.31564 v 0.31564 h -0.94692 v -0.31564 h -0.31563 v -1.5782 h -0.63128 z m 4.10331,0 h 0.63128 v 1.89384 h 0.31564 v 0.31564 h -0.63128 v -0.31564 h -0.31564 z m -1.26255,0 h 0.63127 v 1.89384 h 0.63128 v 0.31564 h -0.94691 v -0.31564 h -0.31564 z m 4.10331,0.63128 h -0.31564 v 1.26256 h 0.31564 v 0.31564 h -1.26255 v -0.31564 h 0.31563 v -1.5782 h -0.31563 v -0.31564 h 0.63127 v 0.31564 h 0.31564 v -0.31564 h 0.94692 v 0.31564 h 0.31564 v 0.63128 h -0.63128 v -0.63128 h -0.31564 z m 1.89384,-0.31564 h -0.31564 v -0.31564 h 0.63128 v 0.31564 h 0.31564 v 1.89384 h -0.63128 z m 0.63128,-0.31564 h 0.94692 v 0.31564 h 0.31564 v 1.89384 h -0.63128 v -1.89384 h -0.63128 z m 5.68152,0 h 0.94692 v 0.31564 h 0.31564 v 1.5782 h -0.31564 v 0.31564 h -0.94692 v 0.63127 h 0.31564 v 0.31564 h -1.26256 v -0.31564 h 0.31564 v -2.52511 h -0.31564 v -0.31564 h 0.63128 v 0.31564 h 0.31318 l 0.002,0.002 v 1.57573 h 0.63128 v -1.5782 h -0.63128 z m 3.15637,0.63128 H 359.819 v 1.26256 h 0.31564 v 0.31564 h -1.26256 v -0.31564 h 0.31564 v -1.5782 h -0.31564 v -0.31564 h 0.63128 v 0.31564 h 0.31564 v -0.31564 h 0.94692 v 0.31564 h 0.31564 v 0.63128 h -0.63128 v -0.63128 h -0.31564 z m 2.20948,0 h 0.94692 v -0.31564 h -0.94692 z m -0.31564,-0.63128 h 1.5782 v 0.31564 h 0.31564 v 0.63128 h -1.5782 v 0.94692 h 0.94692 v -0.31564 h 0.63128 v 0.31564 h -0.31564 v 0.31564 h -1.5782 v -0.31564 h -0.31564 v -1.5782 h 0.31564 z m 4.10332,0 h 0.63128 v 1.5782 h -0.31564 v 0.31564 h -0.31564 v 0.31564 h -0.94692 v -0.31564 h -0.31564 v -0.31564 h -0.31564 v -1.5782 h 0.63128 v 1.5782 h 0.31564 v 0.31564 h 0.31564 v -0.31564 h 0.31564 z m 2.20948,-0.94692 h 0.63128 v 0.63128 h -0.63128 z m -0.31564,0.94692 h 0.94692 v 1.89384 h 0.31564 v 0.31564 h -1.26256 v -0.31564 h 0.31564 v -1.5782 h -0.31564 z m 3.78768,0.31564 h -0.94692 v 1.5782 h 0.94692 z m -1.26256,1.5782 h -0.31564 v -1.5782 h 0.31564 v -0.31564 h 1.5782 v 0.31564 h 0.31563 v 1.5782 h -0.31563 v 0.31564 h -1.5782 z m 3.78768,-1.89384 h 0.63127 v 1.89384 h 0.31564 v 0.31564 h -0.63127 v -0.31564 h -0.31564 z m -1.26256,0 h 0.63128 v 1.89384 h 0.63128 v 0.31564 h -0.94692 v -0.31564 h -0.31564 z m 4.41892,0.31564 h -0.94691 v 0.31564 h 0.31564 v 0.31564 h 0.63127 v 0.31564 h 0.31564 v 0.31564 h 0.31564 v 0.31564 h -0.31564 v 0.31564 h -1.57819 v -0.31564 h -0.31564 v -0.31564 h 0.63128 v 0.31564 h 0.94691 v -0.31564 h -0.31564 v -0.31564 h -0.63127 v -0.31564 h -0.31564 v -0.31564 h -0.31564 v -0.31564 h 0.31564 v -0.31564 h 1.57819 v 0.31564 h 0.31564 v 0.31564 h -0.63128 z m 5.68152,0.31564 h -0.31564 v 1.26256 h -0.31564 v -1.26256 h -0.31564 v 1.5782 h -0.63127 v -2.20948 h 0.94691 v 0.31564 h 0.31564 v -0.31564 h 0.63128 v 0.31564 h 0.31564 v 1.89384 h -0.63128 z m 1.89384,0 h 0.94692 v -0.31564 h -0.94692 z m -0.31564,-0.63128 h 1.5782 v 0.31564 h 0.31564 v 0.63128 h -1.5782 v 0.94692 h 0.94692 v -0.31564 h 0.63128 v 0.31564 h -0.31564 v 0.31564 h -1.5782 v -0.31564 h -0.31564 v -1.5782 h 0.31564 z m 2.84076,0.31564 h -0.31564 v -0.31564 h 0.63128 v 0.31564 h 0.31564 v 1.89384 h -0.63128 z m 0.63128,-0.31564 h 0.94692 v 0.31564 h 0.31564 v 1.89384 h -0.63128 v -1.89384 h -0.63128 z m 3.1564,0 h 0.63128 v 1.89384 h 0.31564 v 0.31564 h -0.63128 v -0.31564 h -0.31564 z m -1.26256,0 h 0.63128 v 1.89384 h 0.63128 v 0.31564 h -0.94692 v -0.31564 h -0.31564 z m 3.78768,1.5782 h 0.63128 v 0.63128 h -0.63128 z"
       id="text13"
       aria-label="Press enter to boot the selected OS, 'e' to edit the commands before booting or 'c' for a command-line. ESC to return previous menu. " /></g></svg>
