<?xml version="1.0" encoding="UTF-8" standalone="no" ?>
<!-- Uploaded to: SVG Repo, www.svgrepo.com, Generator: SVG Repo Mixer Tools -->
<svg
  fill="#000000"
  width="600.30121"
  height="611.72705"
  viewBox="0 0 1440.7229 1468.1449"
  version="1.1"
  id="svg1"
  sodipodi:docname="email (Copy).svg"
  xml:space="preserve"
  inkscape:version="1.4.3 (0d15f75042, 2025-12-25)"
  xmlns:inkscape="http://www.inkscape.org/namespaces/inkscape"
  xmlns:sodipodi="http://sodipodi.sourceforge.net/DTD/sodipodi-0.dtd"
  xmlns="http://www.w3.org/2000/svg"
  xmlns:svg="http://www.w3.org/2000/svg"
><defs id="defs1" /><sodipodi:namedview
    id="namedview1"
    pagecolor="#ffffff"
    bordercolor="#000000"
    borderopacity="0.25"
    inkscape:showpageshadow="2"
    inkscape:pageopacity="0.0"
    inkscape:pagecheckerboard="0"
    inkscape:deskcolor="#d1d1d1"
    inkscape:zoom="0.84676037"
    inkscape:cx="141.7166"
    inkscape:cy="386.76822"
    inkscape:window-width="2560"
    inkscape:window-height="1371"
    inkscape:window-x="0"
    inkscape:window-y="0"
    inkscape:window-maximized="1"
    inkscape:current-layer="svg1"
  /><path
    id="path1-3"
    style="clip-rule:evenodd;fill:#9ca3af;fill-opacity:1;fill-rule:nonzero;stroke-width:2.4;stroke-linejoin:round;stroke-miterlimit:2"
    d="M 734.07239,0 C 331.36908,0 0,331.37203 0,734.0724 c 0,402.7003 331.36908,734.0725 734.07239,734.0725 321.21241,0 606.84391,-210.8397 701.48641,-517.79642 6.3541,-20.72726 14.4559,-55.73669 -27.4244,-86.74098 a 356.61531,356.61531 0 0 0 -146.9178,-63.1589 v 1.27889 a 382.58679,382.58679 0 0 1 -21.3225,74.41659 279.68158,279.68158 0 0 1 121.4546,50.02589 c 0,0.34061 -0.2092,0.76806 -0.3384,1.15272 -84.5299,273.71211 -339.2863,461.66851 -625.75651,461.66851 -359.27852,0 -654.92448,-295.6403 -654.92448,-654.9188 0,-359.27852 295.64596,-654.924482 654.92448,-654.924482 286.46731,0 541.22661,187.956342 625.75651,461.668452 0,0.38172 0.2122,0.81211 0.3384,1.15272 a 279.16186,279.16186 0 0 1 -121.4546,49.98001 384.9828,384.9828 0 0 1 21.3225,74.50261 9.2962929,9.2962929 0 0 0 0,1.19861 356.5096,356.5096 0 0 0 146.9178,-63.11876 c 41.8773,-31.00721 33.7785,-66.01371 27.4244,-86.74098 C 1340.9163,210.83381 1055.2848,0 734.07239,0 Z m -72.63302,222.84259 c -136.42001,-0.006 -262.88797,73.00116 -331.10679,191.13983 l -74.41659,128.92147 c -68.19239,118.15042 -68.19239,264.17513 0,382.32555 l 74.41659,128.92146 c 68.21882,118.1387 194.68972,191.1458 331.10679,191.1399 h 148.87904 c 136.4171,0 262.88799,-73.0012 331.10679,-191.1399 l 74.4166,-128.70927 a 381.45045,381.45045 0 0 0 23.41,-48.10468 l 0.3843,-0.94053 a 315.62471,315.62471 0 0 0 -50.7026,-4.26106 c -111.35,0 -153.0982,37.05537 -201.50289,79.91639 v -0.0401 c -46.6136,41.36645 -104.8241,92.84295 -210.3749,92.84295 h -63.1187 c -76.37876,0 -145.85261,-27.7591 -195.57867,-78.0812 C 469.7833,917.59935 443.0471,850.30569 443.0471,777.2508 v -86.35673 c 0,-73.05488 26.739,-140.35147 75.31698,-189.52257 49.72312,-50.32214 119.19417,-78.04681 195.57293,-78.04681 h 63.1187 c 105.6771,0 163.7613,51.43062 210.3749,92.79707 48.40179,42.64667 90.15289,79.92213 201.50289,79.92213 a 320.53125,320.53125 0 0 0 50.7026,-4.0546 l -0.3785,-0.98068 a 381.45045,381.45045 0 0 0 -23.4158,-48.09894 L 1141.4252,413.98243 C 1073.2093,295.84375 946.73551,222.83672 810.31841,222.84259 Z m 52.49764,278.74106 c -116.25357,0 -192.63665,83.03152 -192.63665,189.30464 v 86.36247 c 0,106.27607 76.38308,189.30466 192.63665,189.30466 h 63.1187 c 169.3946,0 156.0859,-172.71921 411.87779,-172.71921 24.2361,-0.0264 48.4209,2.20685 72.243,6.65827 a 381.85565,381.85565 0 0 0 0,-132.84416 394.72835,394.72835 0 0 1 -72.243,6.65253 c -255.87709,0 -242.48609,-172.7192 -411.87779,-172.7192 z"
  /></svg>
