<?xml version="1.0" encoding="UTF-8" standalone="no" ?>
<!-- Created with Inkscape (http://www.inkscape.org/) -->
<svg
  width="34.594574"
  height="32"
  viewBox="0 0 9.1531475 8.4666674"
  version="1.1"
  id="svg1"
  inkscape:version="1.4.2 (1:1.4.2+202505120737+ebf0e940d0)"
  sodipodi:docname="home_page.svg"
  xml:space="preserve"
  xmlns:inkscape="http://www.inkscape.org/namespaces/inkscape"
  xmlns:sodipodi="http://sodipodi.sourceforge.net/DTD/sodipodi-0.dtd"
  xmlns="http://www.w3.org/2000/svg"
  xmlns:svg="http://www.w3.org/2000/svg"
><sodipodi:namedview
    id="namedview1"
    pagecolor="#ffffff"
    bordercolor="#000000"
    borderopacity="0.25"
    inkscape:showpageshadow="2"
    inkscape:pageopacity="0.0"
    inkscape:pagecheckerboard="0"
    inkscape:deskcolor="#d1d1d1"
    inkscape:document-units="px"
    inkscape:zoom="0.20063165"
    inkscape:cx="-112.14582"
    inkscape:cy="3152.5435"
    inkscape:window-width="2560"
    inkscape:window-height="1371"
    inkscape:window-x="0"
    inkscape:window-y="32"
    inkscape:window-maximized="1"
    inkscape:current-layer="svg1"
    showguides="false"
  ><sodipodi:guide
      position="-26.758155,1031.5048"
      orientation="1,0"
      id="guide98"
      inkscape:locked="false"
    /><sodipodi:guide
      position="243.34118,1156.5948"
      orientation="1,0"
      id="guide99"
      inkscape:locked="false"
    /><sodipodi:guide
      position="163.22095,1057.662"
      orientation="0,-1"
      id="guide100"
      inkscape:locked="false"
    /><sodipodi:guide
      position="186.75492,972.47815"
      orientation="0,-1"
      id="guide101"
      inkscape:locked="false"
    /><sodipodi:guide
      position="108.11656,710.03315"
      orientation="-0.70710678,-0.70710678"
      id="guide142"
      inkscape:locked="false"
    /><sodipodi:guide
      position="108.11656,647.82725"
      orientation="0,-1"
      id="guide205"
      inkscape:locked="false"
    /><sodipodi:guide
      position="165.00767,709.45945"
      orientation="0,-1"
      id="guide365"
      inkscape:locked="false"
    /><sodipodi:guide
      position="586.45422,609.21255"
      orientation="0,-1"
      id="guide374"
      inkscape:locked="false"
    /><sodipodi:guide
      position="590.4732,549.03015"
      orientation="0,-1"
      id="guide375"
      inkscape:locked="false"
    /><inkscape:page
      x="0"
      y="0"
      width="9.1531477"
      height="8.4666672"
      id="page1"
      margin="0"
      bleed="0"
    /></sodipodi:namedview><defs id="defs1" /><g
    inkscape:label="Layer 1"
    inkscape:groupmode="layer"
    id="layer1"
    transform="translate(-409.88342,-1437.816)"
  ><g
      id="g423"
      transform="matrix(0.28016407,0,0,0.28016407,291.32939,1015.2835)"
      style="display:inline;stroke-width:3.56934"
    ><path
        d="m 455.60728,1532.3177 c 0.25947,0.7445 0.1972,1.5374 -0.14878,2.2268 -0.24908,0.5033 -0.60539,0.8928 -1.04128,1.2409 -0.52587,0.4136 -1.17974,0.7652 -1.96847,1.103 -0.94098,0.3999 -2.08955,0.7756 -2.61542,0.9135 -1.34577,0.3481 -2.6396,0.5687 -3.9508,0.5791 -1.87504,0.017 -3.49067,-0.424 -4.63924,-1.5512 -0.595,0.072 -1.19699,0.1138 -1.80237,0.1138 -0.57429,0 -1.14165,-0.034 -1.70554,-0.1034 -1.15204,1.1203 -2.76074,1.558 -4.62891,1.5408 -1.31114,-0.01 -2.60503,-0.231 -3.95422,-0.5791 -0.52239,-0.1379 -1.67096,-0.5136 -2.61194,-0.9135 -0.78878,-0.3378 -1.44263,-0.6894 -1.96502,-1.103 -0.43936,-0.3481 -0.79569,-0.7376 -1.04478,-1.2409 -0.34249,-0.6894 -0.40822,-1.4823 -0.1453,-2.2268 -0.24217,-0.5688 -0.30444,-1.2202 -0.11416,-1.9407 0.0865,-0.3274 0.22833,-0.6308 0.40822,-0.8997 -0.038,-0.1412 -0.0692,-0.286 -0.0899,-0.4446 -0.13146,-0.9444 0.1972,-1.8062 0.81645,-2.4749 0.30444,-0.3344 0.6331,-0.5654 0.97559,-0.7136 -0.25254,-1.0686 -0.384,-2.1681 -0.384,-3.2919 0,-7.9487 6.46584,-14.3912 14.44356,-14.3912 2.73996,0 5.30343,0.7583 7.48988,2.082 0.39433,0.2413 0.78181,0.4998 1.15203,0.7756 0.18335,0.1379 0.3667,0.2792 0.54312,0.4274 0.17989,0.1448 0.35631,0.2964 0.52587,0.4516 0.51201,0.4653 0.99286,0.9651 1.43221,1.4994 0.14879,0.1758 0.29064,0.3585 0.42897,0.5446 0.28025,0.3689 0.53972,0.7515 0.77841,1.1479 0.36323,0.5929 0.68151,1.2133 0.9583,1.8579 0.18335,0.4309 0.34252,0.8721 0.48431,1.3237 0.21105,0.6756 0.37369,1.3719 0.48437,2.0889 0.0346,0.2378 0.0657,0.4791 0.0899,0.7204 0.0485,0.4826 0.0761,0.972 0.0761,1.4718 0,1.11 -0.13147,2.1992 -0.37709,3.2506 0.38055,0.1482 0.74032,0.3895 1.07591,0.7549 0.61924,0.6687 0.94791,1.5338 0.81644,2.4784 -0.0207,0.1551 -0.0519,0.2999 -0.0899,0.4411 0.17989,0.2689 0.32174,0.5723 0.40819,0.8997 0.19027,0.7205 0.128,1.3719 -0.11069,1.9407 z"
        fill="#ffffff"
        id="path1-2"
        style="fill:#9ca3af;fill-opacity:1;stroke-width:0.944386"
      /><path
        d="m 451.50692,1522.6505 c 0,-6.5937 -5.37812,-11.939 -12.01229,-11.939 -6.63418,0 -12.01227,5.3453 -12.01227,11.939 0,6.5938 5.37809,11.9391 12.01227,11.9391 6.63417,0 12.01229,-5.3453 12.01229,-11.9391 z m -25.40727,0 c 0,-7.3527 5.99716,-13.3133 13.39498,-13.3133 7.39781,0 13.39497,5.9606 13.39497,13.3133 0,7.3528 -5.99716,13.3133 -13.39497,13.3133 -7.39782,0 -13.39498,-5.9605 -13.39498,-13.3133 z"
        fill="#000000"
        id="path2-3"
        style="stroke-width:0.944386"
      /><path
        d="m 436.37118,1534.5704 c 0.9534,-1.3759 0.88583,-2.4084 -0.4223,-3.6949 -1.30813,-1.2862 -2.06956,-3.1679 -2.06956,-3.1679 0,0 -0.28443,-1.0929 -0.93229,-0.9923 -0.64779,0.1006 -1.12348,1.7338 0.23353,2.7329 1.35695,0.9988 -0.27025,1.6775 -0.79233,0.7394 -0.52207,-0.9382 -1.94763,-3.3499 -2.6869,-3.8112 -0.73896,-0.4612 -1.2593,-0.2028 -1.08505,0.7479 0.17426,0.9508 3.26477,3.2552 2.96407,3.7539 -0.3007,0.4984 -1.3604,-0.586 -1.3604,-0.586 0,0 -3.31608,-2.9694 -4.03805,-2.1957 -0.72197,0.7739 0.54771,1.4223 2.35713,2.5001 1.80977,1.0776 1.95006,1.3622 1.69333,1.7699 -0.25705,0.4077 -4.2514,-2.906 -4.62658,-1.5012 -0.37484,1.4047 4.07648,1.8125 3.80176,2.7823 -0.27472,0.9701 -3.13557,-1.8357 -3.7207,-0.7424 -0.58547,1.0935 4.03697,2.3783 4.07441,2.3879 1.49311,0.3811 5.2852,1.1886 6.60993,-0.7227 z"
        fill="#ffffff"
        id="path4-5"
        style="fill:#9ca3af;fill-opacity:1;stroke-width:0.944386"
      /><path
        d="m 429.10493,1524.8231 c -0.55665,0 -1.05417,0.2272 -1.40108,0.6393 -0.21455,0.2553 -0.43873,0.6667 -0.45695,1.2827 -0.23345,-0.067 -0.45797,-0.1039 -0.6677,-0.1039 -0.53293,0 -1.01428,0.203 -1.35467,0.5717 -0.43735,0.4732 -0.63161,1.0547 -0.54703,1.6366 0.0402,0.2771 0.13341,0.5255 0.27266,0.7555 -0.29363,0.236 -0.50989,0.5648 -0.61442,0.9601 -0.0818,0.3099 -0.16572,0.9553 0.27231,1.6203 -0.0279,0.043 -0.054,0.088 -0.0784,0.1346 -0.26337,0.4967 -0.28021,1.0581 -0.0478,1.5809 0.35242,0.7923 1.22814,1.4166 2.92869,2.0867 1.05795,0.4168 2.02582,0.6833 2.03441,0.6857 1.39866,0.3604 2.6636,0.5436 3.75866,0.5436 2.01277,0 3.45375,-0.6126 4.28306,-1.8208 1.33473,-1.9455 1.14386,-3.725 -0.58311,-5.4403 -0.95588,-0.9491 -1.59126,-2.3487 -1.72364,-2.6558 -0.26679,-0.9096 -0.97234,-1.9206 -2.14509,-1.9206 h -3.3e-4 c -0.0987,0 -0.19844,0.01 -0.29671,0.023 -0.51371,0.08 -0.96274,0.3741 -1.2835,0.8162 -0.34624,-0.4278 -0.68249,-0.7681 -0.98679,-0.9601 -0.45869,-0.2891 -0.917,-0.4357 -1.36259,-0.4357 z m 0,1.3668 c 0.17535,0 0.38955,0.074 0.62574,0.2231 0.73339,0.4623 2.14855,2.8797 2.66671,3.82 0.17361,0.315 0.47039,0.4483 0.73751,0.4483 0.53018,0 0.94412,-0.5238 0.0485,-1.1895 -1.34675,-1.0014 -0.87433,-2.6384 -0.23137,-2.7392 0.0282,0 0.056,-0.01 0.0829,-0.01 0.58448,0 0.84238,1.0011 0.84238,1.0011 0,0 0.75567,1.8861 2.05401,3.1753 1.29826,1.2894 1.3653,2.3244 0.4191,3.7034 -0.64538,0.9403 -1.88072,1.063 -3.14671,1.063 -1.31304,0 -2.66142,-0.23 -3.41579,-0.4245 -0.0371,-0.01 -4.62245,-1.2115 -4.04139,-2.3076 0.0976,-0.1842 0.25856,-0.2579 0.46107,-0.2579 0.81831,0 2.30672,1.2102 2.94658,1.2102 0.14303,0 0.24961,-0.1099 0.29087,-0.2576 0.28472,-1.0186 -4.15133,-1.3312 -3.77897,-2.7393 0.0657,-0.249 0.24377,-0.3502 0.49408,-0.3499 1.08133,0 3.50735,1.8898 4.01589,1.8898 0.0388,0 0.0666,-0.011 0.0818,-0.035 0.25476,-0.4087 0.13741,-0.7414 -1.65837,-1.8214 -1.79578,-1.0804 -3.0785,-1.6829 -2.36163,-2.4585 0.0825,-0.09 0.19942,-0.1292 0.34142,-0.1292 1.09026,4e-4 3.66616,2.3299 3.66616,2.3299 0,0 0.69524,0.7186 1.11577,0.7186 0.0966,0 0.17878,-0.038 0.23445,-0.1315 0.29808,-0.4996 -2.7688,-2.8093 -2.94175,-3.7623 -0.11724,-0.6457 0.0822,-0.9727 0.4511,-0.9727 z"
        fill="#000000"
        id="path5-9"
        style="stroke-width:0.944386"
      /><path
        d="m 442.55914,1534.5704 c -0.95333,-1.3759 -0.88584,-2.4084 0.4223,-3.6949 1.30813,-1.2862 2.06962,-3.1679 2.06962,-3.1679 0,0 0.28443,-1.0929 0.93222,-0.9923 0.64786,0.1006 1.12348,1.7338 -0.23346,2.7329 -1.35701,0.9988 0.27019,1.6775 0.79226,0.7394 0.52208,-0.9382 1.94763,-3.3499 2.68697,-3.8112 0.73895,-0.4612 1.25926,-0.2028 1.08499,0.7479 -0.17426,0.9508 -3.26478,3.2552 -2.96408,3.7539 0.30071,0.4984 1.36048,-0.586 1.36048,-0.586 0,0 3.31607,-2.9694 4.03803,-2.1957 0.72195,0.7739 -0.54776,1.4223 -2.35713,2.5001 -1.80982,1.0776 -1.95011,1.3622 -1.69338,1.7699 0.25705,0.4077 4.25143,-2.906 4.62662,-1.5012 0.3748,1.4047 -4.07651,1.8125 -3.80175,2.7823 0.27469,0.9701 3.13553,-1.8357 3.72066,-0.7424 0.58546,1.0935 -4.03698,2.3783 -4.07442,2.3879 -1.49312,0.3811 -5.28514,1.1886 -6.60993,-0.7227 z"
        fill="#ffffff"
        id="path6-2"
        style="fill:#9ca3af;fill-opacity:1;stroke-width:0.944386"
      /><path
        d="m 449.82542,1524.8231 c 0.55664,0 1.05415,0.2272 1.40105,0.6393 0.21458,0.2553 0.43877,0.6667 0.457,1.2827 0.2334,-0.067 0.45791,-0.1039 0.66766,-0.1039 0.53292,0 1.01429,0.203 1.35465,0.5717 0.4374,0.4732 0.63166,1.0547 0.54704,1.6366 -0.0402,0.2771 -0.13336,0.5255 -0.27267,0.7555 0.29365,0.236 0.50993,0.5648 0.61447,0.9601 0.0818,0.3099 0.16571,0.9553 -0.27234,1.6203 0.0278,0.043 0.054,0.088 0.0784,0.1346 0.26339,0.4967 0.28018,1.0581 0.0478,1.5809 -0.35238,0.7923 -1.22809,1.4166 -2.92866,2.0867 -1.05794,0.4168 -2.02585,0.6833 -2.0344,0.6857 -1.3987,0.3604 -2.66364,0.5436 -3.7587,0.5436 -2.01278,0 -3.45375,-0.6126 -4.283,-1.8208 -1.33472,-1.9455 -1.14393,-3.725 0.58311,-5.4403 0.95581,-0.9491 1.59119,-2.3487 1.72357,-2.6558 0.26679,-0.9096 0.97235,-1.9206 2.14516,-1.9206 h 3.3e-4 c 0.0987,0 0.19837,0.01 0.29671,0.023 0.51365,0.08 0.96268,0.3741 1.2835,0.8162 0.34625,-0.4278 0.68249,-0.7681 0.98679,-0.9601 0.45863,-0.2891 0.91693,-0.4357 1.36256,-0.4357 z m 0,1.3668 c -0.17537,0 -0.38956,0.074 -0.62577,0.2231 -0.73339,0.4623 -2.14856,2.8797 -2.66671,3.82 -0.17362,0.315 -0.47033,0.4483 -0.73751,0.4483 -0.53018,0 -0.94412,-0.5238 -0.0485,-1.1895 1.34681,-1.0014 0.87439,-2.6384 0.23143,-2.7392 -0.0282,0 -0.0561,-0.01 -0.0829,-0.01 -0.58454,0 -0.84238,1.0011 -0.84238,1.0011 0,0 -0.75574,1.8861 -2.054,3.1753 -1.29834,1.2894 -1.36538,2.3244 -0.41917,3.7034 0.64538,0.9403 1.88072,1.063 3.14671,1.063 1.31303,0 2.66142,-0.23 3.41578,-0.4245 0.0371,-0.01 4.62251,-1.2115 4.04143,-2.3076 -0.0977,-0.1842 -0.25855,-0.2579 -0.46111,-0.2579 -0.81827,0 -2.30668,1.2102 -2.94657,1.2102 -0.14303,0 -0.2496,-0.1099 -0.29083,-0.2576 -0.28476,-1.0186 4.15133,-1.3312 3.77895,-2.7393 -0.0657,-0.249 -0.24379,-0.3502 -0.49405,-0.3499 -1.08133,0 -3.50739,1.8898 -4.01588,1.8898 -0.0389,0 -0.0667,-0.011 -0.0819,-0.035 -0.25477,-0.4087 -0.13741,-0.7414 1.65836,-1.8214 1.79584,-1.0804 3.07856,-1.6829 2.36163,-2.4585 -0.0825,-0.09 -0.19942,-0.1292 -0.3414,-0.1292 -1.09022,4e-4 -3.66618,2.3299 -3.66618,2.3299 0,0 -0.69523,0.7186 -1.1157,0.7186 -0.0966,0 -0.17877,-0.038 -0.23451,-0.1315 -0.29809,-0.4996 2.76884,-2.8093 2.9418,-3.7623 0.11722,-0.6457 -0.0822,-0.9727 -0.45112,-0.9727 z"
        fill="#000000"
        id="path7-2"
        style="stroke-width:0.944386"
      /><path
        d="m 444.02128,1523.1178 c 0,-1.5463 -2.00546,0.8104 -4.48503,0.8209 -2.47938,-0.01 -4.48483,-2.3671 -4.48483,-0.8209 0,1.0252 0.49051,2.6926 1.80793,3.7042 0.26215,-0.902 1.7026,-1.6245 1.90849,-1.5208 0.29318,0.1478 0.27672,0.5572 0.76841,0.918 0.49176,-0.3608 0.47529,-0.7701 0.76848,-0.918 0.20602,-0.1037 1.64634,0.6188 1.90842,1.5208 1.31742,-1.0116 1.808,-2.679 1.808,-3.7041 z"
        fill="#0e1116"
        id="path8-8"
        style="stroke-width:0.944386"
      /><path
        d="m 440.30486,1525.3011 c -0.29319,0.1478 -0.27672,0.5572 -0.76848,0.9179 -0.49169,-0.3607 -0.47523,-0.77 -0.76841,-0.9179 -0.20602,-0.1037 -1.64634,0.6188 -1.90843,1.5208 0.66609,0.5115 1.54369,0.8552 2.67606,0.8636 2.6e-4,0 5.2e-4,0 9.1e-4,0 3.3e-4,0 5.9e-4,0 9.8e-4,0 1.13237,-0.01 2.00997,-0.3521 2.67606,-0.8636 -0.26209,-0.902 -1.70254,-1.6245 -1.90843,-1.5208 z"
        fill="#ff323d"
        id="path9-9"
        style="fill:#f97316;fill-opacity:1;stroke-width:0.944386"
      /><path
        d="m 447.53161,1520.968 c 0.61349,0 1.11081,-0.4973 1.11081,-1.1108 0,-0.6135 -0.49732,-1.1108 -1.11081,-1.1108 -0.61349,0 -1.1108,0.4973 -1.1108,1.1108 0,0.6135 0.49731,1.1108 1.1108,1.1108 z"
        fill="#000000"
        id="path10-7"
        style="stroke-width:0.944386"
      /><path
        d="m 431.52298,1520.968 c 0.61349,0 1.11081,-0.4973 1.11081,-1.1108 0,-0.6135 -0.49732,-1.1108 -1.11081,-1.1108 -0.61349,0 -1.1108,0.4973 -1.1108,1.1108 0,0.6135 0.49731,1.1108 1.1108,1.1108 z"
        fill="#000000"
        id="path11-3"
        style="stroke-width:0.944386"
      /><path
        d="m 443.61505,1519.3734 c 0.44014,0.155 0.61526,1.0574 1.05991,0.8217 0.84198,-0.4466 1.1617,-1.4894 0.71398,-2.3292 -0.44772,-0.8399 -1.49331,-1.1587 -2.33537,-0.7121 -0.84205,0.4465 -1.1617,1.4893 -0.71398,2.3291 0.21131,0.3965 0.88204,-0.2481 1.27546,-0.1095 z"
        fill="#0e1116"
        id="path12-6"
        style="stroke-width:0.944386"
      /><path
        d="m 435.47966,1519.3734 c -0.44014,0.155 -0.61525,1.0574 -1.05983,0.8217 -0.84206,-0.4466 -1.16171,-1.4894 -0.71399,-2.3292 0.44772,-0.8399 1.49325,-1.1587 2.3353,-0.7121 0.84206,0.4465 1.1617,1.4893 0.71399,2.3291 -0.21132,0.3965 -0.88205,-0.2481 -1.27547,-0.1095 z"
        fill="#0e1116"
        id="path13-1"
        style="stroke-width:0.944386"
      /></g></g></svg>
