<?xml version="1.0" encoding="UTF-8" standalone="no" ?>
<!-- Created with Inkscape (http://www.inkscape.org/) -->
<svg
  width="58.666656"
  height="32"
  viewBox="0 0 15.522219 8.4666674"
  version="1.1"
  id="svg1"
  inkscape:version="1.4.2 (1:1.4.2+202505120737+ebf0e940d0)"
  sodipodi:docname="home_page.svg"
  xml:space="preserve"
  xmlns:inkscape="http://www.inkscape.org/namespaces/inkscape"
  xmlns:sodipodi="http://sodipodi.sourceforge.net/DTD/sodipodi-0.dtd"
  xmlns="http://www.w3.org/2000/svg"
  xmlns:svg="http://www.w3.org/2000/svg"
><sodipodi:namedview
    id="namedview1"
    pagecolor="#ffffff"
    bordercolor="#000000"
    borderopacity="0.25"
    inkscape:showpageshadow="2"
    inkscape:pageopacity="0.0"
    inkscape:pagecheckerboard="0"
    inkscape:deskcolor="#d1d1d1"
    inkscape:document-units="px"
    inkscape:zoom="0.20063165"
    inkscape:cx="-112.14582"
    inkscape:cy="3152.5435"
    inkscape:window-width="2560"
    inkscape:window-height="1371"
    inkscape:window-x="0"
    inkscape:window-y="32"
    inkscape:window-maximized="1"
    inkscape:current-layer="svg1"
    showguides="false"
  ><sodipodi:guide
      position="-39.086427,1031.5051"
      orientation="1,0"
      id="guide98"
      inkscape:locked="false"
    /><sodipodi:guide
      position="231.01291,1156.5951"
      orientation="1,0"
      id="guide99"
      inkscape:locked="false"
    /><sodipodi:guide
      position="150.89268,1057.6623"
      orientation="0,-1"
      id="guide100"
      inkscape:locked="false"
    /><sodipodi:guide
      position="174.42665,972.47844"
      orientation="0,-1"
      id="guide101"
      inkscape:locked="false"
    /><sodipodi:guide
      position="95.788287,710.03344"
      orientation="-0.70710678,-0.70710678"
      id="guide142"
      inkscape:locked="false"
    /><sodipodi:guide
      position="95.788287,647.82754"
      orientation="0,-1"
      id="guide205"
      inkscape:locked="false"
    /><sodipodi:guide
      position="152.6794,709.45964"
      orientation="0,-1"
      id="guide365"
      inkscape:locked="false"
    /><sodipodi:guide
      position="574.12595,609.21274"
      orientation="0,-1"
      id="guide374"
      inkscape:locked="false"
    /><sodipodi:guide
      position="578.14492,549.03034"
      orientation="0,-1"
      id="guide375"
      inkscape:locked="false"
    /><inkscape:page
      x="6.1318033e-16"
      y="0"
      width="15.522219"
      height="8.4666672"
      id="page1"
      margin="0"
      bleed="0"
    /></sodipodi:namedview><defs id="defs1" /><g
    inkscape:label="Layer 1"
    inkscape:groupmode="layer"
    id="layer1"
    transform="translate(-422.21169,-1437.8163)"
  ><g
      style="display:inline;fill:#9ca3af;fill-opacity:1;stroke-width:12.5"
      id="g424"
      transform="matrix(0.70555555,0,0,0.70555555,421.50613,1433.5828)"
    ><path
        d="m 13,12 c 0,3.3137 -2.6863,6 -6,6 C 3.68629,18 1,15.3137 1,12 1,8.68629 3.68629,6 7,6 c 3.3137,0 6,2.68629 6,6 z"
        fill="#0f0f0f"
        id="path1-29"
        style="fill:#9ca3af;fill-opacity:1;stroke-width:12.5"
      /><path
        d="m 23,12 c 0,2.7614 -0.4477,5 -1,5 -0.5523,0 -1,-2.2386 -1,-5 0,-2.76142 0.4477,-5 1,-5 0.5523,0 1,2.23858 1,5 z"
        fill="#0f0f0f"
        id="path2-31"
        style="fill:#9ca3af;fill-opacity:1;stroke-width:12.5"
      /><path
        d="m 17,18 c 1.6569,0 3,-2.6863 3,-6 0,-3.31371 -1.3431,-6 -3,-6 -1.6569,0 -3,2.68629 -3,6 0,3.3137 1.3431,6 3,6 z"
        fill="#0f0f0f"
        id="path3-9"
        style="fill:#9ca3af;fill-opacity:1;stroke-width:12.5"
      /></g></g></svg>
