<?xml version="1.0" encoding="UTF-8" standalone="no" ?>
<!-- Created with Inkscape (http://www.inkscape.org/) -->
<svg
  width="28.026463"
  height="32"
  viewBox="0 0 7.4153347 8.4666674"
  version="1.1"
  id="svg1"
  inkscape:version="1.4.2 (ebf0e940d0, 2025-05-08)"
  sodipodi:docname="nginx.svg"
  xml:space="preserve"
  xmlns:inkscape="http://www.inkscape.org/namespaces/inkscape"
  xmlns:sodipodi="http://sodipodi.sourceforge.net/DTD/sodipodi-0.dtd"
  xmlns="http://www.w3.org/2000/svg"
  xmlns:svg="http://www.w3.org/2000/svg"
><sodipodi:namedview
    id="namedview1"
    pagecolor="#ffffff"
    bordercolor="#000000"
    borderopacity="0.25"
    inkscape:showpageshadow="2"
    inkscape:pageopacity="0.0"
    inkscape:pagecheckerboard="0"
    inkscape:deskcolor="#d1d1d1"
    inkscape:document-units="px"
    inkscape:zoom="25.25697"
    inkscape:cx="19.400585"
    inkscape:cy="18.113812"
    inkscape:window-width="2560"
    inkscape:window-height="1371"
    inkscape:window-x="0"
    inkscape:window-y="0"
    inkscape:window-maximized="1"
    inkscape:current-layer="svg1"
    showguides="false"
  ><sodipodi:guide
      position="-0.52566951,1031.5048"
      orientation="1,0"
      id="guide98"
      inkscape:locked="false"
    /><sodipodi:guide
      position="269.57366,1156.5948"
      orientation="1,0"
      id="guide99"
      inkscape:locked="false"
    /><sodipodi:guide
      position="189.45343,1057.662"
      orientation="0,-1"
      id="guide100"
      inkscape:locked="false"
    /><sodipodi:guide
      position="212.9874,972.47814"
      orientation="0,-1"
      id="guide101"
      inkscape:locked="false"
    /><sodipodi:guide
      position="134.34904,710.03314"
      orientation="-0.70710678,-0.70710678"
      id="guide142"
      inkscape:locked="false"
    /><sodipodi:guide
      position="134.34904,647.82724"
      orientation="0,-1"
      id="guide205"
      inkscape:locked="false"
    /><sodipodi:guide
      position="191.24015,709.45944"
      orientation="0,-1"
      id="guide365"
      inkscape:locked="false"
    /><sodipodi:guide
      position="612.6867,609.21255"
      orientation="0,-1"
      id="guide374"
      inkscape:locked="false"
    /><sodipodi:guide
      position="616.70568,549.03015"
      orientation="0,-1"
      id="guide375"
      inkscape:locked="false"
    /><inkscape:page
      x="4.079817e-10"
      y="0"
      width="7.4153347"
      height="8.4666672"
      id="page1"
      margin="0"
      bleed="0"
    /></sodipodi:namedview><defs id="defs1" /><g
    inkscape:label="Layer 1"
    inkscape:groupmode="layer"
    id="layer1"
    transform="translate(-383.65094,-1437.816)"
  /><g
    id="SVGRepo_bgCarrier"
    stroke-width="0"
    transform="matrix(0.30816689,0,0,0.30816689,-1.2230794,-0.69727495)"
    style="fill:#9ca3af;fill-opacity:1"
  /><g
    id="SVGRepo_tracerCarrier"
    stroke-linecap="round"
    stroke-linejoin="round"
    transform="matrix(0.30816689,0,0,0.30816689,-1.2230794,-0.69727495)"
    style="fill:#9ca3af;fill-opacity:1;stroke-width:0.858572"
  /><path
    id="path1"
    style="fill:#9ca3af;fill-opacity:1;stroke-width:0.264583"
    d="M 3.6912477 0 C 3.5896375 0.047176201 3.4940687 0.1061039 3.396692 0.16174724 C 2.3035751 0.79116646 1.2104224 1.4203579 0.1173055 2.0489706 A 0.20957119 0.20957119 0 0 0 0.00051676434 2.2515422 L 0.00051676434 6.2321779 A 0.21168808 0.21168808 0 0 0 0.12143962 6.433716 C 1.2845144 7.1042631 2.4489573 7.7732177 3.6142498 8.4413455 A 0.17751557 0.17751557 0 0 0 3.8126873 8.4304934 C 4.9767701 7.7611564 6.1405827 7.0914576 7.3044639 6.4213137 A 0.24586058 0.24586058 0 0 0 7.4124677 6.2678347 C 7.4139777 4.9411554 7.411598 3.6139664 7.414018 2.2866822 A 0.23950994 0.23950994 0 0 0 7.2884442 2.0484538 C 6.193916 1.4186315 5.0994518 0.78909942 4.0049236 0.15968018 A 3.1505233 3.1505233 0 0 0 3.7108847 0 L 3.6912477 0 z M 5.3051027 2.1151164 A 0.47841504 0.47841504 0 0 1 5.8151491 2.5507488 C 5.8167624 3.6676555 5.8167624 4.7848575 5.8151491 5.9019655 A 0.4720644 0.4720644 0 0 1 5.4368776 6.3164105 A 0.85673187 0.85673187 0 0 1 4.650879 6.0797324 C 3.9254945 5.2172544 3.2012789 4.3535729 2.4789185 3.4886761 C 2.4774085 4.2809943 2.4789185 5.0734731 2.4789185 5.865792 A 0.47297164 0.47297164 0 0 1 2.271696 6.2569826 A 0.4980718 0.4980718 0 0 1 1.648995 6.1944541 A 0.45633901 0.45633901 0 0 1 1.5198039 5.865792 L 1.5198039 2.5817546 A 0.47750781 0.47750781 0 0 1 1.9440674 2.127002 A 0.85189329 0.85189329 0 0 1 2.7450522 2.4448121 C 3.451788 3.2843065 4.1527782 4.1280896 4.8622357 4.964555 C 4.8574057 4.1598382 4.8622357 3.3557682 4.8622357 2.5507488 A 0.47841504 0.47841504 0 0 1 5.3051027 2.1151164 z "
  /></svg>
