<?xml version="1.0" encoding="UTF-8" standalone="no" ?>
<!-- Created with Inkscape (http://www.inkscape.org/) -->
<svg
  width="1200"
  height="675"
  viewBox="0 0 317.49999 178.59375"
  version="1.1"
  id="svg1"
  inkscape:version="1.4.3 (0d15f75042, 2025-12-25)"
  sodipodi:docname="coverImage.svg"
  xml:space="preserve"
  xmlns:inkscape="http://www.inkscape.org/namespaces/inkscape"
  xmlns:sodipodi="http://sodipodi.sourceforge.net/DTD/sodipodi-0.dtd"
  xmlns:xlink="http://www.w3.org/1999/xlink"
  xmlns="http://www.w3.org/2000/svg"
  xmlns:svg="http://www.w3.org/2000/svg"
><sodipodi:namedview
    id="namedview1"
    pagecolor="#ffffff"
    bordercolor="#000000"
    borderopacity="0.25"
    inkscape:showpageshadow="2"
    inkscape:pageopacity="0.0"
    inkscape:pagecheckerboard="0"
    inkscape:deskcolor="#d1d1d1"
    inkscape:document-units="px"
    inkscape:zoom="0.94634455"
    inkscape:cx="456.49336"
    inkscape:cy="390.44976"
    inkscape:window-width="2560"
    inkscape:window-height="1371"
    inkscape:window-x="0"
    inkscape:window-y="0"
    inkscape:window-maximized="1"
    inkscape:current-layer="layer1"
    showguides="true"
  /><defs id="defs1"><rect
      x="25.576399"
      y="-1069.4723"
      width="863.20447"
      height="542.86292"
      id="rect22-7"
    /><linearGradient
      inkscape:collect="always"
      xlink:href="#linearGradient39"
      id="linearGradient40"
      x1="-7.3206763"
      y1="559.17462"
      x2="136.14938"
      y2="559.17462"
      gradientUnits="userSpaceOnUse"
      gradientTransform="matrix(0.62499999,0,0,0.62499999,144.56962,-260.18726)"
    /><linearGradient id="linearGradient39" inkscape:collect="always"><stop
        style="stop-color:#000000;stop-opacity:0;"
        offset="0"
        id="stop41"
      /><stop style="stop-color:#019639;stop-opacity:1;" offset="0.15175527" id="stop39" /><stop
        style="stop-color:#019639;stop-opacity:0.00582489;"
        offset="1"
        id="stop40"
      /></linearGradient><linearGradient
      inkscape:collect="always"
      xlink:href="#linearGradient22"
      id="linearGradient23"
      x1="84.901093"
      y1="634.27545"
      x2="84.901093"
      y2="484.07379"
      gradientUnits="userSpaceOnUse"
      gradientTransform="matrix(0.62499999,0,0,0.62499999,162.30582,-260.18726)"
    /><linearGradient id="linearGradient22" inkscape:collect="always"><stop
        style="stop-color:#003313;stop-opacity:0;"
        offset="0"
        id="stop22"
      /><stop style="stop-color:#019639;stop-opacity:1;" offset="0.5" id="stop24" /><stop
        style="stop-color:#003313;stop-opacity:0.2;"
        offset="1"
        id="stop23"
      /></linearGradient> <style type="text/css" id="style1-9">
.st0 {
  fill: #000000;
}
    </style>     </defs><g inkscape:label="Layer 1" inkscape:groupmode="layer" id="layer1"><rect
      style="fill:#ffffff;fill-opacity:1;stroke:none;stroke-width:0.132292;stroke-linejoin:round;stroke-dasharray:none"
      id="rect16"
      width="317.5"
      height="178.59375"
      x="0"
      y="-4.4408921e-15"
    /><g id="g1"><g
        id="SVGRepo_bgCarrier"
        stroke-width="0"
        transform="matrix(0.26458333,0,0,0.26458333,24.870833,25.135416)"
      /><g
        id="SVGRepo_tracerCarrier"
        stroke-linecap="round"
        stroke-linejoin="round"
        transform="matrix(0.26458333,0,0,0.26458333,24.870833,25.135416)"
      /><g
        id="SVGRepo_bgCarrier-5"
        stroke-width="0"
        transform="matrix(0.26458333,0,0,0.26458333,193.93958,45.243749)"
      /><g
        id="SVGRepo_tracerCarrier-3"
        stroke-linecap="round"
        stroke-linejoin="round"
        transform="matrix(0.26458333,0,0,0.26458333,193.93958,45.243749)"
      /><g
        id="SVGRepo_bgCarrier-2"
        stroke-width="0"
        transform="matrix(0.26458333,0,0,0.26458333,214.3125,65.087499)"
      /><g
        id="SVGRepo_tracerCarrier-37"
        stroke-linecap="round"
        stroke-linejoin="round"
        transform="matrix(0.26458333,0,0,0.26458333,214.3125,65.087499)"
      /><g
        id="SVGRepo_bgCarrier-9"
        stroke-width="0"
        transform="matrix(0.26458333,0,0,0.26458333,201.34791,97.366665)"
      /><g
        id="SVGRepo_tracerCarrier-7"
        stroke-linecap="round"
        stroke-linejoin="round"
        transform="matrix(0.26458333,0,0,0.26458333,201.34791,97.366665)"
      /><g
        id="SVGRepo_bgCarrier-3"
        stroke-width="0"
        transform="matrix(0.26458333,0,0,0.26458333,246.32708,86.518749)"
      /><g
        id="SVGRepo_tracerCarrier-1"
        stroke-linecap="round"
        stroke-linejoin="round"
        transform="matrix(0.26458333,0,0,0.26458333,246.32708,86.518749)"
      /><g
        id="SVGRepo_bgCarrier-0"
        stroke-width="0"
        transform="matrix(0.26458333,0,0,0.26458333,108.21458,135.20208)"
      /><g
        id="SVGRepo_tracerCarrier-36"
        stroke-linecap="round"
        stroke-linejoin="round"
        transform="matrix(0.26458333,0,0,0.26458333,108.21458,135.20208)"
      /><g
        id="SVGRepo_bgCarrier-54"
        stroke-width="0"
        transform="matrix(0.88985892,0,0,0.88985892,268.03868,129.36182)"
      /><g
        id="SVGRepo_tracerCarrier-76"
        stroke-linecap="round"
        stroke-linejoin="round"
        transform="matrix(0.88985892,0,0,0.88985892,268.03868,129.36182)"
        style="stroke-width:0.297332"
      /><g id="SVGRepo_bgCarrier-26" stroke-width="0" transform="matrix(1.746376,0,0,1.746376,52.871717,116.25577)" /><g
        id="SVGRepo_tracerCarrier-18"
        stroke-linecap="round"
        stroke-linejoin="round"
        transform="matrix(1.746376,0,0,1.746376,52.871717,116.25577)"
        style="stroke-width:0.151504"
      /><g
        id="SVGRepo_bgCarrier-27"
        stroke-width="0"
        transform="matrix(1.8721945,0,0,1.8721945,153.74617,50.823247)"
      /><g
        id="SVGRepo_tracerCarrier-0"
        stroke-linecap="round"
        stroke-linejoin="round"
        transform="matrix(1.8721945,0,0,1.8721945,153.74617,50.823247)"
        style="stroke-width:0.141323"
      /><g
        id="SVGRepo_bgCarrier-36"
        stroke-width="0"
        transform="matrix(0.26458333,0,0,0.26458333,58.208332,46.037499)"
      /><g
        id="SVGRepo_tracerCarrier-75"
        stroke-linecap="round"
        stroke-linejoin="round"
        transform="matrix(0.26458333,0,0,0.26458333,58.208332,46.037499)"
      /><g
        id="SVGRepo_bgCarrier-32"
        stroke-width="0"
        transform="matrix(0.26458333,0,0,0.26458333,18.831737,334.4714)"
      /><g
        id="SVGRepo_tracerCarrier-06"
        stroke-linecap="round"
        stroke-linejoin="round"
        transform="matrix(0.26458333,0,0,0.26458333,18.831737,334.4714)"
      /><g
        id="SVGRepo_bgCarrier-56"
        stroke-width="0"
        transform="matrix(0.26458333,0,0,0.26458333,46.08382,335.79432)"
      /><g
        id="SVGRepo_tracerCarrier-93"
        stroke-linecap="round"
        stroke-linejoin="round"
        transform="matrix(0.26458333,0,0,0.26458333,46.08382,335.79432)"
      /><g
        id="SVGRepo_bgCarrier-22"
        stroke-width="0"
        transform="matrix(1.3924314,0,0,1.3924314,876.97813,187.38973)"
      /><g
        id="SVGRepo_tracerCarrier-89"
        stroke-linecap="round"
        stroke-linejoin="round"
        transform="matrix(1.3924314,0,0,1.3924314,876.97813,187.38973)"
        style="stroke-width:0.190015"
      /><g
        id="SVGRepo_bgCarrier-6"
        stroke-width="0"
        transform="matrix(0.0922732,0,0,0.0922732,787.82369,180.02997)"
      /><g
        id="SVGRepo_tracerCarrier-2"
        stroke-linecap="round"
        stroke-linejoin="round"
        transform="matrix(0.0922732,0,0,0.0922732,787.82369,180.02997)"
        style="stroke-width:2.86739"
      /><g
        id="SVGRepo_bgCarrier-9-7"
        stroke-width="0"
        transform="matrix(0.05077175,0,0,0.05077175,860.86781,237.45326)"
      /><g
        id="SVGRepo_tracerCarrier-3-3"
        stroke-linecap="round"
        stroke-linejoin="round"
        transform="matrix(0.05077175,0,0,0.05077175,860.86781,237.45326)"
        style="stroke-width:5.21123"
      /><g
        id="SVGRepo_bgCarrier-62"
        stroke-width="0"
        transform="matrix(0.26458333,0,0,0.26458333,577.13546,277.69256)"
      /><g
        id="SVGRepo_tracerCarrier-6"
        stroke-linecap="round"
        stroke-linejoin="round"
        transform="matrix(0.26458333,0,0,0.26458333,577.13546,277.69256)"
      /><g
        id="SVGRepo_bgCarrier-2-6"
        stroke-width="0"
        transform="matrix(0.08737819,0,0,0.08737819,807.1792,276.22582)"
      /><g
        id="SVGRepo_tracerCarrier-28"
        stroke-linecap="round"
        stroke-linejoin="round"
        transform="matrix(0.08737819,0,0,0.08737819,807.1792,276.22582)"
        style="stroke-width:3.02802"
      /><g
        id="SVGRepo_bgCarrier-61"
        stroke-width="0"
        transform="matrix(2.0818457,0,0,2.0818457,1264.6028,169.05523)"
      /><g
        id="SVGRepo_tracerCarrier-5"
        stroke-linecap="round"
        stroke-linejoin="round"
        transform="matrix(2.0818457,0,0,2.0818457,1264.6028,169.05523)"
        style="stroke-width:0.127091"
      /><g
        id="SVGRepo_bgCarrier-3-1"
        stroke-width="0"
        transform="matrix(0.98565337,0,0,0.98565337,1249.4556,169.07746)"
      /><g
        id="SVGRepo_tracerCarrier-7-2"
        stroke-linecap="round"
        stroke-linejoin="round"
        transform="matrix(0.98565337,0,0,0.98565337,1249.4556,169.07746)"
        style="stroke-width:2.0854"
      /><g
        id="SVGRepo_bgCarrier-0-9"
        stroke-width="0"
        transform="matrix(1.8477872,0,0,1.8477872,1318.5963,188.56037)"
      /><g
        id="SVGRepo_tracerCarrier-6-5"
        stroke-linecap="round"
        stroke-linejoin="round"
        transform="matrix(1.8477872,0,0,1.8477872,1318.5963,188.56037)"
        style="stroke-width:0.143189"
      /><g
        id="SVGRepo_bgCarrier-9-4"
        stroke-width="0"
        transform="matrix(1.5715912,0,0,1.5715912,1364.0054,182.97774)"
      /><g
        id="SVGRepo_tracerCarrier-2-7"
        stroke-linecap="round"
        stroke-linejoin="round"
        transform="matrix(1.5715912,0,0,1.5715912,1364.0054,182.97774)"
        style="stroke-width:0.168354"
      /><g
        id="SVGRepo_bgCarrier-97"
        stroke-width="0"
        transform="matrix(1.4093503,0,0,1.4093503,1220.9301,184.7811)"
      /><g
        id="SVGRepo_tracerCarrier-3-6"
        stroke-linecap="round"
        stroke-linejoin="round"
        transform="matrix(1.4093503,0,0,1.4093503,1220.9301,184.7811)"
        style="stroke-width:2.0854"
      /><g
        id="SVGRepo_bgCarrier-94"
        stroke-width="0"
        transform="matrix(2.2558878,0,0,2.2558878,1134.155,139.87482)"
      /><g
        id="SVGRepo_tracerCarrier-78"
        stroke-linecap="round"
        stroke-linejoin="round"
        transform="matrix(2.2558878,0,0,2.2558878,1134.155,139.87482)"
        style="stroke-width:0.117286"
      /><g
        id="SVGRepo_bgCarrier-1"
        stroke-width="0"
        transform="matrix(1.8781358,0,0,1.8781358,1135.2141,175.28831)"
      /><g
        id="SVGRepo_tracerCarrier-0-3"
        stroke-linecap="round"
        stroke-linejoin="round"
        transform="matrix(1.8781358,0,0,1.8781358,1135.2141,175.28831)"
        style="stroke-width:0.140876"
      /><g
        id="SVGRepo_bgCarrier-5-1"
        stroke-width="0"
        transform="matrix(2.0944078,0,0,2.0944078,1089.5234,153.22914)"
      /><g
        id="SVGRepo_tracerCarrier-4"
        stroke-linecap="round"
        stroke-linejoin="round"
        transform="matrix(2.0944078,0,0,2.0944078,1089.5234,153.22914)"
        style="stroke-width:0.126328"
      /><g
        id="SVGRepo_bgCarrier-4"
        stroke-width="0"
        transform="matrix(0.41793276,0,0,0.41793276,1370.6714,111.24364)"
      /><g
        id="SVGRepo_tracerCarrier-43"
        stroke-linecap="round"
        stroke-linejoin="round"
        transform="matrix(0.41793276,0,0,0.41793276,1370.6714,111.24364)"
        style="stroke-width:0.633077"
      /><g
        id="SVGRepo_bgCarrier-06"
        stroke-width="0"
        transform="matrix(0.26458333,0,0,0.26458333,788.91351,175.61252)"
      /><g
        id="SVGRepo_tracerCarrier-8"
        stroke-linecap="round"
        stroke-linejoin="round"
        transform="matrix(0.26458333,0,0,0.26458333,788.91351,175.61252)"
      /><text
        xml:space="preserve"
        transform="matrix(0.26458333,0,0,0.26458333,-62.65993,140.7964)"
        id="text18"
        style="font-weight:500;font-size:48px;line-height:1.2;font-family:Inter;-inkscape-font-specification:'Inter Medium';writing-mode:lr-tb;direction:ltr;white-space:pre;shape-inside:url(#rect22-7);display:inline;fill:#ffffff;stroke:none;stroke-width:3;stroke-linecap:square"
      /><g
        id="SVGRepo_bgCarrier-062"
        stroke-width="0"
        transform="matrix(0.26458333,0,0,0.26458333,326.92131,312.71472)"
      /><g
        id="SVGRepo_tracerCarrier-61"
        stroke-linecap="round"
        stroke-linejoin="round"
        transform="matrix(0.26458333,0,0,0.26458333,326.92131,312.71472)"
      /><g
        id="SVGRepo_bgCarrier-8"
        stroke-width="0"
        transform="matrix(0.26458333,0,0,0.26458333,308.42804,291.84592)"
      /><g
        id="SVGRepo_tracerCarrier-79"
        stroke-linecap="round"
        stroke-linejoin="round"
        transform="matrix(0.26458333,0,0,0.26458333,308.42804,291.84592)"
      /><g
        id="SVGRepo_bgCarrier-23"
        stroke-width="0"
        transform="matrix(0.26458333,0,0,0.26458333,319.9836,292.47372)"
      /><g
        id="SVGRepo_tracerCarrier-75-9"
        stroke-linecap="round"
        stroke-linejoin="round"
        transform="matrix(0.26458333,0,0,0.26458333,319.9836,292.47372)"
      /><g
        id="SVGRepo_bgCarrier-612"
        stroke-width="0"
        transform="matrix(0.26458333,0,0,0.26458333,328.39424,295.57765)"
      /><g
        id="SVGRepo_tracerCarrier-9"
        stroke-linecap="round"
        stroke-linejoin="round"
        transform="matrix(0.26458333,0,0,0.26458333,328.39424,295.57765)"
      /><path
        id="path5"
        style="fill:#ffffff;stroke:#ffffff;stroke-width:1.32292;stroke-dasharray:none"
        d="m 266.88039,75.797162 c -0.17364,0 -0.35305,0.0078 -0.5402,0.02321 -4.75764,0.382835 -3.49591,5.419607 -3.5673,7.105614 -0.0868,1.23357 -0.33565,2.20414 -1.18262,3.410641 -0.99358,1.185233 -2.39226,3.10137 -3.05593,5.098672 -0.31255,0.941611 -0.46307,1.902596 -0.32416,2.811338 -0.0444,0.03867 -0.0848,0.07916 -0.12342,0.121699 -0.29133,0.311295 -0.50743,0.690356 -0.74859,0.945576 -0.22379,0.224286 -0.54424,0.309241 -0.89537,0.434921 -0.35306,0.127607 -0.73882,0.313176 -0.97227,0.763684 v 0.0021 a 1.3543663,1.3573135 0 0 0 -0.14853,0.655556 c 0,0.208818 0.0309,0.419486 0.0618,0.622506 0.0656,0.425369 0.13116,0.825694 0.0443,1.096386 -0.27782,0.76373 -0.31453,1.289645 -0.11774,1.672485 0.19679,0.38476 0.59803,0.55293 1.05527,0.64768 0.91256,0.19335 2.14936,0.14501 3.12365,0.66125 1.04182,0.54718 2.101,0.74037 2.9441,0.54895 a 1.9100038,1.9141601 0 0 0 1.36196,-1.06727 c 0.65982,-0.004 1.38332,-0.28229 2.54283,-0.34803 0.78715,-0.0619 1.77111,0.28054 2.89975,0.21867 a 1.5550132,1.558397 0 0 0 0.13128,0.35371 l 0.002,0.002 c 0.43795,0.87974 1.25393,1.27985 2.12212,1.21218 0.86818,-0.0696 1.79029,-0.58197 2.53693,-1.47331 0.71384,-0.8662 1.89475,-1.22395 2.67804,-1.697658 0.39164,-0.237819 0.70992,-0.533447 0.73307,-0.964619 0.0251,-0.429233 -0.22768,-0.910691 -0.80647,-1.55648 v -2.16e-4 c -0.19292,-0.216552 -0.28168,-0.616775 -0.38008,-1.044076 -0.0965,-0.42537 -0.2065,-0.883735 -0.5557,-1.179562 v -0.0021 a 1.4585483,1.4617223 0 0 0 -0.4301,-0.259159 c 0.48618,-1.440452 0.29501,-2.875165 -0.1931,-4.170606 -0.60194,-1.591267 -1.64956,-2.977609 -2.45021,-3.925019 -0.8952,-1.133029 -1.77102,-2.208038 -1.75559,-3.795438 0.027,-2.424602 0.26628,-6.919892 -3.98975,-6.925691 z"
      /><path
        fill="#202020"
        d="m 276.63495,97.098407 c -0.19293,-0.216551 -0.28168,-0.616785 -0.38007,-1.044087 -0.0965,-0.425369 -0.20644,-0.883607 -0.55564,-1.179432 v -0.0019 a 1.4585484,1.4617222 0 0 0 -0.43023,-0.259089 c 0.48618,-1.440454 0.29518,-2.875107 -0.19293,-4.170548 -0.60194,-1.591267 -1.64955,-2.977583 -2.45021,-3.924995 -0.89519,-1.133028 -1.77109,-2.208052 -1.75566,-3.795451 0.027,-2.424603 0.26624,-6.919979 -3.98978,-6.925779 -0.17364,0 -0.35307,0.0077 -0.54021,0.0232 -4.75764,0.382832 -3.49588,5.419586 -3.56727,7.105594 -0.0868,1.23357 -0.33569,2.204184 -1.18266,3.410685 -0.99358,1.185233 -2.39232,3.101326 -3.056,5.098626 -0.31255,0.941613 -0.46303,1.90256 -0.32412,2.811302 -0.0444,0.03867 -0.0849,0.07927 -0.12348,0.12181 -0.29132,0.311293 -0.5074,0.690258 -0.74857,0.945479 -0.22379,0.224286 -0.54406,0.30936 -0.89519,0.435037 -0.35306,0.12761 -0.73892,0.313226 -0.97237,0.76373 v 0.0019 a 1.3543664,1.3573135 0 0 0 -0.14855,0.655455 c 0,0.208817 0.0309,0.419568 0.0617,0.622585 0.0656,0.425369 0.13119,0.825602 0.0444,1.096292 -0.27782,0.76373 -0.31448,1.289639 -0.11769,1.672479 0.19679,0.38476 0.59809,0.55298 1.05533,0.64772 0.91256,0.19335 2.14924,0.14501 3.12353,0.66125 l 0.083,-0.15854 -0.083,0.15854 c 1.04182,0.54718 2.101,0.74053 2.94411,0.54912 a 1.9100038,1.91416 0 0 0 1.36208,-1.06729 c 0.65982,-0.004 1.38331,-0.28229 2.54281,-0.34803 0.78716,-0.0619 1.7711,0.28035 2.89974,0.21848 a 1.5550132,1.558397 0 0 0 0.13119,0.35383 l 0.002,0.002 c 0.43795,0.87974 1.25404,1.27997 2.12222,1.2123 0.86819,-0.0696 1.79039,-0.58199 2.53703,-1.47333 l -0.13505,-0.11601 0.13505,0.11601 c 0.71384,-0.8662 1.89457,-1.2239 2.67786,-1.697608 0.39165,-0.23782 0.70999,-0.533645 0.73314,-0.964814 0.0251,-0.429236 -0.22766,-0.910676 -0.80645,-1.556464 z"
        data-darkreader-inline-fill=""
        id="path391"
        style="stroke-width:0.264584"
      /><path
        fill="#f8bf11"
        d="m 277.08448,98.635536 c -0.0135,0.264889 -0.20644,0.464039 -0.5595,0.676723 -0.70998,0.429236 -1.96595,0.800471 -2.76661,1.774951 -0.69841,0.8314 -1.5473,1.28577 -2.29586,1.34571 -0.74664,0.058 -1.39103,-0.25135 -1.77303,-1.01702 v -0.004 c -0.2373,-0.4505 -0.13891,-1.16009 0.0598,-1.908355 0.19872,-0.748262 0.48425,-1.517793 0.52284,-2.142312 v -0.0019 c 0.0386,-0.8024 0.0849,-1.500392 0.21994,-2.039837 0.13505,-0.541379 0.34534,-0.904876 0.71963,-1.11176 a 1.690064,1.6937416 0 0 1 0.0521,-0.02707 c 0.0424,0.694125 0.38586,1.401784 0.99166,1.55453 0.66175,0.174015 1.61675,-0.394433 2.01997,-0.860405 l 0.23537,-0.0077 c 0.355,-0.0097 0.65018,0.0116 0.95501,0.27649 v 0.0019 c 0.23344,0.197217 0.34534,0.572315 0.44181,0.98995 0.0965,0.419568 0.17363,0.875873 0.4611,1.2007 0.55371,0.618719 0.73313,1.032487 0.71577,1.299309 z m -13.46457,1.962494 v 0.006 c -0.0656,0.84107 -0.5402,1.29931 -1.26561,1.46559 -0.72735,0.16628 -1.71322,0 -2.69716,-0.51431 -1.09005,-0.58005 -2.38654,-0.52204 -3.21614,-0.69605 -0.41673,-0.087 -0.68876,-0.21849 -0.81223,-0.46018 -0.12348,-0.24362 -0.12734,-0.667052 0.13698,-1.392113 v -0.0019 l 0.002,-0.0039 c 0.13119,-0.4041 0.0347,-0.84687 -0.0289,-1.262572 -0.0637,-0.413768 -0.0945,-0.792733 0.0463,-1.055688 l 0.002,-0.0019 c 0.18135,-0.349962 0.4476,-0.475639 0.77751,-0.593583 0.32798,-0.119876 0.71962,-0.212684 1.02831,-0.522043 l 0.002,-0.0019 h 0.002 c 0.28554,-0.303558 0.50162,-0.682523 0.75243,-0.951279 0.21222,-0.226219 0.42444,-0.377032 0.74277,-0.378965 h 0.01 a 1.176871,1.1794319 0 0 1 0.17943,0.01547 c 0.42444,0.06381 0.79294,0.361563 1.14986,0.844937 l 1.02831,1.877424 v 0.0019 c 0.27396,0.572315 0.85082,1.202634 1.34086,1.844554 0.49004,0.643854 0.86819,1.287708 0.81995,1.780748 z"
        data-darkreader-inline-fill=""
        id="path392"
        style="stroke-width:0.264584"
      /><path
        fill="#d6a312"
        d="m 268.74799,83.090236 c -0.083,-0.162414 -0.25081,-0.317093 -0.54021,-0.435036 -0.59808,-0.257155 -0.85661,-0.274557 -1.19037,-0.491108 -0.54021,-0.349963 -0.98973,-0.471773 -1.36209,-0.471773 a 1.6090335,1.6125348 0 0 0 -0.52477,0.09087 c -0.45531,0.15468 -0.75628,0.483374 -0.94535,0.661256 -0.0386,0.03674 -0.0849,0.06767 -0.20065,0.154679 -0.11576,0.08314 -0.28939,0.212685 -0.5402,0.402167 -0.22573,0.166281 -0.29711,0.386699 -0.21994,0.641921 0.0772,0.255221 0.32219,0.551046 0.77172,0.806267 h 0.002 c 0.27974,0.164347 0.47075,0.386699 0.69068,0.562647 a 1.5453667,1.5487295 0 0 0 0.36464,0.226219 c 0.13891,0.05994 0.30097,0.100542 0.50162,0.112143 0.47846,0.029 0.8296,-0.11601 1.13828,-0.291958 0.30869,-0.177882 0.57108,-0.394433 0.87205,-0.493041 h 0.002 c 0.61737,-0.19335 1.05725,-0.581982 1.19616,-0.953213 a 0.62509216,0.62645238 0 0 0 -0.0154,-0.522044 z"
        data-darkreader-inline-fill=""
        id="path393"
        style="stroke-width:0.264584"
      /><path
        fill="#202020"
        d="m 267.1814,84.002846 c -0.49197,0.257155 -1.06498,0.568447 -1.67656,0.568447 -0.60966,0 -1.09198,-0.28229 -1.43733,-0.55878 -0.17364,-0.135344 -0.31447,-0.274556 -0.42059,-0.373164 -0.18521,-0.145012 -0.16206,-0.349963 -0.0868,-0.344162 0.12733,0.01547 0.14662,0.183682 0.22572,0.259088 0.10804,0.100542 0.2431,0.232019 0.40709,0.361563 0.32798,0.261022 0.76593,0.51431 1.31192,0.51431 0.54792,0 1.18459,-0.32096 1.5743,-0.541379 0.22187,-0.123743 0.50162,-0.346095 0.73121,-0.514309 0.17363,-0.129544 0.16785,-0.284224 0.31254,-0.266822 0.1447,0.0174 0.0386,0.172081 -0.16399,0.348029 -0.20257,0.177881 -0.52091,0.413768 -0.7775,0.547179 z"
        data-darkreader-inline-fill=""
        id="path394"
        style="stroke-width:0.264584"
      /><path
        fill="#ffffff"
        d="m 274.70372,94.509458 a 3.3261077,3.3333454 0 0 0 -0.20064,0 h -0.0193 c 0.16978,-0.535579 -0.2045,-0.928078 -1.19809,-1.378582 -1.03024,-0.454372 -1.85212,-0.409901 -1.99103,0.512376 -0.01,0.04834 -0.0174,0.09667 -0.0212,0.146945 a 1.5453667,1.5487295 0 0 0 -0.23151,0.104409 c -0.48618,0.264889 -0.7505,0.746329 -0.89712,1.337979 -0.14663,0.589716 -0.18907,1.303175 -0.22959,2.107509 -0.0251,0.402167 -0.191,0.947413 -0.35885,1.527461 -1.68813,1.206505 -4.03223,1.728545 -6.02326,0.367364 -0.13505,-0.212684 -0.2894,-0.425369 -0.44953,-0.634186 a 26.720761,26.778906 0 0 0 -0.30869,-0.396367 1.2540429,1.2567717 0 0 0 0.51705,-0.09667 0.65596091,0.6573883 0 0 0 0.35885,-0.371231 c 0.12155,-0.328694 0,-0.788866 -0.38971,-1.314777 -0.38779,-0.527844 -1.04568,-1.121427 -2.01226,-1.716943 -0.70998,-0.444704 -1.10742,-0.986083 -1.29263,-1.573865 -0.18714,-0.589716 -0.16206,-1.22777 -0.0193,-1.856156 0.27589,-1.208434 0.98394,-2.383999 1.43346,-3.120661 0.12155,-0.08894 0.0444,0.166281 -0.45531,1.096292 -0.4476,0.850738 -1.28684,2.813235 -0.13891,4.346497 0.0309,-1.090491 0.2894,-2.204184 0.72735,-3.242471 0.63473,-1.444321 1.96402,-3.946264 2.0682,-5.94163 0.0559,0.03867 0.24116,0.16628 0.32605,0.212684 0.24309,0.145012 0.42638,0.355763 0.66368,0.547179 a 1.6399023,1.6434707 0 0 0 1.10935,0.386699 c 0.46303,0 0.82381,-0.152746 1.12285,-0.324827 0.32798,-0.185616 0.5865,-0.394433 0.83538,-0.473706 0.52091,-0.164347 0.93764,-0.454372 1.17302,-0.792733 0.40515,1.604801 1.3505,3.919194 1.9563,5.048355 0.3222,0.599384 0.96465,1.873557 1.24054,3.406818 0.17557,-0.0039 0.3685,0.01933 0.57686,0.07347 0.72349,-1.88129 -0.61545,-3.909527 -1.22703,-4.474107 -0.24695,-0.239754 -0.26046,-0.348029 -0.13505,-0.342229 0.66175,0.587783 1.53379,1.773015 1.85212,3.10906 0.1447,0.609051 0.17364,1.249038 0.0193,1.881291 0.0772,0.03287 0.15435,0.06574 0.23152,0.104409 1.16337,0.566514 1.5936,1.059555 1.38716,1.734345 z"
        data-darkreader-inline-fill=""
        id="path395"
        style="stroke-width:0.264584"
      /><path
        fill="#e6e6e6"
        d="m 266.41354,89.420499 c -1.07269,0.0039 -2.1203,0.485307 -3.00585,1.384382 -0.88747,0.897142 -1.57045,2.169381 -1.96402,3.650439 l 0.11768,0.07347 v 0.0077 c 0.90677,0.576182 1.55309,1.15623 1.95245,1.697609 0.42252,0.572315 0.60966,1.129161 0.43024,1.612535 a 0.98972926,0.99188293 0 0 1 -0.52091,0.547179 l -0.0791,0.029 c 0.14276,0.187549 0.28167,0.380899 0.41094,0.580049 1.82125,1.214228 3.93962,0.765664 5.53129,-0.332561 0.15434,-0.537512 0.29518,-1.036354 0.31447,-1.34958 0.0405,-0.8024 0.081,-1.531328 0.23924,-2.165514 0.1582,-0.638053 0.46689,-1.218102 1.04953,-1.537129 0.0328,-0.01933 0.0656,-0.029 0.0984,-0.04447 a 1.4585484,1.4617222 0 0 1 0.0424,-0.181749 c -0.46689,-1.202633 -1.14021,-2.204184 -1.94859,-2.900242 -0.8103,-0.696058 -1.73058,-1.065356 -2.66628,-1.071156 z m 4.57243,4.166681 -0.004,0.0097 v -0.0039 l 0.002,-0.0077 z"
        data-darkreader-inline-fill=""
        id="path396"
        style="stroke-width:0.264584"
      /><path
        fill="#ffffff"
        d="m 268.80201,81.243748 a 2.0257616,2.0301698 0 0 1 -0.4148,1.268373 7.9467735,7.9640659 0 0 0 -0.42059,-0.174014 l -0.24502,-0.08701 c 0.0559,-0.06767 0.16399,-0.145012 0.20643,-0.245554 a 1.2906996,1.2935082 0 0 0 0.0965,-0.469839 l 0.002,-0.01933 a 1.2984167,1.3012421 0 0 0 -0.0675,-0.456305 0.83731481,0.83913683 0 0 0 -0.20836,-0.355763 0.43023319,0.43116939 0 0 0 -0.30097,-0.135344 h -0.0135 a 0.43987967,0.44083686 0 0 0 -0.29132,0.116009 0.83731481,0.83913683 0 0 0 -0.23537,0.338362 1.3042046,1.3070426 0 0 0 -0.0965,0.469839 v 0.01934 a 1.3852351,1.3882494 0 0 0 0.0174,0.270689 3.4206432,3.4280866 0 0 0 -0.68297,-0.232019 2.307439,2.31246 0 0 1 -0.0193,-0.257155 v -0.02514 a 1.9968222,2.0011673 0 0 1 0.16978,-0.864272 1.5299324,1.5332615 0 0 1 0.48232,-0.634187 1.0688304,1.0711562 0 0 1 0.66754,-0.23782 h 0.0116 c 0.24116,0 0.44759,0.06961 0.65981,0.224286 a 1.5048515,1.5081261 0 0 1 0.49583,0.626452 c 0.12155,0.266822 0.18136,0.527844 0.18715,0.837203 l 0.002,0.0232 z m -3.64638,0.317094 a 2.0257616,2.0301698 0 0 0 -0.53441,0.241686 1.2019519,1.2045674 0 0 0 0.004,-0.290024 v -0.01547 a 1.2559722,1.2587052 0 0 0 -0.0926,-0.371231 0.71383982,0.71539315 0 0 0 -0.18521,-0.272623 0.30482889,0.30549221 0 0 0 -0.22959,-0.08701 c -0.081,0.0077 -0.14855,0.0464 -0.21222,0.125677 a 0.71769841,0.71926014 0 0 0 -0.13505,0.301625 1.2077398,1.2103679 0 0 0 -0.0251,0.396367 v 0.01547 a 1.2231742,1.2258358 0 0 0 0.0926,0.373164 0.70805193,0.70959266 0 0 0 0.22379,0.301626 l -0.19678,0.154679 -0.15049,0.108276 a 1.3620835,1.3650475 0 0 1 -0.30869,-0.464039 c -0.10225,-0.232019 -0.1582,-0.464039 -0.17363,-0.736661 v -0.0019 a 2.0662769,2.0707731 0 0 1 0.0868,-0.754063 1.2887703,1.2915747 0 0 1 0.3222,-0.564581 0.69261755,0.69412471 0 0 1 0.50933,-0.228152 c 0.16206,0 0.30483,0.05414 0.45339,0.174015 a 1.3119218,1.3147766 0 0 1 0.38393,0.523977 c 0.10225,0.232019 0.15434,0.464039 0.1717,0.738595 v 0.0019 c 0.006,0.11601 0.006,0.222352 -0.004,0.328695 z"
        data-darkreader-inline-fill=""
        id="path397"
        style="stroke-width:0.264584"
      /><path
        fill="#202020"
        d="m 265.96208,82.214363 c 0.0193,0.06574 0.12541,0.05607 0.18714,0.08701 0.0521,0.02707 0.0965,0.08701 0.15435,0.08894 0.0579,0.0019 0.14662,-0.01933 0.15434,-0.07734 0.01,-0.07347 -0.10032,-0.12181 -0.16978,-0.148879 -0.0907,-0.03674 -0.20643,-0.05414 -0.29132,-0.0058 -0.0193,0.0097 -0.0405,0.0348 -0.0347,0.058 z m -0.62123,0 c -0.0193,0.06574 -0.12541,0.05607 -0.18522,0.08701 -0.054,0.02707 -0.0965,0.08701 -0.15627,0.08894 -0.0579,0.0019 -0.14662,-0.01933 -0.15434,-0.07734 -0.01,-0.07347 0.10032,-0.12181 0.16978,-0.148879 0.0907,-0.03674 0.20836,-0.05414 0.29325,-0.0058 0.0193,0.0097 0.0386,0.0348 0.0328,0.058 z"
        data-darkreader-inline-fill=""
        id="path398"
        style="stroke-width:0.264584"
      /><rect
        style="fill:#ff6262;fill-opacity:1;stroke-width:0.79375"
        id="rect4"
        width="7.2274256"
        height="4.8736663"
        x="50.068924"
        y="89.119759"
        ry="0.46315035"
      /><rect
        style="fill:#ff6262;fill-opacity:1;stroke-width:0.79375"
        id="rect5"
        width="8.4383392"
        height="4.1620135"
        x="59.89933"
        y="89.369011"
        ry="0.46315035"
      /><path
        class="st0"
        d="m 68.346937,78.094919 c -0.508525,-2.985592 -1.064547,-6.229068 -1.233667,-7.151281 -0.413688,-2.250718 -3.377322,-3.508756 -5.579375,-1.88694 -1.154558,0.851669 -2.187493,0.91248 -2.73495,0.91248 -0.547457,0 -1.154558,0.121701 -2.73495,-0.91248 -2.288481,-1.496456 -5.165765,-0.363778 -5.579375,1.88694 -0.169119,0.922213 -0.725142,4.165689 -1.233667,7.151281 -6.187722,0.774973 -10.385023,2.282408 -10.385023,4.013621 0,2.525731 8.925085,4.572058 19.933015,4.572058 11.009176,0 19.933015,-2.046327 19.933015,-4.572058 0,-1.731213 -4.197301,-3.238648 -10.385023,-4.013621 z"
        id="path1-18"
        style="fill:#000000;fill-opacity:1;stroke-width:0.264584"
      /><path
        class="st0"
        d="m 47.362767,87.515215 0.587635,6.736347 c 3.080507,0.523163 6.208355,0.795685 9.320475,0.86257 l 1.528068,-2.084013 1.528068,2.084013 c 3.11212,-0.06688 6.240046,-0.339407 9.320475,-0.86257 l 0.587635,-6.736347 c -3.766639,0.728723 -7.623288,1.051155 -11.436178,1.051155 -3.814058,0 -7.668293,-0.322432 -11.436178,-1.051155 z m 6.039314,5.570888 c -2.606008,-0.122868 -2.769054,-3.25204 -2.769054,-3.25204 l 5.849484,1.142411 c 0,0 -0.4745,2.233665 -3.08043,2.109629 z m 13.562782,-3.25204 c 0,0 -0.163046,3.129172 -2.769054,3.25204 -2.606008,0.124114 -3.080507,-2.109629 -3.080507,-2.109629 z"
        id="path2-7"
        style="fill:#000000;fill-opacity:1;stroke-width:0.264584"
      /><path
        style="font-weight:bold;font-size:11.6227px;line-height:1.2;font-family:Manrope;-inkscape-font-specification:'Manrope Bold';stroke-width:0.79375"
        d="m 39.580828,110.09707 v -8.36835 h 1.400535 v 3.52168 h 3.963341 v -3.52168 h 1.394723 v 8.36835 h -1.394723 v -3.5333 h -3.963341 v 3.5333 z m 10.14081,0.17434 q -0.679928,0 -1.150648,-0.2557 -0.470719,-0.26151 -0.714796,-0.69155 -0.238265,-0.43004 -0.238265,-0.94725 0,-0.45329 0.151095,-0.81359 0.151095,-0.36611 0.464908,-0.62763 0.313813,-0.26732 0.813589,-0.43585 0.377738,-0.12204 0.883325,-0.22083 0.511399,-0.0988 1.104157,-0.18015 0.598569,-0.0872 1.24944,-0.18596 l -0.499776,0.28475 q 0.0058,-0.65087 -0.290568,-0.95887 -0.296379,-0.308 -0.999552,-0.308 -0.424229,0 -0.8194,0.19758 -0.395172,0.19759 -0.552079,0.67993 l -1.278497,-0.40098 q 0.232454,-0.79616 0.883326,-1.2785 0.656682,-0.48234 1.76665,-0.48234 0.836834,0 1.470272,0.27313 0.639248,0.27314 0.94725,0.89495 0.168529,0.33125 0.203397,0.67993 0.03487,0.34287 0.03487,0.74966 v 3.85293 h -1.226195 v -1.35986 l 0.203397,0.22083 q -0.424228,0.67993 -0.99374,0.99956 -0.563701,0.31381 -1.412158,0.31381 z m 0.278944,-1.11578 q 0.476531,0 0.813589,-0.16853 0.337059,-0.16853 0.534644,-0.4126 0.203398,-0.24408 0.273134,-0.4591 0.110416,-0.26732 0.122038,-0.61019 0.01743,-0.34868 0.01743,-0.5637 l 0.43004,0.12785 q -0.633437,0.0988 -1.086722,0.17434 -0.453286,0.0755 -0.778721,0.14528 -0.325436,0.0639 -0.575324,0.14528 -0.244076,0.0872 -0.412606,0.2034 -0.168529,0.11623 -0.26151,0.26732 -0.08717,0.1511 -0.08717,0.3545 0,0.23245 0.116227,0.4126 0.116227,0.17434 0.337059,0.27895 0.226642,0.1046 0.557889,0.1046 z m 7.386228,1.11578 q -0.970495,0 -1.656234,-0.43004 -0.68574,-0.43585 -1.051855,-1.18552 -0.360303,-0.74966 -0.366115,-1.69691 0.0058,-0.96468 0.377738,-1.70854 0.377738,-0.74966 1.069288,-1.17389 0.691551,-0.43004 1.644612,-0.43004 1.069289,0 1.80733,0.54046 0.743853,0.53464 0.970496,1.46446 l -1.394724,0.37773 q -0.162718,-0.50558 -0.540456,-0.78453 -0.377738,-0.28475 -0.86008,-0.28475 -0.546267,0 -0.900759,0.26151 -0.354492,0.2557 -0.523021,0.70898 -0.16853,0.45329 -0.16853,1.02861 0,0.89495 0.400984,1.44703 0.400983,0.55207 1.191326,0.55207 0.55789,0 0.877514,-0.2557 0.325436,-0.25569 0.488154,-0.73804 l 1.429592,0.31963 q -0.290568,0.95887 -1.016987,1.47608 -0.726418,0.5114 -1.778273,0.5114 z m 3.951724,-0.17434 0.01162,-8.36835 h 1.417969 v 5.11399 l 2.295483,-3.0219 h 1.749217 l -2.434956,3.13813 2.644164,3.13813 h -1.85382 l -2.400088,-3.0219 v 3.0219 z m 9.001779,0.17434 q -0.953061,0 -1.673669,-0.41261 -0.720607,-0.4126 -1.127402,-1.14483 -0.400983,-0.73223 -0.400983,-1.68529 0,-1.02861 0.395172,-1.78409 0.395172,-0.76129 1.098345,-1.1797 0.703174,-0.41842 1.627178,-0.41842 0.976307,0 1.656235,0.4591 0.685739,0.45328 1.016986,1.28431 0.331247,0.83102 0.249888,1.95842 h -1.388912 v -0.5114 q -0.0058,-1.0228 -0.360304,-1.49352 -0.354493,-0.47071 -1.115779,-0.47071 -0.86008,0 -1.278497,0.53464 -0.418418,0.52883 -0.418418,1.55163 0,0.95306 0.418418,1.47608 0.418417,0.52302 1.220383,0.52302 0.51721,0 0.889137,-0.22664 0.377737,-0.23245 0.581135,-0.6683 l 1.383101,0.41841 q -0.360304,0.84846 -1.115779,1.31918 -0.749664,0.47072 -1.656235,0.47072 z m -2.161822,-2.92311 v -1.05767 h 4.317833 v 1.05767 z m 6.305306,2.74877 v -6.27626 h 1.237817 v 1.52839 l -0.151095,-0.19759 q 0.116227,-0.31381 0.308002,-0.56951 0.197586,-0.26151 0.470719,-0.43004 0.232454,-0.15691 0.511399,-0.24408 0.284756,-0.093 0.581135,-0.11041 0.296379,-0.0232 0.575324,0.0232 v 1.30755 q -0.278945,-0.0814 -0.64506,-0.0523 -0.360304,0.0291 -0.650871,0.2034 -0.290568,0.15691 -0.476531,0.40098 -0.180152,0.24408 -0.267322,0.55789 -0.08717,0.308 -0.08717,0.66831 v 3.19043 z"
        id="text13"
        aria-label="Hacker"
      /><path
        style="fill:url(#linearGradient40);fill-opacity:1;stroke:none;stroke-width:1.32292;stroke-dasharray:none"
        id="path17"
        sodipodi:type="arc"
        sodipodi:cx="256.76266"
        sodipodi:cy="89.296875"
        sodipodi:rx="54.199368"
        sodipodi:ry="54.199368"
        sodipodi:start="2.0943951"
        sodipodi:end="4.1887902"
        sodipodi:open="true"
        sodipodi:arc-type="arc"
        d="M 229.66298,136.2349 A 54.199368,54.199368 0 0 1 202.5633,89.296875 54.199368,54.199368 0 0 1 229.66298,42.358846"
      /><path
        id="path15"
        style="fill:url(#linearGradient23);stroke-width:1.32292"
        d="m 228.91884,136.2349 c -16.61338,-9.59174 -27.09968,-27.57446 -27.09967,-46.938029 0,-19.363569 10.48629,-37.346281 27.09967,-46.938024 -27.09967,15.646006 -27.09967,78.230053 0,93.876053 z"
        sodipodi:nodetypes="cscc"
      /><path
        d="m 208.51299,68.162861 h 0.0981 a 15.728328,15.728328 0 0 1 1.46745,0.797136 q 8.1963,4.713365 16.39261,9.42975 a 1.1957032,1.1957032 0 0 1 0.62502,1.189664 c -0.0121,6.626188 0,13.250867 -0.008,19.874036 a 1.2274074,1.2274074 0 0 1 -0.53746,0.765433 q -8.71565,5.01833 -17.43281,10.03062 a 0.88620928,0.88620928 0 0 1 -0.99189,0.0559 q -8.72621,-5.00323 -17.43582,-10.02458 a 1.0568083,1.0568083 0 0 1 -0.60389,-1.005481 q 0,-9.937018 0,-19.872526 a 1.0462403,1.0462403 0 0 1 0.58426,-1.011517 q 8.18573,-4.707326 16.37147,-9.420691 c 0.48613,-0.27779 0.96321,-0.572186 1.47047,-0.807704"
        style="fill:#019639;stroke-width:0.264584"
        id="path2-2"
      /><path
        d="m 197.67165,81.052904 q 0,8.196303 0,16.394117 a 2.2781768,2.2781768 0 0 0 0.64465,1.641072 2.4865191,2.4865191 0 0 0 3.11004,0.311003 2.3612118,2.3612118 0 0 0 1.03416,-1.952075 c 0,-3.955483 -0.008,-7.910966 0,-11.866448 q 5.40935,6.476725 10.84134,12.935334 a 4.2770543,4.2770543 0 0 0 3.92529,1.180606 2.3566826,2.3566826 0 0 0 1.88867,-2.069835 q 0.0121,-8.365393 0,-16.729276 a 2.3883868,2.3883868 0 0 0 -4.75866,0 c 0,4.018891 -0.0241,8.033253 0,12.050634 -3.54181,-4.175902 -7.03985,-8.388038 -10.56808,-12.579038 a 4.2528987,4.2528987 0 0 0 -3.99926,-1.588232 2.3838577,2.3838577 0 0 0 -2.11815,2.272138 z"
        style="fill:#ffffff;stroke-width:0.264584"
        id="path4"
      /><path
        style="font-size:8.46667px;line-height:1.2;font-family:Manrope;-inkscape-font-specification:'Manrope Bold';fill:#333333;stroke-width:0.79375"
        d="m 135.63374,52.863227 0.23649,-0.684183 0.68418,0.236489 -0.23649,0.684182 z m 3.70351,1.414491 q -0.63218,-0.21851 -0.99948,-0.659008 -0.36332,-0.439117 -0.44375,-1.035762 -0.0805,-0.596642 0.15602,-1.28083 0.24479,-0.708187 0.67525,-1.137197 0.43046,-0.42901 0.98341,-0.551426 0.55692,-0.121038 1.18109,0.09471 0.64017,0.221278 0.98995,0.673631 0.35116,0.448353 0.39376,1.07671 0.0426,0.62836 -0.24017,1.381647 l -0.60017,-0.207446 0.0719,-0.208055 q 0.27446,-0.845744 0.0743,-1.394185 -0.19612,-0.547051 -0.86029,-0.776622 -0.6962,-0.24064 -1.22457,0.08286 -0.52436,0.324891 -0.81341,1.161113 -0.28213,0.816216 -0.0703,1.395567 0.2172,0.576735 0.8974,0.811841 0.46412,0.160427 0.88151,0.06736 0.42277,-0.09573 0.7625,-0.430701 l 0.47486,0.401524 q -0.45108,0.475641 -1.05909,0.614852 -0.60261,0.136595 -1.23079,-0.08055 z m -0.92085,-2.68773 0.17011,-0.492133 3.30088,1.140954 -0.17011,0.492131 z m 6.8119,4.589602 0.76202,-2.204588 q 0.12452,-0.360091 0.16013,-0.683696 0.037,-0.327602 -0.0372,-0.60423 -0.0692,-0.279229 -0.2664,-0.486243 -0.19319,-0.205625 -0.53328,-0.323181 -0.31209,-0.107872 -0.58949,-0.08282 -0.27339,0.02644 -0.50797,0.173789 -0.2292,0.144734 -0.4128,0.40377 -0.18358,0.259033 -0.31082,0.627132 l -0.3843,-0.235857 q 0.22957,-0.664177 0.6179,-1.036088 0.38834,-0.371905 0.87667,-0.462903 0.48831,-0.09099 1.01646,0.09155 0.38809,0.134147 0.63468,0.353753 0.25058,0.220987 0.38011,0.494192 0.13353,0.274584 0.16629,0.581527 0.0341,0.302946 -0.0123,0.618387 -0.0449,0.311444 -0.14585,0.603528 l -0.82149,2.376634 z m -3.12484,-1.080101 1.4936,-4.321152 0.53217,0.183938 -0.36788,1.064284 0.06,0.02074 -1.12575,3.256866 z m 5.92558,2.048178 -0.0748,-4.863276 0.59615,0.206064 0.0483,3.994112 2.49643,-3.114543 0.60415,0.208831 -3.06203,3.779025 z"
        id="text28"
        aria-label=".env"
        inkscape:transform-center-x="-8.0327627"
        inkscape:transform-center-y="0.6007102"
      /><path
        style="font-size:8.46667px;line-height:1.2;font-family:Manrope;-inkscape-font-specification:'Manrope Bold';fill:#333333;stroke-width:0.79375"
        d="m 135.63375,102.07585 -0.21379,-0.69161 0.69161,-0.21379 0.2138,0.69161 z m 4.31004,0.92745 q -0.33569,0.10376 -0.69455,0.10399 -0.35356,0.003 -0.69485,-0.12639 -0.34005,-0.12529 -0.63111,-0.40752 l 0.4454,-0.46558 q 0.29452,0.30774 0.67088,0.36421 0.38167,0.0593 0.72547,-0.0467 0.4732,-0.14628 0.70939,-0.41425 0.24148,-0.26519 0.26868,-0.65024 0.0271,-0.38502 -0.13566,-0.89743 l -0.36008,-1.164822 0.0688,-0.0213 -0.96896,-3.134491 0.52982,-0.163782 1.33153,4.307395 q 0.0575,0.18604 0.0979,0.35966 0.0461,0.17628 0.0686,0.35099 0.0744,0.51314 -0.0707,0.90363 -0.14112,0.38924 -0.48592,0.6642 -0.34076,0.27372 -0.87463,0.43876 z m -0.64053,-1.92886 q -0.61073,0.18879 -1.13726,0.0192 -0.52778,-0.17359 -0.9196,-0.62408 -0.39182,-0.45048 -0.59437,-1.105682 -0.20129,-0.65117 -0.13609,-1.242917 0.0692,-0.59301 0.40418,-1.02888 0.33495,-0.435862 0.93354,-0.620904 0.61476,-0.190038 1.12791,-0.02078 0.51315,0.169267 0.88878,0.624744 0.37844,0.45018 0.58349,1.11347 0.20129,0.651177 0.14943,1.243227 -0.053,0.588012 -0.37463,1.024172 -0.32282,0.43212 -0.92544,0.6184 z m -0.11059,-0.57286 q 0.46512,-0.14377 0.69844,-0.46404 0.23333,-0.320262 0.26044,-0.762882 0.0258,-0.44667 -0.1304,-0.952237 -0.15879,-0.51365 -0.42972,-0.85969 -0.27217,-0.35011 -0.64427,-0.47879 -0.36806,-0.129931 -0.82508,0.0113 -0.46917,0.14503 -0.70529,0.47059 -0.23612,0.32557 -0.26323,0.76818 -0.0231,0.441387 0.1294,0.934817 0.15379,0.49746 0.42721,0.851612 0.27622,0.34885 0.65082,0.48562 0.3746,0.13677 0.83163,-0.004 z m 1.64146,-5.72713 -0.2063,-0.667341 0.59454,-0.18379 0.2063,0.667341 z m 1.60658,5.197188 -1.35028,-4.36806 0.59454,-0.183789 1.35028,4.368069 z m 4.18606,-1.29403 q -0.3443,0.19059 -0.70926,0.28572 -0.3609,0.0939 -0.68655,0.0437 -0.32158,-0.0513 -0.5572,-0.29744 -0.1923,-0.2064 -0.2807,-0.449377 -0.0851,-0.24839 -0.18393,-0.56791 l -1.23651,-4.000009 0.5905,-0.18254 1.22901,3.975739 q 0.085,0.27503 0.14635,0.45989 0.0639,0.17964 0.18495,0.29731 0.22937,0.22597 0.5611,0.18103 0.33576,-0.0462 0.78118,-0.26807 z m -4.05625,-2.97326 -0.15754,-0.509607 2.8635,-0.885189 0.15754,0.509607 z"
        id="text29"
        aria-label=".git"
        inkscape:transform-center-x="-5.3896151"
        inkscape:transform-center-y="-3.7672911"
      /><rect
        style="fill:#ffffff;fill-opacity:1;stroke-width:0.79375"
        id="rect2"
        width="15.801621"
        height="6.7553401"
        x="102.31129"
        y="42.55938"
        ry="0.46315035"
      /><path
        d="m 110.03748,36.851316 c -6.23123,0 -11.30074,5.069511 -11.30074,11.300737 0,6.231227 5.06951,11.300737 11.30074,11.300737 6.23122,0 11.30073,-5.06951 11.30073,-11.300737 0,-6.231226 -5.06951,-11.300737 -11.30073,-11.300737 z m -5.65037,9.605627 0.002,-0.02486 -1.55159,-0.62041 0.83851,-2.098547 5.65037,2.260147 -0.83851,2.098547 -1.16511,-0.46672 c -0.0158,0.01582 -0.026,0.03503 -0.0418,0.04972 a 1.6939805,1.6939805 0 0 1 -2.89412,-1.197878 z m 1.13007,7.345479 c 0,0 1.13008,-3.390221 4.5203,-3.390221 3.39022,0 4.52029,3.390221 4.52029,3.390221 z m 10.15484,-7.35339 c 0,0.465591 -0.18872,0.887108 -0.49497,1.193358 a 1.6815497,1.6815497 0 0 1 -2.38671,0 c -0.0124,-0.01243 -0.0215,-0.02712 -0.0328,-0.03955 l -1.17188,0.46898 -0.83852,-2.098547 5.65037,-2.260147 0.83852,2.098547 -1.56629,0.626061 a 0.04068265,0.04068265 0 0 1 0.002,0.0113 z"
        id="path1-1"
        style="fill:#ff6262;fill-opacity:1;stroke-width:0.264584"
      /><path
        style="font-weight:bold;font-size:11.6227px;line-height:1.2;font-family:Manrope;-inkscape-font-specification:'Manrope Bold';stroke-width:0.79375"
        d="m 100.93982,74.43573 v -8.368344 h 3.31828 q 0.84846,0 1.38891,0.34287 0.54627,0.337058 0.80778,0.865891 0.26732,0.528833 0.26732,1.092534 0,0.69155 -0.33125,1.173892 -0.32543,0.482342 -0.88913,0.650872 v -0.290568 q 0.79034,0.180152 1.19714,0.749664 0.4126,0.569513 0.4126,1.295931 0,0.743853 -0.28476,1.301743 -0.28475,0.557889 -0.84845,0.871702 -0.55789,0.313813 -1.3831,0.313813 z m 1.41797,-1.319176 h 2.06303 q 0.36611,0 0.65668,-0.145284 0.29057,-0.151095 0.45328,-0.418417 0.16853,-0.273134 0.16853,-0.64506 0,-0.337059 -0.14528,-0.604381 -0.14528,-0.267322 -0.42423,-0.424228 -0.27894,-0.162718 -0.6683,-0.162718 h -2.10371 z m 0,-3.707642 h 1.88287 q 0.30219,0 0.54046,-0.116227 0.23826,-0.116227 0.37774,-0.342869 0.13947,-0.226643 0.13947,-0.55789 0,-0.435851 -0.27895,-0.726419 -0.27894,-0.290567 -0.77872,-0.290567 h -1.88287 z m 8.68797,5.201158 q -0.94144,0 -1.64461,-0.424228 -0.70317,-0.424229 -1.09254,-1.168081 -0.38354,-0.749665 -0.38354,-1.72016 0,-0.987929 0.39517,-1.731782 0.39517,-0.743853 1.09834,-1.16227 0.70318,-0.418417 1.62718,-0.418417 0.94725,0 1.65042,0.424228 0.70318,0.424229 1.09254,1.173893 0.38936,0.743853 0.38936,1.714348 0,0.976307 -0.39517,1.725971 -0.38936,0.743853 -1.09254,1.168081 -0.70317,0.418417 -1.64461,0.418417 z m 0,-1.313365 q 0.83684,0 1.24363,-0.557889 0.40679,-0.55789 0.40679,-1.441215 0,-0.912382 -0.4126,-1.452837 -0.41261,-0.546267 -1.23782,-0.546267 -0.5637,0 -0.92982,0.255699 -0.3603,0.249888 -0.53464,0.703173 -0.17434,0.447474 -0.17434,1.040232 0,0.912382 0.41261,1.458649 0.41841,0.540455 1.22619,0.540455 z m 8.0894,1.139025 q -0.62181,0.116227 -1.22038,0.09879 -0.59276,-0.01162 -1.06348,-0.21502 -0.47072,-0.209209 -0.7148,-0.656683 -0.21502,-0.406794 -0.22664,-0.831023 -0.0116,-0.424228 -0.0116,-0.958872 v -5.456858 h 1.39472 v 5.375499 q 0,0.377738 0.006,0.662494 0.0116,0.284756 0.12204,0.464908 0.20921,0.348681 0.66831,0.38936 0.45909,0.04068 1.04604,-0.04649 z m -4.37595,-5.177913 v -1.098345 h 4.37595 v 1.098345 z"
        id="text14"
        aria-label="Bot"
      /><rect
        style="fill:#ffffff;fill-opacity:1;stroke-width:0.79375"
        id="rect3"
        width="15.801621"
        height="6.7553401"
        x="102.31129"
        y="109.69176"
        ry="0.46315035"
      /><path
        d="m 110.03748,103.9837 c -6.23123,0 -11.30074,5.06951 -11.30074,11.30073 0,6.23123 5.06951,11.30074 11.30074,11.30074 6.23122,0 11.30073,-5.06951 11.30073,-11.30074 0,-6.23122 -5.06951,-11.30073 -11.30073,-11.30073 z m -5.65037,9.60562 0.002,-0.0249 -1.55159,-0.62041 0.83851,-2.09855 5.65037,2.26015 -0.83851,2.09855 -1.16511,-0.46672 c -0.0158,0.0158 -0.026,0.035 -0.0418,0.0497 a 1.6939805,1.6939805 0 0 1 -2.89412,-1.19788 z m 1.13007,7.34548 c 0,0 1.13008,-3.39022 4.5203,-3.39022 3.39022,0 4.52029,3.39022 4.52029,3.39022 z m 10.15484,-7.35339 c 0,0.46559 -0.18872,0.88711 -0.49497,1.19336 a 1.6815497,1.6815497 0 0 1 -2.38671,0 c -0.0124,-0.0124 -0.0215,-0.0271 -0.0328,-0.0396 l -1.17188,0.46898 -0.83852,-2.09855 5.65037,-2.26015 0.83852,2.09855 -1.56629,0.62606 a 0.04068265,0.04068265 0 0 1 0.002,0.0113 z"
        id="path3-62"
        style="fill:#ff6262;fill-opacity:1;stroke-width:0.264584"
      /><path
        style="font-weight:bold;font-size:11.6227px;line-height:1.2;font-family:Manrope;-inkscape-font-specification:'Manrope Bold';stroke-width:0.79375"
        d="m 100.93982,141.5681 v -8.36834 h 3.31828 q 0.84846,0 1.38891,0.34287 0.54627,0.33705 0.80778,0.86589 0.26732,0.52883 0.26732,1.09253 0,0.69155 -0.33125,1.17389 -0.32543,0.48235 -0.88913,0.65087 v -0.29056 q 0.79034,0.18015 1.19714,0.74966 0.4126,0.56951 0.4126,1.29593 0,0.74386 -0.28476,1.30174 -0.28475,0.55789 -0.84845,0.87171 -0.55789,0.31381 -1.3831,0.31381 z m 1.41797,-1.31918 h 2.06303 q 0.36611,0 0.65668,-0.14528 0.29057,-0.1511 0.45328,-0.41842 0.16853,-0.27313 0.16853,-0.64506 0,-0.33706 -0.14528,-0.60438 -0.14528,-0.26732 -0.42423,-0.42423 -0.27894,-0.16271 -0.6683,-0.16271 h -2.10371 z m 0,-3.70764 h 1.88287 q 0.30219,0 0.54046,-0.11622 0.23826,-0.11623 0.37774,-0.34287 0.13947,-0.22665 0.13947,-0.55789 0,-0.43586 -0.27895,-0.72642 -0.27894,-0.29057 -0.77872,-0.29057 h -1.88287 z m 8.68797,5.20116 q -0.94144,0 -1.64461,-0.42423 -0.70317,-0.42423 -1.09254,-1.16808 -0.38354,-0.74966 -0.38354,-1.72016 0,-0.98793 0.39517,-1.73178 0.39517,-0.74385 1.09834,-1.16227 0.70318,-0.41842 1.62718,-0.41842 0.94725,0 1.65042,0.42423 0.70318,0.42423 1.09254,1.17389 0.38936,0.74386 0.38936,1.71435 0,0.97631 -0.39517,1.72597 -0.38936,0.74385 -1.09254,1.16808 -0.70317,0.41842 -1.64461,0.41842 z m 0,-1.31336 q 0.83684,0 1.24363,-0.55789 0.40679,-0.55789 0.40679,-1.44122 0,-0.91238 -0.4126,-1.45284 -0.41261,-0.54626 -1.23782,-0.54626 -0.5637,0 -0.92982,0.2557 -0.3603,0.24988 -0.53464,0.70317 -0.17434,0.44747 -0.17434,1.04023 0,0.91238 0.41261,1.45865 0.41841,0.54046 1.22619,0.54046 z m 8.0894,1.13902 q -0.62181,0.11623 -1.22038,0.0988 -0.59276,-0.0116 -1.06348,-0.21502 -0.47072,-0.20921 -0.7148,-0.65668 -0.21502,-0.40679 -0.22664,-0.83102 -0.0116,-0.42423 -0.0116,-0.95888 v -5.45685 h 1.39472 v 5.3755 q 0,0.37773 0.006,0.66249 0.0116,0.28476 0.12204,0.46491 0.20921,0.34868 0.66831,0.38936 0.45909,0.0407 1.04604,-0.0465 z m -4.37595,-5.17791 v -1.09835 h 4.37595 v 1.09835 z"
        id="text39"
        aria-label="Bot"
      /><path
        style="font-weight:bold;font-size:11.6227px;line-height:1.2;font-family:Manrope;-inkscape-font-specification:'Manrope Bold';stroke-width:0.79375"
        d="m 257.45753,117.73646 q -0.91819,0 -1.65623,-0.31963 -0.73223,-0.31962 -1.20876,-0.91238 -0.47072,-0.59857 -0.59857,-1.41797 l 1.45283,-0.22083 q 0.18597,0.74385 0.76129,1.15065 0.58114,0.40679 1.33661,0.40679 0.44748,0 0.84265,-0.13947 0.39517,-0.13947 0.63925,-0.40679 0.24988,-0.26733 0.24988,-0.65669 0,-0.17434 -0.0581,-0.31962 -0.0581,-0.15109 -0.17434,-0.26732 -0.11042,-0.11623 -0.29057,-0.20921 -0.17434,-0.0988 -0.40679,-0.16853 l -2.16182,-0.63925 q -0.27895,-0.0814 -0.60438,-0.21502 -0.31963,-0.13947 -0.6102,-0.37774 -0.28475,-0.24407 -0.47072,-0.616 -0.18015,-0.37774 -0.18015,-0.92981 0,-0.80778 0.4068,-1.35405 0.4126,-0.55208 1.10415,-0.82521 0.69737,-0.27313 1.54582,-0.26732 0.86008,0.006 1.5342,0.29638 0.67412,0.28475 1.1274,0.83102 0.45329,0.54627 0.63925,1.31918 l -1.50514,0.26151 q -0.093,-0.44167 -0.3603,-0.74967 -0.26151,-0.31381 -0.64506,-0.47653 -0.37774,-0.16272 -0.80778,-0.17434 -0.41842,-0.006 -0.77872,0.12785 -0.35449,0.12785 -0.57533,0.37193 -0.21502,0.24407 -0.21502,0.56951 0,0.308 0.18597,0.50559 0.18596,0.19177 0.45909,0.308 0.27895,0.11041 0.56371,0.18596 l 1.49932,0.41842 q 0.30801,0.0814 0.69155,0.22083 0.38355,0.13947 0.73805,0.38936 0.35449,0.24989 0.58113,0.65668 0.23245,0.4068 0.23245,1.03442 0,0.65087 -0.27313,1.14484 -0.26732,0.48815 -0.72642,0.81359 -0.45909,0.32543 -1.05185,0.48815 -0.58695,0.16272 -1.23201,0.16272 z m 6.2995,0 q -0.67993,0 -1.15065,-0.2557 -0.47072,-0.26151 -0.7148,-0.69155 -0.23826,-0.43004 -0.23826,-0.94725 0,-0.45329 0.15109,-0.81359 0.1511,-0.36612 0.46491,-0.62763 0.31381,-0.26732 0.81359,-0.43585 0.37774,-0.12204 0.88333,-0.22083 0.51139,-0.0988 1.10415,-0.18015 0.59857,-0.0872 1.24944,-0.18596 l -0.49977,0.28475 q 0.006,-0.65087 -0.29057,-0.95887 -0.29638,-0.308 -0.99955,-0.308 -0.42423,0 -0.8194,0.19758 -0.39518,0.19759 -0.55208,0.67993 l -1.2785,-0.40098 q 0.23246,-0.79616 0.88333,-1.2785 0.65668,-0.48234 1.76665,-0.48234 0.83683,0 1.47027,0.27313 0.63925,0.27314 0.94725,0.89495 0.16853,0.33125 0.2034,0.67993 0.0349,0.34287 0.0349,0.74966 v 3.85293 h -1.22619 v -1.35986 l 0.2034,0.22083 q -0.42423,0.67993 -0.99374,0.99956 -0.56371,0.31381 -1.41216,0.31381 z m 0.27894,-1.11578 q 0.47653,0 0.81359,-0.16853 0.33706,-0.16853 0.53465,-0.41261 0.20339,-0.24407 0.27313,-0.45909 0.11041,-0.26732 0.12204,-0.61019 0.0174,-0.34868 0.0174,-0.5637 l 0.43004,0.12785 q -0.63344,0.0988 -1.08672,0.17434 -0.45329,0.0755 -0.77872,0.14528 -0.32544,0.0639 -0.57533,0.14528 -0.24407,0.0872 -0.4126,0.2034 -0.16853,0.11623 -0.26151,0.26732 -0.0872,0.1511 -0.0872,0.35449 0,0.23246 0.11622,0.41261 0.11623,0.17434 0.33706,0.27895 0.22665,0.1046 0.55789,0.1046 z m 5.20697,0.94144 v -6.37505 q 0,-0.23827 0.0174,-0.52302 0.0174,-0.29057 0.0988,-0.57533 0.0814,-0.28475 0.29638,-0.51721 0.26732,-0.29638 0.57532,-0.40679 0.31382,-0.11623 0.61601,-0.12785 0.30219,-0.0174 0.52883,-0.0174 h 0.78453 v 1.13903 h -0.72642 q -0.40098,0 -0.59857,0.2034 -0.19177,0.19758 -0.19177,0.52302 v 6.67724 z m -1.01117,-5.17791 v -1.09835 h 3.92847 v 1.09835 z m 7.4792,5.35225 q -0.95306,0 -1.67366,-0.41261 -0.72061,-0.4126 -1.12741,-1.14483 -0.40098,-0.73223 -0.40098,-1.68529 0,-1.02861 0.39517,-1.78409 0.39517,-0.76129 1.09835,-1.1797 0.70317,-0.41842 1.62717,-0.41842 0.97631,0 1.65624,0.4591 0.68574,0.45328 1.01699,1.28431 0.33124,0.83102 0.24988,1.95842 h -1.38891 v -0.5114 q -0.006,-1.0228 -0.3603,-1.49352 -0.35449,-0.47072 -1.11578,-0.47072 -0.86008,0 -1.2785,0.53465 -0.41842,0.52883 -0.41842,1.55163 0,0.95306 0.41842,1.47608 0.41842,0.52302 1.22038,0.52302 0.51722,0 0.88914,-0.22664 0.37774,-0.23245 0.58114,-0.6683 l 1.3831,0.41841 q -0.36031,0.84846 -1.11578,1.31918 -0.74967,0.47072 -1.65624,0.47072 z m -2.16182,-2.92311 v -1.05767 h 4.31783 v 1.05767 z"
        id="text1"
        aria-label="Safe"
      /><path
        style="baseline-shift:baseline;display:inline;overflow:visible;vector-effect:none;enable-background:accumulate;stop-color:#000000"
        d="m 136.07715,56.700931 -0.44338,1.246435 27.12185,9.636105 -0.41599,-1.551327 z"
        id="path20"
      /><path
        style="baseline-shift:baseline;display:inline;overflow:visible;vector-effect:none;enable-background:accumulate;stop-color:#000000"
        d="m 167.59046,69.916956 -1.02443,1.237016 2.86102,10.111186 1.27268,-0.359427 z"
        id="path29"
      /><path
        style="baseline-shift:baseline;display:inline;overflow:visible;vector-effect:none;enable-background:accumulate;stop-color:#000000"
        d="m 173.46996,76.827374 -1.15525,-0.645907 -2.41674,4.322956 -4.32023,-2.416272 -0.64591,1.155253 5.47708,3.061056 z"
        id="path19"
      /><path
        style="baseline-shift:baseline;display:inline;overflow:visible;vector-effect:none;enable-background:accumulate;stop-color:#000000"
        d="m 136.02437,107.92512 -0.39203,-1.26353 27.49331,-8.518662 -0.4791,1.533012 z"
        id="path30"
      /><path
        style="baseline-shift:baseline;display:inline;overflow:visible;vector-effect:none;enable-background:accumulate;stop-color:#000000"
        d="m 166.04894,102.82724 -0.56505,1.50346 6.00181,8.62553 1.08591,-0.75479 z"
        id="path31"
      /><path
        style="baseline-shift:baseline;display:inline;overflow:visible;vector-effect:none;enable-background:accumulate;stop-color:#000000"
        d="m 173.86049,107.44266 -1.30273,-0.23388 -0.87495,4.87473 -4.87201,-0.87539 -0.23388,1.30273 6.17588,1.10769 z"
        id="path32"
      /></g></g><style type="text/css" id="style1">
.st0 {
  fill: #0080ff;
}
.st1 {
  fill-rule: evenodd;
  clip-rule: evenodd;
  fill: #0080ff;
}
  </style></svg>
