<?xml version="1.0" encoding="UTF-8" standalone="no"?>
<!-- Created with Inkscape (http://www.inkscape.org/) -->

<svg
   width="164.83795"
   height="109.32759"
   viewBox="0 0 43.613374 28.926258"
   version="1.1"
   id="svg1"
   inkscape:version="1.4.2 (1:1.4.2+202505120737+ebf0e940d0)"
   sodipodi:docname="big_dipper_horizontal.svg"
   xmlns:inkscape="http://www.inkscape.org/namespaces/inkscape"
   xmlns:sodipodi="http://sodipodi.sourceforge.net/DTD/sodipodi-0.dtd"
   xmlns:xlink="http://www.w3.org/1999/xlink"
   xmlns="http://www.w3.org/2000/svg"
   xmlns:svg="http://www.w3.org/2000/svg">
  <sodipodi:namedview
     id="namedview1"
     pagecolor="#ffffff"
     bordercolor="#000000"
     borderopacity="0.25"
     inkscape:showpageshadow="2"
     inkscape:pageopacity="0.0"
     inkscape:pagecheckerboard="0"
     inkscape:deskcolor="#d1d1d1"
     inkscape:document-units="px"
     inkscape:zoom="5.0696621"
     inkscape:cx="80.281484"
     inkscape:cy="63.416455"
     inkscape:window-width="2560"
     inkscape:window-height="1371"
     inkscape:window-x="0"
     inkscape:window-y="32"
     inkscape:window-maximized="1"
     inkscape:current-layer="layer1" />
  <defs
     id="defs1">
    <clipPath
       clipPathUnits="userSpaceOnUse"
       id="clipPath3514">
      <path
         d="M 0.398438,120.46094 V 0.359375 H 255.60156 V 240.5625 H 0.398438 Z m 0,0"
         id="path3514"
         style="stroke-width:0.999998" />
    </clipPath>
    <clipPath
       clipPathUnits="userSpaceOnUse"
       id="clipPath3513">
      <path
         d="M 0.398438,120.46094 V 0.359375 H 255.60156 V 240.5625 H 0.398438 Z m 0,0"
         id="path3513"
         style="stroke-width:0.999998" />
    </clipPath>
    <clipPath
       clipPathUnits="userSpaceOnUse"
       id="clipPath3512">
      <path
         d="M 0.398438,120.46094 V 0.359375 H 255.60156 V 240.5625 H 0.398438 Z m 0,0"
         id="path3512"
         style="stroke-width:0.999998" />
    </clipPath>
    <clipPath
       clipPathUnits="userSpaceOnUse"
       id="clipPath3509">
      <path
         d="M 0.398438,120.46094 V 0.359375 H 255.60156 V 240.5625 H 0.398438 Z m 0,0"
         id="path3509"
         style="stroke-width:0.999998" />
    </clipPath>
    <clipPath
       clipPathUnits="userSpaceOnUse"
       id="clipPath3393">
      <path
         d="M 0.398438,120.46094 V 0.359375 H 255.60156 V 240.5625 H 0.398438 Z m 0,0"
         id="path3393"
         style="stroke-width:0.999998" />
    </clipPath>
    <clipPath
       clipPathUnits="userSpaceOnUse"
       id="clipPath3392">
      <path
         d="M 0.398438,120.46094 V 0.359375 H 255.60156 V 240.5625 H 0.398438 Z m 0,0"
         id="path3392"
         style="stroke-width:0.999998" />
    </clipPath>
    <clipPath
       clipPathUnits="userSpaceOnUse"
       id="clipPath3341">
      <path
         d="M 0.398438,120.46094 V 0.359375 H 255.60156 V 240.5625 H 0.398438 Z m 0,0"
         id="path3341"
         style="stroke-width:0.999998" />
    </clipPath>
    <clipPath
       clipPathUnits="userSpaceOnUse"
       id="clipPath3192">
      <path
         d="M 0.398438,120.46094 V 0.359375 H 255.60156 V 240.5625 H 0.398438 Z m 0,0"
         id="path3192"
         style="stroke-width:0.999998" />
    </clipPath>
    <clipPath
       clipPathUnits="userSpaceOnUse"
       id="clipPath3191">
      <path
         d="M 0.398438,120.46094 V 0.359375 H 255.60156 V 240.5625 H 0.398438 Z m 0,0"
         id="path3191"
         style="stroke-width:0.999998" />
    </clipPath>
    <clipPath
       clipPathUnits="userSpaceOnUse"
       id="clipPath3190">
      <path
         d="M 0.398438,120.46094 V 0.359375 H 255.60156 V 240.5625 H 0.398438 Z m 0,0"
         id="path3190"
         style="stroke-width:0.999998" />
    </clipPath>
    <clipPath
       clipPathUnits="userSpaceOnUse"
       id="clipPath3186">
      <path
         d="M 0.398438,120.46094 V 0.359375 H 255.60156 V 240.5625 H 0.398438 Z m 0,0"
         id="path3186"
         style="stroke-width:0.999998" />
    </clipPath>
    <clipPath
       clipPathUnits="userSpaceOnUse"
       id="clipPath3185">
      <path
         d="M 0.398438,120.46094 V 0.359375 H 255.60156 V 240.5625 H 0.398438 Z m 0,0"
         id="path3185"
         style="stroke-width:0.999998" />
    </clipPath>
    <clipPath
       clipPathUnits="userSpaceOnUse"
       id="clipPath3184">
      <path
         d="M 0.398438,120.46094 V 0.359375 H 255.60156 V 240.5625 H 0.398438 Z m 0,0"
         id="path3184"
         style="stroke-width:0.999998" />
    </clipPath>
    <clipPath
       clipPathUnits="userSpaceOnUse"
       id="clipPath3183">
      <path
         d="M 0.398438,120.46094 V 0.359375 H 255.60156 V 240.5625 H 0.398438 Z m 0,0"
         id="path3183"
         style="stroke-width:0.999998" />
    </clipPath>
    <clipPath
       clipPathUnits="userSpaceOnUse"
       id="clipPath3182">
      <path
         d="M 0.398438,120.46094 V 0.359375 H 255.60156 V 240.5625 H 0.398438 Z m 0,0"
         id="path3182"
         style="stroke-width:0.999998" />
    </clipPath>
    <clipPath
       clipPathUnits="userSpaceOnUse"
       id="clipPath3181">
      <path
         d="M 0.398438,120.46094 V 0.359375 H 255.60156 V 240.5625 H 0.398438 Z m 0,0"
         id="path3181"
         style="stroke-width:0.999998" />
    </clipPath>
    <clipPath
       clipPathUnits="userSpaceOnUse"
       id="clipPath3180">
      <path
         d="M 0.398438,120.46094 V 0.359375 H 255.60156 V 240.5625 H 0.398438 Z m 0,0"
         id="path3180"
         style="stroke-width:0.999998" />
    </clipPath>
    <clipPath
       clipPathUnits="userSpaceOnUse"
       id="clipPath3179">
      <path
         d="M 0.398438,120.46094 V 0.359375 H 255.60156 V 240.5625 H 0.398438 Z m 0,0"
         id="path3179"
         style="stroke-width:0.999998" />
    </clipPath>
    <clipPath
       clipPathUnits="userSpaceOnUse"
       id="clipPath3178">
      <path
         d="M 0.398438,120.46094 V 0.359375 H 255.60156 V 240.5625 H 0.398438 Z m 0,0"
         id="path3178"
         style="stroke-width:0.999998" />
    </clipPath>
    <clipPath
       clipPathUnits="userSpaceOnUse"
       id="clipPath3177">
      <path
         d="M 0.398438,120.46094 V 0.359375 H 255.60156 V 240.5625 H 0.398438 Z m 0,0"
         id="path3177"
         style="stroke-width:0.999998" />
    </clipPath>
    <clipPath
       clipPathUnits="userSpaceOnUse"
       id="clipPath3176">
      <path
         d="M 0.398438,120.46094 V 0.359375 H 255.60156 V 240.5625 H 0.398438 Z m 0,0"
         id="path3176"
         style="stroke-width:0.999998" />
    </clipPath>
    <clipPath
       clipPathUnits="userSpaceOnUse"
       id="clipPath3175">
      <path
         d="M 0.398438,120.46094 V 0.359375 H 255.60156 V 240.5625 H 0.398438 Z m 0,0"
         id="path3175"
         style="stroke-width:0.999998" />
    </clipPath>
    <clipPath
       clipPathUnits="userSpaceOnUse"
       id="clipPath3174">
      <path
         d="M 0.398438,120.46094 V 0.359375 H 255.60156 V 240.5625 H 0.398438 Z m 0,0"
         id="path3174"
         style="stroke-width:0.999998" />
    </clipPath>
    <clipPath
       clipPathUnits="userSpaceOnUse"
       id="clipPath3173">
      <path
         d="M 0.398438,120.46094 V 0.359375 H 255.60156 V 240.5625 H 0.398438 Z m 0,0"
         id="path3173"
         style="stroke-width:0.999998" />
    </clipPath>
    <clipPath
       clipPathUnits="userSpaceOnUse"
       id="clipPath3172">
      <path
         d="M 0.398438,120.46094 V 0.359375 H 255.60156 V 240.5625 H 0.398438 Z m 0,0"
         id="path3172"
         style="stroke-width:0.999998" />
    </clipPath>
    <clipPath
       clipPathUnits="userSpaceOnUse"
       id="clipPath3188">
      <path
         d="M 0.398438,120.46094 V 0.359375 H 255.60156 V 240.5625 H 0.398438 Z m 0,0"
         id="path3188"
         style="stroke-width:0.999998" />
    </clipPath>
    <clipPath
       clipPathUnits="userSpaceOnUse"
       id="clipPath3187">
      <path
         d="M 0.398438,120.46094 V 0.359375 H 255.60156 V 240.5625 H 0.398438 Z m 0,0"
         id="path3187"
         style="stroke-width:0.999998" />
    </clipPath>
    <clipPath
       clipPathUnits="userSpaceOnUse"
       id="clipPath1">
      <path
         d="M 0.398438,120.46094 V 0.359375 H 255.60156 V 240.5625 H 0.398438 Z m 0,0"
         id="path1"
         style="stroke-width:0.999998" />
    </clipPath>
    <linearGradient
       inkscape:collect="always"
       xlink:href="#linearGradient12"
       id="linearGradient6103"
       gradientUnits="userSpaceOnUse"
       gradientTransform="matrix(0.31101022,0,0,0.31101022,656.87398,49.835351)"
       x1="-165.99591"
       y1="34.805733"
       x2="-82.538643"
       y2="99.91259" />
    <linearGradient
       id="linearGradient12"
       inkscape:collect="always">
      <stop
         style="stop-color:#58dbf9;stop-opacity:1;"
         offset="0.34220436"
         id="stop12" />
      <stop
         style="stop-color:#103064;stop-opacity:1;"
         offset="1"
         id="stop13" />
    </linearGradient>
    <linearGradient
       inkscape:collect="always"
       xlink:href="#linearGradient12"
       id="linearGradient1"
       gradientUnits="userSpaceOnUse"
       gradientTransform="matrix(0.31101022,0,0,0.31101022,656.87398,49.835351)"
       x1="-165.99591"
       y1="34.805733"
       x2="-82.538643"
       y2="99.91259" />
  </defs>
  <g
     inkscape:label="Layer 1"
     inkscape:groupmode="layer"
     id="layer1"
     transform="translate(-124.88333,-146.84376)">
    <path
       style="clip-rule:nonzero;fill:#f97316;fill-opacity:1;fill-rule:nonzero;stroke:none"
       d="m 75.589844,107.61719 c 0,-1.51172 -1.226563,-2.73438 -2.738282,-2.73438 -1.511718,0 -2.738281,1.22266 -2.738281,2.73438 0,1.51172 1.226563,2.73828 2.738281,2.73828 1.511719,0 2.738282,-1.22656 2.738282,-2.73828"
       id="path2618"
       clip-path="url(#clipPath3514)"
       transform="matrix(0.3055145,0.17638888,-0.17638888,0.3055145,139.57174,108.20866)" />
    <path
       style="clip-rule:nonzero;fill:#f97316;fill-opacity:1;fill-rule:nonzero;stroke:none"
       d="m 148.38281,113.03125 c 0,-1.33984 -1.08594,-2.42578 -2.42578,-2.42578 -1.33984,0 -2.42578,1.08594 -2.42578,2.42578 0,1.33984 1.08594,2.42578 2.42578,2.42578 1.33984,0 2.42578,-1.08594 2.42578,-2.42578"
       id="path2619"
       clip-path="url(#clipPath3513)"
       transform="matrix(0.3055145,0.17638888,-0.17638888,0.3055145,139.57174,108.20866)" />
    <path
       style="clip-rule:nonzero;fill:#f97316;fill-opacity:1;fill-rule:nonzero;stroke:none"
       d="m 113.30859,125.95703 c 0,-1.3164 -1.07031,-2.38672 -2.38671,-2.38672 -1.32032,0 -2.39063,1.07032 -2.39063,2.38672 0,1.32031 1.07031,2.38672 2.39063,2.38672 1.3164,0 2.38671,-1.06641 2.38671,-2.38672"
       id="path2620"
       clip-path="url(#clipPath3512)"
       transform="matrix(0.3055145,0.17638888,-0.17638888,0.3055145,139.57174,108.20866)" />
    <path
       style="clip-rule:nonzero;fill:#f97316;fill-opacity:1;fill-rule:nonzero;stroke:none"
       d="m 100.3125,108.49609 c 0,-1.01171 -0.824219,-1.83593 -1.835938,-1.83593 -1.015624,0 -1.835937,0.82422 -1.835937,1.83593 0,1.01563 0.820313,1.83594 1.835937,1.83594 1.011719,0 1.835938,-0.82031 1.835938,-1.83594"
       id="path2623"
       clip-path="url(#clipPath3509)"
       transform="matrix(0.3055145,0.17638888,-0.17638888,0.3055145,139.57174,108.20866)" />
    <path
       style="clip-rule:nonzero;fill:#f97316;fill-opacity:1;fill-rule:nonzero;stroke:none"
       d="m 28.203125,122.07422 c 0,-1.48438 -1.203125,-2.69141 -2.691406,-2.69141 -1.488281,0 -2.691407,1.20703 -2.691407,2.69141 0,1.48828 1.203126,2.69531 2.691407,2.69531 1.488281,0 2.691406,-1.20703 2.691406,-2.69531"
       id="path2739"
       clip-path="url(#clipPath3393)"
       transform="matrix(0.3055145,0.17638888,-0.17638888,0.3055145,139.57174,108.20866)" />
    <path
       style="clip-rule:nonzero;fill:#f97316;fill-opacity:1;fill-rule:nonzero;stroke:none"
       d="m 54.976562,105.21094 c 0,-1.4336 -1.160156,-2.59375 -2.59375,-2.59375 -1.429687,0 -2.589843,1.16015 -2.589843,2.59375 0,1.42969 1.160156,2.58984 2.589843,2.58984 1.433594,0 2.59375,-1.16015 2.59375,-2.58984"
       id="path2740"
       clip-path="url(#clipPath3392)"
       transform="matrix(0.3055145,0.17638888,-0.17638888,0.3055145,139.57174,108.20866)" />
    <path
       style="clip-rule:nonzero;fill:#f97316;fill-opacity:1;fill-rule:nonzero;stroke:none"
       d="m 144.99609,87.890625 c 0,-1.507813 -1.21875,-2.730469 -2.72656,-2.730469 -1.50391,0 -2.72656,1.222656 -2.72656,2.730469 0,1.503906 1.22265,2.726563 2.72656,2.726563 1.50781,0 2.72656,-1.222657 2.72656,-2.726563"
       id="path2791"
       clip-path="url(#clipPath3341)"
       transform="matrix(0.3055145,0.17638888,-0.17638888,0.3055145,139.57174,108.20866)" />
    <path
       style="clip-rule:nonzero;fill:none;stroke:#9ca3af;stroke-width:0.992219;stroke-linecap:round;stroke-linejoin:miter;stroke-miterlimit:10;stroke-opacity:1"
       d="m 142.96484,92.74609 0.0156,0.09766"
       id="path2940"
       clip-path="url(#clipPath3192)"
       transform="matrix(0.3055145,0.17638888,-0.17638888,0.3055145,139.57174,108.20866)" />
    <path
       style="clip-rule:nonzero;fill:none;stroke:#9ca3af;stroke-width:0.992219;stroke-linecap:round;stroke-linejoin:miter;stroke-miterlimit:10;stroke-opacity:1"
       d="m 145.26172,108.46094 -0.0156,-0.10157"
       id="path2941"
       clip-path="url(#clipPath3191)"
       transform="matrix(0.3055145,0.17638888,-0.17638888,0.3055145,139.57174,108.20866)" />
    <path
       style="clip-rule:nonzero;fill:none;fill-opacity:1;stroke:#9ca3af;stroke-width:0.992219;stroke-linecap:butt;stroke-linejoin:miter;stroke-miterlimit:10;stroke-opacity:1"
       d="m 142.96484,92.74609 2.29688,15.71485"
       id="path2942"
       clip-path="url(#clipPath3190)"
       transform="matrix(0.3055145,0.17638888,-0.17638888,0.3055145,139.57174,108.20866)" />
    <path
       style="clip-rule:nonzero;fill:none;stroke:#9ca3af;stroke-width:0.992219;stroke-linecap:round;stroke-linejoin:miter;stroke-miterlimit:10;stroke-opacity:1"
       d="m 108.25,122.21094 -0.0586,-0.082"
       id="path2946"
       clip-path="url(#clipPath3186)"
       transform="matrix(0.3055145,0.17638888,-0.17638888,0.3055145,139.57174,108.20866)" />
    <path
       style="clip-rule:nonzero;fill:none;stroke:#9ca3af;stroke-width:0.992219;stroke-linecap:round;stroke-linejoin:miter;stroke-miterlimit:10;stroke-opacity:1"
       d="m 100.83203,111.79297 0.0586,0.082"
       id="path2947"
       clip-path="url(#clipPath3185)"
       transform="matrix(0.3055145,0.17638888,-0.17638888,0.3055145,139.57174,108.20866)" />
    <path
       style="clip-rule:nonzero;fill:none;fill-opacity:1;stroke:#9ca3af;stroke-width:0.992219;stroke-linecap:butt;stroke-linejoin:miter;stroke-miterlimit:10;stroke-opacity:1"
       d="m 108.25,122.21094 -7.41797,-10.41797"
       id="path2948"
       clip-path="url(#clipPath3184)"
       transform="matrix(0.3055145,0.17638888,-0.17638888,0.3055145,139.57174,108.20866)" />
    <path
       style="clip-rule:nonzero;fill:none;stroke:#9ca3af;stroke-width:0.992219;stroke-linecap:round;stroke-linejoin:miter;stroke-miterlimit:10;stroke-opacity:1"
       d="m 94.464844,108.36719 -0.101563,-0.004"
       id="path2949"
       clip-path="url(#clipPath3183)"
       transform="matrix(0.3055145,0.17638888,-0.17638888,0.3055145,139.57174,108.20866)" />
    <path
       style="clip-rule:nonzero;fill:none;stroke:#9ca3af;stroke-width:0.992219;stroke-linecap:round;stroke-linejoin:miter;stroke-miterlimit:10;stroke-opacity:1"
       d="m 77.769531,107.77734 0.09766,0.004"
       id="path2950"
       clip-path="url(#clipPath3182)"
       transform="matrix(0.3055145,0.17638888,-0.17638888,0.3055145,139.57174,108.20866)" />
    <path
       style="clip-rule:nonzero;fill:none;fill-opacity:1;stroke:#9ca3af;stroke-width:0.992219;stroke-linecap:butt;stroke-linejoin:miter;stroke-miterlimit:10;stroke-opacity:1"
       d="M 94.464844,108.36719 77.769531,107.77734"
       id="path2951"
       clip-path="url(#clipPath3181)"
       transform="matrix(0.3055145,0.17638888,-0.17638888,0.3055145,139.57174,108.20866)" />
    <path
       style="clip-rule:nonzero;fill:none;stroke:#9ca3af;stroke-width:0.992219;stroke-linecap:round;stroke-linejoin:miter;stroke-miterlimit:10;stroke-opacity:1"
       d="m 67.933594,107.05078 -0.09766,-0.0117"
       id="path2952"
       clip-path="url(#clipPath3180)"
       transform="matrix(0.3055145,0.17638888,-0.17638888,0.3055145,140.04319,108.56642)" />
    <path
       style="clip-rule:nonzero;fill:none;stroke:#9ca3af;stroke-width:0.992219;stroke-linecap:round;stroke-linejoin:miter;stroke-miterlimit:10;stroke-opacity:1"
       d="m 57.128906,105.77734 0.09766,0.0117"
       id="path2953"
       clip-path="url(#clipPath3179)"
       transform="matrix(0.3055145,0.17638888,-0.17638888,0.3055145,140.04319,108.56642)" />
    <path
       style="clip-rule:nonzero;fill:none;fill-opacity:1;stroke:#9ca3af;stroke-width:0.992219;stroke-linecap:butt;stroke-linejoin:miter;stroke-miterlimit:10;stroke-opacity:1"
       d="M 67.933594,107.05078 57.128906,105.77734"
       id="path2954"
       clip-path="url(#clipPath3178)"
       transform="matrix(0.3055145,0.17638888,-0.17638888,0.3055145,140.04319,108.56642)" />
    <path
       style="clip-rule:nonzero;fill:none;stroke:#9ca3af;stroke-width:0.992219;stroke-linecap:round;stroke-linejoin:miter;stroke-miterlimit:10;stroke-opacity:1"
       d="M 48.335937,107.76953 48.25,107.82031"
       id="path2955"
       clip-path="url(#clipPath3177)"
       transform="matrix(0.3055145,0.17638888,-0.17638888,0.3055145,139.57174,108.20866)" />
    <path
       style="clip-rule:nonzero;fill:none;stroke:#9ca3af;stroke-width:0.992219;stroke-linecap:round;stroke-linejoin:miter;stroke-miterlimit:10;stroke-opacity:1"
       d="m 29.644531,119.48828 0.08594,-0.0547"
       id="path2956"
       clip-path="url(#clipPath3176)"
       transform="matrix(0.3055145,0.17638888,-0.17638888,0.3055145,139.57174,108.20866)" />
    <path
       style="clip-rule:nonzero;fill:none;fill-opacity:1;stroke:#9ca3af;stroke-width:0.992219;stroke-linecap:butt;stroke-linejoin:miter;stroke-miterlimit:10;stroke-opacity:1"
       d="M 48.335937,107.76953 29.644531,119.48828"
       id="path2957"
       clip-path="url(#clipPath3175)"
       transform="matrix(0.3055145,0.17638888,-0.17638888,0.3055145,139.57174,108.20866)" />
    <path
       style="clip-rule:nonzero;fill:none;stroke:#9ca3af;stroke-width:0.992219;stroke-linecap:round;stroke-linejoin:miter;stroke-miterlimit:10;stroke-opacity:1"
       d="m 137.79688,89.97266 -0.0898,0.04296"
       id="path2958"
       clip-path="url(#clipPath3174)"
       transform="matrix(0.3055145,0.17638888,-0.17638888,0.3055145,139.57174,108.20866)" />
    <path
       style="clip-rule:nonzero;fill:none;stroke:#9ca3af;stroke-width:0.992219;stroke-linecap:round;stroke-linejoin:miter;stroke-miterlimit:10;stroke-opacity:1"
       d="m 102.12891,106.78125 0.0898,-0.0391"
       id="path2959"
       clip-path="url(#clipPath3173)"
       transform="matrix(0.3055145,0.17638888,-0.17638888,0.3055145,139.57174,108.20866)" />
    <path
       style="clip-rule:nonzero;fill:none;fill-opacity:1;stroke:#9ca3af;stroke-width:0.992219;stroke-linecap:butt;stroke-linejoin:miter;stroke-miterlimit:10;stroke-opacity:1"
       d="m 137.79688,89.97266 -35.66797,16.80859"
       id="path2960"
       clip-path="url(#clipPath3172)"
       transform="matrix(0.3055145,0.17638888,-0.17638888,0.3055145,139.57174,108.20866)" />
    <path
       style="clip-rule:nonzero;fill:none;stroke:#9ca3af;stroke-width:0.992219;stroke-linecap:round;stroke-linejoin:miter;stroke-miterlimit:10;stroke-opacity:1"
       d="m 115.21094,124.37109 0.0937,-0.0352"
       id="path2944"
       clip-path="url(#clipPath3188)"
       transform="matrix(0.3055145,0.17638888,-0.17638888,0.3055145,139.57174,108.20866)" />
    <path
       style="clip-rule:nonzero;fill:none;fill-opacity:1;stroke:#9ca3af;stroke-width:0.992219;stroke-linecap:butt;stroke-linejoin:miter;stroke-miterlimit:10;stroke-opacity:1"
       d="m 141.60547,114.62109 -26.39453,9.75"
       id="path2945"
       clip-path="url(#clipPath3187)"
       transform="matrix(0.3055145,0.17638888,-0.17638888,0.3055145,139.57174,108.20866)" />
    <path
       style="clip-rule:nonzero;fill:none;stroke:#9ca3af;stroke-width:0.992219;stroke-linecap:round;stroke-linejoin:miter;stroke-miterlimit:10;stroke-opacity:1"
       d="m 115.21094,124.37109 0.0937,-0.0352"
       id="path6095"
       clip-path="url(#clipPath3188)"
       transform="matrix(0.3055145,0.17638888,-0.17638888,0.3055145,149.32977,109.88119)" />
    <g
       id="g140"
       transform="matrix(0.03605978,-0.03605978,-0.03605978,-0.03605978,133.24212,187.8687)"
       style="stroke-width:2.07347">
      <g
         id="g137"
         style="stroke-width:2.07347">
        <path
           id="path129-38"
           style="color:#000000;font-style:normal;font-variant:normal;font-weight:normal;font-stretch:normal;font-size:medium;line-height:normal;font-family:sans-serif;font-variant-ligatures:normal;font-variant-position:normal;font-variant-caps:normal;font-variant-numeric:normal;font-variant-alternates:normal;font-variant-east-asian:normal;font-feature-settings:normal;font-variation-settings:normal;text-indent:0;text-align:start;text-decoration-line:none;text-decoration-style:solid;text-decoration-color:#000000;letter-spacing:normal;word-spacing:normal;text-transform:none;writing-mode:lr-tb;direction:ltr;text-orientation:mixed;dominant-baseline:auto;baseline-shift:baseline;text-anchor:start;white-space:normal;shape-padding:0;shape-margin:0;inline-size:0;clip-rule:nonzero;display:inline;overflow:visible;visibility:visible;isolation:auto;mix-blend-mode:normal;color-interpolation:sRGB;color-interpolation-filters:linearRGB;solid-color:#000000;solid-opacity:1;fill:url(#linearGradient1);fill-opacity:1;fill-rule:evenodd;stroke:none;stroke-width:0.548606;stroke-linecap:butt;stroke-linejoin:miter;stroke-miterlimit:4;stroke-dasharray:none;stroke-dashoffset:0;stroke-opacity:0.575207;color-rendering:auto;image-rendering:auto;shape-rendering:auto;text-rendering:auto;enable-background:accumulate;stop-color:#000000"
           d="m 613.13238,61.033431 c -0.2229,-0.004 -0.5414,0.007 -0.9473,0.0464 -0.7829,0.0749 -1.9993,0.27373 -3.211,0.78172 -0.09,0.0376 -0.1801,0.0773 -0.2702,0.11861 -1.0873,0.49888 -1.9546,1.15535 -2.5307,1.95227 -0.6147,0.84922 -0.8867,1.86404 -0.7201,2.99488 0.1757,1.16956 0.8363,2.44754 1.9268,3.71027 1.4905,1.72285 3.8553,3.38176 6.6257,4.60968 1.363,0.60479 2.8316,1.0969 4.3118,1.41525 1.5334,0.32654 3.0288,0.44537 4.3503,0.34182 1.8054,-0.14419 3.1889,-0.74491 3.8532,-1.70788 0.3296,-0.47471 0.463,-1.04743 0.3549,-1.69481 -0.12,-0.67471 -0.5138,-1.4004 -1.154,-2.11945 -0.8839,-0.98777 -2.229,-1.91096 -3.8252,-2.60604 -1.6626,-0.72559 -3.5188,-1.10655 -5.1296,-0.98376 -1.0813,0.10417 -1.8791,0.47294 -2.2645,1.06471 -0.3254,0.49425 -0.2748,1.13347 0.1635,1.84331 -0.4388,-0.22333 -0.8572,-0.50555 -1.1774,-0.82219 -0.3343,-0.33058 -0.5911,-0.70387 -0.6962,-1.06004 -0.1037,-0.331 -0.076,-0.66722 0.072,-0.97723 0.2901,-0.59485 1.0741,-1.06985 2.2182,-1.2244 0.8394,-0.11374 1.8575,-0.0851 2.9382,0.10428 1.0262,0.17697 2.1305,0.50412 3.2119,0.93676 2.187,0.87688 4.2348,2.17889 5.5881,3.57859 1.0299,1.06468 1.71,2.17002 1.9772,3.19194 0.2735,1.03446 0.1321,1.98122 -0.2973,2.78193 -0.4355,0.81033 -1.1631,1.46847 -2.0497,1.97469 -0.076,0.0433 -0.1517,0.0849 -0.2276,0.12515 -1.0304,0.54562 -2.0938,0.83783 -2.7461,1.00275 -0.6838,0.17288 -1.0474,0.25035 -0.9991,0.30384 0.048,0.0537 0.51,0.0836 1.3219,0.006 0.7828,-0.0749 1.9992,-0.27373 3.2109,-0.78172 0.09,-0.0376 0.1801,-0.0773 0.2702,-0.11862 1.0873,-0.49888 1.9547,-1.15504 2.5307,-1.95196 0.6148,-0.84922 0.8867,-1.86435 0.7201,-2.99518 -0.1756,-1.16955 -0.8363,-2.44724 -1.9267,-3.70997 -1.4906,-1.72285 -3.8553,-3.38175 -6.6258,-4.60967 -1.363,-0.6048 -2.8313,-1.0969 -4.3114,-1.41525 -1.5334,-0.32655 -3.0291,-0.44537 -4.3507,-0.34182 -1.8053,0.1442 -3.1885,0.7449 -3.8529,1.70788 -0.3296,0.47472 -0.4629,1.04712 -0.3549,1.6945 0.1201,0.67472 0.5136,1.4004 1.1538,2.11945 0.8838,0.98777 2.229,1.91096 3.8251,2.60604 1.6627,0.72558 3.5188,1.10655 5.1296,0.98376 1.0813,-0.10418 1.8791,-0.47294 2.2645,-1.06471 0.3255,-0.49431 0.275,-1.13369 -0.1634,-1.84362 0.4388,0.22336 0.8574,0.50578 1.1777,0.8225 0.3342,0.33058 0.5908,0.70387 0.6958,1.06004 0.1038,0.33099 0.076,0.66723 -0.072,0.97723 -0.29,0.59486 -1.0741,1.06984 -2.2181,1.22441 -0.8394,0.11372 -1.8576,0.0854 -2.9382,-0.10398 -1.0262,-0.17697 -2.1306,-0.50412 -3.2119,-0.93676 -2.187,-0.87687 -4.2348,-2.1792 -5.5882,-3.5789 -1.0299,-1.06468 -1.7099,-2.17002 -1.9771,-3.19194 -0.2735,-1.03446 -0.1318,-1.98122 0.2976,-2.78193 0.4355,-0.81034 1.1628,-1.46848 2.0494,-1.97469 0.076,-0.0433 0.1517,-0.0849 0.2276,-0.12515 1.0304,-0.54562 2.0938,-0.83752 2.7461,-1.00244 0.6838,-0.17288 1.0473,-0.25066 0.999,-0.30416 -0.024,-0.0269 -0.1516,-0.0478 -0.3745,-0.0523 z" />
        <path
           id="path135-60"
           style="fill:#382646;stroke-width:5.48609;stroke-linecap:round;stroke-linejoin:round"
           d="m 619.66818,71.510891 a 1.7828753,0.89143765 20 0 1 -1.9802,0.2279 1.7828753,0.89143765 20 0 1 -1.3705,-1.44746 1.7828753,0.89143765 20 0 1 1.9802,-0.22789 1.7828753,0.89143765 20 0 1 1.3705,1.44745 z" />
      </g>
    </g>
    <path
       sodipodi:type="star"
       style="fill:#22d3ee;fill-opacity:1;stroke:none;stroke-width:0.47444;stroke-linejoin:round;stroke-dasharray:none;stroke-opacity:1"
       id="path171-6"
       inkscape:flatsided="false"
       sodipodi:sides="4"
       sodipodi:cx="647.09552"
       sodipodi:cy="199.78777"
       sodipodi:r1="4.867784"
       sodipodi:r2="1.8497579"
       sodipodi:arg1="1.3089969"
       sodipodi:arg2="2.0943951"
       inkscape:rounded="0.1"
       inkscape:randomized="0"
       d="m 648.3554,204.48968 c -0.36633,0.0982 -1.85632,-2.91035 -2.18476,-3.09998 -0.32844,-0.18962 -3.67888,0.0243 -3.77704,-0.34206 -0.0982,-0.36633 2.91036,-1.85631 3.09998,-2.18475 0.18963,-0.32844 -0.0243,-3.67889 0.34206,-3.77704 0.36633,-0.0982 1.85632,2.91035 2.18476,3.09998 0.32844,0.18962 3.67888,-0.0243 3.77704,0.34206 0.0982,0.36633 -2.91036,1.85631 -3.09998,2.18475 -0.18963,0.32844 0.0243,3.67889 -0.34206,3.77704 z"
       transform="matrix(0.25067924,-0.14964708,-0.14964708,-0.25067924,0.71724953,300.2871)" />
    <g
       id="g6106"
       transform="matrix(0.03605978,-0.03605978,0.03605978,0.03605978,109.4095,166.94649)"
       style="stroke-width:2.07347">
      <g
         id="g6105"
         style="stroke-width:2.07347">
        <path
           id="path6104"
           style="color:#000000;font-style:normal;font-variant:normal;font-weight:normal;font-stretch:normal;font-size:medium;line-height:normal;font-family:sans-serif;font-variant-ligatures:normal;font-variant-position:normal;font-variant-caps:normal;font-variant-numeric:normal;font-variant-alternates:normal;font-variant-east-asian:normal;font-feature-settings:normal;font-variation-settings:normal;text-indent:0;text-align:start;text-decoration-line:none;text-decoration-style:solid;text-decoration-color:#000000;letter-spacing:normal;word-spacing:normal;text-transform:none;writing-mode:lr-tb;direction:ltr;text-orientation:mixed;dominant-baseline:auto;baseline-shift:baseline;text-anchor:start;white-space:normal;shape-padding:0;shape-margin:0;inline-size:0;clip-rule:nonzero;display:inline;overflow:visible;visibility:visible;isolation:auto;mix-blend-mode:normal;color-interpolation:sRGB;color-interpolation-filters:linearRGB;solid-color:#000000;solid-opacity:1;fill:url(#linearGradient6103);fill-opacity:1;fill-rule:evenodd;stroke:none;stroke-width:0.548606;stroke-linecap:butt;stroke-linejoin:miter;stroke-miterlimit:4;stroke-dasharray:none;stroke-dashoffset:0;stroke-opacity:0.575207;color-rendering:auto;image-rendering:auto;shape-rendering:auto;text-rendering:auto;enable-background:accumulate;stop-color:#000000"
           d="m 613.13238,61.033431 c -0.2229,-0.004 -0.5414,0.007 -0.9473,0.0464 -0.7829,0.0749 -1.9993,0.27373 -3.211,0.78172 -0.09,0.0376 -0.1801,0.0773 -0.2702,0.11861 -1.0873,0.49888 -1.9546,1.15535 -2.5307,1.95227 -0.6147,0.84922 -0.8867,1.86404 -0.7201,2.99488 0.1757,1.16956 0.8363,2.44754 1.9268,3.71027 1.4905,1.72285 3.8553,3.38176 6.6257,4.60968 1.363,0.60479 2.8316,1.0969 4.3118,1.41525 1.5334,0.32654 3.0288,0.44537 4.3503,0.34182 1.8054,-0.14419 3.1889,-0.74491 3.8532,-1.70788 0.3296,-0.47471 0.463,-1.04743 0.3549,-1.69481 -0.12,-0.67471 -0.5138,-1.4004 -1.154,-2.11945 -0.8839,-0.98777 -2.229,-1.91096 -3.8252,-2.60604 -1.6626,-0.72559 -3.5188,-1.10655 -5.1296,-0.98376 -1.0813,0.10417 -1.8791,0.47294 -2.2645,1.06471 -0.3254,0.49425 -0.2748,1.13347 0.1635,1.84331 -0.4388,-0.22333 -0.8572,-0.50555 -1.1774,-0.82219 -0.3343,-0.33058 -0.5911,-0.70387 -0.6962,-1.06004 -0.1037,-0.331 -0.076,-0.66722 0.072,-0.97723 0.2901,-0.59485 1.0741,-1.06985 2.2182,-1.2244 0.8394,-0.11374 1.8575,-0.0851 2.9382,0.10428 1.0262,0.17697 2.1305,0.50412 3.2119,0.93676 2.187,0.87688 4.2348,2.17889 5.5881,3.57859 1.0299,1.06468 1.71,2.17002 1.9772,3.19194 0.2735,1.03446 0.1321,1.98122 -0.2973,2.78193 -0.4355,0.81033 -1.1631,1.46847 -2.0497,1.97469 -0.076,0.0433 -0.1517,0.0849 -0.2276,0.12515 -1.0304,0.54562 -2.0938,0.83783 -2.7461,1.00275 -0.6838,0.17288 -1.0474,0.25035 -0.9991,0.30384 0.048,0.0537 0.51,0.0836 1.3219,0.006 0.7828,-0.0749 1.9992,-0.27373 3.2109,-0.78172 0.09,-0.0376 0.1801,-0.0773 0.2702,-0.11862 1.0873,-0.49888 1.9547,-1.15504 2.5307,-1.95196 0.6148,-0.84922 0.8867,-1.86435 0.7201,-2.99518 -0.1756,-1.16955 -0.8363,-2.44724 -1.9267,-3.70997 -1.4906,-1.72285 -3.8553,-3.38175 -6.6258,-4.60967 -1.363,-0.6048 -2.8313,-1.0969 -4.3114,-1.41525 -1.5334,-0.32655 -3.0291,-0.44537 -4.3507,-0.34182 -1.8053,0.1442 -3.1885,0.7449 -3.8529,1.70788 -0.3296,0.47472 -0.4629,1.04712 -0.3549,1.6945 0.1201,0.67472 0.5136,1.4004 1.1538,2.11945 0.8838,0.98777 2.229,1.91096 3.8251,2.60604 1.6627,0.72558 3.5188,1.10655 5.1296,0.98376 1.0813,-0.10418 1.8791,-0.47294 2.2645,-1.06471 0.3255,-0.49431 0.275,-1.13369 -0.1634,-1.84362 0.4388,0.22336 0.8574,0.50578 1.1777,0.8225 0.3342,0.33058 0.5908,0.70387 0.6958,1.06004 0.1038,0.33099 0.076,0.66723 -0.072,0.97723 -0.29,0.59486 -1.0741,1.06984 -2.2181,1.22441 -0.8394,0.11372 -1.8576,0.0854 -2.9382,-0.10398 -1.0262,-0.17697 -2.1306,-0.50412 -3.2119,-0.93676 -2.187,-0.87687 -4.2348,-2.1792 -5.5882,-3.5789 -1.0299,-1.06468 -1.7099,-2.17002 -1.9771,-3.19194 -0.2735,-1.03446 -0.1318,-1.98122 0.2976,-2.78193 0.4355,-0.81034 1.1628,-1.46848 2.0494,-1.97469 0.076,-0.0433 0.1517,-0.0849 0.2276,-0.12515 1.0304,-0.54562 2.0938,-0.83752 2.7461,-1.00244 0.6838,-0.17288 1.0473,-0.25066 0.999,-0.30416 -0.024,-0.0269 -0.1516,-0.0478 -0.3745,-0.0523 z" />
        <path
           id="path6105"
           style="fill:#382646;stroke-width:5.48609;stroke-linecap:round;stroke-linejoin:round"
           d="m 619.66818,71.510891 a 1.7828753,0.89143765 20 0 1 -1.9802,0.2279 1.7828753,0.89143765 20 0 1 -1.3705,-1.44746 1.7828753,0.89143765 20 0 1 1.9802,-0.22789 1.7828753,0.89143765 20 0 1 1.3705,1.44745 z" />
      </g>
    </g>
    <path
       sodipodi:type="star"
       style="fill:#f97316;fill-opacity:1;stroke:none;stroke-width:0.47444;stroke-linejoin:round;stroke-dasharray:none;stroke-opacity:1"
       id="path6106"
       inkscape:flatsided="false"
       sodipodi:sides="4"
       sodipodi:cx="647.09552"
       sodipodi:cy="199.78777"
       sodipodi:r1="4.867784"
       sodipodi:r2="1.8497579"
       sodipodi:arg1="1.3089969"
       sodipodi:arg2="2.0943951"
       inkscape:rounded="0.1"
       inkscape:randomized="0"
       d="m 648.3554,204.48968 c -0.36633,0.0982 -1.85632,-2.91035 -2.18476,-3.09998 -0.32844,-0.18962 -3.67888,0.0243 -3.77704,-0.34206 -0.0982,-0.36633 2.91036,-1.85631 3.09998,-2.18475 0.18963,-0.32844 -0.0243,-3.67889 0.34206,-3.77704 0.36633,-0.0982 1.85632,2.91035 2.18476,3.09998 0.32844,0.18962 3.67888,-0.0243 3.77704,0.34206 0.0982,0.36633 -2.91036,1.85631 -3.09998,2.18475 -0.18963,0.32844 0.0243,3.67889 -0.34206,3.77704 z"
       transform="matrix(0.063335,-0.21319533,-0.21319533,-0.063335,157.4343,325.45615)" />
    <path
       sodipodi:type="star"
       style="fill:#22d3ee;fill-opacity:1;stroke:none;stroke-width:0.47444;stroke-linejoin:round;stroke-dasharray:none;stroke-opacity:1"
       id="path6107"
       inkscape:flatsided="false"
       sodipodi:sides="4"
       sodipodi:cx="647.09552"
       sodipodi:cy="199.78777"
       sodipodi:r1="4.867784"
       sodipodi:r2="1.8497579"
       sodipodi:arg1="1.3089969"
       sodipodi:arg2="2.0943951"
       inkscape:rounded="0.1"
       inkscape:randomized="0"
       d="m 648.3554,204.48968 c -0.36633,0.0982 -1.85632,-2.91035 -2.18476,-3.09998 -0.32844,-0.18962 -3.67888,0.0243 -3.77704,-0.34206 -0.0982,-0.36633 2.91036,-1.85631 3.09998,-2.18475 0.18963,-0.32844 -0.0243,-3.67889 0.34206,-3.77704 0.36633,-0.0982 1.85632,2.91035 2.18476,3.09998 0.32844,0.18962 3.67888,-0.0243 3.77704,0.34206 0.0982,0.36633 -2.91036,1.85631 -3.09998,2.18475 -0.18963,0.32844 0.0243,3.67889 -0.34206,3.77704 z"
       transform="matrix(0.07367615,-0.12341758,0.12341758,0.07367615,59.95604,220.14898)" />
  </g>
</svg>
