<?xml version="1.0" encoding="UTF-8" standalone="no"?>
<!-- Created with Inkscape (http://www.inkscape.org/) -->

<svg
   width="408.53696"
   height="665.16888"
   viewBox="0 0 108.09207 175.9926"
   version="1.1"
   id="svg1"
   inkscape:version="1.4.2 (1:1.4.2+202505120737+ebf0e940d0)"
   sodipodi:docname="orion.svg"
   xmlns:inkscape="http://www.inkscape.org/namespaces/inkscape"
   xmlns:sodipodi="http://sodipodi.sourceforge.net/DTD/sodipodi-0.dtd"
   xmlns:xlink="http://www.w3.org/1999/xlink"
   xmlns="http://www.w3.org/2000/svg"
   xmlns:svg="http://www.w3.org/2000/svg">
  <sodipodi:namedview
     id="namedview1"
     pagecolor="#ffffff"
     bordercolor="#000000"
     borderopacity="0.25"
     inkscape:showpageshadow="2"
     inkscape:pageopacity="0.0"
     inkscape:pagecheckerboard="0"
     inkscape:deskcolor="#d1d1d1"
     inkscape:document-units="px"
     inkscape:zoom="0.89619812"
     inkscape:cx="42.401339"
     inkscape:cy="386.63326"
     inkscape:window-width="2560"
     inkscape:window-height="1371"
     inkscape:window-x="0"
     inkscape:window-y="32"
     inkscape:window-maximized="1"
     inkscape:current-layer="layer1" />
  <defs
     id="defs1">
    <linearGradient
       inkscape:collect="always"
       xlink:href="#linearGradient12"
       id="linearGradient140"
       gradientUnits="userSpaceOnUse"
       gradientTransform="matrix(0.31101022,0,0,0.31101022,656.87398,49.835351)"
       x1="-165.99591"
       y1="34.805733"
       x2="-82.538643"
       y2="99.91259" />
    <linearGradient
       id="linearGradient12"
       inkscape:collect="always">
      <stop
         style="stop-color:#58dbf9;stop-opacity:1;"
         offset="0.34220436"
         id="stop12" />
      <stop
         style="stop-color:#103064;stop-opacity:1;"
         offset="1"
         id="stop13" />
    </linearGradient>
    <linearGradient
       inkscape:collect="always"
       xlink:href="#linearGradient12"
       id="linearGradient1"
       gradientUnits="userSpaceOnUse"
       gradientTransform="matrix(0.31101022,0,0,0.31101022,656.87398,49.835351)"
       x1="-165.99591"
       y1="34.805733"
       x2="-82.538643"
       y2="99.91259" />
    <linearGradient
       inkscape:collect="always"
       xlink:href="#linearGradient12"
       id="linearGradient2"
       gradientUnits="userSpaceOnUse"
       gradientTransform="matrix(0.31101022,0,0,0.31101022,656.87398,49.835351)"
       x1="-165.99591"
       y1="34.805733"
       x2="-82.538643"
       y2="99.91259" />
  </defs>
  <g
     inkscape:label="Layer 1"
     inkscape:groupmode="layer"
     id="layer1"
     transform="translate(-162.18961,-144.72711)">
    <g
       id="g3249"
       transform="matrix(0.5074174,0,0,0.5074174,257.41581,152.53512)">
      <path
         style="baseline-shift:baseline;display:inline;overflow:visible;opacity:1;vector-effect:none;fill:#9ca3af;fill-opacity:1;enable-background:accumulate;stop-color:#000000;stop-opacity:1"
         d="m -116.48751,281.72308 -1.94727,-0.45703 15.77734,-67.14062 -30.81054,-81.63281 1.87109,-0.70508 30.48242,80.75976 8.916021,-5.74023 8.95703,-7.62305 14.89844,-57.80469 1.93554,0.49805 -14.84179,57.5918 16.30273,18.04297 22.24024,50.78906 -1.83204,0.80273 -22.10937,-50.49218 -15.79492,-17.48047 -8.5625,7.28515 -9.726561,6.26368 z"
         id="path1688" />
      <path
         style="baseline-shift:baseline;display:inline;overflow:visible;opacity:1;vector-effect:none;fill:#9ca3af;fill-opacity:1;enable-background:accumulate;stop-color:#000000;stop-opacity:1"
         d="m -65.905479,142.53949 -66.724611,-9.7168 0.0996,-0.68359 -0.31055,-0.61523 44.093752,-22.1543 0.29102,0.58203 z m -2.9375,-1.82226 -20.43946,-29.53516 -40.982421,20.5918 z"
         id="path1689" />
      <path
         style="baseline-shift:baseline;display:inline;overflow:visible;opacity:1;vector-effect:none;fill:#9ca3af;fill-opacity:1;enable-background:accumulate;stop-color:#000000;stop-opacity:1"
         d="m -8.9435696,182.04532 -0.42774,-0.61523 9.19336002,-6.38672 6.21093998,-27.60547 2.67187,-11.39453 -76.0507794,5.95898 -0.0586,-0.74804 76.1738294,-5.97071 -1.86719,-16.41211 -9.41406,-10.79492 -3.55859,-29.328115 -17.6640604,-16.22266 0.50781,-0.55273 17.8671904,16.41015 3.56445,29.374995 9.41601,10.79688 1.89844,16.66992 0.15039,-0.0117 -0.10352,0.4375 0.0371,0.32031 -0.11328,0.01 -2.72656,11.625 -6.27343998,27.88672 z"
         id="path1690" />
      <path
         style="baseline-shift:baseline;display:inline;overflow:visible;opacity:1;vector-effect:none;fill:#9ca3af;fill-opacity:1;enable-background:accumulate;stop-color:#000000;stop-opacity:1"
         d="m -132.82736,132.36957 -15.43164,-19.79688 -15.30859,-42.576165 0.70508,-0.2539 15.26953,42.462885 15.35742,19.70312 z"
         id="path1691" />
      <path
         style="baseline-shift:baseline;display:inline;overflow:visible;opacity:1;vector-effect:none;fill:#9ca3af;fill-opacity:1;enable-background:accumulate;stop-color:#000000;stop-opacity:1"
         d="m -167.58421,72.367555 -0.70703,-0.2461 17.95703,-51.804683 21.24414,-1.027344 -29.08399,48.398437 -0.64453,-0.38672 28.36133,-47.195311 -19.33398,0.935547 z"
         id="path1692" />
      <path
         style="fill:#f97316;fill-opacity:1;fill-rule:nonzero;stroke:none"
         d="m -43.621399,276.22952 c 4.16016,0 7.53125,-3.375 7.53125,-7.53125 0,-4.16015 -3.37109,-7.53125 -7.53125,-7.53125 -4.15625,0 -7.52734,3.3711 -7.52734,7.53125 0,4.15625 3.37109,7.53125 7.52734,7.53125"
         id="path1900" />
      <path
         style="baseline-shift:baseline;display:inline;overflow:visible;opacity:1;vector-effect:none;fill:#f97316;fill-opacity:1;stroke-linecap:round;enable-background:accumulate;stop-color:#000000;stop-opacity:1"
         d="m -43.622339,276.4789 c -4.29158,0 -7.77734,-3.48982 -7.77734,-7.78125 0,-4.29521 3.48591,-7.78125 7.77734,-7.78125 4.29521,0 7.78125,3.48604 7.78125,7.78125 0,4.29143 -3.48588,7.78125 -7.78125,7.78125 z m 0,-0.5 c 4.02495,0 7.28125,-3.26018 7.28125,-7.28125 0,-4.0251 -3.25614,-7.28125 -7.28125,-7.28125 -4.02106,0 -7.27734,3.25615 -7.27734,7.28125 0,4.02107 3.25643,7.28125 7.27734,7.28125 z"
         id="path1901" />
      <path
         style="fill:#f97316;fill-opacity:1;fill-rule:nonzero;stroke:none"
         d="m -132.53156,139.14359 c 3.8711,0 7.00782,-3.13672 7.00782,-7.00391 0,-3.87109 -3.13672,-7.00781 -7.00782,-7.00781 -3.86718,0 -7.0039,3.13672 -7.0039,7.00781 0,3.86719 3.13672,7.00391 7.0039,7.00391"
         id="path1902" />
      <path
         style="baseline-shift:baseline;display:inline;overflow:visible;opacity:1;vector-effect:none;fill:#f97316;fill-opacity:1;stroke-linecap:round;enable-background:accumulate;stop-color:#000000;stop-opacity:1"
         d="m -132.53243,139.3939 c -4.00238,0 -7.25391,-3.25153 -7.25391,-7.25391 0,-4.00614 3.25153,-7.25781 7.25391,-7.25781 4.00614,0 7.25781,3.25167 7.25781,7.25781 0,4.00238 -3.25167,7.25391 -7.25781,7.25391 z m 0,-0.5 c 3.73604,0 6.75781,-3.0219 6.75781,-6.75391 0,-3.73604 -3.02177,-6.75781 -6.75781,-6.75781 -3.73201,0 -6.75391,3.02177 -6.75391,6.75781 0,3.73201 3.0219,6.75391 6.75391,6.75391 z"
         id="path1903" />
      <path
         style="fill:#f97316;fill-opacity:1;fill-rule:nonzero;stroke:none"
         d="m -132.53156,138.19827 c 3.34766,0 6.0586,-2.71484 6.0586,-6.0625 0,-3.34375 -2.71094,-6.05468 -6.0586,-6.05468 -3.34375,0 -6.05859,2.71093 -6.05859,6.05468 0,3.34766 2.71484,6.0625 6.05859,6.0625"
         id="path1904" />
      <path
         style="fill:#f97316;fill-opacity:1;fill-rule:nonzero;stroke:none"
         d="m -132.53156,137.54202 c 2.98438,0 5.40235,-2.42187 5.40235,-5.40234 0,-2.98437 -2.41797,-5.40234 -5.40235,-5.40234 -2.98437,0 -5.40234,2.41797 -5.40234,5.40234 0,2.98047 2.41797,5.40234 5.40234,5.40234"
         id="path1905" />
      <path
         style="baseline-shift:baseline;display:inline;overflow:visible;opacity:1;vector-effect:none;fill:#f97316;fill-opacity:1;enable-background:accumulate;stop-color:#000000;stop-opacity:1"
         d="m -132.53243,137.79235 c -3.11963,0 -5.65235,-2.53666 -5.65235,-5.65234 0,-3.11941 2.53294,-5.65234 5.65235,-5.65234 3.11941,0 5.65234,2.53293 5.65234,5.65234 0,3.11568 -2.53272,5.65234 -5.65234,5.65234 z m 0,-0.5 c 2.84912,0 5.15234,-2.30708 5.15234,-5.15234 0,-2.84934 -2.303,-5.15234 -5.15234,-5.15234 -2.84934,0 -5.15235,2.303 -5.15235,5.15234 0,2.84526 2.30322,5.15234 5.15235,5.15234 z"
         id="path1906" />
      <path
         style="fill:#f97316;fill-opacity:1;fill-rule:nonzero;stroke:none"
         d="m -67.375309,146.44046 c 2.66016,0 4.8125,-2.15234 4.8125,-4.8125 0,-2.65625 -2.15234,-4.8125 -4.8125,-4.8125 -2.65625,0 -4.8125,2.15625 -4.8125,4.8125 0,2.66016 2.15625,4.8125 4.8125,4.8125"
         id="path1909" />
      <path
         style="baseline-shift:baseline;display:inline;overflow:visible;opacity:1;vector-effect:none;fill:#f97316;fill-opacity:1;enable-background:accumulate;stop-color:#000000;stop-opacity:1"
         d="m -67.376239,146.68985 c -2.79129,0 -5.0625,-2.26725 -5.0625,-5.0625 0,-2.79155 2.27096,-5.0625 5.0625,-5.0625 2.79526,0 5.0625,2.2712 5.0625,5.0625 0,2.795 -2.26749,5.0625 -5.0625,5.0625 z m 0,-0.5 c 2.52531,0 4.5625,-2.0372 4.5625,-4.5625 0,-2.5212 -2.03744,-4.5625 -4.5625,-4.5625 -2.52095,0 -4.5625,2.04154 -4.5625,4.5625 0,2.52506 2.0413,4.5625 4.5625,4.5625 z"
         id="path1910" />
      <path
         style="fill:#f97316;fill-opacity:1;fill-rule:nonzero;stroke:none"
         d="m -91.601869,212.33499 c 2.60938,0 4.72266,-2.11328 4.72266,-4.72265 0,-2.60547 -2.11328,-4.71875 -4.72266,-4.71875 -2.60547,0 -4.72265,2.11328 -4.72265,4.71875 0,2.60937 2.11718,4.72265 4.72265,4.72265"
         id="path1913" />
      <path
         style="baseline-shift:baseline;display:inline;overflow:visible;opacity:1;vector-effect:none;fill:#f97316;fill-opacity:1;enable-background:accumulate;stop-color:#000000;stop-opacity:1"
         d="m -91.602739,212.58435 c -2.74065,0 -4.97265,-2.22805 -4.97265,-4.97266 0,-2.7409 2.232,-4.96875 4.97265,-4.96875 2.74436,0 4.97266,2.2281 4.97266,4.96875 0,2.74436 -2.2283,4.97266 -4.97266,4.97266 z m 0,-0.5 c 2.4744,0 4.47266,-1.99826 4.47266,-4.47266 0,-2.47028 -1.99826,-4.46875 -4.47266,-4.46875 -2.47028,0 -4.47265,1.99872 -4.47265,4.46875 0,2.47415 2.00237,4.47266 4.47265,4.47266 z"
         id="path1914" />
      <path
         style="fill:#f97316;fill-opacity:1;fill-rule:nonzero;stroke:none"
         d="m -101.61359,218.7764 c 2.609381,0 4.722661,-2.11328 4.722661,-4.72266 0,-2.60547 -2.11328,-4.72265 -4.722661,-4.72265 -2.60547,0 -4.72265,2.11718 -4.72265,4.72265 0,2.60938 2.11718,4.72266 4.72265,4.72266"
         id="path1915" />
      <path
         style="baseline-shift:baseline;display:inline;overflow:visible;opacity:1;vector-effect:none;fill:#f97316;fill-opacity:1;enable-background:accumulate;stop-color:#000000;stop-opacity:1"
         d="m -101.61454,219.0268 c -2.74065,0 -4.97265,-2.22805 -4.97265,-4.97266 0,-2.7409 2.23175,-4.97265 4.97265,-4.97265 2.744611,0 4.972661,2.232 4.972661,4.97265 0,2.74436 -2.2283,4.97266 -4.972661,4.97266 z m 0,-0.5 c 2.474401,0 4.472661,-1.99826 4.472661,-4.47266 0,-2.47028 -1.99851,-4.47265 -4.472661,-4.47265 -2.47003,0 -4.47265,2.00262 -4.47265,4.47265 0,2.47415 2.00237,4.47266 4.47265,4.47266 z"
         id="path1916" />
      <path
         style="fill:#f97316;fill-opacity:1;fill-rule:nonzero;stroke:none"
         d="m -117.45734,285.73343 c 2.33985,0 4.23828,-1.89844 4.23828,-4.23828 0,-2.33984 -1.89843,-4.23828 -4.23828,-4.23828 -2.34375,0 -4.24218,1.89844 -4.24218,4.23828 0,2.33984 1.89843,4.23828 4.24218,4.23828"
         id="path1921" />
      <path
         style="baseline-shift:baseline;display:inline;overflow:visible;opacity:1;vector-effect:none;fill:#f97316;fill-opacity:1;enable-background:accumulate;stop-color:#000000;stop-opacity:1"
         d="m -117.45723,285.98285 c -2.47875,0 -4.49219,-2.01321 -4.49219,-4.48828 0,-2.47507 2.01344,-4.48829 4.49219,-4.48829 2.47507,0 4.48828,2.01322 4.48828,4.48829 0,2.47507 -2.01321,4.48828 -4.48828,4.48828 z m 0,-0.5 c 2.20462,0 3.98828,-1.78367 3.98828,-3.98828 0,-2.20462 -1.78366,-3.98829 -3.98828,-3.98829 -2.20875,0 -3.99219,1.78367 -3.99219,3.98829 0,2.20461 1.78344,3.98828 3.99219,3.98828 z"
         id="path1922" />
      <path
         style="fill:#f97316;fill-opacity:1;fill-rule:nonzero;stroke:none"
         d="m -82.351869,203.78421 c 2.23438,0 4.04297,-1.8125 4.04297,-4.04297 0,-2.23437 -1.80859,-4.04687 -4.04297,-4.04687 -2.23437,0 -4.04297,1.8125 -4.04297,4.04687 0,2.23047 1.8086,4.04297 4.04297,4.04297"
         id="path1923" />
      <path
         style="baseline-shift:baseline;display:inline;overflow:visible;opacity:1;vector-effect:none;fill:#f97316;fill-opacity:1;enable-background:accumulate;stop-color:#000000;stop-opacity:1"
         d="m -82.351779,204.03455 c -2.36958,0 -4.29297,-1.92735 -4.29297,-4.29297 0,-2.36928 1.92339,-4.29687 4.29297,-4.29687 2.36957,0 4.29297,1.92759 4.29297,4.29687 0,2.36562 -1.9234,4.29297 -4.29297,4.29297 z m 0,-0.5 c 2.09917,0 3.79297,-1.69764 3.79297,-3.79297 0,-2.09946 -1.6938,-3.79687 -3.79297,-3.79687 -2.09918,0 -3.79297,1.69741 -3.79297,3.79687 0,2.09533 1.69379,3.79297 3.79297,3.79297 z"
         id="path1924" />
      <path
         style="fill:#f97316;fill-opacity:1;fill-rule:nonzero;stroke:none"
         d="m -65.793269,221.08499 c 1.66796,0 3.02343,-1.35156 3.02343,-3.02343 0,-1.66797 -1.35547,-3.02344 -3.02343,-3.02344 -1.66797,0 -3.02344,1.35547 -3.02344,3.02344 0,1.67187 1.35547,3.02343 3.02344,3.02343"
         id="path1945" />
      <path
         style="baseline-shift:baseline;display:inline;overflow:visible;opacity:1;vector-effect:none;fill:#f97316;fill-opacity:1;enable-background:accumulate;stop-color:#000000;stop-opacity:1"
         d="m -65.794179,221.33435 c -1.80302,0 -3.27344,-1.46644 -3.27344,-3.27344 0,-1.80341 1.47003,-3.27344 3.27344,-3.27344 1.80341,0 3.27343,1.47003 3.27343,3.27344 0,1.807 -1.47041,3.27344 -3.27343,3.27344 z m 0,-0.5 c 1.53292,0 2.77343,-1.23669 2.77343,-2.77344 0,-1.53253 -1.2409,-2.77344 -2.77343,-2.77344 -1.53253,0 -2.77344,1.24091 -2.77344,2.77344 0,1.53675 1.24052,2.77344 2.77344,2.77344 z"
         id="path1946" />
      <path
         style="fill:#f97316;fill-opacity:1;fill-rule:nonzero;stroke:none"
         d="m 9.1989104,138.61624 c 1.6484396,0 2.9882796,-1.33593 2.9882796,-2.98828 0,-1.64844 -1.33984,-2.98437 -2.9882796,-2.98437 -1.64843,0 -2.98437,1.33593 -2.98437,2.98437 0,1.65235 1.33594,2.98828 2.98437,2.98828"
         id="path1949" />
      <path
         style="baseline-shift:baseline;display:inline;overflow:visible;opacity:1;vector-effect:none;fill:#f97316;fill-opacity:1;enable-background:accumulate;stop-color:#000000;stop-opacity:1"
         d="m 9.1979704,138.8666 c -1.7835,0 -3.23437,-1.45119 -3.23437,-3.23828 0,-1.78351 1.45087,-3.23438 3.23437,-3.23438 1.7835096,0 3.2382896,1.45048 3.2382896,3.23438 0,1.78749 -1.45478,3.23828 -3.2382896,3.23828 z m 0,-0.5 c 1.5133696,0 2.7382896,-1.22108 2.7382896,-2.73828 0,-1.51297 -1.22492,-2.73438 -2.7382896,-2.73438 -1.51336,0 -2.73437,1.22101 -2.73437,2.73438 0,1.51759 1.22101,2.73828 2.73437,2.73828 z"
         id="path1950" />
      <path
         style="fill:#f97316;fill-opacity:1;fill-rule:nonzero;stroke:none"
         d="m -89.047179,113.12406 c 1.55859,0 2.82031,-1.26172 2.82031,-2.82032 0,-1.55859 -1.26172,-2.82031 -2.82031,-2.82031 -1.55859,0 -2.82031,1.26172 -2.82031,2.82031 0,1.5586 1.26172,2.82032 2.82031,2.82032"
         id="path1960" />
      <path
         style="baseline-shift:baseline;display:inline;overflow:visible;opacity:1;vector-effect:none;fill:#f97316;fill-opacity:1;enable-background:accumulate;stop-color:#000000;stop-opacity:1"
         d="m -89.048039,113.3744 c -1.69351,0 -3.07031,-1.3768 -3.07031,-3.07031 0,-1.69352 1.3768,-3.07031 3.07031,-3.07031 1.69352,0 3.07032,1.37679 3.07032,3.07031 0,1.69351 -1.3768,3.07031 -3.07032,3.07031 z m 0,-0.5 c 1.42368,0 2.57032,-1.14664 2.57032,-2.57031 0,-1.42368 -1.14664,-2.57031 -2.57032,-2.57031 -1.42367,0 -2.57031,1.14663 -2.57031,2.57031 0,1.42367 1.14664,2.57031 2.57031,2.57031 z"
         id="path1961" />
      <path
         style="fill:#f97316;fill-opacity:1;fill-rule:nonzero;stroke:none"
         d="m 6.3981304,150.10062 c 1.42578,0 2.57813,-1.15235 2.57813,-2.57813 0,-1.42187 -1.15235,-2.57812 -2.57813,-2.57812 -1.42187,0 -2.57812,1.15625 -2.57812,2.57812 0,1.42578 1.15625,2.57813 2.57812,2.57813"
         id="path1983" />
      <path
         style="baseline-shift:baseline;display:inline;overflow:visible;opacity:1;vector-effect:none;fill:#f97316;fill-opacity:1;enable-background:accumulate;stop-color:#000000;stop-opacity:1"
         d="m 6.3982304,150.34995 c -1.55695,0 -2.82813,-1.26719 -2.82813,-2.82813 0,-1.5574 1.27072,-2.82812 2.82813,-2.82812 1.56094,0 2.82812,1.27117 2.82812,2.82812 0,1.56049 -1.26764,2.82813 -2.82812,2.82813 z m 0,-0.5 c 1.29108,0 2.32812,-1.03705 2.32812,-2.32813 0,-1.2868 -1.0375,-2.32812 -2.32812,-2.32812 -1.28635,0 -2.32813,1.04178 -2.32813,2.32812 0,1.29062 1.04132,2.32813 2.32813,2.32813 z"
         id="path1984" />
      <path
         style="fill:#f97316;fill-opacity:1;fill-rule:nonzero;stroke:none"
         d="m 0.15594042,177.82327 c 1.41015998,0 2.55468998,-1.14453 2.55468998,-2.55468 0,-1.41407 -1.14453,-2.5586 -2.55468998,-2.5586 -1.41406002,0 -2.55859002,1.14453 -2.55859002,2.5586 0,1.41015 1.14453,2.55468 2.55859002,2.55468"
         id="path1985" />
      <path
         style="baseline-shift:baseline;display:inline;overflow:visible;opacity:1;vector-effect:none;fill:#f97316;fill-opacity:1;enable-background:accumulate;stop-color:#000000;stop-opacity:1"
         d="m 0.15606042,178.0736 c -1.54896002,0 -2.80859002,-1.25926 -2.80859002,-2.80469 0,-1.54896 1.25963,-2.80859 2.80859002,-2.80859 1.54542998,0 2.80468998,1.25963 2.80468998,2.80859 0,1.54543 -1.25926,2.80469 -2.80468998,2.80469 z m 0,-0.5 c 1.27487998,0 2.30468998,-1.0298 2.30468998,-2.30469 0,-1.27916 -1.02981,-2.30859 -2.30468998,-2.30859 -1.27916002,0 -2.30859002,1.02943 -2.30859002,2.30859 0,1.27489 1.02943,2.30469 2.30859002,2.30469 z"
         id="path1986" />
      <path
         style="fill:#f97316;fill-opacity:1;fill-rule:nonzero;stroke:none"
         d="m -5.7151496,80.858435 c 1.26563,0 2.29297,-1.02734 2.29297,-2.29297 0,-1.26953 -1.02734,-2.29297 -2.29297,-2.29297 -1.26562,0 -2.29297,1.02344 -2.29297,2.29297 0,1.26563 1.02735,2.29297 2.29297,2.29297"
         id="path2020" />
      <path
         style="baseline-shift:baseline;display:inline;overflow:visible;opacity:1;vector-effect:none;fill:#f97316;fill-opacity:1;enable-background:accumulate;stop-color:#000000;stop-opacity:1"
         d="m -5.7160696,81.108755 c -1.40092,0 -2.54297,-1.14205 -2.54297,-2.54297 0,-1.4044 1.14257,-2.54296 2.54297,-2.54296 1.4004,0 2.54297,1.13856 2.54297,2.54296 0,1.40092 -1.14206,2.54297 -2.54297,2.54297 z m 0,-0.5 c 1.13033,0 2.04297,-0.91263 2.04297,-2.04297 0,-1.13466 -0.91212,-2.04296 -2.04297,-2.04296 -1.13085,0 -2.04297,0.9083 -2.04297,2.04296 0,1.13034 0.91263,2.04297 2.04297,2.04297 z"
         id="path2021" />
      <path
         style="fill:#f97316;fill-opacity:1;fill-rule:nonzero;stroke:none"
         d="m -147.92609,114.6514 c 1.25,0 2.26172,-1.01172 2.26172,-2.26172 0,-1.24609 -1.01172,-2.26172 -2.26172,-2.26172 -1.24609,0 -2.25781,1.01563 -2.25781,2.26172 0,1.25 1.01172,2.26172 2.25781,2.26172"
         id="path2026" />
      <path
         style="baseline-shift:baseline;display:inline;overflow:visible;opacity:1;vector-effect:none;fill:#f97316;fill-opacity:1;enable-background:accumulate;stop-color:#000000;stop-opacity:1"
         d="m -147.92598,114.90175 c -1.38141,0 -2.50781,-1.12682 -2.50781,-2.51172 0,-1.38141 1.12587,-2.51171 2.50781,-2.51171 1.38542,0 2.51172,1.1303 2.51172,2.51171 0,1.3849 -1.12683,2.51172 -2.51172,2.51172 z m 0,-0.5 c 1.1151,0 2.01172,-0.89661 2.01172,-2.01172 0,-1.11077 -0.89714,-2.01171 -2.01172,-2.01171 -1.11025,0 -2.00781,0.90094 -2.00781,2.01171 0,1.11511 0.89703,2.01172 2.00781,2.01172 z"
         id="path2027" />
      <path
         style="fill:#f97316;fill-opacity:1;fill-rule:nonzero;stroke:none"
         d="m 7.2614104,120.82718 c 1.16797,0 2.11328,-0.94531 2.11328,-2.11328 0,-1.16797 -0.94531,-2.11719 -2.11328,-2.11719 -1.16797,0 -2.11718,0.94922 -2.11718,2.11719 0,1.16797 0.94921,2.11328 2.11718,2.11328"
         id="path2068" />
      <path
         style="baseline-shift:baseline;display:inline;overflow:visible;opacity:1;vector-effect:none;fill:#f97316;fill-opacity:1;enable-background:accumulate;stop-color:#000000;stop-opacity:1"
         d="m 7.2605104,121.0775 c -1.30287,0 -2.36719,-1.05986 -2.36719,-2.36328 0,-1.30342 1.06377,-2.36719 2.36719,-2.36719 1.30342,0 2.36328,1.06433 2.36328,2.36719 0,1.30286 -1.06042,2.36328 -2.36328,2.36328 z m 0,-0.5 c 1.03307,0 1.86328,-0.83021 1.86328,-1.86328 0,-1.03308 -0.83077,-1.86719 -1.86328,-1.86719 -1.03252,0 -1.86719,0.83467 -1.86719,1.86719 0,1.03252 0.83411,1.86328 1.86719,1.86328 z"
         id="path2069" />
      <path
         style="fill:#f97316;fill-opacity:1;fill-rule:nonzero;stroke:none"
         d="m -129.78156,21.788126 c 1.15625,0 2.09375,-0.9375 2.09375,-2.08985 0,-1.15625 -0.9375,-2.09375 -2.09375,-2.09375 -1.15234,0 -2.08984,0.9375 -2.08984,2.09375 0,1.15235 0.9375,2.08985 2.08984,2.08985"
         id="path2074" />
      <path
         style="baseline-shift:baseline;display:inline;overflow:visible;opacity:1;vector-effect:none;fill:#f97316;fill-opacity:1;enable-background:accumulate;stop-color:#000000;stop-opacity:1"
         d="m -129.78148,22.037506 c -1.28794,0 -2.33985,-1.051907 -2.33985,-2.339844 0,-1.291385 1.05191,-2.34375 2.33985,-2.34375 1.29138,0 2.34375,1.052365 2.34375,2.34375 0,1.287937 -1.05237,2.339844 -2.34375,2.339844 z m 0,-0.5 c 1.02111,0 1.84375,-0.823093 1.84375,-1.839844 0,-1.021115 -0.82264,-1.84375 -1.84375,-1.84375 -1.01675,0 -1.83985,0.822635 -1.83984,1.84375 0,1.016751 0.82309,1.839844 1.83984,1.839844 z"
         id="path2075" />
      <path
         style="fill:#f97316;fill-opacity:1;fill-rule:nonzero;stroke:none"
         d="m -158.4964,69.573275 c 1.14844,0 2.07813,-0.93359 2.07813,-2.07812 0,-1.15234 -0.92969,-2.08203 -2.07813,-2.08203 -1.14844,0 -2.08203,0.92969 -2.08203,2.08203 0,1.14453 0.93359,2.07812 2.08203,2.07812"
         id="path2080" />
      <path
         style="baseline-shift:baseline;display:inline;overflow:visible;opacity:1;vector-effect:none;fill:#f97316;fill-opacity:1;enable-background:accumulate;stop-color:#000000;stop-opacity:1"
         d="m -158.49728,69.822605 c -1.28393,0 -2.33203,-1.04764 -2.33203,-2.32812 0,-1.28738 1.04867,-2.33204 2.33203,-2.33204 1.28336,0 2.32812,1.04523 2.32812,2.33204 0,1.27991 -1.0442,2.32812 -2.32812,2.32812 z m 0,-0.5 c 1.01295,0 1.82812,-0.81897 1.82812,-1.82812 0,-1.01789 -0.8146,-1.83204 -1.82812,-1.83204 -1.01352,0 -1.83203,0.81472 -1.83203,1.83204 0,1.00858 0.81908,1.82812 1.83203,1.82812 z"
         id="path2081" />
      <path
         style="fill:#f97316;fill-opacity:1;fill-rule:nonzero;stroke:none"
         d="m -167.93781,74.299845 c 1.13282,0 2.05469,-0.92188 2.05469,-2.0586 0,-1.13281 -0.92187,-2.05468 -2.05469,-2.05468 -1.13671,0 -2.05859,0.92187 -2.05859,2.05468 0,1.13672 0.92188,2.0586 2.05859,2.0586"
         id="path2084" />
      <path
         style="baseline-shift:baseline;display:inline;overflow:visible;opacity:1;vector-effect:none;fill:#000000;fill-opacity:0;enable-background:accumulate;stop-color:#000000;stop-opacity:1"
         d="m -167.93773,74.550155 c -1.27188,0 -2.30859,-1.03671 -2.30859,-2.30859 0,-1.26845 1.03671,-2.30469 2.30859,-2.30469 1.26845,0 2.30469,1.03624 2.30469,2.30469 0,1.27188 -1.03624,2.30859 -2.30469,2.30859 z m 0,-0.5 c 0.99718,0 1.80469,-0.80704 1.80469,-1.80859 0,-0.99718 -0.80751,-1.80469 -1.80469,-1.80469 -1.00155,0 -1.80859,0.80751 -1.80859,1.80469 0,1.00155 0.80704,1.80859 1.80859,1.80859 z"
         id="path2085" />
      <path
         style="fill:#f97316;fill-opacity:1;fill-rule:nonzero;stroke:none"
         d="m -9.1565596,183.79202 c 1.13282,0 2.05469,-0.91796 2.05469,-2.05468 0,-1.13282 -0.92187,-2.05469 -2.05469,-2.05469 -1.1367104,0 -2.0585904,0.92187 -2.0585904,2.05469 0,1.13672 0.92188,2.05468 2.0585904,2.05468"
         id="path2086" />
      <path
         style="baseline-shift:baseline;display:inline;overflow:visible;opacity:1;vector-effect:none;fill:#f97316;fill-opacity:1;enable-background:accumulate;stop-color:#000000;stop-opacity:1"
         d="m -9.1574396,184.0424 c -1.2713204,0 -2.3086004,-1.0328 -2.3086004,-2.30469 0,-1.26844 1.03671,-2.30468 2.3086004,-2.30468 1.26844,0 2.30468,1.03624 2.30468,2.30468 0,1.27189 -1.03681,2.30469 -2.30468,2.30469 z m 0,-0.5 c 0.99775,0 1.80468,-0.80314 1.80468,-1.80469 0,-0.99718 -0.8075,-1.80468 -1.80468,-1.80468 -1.0015604,0 -1.8086004,0.8075 -1.8086004,1.80468 0,1.00155 0.80647,1.80469 1.8086004,1.80469 z"
         id="path2087" />
      <path
         style="fill:#f97316;fill-opacity:1;fill-rule:nonzero;stroke:none"
         d="m -150.06281,22.631876 c 1.07813,0 1.95313,-0.875 1.95313,-1.95703 0,-1.07813 -0.875,-1.95313 -1.95313,-1.95313 -1.07812,0 -1.95312,0.875 -1.95312,1.95313 0,1.08203 0.875,1.95703 1.95312,1.95703"
         id="path2122" />
      <path
         style="baseline-shift:baseline;display:inline;overflow:visible;opacity:1;vector-effect:none;fill:#f97316;fill-opacity:1;enable-background:accumulate;stop-color:#000000;stop-opacity:1"
         d="m -150.06368,22.882259 c -1.21339,0 -2.20313,-0.990222 -2.20313,-2.207032 0,-1.21339 0.98974,-2.203125 2.20313,-2.203125 1.21339,0 2.20312,0.989735 2.20312,2.203125 0,1.21681 -0.98973,2.207032 -2.20312,2.207032 z m 0,-0.5 c 0.94286,0 1.70312,-0.759777 1.70312,-1.707032 0,-0.942859 -0.76026,-1.703125 -1.70312,-1.703125 -0.94286,0 -1.70313,0.760266 -1.70313,1.703125 0,0.947255 0.76027,1.707032 1.70313,1.707032 z"
         id="path2123" />
      <path
         style="fill:#f97316;fill-opacity:1;fill-rule:nonzero;stroke:none"
         d="m -2.1487396,109.85843 c 1.07031,0 1.94140002,-0.87109 1.94140002,-1.94531 0,-1.07422 -0.87109002,-1.94141 -1.94140002,-1.94141 -1.07422,0 -1.94532,0.86719 -1.94532,1.94141 0,1.07422 0.8711,1.94531 1.94532,1.94531"
         id="path2128" />
      <path
         style="baseline-shift:baseline;display:inline;overflow:visible;opacity:1;vector-effect:none;fill:#f97316;fill-opacity:1;enable-background:accumulate;stop-color:#000000;stop-opacity:1"
         d="m -2.1486196,110.10875 c -1.20937,0 -2.19531,-0.98594 -2.19531,-2.19531 0,-1.20937 0.98655,-2.19141 2.19531,-2.19141 1.20535002,0 2.19141002,0.98204 2.19141002,2.19141 0,1.20937 -0.98545,2.19531 -2.19141002,2.19531 z m 0,-0.5 c 0.93467,0 1.69141002,-0.75624 1.69141002,-1.69531 0,-0.93907 -0.75613002,-1.69141 -1.69141002,-1.69141 -0.93967,0 -1.69531,0.75234 -1.69531,1.69141 0,0.93907 0.75624,1.69531 1.69531,1.69531 z"
         id="path2129" />
      <path
         style="fill:#f97316;fill-opacity:1;fill-rule:nonzero;stroke:none"
         d="m -23.48468,64.186565 c 1.07422,0 1.9375,-0.86719 1.9375,-1.9375 0,-1.07032 -0.86328,-1.9375 -1.9375,-1.9375 -1.066409,0 -1.937499,0.86718 -1.937499,1.9375 0,1.07031 0.87109,1.9375 1.937499,1.9375"
         id="path2135" />
      <path
         style="baseline-shift:baseline;display:inline;overflow:visible;opacity:1;vector-effect:none;fill:#f97316;fill-opacity:1;enable-background:accumulate;stop-color:#000000;stop-opacity:1"
         d="m -23.48554,64.435955 c -1.201929,0 -2.187499,-0.98154 -2.187499,-2.1875 0,-1.20596 0.98557,-2.1875 2.187499,-2.1875 1.20877,0 2.1875,0.98276 2.1875,2.1875 0,1.20474 -0.97873,2.1875 -2.1875,2.1875 z m 0,-0.5 c 0.93968,0 1.6875,-0.75162 1.6875,-1.6875 0,-0.93589 -0.74782,-1.6875 -1.6875,-1.6875 -0.930869,0 -1.687499,0.75283 -1.687499,1.6875 0,0.93467 0.75663,1.6875 1.687499,1.6875 z"
         id="path2136" />
    </g>
    <g
       id="g140"
       transform="matrix(0.48228262,0,0,-0.48228262,-33.83616,349.12729)"
       style="stroke-width:2.07347">
      <g
         id="g137"
         style="stroke-width:2.07347">
        <path
           id="path129"
           style="color:#000000;font-style:normal;font-variant:normal;font-weight:normal;font-stretch:normal;font-size:medium;line-height:normal;font-family:sans-serif;font-variant-ligatures:normal;font-variant-position:normal;font-variant-caps:normal;font-variant-numeric:normal;font-variant-alternates:normal;font-variant-east-asian:normal;font-feature-settings:normal;font-variation-settings:normal;text-indent:0;text-align:start;text-decoration-line:none;text-decoration-style:solid;text-decoration-color:#000000;letter-spacing:normal;word-spacing:normal;text-transform:none;writing-mode:lr-tb;direction:ltr;text-orientation:mixed;dominant-baseline:auto;baseline-shift:baseline;text-anchor:start;white-space:normal;shape-padding:0;shape-margin:0;inline-size:0;clip-rule:nonzero;display:inline;overflow:visible;visibility:visible;isolation:auto;mix-blend-mode:normal;color-interpolation:sRGB;color-interpolation-filters:linearRGB;solid-color:#000000;solid-opacity:1;fill:url(#linearGradient1);fill-opacity:1;fill-rule:evenodd;stroke:none;stroke-width:0.548606;stroke-linecap:butt;stroke-linejoin:miter;stroke-miterlimit:4;stroke-dasharray:none;stroke-dashoffset:0;stroke-opacity:0.575207;color-rendering:auto;image-rendering:auto;shape-rendering:auto;text-rendering:auto;enable-background:accumulate;stop-color:#000000"
           d="m 613.13238,61.033431 c -0.2229,-0.004 -0.5414,0.007 -0.9473,0.0464 -0.7829,0.0749 -1.9993,0.27373 -3.211,0.78172 -0.09,0.0376 -0.1801,0.0773 -0.2702,0.11861 -1.0873,0.49888 -1.9546,1.15535 -2.5307,1.95227 -0.6147,0.84922 -0.8867,1.86404 -0.7201,2.99488 0.1757,1.16956 0.8363,2.44754 1.9268,3.71027 1.4905,1.72285 3.8553,3.38176 6.6257,4.60968 1.363,0.60479 2.8316,1.0969 4.3118,1.41525 1.5334,0.32654 3.0288,0.44537 4.3503,0.34182 1.8054,-0.14419 3.1889,-0.74491 3.8532,-1.70788 0.3296,-0.47471 0.463,-1.04743 0.3549,-1.69481 -0.12,-0.67471 -0.5138,-1.4004 -1.154,-2.11945 -0.8839,-0.98777 -2.229,-1.91096 -3.8252,-2.60604 -1.6626,-0.72559 -3.5188,-1.10655 -5.1296,-0.98376 -1.0813,0.10417 -1.8791,0.47294 -2.2645,1.06471 -0.3254,0.49425 -0.2748,1.13347 0.1635,1.84331 -0.4388,-0.22333 -0.8572,-0.50555 -1.1774,-0.82219 -0.3343,-0.33058 -0.5911,-0.70387 -0.6962,-1.06004 -0.1037,-0.331 -0.076,-0.66722 0.072,-0.97723 0.2901,-0.59485 1.0741,-1.06985 2.2182,-1.2244 0.8394,-0.11374 1.8575,-0.0851 2.9382,0.10428 1.0262,0.17697 2.1305,0.50412 3.2119,0.93676 2.187,0.87688 4.2348,2.17889 5.5881,3.57859 1.0299,1.06468 1.71,2.17002 1.9772,3.19194 0.2735,1.03446 0.1321,1.98122 -0.2973,2.78193 -0.4355,0.81033 -1.1631,1.46847 -2.0497,1.97469 -0.076,0.0433 -0.1517,0.0849 -0.2276,0.12515 -1.0304,0.54562 -2.0938,0.83783 -2.7461,1.00275 -0.6838,0.17288 -1.0474,0.25035 -0.9991,0.30384 0.048,0.0537 0.51,0.0836 1.3219,0.006 0.7828,-0.0749 1.9992,-0.27373 3.2109,-0.78172 0.09,-0.0376 0.1801,-0.0773 0.2702,-0.11862 1.0873,-0.49888 1.9547,-1.15504 2.5307,-1.95196 0.6148,-0.84922 0.8867,-1.86435 0.7201,-2.99518 -0.1756,-1.16955 -0.8363,-2.44724 -1.9267,-3.70997 -1.4906,-1.72285 -3.8553,-3.38175 -6.6258,-4.60967 -1.363,-0.6048 -2.8313,-1.0969 -4.3114,-1.41525 -1.5334,-0.32655 -3.0291,-0.44537 -4.3507,-0.34182 -1.8053,0.1442 -3.1885,0.7449 -3.8529,1.70788 -0.3296,0.47472 -0.4629,1.04712 -0.3549,1.6945 0.1201,0.67472 0.5136,1.4004 1.1538,2.11945 0.8838,0.98777 2.229,1.91096 3.8251,2.60604 1.6627,0.72558 3.5188,1.10655 5.1296,0.98376 1.0813,-0.10418 1.8791,-0.47294 2.2645,-1.06471 0.3255,-0.49431 0.275,-1.13369 -0.1634,-1.84362 0.4388,0.22336 0.8574,0.50578 1.1777,0.8225 0.3342,0.33058 0.5908,0.70387 0.6958,1.06004 0.1038,0.33099 0.076,0.66723 -0.072,0.97723 -0.29,0.59486 -1.0741,1.06984 -2.2181,1.22441 -0.8394,0.11372 -1.8576,0.0854 -2.9382,-0.10398 -1.0262,-0.17697 -2.1306,-0.50412 -3.2119,-0.93676 -2.187,-0.87687 -4.2348,-2.1792 -5.5882,-3.5789 -1.0299,-1.06468 -1.7099,-2.17002 -1.9771,-3.19194 -0.2735,-1.03446 -0.1318,-1.98122 0.2976,-2.78193 0.4355,-0.81034 1.1628,-1.46848 2.0494,-1.97469 0.076,-0.0433 0.1517,-0.0849 0.2276,-0.12515 1.0304,-0.54562 2.0938,-0.83752 2.7461,-1.00244 0.6838,-0.17288 1.0473,-0.25066 0.999,-0.30416 -0.024,-0.0269 -0.1516,-0.0478 -0.3745,-0.0523 z" />
        <path
           id="path135"
           style="fill:#382646;stroke-width:5.48609;stroke-linecap:round;stroke-linejoin:round"
           d="m 619.66818,71.510891 a 1.7828753,0.89143765 20 0 1 -1.9802,0.2279 1.7828753,0.89143765 20 0 1 -1.3705,-1.44746 1.7828753,0.89143765 20 0 1 1.9802,-0.22789 1.7828753,0.89143765 20 0 1 1.3705,1.44745 z" />
      </g>
    </g>
    <g
       id="g149"
       transform="matrix(-0.2135542,0.10108808,-0.10108808,-0.2135542,316.47904,99.04002)"
       style="opacity:0.500464;stroke-width:4.23241">
      <g
         id="g146"
         style="stroke-width:4.23241">
        <path
           id="path144"
           style="color:#000000;font-style:normal;font-variant:normal;font-weight:normal;font-stretch:normal;font-size:medium;line-height:normal;font-family:sans-serif;font-variant-ligatures:normal;font-variant-position:normal;font-variant-caps:normal;font-variant-numeric:normal;font-variant-alternates:normal;font-variant-east-asian:normal;font-feature-settings:normal;font-variation-settings:normal;text-indent:0;text-align:start;text-decoration-line:none;text-decoration-style:solid;text-decoration-color:#000000;letter-spacing:normal;word-spacing:normal;text-transform:none;writing-mode:lr-tb;direction:ltr;text-orientation:mixed;dominant-baseline:auto;baseline-shift:baseline;text-anchor:start;white-space:normal;shape-padding:0;shape-margin:0;inline-size:0;clip-rule:nonzero;display:inline;overflow:visible;visibility:visible;isolation:auto;mix-blend-mode:normal;color-interpolation:sRGB;color-interpolation-filters:linearRGB;solid-color:#000000;solid-opacity:1;fill:url(#linearGradient2);fill-opacity:1;fill-rule:evenodd;stroke:none;stroke-width:1.11983;stroke-linecap:butt;stroke-linejoin:miter;stroke-miterlimit:4;stroke-dasharray:none;stroke-dashoffset:0;stroke-opacity:0.575207;color-rendering:auto;image-rendering:auto;shape-rendering:auto;text-rendering:auto;enable-background:accumulate;stop-color:#000000"
           d="m 613.13238,61.033431 c -0.2229,-0.004 -0.5414,0.007 -0.9473,0.0464 -0.7829,0.0749 -1.9993,0.27373 -3.211,0.78172 -0.09,0.0376 -0.1801,0.0773 -0.2702,0.11861 -1.0873,0.49888 -1.9546,1.15535 -2.5307,1.95227 -0.6147,0.84922 -0.8867,1.86404 -0.7201,2.99488 0.1757,1.16956 0.8363,2.44754 1.9268,3.71027 1.4905,1.72285 3.8553,3.38176 6.6257,4.60968 1.363,0.60479 2.8316,1.0969 4.3118,1.41525 1.5334,0.32654 3.0288,0.44537 4.3503,0.34182 1.8054,-0.14419 3.1889,-0.74491 3.8532,-1.70788 0.3296,-0.47471 0.463,-1.04743 0.3549,-1.69481 -0.12,-0.67471 -0.5138,-1.4004 -1.154,-2.11945 -0.8839,-0.98777 -2.229,-1.91096 -3.8252,-2.60604 -1.6626,-0.72559 -3.5188,-1.10655 -5.1296,-0.98376 -1.0813,0.10417 -1.8791,0.47294 -2.2645,1.06471 -0.3254,0.49425 -0.2748,1.13347 0.1635,1.84331 -0.4388,-0.22333 -0.8572,-0.50555 -1.1774,-0.82219 -0.3343,-0.33058 -0.5911,-0.70387 -0.6962,-1.06004 -0.1037,-0.331 -0.076,-0.66722 0.072,-0.97723 0.2901,-0.59485 1.0741,-1.06985 2.2182,-1.2244 0.8394,-0.11374 1.8575,-0.0851 2.9382,0.10428 1.0262,0.17697 2.1305,0.50412 3.2119,0.93676 2.187,0.87688 4.2348,2.17889 5.5881,3.57859 1.0299,1.06468 1.71,2.17002 1.9772,3.19194 0.2735,1.03446 0.1321,1.98122 -0.2973,2.78193 -0.4355,0.81033 -1.1631,1.46847 -2.0497,1.97469 -0.076,0.0433 -0.1517,0.0849 -0.2276,0.12515 -1.0304,0.54562 -2.0938,0.83783 -2.7461,1.00275 -0.6838,0.17288 -1.0474,0.25035 -0.9991,0.30384 0.048,0.0537 0.51,0.0836 1.3219,0.006 0.7828,-0.0749 1.9992,-0.27373 3.2109,-0.78172 0.09,-0.0376 0.1801,-0.0773 0.2702,-0.11862 1.0873,-0.49888 1.9547,-1.15504 2.5307,-1.95196 0.6148,-0.84922 0.8867,-1.86435 0.7201,-2.99518 -0.1756,-1.16955 -0.8363,-2.44724 -1.9267,-3.70997 -1.4906,-1.72285 -3.8553,-3.38175 -6.6258,-4.60967 -1.363,-0.6048 -2.8313,-1.0969 -4.3114,-1.41525 -1.5334,-0.32655 -3.0291,-0.44537 -4.3507,-0.34182 -1.8053,0.1442 -3.1885,0.7449 -3.8529,1.70788 -0.3296,0.47472 -0.4629,1.04712 -0.3549,1.6945 0.1201,0.67472 0.5136,1.4004 1.1538,2.11945 0.8838,0.98777 2.229,1.91096 3.8251,2.60604 1.6627,0.72558 3.5188,1.10655 5.1296,0.98376 1.0813,-0.10418 1.8791,-0.47294 2.2645,-1.06471 0.3255,-0.49431 0.275,-1.13369 -0.1634,-1.84362 0.4388,0.22336 0.8574,0.50578 1.1777,0.8225 0.3342,0.33058 0.5908,0.70387 0.6958,1.06004 0.1038,0.33099 0.076,0.66723 -0.072,0.97723 -0.29,0.59486 -1.0741,1.06984 -2.2181,1.22441 -0.8394,0.11372 -1.8576,0.0854 -2.9382,-0.10398 -1.0262,-0.17697 -2.1306,-0.50412 -3.2119,-0.93676 -2.187,-0.87687 -4.2348,-2.1792 -5.5882,-3.5789 -1.0299,-1.06468 -1.7099,-2.17002 -1.9771,-3.19194 -0.2735,-1.03446 -0.1318,-1.98122 0.2976,-2.78193 0.4355,-0.81034 1.1628,-1.46848 2.0494,-1.97469 0.076,-0.0433 0.1517,-0.0849 0.2276,-0.12515 1.0304,-0.54562 2.0938,-0.83752 2.7461,-1.00244 0.6838,-0.17288 1.0473,-0.25066 0.999,-0.30416 -0.024,-0.0269 -0.1516,-0.0478 -0.3745,-0.0523 z" />
        <path
           id="path145"
           style="fill:#382646;stroke-width:11.1983;stroke-linecap:round;stroke-linejoin:round"
           d="m 619.66818,71.510891 a 1.7828753,0.89143765 20 0 1 -1.9802,0.2279 1.7828753,0.89143765 20 0 1 -1.3705,-1.44746 1.7828753,0.89143765 20 0 1 1.9802,-0.22789 1.7828753,0.89143765 20 0 1 1.3705,1.44745 z" />
      </g>
    </g>
    <g
       id="g158"
       transform="matrix(-0.35450232,-0.06223553,0.06223553,-0.35450232,381.05528,317.17417)"
       style="opacity:0.542853;stroke-width:2.77836">
      <g
         id="g155"
         style="stroke-width:2.77836">
        <path
           id="path153"
           style="color:#000000;font-style:normal;font-variant:normal;font-weight:normal;font-stretch:normal;font-size:medium;line-height:normal;font-family:sans-serif;font-variant-ligatures:normal;font-variant-position:normal;font-variant-caps:normal;font-variant-numeric:normal;font-variant-alternates:normal;font-variant-east-asian:normal;font-feature-settings:normal;font-variation-settings:normal;text-indent:0;text-align:start;text-decoration-line:none;text-decoration-style:solid;text-decoration-color:#000000;letter-spacing:normal;word-spacing:normal;text-transform:none;writing-mode:lr-tb;direction:ltr;text-orientation:mixed;dominant-baseline:auto;baseline-shift:baseline;text-anchor:start;white-space:normal;shape-padding:0;shape-margin:0;inline-size:0;clip-rule:nonzero;display:inline;overflow:visible;visibility:visible;isolation:auto;mix-blend-mode:normal;color-interpolation:sRGB;color-interpolation-filters:linearRGB;solid-color:#000000;solid-opacity:1;fill:url(#linearGradient140);fill-opacity:1;fill-rule:evenodd;stroke:none;stroke-width:0.735111;stroke-linecap:butt;stroke-linejoin:miter;stroke-miterlimit:4;stroke-dasharray:none;stroke-dashoffset:0;stroke-opacity:0.575207;color-rendering:auto;image-rendering:auto;shape-rendering:auto;text-rendering:auto;enable-background:accumulate;stop-color:#000000"
           d="m 613.13238,61.033431 c -0.2229,-0.004 -0.5414,0.007 -0.9473,0.0464 -0.7829,0.0749 -1.9993,0.27373 -3.211,0.78172 -0.09,0.0376 -0.1801,0.0773 -0.2702,0.11861 -1.0873,0.49888 -1.9546,1.15535 -2.5307,1.95227 -0.6147,0.84922 -0.8867,1.86404 -0.7201,2.99488 0.1757,1.16956 0.8363,2.44754 1.9268,3.71027 1.4905,1.72285 3.8553,3.38176 6.6257,4.60968 1.363,0.60479 2.8316,1.0969 4.3118,1.41525 1.5334,0.32654 3.0288,0.44537 4.3503,0.34182 1.8054,-0.14419 3.1889,-0.74491 3.8532,-1.70788 0.3296,-0.47471 0.463,-1.04743 0.3549,-1.69481 -0.12,-0.67471 -0.5138,-1.4004 -1.154,-2.11945 -0.8839,-0.98777 -2.229,-1.91096 -3.8252,-2.60604 -1.6626,-0.72559 -3.5188,-1.10655 -5.1296,-0.98376 -1.0813,0.10417 -1.8791,0.47294 -2.2645,1.06471 -0.3254,0.49425 -0.2748,1.13347 0.1635,1.84331 -0.4388,-0.22333 -0.8572,-0.50555 -1.1774,-0.82219 -0.3343,-0.33058 -0.5911,-0.70387 -0.6962,-1.06004 -0.1037,-0.331 -0.076,-0.66722 0.072,-0.97723 0.2901,-0.59485 1.0741,-1.06985 2.2182,-1.2244 0.8394,-0.11374 1.8575,-0.0851 2.9382,0.10428 1.0262,0.17697 2.1305,0.50412 3.2119,0.93676 2.187,0.87688 4.2348,2.17889 5.5881,3.57859 1.0299,1.06468 1.71,2.17002 1.9772,3.19194 0.2735,1.03446 0.1321,1.98122 -0.2973,2.78193 -0.4355,0.81033 -1.1631,1.46847 -2.0497,1.97469 -0.076,0.0433 -0.1517,0.0849 -0.2276,0.12515 -1.0304,0.54562 -2.0938,0.83783 -2.7461,1.00275 -0.6838,0.17288 -1.0474,0.25035 -0.9991,0.30384 0.048,0.0537 0.51,0.0836 1.3219,0.006 0.7828,-0.0749 1.9992,-0.27373 3.2109,-0.78172 0.09,-0.0376 0.1801,-0.0773 0.2702,-0.11862 1.0873,-0.49888 1.9547,-1.15504 2.5307,-1.95196 0.6148,-0.84922 0.8867,-1.86435 0.7201,-2.99518 -0.1756,-1.16955 -0.8363,-2.44724 -1.9267,-3.70997 -1.4906,-1.72285 -3.8553,-3.38175 -6.6258,-4.60967 -1.363,-0.6048 -2.8313,-1.0969 -4.3114,-1.41525 -1.5334,-0.32655 -3.0291,-0.44537 -4.3507,-0.34182 -1.8053,0.1442 -3.1885,0.7449 -3.8529,1.70788 -0.3296,0.47472 -0.4629,1.04712 -0.3549,1.6945 0.1201,0.67472 0.5136,1.4004 1.1538,2.11945 0.8838,0.98777 2.229,1.91096 3.8251,2.60604 1.6627,0.72558 3.5188,1.10655 5.1296,0.98376 1.0813,-0.10418 1.8791,-0.47294 2.2645,-1.06471 0.3255,-0.49431 0.275,-1.13369 -0.1634,-1.84362 0.4388,0.22336 0.8574,0.50578 1.1777,0.8225 0.3342,0.33058 0.5908,0.70387 0.6958,1.06004 0.1038,0.33099 0.076,0.66723 -0.072,0.97723 -0.29,0.59486 -1.0741,1.06984 -2.2181,1.22441 -0.8394,0.11372 -1.8576,0.0854 -2.9382,-0.10398 -1.0262,-0.17697 -2.1306,-0.50412 -3.2119,-0.93676 -2.187,-0.87687 -4.2348,-2.1792 -5.5882,-3.5789 -1.0299,-1.06468 -1.7099,-2.17002 -1.9771,-3.19194 -0.2735,-1.03446 -0.1318,-1.98122 0.2976,-2.78193 0.4355,-0.81034 1.1628,-1.46848 2.0494,-1.97469 0.076,-0.0433 0.1517,-0.0849 0.2276,-0.12515 1.0304,-0.54562 2.0938,-0.83752 2.7461,-1.00244 0.6838,-0.17288 1.0473,-0.25066 0.999,-0.30416 -0.024,-0.0269 -0.1516,-0.0478 -0.3745,-0.0523 z" />
        <path
           id="path154"
           style="fill:#382646;stroke-width:7.35111;stroke-linecap:round;stroke-linejoin:round"
           d="m 619.66818,71.510891 a 1.7828753,0.89143765 20 0 1 -1.9802,0.2279 1.7828753,0.89143765 20 0 1 -1.3705,-1.44746 1.7828753,0.89143765 20 0 1 1.9802,-0.22789 1.7828753,0.89143765 20 0 1 1.3705,1.44745 z" />
      </g>
    </g>
    <path
       sodipodi:type="star"
       style="fill:#22d3ee;fill-opacity:1;stroke:none;stroke-width:1.26332;stroke-linejoin:round;stroke-dasharray:none;stroke-opacity:1"
       id="path162"
       inkscape:flatsided="false"
       sodipodi:sides="4"
       sodipodi:cx="647.09552"
       sodipodi:cy="199.78777"
       sodipodi:r1="4.867784"
       sodipodi:r2="1.8497579"
       sodipodi:arg1="1.3089969"
       sodipodi:arg2="2.0943951"
       inkscape:rounded="0.1"
       inkscape:randomized="0"
       d="m 648.3554,204.48968 c -0.36633,0.0982 -1.85632,-2.91035 -2.18476,-3.09998 -0.32844,-0.18962 -3.67888,0.0243 -3.77704,-0.34206 -0.0982,-0.36633 2.91036,-1.85631 3.09998,-2.18475 0.18963,-0.32844 -0.0243,-3.67889 0.34206,-3.77704 0.36633,-0.0982 1.85632,2.91035 2.18476,3.09998 0.32844,0.18962 3.67888,-0.0243 3.77704,0.34206 0.0982,0.36633 -2.91036,1.85631 -3.09998,2.18475 -0.18963,0.32844 0.0243,3.67889 -0.34206,3.77704 z"
       transform="matrix(0.36434235,0.20665963,-0.20665963,0.36434235,47.35483,29.16932)" />
    <path
       sodipodi:type="star"
       style="fill:#22d3ee;fill-opacity:1;stroke:none;stroke-width:0.47444;stroke-linejoin:round;stroke-dasharray:none;stroke-opacity:1"
       id="path170"
       inkscape:flatsided="false"
       sodipodi:sides="4"
       sodipodi:cx="647.09552"
       sodipodi:cy="199.78777"
       sodipodi:r1="4.867784"
       sodipodi:r2="1.8497579"
       sodipodi:arg1="1.3089969"
       sodipodi:arg2="2.0943951"
       inkscape:rounded="0.1"
       inkscape:randomized="0"
       d="m 648.3554,204.48968 c -0.36633,0.0982 -1.85632,-2.91035 -2.18476,-3.09998 -0.32844,-0.18962 -3.67888,0.0243 -3.77704,-0.34206 -0.0982,-0.36633 2.91036,-1.85631 3.09998,-2.18475 0.18963,-0.32844 -0.0243,-3.67889 0.34206,-3.77704 0.36633,-0.0982 1.85632,2.91035 2.18476,3.09998 0.32844,0.18962 3.67888,-0.0243 3.77704,0.34206 0.0982,0.36633 -2.91036,1.85631 -3.09998,2.18475 -0.18963,0.32844 0.0243,3.67889 -0.34206,3.77704 z"
       transform="matrix(1.0814466,-0.27292958,0.27292958,1.0814466,-548.43215,276.51972)" />
    <path
       sodipodi:type="star"
       style="fill:#22d3ee;fill-opacity:1;stroke:none;stroke-width:0.47444;stroke-linejoin:round;stroke-dasharray:none;stroke-opacity:1"
       id="path171"
       inkscape:flatsided="false"
       sodipodi:sides="4"
       sodipodi:cx="647.09552"
       sodipodi:cy="199.78777"
       sodipodi:r1="4.867784"
       sodipodi:r2="1.8497579"
       sodipodi:arg1="1.3089969"
       sodipodi:arg2="2.0943951"
       inkscape:rounded="0.1"
       inkscape:randomized="0"
       d="m 648.3554,204.48968 c -0.36633,0.0982 -1.85632,-2.91035 -2.18476,-3.09998 -0.32844,-0.18962 -3.67888,0.0243 -3.77704,-0.34206 -0.0982,-0.36633 2.91036,-1.85631 3.09998,-2.18475 0.18963,-0.32844 -0.0243,-3.67889 0.34206,-3.77704 0.36633,-0.0982 1.85632,2.91035 2.18476,3.09998 0.32844,0.18962 3.67888,-0.0243 3.77704,0.34206 0.0982,0.36633 -2.91036,1.85631 -3.09998,2.18475 -0.18963,0.32844 0.0243,3.67889 -0.34206,3.77704 z"
       transform="matrix(1.0814466,0.27292958,0.27292958,-1.0814466,-492.87973,192.05591)" />
    <path
       sodipodi:type="star"
       style="opacity:0.410587;fill:#22d3ee;fill-opacity:1;stroke:none;stroke-width:0.880402;stroke-linejoin:round;stroke-dasharray:none;stroke-opacity:1"
       id="path172"
       inkscape:flatsided="false"
       sodipodi:sides="4"
       sodipodi:cx="647.09552"
       sodipodi:cy="199.78777"
       sodipodi:r1="4.867784"
       sodipodi:r2="1.8497579"
       sodipodi:arg1="1.3089969"
       sodipodi:arg2="2.0943951"
       inkscape:rounded="0.1"
       inkscape:randomized="0"
       d="m 648.3554,204.48968 c -0.36633,0.0982 -1.85632,-2.91035 -2.18476,-3.09998 -0.32844,-0.18962 -3.67888,0.0243 -3.77704,-0.34206 -0.0982,-0.36633 2.91036,-1.85631 3.09998,-2.18475 0.18963,-0.32844 -0.0243,-3.67889 0.34206,-3.77704 0.36633,-0.0982 1.85632,2.91035 2.18476,3.09998 0.32844,0.18962 3.67888,-0.0243 3.77704,0.34206 0.0982,0.36633 -2.91036,1.85631 -3.09998,2.18475 -0.18963,0.32844 0.0243,3.67889 -0.34206,3.77704 z"
       transform="matrix(0.23323196,-0.19551655,-0.19551655,-0.23323196,97.13929,445.69994)" />
    <path
       sodipodi:type="star"
       style="fill:#22d3ee;fill-opacity:1;stroke:none;stroke-width:0.880402;stroke-linejoin:round;stroke-dasharray:none;stroke-opacity:1"
       id="path3249"
       inkscape:flatsided="false"
       sodipodi:sides="4"
       sodipodi:cx="647.09552"
       sodipodi:cy="199.78777"
       sodipodi:r1="4.867784"
       sodipodi:r2="1.8497579"
       sodipodi:arg1="1.3089969"
       sodipodi:arg2="2.0943951"
       inkscape:rounded="0.1"
       inkscape:randomized="0"
       d="m 648.3554,204.48968 c -0.36633,0.0982 -1.85632,-2.91035 -2.18476,-3.09998 -0.32844,-0.18962 -3.67888,0.0243 -3.77704,-0.34206 -0.0982,-0.36633 2.91036,-1.85631 3.09998,-2.18475 0.18963,-0.32844 -0.0243,-3.67889 0.34206,-3.77704 0.36633,-0.0982 1.85632,2.91035 2.18476,3.09998 0.32844,0.18962 3.67888,-0.0243 3.77704,0.34206 0.0982,0.36633 -2.91036,1.85631 -3.09998,2.18475 -0.18963,0.32844 0.0243,3.67889 -0.34206,3.77704 z"
       transform="matrix(0.22312596,0.18704476,-0.18704476,0.22312596,104.97777,105.45618)" />
    <path
       sodipodi:type="star"
       style="opacity:0.410587;fill:#22d3ee;fill-opacity:1;stroke:none;stroke-width:0.880402;stroke-linejoin:round;stroke-dasharray:none;stroke-opacity:1"
       id="path3250"
       inkscape:flatsided="false"
       sodipodi:sides="4"
       sodipodi:cx="647.09552"
       sodipodi:cy="199.78777"
       sodipodi:r1="4.867784"
       sodipodi:r2="1.8497579"
       sodipodi:arg1="1.3089969"
       sodipodi:arg2="2.0943951"
       inkscape:rounded="0.1"
       inkscape:randomized="0"
       d="m 648.3554,204.48968 c -0.36633,0.0982 -1.85632,-2.91035 -2.18476,-3.09998 -0.32844,-0.18962 -3.67888,0.0243 -3.77704,-0.34206 -0.0982,-0.36633 2.91036,-1.85631 3.09998,-2.18475 0.18963,-0.32844 -0.0243,-3.67889 0.34206,-3.77704 0.36633,-0.0982 1.85632,2.91035 2.18476,3.09998 0.32844,0.18962 3.67888,-0.0243 3.77704,0.34206 0.0982,0.36633 -2.91036,1.85631 -3.09998,2.18475 -0.18963,0.32844 0.0243,3.67889 -0.34206,3.77704 z"
       transform="matrix(0.28290012,0.06883648,-0.06883648,0.28290012,41.5597,173.51753)" />
    <path
       sodipodi:type="star"
       style="opacity:0.410587;fill:#22d3ee;fill-opacity:1;stroke:none;stroke-width:0.880402;stroke-linejoin:round;stroke-dasharray:none;stroke-opacity:1"
       id="path3251"
       inkscape:flatsided="false"
       sodipodi:sides="4"
       sodipodi:cx="647.09552"
       sodipodi:cy="199.78777"
       sodipodi:r1="4.867784"
       sodipodi:r2="1.8497579"
       sodipodi:arg1="1.3089969"
       sodipodi:arg2="2.0943951"
       inkscape:rounded="0.1"
       inkscape:randomized="0"
       d="m 648.3554,204.48968 c -0.36633,0.0982 -1.85632,-2.91035 -2.18476,-3.09998 -0.32844,-0.18962 -3.67888,0.0243 -3.77704,-0.34206 -0.0982,-0.36633 2.91036,-1.85631 3.09998,-2.18475 0.18963,-0.32844 -0.0243,-3.67889 0.34206,-3.77704 0.36633,-0.0982 1.85632,2.91035 2.18476,3.09998 0.32844,0.18962 3.67888,-0.0243 3.77704,0.34206 0.0982,0.36633 -2.91036,1.85631 -3.09998,2.18475 -0.18963,0.32844 0.0243,3.67889 -0.34206,3.77704 z"
       transform="matrix(0.28290012,0.06883648,-0.06883648,0.28290012,43.89095,172.64331)" />
  </g>
</svg>
