<?xml version="1.0" encoding="UTF-8" standalone="no"?>
<!-- Created with Inkscape (http://www.inkscape.org/) -->

<svg
   width="1002.5906"
   height="262.14264"
   viewBox="0 0 265.26877 69.358579"
   version="1.1"
   id="svg1"
   inkscape:version="1.4.2 (1:1.4.2+202505120737+ebf0e940d0)"
   sodipodi:docname="home_page.svg"
   xml:space="preserve"
   xmlns:inkscape="http://www.inkscape.org/namespaces/inkscape"
   xmlns:sodipodi="http://sodipodi.sourceforge.net/DTD/sodipodi-0.dtd"
   xmlns:xlink="http://www.w3.org/1999/xlink"
   xmlns="http://www.w3.org/2000/svg"
   xmlns:svg="http://www.w3.org/2000/svg"><sodipodi:namedview
     id="namedview1"
     pagecolor="#ffffff"
     bordercolor="#000000"
     borderopacity="0.25"
     inkscape:showpageshadow="2"
     inkscape:pageopacity="0.0"
     inkscape:pagecheckerboard="0"
     inkscape:deskcolor="#d1d1d1"
     inkscape:document-units="px"
     inkscape:zoom="0.20063165"
     inkscape:cx="-112.14582"
     inkscape:cy="3152.5435"
     inkscape:window-width="2560"
     inkscape:window-height="1371"
     inkscape:window-x="0"
     inkscape:window-y="32"
     inkscape:window-maximized="1"
     inkscape:current-layer="svg1"
     showguides="false"><sodipodi:guide
       position="-0.67598632,-151.64105"
       orientation="1,0"
       id="guide98"
       inkscape:locked="false" /><sodipodi:guide
       position="269.42336,-26.551045"
       orientation="1,0"
       id="guide99"
       inkscape:locked="false" /><sodipodi:guide
       position="189.30313,-125.48385"
       orientation="0,-1"
       id="guide100"
       inkscape:locked="false" /><sodipodi:guide
       position="212.8371,-210.66775"
       orientation="0,-1"
       id="guide101"
       inkscape:locked="false" /><sodipodi:guide
       position="134.19874,-473.11278"
       orientation="-0.70710678,-0.70710678"
       id="guide142"
       inkscape:locked="false" /><sodipodi:guide
       position="134.19874,-535.31867"
       orientation="0,-1"
       id="guide205"
       inkscape:locked="false" /><sodipodi:guide
       position="191.08985,-473.6865"
       orientation="0,-1"
       id="guide365"
       inkscape:locked="false" /><sodipodi:guide
       position="612.53641,-573.93342"
       orientation="0,-1"
       id="guide374"
       inkscape:locked="false" /><sodipodi:guide
       position="616.55539,-634.11582"
       orientation="0,-1"
       id="guide375"
       inkscape:locked="false" /><inkscape:page
       x="0"
       y="0"
       width="265.26877"
       height="69.358582"
       id="page1"
       margin="0"
       bleed="0" /></sodipodi:namedview><defs
     id="defs1"><linearGradient
       id="linearGradient12"
       inkscape:collect="always"><stop
         style="stop-color:#58dbf9;stop-opacity:1;"
         offset="0.34220436"
         id="stop12" /><stop
         style="stop-color:#103064;stop-opacity:1;"
         offset="1"
         id="stop13" /></linearGradient><linearGradient
       inkscape:collect="always"
       xlink:href="#linearGradient12"
       id="linearGradient140"
       gradientUnits="userSpaceOnUse"
       gradientTransform="matrix(0.31101022,0,0,0.31101022,656.87398,49.835351)"
       x1="-165.99591"
       y1="34.805733"
       x2="-82.538643"
       y2="99.91259" /><linearGradient
       inkscape:collect="always"
       xlink:href="#linearGradient12"
       id="linearGradient149"
       gradientUnits="userSpaceOnUse"
       gradientTransform="matrix(0.31101022,0,0,0.31101022,656.87398,49.835351)"
       x1="-165.99591"
       y1="34.805733"
       x2="-82.538643"
       y2="99.91259" /><linearGradient
       inkscape:collect="always"
       xlink:href="#linearGradient12"
       id="linearGradient158"
       gradientUnits="userSpaceOnUse"
       gradientTransform="matrix(0.31101022,0,0,0.31101022,656.87398,49.835351)"
       x1="-165.99591"
       y1="34.805733"
       x2="-82.538643"
       y2="99.91259" /></defs><g
     inkscape:label="Layer 1"
     inkscape:groupmode="layer"
     id="layer1"
     transform="translate(-383.80125,-193.7782)"><path
       d="m 474.1428,228.99357 -9.97295,5.50154"
       id="path183-7"
       inkscape:connector-curvature="0"
       style="fill:#f97316;fill-opacity:1;stroke:#9ca3af;stroke-width:0.396875;stroke-opacity:1" /><path
       d="m 464.16985,234.49511 -5.58016,3.2906"
       id="path185-0"
       inkscape:connector-curvature="0"
       style="fill:#f97316;fill-opacity:1;stroke:#9ca3af;stroke-width:0.396875;stroke-opacity:1" /><path
       d="m 458.58969,237.78571 4.20113,14.60066"
       id="path187"
       inkscape:connector-curvature="0"
       style="fill:#f97316;fill-opacity:1;stroke:#9ca3af;stroke-width:0.396875;stroke-opacity:1" /><path
       d="m 462.79082,252.38637 18.47502,7.96159"
       id="path189"
       inkscape:connector-curvature="0"
       style="fill:#f97316;fill-opacity:1;stroke:#9ca3af;stroke-width:0.396875;stroke-opacity:1" /><path
       d="m 481.26584,260.34796 14.35653,2.13149"
       id="path191"
       inkscape:connector-curvature="0"
       style="fill:#f97316;fill-opacity:1;stroke:#9ca3af;stroke-width:0.396875;stroke-opacity:1" /><path
       d="m 495.62237,262.47945 10.0273,-15.88964"
       id="path193-4"
       inkscape:connector-curvature="0"
       style="fill:#f97316;fill-opacity:1;stroke:#9ca3af;stroke-width:0.396875;stroke-opacity:1" /><path
       d="m 505.64967,246.58981 8.42134,-13.90129"
       id="path195-8"
       inkscape:connector-curvature="0"
       style="fill:#f97316;fill-opacity:1;stroke:#9ca3af;stroke-width:0.396875;stroke-opacity:1" /><path
       d="m 514.07101,232.68852 23.655,-17.26329"
       id="path197-0"
       inkscape:connector-curvature="0"
       style="fill:#f97316;fill-opacity:1;stroke:#9ca3af;stroke-width:0.396875;stroke-opacity:1" /><path
       d="m 537.72601,215.42523 9.1446,-3.76587"
       id="path199-4"
       inkscape:connector-curvature="0"
       style="fill:#f97316;fill-opacity:1;stroke:#9ca3af;stroke-width:0.396875;stroke-opacity:1" /><path
       d="m 546.87061,211.65936 8.723,0.79453"
       id="path201-2"
       inkscape:connector-curvature="0"
       style="fill:#f97316;fill-opacity:1;stroke:#9ca3af;stroke-width:0.396875;stroke-opacity:1" /><path
       d="m 555.59361,212.45389 24.3003,-0.24218"
       id="path203-9"
       inkscape:connector-curvature="0"
       style="fill:#f97316;fill-opacity:1;stroke:#9ca3af;stroke-width:0.396875;stroke-opacity:1" /><path
       d="m 579.89391,212.21171 2.1721,-13.14407"
       id="path205"
       inkscape:connector-curvature="0"
       style="fill:#f97316;fill-opacity:1;stroke:#9ca3af;stroke-width:0.396875;stroke-opacity:1" /><path
       d="m 582.06601,199.06764 -4.9545,-4.80818"
       id="path207"
       inkscape:connector-curvature="0"
       style="fill:#f97316;fill-opacity:1;stroke:#9ca3af;stroke-width:0.396875;stroke-opacity:1" /><path
       d="m 579.89391,212.21171 -6.973,13.53068"
       id="path209"
       inkscape:connector-curvature="0"
       style="fill:#f97316;fill-opacity:1;stroke:#9ca3af;stroke-width:0.396875;stroke-opacity:1" /><path
       d="m 572.92091,225.74239 -5.7537,12.24473"
       id="path211-6"
       inkscape:connector-curvature="0"
       style="fill:#f97316;fill-opacity:1;stroke:#9ca3af;stroke-width:0.396875;stroke-opacity:1" /><circle
       cx="550.04175"
       cy="-110.17215"
       r="0.15081249"
       id="circle3465"
       style="fill:#f97316;fill-opacity:1;stroke:none;stroke-width:0.264583"
       transform="rotate(39.283311)" /><circle
       cx="576.5636"
       cy="-214.4682"
       r="0.23547916"
       id="circle3909"
       style="fill:#e5e7eb;fill-opacity:1;stroke:none;stroke-width:0.264583"
       transform="rotate(39.283311)" /><circle
       cx="550.27191"
       cy="-110.75156"
       r="0.2460625"
       id="circle3927"
       style="fill:#f97316;fill-opacity:1;stroke:none;stroke-width:0.264583"
       transform="rotate(39.283311)" /><circle
       cx="569.68176"
       cy="-215.03973"
       r="0.32279167"
       id="circle4059"
       style="fill:#f97316;fill-opacity:1;stroke:none;stroke-width:0.264583"
       transform="rotate(39.283311)" /><circle
       cx="589.68427"
       cy="-174.89719"
       r="0.37041664"
       id="circle4089"
       style="fill:#f97316;fill-opacity:1;stroke:none;stroke-width:0.264583"
       transform="rotate(39.283311)" /><circle
       cx="549.81421"
       cy="-110.64047"
       r="0.40481248"
       id="circle4103"
       style="fill:#f97316;fill-opacity:1;stroke:none;stroke-width:0.264583"
       transform="rotate(39.283311)" /><circle
       cx="547.09692"
       cy="-129.32004"
       r="0.42333335"
       id="circle4109"
       style="fill:#f97316;fill-opacity:1;stroke:none;stroke-width:0.264583"
       transform="rotate(39.283311)" /><circle
       cx="537.35236"
       cy="-103.19504"
       r="0.46037501"
       id="circle4127"
       style="fill:#f97316;fill-opacity:1;stroke:none;stroke-width:0.264583"
       transform="rotate(39.283311)" /><circle
       cx="505.51508"
       cy="-106.30655"
       r="0.52652085"
       id="circle4147"
       style="fill:#f97316;fill-opacity:1;stroke:none;stroke-width:0.264583"
       transform="rotate(39.283311)" /><circle
       cx="547.51233"
       cy="-129.2883"
       r="0.52652085"
       id="circle4149"
       style="fill:#f97316;fill-opacity:1;stroke:none;stroke-width:0.264583"
       transform="rotate(39.283311)" /><circle
       cx="564.55414"
       cy="-187.32993"
       r="0.55297911"
       id="circle4155"
       style="fill:#f97316;fill-opacity:1;stroke:none;stroke-width:0.264583"
       transform="rotate(39.283311)" /><circle
       cx="586.38226"
       cy="-188.01785"
       r="0.5767917"
       id="circle4157"
       style="fill:#f97316;fill-opacity:1;stroke:none;stroke-width:0.264583"
       transform="rotate(39.283311)" /><circle
       cx="552.61084"
       cy="-173.71976"
       r="0.60324997"
       id="circle4163"
       style="fill:#f97316;fill-opacity:1;stroke:none;stroke-width:0.264583"
       transform="rotate(39.283311)" /><circle
       cx="514.59021"
       cy="-122.99118"
       r="0.62970835"
       id="circle4169"
       style="fill:#f97316;fill-opacity:1;stroke:none;stroke-width:0.264583"
       transform="rotate(39.283311)" /><circle
       cx="576.57153"
       cy="-214.45496"
       r="0.62970835"
       id="circle4173"
       style="fill:#f97316;fill-opacity:1;stroke:none;stroke-width:0.264583"
       transform="rotate(39.283311)" /><circle
       cx="507.74548"
       cy="-112.38406"
       r="0.72231251"
       id="circle4181"
       style="fill:#f97316;fill-opacity:1;stroke:none;stroke-width:0.264583"
       transform="rotate(39.283311)" /><circle
       cx="583.21521"
       cy="-202.90598"
       r="0.72231251"
       id="circle4185"
       style="fill:#f97316;fill-opacity:1;stroke:none;stroke-width:0.264583"
       transform="rotate(39.283311)" /><circle
       cx="545.23163"
       cy="-145.37759"
       r="0.75406247"
       id="circle4191"
       style="fill:#f97316;fill-opacity:1;stroke:none;stroke-width:0.264583"
       transform="rotate(39.283311)" /><circle
       cx="518.01129"
       cy="-97.662628"
       r="0.90222919"
       id="circle4195"
       style="fill:#f97316;fill-opacity:1;stroke:none;stroke-width:0.264583"
       transform="rotate(39.283311)" /><circle
       cx="511.97882"
       cy="-122.95944"
       r="0.9868958"
       id="circle4199"
       style="fill:#f97316;fill-opacity:1;stroke:none;stroke-width:0.264583"
       transform="rotate(39.283311)" /><circle
       cx="557.29663"
       cy="-182.42191"
       r="1.2885208"
       id="circle4201"
       style="fill:#f97316;fill-opacity:1;stroke:none;stroke-width:0.264583"
       transform="rotate(39.283311)" /><g
       id="g140"
       transform="matrix(0.48228262,0,0,-0.48228262,91.82497,273.3973)"
       style="stroke-width:2.07347"><g
         id="g137"
         style="stroke-width:2.07347"><path
           id="path129"
           style="color:#000000;font-style:normal;font-variant:normal;font-weight:normal;font-stretch:normal;font-size:medium;line-height:normal;font-family:sans-serif;font-variant-ligatures:normal;font-variant-position:normal;font-variant-caps:normal;font-variant-numeric:normal;font-variant-alternates:normal;font-variant-east-asian:normal;font-feature-settings:normal;font-variation-settings:normal;text-indent:0;text-align:start;text-decoration-line:none;text-decoration-style:solid;text-decoration-color:#000000;letter-spacing:normal;word-spacing:normal;text-transform:none;writing-mode:lr-tb;direction:ltr;text-orientation:mixed;dominant-baseline:auto;baseline-shift:baseline;text-anchor:start;white-space:normal;shape-padding:0;shape-margin:0;inline-size:0;clip-rule:nonzero;display:inline;overflow:visible;visibility:visible;isolation:auto;mix-blend-mode:normal;color-interpolation:sRGB;color-interpolation-filters:linearRGB;solid-color:#000000;solid-opacity:1;fill:url(#linearGradient140);fill-opacity:1;fill-rule:evenodd;stroke:none;stroke-width:0.548606;stroke-linecap:butt;stroke-linejoin:miter;stroke-miterlimit:4;stroke-dasharray:none;stroke-dashoffset:0;stroke-opacity:0.575207;color-rendering:auto;image-rendering:auto;shape-rendering:auto;text-rendering:auto;enable-background:accumulate;stop-color:#000000"
           d="m 613.13238,61.033431 c -0.2229,-0.004 -0.5414,0.007 -0.9473,0.0464 -0.7829,0.0749 -1.9993,0.27373 -3.211,0.78172 -0.09,0.0376 -0.1801,0.0773 -0.2702,0.11861 -1.0873,0.49888 -1.9546,1.15535 -2.5307,1.95227 -0.6147,0.84922 -0.8867,1.86404 -0.7201,2.99488 0.1757,1.16956 0.8363,2.44754 1.9268,3.71027 1.4905,1.72285 3.8553,3.38176 6.6257,4.60968 1.363,0.60479 2.8316,1.0969 4.3118,1.41525 1.5334,0.32654 3.0288,0.44537 4.3503,0.34182 1.8054,-0.14419 3.1889,-0.74491 3.8532,-1.70788 0.3296,-0.47471 0.463,-1.04743 0.3549,-1.69481 -0.12,-0.67471 -0.5138,-1.4004 -1.154,-2.11945 -0.8839,-0.98777 -2.229,-1.91096 -3.8252,-2.60604 -1.6626,-0.72559 -3.5188,-1.10655 -5.1296,-0.98376 -1.0813,0.10417 -1.8791,0.47294 -2.2645,1.06471 -0.3254,0.49425 -0.2748,1.13347 0.1635,1.84331 -0.4388,-0.22333 -0.8572,-0.50555 -1.1774,-0.82219 -0.3343,-0.33058 -0.5911,-0.70387 -0.6962,-1.06004 -0.1037,-0.331 -0.076,-0.66722 0.072,-0.97723 0.2901,-0.59485 1.0741,-1.06985 2.2182,-1.2244 0.8394,-0.11374 1.8575,-0.0851 2.9382,0.10428 1.0262,0.17697 2.1305,0.50412 3.2119,0.93676 2.187,0.87688 4.2348,2.17889 5.5881,3.57859 1.0299,1.06468 1.71,2.17002 1.9772,3.19194 0.2735,1.03446 0.1321,1.98122 -0.2973,2.78193 -0.4355,0.81033 -1.1631,1.46847 -2.0497,1.97469 -0.076,0.0433 -0.1517,0.0849 -0.2276,0.12515 -1.0304,0.54562 -2.0938,0.83783 -2.7461,1.00275 -0.6838,0.17288 -1.0474,0.25035 -0.9991,0.30384 0.048,0.0537 0.51,0.0836 1.3219,0.006 0.7828,-0.0749 1.9992,-0.27373 3.2109,-0.78172 0.09,-0.0376 0.1801,-0.0773 0.2702,-0.11862 1.0873,-0.49888 1.9547,-1.15504 2.5307,-1.95196 0.6148,-0.84922 0.8867,-1.86435 0.7201,-2.99518 -0.1756,-1.16955 -0.8363,-2.44724 -1.9267,-3.70997 -1.4906,-1.72285 -3.8553,-3.38175 -6.6258,-4.60967 -1.363,-0.6048 -2.8313,-1.0969 -4.3114,-1.41525 -1.5334,-0.32655 -3.0291,-0.44537 -4.3507,-0.34182 -1.8053,0.1442 -3.1885,0.7449 -3.8529,1.70788 -0.3296,0.47472 -0.4629,1.04712 -0.3549,1.6945 0.1201,0.67472 0.5136,1.4004 1.1538,2.11945 0.8838,0.98777 2.229,1.91096 3.8251,2.60604 1.6627,0.72558 3.5188,1.10655 5.1296,0.98376 1.0813,-0.10418 1.8791,-0.47294 2.2645,-1.06471 0.3255,-0.49431 0.275,-1.13369 -0.1634,-1.84362 0.4388,0.22336 0.8574,0.50578 1.1777,0.8225 0.3342,0.33058 0.5908,0.70387 0.6958,1.06004 0.1038,0.33099 0.076,0.66723 -0.072,0.97723 -0.29,0.59486 -1.0741,1.06984 -2.2181,1.22441 -0.8394,0.11372 -1.8576,0.0854 -2.9382,-0.10398 -1.0262,-0.17697 -2.1306,-0.50412 -3.2119,-0.93676 -2.187,-0.87687 -4.2348,-2.1792 -5.5882,-3.5789 -1.0299,-1.06468 -1.7099,-2.17002 -1.9771,-3.19194 -0.2735,-1.03446 -0.1318,-1.98122 0.2976,-2.78193 0.4355,-0.81034 1.1628,-1.46848 2.0494,-1.97469 0.076,-0.0433 0.1517,-0.0849 0.2276,-0.12515 1.0304,-0.54562 2.0938,-0.83752 2.7461,-1.00244 0.6838,-0.17288 1.0473,-0.25066 0.999,-0.30416 -0.024,-0.0269 -0.1516,-0.0478 -0.3745,-0.0523 z" /><path
           id="path135"
           style="fill:#382646;stroke-width:5.48609;stroke-linecap:round;stroke-linejoin:round"
           d="m 619.66818,71.510891 a 1.7828753,0.89143765 20 0 1 -1.9802,0.2279 1.7828753,0.89143765 20 0 1 -1.3705,-1.44746 1.7828753,0.89143765 20 0 1 1.9802,-0.22789 1.7828753,0.89143765 20 0 1 1.3705,1.44745 z" /></g></g><g
       id="g149"
       transform="matrix(-0.2135542,0.10108808,-0.10108808,-0.2135542,757.02021,150.59203)"
       style="opacity:0.500464;stroke-width:4.23241"><g
         id="g146"
         style="stroke-width:4.23241"><path
           id="path144"
           style="color:#000000;font-style:normal;font-variant:normal;font-weight:normal;font-stretch:normal;font-size:medium;line-height:normal;font-family:sans-serif;font-variant-ligatures:normal;font-variant-position:normal;font-variant-caps:normal;font-variant-numeric:normal;font-variant-alternates:normal;font-variant-east-asian:normal;font-feature-settings:normal;font-variation-settings:normal;text-indent:0;text-align:start;text-decoration-line:none;text-decoration-style:solid;text-decoration-color:#000000;letter-spacing:normal;word-spacing:normal;text-transform:none;writing-mode:lr-tb;direction:ltr;text-orientation:mixed;dominant-baseline:auto;baseline-shift:baseline;text-anchor:start;white-space:normal;shape-padding:0;shape-margin:0;inline-size:0;clip-rule:nonzero;display:inline;overflow:visible;visibility:visible;isolation:auto;mix-blend-mode:normal;color-interpolation:sRGB;color-interpolation-filters:linearRGB;solid-color:#000000;solid-opacity:1;fill:url(#linearGradient149);fill-opacity:1;fill-rule:evenodd;stroke:none;stroke-width:1.11983;stroke-linecap:butt;stroke-linejoin:miter;stroke-miterlimit:4;stroke-dasharray:none;stroke-dashoffset:0;stroke-opacity:0.575207;color-rendering:auto;image-rendering:auto;shape-rendering:auto;text-rendering:auto;enable-background:accumulate;stop-color:#000000"
           d="m 613.13238,61.033431 c -0.2229,-0.004 -0.5414,0.007 -0.9473,0.0464 -0.7829,0.0749 -1.9993,0.27373 -3.211,0.78172 -0.09,0.0376 -0.1801,0.0773 -0.2702,0.11861 -1.0873,0.49888 -1.9546,1.15535 -2.5307,1.95227 -0.6147,0.84922 -0.8867,1.86404 -0.7201,2.99488 0.1757,1.16956 0.8363,2.44754 1.9268,3.71027 1.4905,1.72285 3.8553,3.38176 6.6257,4.60968 1.363,0.60479 2.8316,1.0969 4.3118,1.41525 1.5334,0.32654 3.0288,0.44537 4.3503,0.34182 1.8054,-0.14419 3.1889,-0.74491 3.8532,-1.70788 0.3296,-0.47471 0.463,-1.04743 0.3549,-1.69481 -0.12,-0.67471 -0.5138,-1.4004 -1.154,-2.11945 -0.8839,-0.98777 -2.229,-1.91096 -3.8252,-2.60604 -1.6626,-0.72559 -3.5188,-1.10655 -5.1296,-0.98376 -1.0813,0.10417 -1.8791,0.47294 -2.2645,1.06471 -0.3254,0.49425 -0.2748,1.13347 0.1635,1.84331 -0.4388,-0.22333 -0.8572,-0.50555 -1.1774,-0.82219 -0.3343,-0.33058 -0.5911,-0.70387 -0.6962,-1.06004 -0.1037,-0.331 -0.076,-0.66722 0.072,-0.97723 0.2901,-0.59485 1.0741,-1.06985 2.2182,-1.2244 0.8394,-0.11374 1.8575,-0.0851 2.9382,0.10428 1.0262,0.17697 2.1305,0.50412 3.2119,0.93676 2.187,0.87688 4.2348,2.17889 5.5881,3.57859 1.0299,1.06468 1.71,2.17002 1.9772,3.19194 0.2735,1.03446 0.1321,1.98122 -0.2973,2.78193 -0.4355,0.81033 -1.1631,1.46847 -2.0497,1.97469 -0.076,0.0433 -0.1517,0.0849 -0.2276,0.12515 -1.0304,0.54562 -2.0938,0.83783 -2.7461,1.00275 -0.6838,0.17288 -1.0474,0.25035 -0.9991,0.30384 0.048,0.0537 0.51,0.0836 1.3219,0.006 0.7828,-0.0749 1.9992,-0.27373 3.2109,-0.78172 0.09,-0.0376 0.1801,-0.0773 0.2702,-0.11862 1.0873,-0.49888 1.9547,-1.15504 2.5307,-1.95196 0.6148,-0.84922 0.8867,-1.86435 0.7201,-2.99518 -0.1756,-1.16955 -0.8363,-2.44724 -1.9267,-3.70997 -1.4906,-1.72285 -3.8553,-3.38175 -6.6258,-4.60967 -1.363,-0.6048 -2.8313,-1.0969 -4.3114,-1.41525 -1.5334,-0.32655 -3.0291,-0.44537 -4.3507,-0.34182 -1.8053,0.1442 -3.1885,0.7449 -3.8529,1.70788 -0.3296,0.47472 -0.4629,1.04712 -0.3549,1.6945 0.1201,0.67472 0.5136,1.4004 1.1538,2.11945 0.8838,0.98777 2.229,1.91096 3.8251,2.60604 1.6627,0.72558 3.5188,1.10655 5.1296,0.98376 1.0813,-0.10418 1.8791,-0.47294 2.2645,-1.06471 0.3255,-0.49431 0.275,-1.13369 -0.1634,-1.84362 0.4388,0.22336 0.8574,0.50578 1.1777,0.8225 0.3342,0.33058 0.5908,0.70387 0.6958,1.06004 0.1038,0.33099 0.076,0.66723 -0.072,0.97723 -0.29,0.59486 -1.0741,1.06984 -2.2181,1.22441 -0.8394,0.11372 -1.8576,0.0854 -2.9382,-0.10398 -1.0262,-0.17697 -2.1306,-0.50412 -3.2119,-0.93676 -2.187,-0.87687 -4.2348,-2.1792 -5.5882,-3.5789 -1.0299,-1.06468 -1.7099,-2.17002 -1.9771,-3.19194 -0.2735,-1.03446 -0.1318,-1.98122 0.2976,-2.78193 0.4355,-0.81034 1.1628,-1.46848 2.0494,-1.97469 0.076,-0.0433 0.1517,-0.0849 0.2276,-0.12515 1.0304,-0.54562 2.0938,-0.83752 2.7461,-1.00244 0.6838,-0.17288 1.0473,-0.25066 0.999,-0.30416 -0.024,-0.0269 -0.1516,-0.0478 -0.3745,-0.0523 z" /><path
           id="path145"
           style="fill:#382646;stroke-width:11.1983;stroke-linecap:round;stroke-linejoin:round"
           d="m 619.66818,71.510891 a 1.7828753,0.89143765 20 0 1 -1.9802,0.2279 1.7828753,0.89143765 20 0 1 -1.3705,-1.44746 1.7828753,0.89143765 20 0 1 1.9802,-0.22789 1.7828753,0.89143765 20 0 1 1.3705,1.44745 z" /></g></g><g
       id="g158"
       transform="matrix(-0.35450232,-0.06223553,0.06223553,-0.35450232,848.16461,299.98374)"
       style="opacity:0.542853;stroke-width:2.77836"><g
         id="g155"
         style="stroke-width:2.77836"><path
           id="path153"
           style="color:#000000;font-style:normal;font-variant:normal;font-weight:normal;font-stretch:normal;font-size:medium;line-height:normal;font-family:sans-serif;font-variant-ligatures:normal;font-variant-position:normal;font-variant-caps:normal;font-variant-numeric:normal;font-variant-alternates:normal;font-variant-east-asian:normal;font-feature-settings:normal;font-variation-settings:normal;text-indent:0;text-align:start;text-decoration-line:none;text-decoration-style:solid;text-decoration-color:#000000;letter-spacing:normal;word-spacing:normal;text-transform:none;writing-mode:lr-tb;direction:ltr;text-orientation:mixed;dominant-baseline:auto;baseline-shift:baseline;text-anchor:start;white-space:normal;shape-padding:0;shape-margin:0;inline-size:0;clip-rule:nonzero;display:inline;overflow:visible;visibility:visible;isolation:auto;mix-blend-mode:normal;color-interpolation:sRGB;color-interpolation-filters:linearRGB;solid-color:#000000;solid-opacity:1;fill:url(#linearGradient158);fill-opacity:1;fill-rule:evenodd;stroke:none;stroke-width:0.735111;stroke-linecap:butt;stroke-linejoin:miter;stroke-miterlimit:4;stroke-dasharray:none;stroke-dashoffset:0;stroke-opacity:0.575207;color-rendering:auto;image-rendering:auto;shape-rendering:auto;text-rendering:auto;enable-background:accumulate;stop-color:#000000"
           d="m 613.13238,61.033431 c -0.2229,-0.004 -0.5414,0.007 -0.9473,0.0464 -0.7829,0.0749 -1.9993,0.27373 -3.211,0.78172 -0.09,0.0376 -0.1801,0.0773 -0.2702,0.11861 -1.0873,0.49888 -1.9546,1.15535 -2.5307,1.95227 -0.6147,0.84922 -0.8867,1.86404 -0.7201,2.99488 0.1757,1.16956 0.8363,2.44754 1.9268,3.71027 1.4905,1.72285 3.8553,3.38176 6.6257,4.60968 1.363,0.60479 2.8316,1.0969 4.3118,1.41525 1.5334,0.32654 3.0288,0.44537 4.3503,0.34182 1.8054,-0.14419 3.1889,-0.74491 3.8532,-1.70788 0.3296,-0.47471 0.463,-1.04743 0.3549,-1.69481 -0.12,-0.67471 -0.5138,-1.4004 -1.154,-2.11945 -0.8839,-0.98777 -2.229,-1.91096 -3.8252,-2.60604 -1.6626,-0.72559 -3.5188,-1.10655 -5.1296,-0.98376 -1.0813,0.10417 -1.8791,0.47294 -2.2645,1.06471 -0.3254,0.49425 -0.2748,1.13347 0.1635,1.84331 -0.4388,-0.22333 -0.8572,-0.50555 -1.1774,-0.82219 -0.3343,-0.33058 -0.5911,-0.70387 -0.6962,-1.06004 -0.1037,-0.331 -0.076,-0.66722 0.072,-0.97723 0.2901,-0.59485 1.0741,-1.06985 2.2182,-1.2244 0.8394,-0.11374 1.8575,-0.0851 2.9382,0.10428 1.0262,0.17697 2.1305,0.50412 3.2119,0.93676 2.187,0.87688 4.2348,2.17889 5.5881,3.57859 1.0299,1.06468 1.71,2.17002 1.9772,3.19194 0.2735,1.03446 0.1321,1.98122 -0.2973,2.78193 -0.4355,0.81033 -1.1631,1.46847 -2.0497,1.97469 -0.076,0.0433 -0.1517,0.0849 -0.2276,0.12515 -1.0304,0.54562 -2.0938,0.83783 -2.7461,1.00275 -0.6838,0.17288 -1.0474,0.25035 -0.9991,0.30384 0.048,0.0537 0.51,0.0836 1.3219,0.006 0.7828,-0.0749 1.9992,-0.27373 3.2109,-0.78172 0.09,-0.0376 0.1801,-0.0773 0.2702,-0.11862 1.0873,-0.49888 1.9547,-1.15504 2.5307,-1.95196 0.6148,-0.84922 0.8867,-1.86435 0.7201,-2.99518 -0.1756,-1.16955 -0.8363,-2.44724 -1.9267,-3.70997 -1.4906,-1.72285 -3.8553,-3.38175 -6.6258,-4.60967 -1.363,-0.6048 -2.8313,-1.0969 -4.3114,-1.41525 -1.5334,-0.32655 -3.0291,-0.44537 -4.3507,-0.34182 -1.8053,0.1442 -3.1885,0.7449 -3.8529,1.70788 -0.3296,0.47472 -0.4629,1.04712 -0.3549,1.6945 0.1201,0.67472 0.5136,1.4004 1.1538,2.11945 0.8838,0.98777 2.229,1.91096 3.8251,2.60604 1.6627,0.72558 3.5188,1.10655 5.1296,0.98376 1.0813,-0.10418 1.8791,-0.47294 2.2645,-1.06471 0.3255,-0.49431 0.275,-1.13369 -0.1634,-1.84362 0.4388,0.22336 0.8574,0.50578 1.1777,0.8225 0.3342,0.33058 0.5908,0.70387 0.6958,1.06004 0.1038,0.33099 0.076,0.66723 -0.072,0.97723 -0.29,0.59486 -1.0741,1.06984 -2.2181,1.22441 -0.8394,0.11372 -1.8576,0.0854 -2.9382,-0.10398 -1.0262,-0.17697 -2.1306,-0.50412 -3.2119,-0.93676 -2.187,-0.87687 -4.2348,-2.1792 -5.5882,-3.5789 -1.0299,-1.06468 -1.7099,-2.17002 -1.9771,-3.19194 -0.2735,-1.03446 -0.1318,-1.98122 0.2976,-2.78193 0.4355,-0.81034 1.1628,-1.46848 2.0494,-1.97469 0.076,-0.0433 0.1517,-0.0849 0.2276,-0.12515 1.0304,-0.54562 2.0938,-0.83752 2.7461,-1.00244 0.6838,-0.17288 1.0473,-0.25066 0.999,-0.30416 -0.024,-0.0269 -0.1516,-0.0478 -0.3745,-0.0523 z" /><path
           id="path154"
           style="fill:#382646;stroke-width:7.35111;stroke-linecap:round;stroke-linejoin:round"
           d="m 619.66818,71.510891 a 1.7828753,0.89143765 20 0 1 -1.9802,0.2279 1.7828753,0.89143765 20 0 1 -1.3705,-1.44746 1.7828753,0.89143765 20 0 1 1.9802,-0.22789 1.7828753,0.89143765 20 0 1 1.3705,1.44745 z" /></g></g><path
       sodipodi:type="star"
       style="opacity:1;fill:#22d3ee;fill-opacity:1;stroke:none;stroke-width:1.26332;stroke-linejoin:round;stroke-dasharray:none;stroke-opacity:1"
       id="path162"
       inkscape:flatsided="false"
       sodipodi:sides="4"
       sodipodi:cx="647.09552"
       sodipodi:cy="199.78777"
       sodipodi:r1="4.867784"
       sodipodi:r2="1.8497579"
       sodipodi:arg1="1.3089969"
       sodipodi:arg2="2.0943951"
       inkscape:rounded="0.1"
       inkscape:randomized="0"
       d="m 648.3554,204.48968 c -0.36633,0.0982 -1.85632,-2.91035 -2.18476,-3.09998 -0.32844,-0.18962 -3.67888,0.0243 -3.77704,-0.34206 -0.0982,-0.36633 2.91036,-1.85631 3.09998,-2.18475 0.18963,-0.32844 -0.0243,-3.67889 0.34206,-3.77704 0.36633,-0.0982 1.85632,2.91035 2.18476,3.09998 0.32844,0.18962 3.67888,-0.0243 3.77704,0.34206 0.0982,0.36633 -2.91036,1.85631 -3.09998,2.18475 -0.18963,0.32844 0.0243,3.67889 -0.34206,3.77704 z"
       transform="matrix(0.36434235,0.20665963,-0.20665963,0.36434235,452.61938,-0.38190193)" /><path
       sodipodi:type="star"
       style="opacity:1;fill:#22d3ee;fill-opacity:1;stroke:none;stroke-width:1.26332;stroke-linejoin:round;stroke-dasharray:none;stroke-opacity:1"
       id="path169"
       inkscape:flatsided="false"
       sodipodi:sides="4"
       sodipodi:cx="647.09552"
       sodipodi:cy="199.78777"
       sodipodi:r1="4.867784"
       sodipodi:r2="1.8497579"
       sodipodi:arg1="1.3089969"
       sodipodi:arg2="2.0943951"
       inkscape:rounded="0.1"
       inkscape:randomized="0"
       d="m 648.3554,204.48968 c -0.36633,0.0982 -1.85632,-2.91035 -2.18476,-3.09998 -0.32844,-0.18962 -3.67888,0.0243 -3.77704,-0.34206 -0.0982,-0.36633 2.91036,-1.85631 3.09998,-2.18475 0.18963,-0.32844 -0.0243,-3.67889 0.34206,-3.77704 0.36633,-0.0982 1.85632,2.91035 2.18476,3.09998 0.32844,0.18962 3.67888,-0.0243 3.77704,0.34206 0.0982,0.36633 -2.91036,1.85631 -3.09998,2.18475 -0.18963,0.32844 0.0243,3.67889 -0.34206,3.77704 z"
       transform="matrix(0.36434235,0.20665963,-0.20665963,0.36434235,338.05282,-10.767072)" /><path
       sodipodi:type="star"
       style="opacity:1;fill:#22d3ee;fill-opacity:1;stroke:none;stroke-width:0.47444;stroke-linejoin:round;stroke-dasharray:none;stroke-opacity:1"
       id="path170"
       inkscape:flatsided="false"
       sodipodi:sides="4"
       sodipodi:cx="647.09552"
       sodipodi:cy="199.78777"
       sodipodi:r1="4.867784"
       sodipodi:r2="1.8497579"
       sodipodi:arg1="1.3089969"
       sodipodi:arg2="2.0943951"
       inkscape:rounded="0.1"
       inkscape:randomized="0"
       d="m 648.3554,204.48968 c -0.36633,0.0982 -1.85632,-2.91035 -2.18476,-3.09998 -0.32844,-0.18962 -3.67888,0.0243 -3.77704,-0.34206 -0.0982,-0.36633 2.91036,-1.85631 3.09998,-2.18475 0.18963,-0.32844 -0.0243,-3.67889 0.34206,-3.77704 0.36633,-0.0982 1.85632,2.91035 2.18476,3.09998 0.32844,0.18962 3.67888,-0.0243 3.77704,0.34206 0.0982,0.36633 -2.91036,1.85631 -3.09998,2.18475 -0.18963,0.32844 0.0243,3.67889 -0.34206,3.77704 z"
       transform="matrix(1.0814466,-0.27292958,0.27292958,1.0814466,-332.40848,162.23869)" /><path
       sodipodi:type="star"
       style="opacity:1;fill:#22d3ee;fill-opacity:1;stroke:none;stroke-width:0.47444;stroke-linejoin:round;stroke-dasharray:none;stroke-opacity:1"
       id="path171"
       inkscape:flatsided="false"
       sodipodi:sides="4"
       sodipodi:cx="647.09552"
       sodipodi:cy="199.78777"
       sodipodi:r1="4.867784"
       sodipodi:r2="1.8497579"
       sodipodi:arg1="1.3089969"
       sodipodi:arg2="2.0943951"
       inkscape:rounded="0.1"
       inkscape:randomized="0"
       d="m 648.3554,204.48968 c -0.36633,0.0982 -1.85632,-2.91035 -2.18476,-3.09998 -0.32844,-0.18962 -3.67888,0.0243 -3.77704,-0.34206 -0.0982,-0.36633 2.91036,-1.85631 3.09998,-2.18475 0.18963,-0.32844 -0.0243,-3.67889 0.34206,-3.77704 0.36633,-0.0982 1.85632,2.91035 2.18476,3.09998 0.32844,0.18962 3.67888,-0.0243 3.77704,0.34206 0.0982,0.36633 -2.91036,1.85631 -3.09998,2.18475 -0.18963,0.32844 0.0243,3.67889 -0.34206,3.77704 z"
       transform="matrix(1.0814466,0.27292958,0.27292958,-1.0814466,-235.31538,296.68768)" /><path
       sodipodi:type="star"
       style="opacity:0.410587;fill:#22d3ee;fill-opacity:1;stroke:none;stroke-width:0.880402;stroke-linejoin:round;stroke-dasharray:none;stroke-opacity:1"
       id="path172"
       inkscape:flatsided="false"
       sodipodi:sides="4"
       sodipodi:cx="647.09552"
       sodipodi:cy="199.78777"
       sodipodi:r1="4.867784"
       sodipodi:r2="1.8497579"
       sodipodi:arg1="1.3089969"
       sodipodi:arg2="2.0943951"
       inkscape:rounded="0.1"
       inkscape:randomized="0"
       d="m 648.3554,204.48968 c -0.36633,0.0982 -1.85632,-2.91035 -2.18476,-3.09998 -0.32844,-0.18962 -3.67888,0.0243 -3.77704,-0.34206 -0.0982,-0.36633 2.91036,-1.85631 3.09998,-2.18475 0.18963,-0.32844 -0.0243,-3.67889 0.34206,-3.77704 0.36633,-0.0982 1.85632,2.91035 2.18476,3.09998 0.32844,0.18962 3.67888,-0.0243 3.77704,0.34206 0.0982,0.36633 -2.91036,1.85631 -3.09998,2.18475 -0.18963,0.32844 0.0243,3.67889 -0.34206,3.77704 z"
       transform="matrix(0.46061713,-0.38613177,-0.38613177,-0.46061713,322.32504,571.76509)" /></g></svg>
