<?xml version="1.0" encoding="UTF-8" standalone="no" ?>
<!-- Created with Inkscape (http://www.inkscape.org/) -->
<svg
  width="1200"
  height="675"
  viewBox="0 0 317.49999 178.59375"
  version="1.1"
  id="svg1"
  inkscape:version="1.4.3 (0d15f75042, 2025-12-25)"
  sodipodi:docname="coverImage.svg"
  xml:space="preserve"
  xmlns:inkscape="http://www.inkscape.org/namespaces/inkscape"
  xmlns:sodipodi="http://sodipodi.sourceforge.net/DTD/sodipodi-0.dtd"
  xmlns="http://www.w3.org/2000/svg"
  xmlns:svg="http://www.w3.org/2000/svg"
><sodipodi:namedview
    id="namedview1"
    pagecolor="#ffffff"
    bordercolor="#000000"
    borderopacity="0.25"
    inkscape:showpageshadow="2"
    inkscape:pageopacity="0.0"
    inkscape:pagecheckerboard="0"
    inkscape:deskcolor="#d1d1d1"
    inkscape:document-units="px"
    inkscape:zoom="0.94634455"
    inkscape:cx="612.35625"
    inkscape:cy="537.33072"
    inkscape:window-width="2560"
    inkscape:window-height="1371"
    inkscape:window-x="0"
    inkscape:window-y="0"
    inkscape:window-maximized="1"
    inkscape:current-layer="layer1"
    showguides="true"
  /><defs id="defs1"><inkscape:path-effect
      effect="bspline"
      id="path-effect4"
      is_visible="true"
      lpeversion="1.3"
      weight="33.333333"
      steps="2"
      helper_size="0"
      apply_no_weight="true"
      apply_with_weight="true"
      only_selected="false"
      uniform="false"
    /><rect x="25.576399" y="-1069.4723" width="863.20447" height="542.86292" id="rect22-7" /><style
      type="text/css"
      id="style1-9"
    >
.st0 {
  fill: #000000;
}
    </style><marker
      style="overflow:visible"
      id="ArrowWide"
      refX="0"
      refY="0"
      orient="auto-start-reverse"
      inkscape:stockid="Wide arrow"
      markerWidth="1"
      markerHeight="1"
      viewBox="0 0 1 1"
      inkscape:isstock="true"
      inkscape:collect="always"
      preserveAspectRatio="xMidYMid"
    ><path
        style="fill:none;stroke:context-stroke;stroke-width:1;stroke-linecap:butt"
        d="M 3,-3 0,0 3,3"
        transform="rotate(180,0.125,0)"
        sodipodi:nodetypes="ccc"
        id="path6"
      /></marker><inkscape:path-effect
      effect="bspline"
      id="path-effect5"
      is_visible="true"
      lpeversion="1.3"
      weight="33.333333"
      steps="2"
      helper_size="0"
      apply_no_weight="true"
      apply_with_weight="true"
      only_selected="false"
      uniform="false"
    /></defs><g inkscape:label="Layer 1" inkscape:groupmode="layer" id="layer1"><rect
      style="fill:#ffffff;fill-opacity:1;stroke:none;stroke-width:0.132292;stroke-linejoin:round;stroke-dasharray:none"
      id="rect16"
      width="317.5"
      height="178.59375"
      x="0"
      y="-4.4408921e-15"
    /><text
      xml:space="preserve"
      transform="matrix(0.26458333,0,0,0.26458333,-62.65993,140.7964)"
      id="text18"
      style="font-weight:500;font-size:48px;line-height:1.2;font-family:Inter;-inkscape-font-specification:'Inter Medium';writing-mode:lr-tb;direction:ltr;white-space:pre;shape-inside:url(#rect22-7);display:inline;fill:#ffffff;stroke:none;stroke-width:3;stroke-linecap:square"
    /><g id="SVGRepo_bgCarrier" stroke-width="0" transform="matrix(0.16356552,0,0,0.16356552,63.374902,-146.66681)" /><g
      id="SVGRepo_tracerCarrier"
      stroke-linecap="round"
      stroke-linejoin="round"
      transform="matrix(0.16356552,0,0,0.16356552,63.374902,-146.66681)"
      style="stroke-width:1.6176"
    /><g
      id="SVGRepo_bgCarrier-2"
      stroke-width="0"
      transform="matrix(0.26458333,0,0,0.26458333,152.32911,-140.24821)"
    /><g
      id="SVGRepo_tracerCarrier-9"
      stroke-linecap="round"
      stroke-linejoin="round"
      transform="matrix(0.26458333,0,0,0.26458333,152.32911,-140.24821)"
    /><g
      id="SVGRepo_bgCarrier-3"
      stroke-width="0"
      transform="matrix(0.26458333,0,0,0.26458333,-319.11388,-167.26543)"
    /><g
      id="SVGRepo_tracerCarrier-6"
      stroke-linecap="round"
      stroke-linejoin="round"
      transform="matrix(0.26458333,0,0,0.26458333,-319.11388,-167.26543)"
    /><g id="SVGRepo_bgCarrier-8" stroke-width="0" transform="matrix(1.3745301,0,0,1.3745301,321.42067,-145.47427)" /><g
      id="SVGRepo_tracerCarrier-7"
      stroke-linecap="round"
      stroke-linejoin="round"
      transform="matrix(1.3745301,0,0,1.3745301,321.42067,-145.47427)"
      style="stroke-width:0.19249"
    /><g
      id="SVGRepo_bgCarrier-6"
      stroke-width="0"
      transform="matrix(0.07241862,0,0,0.07241862,253.11703,-68.035408)"
    /><g
      id="SVGRepo_tracerCarrier-1"
      stroke-linecap="round"
      stroke-linejoin="round"
      transform="matrix(0.07241862,0,0,0.07241862,253.11703,-68.035408)"
      style="stroke-width:3.65353"
    /><g
      id="SVGRepo_bgCarrier-1"
      stroke-width="0"
      transform="matrix(0.26458333,0,0,0.26458333,245.72703,-184.96279)"
    /><g
      id="SVGRepo_tracerCarrier-94"
      stroke-linecap="round"
      stroke-linejoin="round"
      transform="matrix(0.26458333,0,0,0.26458333,245.72703,-184.96279)"
    /><path
      d="m 44.20533,122.80797 q -0.349249,0 -0.671336,-0.10865 -0.318205,-0.10866 -0.574322,-0.31433 -0.256116,-0.20179 -0.4191,-0.48895 l 0.861484,-0.42686 q 0.120297,0.22895 0.337608,0.33761 0.221192,0.11253 0.469547,0.11253 0.291042,0 0.519994,-0.10477 0.228953,-0.1009 0.353131,-0.30268 0.128058,-0.19791 0.120297,-0.49671 v -1.19134 h 0.116417 v -3.18593 h 0.818797 v 4.39279 q 0,0.1591 -0.01552,0.30268 -0.01164,0.14746 -0.04269,0.28716 -0.09313,0.40746 -0.357012,0.66746 -0.263877,0.26387 -0.655813,0.39193 -0.388056,0.12806 -0.861484,0.12806 z m -0.08149,-1.86266 q -0.578203,0 -1.008944,-0.29105 -0.430742,-0.29104 -0.667456,-0.79163 -0.236714,-0.50059 -0.236714,-1.12924 0,-0.63641 0.236714,-1.13312 0.240595,-0.50059 0.679097,-0.78776 0.438503,-0.29104 1.032228,-0.29104 0.597605,0 1.001183,0.29104 0.407458,0.28717 0.617008,0.78776 0.20955,0.50059 0.20955,1.13312 0,0.62477 -0.20955,1.12924 -0.20955,0.50059 -0.624769,0.79163 -0.415219,0.29105 -1.028347,0.29105 z m 0.14358,-0.8382 q 0.376414,0 0.605367,-0.17075 0.232833,-0.17462 0.337608,-0.48507 0.108656,-0.31044 0.108656,-0.7179 0,-0.41134 -0.108656,-0.7179 -0.104775,-0.31045 -0.329847,-0.48119 -0.225072,-0.17463 -0.582083,-0.17463 -0.376414,0 -0.620889,0.18627 -0.244475,0.18239 -0.360892,0.49671 -0.116416,0.31044 -0.116416,0.69074 0,0.38417 0.112536,0.6985 0.116416,0.31044 0.35313,0.49283 0.236714,0.18239 0.601486,0.18239 z m 3.034588,-4.10563 v -0.8576 h 0.935214 v 0.8576 z m 0,4.82741 v -4.191 h 0.935214 v 4.191 z m 4.555775,0 q -0.415219,0.0776 -0.814916,0.066 -0.395817,-0.008 -0.710142,-0.14358 -0.314325,-0.1397 -0.477308,-0.43851 -0.143581,-0.27163 -0.151342,-0.55491 -0.0078,-0.28329 -0.0078,-0.6403 v -3.64384 h 0.931333 v 3.58952 q 0,0.25223 0.0039,0.44238 0.0078,0.19015 0.08149,0.31044 0.1397,0.23284 0.446264,0.26 0.306564,0.0272 0.6985,-0.031 z m -2.922058,-3.45758 v -0.73342 h 2.922058 v 0.73342 z m 7.198439,3.574 q -0.648052,0 -1.105958,-0.28717 -0.457905,-0.29104 -0.70238,-0.79163 -0.240595,-0.50059 -0.244475,-1.13312 0.0039,-0.64417 0.252236,-1.14088 0.252236,-0.5006 0.714022,-0.78388 0.461786,-0.28716 1.098197,-0.28716 0.714022,0 1.206853,0.36089 0.496711,0.35702 0.648052,0.9779 l -0.931333,0.25224 q -0.108655,-0.33761 -0.360892,-0.52387 -0.252236,-0.19015 -0.574322,-0.19015 -0.364772,0 -0.601486,0.17462 -0.236714,0.17075 -0.34925,0.47343 -0.112536,0.30268 -0.112536,0.68686 0,0.5976 0.267759,0.96626 0.267758,0.36865 0.795513,0.36865 0.372534,0 0.585964,-0.17074 0.217311,-0.17075 0.325967,-0.49284 l 0.954616,0.21344 q -0.194027,0.64029 -0.679097,0.98566 -0.485069,0.34149 -1.18745,0.34149 z m 4.381156,0 q -0.62865,0 -1.098197,-0.28329 -0.469547,-0.28328 -0.729545,-0.77999 -0.256116,-0.50059 -0.256116,-1.14864 0,-0.6597 0.263878,-1.15641 0.263877,-0.49671 0.733424,-0.77611 0.469548,-0.2794 1.086556,-0.2794 0.63253,0 1.102077,0.28328 0.469548,0.28328 0.729545,0.78388 0.259997,0.49671 0.259997,1.14476 0,0.65193 -0.263878,1.15252 -0.259997,0.49671 -0.729544,0.78 -0.469547,0.2794 -1.098197,0.2794 z m 0,-0.87701 q 0.5588,0 0.830439,-0.37253 0.271638,-0.37254 0.271638,-0.96238 0,-0.60925 -0.275519,-0.97014 -0.275519,-0.36477 -0.826558,-0.36477 -0.376414,0 -0.620889,0.17074 -0.240594,0.16687 -0.357011,0.46955 -0.116417,0.2988 -0.116417,0.69462 0,0.60925 0.27552,0.97402 0.2794,0.36089 0.818797,0.36089 z m 7.978421,0.76059 v -2.54565 q 0,-0.43074 -0.213431,-0.67133 -0.21343,-0.24448 -0.578203,-0.24448 -0.225072,0 -0.403577,0.10478 -0.178506,0.10089 -0.283281,0.30268 -0.104775,0.19791 -0.104775,0.47343 l -0.415219,-0.24448 q -0.0039,-0.43462 0.194028,-0.76446 0.201788,-0.33373 0.543277,-0.52 0.341489,-0.18627 0.760589,-0.18627 0.694619,0 1.063272,0.4191 0.372533,0.41522 0.372533,1.09432 v 2.78236 z m -5.040841,0 v -4.191 h 0.826558 v 1.29998 h 0.116417 v 2.89102 z m 2.526241,0 v -2.534 q 0,-0.43851 -0.213431,-0.68298 -0.21343,-0.24448 -0.582083,-0.24448 -0.357011,0 -0.574322,0.24448 -0.21343,0.24447 -0.21343,0.63641 l -0.4191,-0.2794 q 0,-0.40746 0.201788,-0.73343 0.201789,-0.32596 0.543278,-0.51223 0.34537,-0.19015 0.772231,-0.19015 0.469547,0 0.783872,0.20179 0.318205,0.19791 0.473427,0.54328 0.159103,0.34149 0.159103,0.77223 v 2.77848 z m 9.491839,0 v -2.54565 q 0,-0.43074 -0.21343,-0.67133 -0.213431,-0.24448 -0.578203,-0.24448 -0.225072,0 -0.403578,0.10478 -0.178505,0.10089 -0.28328,0.30268 -0.104775,0.19791 -0.104775,0.47343 l -0.41522,-0.24448 q -0.0039,-0.43462 0.194028,-0.76446 0.201789,-0.33373 0.543278,-0.52 0.341489,-0.18627 0.760589,-0.18627 0.694619,0 1.063272,0.4191 0.372533,0.41522 0.372533,1.09432 v 2.78236 z m -5.040841,0 v -4.191 h 0.826559 v 1.29998 h 0.116416 v 2.89102 z m 2.526242,0 v -2.534 q 0,-0.43851 -0.213431,-0.68298 -0.21343,-0.24448 -0.582083,-0.24448 -0.357011,0 -0.574322,0.24448 -0.213431,0.24447 -0.213431,0.63641 l -0.4191,-0.2794 q 0,-0.40746 0.201789,-0.73343 0.201789,-0.32596 0.543278,-0.51223 0.345369,-0.19015 0.77223,-0.19015 0.469547,0 0.783872,0.20179 0.318206,0.19791 0.473428,0.54328 0.159103,0.34149 0.159103,0.77223 v 2.77848 z m 4.53637,-4.82741 v -0.8576 h 0.935214 v 0.8576 z m 0,4.82741 v -4.191 h 0.935214 v 4.191 z m 4.555775,0 q -0.41522,0.0776 -0.814917,0.066 -0.395816,-0.008 -0.710141,-0.14358 -0.314325,-0.1397 -0.477309,-0.43851 -0.14358,-0.27163 -0.151341,-0.55491 -0.0078,-0.28329 -0.0078,-0.6403 v -3.64384 h 0.931333 v 3.58952 q 0,0.25223 0.0039,0.44238 0.0078,0.19015 0.08149,0.31044 0.1397,0.23284 0.446264,0.26 0.306564,0.0272 0.6985,-0.031 z m -2.922058,-3.45758 v -0.73342 h 2.922058 v 0.73342 z"
      id="text2"
      style="font-weight:bold;font-size:7.76111px;line-height:1.2;font-family:Manrope;-inkscape-font-specification:'Manrope Bold';stroke-width:0"
      aria-label="git commit"
    /><path
      d="m 139.47509,138.27955 q -0.61313,0 -1.02835,-0.29105 -0.41522,-0.29104 -0.62477,-0.79163 -0.20955,-0.50447 -0.20955,-1.12924 0,-0.63253 0.20955,-1.13312 0.20955,-0.50059 0.61313,-0.78776 0.40746,-0.29104 1.00506,-0.29104 0.59373,0 1.02835,0.29104 0.4385,0.28717 0.6791,0.78776 0.24059,0.49671 0.24059,1.13312 0,0.62865 -0.23671,1.12924 -0.23672,0.50059 -0.66746,0.79163 -0.43074,0.29105 -1.00894,0.29105 z m -2.02177,1.74624 v -6.05366 h 0.82656 v 2.94146 h 0.11641 v 3.1122 z m 1.87819,-2.58444 q 0.36477,0 0.60148,-0.18239 0.23672,-0.18239 0.34925,-0.49283 0.11642,-0.31433 0.11642,-0.6985 0,-0.3803 -0.11642,-0.69074 -0.11641,-0.31433 -0.36089,-0.49671 -0.24447,-0.18627 -0.62089,-0.18627 -0.35701,0 -0.58208,0.17463 -0.22507,0.17074 -0.33373,0.48119 -0.10477,0.30656 -0.10477,0.7179 0,0.40746 0.10477,0.7179 0.10866,0.31045 0.33761,0.48507 0.23283,0.17075 0.60925,0.17075 z m 2.91041,0.72178 v -4.191 h 0.82655 v 1.02058 l -0.10089,-0.13193 q 0.0776,-0.20955 0.20567,-0.3803 0.13194,-0.17462 0.31432,-0.28716 0.15523,-0.10477 0.34149,-0.16298 0.19015,-0.0621 0.38806,-0.0737 0.19791,-0.0155 0.38417,0.0155 v 0.87312 q -0.18626,-0.0543 -0.43074,-0.0349 -0.24059,0.0194 -0.43462,0.13582 -0.19403,0.10477 -0.31821,0.26776 -0.12029,0.16298 -0.1785,0.37253 -0.0582,0.20567 -0.0582,0.44626 v 2.13043 z m 4.92442,0.11642 q -0.63641,0 -1.1176,-0.27552 -0.48119,-0.27552 -0.75283,-0.76447 -0.26776,-0.48895 -0.26776,-1.12536 0,-0.68686 0.26388,-1.19133 0.26388,-0.50836 0.73343,-0.78776 0.46954,-0.2794 1.08655,-0.2794 0.65194,0 1.10596,0.30657 0.45791,0.30268 0.6791,0.8576 0.22119,0.55492 0.16686,1.30775 h -0.92745 v -0.34149 q -0.004,-0.68298 -0.2406,-0.99731 -0.23671,-0.31432 -0.74506,-0.31432 -0.57432,0 -0.85372,0.35701 -0.2794,0.35313 -0.2794,1.03611 0,0.63641 0.2794,0.98566 0.2794,0.34925 0.81491,0.34925 0.34537,0 0.59373,-0.15134 0.25223,-0.15522 0.38805,-0.44627 l 0.92357,0.2794 q -0.24059,0.56657 -0.74506,0.88089 -0.50059,0.31433 -1.10596,0.31433 z m -1.44357,-1.95192 v -0.70627 h 2.88326 v 0.70627 z m 4.13279,-0.24448 v -0.73342 h 2.32833 v 0.73342 z m 5.15726,2.1964 q -0.64806,0 -1.10596,-0.28717 -0.45791,-0.29104 -0.70238,-0.79163 -0.2406,-0.50059 -0.24448,-1.13312 0.004,-0.64417 0.25224,-1.14088 0.25224,-0.5006 0.71402,-0.78388 0.46179,-0.28716 1.0982,-0.28716 0.71402,0 1.20685,0.36089 0.49671,0.35702 0.64805,0.9779 l -0.93133,0.25224 q -0.10865,-0.33761 -0.36089,-0.52387 -0.25224,-0.19015 -0.57432,-0.19015 -0.36478,0 -0.60149,0.17462 -0.23671,0.17075 -0.34925,0.47343 -0.11254,0.30268 -0.11254,0.68686 0,0.5976 0.26776,0.96626 0.26776,0.36865 0.79552,0.36865 0.37253,0 0.58596,-0.17074 0.21731,-0.17075 0.32597,-0.49284 l 0.95461,0.21344 q -0.19402,0.64029 -0.67909,0.98566 -0.48507,0.34149 -1.18745,0.34149 z m 4.38115,0 q -0.62865,0 -1.09819,-0.28329 -0.46955,-0.28328 -0.72955,-0.77999 -0.25612,-0.50059 -0.25612,-1.14864 0,-0.6597 0.26388,-1.15641 0.26388,-0.49671 0.73343,-0.77611 0.46954,-0.2794 1.08655,-0.2794 0.63253,0 1.10208,0.28328 0.46955,0.28328 0.72954,0.78388 0.26,0.49671 0.26,1.14476 0,0.65193 -0.26388,1.15252 -0.25999,0.49671 -0.72954,0.78 -0.46955,0.2794 -1.0982,0.2794 z m 0,-0.87701 q 0.5588,0 0.83044,-0.37253 0.27164,-0.37254 0.27164,-0.96238 0,-0.60925 -0.27552,-0.97014 -0.27552,-0.36477 -0.82656,-0.36477 -0.37641,0 -0.62089,0.17074 -0.24059,0.16687 -0.35701,0.46955 -0.11641,0.2988 -0.11641,0.69462 0,0.60925 0.27552,0.97402 0.2794,0.36089 0.81879,0.36089 z m 7.97842,0.76059 v -2.54565 q 0,-0.43074 -0.21343,-0.67133 -0.21343,-0.24448 -0.5782,-0.24448 -0.22507,0 -0.40358,0.10478 -0.1785,0.10089 -0.28328,0.30268 -0.10477,0.19791 -0.10477,0.47343 l -0.41522,-0.24448 q -0.004,-0.43462 0.19403,-0.76446 0.20178,-0.33373 0.54327,-0.52 0.34149,-0.18627 0.76059,-0.18627 0.69462,0 1.06327,0.4191 0.37254,0.41522 0.37254,1.09432 v 2.78236 z m -5.04084,0 v -4.191 h 0.82656 v 1.29998 h 0.11642 v 2.89102 z m 2.52624,0 v -2.534 q 0,-0.43851 -0.21343,-0.68298 -0.21343,-0.24448 -0.58208,-0.24448 -0.35701,0 -0.57432,0.24448 -0.21343,0.24447 -0.21343,0.63641 l -0.4191,-0.2794 q 0,-0.40746 0.20179,-0.73343 0.20179,-0.32596 0.54327,-0.51223 0.34537,-0.19015 0.77223,-0.19015 0.46955,0 0.78388,0.20179 0.3182,0.19791 0.47342,0.54328 0.15911,0.34149 0.15911,0.77223 v 2.77848 z m 9.49184,0 v -2.54565 q 0,-0.43074 -0.21343,-0.67133 -0.21343,-0.24448 -0.5782,-0.24448 -0.22507,0 -0.40358,0.10478 -0.1785,0.10089 -0.28328,0.30268 -0.10477,0.19791 -0.10477,0.47343 l -0.41522,-0.24448 q -0.004,-0.43462 0.19402,-0.76446 0.20179,-0.33373 0.54328,-0.52 0.34149,-0.18627 0.76059,-0.18627 0.69462,0 1.06327,0.4191 0.37254,0.41522 0.37254,1.09432 v 2.78236 z m -5.04084,0 v -4.191 h 0.82656 v 1.29998 h 0.11642 v 2.89102 z m 2.52624,0 v -2.534 q 0,-0.43851 -0.21343,-0.68298 -0.21343,-0.24448 -0.58208,-0.24448 -0.35701,0 -0.57432,0.24448 -0.21343,0.24447 -0.21343,0.63641 l -0.4191,-0.2794 q 0,-0.40746 0.20179,-0.73343 0.20178,-0.32596 0.54327,-0.51223 0.34537,-0.19015 0.77223,-0.19015 0.46955,0 0.78388,0.20179 0.3182,0.19791 0.47342,0.54328 0.15911,0.34149 0.15911,0.77223 v 2.77848 z m 4.53637,-4.82741 v -0.8576 h 0.93522 v 0.8576 z m 0,4.82741 v -4.191 h 0.93522 v 4.191 z m 4.55578,0 q -0.41522,0.0776 -0.81492,0.066 -0.39581,-0.008 -0.71014,-0.14358 -0.31432,-0.1397 -0.47731,-0.43851 -0.14358,-0.27163 -0.15134,-0.55491 -0.008,-0.28329 -0.008,-0.6403 v -3.64384 h 0.93133 v 3.58952 q 0,0.25223 0.004,0.44238 0.008,0.19015 0.0815,0.31044 0.1397,0.23284 0.44627,0.26 0.30656,0.0272 0.6985,-0.031 z m -2.92206,-3.45758 v -0.73342 h 2.92206 v 0.73342 z"
      id="text3"
      style="font-weight:bold;font-size:7.76111px;line-height:1.2;font-family:Manrope;-inkscape-font-specification:'Manrope Bold';stroke-width:0"
      aria-label="pre-commit"
    /><path
      style="fill:#ff0000;fill-opacity:1;stroke:#000000;stroke-width:1.85208;stroke-dasharray:none;marker-end:url(#ArrowWide)"
      d="m 168.15254,126.06835 c 6.77447,0 13.54894,0 20.32341,0"
      id="path11"
      inkscape:path-effect="#path-effect5"
      inkscape:original-d="m 168.15254,126.06835 c 6.77447,0 13.54894,0 20.32341,0"
      sodipodi:nodetypes="cc"
      transform="translate(-76.987613,-36.771476)"
    /><g id="g1" transform="matrix(0.14122649,0,0,0.14122649,123.13189,73.864645)" style="stroke-width:7.08083"><path
        d="M 225.38874,327.69411 36.902161,139.20718 c -16.532183,-16.53183 -16.532183,-43.335819 0,-59.868002 L 225.38874,-109.14775 c 16.53218,-16.53254 43.33617,-16.53254 59.86835,0 L 473.74367,79.338825 c 16.53218,16.532183 16.53218,43.336175 0,59.868355 L 285.25709,327.69411 c -16.53218,16.53183 -43.33617,16.53183 -59.86835,0"
        fill="#fab040"
        id="path7"
        style="stroke-width:2.49795"
      /><path
        style="baseline-shift:baseline;display:inline;overflow:visible;opacity:1;vector-effect:none;fill:#040521;stroke-width:83.5215;stroke-miterlimit:10;enable-background:accumulate;stop-color:#000000;stop-opacity:1"
        d="m 255.32227,-88.085937 c -9.49232,2e-6 -18.98388,3.604758 -26.19141,10.8125 L 68.775391,83.080078 c -14.415483,14.415062 -14.415383,37.969382 0,52.384762 L 229.13086,295.82031 c 14.4151,14.4151 37.96935,14.415 52.38476,0 L 441.86914,135.46484 c 14.415,-14.41541 14.4151,-37.969667 0,-52.384762 L 281.51562,-77.273437 c -7.20769,-7.207692 -16.70104,-10.812503 -26.19335,-10.8125 z m 0,11.919921 c 6.39755,3e-6 12.79509,2.457209 17.71093,7.373047 L 433.38867,91.5625 c 9.83126,9.83126 9.83136,25.59023 0,35.42188 L 273.0332,287.33789 c -9.83164,9.83136 -25.59061,9.83126 -35.42187,0 L 77.257812,126.98438 c -9.831678,-9.83168 -9.831578,-25.59059 0,-35.42188 L 237.61133,-68.792969 c 4.91565,-4.915789 11.31338,-7.37305 17.71094,-7.373047 z"
        id="path8"
      /><path
        d="m 267.55439,104.58601 c 4.26719,0 8.37493,-0.31503 12.32709,-0.94827 3.94898,-0.6297 7.42701,-1.8556 10.43126,-3.67452 3.00001,-1.815037 5.41159,-4.385722 7.23051,-7.704647 1.81469,-3.318925 2.72556,-7.663725 2.72556,-13.038634 0,-5.371028 -0.91087,-9.719709 -2.72556,-13.038634 -1.81892,-3.318925 -4.2305,-5.885729 -7.23051,-7.704647 -3.00425,-1.815037 -6.48228,-3.040937 -10.43162,-3.674524 -3.9518,-0.629707 -8.05954,-0.948264 -12.32673,-0.948264 h -28.92241 v 50.73214 z m 10.19349,-79.654201 c 10.58648,0 19.59464,1.54093 27.02589,4.622789 7.42595,3.081858 13.47149,7.152551 18.13485,12.208902 4.65983,5.059879 8.06095,10.827428 10.19419,17.305823 2.13359,6.482276 3.20039,13.198089 3.20039,20.150616 0,6.797305 -1.0668,13.476077 -3.20039,20.032083 -2.13324,6.560238 -5.53436,12.368358 -10.19419,17.424358 -4.66371,5.05988 -10.70855,9.12704 -18.13485,12.2089 -7.43125,3.08186 -16.43941,4.62279 -27.02624,4.62279 h -39.1159 v 60.68891 H 201.41296 V 24.931809 Z"
        id="path9"
        style="stroke-width:2.49795"
      /></g><g
      id="g2"
      transform="matrix(0.47105819,0,0,0.47105819,152.84228,40.39197)"
      style="stroke-width:2.12287"
    ><path
        id="path1-6"
        style="stroke-width:0.561678"
        d="m -192.57222,71.416312 c -5.95207,0 -10.77712,4.825054 -10.77712,10.77712 0,5.952067 4.82505,10.77712 10.77712,10.77712 5.95206,0 10.77712,-4.824537 10.77712,-10.776603 0,-5.952067 -4.82506,-10.777637 -10.77712,-10.777637 z m -12.14758,23.6368 c -4.78314,0 -9.10783,2.846457 -10.99933,7.239868 l -9.73894,22.61877 c -1.55363,3.60865 1.09287,7.629 5.0214,7.629 h 6.8864 l -2.72283,-18.68982 h 47.40227 l -2.72335,18.68982 h 6.88641 c 3.9288,0 6.57502,-4.02061 5.02191,-7.629 l -9.73894,-22.61877 c -1.89151,-4.393411 -6.21567,-7.239868 -10.99881,-7.239868 h -0.97203 -2.86081 -5.19245 -6.21512 -5.22346 -1.13843 z m -9.1457,20.880378 2.9559,20.28868 h 36.67476 l 2.95589,-20.28868 z m 21.29328,8.27701 c 1.52082,0 2.75332,0.81011 2.75332,1.80971 0,0.9996 -1.2325,1.80971 -2.75332,1.80971 -1.52083,0 -2.75332,-0.81038 -2.75332,-1.80971 0,-0.99933 1.23249,-1.80971 2.75332,-1.80971 z"
      /></g><g
      id="SVGRepo_iconCarrier-9"
      transform="matrix(1.0902627,0,0,1.0902627,238.36644,71.852684)"
      style="stroke-width:0.242679"
    ><path
        d="m 2.58536,17.4132 c -0.78048,-0.7805 -0.78048,-2.0459 0,-2.8264 L 14.5868,2.58536 c 0.7805,-0.78048 2.0459,-0.78048 2.8264,0 L 29.4146,14.5868 c 0.7805,0.7805 0.7805,2.0459 0,2.8264 L 17.4132,29.4146 c -0.7805,0.7805 -2.0459,0.7805 -2.8264,0 z"
        fill="#ee513b"
        id="path1-2"
        style="stroke-width:0.242679"
      /><path
        d="m 12.1489,5.06152 -1.2153,1.21534 3.1389,3.13891 c -0.127,0.27242 -0.1979,0.57624 -0.1979,0.89663 0,0.9096 0.5715,1.6857 1.375,1.9888 v 7.6786 c -0.8035,0.3031 -1.375,1.0792 -1.375,1.9888 0,1.1736 0.9514,2.125 2.125,2.125 1.1736,0 2.125,-0.9514 2.125,-2.125 0,-0.8246 -0.4697,-1.5396 -1.1562,-1.8918 v -7.7651 l 3.0005,3.0005 c -0.1208,0.2669 -0.188,0.5632 -0.188,0.8752 0,1.1736 0.9514,2.125 2.125,2.125 1.1736,0 2.125,-0.9514 2.125,-2.125 0,-1.1736 -0.9514,-2.125 -2.125,-2.125 -0.2281,0 -0.4477,0.0359 -0.6537,0.1024 l -3.2225,-3.2225 c 0.0617,-0.199 0.0949,-0.4106 0.0949,-0.6299 0,-1.17362 -0.9514,-2.12502 -2.125,-2.12502 -0.2193,0 -0.4308,0.03323 -0.6299,0.09492 z"
        fill="#ffffff"
        id="path2-0"
        style="stroke-width:0.242679"
      /></g><path
      d="m 237.3963,121.49387 q -0.59267,0 -1.11337,-0.20744 -0.51646,-0.21166 -0.91016,-0.61806 -0.38947,-0.4064 -0.6096,-0.99484 -0.22014,-0.59266 -0.22014,-1.35466 0,-0.99907 0.37254,-1.70604 0.37253,-0.7112 1.02023,-1.08797 0.6477,-0.381 1.4605,-0.381 1.12607,0 1.78223,0.52494 0.6604,0.5207 0.89324,1.46473 l -1.0414,0.1651 q -0.17357,-0.54186 -0.56727,-0.8636 -0.3937,-0.32597 -1.0033,-0.32597 -0.61383,-0.008 -1.02023,0.26671 -0.4064,0.27516 -0.61384,0.7747 -0.2032,0.49953 -0.2032,1.1684 0,0.66886 0.2032,1.16416 0.2032,0.49107 0.6096,0.76624 0.41064,0.27516 1.02447,0.28363 0.46143,0.004 0.80857,-0.1651 0.34713,-0.17357 0.56726,-0.5207 0.22014,-0.35137 0.29634,-0.8763 h -1.07527 v -0.8001 h 2.159 q 0.008,0.0677 0.0127,0.19897 0.004,0.13123 0.004,0.15663 0,0.8636 -0.3429,1.5367 -0.33866,0.66887 -0.97366,1.04987 -0.635,0.381 -1.51977,0.381 z m 3.76767,-5.39327 v -0.93557 h 1.02023 v 0.93557 z m 0,5.26627 v -4.572 h 1.02023 v 4.572 z m 4.96994,0 q -0.45297,0.0847 -0.889,0.072 -0.4318,-0.008 -0.7747,-0.15663 -0.3429,-0.1524 -0.5207,-0.47837 -0.15663,-0.29633 -0.1651,-0.60536 -0.008,-0.30904 -0.008,-0.6985 v -3.97511 h 1.016 v 3.91584 q 0,0.27517 0.004,0.4826 0.008,0.20743 0.0889,0.33867 0.1524,0.254 0.48683,0.28363 0.33443,0.0296 0.762,-0.0339 z m -3.1877,-3.7719 v -0.8001 h 3.1877 v 0.8001 z m 9.02971,3.7719 v -2.20134 q 0,-0.2159 -0.0296,-0.47836 -0.0296,-0.26247 -0.1397,-0.50377 -0.10583,-0.24553 -0.32173,-0.40217 -0.21167,-0.15663 -0.57574,-0.15663 -0.19473,0 -0.38523,0.0635 -0.1905,0.0635 -0.34713,0.22013 -0.1524,0.1524 -0.24554,0.42334 -0.0931,0.2667 -0.0931,0.6858 l -0.60537,-0.25824 q 0,-0.5842 0.22437,-1.05833 0.2286,-0.47413 0.66887,-0.75353 0.44026,-0.28364 1.08373,-0.28364 0.508,0 0.8382,0.16934 0.3302,0.16933 0.52493,0.4318 0.19474,0.26246 0.28787,0.5588 0.0931,0.29633 0.11853,0.56303 0.0296,0.26247 0.0296,0.42757 v 2.5527 z m -3.17076,0 v -6.09601 h 0.91016 v 3.20887 h 0.12277 v 2.88714 z m 5.38903,-5.26627 v -0.93557 h 1.02023 v 0.93557 z m 0,5.26627 v -4.572 h 1.02023 v 4.572 z m 4.05554,0.127 q -0.84667,0 -1.37584,-0.381 -0.52916,-0.381 -0.64346,-1.07104 l 1.0414,-0.16086 q 0.0804,0.33866 0.3556,0.5334 0.27516,0.19473 0.69426,0.19473 0.3683,0 0.56727,-0.14393 0.2032,-0.14817 0.2032,-0.40217 0,-0.15663 -0.0762,-0.24977 -0.072,-0.0974 -0.32173,-0.18626 -0.24977,-0.0889 -0.76624,-0.22437 -0.57573,-0.1524 -0.9144,-0.32597 -0.33866,-0.1778 -0.48683,-0.4191 -0.14817,-0.2413 -0.14817,-0.5842 0,-0.42756 0.22437,-0.74506 0.22437,-0.3175 0.62653,-0.48684 0.40217,-0.17356 0.94827,-0.17356 0.5334,0 0.94403,0.1651 0.41487,0.1651 0.66887,0.4699 0.254,0.3048 0.31327,0.71543 l -1.0414,0.18627 q -0.0381,-0.2921 -0.2667,-0.46144 -0.22437,-0.16933 -0.60114,-0.1905 -0.35983,-0.0212 -0.57996,0.11007 -0.22014,0.127 -0.22014,0.35983 0,0.13124 0.0889,0.22437 0.0889,0.0931 0.3556,0.18627 0.27094,0.0931 0.80434,0.2286 0.5461,0.1397 0.87206,0.32173 0.3302,0.1778 0.47414,0.42757 0.14816,0.24976 0.14816,0.60536 0,0.69004 -0.50376,1.08374 -0.49954,0.3937 -1.3843,0.3937 z m 5.4991,-0.127 q -0.45297,0.0847 -0.889,0.072 -0.4318,-0.008 -0.7747,-0.15663 -0.3429,-0.1524 -0.5207,-0.47837 -0.15663,-0.29633 -0.1651,-0.60536 -0.008,-0.30904 -0.008,-0.6985 v -3.97511 h 1.016 v 3.91584 q 0,0.27517 0.004,0.4826 0.008,0.20743 0.0889,0.33867 0.1524,0.254 0.48683,0.28363 0.33443,0.0296 0.762,-0.0339 z m -3.1877,-3.7719 v -0.8001 h 3.1877 v 0.8001 z m 5.96055,3.8989 q -0.6858,0 -1.19803,-0.30904 -0.51223,-0.30903 -0.79587,-0.8509 -0.2794,-0.5461 -0.2794,-1.25306 0,-0.71967 0.28787,-1.26154 0.28787,-0.54186 0.8001,-0.84666 0.51223,-0.3048 1.18533,-0.3048 0.69004,0 1.20227,0.30903 0.51223,0.30903 0.79587,0.85513 0.28363,0.54187 0.28363,1.24884 0,0.7112 -0.28787,1.2573 -0.28363,0.54186 -0.79586,0.8509 -0.51224,0.3048 -1.19804,0.3048 z m 0,-0.95674 q 0.6096,0 0.90594,-0.4064 0.29633,-0.4064 0.29633,-1.04986 0,-0.66464 -0.30057,-1.05834 -0.30056,-0.39793 -0.9017,-0.39793 -0.41063,0 -0.67733,0.18627 -0.26247,0.18203 -0.38947,0.51223 -0.127,0.32597 -0.127,0.75777 0,0.66463 0.30057,1.06256 0.3048,0.3937 0.89323,0.3937 z m 3.21311,0.82974 v -4.572 h 0.9017 v 1.11336 l -0.11007,-0.14393 q 0.0847,-0.2286 0.22437,-0.41487 0.14393,-0.1905 0.3429,-0.31326 0.16933,-0.1143 0.37253,-0.1778 0.20743,-0.0677 0.42333,-0.0804 0.2159,-0.0169 0.4191,0.0169 v 0.9525 q -0.2032,-0.0593 -0.4699,-0.0381 -0.26246,0.0212 -0.47413,0.14816 -0.21167,0.1143 -0.34713,0.2921 -0.13124,0.1778 -0.19474,0.4064 -0.0635,0.22437 -0.0635,0.48684 v 2.3241 z m 3.83822,2.032 0.88054,-2.41724 0.0169,0.7112 -1.9939,-4.89796 h 1.06257 l 1.41393,3.62373 h -0.27093 l 1.37583,-3.62373 h 1.02023 l -2.54846,6.604 z"
      id="text19"
      style="font-weight:bold;font-size:8.46667px;line-height:1.2;font-family:Manrope;-inkscape-font-specification:'Manrope Bold';stroke-width:0"
      aria-label="Git history"
    /><path
      style="fill:#ff0000;fill-opacity:1;stroke:#000000;stroke-width:1.85208;stroke-dasharray:none;marker-end:url(#ArrowWide)"
      d="m 168.15254,126.06835 c 6.77447,0 13.54894,0 20.32341,0"
      id="path3"
      inkscape:path-effect="#path-effect4"
      inkscape:original-d="m 168.15254,126.06835 c 6.77447,0 13.54894,0 20.32341,0"
      sodipodi:nodetypes="cc"
      transform="translate(36.966985,-36.771476)"
    /></g><style type="text/css" id="style1">
.st0 {
  fill: #0080ff;
}
.st1 {
  fill-rule: evenodd;
  clip-rule: evenodd;
  fill: #0080ff;
}
  </style></svg>
