<?xml version="1.0" encoding="UTF-8" standalone="no"?>
<!-- Created with Inkscape (http://www.inkscape.org/) -->

<svg
   width="960.39484"
   height="366.95706"
   viewBox="0 0 254.10446 97.090725"
   version="1.1"
   id="svg1"
   inkscape:version="1.4.2 (ebf0e940d0, 2025-05-08)"
   xml:space="preserve"
   sodipodi:docname="404_page.svg"
   xmlns:inkscape="http://www.inkscape.org/namespaces/inkscape"
   xmlns:sodipodi="http://sodipodi.sourceforge.net/DTD/sodipodi-0.dtd"
   xmlns:xlink="http://www.w3.org/1999/xlink"
   xmlns="http://www.w3.org/2000/svg"
   xmlns:svg="http://www.w3.org/2000/svg"><sodipodi:namedview
     id="namedview1"
     pagecolor="#ffffff"
     bordercolor="#000000"
     borderopacity="0.25"
     inkscape:showpageshadow="2"
     inkscape:pageopacity="0.0"
     inkscape:pagecheckerboard="0"
     inkscape:deskcolor="#d1d1d1"
     inkscape:document-units="px"
     inkscape:zoom="1.3293872"
     inkscape:cx="389.65322"
     inkscape:cy="223.03509"
     inkscape:window-width="2560"
     inkscape:window-height="1371"
     inkscape:window-x="0"
     inkscape:window-y="0"
     inkscape:window-maximized="1"
     inkscape:current-layer="layer1"
     showguides="true" /><defs
     id="defs1"><linearGradient
       id="linearGradient1161"
       inkscape:collect="always"><stop
         style="stop-color:#3e1a02;stop-opacity:1;"
         offset="0"
         id="stop1161" /><stop
         style="stop-color:#f97316;stop-opacity:1;"
         offset="0.15000001"
         id="stop1163" /><stop
         style="stop-color:#f97316;stop-opacity:1;"
         offset="0.85000002"
         id="stop1164" /><stop
         style="stop-color:#4d2002;stop-opacity:1;"
         offset="1"
         id="stop1162" /></linearGradient><inkscape:path-effect
       effect="envelope"
       id="path-effect8"
       is_visible="true"
       lpeversion="1"
       yy="true"
       xx="true"
       bendpath1="m 127.70123,104.88413 8.74319,1.0333"
       bendpath2="m 137.10869,106.50789 9.89016,9.83866"
       bendpath3="m 132.72011,118.41316 19.29762,3.46893"
       bendpath4="m 123.78945,110.7149 5.60934,6.66495"
       bendpath1-nodetypes="cc"
       bendpath3-nodetypes="cc"
       bendpath2-nodetypes="cc"
       bendpath4-nodetypes="cc" /><inkscape:path-effect
       effect="envelope"
       id="path-effect57"
       is_visible="true"
       lpeversion="1"
       yy="true"
       xx="true"
       bendpath1="m 76.582349,82.004631 12.792522,2.952287"
       bendpath2="m 92.454376,89.95983 10.840364,9.312873"
       bendpath3="M 93.574952,98.166044 114.508,108.843"
       bendpath4="m 77.025192,85.510471 7.380716,11.433067"
       bendpath3-nodetypes="cc"
       bendpath2-nodetypes="cc"
       bendpath4-nodetypes="cc"
       bendpath1-nodetypes="cc" /><inkscape:path-effect
       effect="envelope"
       id="path-effect56"
       is_visible="true"
       lpeversion="1"
       yy="true"
       xx="true"
       bendpath1="m 112.38879,86.474982 2.05454,0.50546"
       bendpath2="m 137.27921,105.33849 8.96205,8.94754"
       bendpath3="m 134.76113,111.14032 12.93304,4.50235"
       bendpath4="m 107.60912,93.360941 1.04008,1.89848"
       bendpath3-nodetypes="cc"
       bendpath2-nodetypes="cc"
       bendpath4-nodetypes="cc"
       bendpath1-nodetypes="cc" /><linearGradient
       inkscape:collect="always"
       xlink:href="#linearGradient1161"
       id="linearGradient1165"
       x1="192.72868"
       y1="142.8748"
       x2="315.27133"
       y2="142.8748"
       gradientUnits="userSpaceOnUse" /></defs><g
     inkscape:label="Layer 1"
     inkscape:groupmode="layer"
     id="layer1"
     transform="translate(-126.94777,-94.329712)"><path
       style="font-weight:500;font-size:20.3036px;line-height:1;font-family:Inter;-inkscape-font-specification:'Inter Medium';letter-spacing:0px;white-space:pre;fill:#e5e7eb;fill-opacity:1;stroke-width:8.14133;stroke-linejoin:round"
       d="m 109.69201,95.426091 c -0.9857,-0.585208 -1.66598,-0.959461 -2.1104,-1.199343 12.17431,5.341014 16.06077,3.386993 5.45063,-8.001699 0.17949,0.158932 0.49677,0.45875 1.03807,0.933702 3.09007,3.016111 5.55018,5.447243 7.53956,7.426574 -0.448,-0.301849 -0.83435,-0.555843 -1.17543,-0.768964 3.58897,4.672995 2.38191,6.13094 -1.3361,5.483442 1e-5,8e-6 0.0234,0.01827 0.0234,0.01828 12.5518,5.375077 9.65997,3.721507 22.68948,10.977897 0.28824,0.30278 0.56731,0.59766 0.93437,0.96592 -12.73159,-6.71315 -6.78052,-2.74428 -33.05359,-15.835809 z m 32.19832,17.848169 c -4.2761,-3.44286 -6.93135,-5.5503 -8.98523,-7.24875 -0.42088,-0.34804 -0.81243,-0.67561 -1.18278,-0.99011 -4.68157,-3.97561 -5.61087,-5.516001 -18.36386,-18.514079 0.48489,0.442254 1.38614,1.254114 3.00011,2.546028 22.76447,20.797311 13.08054,12.888481 27.14791,24.559371 -0.62442,-0.15679 -1.07276,-0.22352 -1.61615,-0.35246 z"
       id="path32"
       inkscape:path-effect="#path-effect56"
       inkscape:original-d="m 105.26181,90.916563 v -0.84912 l 3.31061,-4.60338 h 0.6583 v 1.11149 h -0.37685 l -2.47103,3.44418 v 0.01 h 4.52227 v 0.88728 z m 3.6016,1.6553 v -1.90813 -0.39594 -4.80373 h 1.00654 v 7.1078 z"
       transform="matrix(0.39729822,-0.26650955,0.26650955,0.39729822,116.41695,139.08766)" /><path
       style="font-weight:500;font-size:20.3036px;line-height:1;font-family:Inter;-inkscape-font-specification:'Inter Medium';letter-spacing:0px;white-space:pre;fill:#e5e7eb;fill-opacity:1;stroke-width:8.14133;stroke-linejoin:round"
       d="m 103.28937,103.01507 c -3.26126,-1.63085 -4.449023,-2.37058 -8.94669,-4.464653 -2.990873,-1.392518 -6.346328,-2.754893 -9.337201,-4.147411 -2.597124,-1.210957 -4.071166,-2.147901 -4.785226,-3.335901 -0.67729,-1.126824 -0.512529,-2.25819 -0.310906,-3.339641 0.1035,-0.555182 0.52528,-2.79358 0.635317,-3.221603 0.247862,-0.974198 0.646863,-1.672534 1.939557,-1.408516 1.29626,0.264747 3.122623,1.442382 5.357785,3.178793 2.109922,1.639117 4.444453,3.671916 6.007988,5.021328 1.658157,1.426204 2.661074,2.255631 3.793961,3.25014 1.15476,1.013712 2.244382,2.067153 3.816415,3.806939 1.4406,1.588237 3.09742,3.546385 3.75726,4.600905 0.68066,1.08779 0.26125,1.15452 -1.92826,0.0596 z m -4.153943,-3.150701 c 1.295763,0.532911 1.709263,0.522671 1.507163,0.0078 -0.18559,-0.491387 -0.925662,-1.396255 -1.808689,-2.3614 -0.898978,-0.980529 -1.898237,-1.967638 -3.012737,-3.040789 -1.092204,-1.051684 -2.143751,-2.04603 -3.33645,-3.107786 -1.184105,-1.054109 -2.515556,-2.184471 -3.788457,-3.121115 -1.289246,-0.951689 -2.396738,-1.609667 -3.307857,-1.848839 -0.919531,-0.241381 -1.376931,0.0021 -1.60516,0.518608 -0.210642,0.497646 -0.227829,1.268849 -0.08266,2.061307 0.147207,0.803613 0.487577,1.712275 1.314193,2.704761 0.847523,1.017587 2.017945,1.898261 3.657322,2.879524 1.555015,0.929076 3.564613,1.965062 5.434205,2.90936 1.842501,0.928434 3.820781,1.901633 5.029128,2.398594 z"
       id="path31"
       inkscape:path-effect="#path-effect57"
       inkscape:original-d="m 83.017899,91.297291 q -0.825266,0 -1.421558,-0.44842 -0.596291,-0.44841 -0.925444,-1.26891 -0.324383,-0.82049 -0.324383,-1.94629 0,-1.13057 0.324383,-1.95106 0.324382,-0.8205 0.920673,-1.26891 0.601062,-0.45318 1.426329,-0.45318 0.820497,0 1.421558,0.44841 0.601061,0.44841 0.920673,1.27368 0.324383,0.82049 0.324383,1.95106 0,1.1258 -0.324383,1.94629 -0.319612,0.8205 -0.920673,1.26891 -0.601061,0.44842 -1.421558,0.44842 z m 0,-0.9016 q 0.515196,0 0.887281,-0.33393 0.376857,-0.33392 0.57721,-0.94929 0.200354,-0.62014 0.200354,-1.4788 0,-0.86343 -0.200354,-1.48357 -0.200354,-0.62015 -0.57721,-0.95407 -0.372085,-0.33392 -0.887281,-0.33392 -0.519965,0 -0.896822,0.33392 -0.372085,0.33392 -0.57244,0.95407 -0.200353,0.62014 -0.200353,1.48357 0,0.85866 0.200353,1.4788 0.200355,0.61537 0.57244,0.94929 0.376857,0.33393 0.896822,0.33393 z"
       transform="matrix(0.27874346,-0.43394251,0.43394251,0.27874346,100.08704,170.54779)" /><path
       style="font-weight:500;font-size:20.3036px;line-height:1;font-family:Inter;-inkscape-font-specification:'Inter Medium';letter-spacing:0px;white-space:pre;fill:#e5e7eb;fill-opacity:1;stroke-width:8.14133;stroke-linejoin:round"
       d="m 127.93416,115.69705 c -0.35949,-0.25529 -0.68885,-0.48418 -0.98639,-0.71137 3.02735,-2.19161 5.89661,-5.59299 5.54729,-9.81011 0.31801,0.0742 0.63007,0.16985 0.9518,0.27003 0.58173,1.04605 1.09961,1.94017 1.592,2.73957 -0.26091,-0.0199 -0.43597,-0.0346 -0.69687,-0.0544 -0.13452,2.43352 -1.41092,4.5313 -3.03962,6.18155 1e-5,1e-5 0.0116,0.0127 0.0116,0.0127 5.34276,-0.37591 9.30806,0.78439 11.88348,-1.35227 0.48644,0.49058 1.02415,1.03596 1.622,1.6482 -3.08614,2.93742 -8.79008,0.1937 -16.88531,1.07611 z m 16.27434,4.42412 c -1.70525,-1.92369 -3.11693,-3.41822 -4.26646,-4.64864 -0.24122,-0.2582 -0.47245,-0.50639 -0.69539,-0.74749 -2.76025,-2.98512 -4.05065,-4.6851 -6.33204,-9.43996 0.48301,0.13743 0.96868,0.30781 1.50686,0.44813 4.66392,6.66918 4.98426,6.13646 12.51475,14.29893 -0.79631,0.16562 -1.71355,0.17712 -2.72772,0.089 z"
       id="text7"
       inkscape:path-effect="#path-effect8"
       inkscape:original-d="m 122.82995,112.18181 v -0.84912 l 3.31061,-4.60338 h 0.65831 v 1.11149 h -0.37686 l -2.47103,3.44419 v 0.01 h 4.52227 v 0.88729 z m 3.6016,1.6553 v -1.90813 -0.39594 -4.80373 h 1.00654 v 7.1078 z"
       transform="matrix(0.61357421,0,0,0.61357421,62.120659,103.8867)" /><path
       style="fill:#f97316;fill-opacity:1;stroke:none;stroke-width:5.29168;stroke-linecap:square;stroke-dasharray:none"
       d="m 240.26974,132.78433 c -1.21957,1.56002 -2.36091,2.83915 -4.45415,2.12136 -2.09322,-0.71783 0.88348,1.18086 0.88348,1.18086 l 1.78068,0.3494 0.7889,-1.09885 1.55527,-2.52168 c 0,0 0.10196,-0.87033 -0.55418,-0.0311 z"
       id="path1156"
       sodipodi:nodetypes="ssccccs" /><path
       style="opacity:1;fill:#f97316;fill-opacity:1;stroke:none;stroke-width:0.0529167;stroke-linecap:square;stroke-dasharray:none"
       d="m 270.93902,140.76193 c 0.3021,2.52055 -0.20998,5.91588 3.21345,7.11484 3.42343,1.19896 -0.92019,2.10574 -0.92019,2.10574 l -3.59492,-1.21904 c 0,0 0.78367,-2.73661 0.80854,-2.79881 0.0249,-0.0622 0.16171,-4.54029 0.17415,-4.60249 0.0124,-0.0622 0.047,-2.86951 0.31897,-0.60024 z"
       id="path1166"
       sodipodi:nodetypes="ssccscs" /><path
       style="baseline-shift:baseline;display:inline;overflow:visible;vector-effect:none;fill:#f97316;fill-opacity:1;stroke-width:1;stroke-linecap:square;enable-background:accumulate;stop-color:#000000"
       d="m 253.9989,125.81413 c 6.70891,-0.0923 13.17742,4.22106 15.72072,10.42074 2.65581,6.09109 1.27877,13.65772 -3.37171,18.40888 -4.50236,4.84739 -11.94227,6.59913 -18.13683,4.28157 -6.35767,-2.22403 -10.99656,-8.52326 -11.2199,-15.2574 -0.38699,-6.56979 3.43927,-13.12502 9.34148,-16.03144 2.3648,-1.20093 5.0146,-1.82634 7.66624,-1.82235 z m 0,0.72147 c -6.49289,-0.0932 -12.74895,4.1265 -15.13131,10.1603 -2.49519,5.92667 -1.03422,13.24345 3.57658,17.73389 4.48927,4.61215 11.80654,6.07347 17.73297,3.57753 6.0343,-2.38325 10.25555,-8.63957 10.16256,-15.13358 0.0932,-6.49354 -4.12842,-12.74909 -10.16256,-15.13131 -1.95482,-0.79993 -4.06653,-1.2087 -6.17824,-1.20683 z"
       id="path3" /><path
       id="circle3"
       style="baseline-shift:baseline;display:inline;overflow:visible;vector-effect:none;fill:#f97316;fill-opacity:1;stroke-width:1;stroke-linecap:square;enable-background:accumulate;stop-color:#000000"
       d="M 254.001 112.1064 C 240.48727 112.1064 228.96373 120.88765 224.84619 133.03794 L 231.65611 135.36287 C 234.77756 126.01665 243.57699 119.31837 254.001 119.31837 C 267.05368 119.31837 277.55666 129.82084 277.55666 142.87352 C 277.55666 145.58032 277.10491 148.17775 276.27251 150.59449 L 283.08139 152.9189 C 284.17429 149.76861 284.76863 146.38838 284.76863 142.87352 C 284.76863 125.92271 270.95181 112.1064 254.001 112.1064 z M 223.28969 140.96718 C 223.25084 141.59791 223.23078 142.23327 223.23078 142.87352 C 223.23078 159.82434 237.0502 173.64373 254.001 173.64373 C 264.8794 173.64373 274.46732 167.95224 279.9405 159.39396 C 278.08071 158.17464 276.03346 156.85939 273.89487 155.52959 C 269.7234 162.09391 262.38858 166.43177 254.001 166.43177 C 240.94833 166.43177 230.44274 155.92621 230.44274 142.87352 C 230.44274 142.36204 230.45902 141.85481 230.4908 141.35165 C 227.863 141.17163 225.40331 141.04978 223.28969 140.96718 z " /><path
       style="fill:#f97316;fill-opacity:1;stroke:none;stroke-width:5.29168;stroke-linecap:square;stroke-dasharray:none"
       d="m 232.28479,121.10822 c -3.78172,3.77258 -10.40421,8.74004 -22.26294,5.24104 -11.85875,-3.49905 -0.37409,1.22836 -0.37409,1.22836 0,0 7.34813,2.79499 7.64115,2.88516 0.29302,0.0901 2.59212,0.94669 4.32773,1.42004 1.7356,0.47334 6.69928,1.931 7.26727,0.64724 0.56798,-1.28371 2.26726,-3.10414 2.71806,-3.71272 0.45081,-0.60859 4.88573,-11.90188 0.68282,-7.70912 z"
       id="path1152"
       sodipodi:nodetypes="cscssssc" /><path
       style="fill:#f97316;fill-opacity:1;stroke:none;stroke-width:5.29168;stroke-linecap:square;stroke-dasharray:none"
       d="m 284.34105,137.75057 c 1.41312,6.64104 3.33538,14.70941 11.21355,17.94478 7.60231,3.12208 6.59552,3.36527 6.59552,3.36527 0,0 -8.35115,-2.9011 -8.64998,-2.96951 -0.29881,-0.0686 -6.13326,-0.2786 -4.45795,-0.93408 3.07795,-1.20428 -6.19457,-1.76607 -6.61727,-3.07311 -0.43195,-1.33563 -1.3421,-5.9695 -1.42822,-6.72195 -0.086,-0.75248 2.0912,-13.71586 3.34435,-7.6114 z"
       id="path1153"
       sodipodi:nodetypes="cscssssc" /><path
       style="fill:url(#linearGradient1165);fill-opacity:1;stroke:none;stroke-width:5.29168;stroke-linecap:square;stroke-dasharray:none"
       d="m 192.72869,121.67576 c 38.50306,16.58882 79.7783,30.27345 122.54263,42.39809 -15.36231,-7.34992 -37.54188,-15.17622 -62.56496,-23.45669 -25.02309,-8.28048 -40.63419,-14.44232 -59.97767,-18.9414 z"
       id="path5"
       sodipodi:nodetypes="cczc" /><path
       style="opacity:0.501788;fill:#000000;fill-opacity:1;stroke:none;stroke-width:0.264583;stroke-linecap:square;stroke-dasharray:none"
       d="M 250.20624,169.4349 Z"
       id="path1159" /><text
       xml:space="preserve"
       style="font-size:9.87777px;font-family:Inter;-inkscape-font-specification:Inter;text-align:start;writing-mode:lr-tb;direction:ltr;text-anchor:start;opacity:1;fill:#f97316;fill-opacity:1;stroke:none;stroke-width:0.0529167;stroke-linecap:square;stroke-dasharray:none"
       x="244.45984"
       y="184.68031"
       id="text1166"><tspan
         sodipodi:role="line"
         id="tspan1166"
         style="stroke-width:0.0529167" /></text></g></svg>
