<?xml version="1.0" encoding="UTF-8" standalone="no"?>
<!-- Created with Inkscape (http://www.inkscape.org/) -->

<svg
   width="960.39484"
   height="366.95706"
   viewBox="0 0 254.10446 97.090725"
   version="1.1"
   id="svg1"
   inkscape:version="1.4.2 (1:1.4.2+202505120737+ebf0e940d0)"
   xml:space="preserve"
   sodipodi:docname="404_page.svg"
   xmlns:inkscape="http://www.inkscape.org/namespaces/inkscape"
   xmlns:sodipodi="http://sodipodi.sourceforge.net/DTD/sodipodi-0.dtd"
   xmlns="http://www.w3.org/2000/svg"
   xmlns:svg="http://www.w3.org/2000/svg"><sodipodi:namedview
     id="namedview1"
     pagecolor="#ffffff"
     bordercolor="#000000"
     borderopacity="0.25"
     inkscape:showpageshadow="2"
     inkscape:pageopacity="0.0"
     inkscape:pagecheckerboard="0"
     inkscape:deskcolor="#d1d1d1"
     inkscape:document-units="px"
     inkscape:zoom="1.2674155"
     inkscape:cx="384.64102"
     inkscape:cy="158.19595"
     inkscape:window-width="2560"
     inkscape:window-height="1371"
     inkscape:window-x="0"
     inkscape:window-y="32"
     inkscape:window-maximized="1"
     inkscape:current-layer="layer1"
     showguides="true"><sodipodi:guide
       position="-7.1557617e-07,98.281671"
       orientation="1,0"
       id="guide8"
       inkscape:locked="false" /></sodipodi:namedview><defs
     id="defs1"><inkscape:path-effect
       effect="envelope"
       id="path-effect8"
       is_visible="true"
       lpeversion="1"
       yy="true"
       xx="true"
       bendpath1="m 127.70123,104.88413 8.74319,1.0333"
       bendpath2="m 137.10869,106.50789 9.89016,9.83866"
       bendpath3="m 132.72011,118.41316 19.29762,3.46893"
       bendpath4="m 123.78945,110.7149 5.60934,6.66495"
       bendpath1-nodetypes="cc"
       bendpath3-nodetypes="cc"
       bendpath2-nodetypes="cc"
       bendpath4-nodetypes="cc" /><inkscape:path-effect
       effect="bspline"
       id="path-effect7"
       is_visible="true"
       lpeversion="1.3"
       weight="33.333333"
       steps="2"
       helper_size="0"
       apply_no_weight="true"
       apply_with_weight="true"
       only_selected="false"
       uniform="false" /><inkscape:path-effect
       effect="envelope"
       id="path-effect57"
       is_visible="true"
       lpeversion="1"
       yy="true"
       xx="true"
       bendpath1="m 76.582349,82.004631 12.792522,2.952287"
       bendpath2="m 92.454376,89.95983 10.840364,9.312873"
       bendpath3="M 93.574952,98.166044 114.508,108.843"
       bendpath4="m 77.025192,85.510471 7.380716,11.433067"
       bendpath3-nodetypes="cc"
       bendpath2-nodetypes="cc"
       bendpath4-nodetypes="cc"
       bendpath1-nodetypes="cc" /><inkscape:path-effect
       effect="envelope"
       id="path-effect56"
       is_visible="true"
       lpeversion="1"
       yy="true"
       xx="true"
       bendpath1="m 112.38879,86.474982 2.05454,0.50546"
       bendpath2="m 137.27921,105.33849 8.96205,8.94754"
       bendpath3="m 134.76113,111.14032 12.93304,4.50235"
       bendpath4="m 107.60912,93.360941 1.04008,1.89848"
       bendpath3-nodetypes="cc"
       bendpath2-nodetypes="cc"
       bendpath4-nodetypes="cc"
       bendpath1-nodetypes="cc" /><inkscape:path-effect
       effect="envelope"
       id="path-effect55"
       is_visible="true"
       lpeversion="1"
       yy="true"
       xx="true"
       bendpath1="m 135.56098,89.76708 3.89293,0.738072"
       bendpath2="m 140.30269,89.76708 2.95229,7.463772"
       bendpath3="m 136.7788,98.042731 5.59049,1.291625"
       bendpath4="m 134.89672,89.361141 0.66426,7.537579"
       bendpath2-nodetypes="cc"
       bendpath3-nodetypes="cc"
       bendpath4-nodetypes="cc"
       bendpath1-nodetypes="cc" /><inkscape:path-effect
       effect="envelope"
       id="path-effect54"
       is_visible="true"
       lpeversion="1"
       yy="true"
       xx="true"
       bendpath1="m 164.19636,97.657987 h 4.2456"
       bendpath2="m 168.44196,97.657987 1.77444,6.288633"
       bendpath3="m 164.19636,102.87673 6.20271,1.85273"
       bendpath4="m 164.19636,97.657987 v 5.218743"
       bendpath2-nodetypes="cc"
       bendpath3-nodetypes="cc" /><inkscape:path-effect
       effect="envelope"
       id="path-effect53"
       is_visible="true"
       lpeversion="1"
       yy="true"
       xx="true"
       bendpath1="m 186.66964,107.49534 h 4.74194"
       bendpath2="m 191.41158,107.49534 c 0.0741,2.4072 2.20014,5.37964 1.13512,7.66816"
       bendpath3="m 188.92684,115.55492 c 2.48938,0.40981 5.78741,1.13906 6.1751,1.24237"
       bendpath4="m 186.66964,107.49534 v 7.19845"
       bendpath3-nodetypes="cc"
       bendpath2-nodetypes="cc" /><inkscape:path-effect
       effect="envelope"
       id="path-effect52"
       is_visible="true"
       lpeversion="1"
       yy="true"
       xx="true"
       bendpath1="m 204.9319,117.35723 5.97741,1.5135"
       bendpath2="m 210.75274,119.13168 10.35963,9.70256"
       bendpath3="m 206.10616,123.87623 14.14508,5.42771"
       bendpath4="m 206.70634,118.66197 v 5.26645"
       bendpath3-nodetypes="cc"
       bendpath1-nodetypes="cc"
       bendpath2-nodetypes="cc" /><inkscape:path-effect
       effect="bspline"
       id="path-effect46"
       is_visible="true"
       lpeversion="1.3"
       weight="33.333333"
       steps="2"
       helper_size="0"
       apply_no_weight="true"
       apply_with_weight="true"
       only_selected="false"
       uniform="false" /><inkscape:path-effect
       effect="bspline"
       id="path-effect45"
       is_visible="true"
       lpeversion="1.3"
       weight="33.333333"
       steps="2"
       helper_size="0"
       apply_no_weight="true"
       apply_with_weight="true"
       only_selected="false"
       uniform="false" /></defs><g
     inkscape:label="Layer 1"
     inkscape:groupmode="layer"
     id="layer1"
     transform="translate(-126.94777,-94.329712)"><rect
       style="opacity:1;fill:#03071e;fill-opacity:1;stroke-width:1.09077;stroke-linejoin:round"
       id="rect3"
       width="254.10446"
       height="97.090721"
       x="126.94777"
       y="94.329712" /><path
       id="path1"
       style="fill:#e5e7eb;fill-opacity:1;stroke-width:1.14744;stroke-linejoin:round"
       d="m 254,108.72464 a 33.289047,33.289047 0 0 0 -8.61593,1.13423 33.289047,33.289047 0 0 0 -11.64926,5.74485 33.289047,33.289047 0 0 0 -6.14488,6.14488 33.289047,33.289047 0 0 0 -4.34505,7.52585 33.289047,33.289047 0 0 0 -2.24918,8.39406 33.289047,33.289047 0 0 0 -0.28484,4.34527 33.289047,33.289047 0 0 0 0.90092,7.69237 33.289047,33.289047 0 0 0 14.9457,20.66119 33.289047,33.289047 0 0 0 12.8673,4.61959 33.289047,33.289047 0 0 0 4.57522,0.316 33.289047,33.289047 0 0 0 4.34505,-0.28485 33.289047,33.289047 0 0 0 4.27087,-0.8496 33.289047,33.289047 0 0 0 8.02854,-3.32558 33.289047,33.289047 0 0 0 12.18466,-12.18466 33.289047,33.289047 0 0 0 3.32557,-8.02875 33.289047,33.289047 0 0 0 1.13423,-8.61571 33.289047,33.289047 0 0 0 -0.005,-0.60106 13.945479,68.628014 60.656635 0 1 -0.0323,0.0222 33.289047,33.289047 0 0 0 -9.53948,-22.78576 33.289047,33.289047 0 0 0 -1.64228,-1.4603 33.289047,33.289047 0 0 0 -1.64228,-1.46008 33.289047,33.289047 0 0 0 -2.3e-4,0 33.289047,33.289047 0 0 0 -3.6409,-2.46208 33.289047,33.289047 0 0 0 -8.09105,-3.38653 33.289047,33.289047 0 0 0 -2.3e-4,0 A 33.289047,33.289047 0 0 0 254,108.72464 Z" /><circle
       style="fill:#03071e;fill-opacity:1;stroke-width:0.887062;stroke-linejoin:round"
       id="circle1"
       cx="253.99994"
       cy="142.01372"
       r="25.734993" /><path
       id="path2"
       style="fill:#e5e7eb;fill-opacity:1;stroke-width:1.19285;stroke-linejoin:round"
       d="m 302.48025,114.79775 a 12.148001,59.782327 60.656635 0 0 -30.71411,8.59732 25.734994,25.734994 0 0 1 6.57562,10.26605 l -45.25865,23.34536 a 25.734994,25.734994 0 0 1 -4.30046,-9.8566 12.148001,59.782327 60.656635 0 0 -26.89482,28.02053 12.148001,59.782327 60.656635 0 0 58.06522,-18.7065 12.148001,59.782327 60.656635 0 0 46.15913,-39.88516 12.148001,59.782327 60.656635 0 0 -3.63193,-1.781 z" /><ellipse
       style="fill:#03071e;fill-opacity:1;stroke-width:1.03755;stroke-linejoin:round"
       id="ellipse3"
       cx="149.92668"
       cy="251.62939"
       rx="51.999023"
       ry="7.5154929"
       transform="rotate(-29.343365)" /><path
       style="font-weight:500;font-size:20.3036px;line-height:1;font-family:Inter;-inkscape-font-specification:'Inter Medium';letter-spacing:0px;white-space:pre;fill:#e5e7eb;fill-opacity:1;stroke-width:8.14133;stroke-linejoin:round"
       d="m 109.69201,95.426091 c -0.9857,-0.585208 -1.66598,-0.959461 -2.1104,-1.199343 12.17431,5.341014 16.06077,3.386993 5.45063,-8.001699 0.17949,0.158932 0.49677,0.45875 1.03807,0.933702 3.09007,3.016111 5.55018,5.447243 7.53956,7.426574 -0.448,-0.301849 -0.83435,-0.555843 -1.17543,-0.768964 3.58897,4.672995 2.38191,6.13094 -1.3361,5.483442 1e-5,8e-6 0.0234,0.01827 0.0234,0.01828 12.5518,5.375077 9.65997,3.721507 22.68948,10.977897 0.28824,0.30278 0.56731,0.59766 0.93437,0.96592 -12.73159,-6.71315 -6.78052,-2.74428 -33.05359,-15.835809 z m 32.19832,17.848169 c -4.2761,-3.44286 -6.93135,-5.5503 -8.98523,-7.24875 -0.42088,-0.34804 -0.81243,-0.67561 -1.18278,-0.99011 -4.68157,-3.97561 -5.61087,-5.516001 -18.36386,-18.514079 0.48489,0.442254 1.38614,1.254114 3.00011,2.546028 22.76447,20.797311 13.08054,12.888481 27.14791,24.559371 -0.62442,-0.15679 -1.07276,-0.22352 -1.61615,-0.35246 z"
       id="path32"
       inkscape:path-effect="#path-effect56"
       inkscape:original-d="m 105.26181,90.916563 v -0.84912 l 3.31061,-4.60338 h 0.6583 v 1.11149 h -0.37685 l -2.47103,3.44418 v 0.01 h 4.52227 v 0.88728 z m 3.6016,1.6553 v -1.90813 -0.39594 -4.80373 h 1.00654 v 7.1078 z"
       transform="matrix(0.73009936,0,0,0.73009936,113.01801,45.656472)" /><path
       style="font-weight:500;font-size:20.3036px;line-height:1;font-family:Inter;-inkscape-font-specification:'Inter Medium';letter-spacing:0px;white-space:pre;fill:#e5e7eb;fill-opacity:1;stroke-width:8.14133;stroke-linejoin:round"
       d="m 103.28937,103.01507 c -3.26126,-1.63085 -4.449023,-2.37058 -8.94669,-4.464653 -2.990873,-1.392518 -6.346328,-2.754893 -9.337201,-4.147411 -2.597124,-1.210957 -4.071166,-2.147901 -4.785226,-3.335901 -0.67729,-1.126824 -0.512529,-2.25819 -0.310906,-3.339641 0.1035,-0.555182 0.52528,-2.79358 0.635317,-3.221603 0.247862,-0.974198 0.646863,-1.672534 1.939557,-1.408516 1.29626,0.264747 3.122623,1.442382 5.357785,3.178793 2.109922,1.639117 4.444453,3.671916 6.007988,5.021328 1.658157,1.426204 2.661074,2.255631 3.793961,3.25014 1.15476,1.013712 2.244382,2.067153 3.816415,3.806939 1.4406,1.588237 3.09742,3.546385 3.75726,4.600905 0.68066,1.08779 0.26125,1.15452 -1.92826,0.0596 z m -4.153943,-3.150701 c 1.295763,0.532911 1.709263,0.522671 1.507163,0.0078 -0.18559,-0.491387 -0.925662,-1.396255 -1.808689,-2.3614 -0.898978,-0.980529 -1.898237,-1.967638 -3.012737,-3.040789 -1.092204,-1.051684 -2.143751,-2.04603 -3.33645,-3.107786 -1.184105,-1.054109 -2.515556,-2.184471 -3.788457,-3.121115 -1.289246,-0.951689 -2.396738,-1.609667 -3.307857,-1.848839 -0.919531,-0.241381 -1.376931,0.0021 -1.60516,0.518608 -0.210642,0.497646 -0.227829,1.268849 -0.08266,2.061307 0.147207,0.803613 0.487577,1.712275 1.314193,2.704761 0.847523,1.017587 2.017945,1.898261 3.657322,2.879524 1.555015,0.929076 3.564613,1.965062 5.434205,2.90936 1.842501,0.928434 3.820781,1.901633 5.029128,2.398594 z"
       id="path31"
       inkscape:path-effect="#path-effect57"
       inkscape:original-d="m 83.017899,91.297291 q -0.825266,0 -1.421558,-0.44842 -0.596291,-0.44841 -0.925444,-1.26891 -0.324383,-0.82049 -0.324383,-1.94629 0,-1.13057 0.324383,-1.95106 0.324382,-0.8205 0.920673,-1.26891 0.601062,-0.45318 1.426329,-0.45318 0.820497,0 1.421558,0.44841 0.601061,0.44841 0.920673,1.27368 0.324383,0.82049 0.324383,1.95106 0,1.1258 -0.324383,1.94629 -0.319612,0.8205 -0.920673,1.26891 -0.601061,0.44842 -1.421558,0.44842 z m 0,-0.9016 q 0.515196,0 0.887281,-0.33393 0.376857,-0.33392 0.57721,-0.94929 0.200354,-0.62014 0.200354,-1.4788 0,-0.86343 -0.200354,-1.48357 -0.200354,-0.62015 -0.57721,-0.95407 -0.372085,-0.33392 -0.887281,-0.33392 -0.519965,0 -0.896822,0.33392 -0.372085,0.33392 -0.57244,0.95407 -0.200353,0.62014 -0.200353,1.48357 0,0.85866 0.200353,1.4788 0.200355,0.61537 0.57244,0.94929 0.376857,0.33393 0.896822,0.33393 z"
       transform="matrix(0.67049219,0,0,0.67049219,109.62671,42.781593)" /><path
       style="font-weight:500;font-size:20.3036px;line-height:1;font-family:Inter;-inkscape-font-specification:'Inter Medium';letter-spacing:0px;white-space:pre;fill:#e5e7eb;fill-opacity:1;stroke-width:8.14133;stroke-linejoin:round"
       d="m 127.93416,115.69705 c -0.35949,-0.25529 -0.68885,-0.48418 -0.98639,-0.71137 3.02735,-2.19161 5.89661,-5.59299 5.54729,-9.81011 0.31801,0.0742 0.63007,0.16985 0.9518,0.27003 0.58173,1.04605 1.09961,1.94017 1.592,2.73957 -0.26091,-0.0199 -0.43597,-0.0346 -0.69687,-0.0544 -0.13452,2.43352 -1.41092,4.5313 -3.03962,6.18155 1e-5,1e-5 0.0116,0.0127 0.0116,0.0127 5.34276,-0.37591 9.30806,0.78439 11.88348,-1.35227 0.48644,0.49058 1.02415,1.03596 1.622,1.6482 -3.08614,2.93742 -8.79008,0.1937 -16.88531,1.07611 z m 16.27434,4.42412 c -1.70525,-1.92369 -3.11693,-3.41822 -4.26646,-4.64864 -0.24122,-0.2582 -0.47245,-0.50639 -0.69539,-0.74749 -2.76025,-2.98512 -4.05065,-4.6851 -6.33204,-9.43996 0.48301,0.13743 0.96868,0.30781 1.50686,0.44813 4.66392,6.66918 4.98426,6.13646 12.51475,14.29893 -0.79631,0.16562 -1.71355,0.17712 -2.72772,0.089 z"
       id="text7"
       inkscape:path-effect="#path-effect8"
       inkscape:original-d="m 122.82995,112.18181 v -0.84912 l 3.31061,-4.60338 h 0.65831 v 1.11149 h -0.37686 l -2.47103,3.44419 v 0.01 h 4.52227 v 0.88729 z m 3.6016,1.6553 v -1.90813 -0.39594 -4.80373 h 1.00654 v 7.1078 z"
       transform="matrix(0.61357421,0,0,0.61357421,51.441776,30.993533)" /></g></svg>
