<?xml version="1.0" encoding="UTF-8" standalone="no"?>
<!-- Created with Inkscape (http://www.inkscape.org/) -->

<svg
   width="49.37524"
   height="49.376961"
   viewBox="0 0 13.063865 13.064321"
   version="1.1"
   id="svg1"
   inkscape:version="1.4.2 (1:1.4.2+202505120737+ebf0e940d0)"
   sodipodi:docname="crescentMoon.svg"
   xml:space="preserve"
   xmlns:inkscape="http://www.inkscape.org/namespaces/inkscape"
   xmlns:sodipodi="http://sodipodi.sourceforge.net/DTD/sodipodi-0.dtd"
   xmlns="http://www.w3.org/2000/svg"
   xmlns:svg="http://www.w3.org/2000/svg"><sodipodi:namedview
     id="namedview1"
     pagecolor="#ffffff"
     bordercolor="#000000"
     borderopacity="0.25"
     inkscape:showpageshadow="2"
     inkscape:pageopacity="0.0"
     inkscape:pagecheckerboard="0"
     inkscape:deskcolor="#d1d1d1"
     inkscape:document-units="px"
     inkscape:zoom="10.139324"
     inkscape:cx="17.259533"
     inkscape:cy="29.538458"
     inkscape:window-width="2560"
     inkscape:window-height="1371"
     inkscape:window-x="0"
     inkscape:window-y="32"
     inkscape:window-maximized="1"
     inkscape:current-layer="layer1" /><defs
     id="defs1" /><g
     inkscape:label="Layer 1"
     inkscape:groupmode="layer"
     id="layer1"
     transform="translate(-52.281918,-127.76175)"><rect
       style="fill:#03071e;fill-opacity:1;stroke-width:1.08845;stroke-linejoin:round"
       id="rect1"
       width="13.063861"
       height="13.063832"
       x="52.281921"
       y="127.76199" /><circle
       style="fill:#ffffff;fill-opacity:1;stroke-width:2.64583;stroke-linejoin:round;opacity:0.05"
       id="path1"
       cx="58.81385"
       cy="134.29391"
       r="6.5319328" /><path
       id="circle3"
       style="fill:#e5e7eb;fill-opacity:1;stroke-width:2.64583;stroke-linejoin:round"
       d="m 58.813773,127.76175 a 6.5319328,6.5319328 0 0 0 -0.264583,0.006 6.5319328,6.5319328 0 0 1 6.267317,6.52673 6.5319328,6.5319328 0 0 1 -6.267317,6.52622 6.5319328,6.5319328 0 0 0 0.264583,0.006 6.5319328,6.5319328 0 0 0 6.531901,-6.5319 6.5319328,6.5319328 0 0 0 -6.531901,-6.53242 z" /><g
       id="g1"
       style="opacity:0.07"><circle
         style="opacity:1;fill:#ffffff;fill-opacity:1;stroke-width:3.4535;stroke-linejoin:round"
         id="circle4"
         cx="60.635681"
         cy="131.91083"
         r="1.6178758" /><circle
         style="opacity:1;fill:#ffffff;fill-opacity:1;stroke-width:1.55965;stroke-linejoin:round"
         id="circle5"
         cx="57.361877"
         cy="132.91119"
         r="0.73065364" /><circle
         style="opacity:1;fill:#ffffff;fill-opacity:1;stroke-width:1.55965;stroke-linejoin:round"
         id="circle6"
         cx="58.90147"
         cy="135.58591"
         r="0.73065364" /><path
         id="circle7"
         style="opacity:1;fill:#ffffff;fill-opacity:1;stroke-width:2.34914;stroke-linejoin:round"
         d="M 53.382626 135.23571 A 1.1005096 1.1005096 0 0 0 52.447799 135.75558 A 6.5319328 6.5319328 0 0 0 53.061715 137.38907 A 1.1005096 1.1005096 0 0 0 53.382626 137.43661 A 1.1005096 1.1005096 0 0 0 54.482817 136.3359 A 1.1005096 1.1005096 0 0 0 53.382626 135.23571 z " /></g></g></svg>
