<?xml version="1.0" encoding="UTF-8" standalone="no" ?>
<!-- Created with Inkscape (http://www.inkscape.org/) -->
<svg
  width="1200"
  height="675"
  viewBox="0 0 317.49999 178.59375"
  version="1.1"
  id="svg1"
  inkscape:version="1.4.2 (ebf0e940d0, 2025-05-08)"
  sodipodi:docname="fallbackCoverImage.svg"
  xml:space="preserve"
  xmlns:inkscape="http://www.inkscape.org/namespaces/inkscape"
  xmlns:sodipodi="http://sodipodi.sourceforge.net/DTD/sodipodi-0.dtd"
  xmlns="http://www.w3.org/2000/svg"
  xmlns:svg="http://www.w3.org/2000/svg"
><sodipodi:namedview
    id="namedview1"
    pagecolor="#ffffff"
    bordercolor="#000000"
    borderopacity="0.25"
    inkscape:showpageshadow="2"
    inkscape:pageopacity="0.0"
    inkscape:pagecheckerboard="0"
    inkscape:deskcolor="#d1d1d1"
    inkscape:document-units="px"
    inkscape:zoom="1.2"
    inkscape:cx="628.75"
    inkscape:cy="349.58333"
    inkscape:window-width="2560"
    inkscape:window-height="1371"
    inkscape:window-x="0"
    inkscape:window-y="0"
    inkscape:window-maximized="1"
    inkscape:current-layer="layer1"
    showguides="true"
  /><defs id="defs1" /><g inkscape:label="Layer 1" inkscape:groupmode="layer" id="layer1"><path
      id="path64"
      style="opacity:1;fill:#ffffff;fill-opacity:1;stroke:none;stroke-width:0.79375;stroke-opacity:1"
      d="M 169.5142 0 L 163.81119 10.67015 L 171.96883 18.949231 L 173.45298 25.794808 L 170.86709 26.355497 L 169.54469 20.259745 L 162.50481 13.114445 L 155.87524 25.517822 L 166.18572 42.075984 L 162.27175 48.700903 L 165.68756 51.806656 L 151.15046 77.402509 L 153.80301 83.36907 L 151.0683 85.418041 L 151.55664 89.80847 L 158.1459 96.211697 L 161.13486 95.871149 L 164.43957 92.595897 L 165.18371 93.347789 L 161.61907 96.882974 L 159.12724 97.165127 L 159.37115 97.402322 L 154.08827 114.4881 L 155.58017 118.24601 L 154.94558 120.19731 L 157.1625 121.96103 L 157.10359 125.62282 C 157.2239 125.75837 157.25641 125.79505 157.42191 125.98042 C 157.76392 126.36347 158.20458 126.84267 158.19758 126.83567 C 158.73181 127.36993 158.58731 127.50322 158.62701 127.67954 C 158.66661 127.85586 158.69089 128.01903 158.71279 128.19734 C 158.75659 128.55395 158.78859 128.95913 158.81666 129.35954 C 158.84476 129.75996 158.86796 130.15357 158.89056 130.4432 C 158.89556 130.4997 158.89854 130.5251 158.90244 130.57239 C 158.95994 130.63639 159.00809 130.69148 159.08589 130.77548 C 159.33409 131.04354 159.66657 131.39262 159.99437 131.73408 C 160.64998 132.41701 161.29299 133.07405 161.29299 133.07405 L 161.7679 133.55877 L 158.72984 151.10292 L 172.99616 158.01361 L 173.17702 158.64303 L 179.96266 151.31066 L 192.15623 151.31066 L 192.15623 153.95701 L 181.11917 153.95701 L 174.03072 161.61597 L 175.26734 165.92372 L 185.39437 171.45516 L 187.42163 178.27335 L 186.34366 178.59375 L 317.49999 178.59375 L 317.49999 0 L 169.5142 0 z M 158.2601 153.81697 L 156.57804 163.52903 L 160.87545 178.59375 L 184.75616 178.59375 L 183.1697 173.25609 L 173.02923 167.71689 L 170.77924 159.88068 L 158.2601 153.81697 z "
    /><path
      id="rect63"
      style="opacity:1;fill:#ffffff;fill-opacity:1;stroke:none;stroke-width:0.79375;stroke-opacity:1"
      d="M 0 0 L 0 178.59375 L 144.21393 178.59375 L 142.94734 178.21082 L 145.45727 169.92968 L 147.91655 168.76127 L 145.30689 166.17177 L 141.60376 165.75215 L 141.72261 164.70106 L 145.7911 165.16201 L 148.93303 168.27861 L 154.43502 165.6643 L 153.86709 163.67373 L 158.92983 134.43727 C 158.68265 134.18372 158.51362 134.012 158.08596 133.56652 C 157.7523 133.21896 157.41297 132.86438 157.14441 132.57433 C 157.01013 132.42931 156.89435 132.30091 156.79715 132.18935 C 156.74855 132.13355 156.70565 132.08263 156.6602 132.02553 C 156.6148 131.96843 156.5852 131.96693 156.46487 131.72632 C 156.19965 131.19592 156.31185 131.23563 156.29485 131.09742 C 156.27775 130.9592 156.26476 130.81394 156.25196 130.65042 C 156.22636 130.32338 156.20299 129.93012 156.17599 129.54506 C 156.14899 129.16 156.11808 128.77935 156.08608 128.51929 C 156.08008 128.47399 156.07712 128.46658 156.07212 128.42988 C 155.88093 128.22336 155.69428 128.0207 155.44736 127.74414 C 155.10035 127.35549 154.78331 126.99431 154.78331 126.99431 L 154.44328 126.60932 L 154.49599 123.2209 L 151.86153 121.1249 L 152.76948 118.33593 L 151.28534 114.59765 L 156.36513 98.169717 L 149.03121 91.045087 L 148.27363 84.208812 L 150.52931 82.517443 L 148.19147 77.257815 L 162.34203 52.339957 L 158.89831 49.208882 L 163.08978 42.113191 L 159.0368 35.604028 L 155.36674 41.243477 L 144.7338 43.989562 L 142.83521 48.614603 L 140.38833 47.608463 L 142.79025 41.759208 L 146.49958 40.801126 L 142.30811 34.624243 L 142.74374 25.860437 L 145.38596 25.991178 L 144.99528 33.872351 L 149.21983 40.098327 L 153.71051 38.938708 L 157.49271 33.124076 L 152.82013 25.619108 L 166.51386 0 L 0 0 z M 155.1714 168.24503 L 147.64835 171.81845 L 145.59628 178.59375 L 158.1242 178.59375 L 155.1714 168.24503 z "
    /><g id="g73" transform="translate(-5.046775,-4.1764865)"><path
        style="font-weight:bold;font-size:18.9007px;line-height:1.2;font-family:Inter;-inkscape-font-specification:'Inter Bold';stroke-width:0.79375"
        d="m 278.13519,100.17311 -0.0104,-9.745663 2.621,-0.0028 0.002,1.661193 0.0277,-3e-5 q 0.26669,-0.877027 0.83843,-1.302167 0.57173,-0.425139 1.54076,-0.426176 0.23995,-2.57e-4 0.43377,0.0087 0.20303,-2.18e-4 0.36916,0.0088 l 0.002,2.316443 q -0.14767,-0.009 -0.48916,-0.02717 -0.33226,-0.0181 -0.68295,-0.01773 -0.55373,5.92e-4 -0.99644,0.259474 -0.44271,0.249653 -0.69136,0.748279 -0.24865,0.498624 -0.24786,1.236933 l 0.006,5.278904 z"
        id="path31"
      /><path
        style="font-weight:bold;font-size:18.9007px;line-height:1.2;font-family:Inter;-inkscape-font-specification:'Inter Bold';stroke-width:0.79375"
        d="m 271.97055,100.4012 q -1.47661,0.002 -2.57554,-0.643259 -1.0897,-0.654082 -1.70004,-1.807038 -0.60111,-1.152964 -0.60269,-2.62958 -0.002,-1.495074 0.60628,-2.640104 0.6171,-1.154268 1.69617,-1.810672 1.07908,-0.656404 2.47264,-0.657896 1.07977,-0.0012 1.9569,0.36706 0.87714,0.358987 1.51466,1.04124 0.63751,0.673025 0.97997,1.595545 0.35167,0.92251 0.35287,2.039201 l 7.8e-4,0.729079 -8.61052,0.0092 -0.002,-1.735024 7.30001,-0.0078 -1.22698,0.416612 q -7.9e-4,-0.738308 -0.269,-1.273295 -0.26822,-0.534988 -0.76688,-0.820548 -0.48945,-0.2948 -1.17238,-0.294069 -0.67371,7.21e-4 -1.16252,0.296568 -0.48883,0.286617 -0.75588,0.822177 -0.26707,0.535561 -0.26628,1.273868 l 0.001,1.181294 q 8.1e-4,0.756765 0.26906,1.328667 0.27746,0.562665 0.79462,0.875892 0.51713,0.303999 1.24621,0.303219 0.53528,-5.73e-4 0.94119,-0.14867 0.41513,-0.157334 0.6917,-0.434496 0.28579,-0.286401 0.40536,-0.664912 l 2.48255,-0.0027 q -0.1743,0.969218 -0.81953,1.708218 -0.64523,0.738999 -1.62303,1.164573 -0.97782,0.41635 -2.15912,0.4176 z"
        id="path32"
      /><path
        id="path33"
        style="font-weight:bold;font-size:18.9007px;line-height:1.2;font-family:Inter;-inkscape-font-specification:'Inter Bold';stroke-width:0.79375"
        d="m 256.5363,90.45062 1.77711,4.782821 a 0.6809727,1.101837 19.060547 0 1 0.61939,-0.199618 0.6809727,1.101837 19.060547 0 1 0.2835,1.263704 0.6809727,1.101837 19.060547 0 1 -0.0711,0.175259 1.9717824,1.2186285 70.85393 0 1 0.79452,1.200627 1.9717824,1.2186285 70.85393 0 1 -0.0342,1.846953 l 0.2498,0.672044 3.0272,-0.003 1.8653,-5.042518 a 1.2186285,1.9717824 19.023424 0 1 -0.36099,-2.191213 1.2186285,1.9717824 19.023424 0 1 1.72234,-1.488058 l 0.38027,-1.027735 -2.82411,0.003 -1.58183,4.818972 c -0.17781,0.57238 -0.34942,1.144876 -0.51493,1.717244 -0.0541,0.194386 -0.10855,0.389021 -0.16267,0.584117 -0.0566,-0.194978 -0.11298,-0.389494 -0.1696,-0.583762 -0.16674,-0.572012 -0.34587,-1.144132 -0.53721,-1.716117 l -1.61126,-4.815555 z"
      /><path
        style="font-weight:bold;font-size:18.9007px;line-height:1.2;font-family:Inter;-inkscape-font-specification:'Inter Bold';stroke-width:0.79375"
        d="m 251.2843,100.42334 q -1.46738,0.002 -2.58476,-0.63402 -1.11738,-0.635596 -1.74616,-1.779301 -0.61955,-1.143716 -0.62118,-2.666477 -0.002,-1.531989 0.61546,-2.677028 0.62634,-1.14505 1.74234,-1.783036 1.11601,-0.647215 2.58339,-0.648786 1.48585,-0.0016 2.594,0.643245 1.11737,0.635595 1.73694,1.779312 0.62878,1.143705 0.63042,2.675694 0.002,1.522761 -0.62471,2.66781 -0.61711,1.14504 -1.73312,1.783025 -1.10678,0.637972 -2.59262,0.639562 z m -0.002,-2.20569 q 0.66448,-7.11e-4 1.16248,-0.342712 0.49798,-0.351231 0.77415,-0.997547 0.27618,-0.646316 0.27522,-1.541514 -9.8e-4,-0.913657 -0.27854,-1.55938 -0.27755,-0.645723 -0.77627,-0.986657 -0.49874,-0.350163 -1.16322,-0.349452 -0.65524,7.02e-4 -1.15322,0.351932 -0.498,0.342 -0.77418,0.988316 -0.27616,0.646316 -0.27519,1.559972 9.7e-4,0.904428 0.27852,1.550151 0.27755,0.636494 0.77629,0.986658 0.49872,0.340934 1.15396,0.340233 z"
        id="path34"
      /><path
        id="path35"
        style="font-weight:bold;font-size:18.9007px;line-height:1.2;font-family:Inter;-inkscape-font-specification:'Inter Bold';stroke-width:0.79375"
        d="m 240.72484,90.24617 c -0.97211,10e-4 -1.82686,0.217069 -2.5647,0.648539 -0.7317,0.431463 -1.30375,1.031928 -1.71514,1.80144 -0.24341,0.458206 -0.41323,0.96068 -0.51005,1.507402 l 2.68252,0.498161 c 0.0404,-0.328608 0.11321,-0.62585 0.21911,-0.891419 0.17795,-0.437023 0.43019,-0.772511 0.75603,-1.006657 0.32583,-0.240299 0.71621,-0.360731 1.1715,-0.361218 0.27687,-2.97e-4 0.52303,0.03962 0.73846,0.119373 0.22156,0.07975 0.41245,0.193057 0.57257,0.340547 0.16013,0.147491 0.28943,0.32262 0.38809,0.52555 0.1048,0.202922 0.17571,0.43043 0.21291,0.682645 l 2.63033,-0.0026 c -0.0437,-0.572142 -0.18588,-1.091738 -0.42633,-1.559078 -0.24046,-0.47349 -0.56353,-0.882172 -0.96997,-1.226281 -0.40028,-0.344116 -0.87172,-0.608203 -1.41335,-0.7922 -0.54162,-0.190133 -1.13212,-0.284887 -1.77198,-0.28422 z m -4.87981,5.39812 c 0.0366,0.884764 0.23885,1.673935 0.60617,2.367814 0.41303,0.762477 0.98562,1.358625 1.71824,1.788521 0.73876,0.424025 1.59414,0.635405 2.56625,0.634065 0.64602,-6.8e-4 1.23955,-0.0965 1.78077,-0.28783 0.54738,-0.191316 1.0242,-0.462776 1.42989,-0.813907 0.4057,-0.35113 0.72478,-0.760502 0.95808,-1.228348 0.23946,-0.474005 0.37449,-0.994044 0.40462,-1.560112 l -2.64841,0.0026 c -0.0428,0.258454 -0.11366,0.492473 -0.21188,0.701766 -0.0982,0.20314 -0.22725,0.378749 -0.38705,0.526583 -0.15366,0.147826 -0.3382,0.261884 -0.55346,0.342098 -0.21525,0.08021 -0.46107,0.12011 -0.73794,0.120406 -0.45529,4.87e-4 -0.8462,-0.115885 -1.17254,-0.349333 -0.32634,-0.239601 -0.57869,-0.574618 -0.75757,-1.005107 -0.0879,-0.219092 -0.15356,-0.458763 -0.19689,-0.719335 z"
      /><path
        id="path36"
        style="font-weight:bold;font-size:18.9007px;line-height:1.2;font-family:Inter;-inkscape-font-specification:'Inter Bold';stroke-width:0.79375"
        d="m 230.27328,86.473273 -2.71353,0.0031 0.006,5.352645 h -0.009 c -0.20956,-0.350473 -0.45624,-0.639271 -0.73949,-0.866614 -0.28327,-0.227341 -0.60318,-0.396581 -0.96015,-0.506946 -0.16452,-0.0537 -0.33634,-0.09465 -0.51522,-0.123506 0.20157,0.533528 0.44409,1.299074 0.59635,2.203999 0.24454,0.0576 0.4675,0.157898 0.66869,0.30024 0.3448,0.233429 0.6129,0.565329 0.80409,0.995805 0.19119,0.424323 0.28721,0.928592 0.28784,1.513086 6.2e-4,0.578341 -0.0945,1.082719 -0.28474,1.513603 -0.19027,0.430884 -0.45721,0.766855 -0.8015,1.007173 -0.33814,0.23416 -0.73797,0.351423 -1.19941,0.351917 -0.0535,5.7e-5 -0.10631,-0.0019 -0.15813,-0.0052 -0.36407,0.904964 -0.78027,1.642598 -1.13275,2.184885 0.19109,0.0242 0.38827,0.0358 0.5917,0.0356 l -5.2e-4,5.2e-4 c 0.42453,-4.5e-4 0.82109,-0.0626 1.19011,-0.18603 0.36902,-0.12345 0.69496,-0.311241 0.97772,-0.563797 0.28888,-0.258717 0.52848,-0.575852 0.71881,-0.951363 h 0.009 l 0.002,1.495 2.67632,-0.003 z m -5.58829,3.808553 c -0.0282,3.1e-5 -0.0562,-10e-6 -0.0842,5.17e-4 -1.7879,2.143548 -2.20934,4.710865 -2.09858,6.838859 0.0593,1.138608 0.25877,2.142612 0.45268,2.867009 0.008,0.02907 0.0156,0.05747 0.0233,0.08527 0.18426,0.0855 0.37648,0.15581 0.57619,0.21084 0.32845,-0.453092 0.78094,-1.172308 1.18442,-2.167829 -0.16774,-0.05456 -0.32454,-0.131214 -0.47025,-0.22996 -0.32633,-0.227297 -0.58185,-0.552872 -0.76688,-0.977201 -0.17889,-0.430489 -0.26858,-0.95049 -0.26923,-1.559595 -6.6e-4,-0.609103 0.0882,-1.126091 0.26613,-1.55081 0.18412,-0.424724 0.43897,-0.750757 0.76481,-0.978751 0.32565,-0.227858 0.70658,-0.342012 1.14308,-0.342615 -0.19671,-1.05015 -0.52249,-1.83411 -0.68678,-2.195732 -0.0114,-7.2e-5 -0.0232,-1.2e-5 -0.0346,0 z m -0.8847,0.08992 c -0.47595,0.101069 -0.91304,0.287 -1.31103,0.558106 -0.62711,0.425198 -1.11881,1.019537 -1.47485,1.782837 -0.35014,0.757142 -0.5243,1.637281 -0.52296,2.640149 0.001,1.015174 0.1745,1.903954 0.51986,2.666503 0.32234,0.699268 0.7634,1.256248 1.32344,1.670699 -0.16262,-0.698762 -0.3097,-1.571047 -0.36019,-2.541446 -0.10779,-2.070961 0.22928,-4.598017 1.82573,-6.776848 z"
      /><path
        id="path37"
        style="font-weight:bold;font-size:18.9007px;line-height:1.2;font-family:Inter;-inkscape-font-specification:'Inter Bold';stroke-width:0.79375"
        d="m 215.99398,90.387558 a 1.8741319,1.4148718 89.938677 0 1 0.0393,0.436107 1.8741319,1.4148718 89.938677 0 1 -0.65098,1.579412 c 0.0621,0.01908 0.12141,0.0413 0.17783,0.06647 0.24006,0.104337 0.42504,0.248533 0.55445,0.432972 0.12939,0.178287 0.19419,0.387193 0.19445,0.627144 l 7e-5,0.06459 c 2.2e-4,0.209188 -0.0768,0.366262 -0.23049,0.47102 -0.1537,0.104759 -0.40565,0.185356 -0.75628,0.241105 -0.35064,0.05575 -0.8247,0.114539 -1.42143,0.176704 -0.50447,0.04361 -0.98692,0.123936 -1.44824,0.241329 -0.45516,0.117387 -0.86137,0.290042 -1.21797,0.518068 -0.35047,0.221868 -0.62686,0.517767 -0.82949,0.887139 -0.20265,0.363219 -0.30351,0.818555 -0.30292,1.366133 6.9e-4,0.64602 0.14566,1.187203 0.43531,1.623725 0.28963,0.430371 0.68692,0.752859 1.19165,0.967654 0.50475,0.2148 1.07981,0.32183 1.72583,0.32114 0.49836,-5.4e-4 0.92936,-0.0624 1.29223,-0.18587 0.36286,-0.12959 0.67035,-0.308442 0.92237,-0.536358 0.252,-0.227914 0.46384,-0.501701 0.63577,-0.821819 l 0.0367,-3.9e-5 0.001,1.375106 2.65824,-0.003 -0.007,-6.607863 c -5.6e-4,-0.522969 -0.0935,-0.990695 -0.27849,-1.402719 -0.18502,-0.412024 -0.45946,-0.76247 -0.82277,-1.051252 -0.35716,-0.288788 -0.79688,-0.506742 -1.32,-0.653845 -0.18433,-0.054 -0.37757,-0.09834 -0.57945,-0.133221 z m -2.76409,0.07376 c -0.2615,0.06252 -0.50652,0.142317 -0.73561,0.239532 -0.63959,0.265245 -1.13746,0.643826 -1.49379,1.136414 -0.35016,0.492581 -0.54644,1.074552 -0.58879,1.745228 l 2.55643,-0.0027 c 0.0243,-0.252282 0.11021,-0.473947 0.25767,-0.664835 0.14745,-0.190888 0.34735,-0.338645 0.59949,-0.443509 0.0257,-0.01043 0.0516,-0.02067 0.078,-0.03005 a 1.8741319,1.4148718 89.938677 0 1 -0.69988,-1.614656 1.8741319,1.4148718 89.938677 0 1 0.0265,-0.365381 z m 3.09948,5.237193 10e-4,0.978234 c 3.7e-4,0.350696 -0.0854,0.664771 -0.25738,0.94182 -0.17198,0.27705 -0.41748,0.495738 -0.73724,0.656047 -0.3136,0.160303 -0.68894,0.240516 -1.12577,0.240984 -0.30148,3.22e-4 -0.56614,-0.04245 -0.79389,-0.128342 -0.22773,-0.0859 -0.40323,-0.21172 -0.52647,-0.377709 -0.12323,-0.165987 -0.18487,-0.362819 -0.18511,-0.590463 -2.8e-4,-0.258408 0.073,-0.470612 0.22049,-0.63689 0.14747,-0.17243 0.34738,-0.308108 0.59953,-0.406819 0.25214,-0.104864 0.53506,-0.181829 0.84879,-0.231385 0.21531,-0.031 0.42477,-0.06534 0.62776,-0.102475 0.203,-0.03714 0.39041,-0.07095 0.56265,-0.101888 0.17224,-0.0371 0.32289,-0.07453 0.45205,-0.111588 0.12916,-0.04321 0.2336,-0.08637 0.31354,-0.129526 z"
      /><path
        id="path38"
        style="font-weight:bold;font-size:18.9007px;line-height:1.2;font-family:Inter;-inkscape-font-specification:'Inter Bold';stroke-width:0.79375"
        d="m 203.87024,90.285444 c -0.0939,1e-4 -0.18678,0.0021 -0.27854,0.0062 l 0.43099,2.204 c 0.38119,0.02325 0.71887,0.137908 1.01337,0.344682 0.33248,0.227289 0.59166,0.556537 0.7767,0.987019 0.18504,0.430482 0.27788,0.949974 0.27853,1.559078 6.4e-4,0.596799 -0.0913,1.110631 -0.27543,1.541508 -0.17684,0.413836 -0.42212,0.737085 -0.73536,0.96945 l 0.45837,2.342489 c 0.33137,-0.10185 0.64299,-0.23692 0.93483,-0.405139 0.74401,-0.425324 1.32183,-1.019995 1.73323,-1.783354 0.41781,-0.763366 0.6261,-1.652364 0.62476,-2.667538 -0.001,-1.021326 -0.21125,-1.913334 -0.63045,-2.675805 -0.41303,-0.762477 -0.99193,-1.355489 -1.73684,-1.77922 -0.73877,-0.429896 -1.60359,-0.644438 -2.59416,-0.64337 z m -2.01486,0.370003 c -0.19655,0.07993 -0.38599,0.17272 -0.56844,0.278536 -0.74401,0.425323 -1.32498,1.019987 -1.74253,1.783354 -0.41166,0.76336 -0.6168,1.655513 -0.61547,2.676839 10e-4,1.015174 0.2081,1.904027 0.62115,2.666504 0.41919,0.76247 1.00123,1.355489 1.74615,1.779219 0.7184,0.408921 1.54555,0.620241 2.48098,0.633551 l -0.44441,-2.27066 c -0.21886,-0.05586 -0.42157,-0.147149 -0.60772,-0.274402 -0.33249,-0.233443 -0.59115,-0.562691 -0.77618,-0.98702 -0.18504,-0.430482 -0.27789,-0.946824 -0.27854,-1.549776 -6.5e-4,-0.609104 0.0913,-1.129234 0.27544,-1.560112 0.10859,-0.254127 0.24253,-0.473251 0.40256,-0.656807 z"
      /><path
        id="path39"
        style="font-weight:bold;font-size:18.9007px;line-height:1.2;font-family:Inter;-inkscape-font-specification:'Inter Bold';stroke-width:0.79375"
        d="m 194.70223,86.511357 0.006,5.742798 c 0.0201,-0.0057 0.0466,-0.0109 0.0667,-0.01661 0.99188,-0.282693 1.87804,-0.578184 2.65471,-0.879791 l -0.005,-4.849314 z m 2.72968,6.870048 c -0.0359,0.01965 -0.0866,0.03737 -0.12293,0.05697 -0.70046,0.377683 -1.4931,0.742573 -2.36768,1.092907 -0.085,0.03404 -0.14366,0.07249 -0.23037,0.106183 l 0.006,5.624975 2.72232,-0.003 z"
      /></g><g id="g74" transform="translate(-4.439444,-4.0162685)"><path
        style="font-weight:bold;font-size:18.9007px;line-height:1.2;font-family:Inter;-inkscape-font-specification:'Inter Bold';stroke-width:0.79375"
        d="m 129.58155,90.434271 -4e-5,2.131866 -6.3956,-1.24e-4 4e-5,-2.131866 z m -4.7159,-2.658002 2.72251,5.2e-5 -1.8e-4,9.394976 q -1e-5,0.48913 0.1938,0.68294 0.20303,0.19381 0.75677,0.19382 0.23072,5e-6 0.5445,1.1e-5 0.32301,6e-6 0.49836,1e-5 l -4e-5,2.131862 q -0.24918,0 -0.69217,-1e-5 -0.44298,-1e-5 -0.8952,-2e-5 -1.60582,-3e-5 -2.3718,-0.627605 -0.75676,-0.627577 -0.75673,-1.956532 z"
        id="path40"
      /><path
        id="path41"
        style="font-weight:bold;font-size:18.9007px;line-height:1.2;font-family:Inter;-inkscape-font-specification:'Inter Bold';stroke-width:0.79375"
        d="m 117.47241,90.21258 c -0.95502,0.0081 -1.79786,0.223576 -2.52801,0.645955 -0.74447,0.424514 -1.32568,1.018376 -1.74408,1.781287 -0.41223,0.762911 -0.61854,1.654996 -0.61856,2.676322 -2e-5,1.015175 0.20636,1.904095 0.61856,2.667021 0.41837,0.762927 0.99964,1.356745 1.74408,1.781287 0.69472,0.396168 1.49534,0.599308 2.39366,0.625798 l 0.24339,-2.198312 c -0.018,3.82e-4 -0.0345,0.0036 -0.0527,0.0036 -0.43683,-9e-6 -0.8217,-0.11393 -1.15393,-0.341581 -0.33224,-0.233805 -0.59058,-0.563006 -0.77515,-0.987537 -0.18457,-0.430684 -0.277,-0.947341 -0.27699,-1.550293 2e-5,-0.609104 0.0924,-1.128918 0.27699,-1.559594 0.18458,-0.430677 0.4429,-0.759899 0.77515,-0.987537 0.32324,-0.227455 0.69604,-0.344209 1.11827,-0.350366 -0.33878,-0.921397 -0.26006,-1.598766 -0.0207,-2.206067 z m 0.98289,0.07803 -0.24701,2.235006 c 0.172,0.05787 0.33361,0.138146 0.48317,0.243396 0.33223,0.227651 0.59057,0.556853 0.77515,0.987537 0.18456,0.430684 0.277,0.95049 0.27698,1.559594 -1e-5,0.5968 -0.0924,1.110316 -0.27698,1.540992 -0.15829,0.369324 -0.37081,0.666363 -0.63769,0.890901 -0.0714,1.005045 -0.21871,1.82918 -0.44235,2.595704 0.64013,-0.0892 1.21867,-0.28224 1.73529,-0.579289 0.74448,-0.424513 1.32255,-1.018376 1.73478,-1.781287 0.41839,-0.76291 0.62785,-1.651846 0.62787,-2.667021 2e-5,-1.021326 -0.20899,-1.913395 -0.62735,-2.676322 -0.41221,-0.762927 -0.99085,-1.356745 -1.7353,-1.781287 -0.49678,-0.2898 -1.05557,-0.473112 -1.66656,-0.567924 z"
      /><path
        id="path42"
        style="font-weight:bold;font-size:18.9007px;line-height:1.2;font-family:Inter;-inkscape-font-specification:'Inter Bold';stroke-width:0.79375"
        d="m 107.66319,90.230667 c -0.88597,-1.8e-5 -1.61526,0.243112 -2.18746,0.729154 -0.33013,0.276875 -0.61627,0.617271 -0.85834,1.021126 v -1.547192 h -2.67633 V 93.0522 a 0.92328554,0.92328554 0 0 1 0.46096,0.798917 0.92328554,0.92328554 0 0 1 -0.46096,0.799435 v 5.528858 h 2.72232 v -5.417237 c 0,-0.504511 0.0803,-0.916686 0.24029,-1.236617 0.13796,-0.281187 0.32365,-0.498551 0.55759,-0.65164 a 0.92328554,0.92328554 0 0 1 0.92346,-0.917256 0.92328554,0.92328554 0 0 1 0.90279,0.730187 c 0.2398,0.08586 0.44186,0.221116 0.60616,0.405144 0.31377,0.338397 0.47079,0.833524 0.47077,1.485697 v 5.601722 h 2.71302 v -6.099883 c 2e-5,-0.824444 -0.14125,-1.522768 -0.42427,-2.094962 -0.27685,-0.572195 -0.67067,-1.006397 -1.18132,-1.30173 -0.51066,-0.301486 -1.11344,-0.452155 -1.80868,-0.452168 z m 1.92547,7.396447 a 0.55810547,0.55810547 0 0 1 0.5581,0.558106 0.55810547,0.55810547 0 0 1 -0.5581,0.558105 0.55810547,0.55810547 0 0 1 -0.55811,-0.558105 0.55810547,0.55810547 0 0 1 0.55811,-0.558106 z"
      /><path
        id="path43"
        style="font-weight:bold;font-size:18.9007px;line-height:1.2;font-family:Inter;-inkscape-font-specification:'Inter Bold';stroke-width:0.79375"
        d="m 93.247191,86.428195 -1.03e-4,5.352645 h -0.009 c -0.209184,-0.350701 -0.455428,-0.639493 -0.738444,-0.867144 -0.283015,-0.22765 -0.602772,-0.397245 -0.95962,-0.507998 -0.356847,-0.116905 -0.747496,-0.175198 -1.172016,-0.175206 -0.8306,-1.6e-5 -1.563055,0.215246 -2.196783,0.645914 -0.627568,0.424514 -1.119569,1.018346 -1.476424,1.781257 -0.350715,0.75676 -0.526102,1.636754 -0.526121,2.639622 -2e-5,1.015175 0.172183,1.904105 0.516718,2.667031 0.25824,0.561825 0.593341,1.031949 1.005073,1.410269 a 1.8741319,3.0324092 25.997715 0 1 0.0155,-0.03256 1.8741319,3.0324092 25.997715 0 1 1.826796,-1.890289 c -0.138576,-0.17034 -0.257153,-0.368537 -0.355528,-0.594803 -0.178412,-0.430683 -0.267662,-0.950495 -0.26765,-1.5596 1.2e-5,-0.609104 0.08932,-1.126279 0.26771,-1.550804 0.184588,-0.424524 0.439774,-0.750583 0.765869,-0.97822 0.326084,-0.22764 0.707806,-0.341568 1.144636,-0.341559 0.46145,9e-6 0.861018,0.12025 1.199403,0.360207 0.344546,0.233805 0.612309,0.566171 0.803031,0.996854 0.190722,0.424531 0.286272,0.929114 0.286261,1.513608 -1.1e-5,0.578342 -0.09562,1.082404 -0.286319,1.51308 -0.190739,0.430677 -0.458515,0.766182 -0.80307,1.006125 -0.270103,0.186616 -0.579085,0.298745 -0.927596,0.336396 a 1.8741319,3.0324092 25.997715 0 1 -0.001,2.10943 c 0.0738,-0.0193 0.146361,-0.0407 0.218071,-0.0646 0.369153,-0.12305 0.695216,-0.311007 0.978241,-0.563258 0.289185,-0.258402 0.529141,-0.575013 0.719879,-0.950315 h 0.009 l -2.9e-5,1.495003 2.67632,5e-5 2.65e-4,-13.751093 z"
      /><path
        id="path44"
        style="font-weight:bold;font-size:18.9007px;line-height:1.2;font-family:Inter;-inkscape-font-specification:'Inter Bold';stroke-width:0.79375"
        d="m 84.186761,86.428021 a 1.8741319,3.0324092 53.361289 0 1 -0.332795,0.270778 1.8741319,3.0324092 53.361289 0 1 -1.902746,0.823169 l -2.44e-4,12.657112 2.72283,5e-5 2.65e-4,-13.7511 z"
      /><path
        id="path45"
        style="font-weight:bold;font-size:18.9007px;line-height:1.2;font-family:Inter;-inkscape-font-specification:'Inter Bold';stroke-width:0.79375"
        d="m 70.886111,90.433238 v 1.261939 c 0.905227,0.322828 1.818211,0.709342 2.722315,1.1467 v -2.408639 z m 6.423381,0 -5.17e-4,4.511353 c 0.955704,0.627238 1.86888,1.296802 2.713529,1.991609 v -6.502962 z m -6.423381,1.827796 v 4.272607 c -1.6e-5,0.818292 0.141255,1.516615 0.424264,2.094963 0.283002,0.572194 0.679964,1.009028 1.190625,1.310514 0.516808,0.295332 1.119588,0.442852 1.808675,0.442862 0.892127,2e-5 1.621421,-0.23996 2.187463,-0.719848 0.330131,-0.280423 0.616276,-0.623522 0.858346,-1.028878 v 1.545646 h 2.66702 V 97.630215 C 79.185795,96.918938 78.27142,96.228687 77.308975,95.581244 v 0.269235 c -9e-6,0.498358 -0.08295,0.910533 -0.24908,1.236617 -0.159973,0.326083 -0.384684,0.566044 -0.673861,0.719852 -0.283016,0.153809 -0.611713,0.231001 -0.98702,0.230994 -0.56604,-1.1e-5 -1.006043,-0.169582 -1.319816,-0.507979 -0.313773,-0.34455 -0.470785,-0.842827 -0.470772,-1.495 v -2.602425 c -0.904486,-0.446326 -1.8184,-0.840996 -2.722315,-1.171504 z"
      /><path
        id="path46"
        style="font-weight:bold;font-size:18.9007px;line-height:1.2;font-family:Inter;-inkscape-font-specification:'Inter Bold';stroke-width:0.79375"
        d="m 63.349206,90.309036 c -0.543132,0.102261 -1.042535,0.284711 -1.49811,0.548258 -0.744469,0.424512 -1.32624,1.018341 -1.744635,1.781253 -0.412235,0.76291 -0.618082,1.654983 -0.618101,2.67631 -2e-5,1.015175 0.205793,1.904106 0.617998,2.667033 0.418365,0.762926 1.000114,1.356778 1.744566,1.78132 0.744452,0.42454 1.605547,0.6372 2.583807,0.63722 0.99057,2e-5 1.855335,-0.21261 2.593653,-0.63712 0.744468,-0.424513 1.322579,-1.018343 1.734814,-1.781253 0.418385,-0.762911 0.627382,-1.651834 0.627402,-2.667009 1.9e-5,-1.021327 -0.208944,-1.913408 -0.627299,-2.676334 -0.325548,-0.602529 -0.754459,-1.099418 -1.287231,-1.49089 a 3.0324092,1.8741319 0.00110545 0 1 -1.402504,0.212363 3.0324092,1.8741319 0.00110545 0 1 -2.72436,-1.051151 z m 1.085679,2.10842 c 0.44299,8e-6 0.830478,0.116584 1.162714,0.350388 0.332235,0.22765 0.591079,0.556867 0.775641,0.987551 0.184571,0.430684 0.276451,0.950495 0.27644,1.5596 -1.2e-5,0.596799 -0.09192,1.110827 -0.2765,1.541503 -0.184579,0.430676 -0.443435,0.762515 -0.775679,0.996307 -0.332245,0.227639 -0.719737,0.341567 -1.162727,0.341559 -0.43683,-9e-6 -0.821178,-0.113952 -1.153413,-0.341604 -0.332236,-0.233804 -0.59056,-0.562504 -0.775121,-0.987035 -0.184572,-0.430683 -0.276972,-0.947863 -0.27696,-1.550815 1.1e-5,-0.609105 0.09242,-1.128913 0.27702,-1.55959 0.184578,-0.430676 0.442914,-0.759883 0.775159,-0.987521 0.332244,-0.233791 0.716596,-0.350352 1.153426,-0.350343 z"
      /><path
        id="path47"
        style="font-weight:bold;font-size:18.9007px;line-height:1.2;font-family:Inter;-inkscape-font-specification:'Inter Bold';stroke-width:0.79375"
        d="m 51.778415,86.225857 c -1.028772,0.07414 -1.962407,0.353524 -2.801396,0.838138 -0.984421,0.57217 -1.759947,1.390719 -2.326008,2.455102 -0.5599,1.064385 -0.839785,2.328722 -0.839813,3.793034 -2.8e-5,1.452007 0.279808,2.710058 0.839667,3.774463 0.55979,1.046597 1.324354,1.858337 2.293353,2.435555 0.08942,-1.066309 0.235002,-2.17175 0.418134,-3.280929 -0.0943,-0.156827 -0.179494,-0.324142 -0.256311,-0.501783 -0.289156,-0.682942 -0.434051,-1.49206 -0.434033,-2.427251 1.8e-5,-0.941343 0.147574,-1.753605 0.442917,-2.436534 0.295333,-0.689082 0.716964,-1.220965 1.264551,-1.596261 0.190352,-0.129015 0.394075,-0.236237 0.611336,-0.320899 0.27909,-1.024384 0.550178,-1.951422 0.787603,-2.732635 z m 2.596215,0.270318 c -0.442933,0.68265 -0.831909,1.461596 -1.174135,2.306297 0.1087,0.02446 0.214099,0.05405 0.316778,0.08889 0.350698,0.110753 0.661525,0.277198 0.932231,0.498695 0.270716,0.215345 0.498061,0.483129 0.682634,0.803065 0.184574,0.313785 0.316877,0.673457 0.39685,1.079529 l 2.87063,5.5e-5 C 58.288882,90.503632 58.064176,89.808449 57.725798,89.187032 57.38742,88.565616 56.95058,88.0332 56.415319,87.590205 55.886197,87.14721 55.277144,86.805907 54.588058,86.565943 c -0.0704,-0.02453 -0.141769,-0.04774 -0.213428,-0.06976 z m 1.163589,8.855813 c -0.09231,0.399915 -0.230405,0.756434 -0.414981,1.070211 -0.184586,0.313777 -0.412461,0.581551 -0.683185,0.803039 -0.270715,0.221487 -0.578398,0.387403 -0.92295,0.498143 -0.344542,0.110739 -0.723113,0.166384 -1.135333,0.166376 -0.4388,-8e-6 -0.841699,-0.05943 -1.208707,-0.17779 -0.103157,0.887818 -0.182413,1.748355 -0.243959,2.555913 0.451688,0.0881 0.923507,0.13231 1.415927,0.13232 0.80599,1e-5 1.550523,-0.11706 2.233467,-0.35084 0.689085,-0.23994 1.301311,-0.581219 1.8366,-1.024194 0.535278,-0.442975 0.972139,-0.975373 1.310541,-1.596777 0.338402,-0.621402 0.563135,-1.313429 0.6739,-2.076346 z"
      /></g></g></svg>
