<?xml version="1.0" encoding="UTF-8" standalone="no"?>
<!-- Created with Inkscape (http://www.inkscape.org/) -->

<svg
   width="128"
   height="100.34725"
   viewBox="0 0 33.866666 26.55021"
   version="1.1"
   id="svg1"
   inkscape:version="1.4.2 (1:1.4.2+202505120737+ebf0e940d0)"
   sodipodi:docname="galaxy_bullet_point.svg"
   xmlns:inkscape="http://www.inkscape.org/namespaces/inkscape"
   xmlns:sodipodi="http://sodipodi.sourceforge.net/DTD/sodipodi-0.dtd"
   xmlns="http://www.w3.org/2000/svg"
   xmlns:svg="http://www.w3.org/2000/svg">
  <sodipodi:namedview
     id="namedview1"
     pagecolor="#ffffff"
     bordercolor="#000000"
     borderopacity="0.25"
     inkscape:showpageshadow="2"
     inkscape:pageopacity="0.0"
     inkscape:pagecheckerboard="0"
     inkscape:deskcolor="#d1d1d1"
     inkscape:document-units="px"
     inkscape:zoom="5.0696621"
     inkscape:cx="64.008211"
     inkscape:cy="67.755995"
     inkscape:window-width="1280"
     inkscape:window-height="1371"
     inkscape:window-x="1280"
     inkscape:window-y="32"
     inkscape:window-maximized="0"
     inkscape:current-layer="layer1" />
  <defs
     id="defs1" />
  <g
     inkscape:label="Layer 1"
     inkscape:groupmode="layer"
     id="layer1"
     transform="translate(-82.368782,-57.980324)">
    <path
       id="path91"
       style="color:#000000;font-style:normal;font-variant:normal;font-weight:normal;font-stretch:normal;font-size:medium;line-height:normal;font-family:sans-serif;font-variant-ligatures:normal;font-variant-position:normal;font-variant-caps:normal;font-variant-numeric:normal;font-variant-alternates:normal;font-variant-east-asian:normal;font-feature-settings:normal;font-variation-settings:normal;text-indent:0;text-align:start;text-decoration-line:none;text-decoration-style:solid;text-decoration-color:#000000;letter-spacing:normal;word-spacing:normal;text-transform:none;writing-mode:lr-tb;direction:ltr;text-orientation:mixed;dominant-baseline:auto;baseline-shift:baseline;text-anchor:start;white-space:normal;shape-padding:0;shape-margin:0;inline-size:0;clip-rule:nonzero;display:inline;overflow:visible;visibility:visible;isolation:auto;mix-blend-mode:normal;color-interpolation:sRGB;color-interpolation-filters:linearRGB;solid-color:#000000;solid-opacity:1;fill:#22d3ee;fill-opacity:1;fill-rule:evenodd;stroke:none;stroke-width:0.0755236;stroke-linecap:butt;stroke-linejoin:miter;stroke-miterlimit:4;stroke-dasharray:none;stroke-dashoffset:0;stroke-opacity:0.575207;color-rendering:auto;image-rendering:auto;shape-rendering:auto;text-rendering:auto;enable-background:accumulate;stop-color:#000000"
       d="m 92.763757,57.981444 c -0.299907,-0.0059 -0.728284,0.01064 -1.274362,0.06241 -1.053051,0.100714 -2.689393,0.368208 -4.319362,1.051585 -0.121117,0.05059 -0.242293,0.103906 -0.363528,0.159618 -1.462586,0.671095 -2.629366,1.554198 -3.404308,2.62621 -0.826906,1.142382 -1.192774,2.507517 -0.96865,4.028734 0.236252,1.573301 1.124993,3.292459 2.591858,4.991096 2.005118,2.317579 5.186176,4.549184 8.913064,6.200987 1.833502,0.813561 3.809079,1.475554 5.800188,1.903789 2.062673,0.439276 4.074313,0.599129 5.852133,0.459844 2.42851,-0.193969 4.28964,-1.002056 5.18332,-2.297471 0.44342,-0.638588 0.6228,-1.409002 0.47741,-2.279882 -0.16142,-0.907619 -0.69121,-1.883835 -1.55242,-2.851091 -1.18897,-1.328762 -2.99847,-2.57064 -5.14564,-3.505672 -2.23662,-0.976062 -4.73351,-1.488533 -6.900361,-1.32336 -1.454571,0.140102 -2.527778,0.636212 -3.046253,1.432242 -0.437728,0.664878 -0.369663,1.524776 0.219868,2.479643 -0.590169,-0.300416 -1.153009,-0.680067 -1.583856,-1.106009 -0.449608,-0.444701 -0.795108,-0.946853 -0.936403,-1.425988 -0.139558,-0.445246 -0.102133,-0.897536 0.09764,-1.314565 0.390136,-0.800215 1.444855,-1.439169 2.983875,-1.647075 1.129154,-0.152938 2.498769,-0.114426 3.952501,0.140279 1.380439,0.238072 2.866009,0.678152 4.320629,1.260141 2.94199,1.179582 5.69673,2.931059 7.51722,4.813948 1.38545,1.432219 2.30023,2.919144 2.65971,4.293818 0.3679,1.391578 0.1777,2.665172 -0.39994,3.742291 -0.58582,1.090062 -1.56463,1.975399 -2.75729,2.656365 -0.10213,0.05816 -0.20405,0.114308 -0.30614,0.168305 -1.38613,0.733971 -2.81658,1.127051 -3.69411,1.348917 -0.91981,0.232552 -1.40887,0.336765 -1.34389,0.408719 0.065,0.07211 0.68603,0.112416 1.77817,0.0071 1.05304,-0.100714 2.68937,-0.36822 4.31937,-1.051574 0.12113,-0.05059 0.24228,-0.103905 0.36352,-0.159629 1.46259,-0.671107 2.62937,-1.553749 3.40431,-2.625784 0.8269,-1.142382 1.19277,-2.507931 0.96865,-4.029148 -0.23625,-1.573301 -1.125,-3.292045 -2.59186,-4.990683 -2.00514,-2.317602 -5.18618,-4.54916 -8.91306,-6.200987 -1.83348,-0.813572 -3.80865,-1.47553 -5.799779,-1.903788 -2.062673,-0.439276 -4.07473,-0.599118 -5.852543,-0.459833 -2.428518,0.193981 -4.289231,1.002045 -5.182902,2.29746 -0.443401,0.638588 -0.622807,1.408612 -0.477421,2.279456 0.161425,0.907631 0.6908,1.883835 1.552011,2.851103 1.188991,1.328761 2.998473,2.57064 5.145642,3.505672 2.236617,0.976062 4.733507,1.488544 6.900342,1.323347 1.45459,-0.140101 2.52779,-0.636199 3.04627,-1.43223 0.43776,-0.664948 0.36985,-1.525071 -0.21987,-2.480056 0.59035,0.300451 1.15332,0.680374 1.58427,1.106423 0.44962,0.444689 0.79469,0.946852 0.93599,1.425988 0.13956,0.445246 0.10213,0.897548 -0.0976,1.314565 -0.39014,0.800203 -1.44483,1.439157 -2.98386,1.647086 -1.12915,0.152939 -2.4988,0.115018 -3.952517,-0.139912 -1.380454,-0.238048 -2.866008,-0.678128 -4.320627,-1.260129 -2.941993,-1.179583 -5.696732,-2.931485 -7.517218,-4.814374 -1.385455,-1.432218 -2.300238,-2.919132 -2.659735,-4.293818 -0.367877,-1.391566 -0.177337,-2.66516 0.400374,-3.742278 0.585819,-1.090075 1.564222,-1.975412 2.756878,-2.656377 0.102132,-0.05816 0.204076,-0.11419 0.306125,-0.168306 1.386117,-0.733982 2.816621,-1.126648 3.694121,-1.348503 0.91983,-0.232564 1.408884,-0.337179 1.343892,-0.409144 -0.03251,-0.03617 -0.203874,-0.06431 -0.503806,-0.07033 z" />
    <ellipse
       style="fill:#e5e7eb;fill-opacity:1;stroke:none;stroke-width:0.493847;stroke-linecap:round;stroke-linejoin:round;stroke-dasharray:none;stroke-opacity:1"
       id="ellipse91"
       cx="117.68428"
       cy="32.995026"
       rx="1.5682629"
       ry="0.78413147"
       transform="rotate(19.999998)" />
  </g>
</svg>
