<?xml version="1.0" encoding="UTF-8" standalone="no"?>
<!-- Created with Inkscape (http://www.inkscape.org/) -->

<svg
   width="1920"
   height="1080"
   viewBox="0 0 507.99999 285.75"
   version="1.1"
   id="svg1"
   inkscape:version="1.4.2 (1:1.4.2+202505120737+ebf0e940d0)"
   xml:space="preserve"
   sodipodi:docname="react_bad_vue_good.svg"
   xmlns:inkscape="http://www.inkscape.org/namespaces/inkscape"
   xmlns:sodipodi="http://sodipodi.sourceforge.net/DTD/sodipodi-0.dtd"
   xmlns="http://www.w3.org/2000/svg"
   xmlns:svg="http://www.w3.org/2000/svg"><sodipodi:namedview
     id="namedview1"
     pagecolor="#ffffff"
     bordercolor="#000000"
     borderopacity="0.25"
     inkscape:showpageshadow="2"
     inkscape:pageopacity="0.0"
     inkscape:pagecheckerboard="0"
     inkscape:deskcolor="#d1d1d1"
     inkscape:document-units="px"
     showguides="true"
     inkscape:zoom="0.63370777"
     inkscape:cx="1099.0871"
     inkscape:cy="532.57987"
     inkscape:window-width="2560"
     inkscape:window-height="1371"
     inkscape:window-x="0"
     inkscape:window-y="32"
     inkscape:window-maximized="1"
     inkscape:current-layer="layer1" /><defs
     id="defs1" /><g
     inkscape:label="Layer 1"
     inkscape:groupmode="layer"
     id="layer1"><rect
       style="fill:#ffffff;stroke:none;stroke-width:2.64583;stroke-linejoin:round"
       id="rect3"
       width="508"
       height="285.75"
       x="-4.9999999e-06"
       y="-2.8125e-06" /><g
       style="fill:none;stroke-width:1.64745"
       id="g2"
       transform="matrix(3.7014525,0,0,3.7014525,321.77675,83.651764)"><path
         d="M 2,4 16,28 30,4 H 24.5 L 16,18.5 7.5,4 Z"
         fill="#41b883"
         id="path1-3"
         style="stroke-width:1.64745" /><path
         d="M 7.5,4 16,18.5 24.5,4 h -5 L 16.0653,10.0126 12.5,4 Z"
         fill="#35495e"
         id="path2-6"
         style="stroke-width:1.64745" /></g><g
       style="fill:none"
       id="g3"
       transform="matrix(0.19812157,0.06798638,-0.06798638,0.19812157,162.3095,28.928414)"><path
         d="m 151.856,244.712 c 5.286,-6.194 11.66,-13.894 20.332,-17.082 50.351,-18.507 99.27,42.073 50.007,57.709 -30.235,9.596 -82.587,0.027 -69.241,-41.089"
         stroke="#000000"
         stroke-opacity="0.9"
         stroke-width="16"
         stroke-linecap="round"
         stroke-linejoin="round"
         id="path1-7" /><path
         d="m 131.03,191.497 c -28.546,-1.792 -40.1238,-78.139 13.815,-80.449 55.644,-2.382 36.918,84.01 -4.558,55.71 -14.721,-10.049 -1.56,-35.809 12.746,-29.572"
         stroke="#000000"
         stroke-opacity="0.9"
         stroke-width="16"
         stroke-linecap="round"
         stroke-linejoin="round"
         id="path2-5" /><path
         d="m 231.722,115.862 c 38.551,-16.92 77.661,28.981 55.396,61.391 -10.421,15.166 -30.138,19.12 -47.075,14.422 -10.339,-2.865 -16.104,-11.589 -16.104,-21.633 0,-45.024 64.246,-20.196 29.559,-5.77"
         stroke="#000000"
         stroke-opacity="0.9"
         stroke-width="16"
         stroke-linecap="round"
         stroke-linejoin="round"
         id="path3" /></g><g
       style="fill:none;stroke-width:1.8765"
       id="g1"
       transform="matrix(3.4546887,0,0,3.4546887,71.724977,87.599979)"><path
         d="m 18.6789,15.9759 c 0,-1.4344 -1.1993,-2.5974 -2.6789,-2.5974 -1.4794,0 -2.6789,1.163 -2.6789,2.5974 0,1.4346 1.1995,2.5975 2.6789,2.5975 1.4796,0 2.6789,-1.1629 2.6789,-2.5975 z"
         fill="#53c1de"
         id="path1"
         style="stroke-width:1.8765" /><path
         fill-rule="evenodd"
         clip-rule="evenodd"
         d="M 24.7004,11.1537 C 25.2661,8.92478 25.9772,4.79148 23.4704,3.39016 20.9753,1.99495 17.7284,4.66843 16.0139,6.27318 14.3044,4.68442 10.9663,2.02237 8.46163,3.42814 5.96751,4.82803 6.73664,8.8928 7.3149,11.1357 4.98831,11.7764 1,13.1564 1,15.9759 c 0,2.8115 3.98416,4.3129 6.29698,4.953 -0.5804,2.2553 -1.31102,6.262 1.18629,7.6588 2.51403,1.4055 5.84173,-1.1932 7.57213,-2.8155 1.7255,1.6142 4.9412,4.2299 7.4368,2.8292 2.5034,-1.4051 1.8514,-5.483 1.2731,-7.7389 C 27.0073,20.221 31,18.7523 31,15.9759 31,13.1835 26.9903,11.7923 24.7004,11.1537 Z m -0.2842,8.5133 c -0.3797,-1.1654 -0.8922,-2.4047 -1.5191,-3.6849 0.5984,-1.25 1.091,-2.4733 1.4601,-3.6312 1.6787,0.4719 5.3613,1.5504 5.3613,3.625 0,2.0941 -3.5339,3.1828 -5.3023,3.6911 z M 22.85,27.526 c -1.862,1.045 -4.6279,-1.4564 -5.9022,-2.6451 0.8454,-0.8965 1.6902,-1.9387 2.5147,-3.096 1.4504,-0.1247 2.8205,-0.3287 4.0631,-0.6072 0.407,1.5957 1.1946,5.2986 -0.6756,6.3483 z M 9.12362,27.5111 C 7.26143,26.47 8.11258,22.8946 8.53957,21.2333 c 1.22877,0.2636 2.58903,0.4532 4.04283,0.5675 0.8299,1.1324 1.6992,2.1733 2.5752,3.0849 -1.0823,1.0151 -4.1631,3.6713 -6.03398,2.6254 z M 2.28149,15.9759 c 0,-2.1019 3.66058,-3.1726 5.37755,-3.6433 0.37547,1.1839 0.86791,2.4218 1.46219,3.6736 C 8.51925,17.2766 8.01977,18.5341 7.64085,19.732 6.00369,19.2776 2.28149,18.0791 2.28149,15.9759 Z M 9.1037,4.50354 c 1.8698,-1.04938 4.771,1.50629 6.0122,2.65659 C 14.2444,8.06754 13.3831,9.1006 12.5603,10.2265 11.1494,10.3533 9.79875,10.5569 8.55709,10.8297 8.09125,9.02071 7.23592,5.55179 9.1037,4.50354 Z m 11.2756,7.07356 c 0.9572,0.1171 1.8743,0.2729 2.7354,0.4635 -0.2585,0.8034 -0.5807,1.6435 -0.9602,2.5047 -0.5501,-1.012 -1.1406,-2.0037 -1.7752,-2.9682 z m -4.365,-3.529 c 0.5911,0.62087 1.1831,1.3142 1.7655,2.0664 -1.1813,-0.0542 -2.3645,-0.0544 -3.5458,-8e-4 0.5829,-0.74522 1.18,-1.43752 1.7803,-2.0656 z M 9.8565,14.5444 C 9.48329,13.6862 9.16398,12.8424 8.90322,12.0275 9.75918,11.8418 10.672,11.69 11.623,11.5748 c -0.6364,0.9624 -1.2259,1.9537 -1.7665,2.9696 z m 1.7938,5.9213 c -0.9824,-0.1063 -1.90904,-0.2504 -2.76474,-0.431 0.26488,-0.8292 0.59122,-1.6912 0.9724,-2.5679 0.54804,1.0265 1.14654,2.0274 1.79234,2.9989 z m 4.3995,3.5258 c -0.6074,-0.6355 -1.2133,-1.3384 -1.805,-2.0944 1.188,0.0452 2.3783,0.0453 3.5662,-0.0061 -0.5842,0.7698 -1.1741,1.4737 -1.7612,2.1005 z m 6.1169,-6.5693 c 0.401,0.8862 0.739,1.7435 1.0075,2.5587 -0.8699,0.1925 -1.809,0.3475 -2.7985,0.4626 0.6393,-0.9828 1.2392,-1.9899 1.791,-3.0213 z m -3.4194,3.1719 c -1.8172,0.1259 -3.6457,0.1245 -5.4635,0.0103 -1.0329,-1.4629 -1.9524,-3.0014 -2.7461,-4.5986 0.7899,-1.5939 1.7027,-3.1294 2.7307,-4.59 1.8191,-0.1333 3.6494,-0.1337 5.4685,8e-4 1.0192,1.4605 1.9306,2.992 2.7388,4.5715 -0.7986,1.5931 -1.7162,3.1317 -2.7284,4.606 z m 4.083,-16.1275 c 1.8703,1.04594 1.0378,4.76066 0.6292,6.376 C 22.2149,10.5641 20.8633,10.3569 19.4483,10.2281 18.6239,9.09004 17.7698,8.05518 16.9124,7.15949 18.1695,5.98441 20.9781,3.43089 22.8303,4.4666 Z"
         fill="#53c1de"
         id="path2"
         style="stroke-width:1.8765" /></g><g
       style="fill:none"
       id="g14"
       transform="matrix(0.25823793,0,0,0.25823793,383.5521,114.92822)"><path
         d="m 135,145.147 c 17.406,-37.573 28.534,-17.216 39.111,11.863"
         stroke="#000000"
         stroke-opacity="0.9"
         stroke-width="16"
         stroke-linecap="round"
         stroke-linejoin="round"
         id="path11" /><path
         d="m 220.026,143.265 c 19.167,-35.328 25.422,-18.88 42.512,6.943"
         stroke="#000000"
         stroke-opacity="0.9"
         stroke-width="16"
         stroke-linecap="round"
         stroke-linejoin="round"
         id="path12" /><path
         d="m 139.612,211.923 c 34.767,44.168 98.572,18.518 124.137,-13.841"
         stroke="#000000"
         stroke-opacity="0.9"
         stroke-width="16"
         stroke-linecap="round"
         stroke-linejoin="round"
         id="path13" /><path
         d="m 211.522,249.41 c 42.12,50.248 70.526,23.488 39.783,-31.182"
         stroke="#000000"
         stroke-opacity="0.9"
         stroke-width="16"
         stroke-linecap="round"
         stroke-linejoin="round"
         id="path14" /></g></g></svg>
