<?xml version="1.0" encoding="UTF-8" standalone="no" ?>
<svg
  viewBox="0 0 397.01776 518.2865"
  version="1.1"
  id="svg1"
  sodipodi:docname="rocket-solid-full.svg"
  width="397.01776"
  height="518.2865"
  inkscape:version="1.4.2 (1:1.4.2+202505120737+ebf0e940d0)"
  xmlns:inkscape="http://www.inkscape.org/namespaces/inkscape"
  xmlns:sodipodi="http://sodipodi.sourceforge.net/DTD/sodipodi-0.dtd"
  xmlns="http://www.w3.org/2000/svg"
  xmlns:svg="http://www.w3.org/2000/svg"
>
	<defs id="defs1" />
	<sodipodi:namedview
    id="namedview1"
    pagecolor="#ffffff"
    bordercolor="#000000"
    borderopacity="0.25"
    inkscape:showpageshadow="2"
    inkscape:pageopacity="0.0"
    inkscape:pagecheckerboard="0"
    inkscape:deskcolor="#d1d1d1"
    showguides="true"
    inkscape:zoom="1.0584505"
    inkscape:cx="15.116437"
    inkscape:cy="350.04"
    inkscape:window-width="2560"
    inkscape:window-height="1371"
    inkscape:window-x="0"
    inkscape:window-y="32"
    inkscape:window-maximized="1"
    inkscape:current-layer="svg1"
  />
	<!--!Font Awesome Free 7.0.0 by @fontawesome - https://fontawesome.com License - https://fontawesome.com/license/free Copyright 2025 Fonticons, Inc.-->
	<path
    d="m 153.25405,435.70152 -73.185555,73.18555 c -17.60696,17.60696 -47.58828,9.2631 -53.6694,-14.91995 L 1.4382251,394.19435 c -4.10122,-16.40488 0.7071,-33.65828 12.6572099,-45.60839 l 67.17514,-67.17514 C 43.935345,136.45393 119.59577,51.60112 181.11406,5.7805972 c 10.39447,-7.7074629 24.53661,-7.7074629 34.78965,0 C 277.422,51.60112 353.08243,136.45393 315.74719,281.41082 l 67.17515,67.17514 c 11.9501,11.95011 16.75843,29.20351 12.65721,45.60839 l -24.96087,99.77277 c -6.01041,24.11234 -36.13316,32.4562 -53.66941,14.91995 l -73.18555,-73.18555 c -24.96087,-24.96087 -65.5488,-24.96087 -90.50967,0 l -0.0707,0.0707 z m 79.19596,-305.47013 c -18.73833,-18.73833 -49.14392,-18.73833 -67.88225,0 -18.73833,18.73833 -18.73833,49.14392 0,67.88225 18.73833,18.73833 49.14392,18.73833 67.88225,0 18.73833,-18.73833 18.73833,-49.14392 0,-67.88225 z"
    id="path1"
    style="fill:#000000"
  />
</svg>
