<?xml version="1.0" encoding="UTF-8" standalone="no" ?>
<!-- Created with Inkscape (http://www.inkscape.org/) -->
<svg
  width="51.015194"
  height="26.587673"
  viewBox="0 0 13.497769 7.0346551"
  version="1.1"
  id="svg1"
  inkscape:version="1.4.3 (0d15f75042, 2025-12-25)"
  sodipodi:docname="stars_ordered_item.svg"
  xmlns:inkscape="http://www.inkscape.org/namespaces/inkscape"
  xmlns:sodipodi="http://sodipodi.sourceforge.net/DTD/sodipodi-0.dtd"
  xmlns="http://www.w3.org/2000/svg"
  xmlns:svg="http://www.w3.org/2000/svg"
>
  <sodipodi:namedview
    id="namedview1"
    pagecolor="#ffffff"
    bordercolor="#000000"
    borderopacity="0.25"
    inkscape:showpageshadow="2"
    inkscape:pageopacity="0.0"
    inkscape:pagecheckerboard="0"
    inkscape:deskcolor="#d1d1d1"
    inkscape:document-units="px"
    inkscape:zoom="10.139324"
    inkscape:cx="38.907919"
    inkscape:cy="29.834336"
    inkscape:window-width="1280"
    inkscape:window-height="1371"
    inkscape:window-x="20"
    inkscape:window-y="20"
    inkscape:window-maximized="0"
    inkscape:current-layer="layer1"
    showguides="true"
  >
    <sodipodi:guide position="8.0634793,3.4590786" orientation="1,0" id="guide4" inkscape:locked="false" />
  </sodipodi:namedview>
  <defs id="defs1" />
  <g inkscape:label="Layer 1" inkscape:groupmode="layer" id="layer1" transform="translate(-88.953501,-64.923045)">
    <text
      xml:space="preserve"
      style="font-size:7.3746px;line-height:1.2;font-family:Inter;-inkscape-font-specification:Inter;text-align:center;writing-mode:lr-tb;direction:ltr;text-anchor:middle;fill:#e5e7eb;fill-opacity:1;stroke:none;stroke-width:1.32292;stroke-linecap:square;stroke-linejoin:round"
      x="97.014603"
      y="71.093117"
      id="order_label"
      inkscape:label="order_label"
    ><tspan
        sodipodi:role="line"
        id="tspan60"
        style="font-weight:normal;fill:#e5e7eb;fill-opacity:1;stroke-width:1.32292"
        x="97.014603"
        y="71.093117"
      >9</tspan></text>
    <path
      id="path2"
      style="fill:#22d3ee;stroke-width:0.151704;stroke-linejoin:round"
      d="m 90.41644,67.970319 -0.394429,0.170288 0.490551,1.13647 a 0.86779269,0.86779269 0 0 0 -0.280075,0.376194 l -1.229276,-0.143768 -0.04971,0.42675 1.229275,0.143349 a 0.86779269,0.86779269 0 0 0 0.06342,0.228287 0.86779269,0.86779269 0 0 0 0.122636,0.202188 l -0.739133,0.993116 0.344295,0.256465 0.739142,-0.993116 a 0.86779269,0.86779269 0 0 0 0.465688,0.05427 l 0.490551,1.136888 0.394429,-0.170288 -0.490551,-1.13647 a 0.86779269,0.86779269 0 0 0 0.280076,-0.376612 l 1.229275,0.143768 0.04971,-0.426331 -1.229276,-0.143768 a 0.86779269,0.86779269 0 0 0 -0.06342,-0.22787 0.86779269,0.86779269 0 0 0 -0.122636,-0.202606 l 0.739141,-0.993108 -0.344303,-0.256054 -0.739134,0.992705 a 0.86779269,0.86779269 0 0 0 -0.465696,-0.05428 z"
    />
    <path
      id="path5"
      style="fill:#22d3ee;stroke-width:0.151703;stroke-linejoin:round"
      d="m 100.96323,64.923045 -0.21611,0.0933 0.26876,0.622655 a 0.47545118,0.47545118 0 0 0 -0.15344,0.206111 l -0.67351,-0.07877 -0.0273,0.233809 0.6735,0.07854 a 0.47545118,0.47545118 0 0 0 0.0347,0.125076 0.47545118,0.47545118 0 0 0 0.0673,0.110776 l -0.40496,0.544114 0.18863,0.140514 0.40497,-0.544116 a 0.47545118,0.47545118 0 0 0 0.25514,0.02973 l 0.26877,0.622885 0.2161,-0.0933 -0.26877,-0.622656 a 0.47545118,0.47545118 0 0 0 0.15346,-0.20634 l 0.6735,0.07877 0.0273,-0.23358 -0.6735,-0.07877 a 0.47545118,0.47545118 0 0 0 -0.0347,-0.124847 0.47545118,0.47545118 0 0 0 -0.0671,-0.111005 l 0.40496,-0.544109 -0.18863,-0.140289 -0.40497,0.543888 a 0.47545118,0.47545118 0 0 0 -0.25515,-0.02973 z"
    />
    <path
      id="path1"
      style="fill:#22d3ee;stroke-width:0.151703;stroke-linejoin:round"
      d="m 90.443498,65.217971 -0.229513,0.05227 0.15055,0.661261 a 0.47545118,0.47545118 0 0 0 -0.188495,0.174629 l -0.647805,-0.200423 -0.06953,0.224893 0.647836,0.200196 a 0.47545118,0.47545118 0 0 0 0.01128,0.129309 0.47545118,0.47545118 0 0 0 0.04594,0.121202 l -0.497503,0.461025 0.159802,0.172594 0.497513,-0.461025 a 0.47545118,0.47545118 0 0 0 0.245422,0.07582 l 0.150518,0.661489 0.229503,-0.05227 -0.150559,-0.661264 a 0.47545118,0.47545118 0 0 0 0.188556,-0.174851 l 0.647795,0.200422 0.06949,-0.224668 -0.647795,-0.200422 a 0.47545118,0.47545118 0 0 0 -0.01132,-0.129084 0.47545118,0.47545118 0 0 0 -0.0457,-0.121391 l 0.497502,-0.461019 -0.159843,-0.172373 -0.497472,0.4608 a 0.47545118,0.47545118 0 0 0 -0.245432,-0.07582 z"
    />
    <path
      id="path3"
      style="fill:#22d3ee;stroke-width:0.151703;stroke-linejoin:round"
      d="m 92.161106,66.450785 -0.108228,0.164723 0.474557,0.31185 a 0.39810188,0.39810188 0 0 0 -0.01248,0.214788 l -0.507365,0.254869 0.08851,0.176111 0.507252,-0.255025 a 0.39810188,0.39810188 0 0 0 0.0818,0.07155 0.39810188,0.39810188 0 0 0 0.09806,0.04651 l -0.03285,0.566977 0.196614,0.01147 0.03285,-0.566981 a 0.39810188,0.39810188 0 0 0 0.192155,-0.09662 l 0.474671,0.312005 0.108217,-0.164719 -0.474564,-0.311846 a 0.39810188,0.39810188 0 0 0 0.01238,-0.214958 l 0.507358,-0.254864 -0.0884,-0.175954 -0.507357,0.254864 a 0.39810188,0.39810188 0 0 0 -0.08175,-0.07135 0.39810188,0.39810188 0 0 0 -0.09802,-0.04677 l 0.03285,-0.566971 -0.19651,-0.01132 -0.03296,0.566822 a 0.39810188,0.39810188 0 0 0 -0.192161,0.09663 z"
    />
  </g>
</svg>
