<?xml version="1.0" encoding="UTF-8" standalone="no"?>
<!-- Created with Inkscape (http://www.inkscape.org/) -->

<svg
   width="57.230633"
   height="26.587673"
   viewBox="0 0 15.14227 7.0346551"
   version="1.1"
   id="svg1"
   inkscape:version="1.4.3 (0d15f75042, 2025-12-25)"
   sodipodi:docname="stars_ordered_item.svg"
   xmlns:inkscape="http://www.inkscape.org/namespaces/inkscape"
   xmlns:sodipodi="http://sodipodi.sourceforge.net/DTD/sodipodi-0.dtd"
   xmlns="http://www.w3.org/2000/svg"
   xmlns:svg="http://www.w3.org/2000/svg">
  <sodipodi:namedview
     id="namedview1"
     pagecolor="#ffffff"
     bordercolor="#000000"
     borderopacity="0.25"
     inkscape:showpageshadow="2"
     inkscape:pageopacity="0.0"
     inkscape:pagecheckerboard="0"
     inkscape:deskcolor="#d1d1d1"
     inkscape:document-units="px"
     inkscape:zoom="10.139324"
     inkscape:cx="35.850516"
     inkscape:cy="29.834336"
     inkscape:window-width="1280"
     inkscape:window-height="1371"
     inkscape:window-x="20"
     inkscape:window-y="20"
     inkscape:window-maximized="0"
     inkscape:current-layer="layer1"
     showguides="true">
    <sodipodi:guide
       position="7.2545412,3.4590786"
       orientation="1,0"
       id="guide4"
       inkscape:locked="false" />
  </sodipodi:namedview>
  <defs
     id="defs1" />
  <g
     inkscape:label="Layer 1"
     inkscape:groupmode="layer"
     id="layer1"
     transform="translate(-89.762439,-64.923045)">
    <text
       xml:space="preserve"
       style="font-size:7.3746px;line-height:1.2;font-family:Inter;-inkscape-font-specification:Inter;text-align:center;writing-mode:lr-tb;direction:ltr;text-anchor:middle;fill:#e5e7eb;fill-opacity:1;stroke:none;stroke-width:1.32292;stroke-linecap:square;stroke-linejoin:round"
       x="97.014603"
       y="71.093117"
       id="order_label"
       inkscape:label="order_label"><tspan
         sodipodi:role="line"
         id="tspan60"
         style="font-weight:normal;fill:#e5e7eb;fill-opacity:1;stroke-width:1.32292"
         x="97.014603"
         y="71.093117">9</tspan></text>
    <path
       id="path2"
       style="fill:#22d3ee;stroke-width:0.151704;stroke-linejoin:round"
       d="m 91.225378,67.970319 -0.394429,0.170288 0.490551,1.13647 a 0.86779269,0.86779269 0 0 0 -0.280075,0.376194 l -1.229276,-0.143768 -0.04971,0.42675 1.229275,0.143349 a 0.86779269,0.86779269 0 0 0 0.06342,0.228287 0.86779269,0.86779269 0 0 0 0.122636,0.202188 l -0.739133,0.993116 0.344295,0.256465 0.739142,-0.993116 a 0.86779269,0.86779269 0 0 0 0.465688,0.05427 l 0.490551,1.136888 0.394429,-0.170288 -0.490551,-1.13647 a 0.86779269,0.86779269 0 0 0 0.280076,-0.376612 l 1.229275,0.143768 0.04971,-0.426331 -1.229276,-0.143768 a 0.86779269,0.86779269 0 0 0 -0.06342,-0.22787 0.86779269,0.86779269 0 0 0 -0.122636,-0.202606 l 0.739141,-0.993108 -0.344303,-0.256054 -0.739134,0.992705 a 0.86779269,0.86779269 0 0 0 -0.465696,-0.05428 z" />
    <path
       id="path5"
       style="fill:#22d3ee;stroke-width:0.151703;stroke-linejoin:round"
       d="m 100.96323,64.923045 -0.21611,0.0933 0.26876,0.622655 a 0.47545118,0.47545118 0 0 0 -0.15344,0.206111 l -0.67351,-0.07877 -0.0273,0.233809 0.6735,0.07854 a 0.47545118,0.47545118 0 0 0 0.0347,0.125076 0.47545118,0.47545118 0 0 0 0.0673,0.110776 l -0.40496,0.544114 0.18863,0.140514 0.40497,-0.544116 a 0.47545118,0.47545118 0 0 0 0.25514,0.02973 l 0.26877,0.622885 0.2161,-0.0933 -0.26877,-0.622656 a 0.47545118,0.47545118 0 0 0 0.15346,-0.20634 l 0.6735,0.07877 0.0273,-0.23358 -0.6735,-0.07877 a 0.47545118,0.47545118 0 0 0 -0.0347,-0.124847 0.47545118,0.47545118 0 0 0 -0.0671,-0.111005 l 0.40496,-0.544109 -0.18863,-0.140289 -0.40497,0.543888 a 0.47545118,0.47545118 0 0 0 -0.25515,-0.02973 z" />
    <path
       id="path6"
       style="fill:#22d3ee;stroke-width:0.151703;stroke-linejoin:round"
       d="m 103.35683,66.218536 -0.14532,0.136286 0.39261,0.418706 a 0.4023981,0.4023981 0 0 0 -0.0631,0.208133 l -0.55888,0.13046 0.0454,0.193969 0.55881,-0.130648 a 0.4023981,0.4023981 0 0 0 0.0635,0.08963 0.4023981,0.4023981 0 0 0 0.0854,0.06889 l -0.16639,0.549416 0.19051,0.05778 0.16639,-0.54942 a 0.4023981,0.4023981 0 0 0 0.21169,-0.0495 l 0.39268,0.418886 0.14531,-0.136283 -0.39261,-0.418706 a 0.4023981,0.4023981 0 0 0 0.063,-0.208314 l 0.55888,-0.13046 -0.0454,-0.193787 -0.55888,0.13046 a 0.4023981,0.4023981 0 0 0 -0.0635,-0.08945 0.4023981,0.4023981 0 0 0 -0.0854,-0.06911 l 0.16638,-0.549408 -0.19045,-0.0576 -0.16644,0.549233 a 0.4023981,0.4023981 0 0 0 -0.2117,0.04951 z" />
    <path
       id="path7"
       style="fill:#22d3ee;stroke-width:0.151703;stroke-linejoin:round"
       d="m 101.61187,67.471446 -0.33599,0.145063 0.41785,0.968053 a 0.7391911,0.7391911 0 0 0 -0.23856,0.320445 l -1.04711,-0.122462 -0.0424,0.363508 1.04711,0.122111 a 0.7391911,0.7391911 0 0 0 0.054,0.194457 0.7391911,0.7391911 0 0 0 0.10461,0.172227 l -0.62961,0.845942 0.29327,0.218461 0.62963,-0.845944 a 0.7391911,0.7391911 0 0 0 0.39666,0.04624 l 0.41787,0.968409 0.33596,-0.145064 -0.41784,-0.968054 a 0.7391911,0.7391911 0 0 0 0.23856,-0.320799 l 1.04711,0.122462 0.0422,-0.363151 -1.0471,-0.122462 a 0.7391911,0.7391911 0 0 0 -0.0541,-0.194106 0.7391911,0.7391911 0 0 0 -0.10439,-0.172579 l 0.62959,-0.845935 -0.29326,-0.218109 -0.62959,0.845592 a 0.7391911,0.7391911 0 0 0 -0.3967,-0.04624 z" />
  </g>
</svg>
