<?xml version="1.0" encoding="UTF-8" standalone="no"?>
<!-- Created with Inkscape (http://www.inkscape.org/) -->

<svg
   width="98.617989"
   height="72.8405"
   viewBox="0 0 26.092675 19.272382"
   version="1.1"
   id="svg1"
   inkscape:version="1.4.2 (1:1.4.2+202505120737+ebf0e940d0)"
   sodipodi:docname="starCluster.svg"
   xmlns:inkscape="http://www.inkscape.org/namespaces/inkscape"
   xmlns:sodipodi="http://sodipodi.sourceforge.net/DTD/sodipodi-0.dtd"
   xmlns="http://www.w3.org/2000/svg"
   xmlns:svg="http://www.w3.org/2000/svg">
  <sodipodi:namedview
     id="namedview1"
     pagecolor="#ffffff"
     bordercolor="#000000"
     borderopacity="0.25"
     inkscape:showpageshadow="2"
     inkscape:pageopacity="0.0"
     inkscape:pagecheckerboard="0"
     inkscape:deskcolor="#d1d1d1"
     inkscape:document-units="px"
     inkscape:zoom="10.139324"
     inkscape:cx="44.381655"
     inkscape:cy="49.362263"
     inkscape:window-width="2560"
     inkscape:window-height="1371"
     inkscape:window-x="0"
     inkscape:window-y="32"
     inkscape:window-maximized="1"
     inkscape:current-layer="layer1" />
  <defs
     id="defs1" />
  <g
     inkscape:label="Layer 1"
     inkscape:groupmode="layer"
     id="layer1"
     transform="translate(-73.910009,-112.04127)">
    <path
       sodipodi:type="star"
       style="fill:#e5e7eb;fill-opacity:1;stroke:none;stroke-width:0.970118;stroke-linejoin:round;stroke-dasharray:none;stroke-opacity:1"
       id="path44"
       inkscape:flatsided="false"
       sodipodi:sides="7"
       sodipodi:cx="647.09552"
       sodipodi:cy="199.78777"
       sodipodi:r1="4.867784"
       sodipodi:r2="1.8497579"
       sodipodi:arg1="1.3089969"
       sodipodi:arg2="1.7577959"
       inkscape:rounded="0.1"
       inkscape:randomized="0"
       d="m 648.3554,204.48968 c -0.31879,0.0854 -1.2795,-2.82305 -1.60377,-2.8844 -0.32428,-0.0614 -2.28116,2.29507 -2.5467,2.09909 -0.26554,-0.19597 1.4094,-2.76049 1.25519,-3.05227 -0.15421,-0.29178 -3.21664,-0.35252 -3.22898,-0.68232 -0.0123,-0.3298 3.03699,-0.61923 3.16896,-0.92172 0.13198,-0.30249 -1.72993,-2.73466 -1.47977,-2.94994 0.25015,-0.21527 2.37765,1.98833 2.69644,1.90292 0.31878,-0.0854 1.05945,-3.05755 1.38373,-2.9962 0.32427,0.0614 -0.0721,3.09864 0.19344,3.29461 0.26554,0.19598 3.05105,-1.07803 3.20526,-0.78625 0.15421,0.29179 -2.46756,1.8756 -2.45522,2.2054 0.0123,0.3298 2.74514,1.71326 2.61317,2.01575 -0.13198,0.30249 -3.0049,-0.75979 -3.25506,-0.54452 -0.25015,0.21527 0.37209,3.21444 0.0533,3.29985 z"
       transform="matrix(0.29695441,-0.45818336,0.45602638,0.29835901,-200.66297,351.57182)"
       inkscape:spray-origin="#path20" />
    <path
       sodipodi:type="star"
       style="fill:#22d3ee;fill-opacity:1;stroke:none;stroke-width:2.68406;stroke-linejoin:round;stroke-dasharray:none;stroke-opacity:1"
       id="path45"
       inkscape:flatsided="false"
       sodipodi:sides="4"
       sodipodi:cx="647.09552"
       sodipodi:cy="199.78777"
       sodipodi:r1="4.867784"
       sodipodi:r2="2.0444694"
       sodipodi:arg1="1.3089969"
       sodipodi:arg2="2.0943951"
       inkscape:rounded="0.1"
       inkscape:randomized="0"
       d="m 648.3554,204.48968 c -0.35884,0.0961 -1.96039,-2.7456 -2.28211,-2.93135 -0.32173,-0.18575 -3.58354,-0.15185 -3.67969,-0.51069 -0.0961,-0.35884 2.74561,-1.96038 2.93136,-2.28211 0.18575,-0.32172 0.15185,-3.58353 0.51068,-3.67968 0.35884,-0.0961 1.96039,2.74561 2.28211,2.93135 0.32173,0.18575 3.58354,0.15185 3.67969,0.51069 0.0961,0.35884 -2.74561,1.96039 -2.93136,2.28211 -0.18575,0.32172 -0.15185,3.58353 -0.51068,3.67968 z"
       transform="matrix(0.19170299,-0.04146193,0.04081138,0.19392957,-53.238029,101.248)"
       inkscape:spray-origin="#path19" />
    <path
       sodipodi:type="star"
       style="fill:#22d3ee;fill-opacity:1;stroke:none;stroke-width:2.68406;stroke-linejoin:round;stroke-dasharray:none;stroke-opacity:1"
       id="path46"
       inkscape:flatsided="false"
       sodipodi:sides="4"
       sodipodi:cx="647.09552"
       sodipodi:cy="199.78777"
       sodipodi:r1="4.867784"
       sodipodi:r2="2.0444694"
       sodipodi:arg1="1.3089969"
       sodipodi:arg2="2.0943951"
       inkscape:rounded="0.1"
       inkscape:randomized="0"
       d="m 648.3554,204.48968 c -0.35884,0.0961 -1.96039,-2.7456 -2.28211,-2.93135 -0.32173,-0.18575 -3.58354,-0.15185 -3.67969,-0.51069 -0.0961,-0.35884 2.74561,-1.96038 2.93136,-2.28211 0.18575,-0.32172 0.15185,-3.58353 0.51068,-3.67968 0.35884,-0.0961 1.96039,2.74561 2.28211,2.93135 0.32173,0.18575 3.58354,0.15185 3.67969,0.51069 0.0961,0.35884 -2.74561,1.96039 -2.93136,2.28211 -0.18575,0.32172 -0.15185,3.58353 -0.51068,3.67968 z"
       transform="matrix(0.19170299,0.04146193,0.04081138,-0.19392957,-46.557767,129.17472)"
       inkscape:spray-origin="#path19" />
    <path
       sodipodi:type="star"
       style="fill:#f97316;fill-opacity:1;stroke:none;stroke-width:3.38839;stroke-linejoin:round;stroke-dasharray:none;stroke-opacity:1"
       id="path47"
       inkscape:flatsided="false"
       sodipodi:sides="6"
       sodipodi:cx="647.09552"
       sodipodi:cy="199.78777"
       sodipodi:r1="4.867784"
       sodipodi:r2="2.1905029"
       sodipodi:arg1="1.3089969"
       sodipodi:arg2="1.8325957"
       inkscape:rounded="0.19"
       inkscape:randomized="0"
       d="m 648.3554,204.48968 c -0.58109,0.1557 -1.24574,-2.43035 -1.82682,-2.58605 -0.58109,-0.1557 -2.44972,1.75156 -2.8751,1.32618 -0.42539,-0.42538 1.48188,-2.29402 1.32618,-2.8751 -0.1557,-0.58108 -2.74176,-1.24574 -2.58606,-1.82682 0.1557,-0.58108 2.72762,0.13634 3.153,-0.28904 0.42538,-0.42539 -0.29204,-2.9973 0.28904,-3.153 0.58109,-0.1557 1.24574,2.43035 1.82682,2.58605 0.58109,0.1557 2.44972,-1.75156 2.8751,-1.32618 0.42539,0.42538 -1.48188,2.29402 -1.32618,2.8751 0.1557,0.58108 2.74176,1.24574 2.58606,1.82682 -0.1557,0.58108 -2.72762,-0.13634 -3.153,0.28904 -0.42538,0.42539 0.29204,2.9973 -0.28904,3.153 z"
       transform="matrix(-0.14192907,-0.04077201,-0.03581929,0.16155357,185.03687,108.51494)"
       inkscape:spray-origin="#path16" />
    <path
       sodipodi:type="star"
       style="fill:#f97316;fill-opacity:1;stroke:none;stroke-width:6.24959;stroke-linejoin:round;stroke-dasharray:none;stroke-opacity:1"
       id="path48"
       inkscape:flatsided="false"
       sodipodi:sides="6"
       sodipodi:cx="647.09552"
       sodipodi:cy="199.78777"
       sodipodi:r1="4.867784"
       sodipodi:r2="2.1905029"
       sodipodi:arg1="1.3089969"
       sodipodi:arg2="1.8325957"
       inkscape:rounded="0.19"
       inkscape:randomized="0"
       d="m 648.3554,204.48968 c -0.58109,0.1557 -1.24574,-2.43035 -1.82682,-2.58605 -0.58109,-0.1557 -2.44972,1.75156 -2.8751,1.32618 -0.42539,-0.42538 1.48188,-2.29402 1.32618,-2.8751 -0.1557,-0.58108 -2.74176,-1.24574 -2.58606,-1.82682 0.1557,-0.58108 2.72762,0.13634 3.153,-0.28904 0.42538,-0.42539 -0.29204,-2.9973 0.28904,-3.153 0.58109,-0.1557 1.24574,2.43035 1.82682,2.58605 0.58109,0.1557 2.44972,-1.75156 2.8751,-1.32618 0.42539,0.42538 -1.48188,2.29402 -1.32618,2.8751 0.1557,0.58108 2.74176,1.24574 2.58606,1.82682 -0.1557,0.58108 -2.72762,-0.13634 -3.153,0.28904 -0.42538,0.42539 0.29204,2.9973 -0.28904,3.153 z"
       transform="matrix(-0.07695077,-0.02210567,-0.01942042,0.08759074,133.85513,113.90068)"
       inkscape:spray-origin="#path16" />
    <path
       sodipodi:type="star"
       style="fill:#f97316;fill-opacity:1;stroke:none;stroke-width:4.57775;stroke-linejoin:round;stroke-dasharray:none;stroke-opacity:1"
       id="path49"
       inkscape:flatsided="false"
       sodipodi:sides="4"
       sodipodi:cx="647.09552"
       sodipodi:cy="199.78777"
       sodipodi:r1="4.867784"
       sodipodi:r2="2.0444694"
       sodipodi:arg1="1.3089969"
       sodipodi:arg2="2.0943951"
       inkscape:rounded="0.1"
       inkscape:randomized="0"
       d="m 648.3554,204.48968 c -0.35884,0.0961 -1.96039,-2.7456 -2.28211,-2.93135 -0.32173,-0.18575 -3.58354,-0.15185 -3.67969,-0.51069 -0.0961,-0.35884 2.74561,-1.96038 2.93136,-2.28211 0.18575,-0.32172 0.15185,-3.58353 0.51068,-3.67968 0.35884,-0.0961 1.96039,2.74561 2.28211,2.93135 0.32173,0.18575 3.58354,0.15185 3.67969,0.51069 0.0961,0.35884 -2.74561,1.96039 -2.93136,2.28211 -0.18575,0.32172 -0.15185,3.58353 -0.51068,3.67968 z"
       transform="matrix(0.11240071,-0.02431027,0.02392883,0.11370622,3.5386276,110.82174)"
       inkscape:spray-origin="#path19" />
    <path
       sodipodi:type="star"
       style="fill:#f97316;fill-opacity:1;stroke:none;stroke-width:4.57775;stroke-linejoin:round;stroke-dasharray:none;stroke-opacity:1"
       id="path50"
       inkscape:flatsided="false"
       sodipodi:sides="4"
       sodipodi:cx="647.09552"
       sodipodi:cy="199.78777"
       sodipodi:r1="4.867784"
       sodipodi:r2="2.0444694"
       sodipodi:arg1="1.3089969"
       sodipodi:arg2="2.0943951"
       inkscape:rounded="0.1"
       inkscape:randomized="0"
       d="m 648.3554,204.48968 c -0.35884,0.0961 -1.96039,-2.7456 -2.28211,-2.93135 -0.32173,-0.18575 -3.58354,-0.15185 -3.67969,-0.51069 -0.0961,-0.35884 2.74561,-1.96038 2.93136,-2.28211 0.18575,-0.32172 0.15185,-3.58353 0.51068,-3.67968 0.35884,-0.0961 1.96039,2.74561 2.28211,2.93135 0.32173,0.18575 3.58354,0.15185 3.67969,0.51069 0.0961,0.35884 -2.74561,1.96039 -2.93136,2.28211 -0.18575,0.32172 -0.15185,3.58353 -0.51068,3.67968 z"
       transform="matrix(0.11240071,-0.02431027,0.02392883,0.11370622,2.12951,110.97831)"
       inkscape:spray-origin="#path19" />
    <path
       sodipodi:type="star"
       style="fill:#22d3ee;fill-opacity:1;stroke:none;stroke-width:6.24959;stroke-linejoin:round;stroke-dasharray:none;stroke-opacity:1"
       id="path51"
       inkscape:flatsided="false"
       sodipodi:sides="6"
       sodipodi:cx="647.09552"
       sodipodi:cy="199.78777"
       sodipodi:r1="4.867784"
       sodipodi:r2="2.1905029"
       sodipodi:arg1="1.3089969"
       sodipodi:arg2="1.8325957"
       inkscape:rounded="0.19"
       inkscape:randomized="0"
       d="m 648.3554,204.48968 c -0.58109,0.1557 -1.24574,-2.43035 -1.82682,-2.58605 -0.58109,-0.1557 -2.44972,1.75156 -2.8751,1.32618 -0.42539,-0.42538 1.48188,-2.29402 1.32618,-2.8751 -0.1557,-0.58108 -2.74176,-1.24574 -2.58606,-1.82682 0.1557,-0.58108 2.72762,0.13634 3.153,-0.28904 0.42538,-0.42539 -0.29204,-2.9973 0.28904,-3.153 0.58109,-0.1557 1.24574,2.43035 1.82682,2.58605 0.58109,0.1557 2.44972,-1.75156 2.8751,-1.32618 0.42539,0.42538 -1.48188,2.29402 -1.32618,2.8751 0.1557,0.58108 2.74176,1.24574 2.58606,1.82682 -0.1557,0.58108 -2.72762,-0.13634 -3.153,0.28904 -0.42538,0.42539 0.29204,2.9973 -0.28904,3.153 z"
       transform="matrix(-0.07695077,-0.02210567,-0.01942042,0.08759074,132.34163,111.10854)"
       inkscape:spray-origin="#path16" />
    <path
       sodipodi:type="star"
       style="fill:#e5e7eb;fill-opacity:1;stroke:none;stroke-width:6.24959;stroke-linejoin:round;stroke-dasharray:none;stroke-opacity:1"
       id="path52"
       inkscape:flatsided="false"
       sodipodi:sides="6"
       sodipodi:cx="647.09552"
       sodipodi:cy="199.78777"
       sodipodi:r1="4.867784"
       sodipodi:r2="2.1905029"
       sodipodi:arg1="1.3089969"
       sodipodi:arg2="1.8325957"
       inkscape:rounded="0.19"
       inkscape:randomized="0"
       d="m 648.3554,204.48968 c -0.58109,0.1557 -1.24574,-2.43035 -1.82682,-2.58605 -0.58109,-0.1557 -2.44972,1.75156 -2.8751,1.32618 -0.42539,-0.42538 1.48188,-2.29402 1.32618,-2.8751 -0.1557,-0.58108 -2.74176,-1.24574 -2.58606,-1.82682 0.1557,-0.58108 2.72762,0.13634 3.153,-0.28904 0.42538,-0.42539 -0.29204,-2.9973 0.28904,-3.153 0.58109,-0.1557 1.24574,2.43035 1.82682,2.58605 0.58109,0.1557 2.44972,-1.75156 2.8751,-1.32618 0.42539,0.42538 -1.48188,2.29402 -1.32618,2.8751 0.1557,0.58108 2.74176,1.24574 2.58606,1.82682 -0.1557,0.58108 -2.72762,-0.13634 -3.153,0.28904 -0.42538,0.42539 0.29204,2.9973 -0.28904,3.153 z"
       transform="matrix(-0.07695077,-0.02210567,-0.01942042,0.08759074,133.81777,110.51808)"
       inkscape:spray-origin="#path16" />
    <path
       sodipodi:type="star"
       style="fill:#e5e7eb;fill-opacity:1;stroke:none;stroke-width:3.46267;stroke-linejoin:round;stroke-dasharray:none;stroke-opacity:1"
       id="path53"
       inkscape:flatsided="false"
       sodipodi:sides="7"
       sodipodi:cx="647.09552"
       sodipodi:cy="199.78777"
       sodipodi:r1="4.867784"
       sodipodi:r2="1.8497579"
       sodipodi:arg1="1.3089969"
       sodipodi:arg2="1.7577959"
       inkscape:rounded="0.1"
       inkscape:randomized="0"
       d="m 648.3554,204.48968 c -0.31879,0.0854 -1.2795,-2.82305 -1.60377,-2.8844 -0.32428,-0.0614 -2.28116,2.29507 -2.5467,2.09909 -0.26554,-0.19597 1.4094,-2.76049 1.25519,-3.05227 -0.15421,-0.29178 -3.21664,-0.35252 -3.22898,-0.68232 -0.0123,-0.3298 3.03699,-0.61923 3.16896,-0.92172 0.13198,-0.30249 -1.72993,-2.73466 -1.47977,-2.94994 0.25015,-0.21527 2.37765,1.98833 2.69644,1.90292 0.31878,-0.0854 1.05945,-3.05755 1.38373,-2.9962 0.32427,0.0614 -0.0721,3.09864 0.19344,3.29461 0.26554,0.19598 3.05105,-1.07803 3.20526,-0.78625 0.15421,0.29179 -2.46756,1.8756 -2.45522,2.2054 0.0123,0.3298 2.74514,1.71326 2.61317,2.01575 -0.13198,0.30249 -3.0049,-0.75979 -3.25506,-0.54452 -0.25015,0.21527 0.37209,3.21444 0.0533,3.29985 z"
       transform="matrix(-0.08319607,0.12836669,-0.12776237,-0.08358958,167.33239,58.020977)"
       inkscape:spray-origin="#path20" />
    <path
       sodipodi:type="star"
       style="fill:#22d3ee;fill-opacity:1;stroke:none;stroke-width:3.46267;stroke-linejoin:round;stroke-dasharray:none;stroke-opacity:1"
       id="path54"
       inkscape:flatsided="false"
       sodipodi:sides="7"
       sodipodi:cx="647.09552"
       sodipodi:cy="199.78777"
       sodipodi:r1="4.867784"
       sodipodi:r2="1.8497579"
       sodipodi:arg1="1.3089969"
       sodipodi:arg2="1.7577959"
       inkscape:rounded="0.1"
       inkscape:randomized="0"
       d="m 648.3554,204.48968 c -0.31879,0.0854 -1.2795,-2.82305 -1.60377,-2.8844 -0.32428,-0.0614 -2.28116,2.29507 -2.5467,2.09909 -0.26554,-0.19597 1.4094,-2.76049 1.25519,-3.05227 -0.15421,-0.29178 -3.21664,-0.35252 -3.22898,-0.68232 -0.0123,-0.3298 3.03699,-0.61923 3.16896,-0.92172 0.13198,-0.30249 -1.72993,-2.73466 -1.47977,-2.94994 0.25015,-0.21527 2.37765,1.98833 2.69644,1.90292 0.31878,-0.0854 1.05945,-3.05755 1.38373,-2.9962 0.32427,0.0614 -0.0721,3.09864 0.19344,3.29461 0.26554,0.19598 3.05105,-1.07803 3.20526,-0.78625 0.15421,0.29179 -2.46756,1.8756 -2.45522,2.2054 0.0123,0.3298 2.74514,1.71326 2.61317,2.01575 -0.13198,0.30249 -3.0049,-0.75979 -3.25506,-0.54452 -0.25015,0.21527 0.37209,3.21444 0.0533,3.29985 z"
       transform="matrix(-0.08319607,0.12836669,-0.12776237,-0.08358958,165.297,56.990234)"
       inkscape:spray-origin="#path20" />
    <path
       sodipodi:type="star"
       style="fill:#22d3ee;fill-opacity:1;stroke:none;stroke-width:3.46267;stroke-linejoin:round;stroke-dasharray:none;stroke-opacity:1"
       id="path55"
       inkscape:flatsided="false"
       sodipodi:sides="7"
       sodipodi:cx="647.09552"
       sodipodi:cy="199.78777"
       sodipodi:r1="4.867784"
       sodipodi:r2="1.8497579"
       sodipodi:arg1="1.3089969"
       sodipodi:arg2="1.7577959"
       inkscape:rounded="0.1"
       inkscape:randomized="0"
       d="m 648.3554,204.48968 c -0.31879,0.0854 -1.2795,-2.82305 -1.60377,-2.8844 -0.32428,-0.0614 -2.28116,2.29507 -2.5467,2.09909 -0.26554,-0.19597 1.4094,-2.76049 1.25519,-3.05227 -0.15421,-0.29178 -3.21664,-0.35252 -3.22898,-0.68232 -0.0123,-0.3298 3.03699,-0.61923 3.16896,-0.92172 0.13198,-0.30249 -1.72993,-2.73466 -1.47977,-2.94994 0.25015,-0.21527 2.37765,1.98833 2.69644,1.90292 0.31878,-0.0854 1.05945,-3.05755 1.38373,-2.9962 0.32427,0.0614 -0.0721,3.09864 0.19344,3.29461 0.26554,0.19598 3.05105,-1.07803 3.20526,-0.78625 0.15421,0.29179 -2.46756,1.8756 -2.45522,2.2054 0.0123,0.3298 2.74514,1.71326 2.61317,2.01575 -0.13198,0.30249 -3.0049,-0.75979 -3.25506,-0.54452 -0.25015,0.21527 0.37209,3.21444 0.0533,3.29985 z"
       transform="matrix(-0.08319607,0.12836669,-0.12776237,-0.08358958,163.83569,58.660299)"
       inkscape:spray-origin="#path20" />
    <path
       sodipodi:type="star"
       style="fill:#f97316;fill-opacity:1;stroke:none;stroke-width:3.38839;stroke-linejoin:round;stroke-dasharray:none;stroke-opacity:1"
       id="path56"
       inkscape:flatsided="false"
       sodipodi:sides="6"
       sodipodi:cx="647.09552"
       sodipodi:cy="199.78777"
       sodipodi:r1="4.867784"
       sodipodi:r2="2.1905029"
       sodipodi:arg1="1.3089969"
       sodipodi:arg2="1.8325957"
       inkscape:rounded="0.19"
       inkscape:randomized="0"
       d="m 648.3554,204.48968 c -0.58109,0.1557 -1.24574,-2.43035 -1.82682,-2.58605 -0.58109,-0.1557 -2.44972,1.75156 -2.8751,1.32618 -0.42539,-0.42538 1.48188,-2.29402 1.32618,-2.8751 -0.1557,-0.58108 -2.74176,-1.24574 -2.58606,-1.82682 0.1557,-0.58108 2.72762,0.13634 3.153,-0.28904 0.42538,-0.42539 -0.29204,-2.9973 0.28904,-3.153 0.58109,-0.1557 1.24574,2.43035 1.82682,2.58605 0.58109,0.1557 2.44972,-1.75156 2.8751,-1.32618 0.42539,0.42538 -1.48188,2.29402 -1.32618,2.8751 0.1557,0.58108 2.74176,1.24574 2.58606,1.82682 -0.1557,0.58108 -2.72762,-0.13634 -3.153,0.28904 -0.42538,0.42539 0.29204,2.9973 -0.28904,3.153 z"
       transform="matrix(-0.14192907,-0.04077201,-0.03581929,0.16155357,185.29067,119.45075)"
       inkscape:spray-origin="#path16" />
    <path
       sodipodi:type="star"
       style="fill:#e5e7eb;fill-opacity:1;stroke:none;stroke-width:6.95427;stroke-linejoin:round;stroke-dasharray:none;stroke-opacity:1"
       id="path57"
       inkscape:flatsided="false"
       sodipodi:sides="6"
       sodipodi:cx="647.09552"
       sodipodi:cy="199.78777"
       sodipodi:r1="4.867784"
       sodipodi:r2="2.1905029"
       sodipodi:arg1="1.3089969"
       sodipodi:arg2="1.8325957"
       inkscape:rounded="0.19"
       inkscape:randomized="0"
       d="m 648.3554,204.48968 c -0.58109,0.1557 -1.24574,-2.43035 -1.82682,-2.58605 -0.58109,-0.1557 -2.44972,1.75156 -2.8751,1.32618 -0.42539,-0.42538 1.48188,-2.29402 1.32618,-2.8751 -0.1557,-0.58108 -2.74176,-1.24574 -2.58606,-1.82682 0.1557,-0.58108 2.72762,0.13634 3.153,-0.28904 0.42538,-0.42539 -0.29204,-2.9973 0.28904,-3.153 0.58109,-0.1557 1.24574,2.43035 1.82682,2.58605 0.58109,0.1557 2.44972,-1.75156 2.8751,-1.32618 0.42539,0.42538 -1.48188,2.29402 -1.32618,2.8751 0.1557,0.58108 2.74176,1.24574 2.58606,1.82682 -0.1557,0.58108 -2.72762,-0.13634 -3.153,0.28904 -0.42538,0.42539 0.29204,2.9973 -0.28904,3.153 z"
       transform="matrix(-0.06915338,-0.01986571,-0.01745256,0.0787152,135.61133,123.59455)"
       inkscape:spray-origin="#path16" />
    <path
       sodipodi:type="star"
       style="fill:#22d3ee;fill-opacity:1;stroke:none;stroke-width:0.988248;stroke-linejoin:round;stroke-dasharray:none;stroke-opacity:1"
       id="path58"
       inkscape:flatsided="false"
       sodipodi:sides="4"
       sodipodi:cx="647.09552"
       sodipodi:cy="199.78777"
       sodipodi:r1="4.867784"
       sodipodi:r2="2.0444694"
       sodipodi:arg1="1.3089969"
       sodipodi:arg2="2.0943951"
       inkscape:rounded="0.1"
       inkscape:randomized="0"
       d="m 648.3554,204.48968 c -0.35884,0.0961 -1.96039,-2.7456 -2.28211,-2.93135 -0.32173,-0.18575 -3.58354,-0.15185 -3.67969,-0.51069 -0.0961,-0.35884 2.74561,-1.96038 2.93136,-2.28211 0.18575,-0.32172 0.15185,-3.58353 0.51068,-3.67968 0.35884,-0.0961 1.96039,2.74561 2.28211,2.93135 0.32173,0.18575 3.58354,0.15185 3.67969,0.51069 0.0961,0.35884 -2.74561,1.96039 -2.93136,2.28211 -0.18575,0.32172 -0.15185,3.58353 -0.51068,3.67968 z"
       transform="matrix(-0.52066058,-0.11260957,-0.11084271,0.52670792,455.18233,93.812866)"
       inkscape:spray-origin="#path19" />
    <path
       sodipodi:type="star"
       style="fill:#f97316;fill-opacity:1;stroke:none;stroke-width:1.78272;stroke-linejoin:round;stroke-dasharray:none;stroke-opacity:1"
       id="path59"
       inkscape:flatsided="false"
       sodipodi:sides="4"
       sodipodi:cx="647.09552"
       sodipodi:cy="199.78777"
       sodipodi:r1="4.867784"
       sodipodi:r2="2.0444694"
       sodipodi:arg1="1.3089969"
       sodipodi:arg2="2.0943951"
       inkscape:rounded="0.1"
       inkscape:randomized="0"
       d="m 648.3554,204.48968 c -0.35884,0.0961 -1.96039,-2.7456 -2.28211,-2.93135 -0.32173,-0.18575 -3.58354,-0.15185 -3.67969,-0.51069 -0.0961,-0.35884 2.74561,-1.96038 2.93136,-2.28211 0.18575,-0.32172 0.15185,-3.58353 0.51068,-3.67968 0.35884,-0.0961 1.96039,2.74561 2.28211,2.93135 0.32173,0.18575 3.58354,0.15185 3.67969,0.51069 0.0961,0.35884 -2.74561,1.96039 -2.93136,2.28211 -0.18575,0.32172 -0.15185,3.58353 -0.51068,3.67968 z"
       transform="matrix(-0.28862799,0.06242507,-0.06144562,-0.29198033,296.75164,147.48758)"
       inkscape:spray-origin="#path19" />
    <path
       sodipodi:type="star"
       style="fill:#f97316;fill-opacity:1;stroke:none;stroke-width:1.87829;stroke-linejoin:round;stroke-dasharray:none;stroke-opacity:1"
       id="path60"
       inkscape:flatsided="false"
       sodipodi:sides="4"
       sodipodi:cx="647.09552"
       sodipodi:cy="199.78777"
       sodipodi:r1="4.867784"
       sodipodi:r2="2.0444694"
       sodipodi:arg1="1.3089969"
       sodipodi:arg2="2.0943951"
       inkscape:rounded="0.1"
       inkscape:randomized="0"
       d="m 648.3554,204.48968 c -0.35884,0.0961 -1.96039,-2.7456 -2.28211,-2.93135 -0.32173,-0.18575 -3.58354,-0.15185 -3.67969,-0.51069 -0.0961,-0.35884 2.74561,-1.96038 2.93136,-2.28211 0.18575,-0.32172 0.15185,-3.58353 0.51068,-3.67968 0.35884,-0.0961 1.96039,2.74561 2.28211,2.93135 0.32173,0.18575 3.58354,0.15185 3.67969,0.51069 0.0961,0.35884 -2.74561,1.96039 -2.93136,2.28211 -0.18575,0.32172 -0.15185,3.58353 -0.51068,3.67968 z"
       transform="matrix(-0.27394238,0.05924884,-0.05831922,-0.27712415,281.15494,141.62053)"
       inkscape:spray-origin="#path19" />
    <path
       sodipodi:type="star"
       style="fill:#e5e7eb;fill-opacity:1;stroke:none;stroke-width:3.12255;stroke-linejoin:round;stroke-dasharray:none;stroke-opacity:1"
       id="path61"
       inkscape:flatsided="false"
       sodipodi:sides="7"
       sodipodi:cx="647.09552"
       sodipodi:cy="199.78777"
       sodipodi:r1="4.867784"
       sodipodi:r2="1.8497579"
       sodipodi:arg1="1.3089969"
       sodipodi:arg2="1.7577959"
       inkscape:rounded="0.1"
       inkscape:randomized="0"
       d="m 648.3554,204.48968 c -0.31879,0.0854 -1.2795,-2.82305 -1.60377,-2.8844 -0.32428,-0.0614 -2.28116,2.29507 -2.5467,2.09909 -0.26554,-0.19597 1.4094,-2.76049 1.25519,-3.05227 -0.15421,-0.29178 -3.21664,-0.35252 -3.22898,-0.68232 -0.0123,-0.3298 3.03699,-0.61923 3.16896,-0.92172 0.13198,-0.30249 -1.72993,-2.73466 -1.47977,-2.94994 0.25015,-0.21527 2.37765,1.98833 2.69644,1.90292 0.31878,-0.0854 1.05945,-3.05755 1.38373,-2.9962 0.32427,0.0614 -0.0721,3.09864 0.19344,3.29461 0.26554,0.19598 3.05105,-1.07803 3.20526,-0.78625 0.15421,0.29179 -2.46756,1.8756 -2.45522,2.2054 0.0123,0.3298 2.74514,1.71326 2.61317,2.01575 -0.13198,0.30249 -3.0049,-0.75979 -3.25506,-0.54452 -0.25015,0.21527 0.37209,3.21444 0.0533,3.29985 z"
       transform="matrix(0.09225782,0.14234844,0.14167831,-0.0926942,4.8856615,53.875763)"
       inkscape:spray-origin="#path20" />
    <path
       sodipodi:type="star"
       style="fill:#e5e7eb;fill-opacity:1;stroke:none;stroke-width:3.12255;stroke-linejoin:round;stroke-dasharray:none;stroke-opacity:1"
       id="path62"
       inkscape:flatsided="false"
       sodipodi:sides="7"
       sodipodi:cx="647.09552"
       sodipodi:cy="199.78777"
       sodipodi:r1="4.867784"
       sodipodi:r2="1.8497579"
       sodipodi:arg1="1.3089969"
       sodipodi:arg2="1.7577959"
       inkscape:rounded="0.1"
       inkscape:randomized="0"
       d="m 648.3554,204.48968 c -0.31879,0.0854 -1.2795,-2.82305 -1.60377,-2.8844 -0.32428,-0.0614 -2.28116,2.29507 -2.5467,2.09909 -0.26554,-0.19597 1.4094,-2.76049 1.25519,-3.05227 -0.15421,-0.29178 -3.21664,-0.35252 -3.22898,-0.68232 -0.0123,-0.3298 3.03699,-0.61923 3.16896,-0.92172 0.13198,-0.30249 -1.72993,-2.73466 -1.47977,-2.94994 0.25015,-0.21527 2.37765,1.98833 2.69644,1.90292 0.31878,-0.0854 1.05945,-3.05755 1.38373,-2.9962 0.32427,0.0614 -0.0721,3.09864 0.19344,3.29461 0.26554,0.19598 3.05105,-1.07803 3.20526,-0.78625 0.15421,0.29179 -2.46756,1.8756 -2.45522,2.2054 0.0123,0.3298 2.74514,1.71326 2.61317,2.01575 -0.13198,0.30249 -3.0049,-0.75979 -3.25506,-0.54452 -0.25015,0.21527 0.37209,3.21444 0.0533,3.29985 z"
       transform="matrix(0.09225782,0.14234844,0.14167831,-0.0926942,11.214621,52.233554)"
       inkscape:spray-origin="#path20" />
    <path
       sodipodi:type="star"
       style="fill:#22d3ee;fill-opacity:1;stroke:none;stroke-width:5.26752;stroke-linejoin:round;stroke-dasharray:none;stroke-opacity:1"
       id="path63"
       inkscape:flatsided="false"
       sodipodi:sides="6"
       sodipodi:cx="647.09552"
       sodipodi:cy="199.78777"
       sodipodi:r1="4.867784"
       sodipodi:r2="2.1905029"
       sodipodi:arg1="1.3089969"
       sodipodi:arg2="1.8325957"
       inkscape:rounded="0.19"
       inkscape:randomized="0"
       d="m 648.3554,204.48968 c -0.58109,0.1557 -1.24574,-2.43035 -1.82682,-2.58605 -0.58109,-0.1557 -2.44972,1.75156 -2.8751,1.32618 -0.42539,-0.42538 1.48188,-2.29402 1.32618,-2.8751 -0.1557,-0.58108 -2.74176,-1.24574 -2.58606,-1.82682 0.1557,-0.58108 2.72762,0.13634 3.153,-0.28904 0.42538,-0.42539 -0.29204,-2.9973 0.28904,-3.153 0.58109,-0.1557 1.24574,2.43035 1.82682,2.58605 0.58109,0.1557 2.44972,-1.75156 2.8751,-1.32618 0.42539,0.42538 -1.48188,2.29402 -1.32618,2.8751 0.1557,0.58108 2.74176,1.24574 2.58606,1.82682 -0.1557,0.58108 -2.72762,-0.13634 -3.153,0.28904 -0.42538,0.42539 0.29204,2.9973 -0.28904,3.153 z"
       transform="matrix(0.09129738,-0.02622702,0.02304114,0.10392105,31.657221,120.18529)"
       inkscape:spray-origin="#path16" />
    <path
       sodipodi:type="star"
       style="fill:#22d3ee;fill-opacity:1;stroke:none;stroke-width:0.988248;stroke-linejoin:round;stroke-dasharray:none;stroke-opacity:1"
       id="path73"
       inkscape:flatsided="false"
       sodipodi:sides="4"
       sodipodi:cx="647.09552"
       sodipodi:cy="199.78777"
       sodipodi:r1="4.867784"
       sodipodi:r2="2.0444694"
       sodipodi:arg1="1.3089969"
       sodipodi:arg2="2.0943951"
       inkscape:rounded="0.1"
       inkscape:randomized="0"
       d="m 648.3554,204.48968 c -0.35884,0.0961 -1.96039,-2.7456 -2.28211,-2.93135 -0.32173,-0.18575 -3.58354,-0.15185 -3.67969,-0.51069 -0.0961,-0.35884 2.74561,-1.96038 2.93136,-2.28211 0.18575,-0.32172 0.15185,-3.58353 0.51068,-3.67968 0.35884,-0.0961 1.96039,2.74561 2.28211,2.93135 0.32173,0.18575 3.58354,0.15185 3.67969,0.51069 0.0961,0.35884 -2.74561,1.96039 -2.93136,2.28211 -0.18575,0.32172 -0.15185,3.58353 -0.51068,3.67968 z"
       transform="matrix(0.52066058,-0.11260957,0.11084271,0.52670792,-282.83924,95.213481)"
       inkscape:spray-origin="#path19" />
    <path
       sodipodi:type="star"
       style="fill:#f97316;fill-opacity:1;stroke:none;stroke-width:6.24959;stroke-linejoin:round;stroke-dasharray:none;stroke-opacity:1"
       id="path77"
       inkscape:flatsided="false"
       sodipodi:sides="6"
       sodipodi:cx="647.09552"
       sodipodi:cy="199.78777"
       sodipodi:r1="4.867784"
       sodipodi:r2="2.1905029"
       sodipodi:arg1="1.3089969"
       sodipodi:arg2="1.8325957"
       inkscape:rounded="0.19"
       inkscape:randomized="0"
       d="m 648.3554,204.48968 c -0.58109,0.1557 -1.24574,-2.43035 -1.82682,-2.58605 -0.58109,-0.1557 -2.44972,1.75156 -2.8751,1.32618 -0.42539,-0.42538 1.48188,-2.29402 1.32618,-2.8751 -0.1557,-0.58108 -2.74176,-1.24574 -2.58606,-1.82682 0.1557,-0.58108 2.72762,0.13634 3.153,-0.28904 0.42538,-0.42539 -0.29204,-2.9973 0.28904,-3.153 0.58109,-0.1557 1.24574,2.43035 1.82682,2.58605 0.58109,0.1557 2.44972,-1.75156 2.8751,-1.32618 0.42539,0.42538 -1.48188,2.29402 -1.32618,2.8751 0.1557,0.58108 2.74176,1.24574 2.58606,1.82682 -0.1557,0.58108 -2.72762,-0.13634 -3.153,0.28904 -0.42538,0.42539 0.29204,2.9973 -0.28904,3.153 z"
       transform="matrix(-0.07695077,-0.02210567,-0.01942042,0.08759074,132.24983,124.97175)"
       inkscape:spray-origin="#path16" />
    <path
       sodipodi:type="star"
       style="fill:#22d3ee;fill-opacity:1;stroke:none;stroke-width:4.59596;stroke-linejoin:round;stroke-dasharray:none;stroke-opacity:1"
       id="path81"
       inkscape:flatsided="false"
       sodipodi:sides="7"
       sodipodi:cx="647.09552"
       sodipodi:cy="199.78777"
       sodipodi:r1="4.867784"
       sodipodi:r2="1.8497579"
       sodipodi:arg1="1.3089969"
       sodipodi:arg2="1.7577959"
       inkscape:rounded="0.1"
       inkscape:randomized="0"
       d="m 648.3554,204.48968 c -0.31879,0.0854 -1.2795,-2.82305 -1.60377,-2.8844 -0.32428,-0.0614 -2.28116,2.29507 -2.5467,2.09909 -0.26554,-0.19597 1.4094,-2.76049 1.25519,-3.05227 -0.15421,-0.29178 -3.21664,-0.35252 -3.22898,-0.68232 -0.0123,-0.3298 3.03699,-0.61923 3.16896,-0.92172 0.13198,-0.30249 -1.72993,-2.73466 -1.47977,-2.94994 0.25015,-0.21527 2.37765,1.98833 2.69644,1.90292 0.31878,-0.0854 1.05945,-3.05755 1.38373,-2.9962 0.32427,0.0614 -0.0721,3.09864 0.19344,3.29461 0.26554,0.19598 3.05105,-1.07803 3.20526,-0.78625 0.15421,0.29179 -2.46756,1.8756 -2.45522,2.2054 0.0123,0.3298 2.74514,1.71326 2.61317,2.01575 -0.13198,0.30249 -3.0049,-0.75979 -3.25506,-0.54452 -0.25015,0.21527 0.37209,3.21444 0.0533,3.29985 z"
       transform="matrix(0.06268126,-0.09671353,0.09625823,0.06297774,15.580617,179.63957)"
       inkscape:spray-origin="#path20" />
    <path
       sodipodi:type="star"
       style="fill:#f97316;fill-opacity:1;stroke:none;stroke-width:4.59596;stroke-linejoin:round;stroke-dasharray:none;stroke-opacity:1"
       id="path82"
       inkscape:flatsided="false"
       sodipodi:sides="7"
       sodipodi:cx="647.09552"
       sodipodi:cy="199.78777"
       sodipodi:r1="4.867784"
       sodipodi:r2="1.8497579"
       sodipodi:arg1="1.3089969"
       sodipodi:arg2="1.7577959"
       inkscape:rounded="0.1"
       inkscape:randomized="0"
       d="m 648.3554,204.48968 c -0.31879,0.0854 -1.2795,-2.82305 -1.60377,-2.8844 -0.32428,-0.0614 -2.28116,2.29507 -2.5467,2.09909 -0.26554,-0.19597 1.4094,-2.76049 1.25519,-3.05227 -0.15421,-0.29178 -3.21664,-0.35252 -3.22898,-0.68232 -0.0123,-0.3298 3.03699,-0.61923 3.16896,-0.92172 0.13198,-0.30249 -1.72993,-2.73466 -1.47977,-2.94994 0.25015,-0.21527 2.37765,1.98833 2.69644,1.90292 0.31878,-0.0854 1.05945,-3.05755 1.38373,-2.9962 0.32427,0.0614 -0.0721,3.09864 0.19344,3.29461 0.26554,0.19598 3.05105,-1.07803 3.20526,-0.78625 0.15421,0.29179 -2.46756,1.8756 -2.45522,2.2054 0.0123,0.3298 2.74514,1.71326 2.61317,2.01575 -0.13198,0.30249 -3.0049,-0.75979 -3.25506,-0.54452 -0.25015,0.21527 0.37209,3.21444 0.0533,3.29985 z"
       transform="matrix(0.06268126,-0.09671353,0.09625823,0.06297774,16.552637,180.46156)"
       inkscape:spray-origin="#path20" />
    <path
       sodipodi:type="star"
       style="fill:#e5e7eb;fill-opacity:1;stroke:none;stroke-width:4.59596;stroke-linejoin:round;stroke-dasharray:none;stroke-opacity:1"
       id="path83"
       inkscape:flatsided="false"
       sodipodi:sides="7"
       sodipodi:cx="647.09552"
       sodipodi:cy="199.78777"
       sodipodi:r1="4.867784"
       sodipodi:r2="1.8497579"
       sodipodi:arg1="1.3089969"
       sodipodi:arg2="1.7577959"
       inkscape:rounded="0.1"
       inkscape:randomized="0"
       d="m 648.3554,204.48968 c -0.31879,0.0854 -1.2795,-2.82305 -1.60377,-2.8844 -0.32428,-0.0614 -2.28116,2.29507 -2.5467,2.09909 -0.26554,-0.19597 1.4094,-2.76049 1.25519,-3.05227 -0.15421,-0.29178 -3.21664,-0.35252 -3.22898,-0.68232 -0.0123,-0.3298 3.03699,-0.61923 3.16896,-0.92172 0.13198,-0.30249 -1.72993,-2.73466 -1.47977,-2.94994 0.25015,-0.21527 2.37765,1.98833 2.69644,1.90292 0.31878,-0.0854 1.05945,-3.05755 1.38373,-2.9962 0.32427,0.0614 -0.0721,3.09864 0.19344,3.29461 0.26554,0.19598 3.05105,-1.07803 3.20526,-0.78625 0.15421,0.29179 -2.46756,1.8756 -2.45522,2.2054 0.0123,0.3298 2.74514,1.71326 2.61317,2.01575 -0.13198,0.30249 -3.0049,-0.75979 -3.25506,-0.54452 -0.25015,0.21527 0.37209,3.21444 0.0533,3.29985 z"
       transform="matrix(0.06268126,-0.09671353,0.09625823,0.06297774,15.267477,180.78774)"
       inkscape:spray-origin="#path20" />
    <path
       sodipodi:type="star"
       style="fill:#e5e7eb;fill-opacity:1;stroke:none;stroke-width:3.46267;stroke-linejoin:round;stroke-dasharray:none;stroke-opacity:1"
       id="path1"
       inkscape:flatsided="false"
       sodipodi:sides="7"
       sodipodi:cx="647.09552"
       sodipodi:cy="199.78777"
       sodipodi:r1="4.867784"
       sodipodi:r2="1.8497579"
       sodipodi:arg1="1.3089969"
       sodipodi:arg2="1.7577959"
       inkscape:rounded="0.1"
       inkscape:randomized="0"
       d="m 648.3554,204.48968 c -0.31879,0.0854 -1.2795,-2.82305 -1.60377,-2.8844 -0.32428,-0.0614 -2.28116,2.29507 -2.5467,2.09909 -0.26554,-0.19597 1.4094,-2.76049 1.25519,-3.05227 -0.15421,-0.29178 -3.21664,-0.35252 -3.22898,-0.68232 -0.0123,-0.3298 3.03699,-0.61923 3.16896,-0.92172 0.13198,-0.30249 -1.72993,-2.73466 -1.47977,-2.94994 0.25015,-0.21527 2.37765,1.98833 2.69644,1.90292 0.31878,-0.0854 1.05945,-3.05755 1.38373,-2.9962 0.32427,0.0614 -0.0721,3.09864 0.19344,3.29461 0.26554,0.19598 3.05105,-1.07803 3.20526,-0.78625 0.15421,0.29179 -2.46756,1.8756 -2.45522,2.2054 0.0123,0.3298 2.74514,1.71326 2.61317,2.01575 -0.13198,0.30249 -3.0049,-0.75979 -3.25506,-0.54452 -0.25015,0.21527 0.37209,3.21444 0.0533,3.29985 z"
       transform="matrix(0.08319607,0.12836669,0.12776237,-0.08358958,-1.3284566,55.933395)"
       inkscape:spray-origin="#path20" />
    <path
       sodipodi:type="star"
       style="fill:#22d3ee;fill-opacity:1;stroke:none;stroke-width:3.46267;stroke-linejoin:round;stroke-dasharray:none;stroke-opacity:1"
       id="path2"
       inkscape:flatsided="false"
       sodipodi:sides="7"
       sodipodi:cx="647.09552"
       sodipodi:cy="199.78777"
       sodipodi:r1="4.867784"
       sodipodi:r2="1.8497579"
       sodipodi:arg1="1.3089969"
       sodipodi:arg2="1.7577959"
       inkscape:rounded="0.1"
       inkscape:randomized="0"
       d="m 648.3554,204.48968 c -0.31879,0.0854 -1.2795,-2.82305 -1.60377,-2.8844 -0.32428,-0.0614 -2.28116,2.29507 -2.5467,2.09909 -0.26554,-0.19597 1.4094,-2.76049 1.25519,-3.05227 -0.15421,-0.29178 -3.21664,-0.35252 -3.22898,-0.68232 -0.0123,-0.3298 3.03699,-0.61923 3.16896,-0.92172 0.13198,-0.30249 -1.72993,-2.73466 -1.47977,-2.94994 0.25015,-0.21527 2.37765,1.98833 2.69644,1.90292 0.31878,-0.0854 1.05945,-3.05755 1.38373,-2.9962 0.32427,0.0614 -0.0721,3.09864 0.19344,3.29461 0.26554,0.19598 3.05105,-1.07803 3.20526,-0.78625 0.15421,0.29179 -2.46756,1.8756 -2.45522,2.2054 0.0123,0.3298 2.74514,1.71326 2.61317,2.01575 -0.13198,0.30249 -3.0049,-0.75979 -3.25506,-0.54452 -0.25015,0.21527 0.37209,3.21444 0.0533,3.29985 z"
       transform="matrix(0.08319607,0.12836669,0.12776237,-0.08358958,0.70693339,54.902652)"
       inkscape:spray-origin="#path20" />
    <path
       sodipodi:type="star"
       style="fill:#22d3ee;fill-opacity:1;stroke:none;stroke-width:3.46267;stroke-linejoin:round;stroke-dasharray:none;stroke-opacity:1"
       id="path3"
       inkscape:flatsided="false"
       sodipodi:sides="7"
       sodipodi:cx="647.09552"
       sodipodi:cy="199.78777"
       sodipodi:r1="4.867784"
       sodipodi:r2="1.8497579"
       sodipodi:arg1="1.3089969"
       sodipodi:arg2="1.7577959"
       inkscape:rounded="0.1"
       inkscape:randomized="0"
       d="m 648.3554,204.48968 c -0.31879,0.0854 -1.2795,-2.82305 -1.60377,-2.8844 -0.32428,-0.0614 -2.28116,2.29507 -2.5467,2.09909 -0.26554,-0.19597 1.4094,-2.76049 1.25519,-3.05227 -0.15421,-0.29178 -3.21664,-0.35252 -3.22898,-0.68232 -0.0123,-0.3298 3.03699,-0.61923 3.16896,-0.92172 0.13198,-0.30249 -1.72993,-2.73466 -1.47977,-2.94994 0.25015,-0.21527 2.37765,1.98833 2.69644,1.90292 0.31878,-0.0854 1.05945,-3.05755 1.38373,-2.9962 0.32427,0.0614 -0.0721,3.09864 0.19344,3.29461 0.26554,0.19598 3.05105,-1.07803 3.20526,-0.78625 0.15421,0.29179 -2.46756,1.8756 -2.45522,2.2054 0.0123,0.3298 2.74514,1.71326 2.61317,2.01575 -0.13198,0.30249 -3.0049,-0.75979 -3.25506,-0.54452 -0.25015,0.21527 0.37209,3.21444 0.0533,3.29985 z"
       transform="matrix(0.08319607,0.12836669,0.12776237,-0.08358958,2.1682434,56.572717)"
       inkscape:spray-origin="#path20" />
    <path
       sodipodi:type="star"
       style="fill:#f97316;fill-opacity:1;stroke:none;stroke-width:3.38839;stroke-linejoin:round;stroke-dasharray:none;stroke-opacity:1"
       id="path4"
       inkscape:flatsided="false"
       sodipodi:sides="6"
       sodipodi:cx="647.09552"
       sodipodi:cy="199.78777"
       sodipodi:r1="4.867784"
       sodipodi:r2="2.1905029"
       sodipodi:arg1="1.3089969"
       sodipodi:arg2="1.8325957"
       inkscape:rounded="0.19"
       inkscape:randomized="0"
       d="m 648.3554,204.48968 c -0.58109,0.1557 -1.24574,-2.43035 -1.82682,-2.58605 -0.58109,-0.1557 -2.44972,1.75156 -2.8751,1.32618 -0.42539,-0.42538 1.48188,-2.29402 1.32618,-2.8751 -0.1557,-0.58108 -2.74176,-1.24574 -2.58606,-1.82682 0.1557,-0.58108 2.72762,0.13634 3.153,-0.28904 0.42538,-0.42539 -0.29204,-2.9973 0.28904,-3.153 0.58109,-0.1557 1.24574,2.43035 1.82682,2.58605 0.58109,0.1557 2.44972,-1.75156 2.8751,-1.32618 0.42539,0.42538 -1.48188,2.29402 -1.32618,2.8751 0.1557,0.58108 2.74176,1.24574 2.58606,1.82682 -0.1557,0.58108 -2.72762,-0.13634 -3.153,0.28904 -0.42538,0.42539 0.29204,2.9973 -0.28904,3.153 z"
       transform="matrix(0.14192907,-0.04077201,0.03581929,0.16155357,-19.286737,117.36317)"
       inkscape:spray-origin="#path16" />
    <path
       sodipodi:type="star"
       style="fill:#e5e7eb;fill-opacity:1;stroke:none;stroke-width:6.95427;stroke-linejoin:round;stroke-dasharray:none;stroke-opacity:1"
       id="path5"
       inkscape:flatsided="false"
       sodipodi:sides="6"
       sodipodi:cx="647.09552"
       sodipodi:cy="199.78777"
       sodipodi:r1="4.867784"
       sodipodi:r2="2.1905029"
       sodipodi:arg1="1.3089969"
       sodipodi:arg2="1.8325957"
       inkscape:rounded="0.19"
       inkscape:randomized="0"
       d="m 648.3554,204.48968 c -0.58109,0.1557 -1.24574,-2.43035 -1.82682,-2.58605 -0.58109,-0.1557 -2.44972,1.75156 -2.8751,1.32618 -0.42539,-0.42538 1.48188,-2.29402 1.32618,-2.8751 -0.1557,-0.58108 -2.74176,-1.24574 -2.58606,-1.82682 0.1557,-0.58108 2.72762,0.13634 3.153,-0.28904 0.42538,-0.42539 -0.29204,-2.9973 0.28904,-3.153 0.58109,-0.1557 1.24574,2.43035 1.82682,2.58605 0.58109,0.1557 2.44972,-1.75156 2.8751,-1.32618 0.42539,0.42538 -1.48188,2.29402 -1.32618,2.8751 0.1557,0.58108 2.74176,1.24574 2.58606,1.82682 -0.1557,0.58108 -2.72762,-0.13634 -3.153,0.28904 -0.42538,0.42539 0.29204,2.9973 -0.28904,3.153 z"
       transform="matrix(0.06915338,-0.01986571,0.01745256,0.0787152,30.392603,121.50697)"
       inkscape:spray-origin="#path16" />
    <path
       sodipodi:type="star"
       style="fill:#22d3ee;fill-opacity:1;stroke:none;stroke-width:3.46267;stroke-linejoin:round;stroke-dasharray:none;stroke-opacity:1"
       id="path6"
       inkscape:flatsided="false"
       sodipodi:sides="7"
       sodipodi:cx="647.09552"
       sodipodi:cy="199.78777"
       sodipodi:r1="4.867784"
       sodipodi:r2="1.8497579"
       sodipodi:arg1="1.3089969"
       sodipodi:arg2="1.7577959"
       inkscape:rounded="0.1"
       inkscape:randomized="0"
       d="m 648.3554,204.48968 c -0.31879,0.0854 -1.2795,-2.82305 -1.60377,-2.8844 -0.32428,-0.0614 -2.28116,2.29507 -2.5467,2.09909 -0.26554,-0.19597 1.4094,-2.76049 1.25519,-3.05227 -0.15421,-0.29178 -3.21664,-0.35252 -3.22898,-0.68232 -0.0123,-0.3298 3.03699,-0.61923 3.16896,-0.92172 0.13198,-0.30249 -1.72993,-2.73466 -1.47977,-2.94994 0.25015,-0.21527 2.37765,1.98833 2.69644,1.90292 0.31878,-0.0854 1.05945,-3.05755 1.38373,-2.9962 0.32427,0.0614 -0.0721,3.09864 0.19344,3.29461 0.26554,0.19598 3.05105,-1.07803 3.20526,-0.78625 0.15421,0.29179 -2.46756,1.8756 -2.45522,2.2054 0.0123,0.3298 2.74514,1.71326 2.61317,2.01575 -0.13198,0.30249 -3.0049,-0.75979 -3.25506,-0.54452 -0.25015,0.21527 0.37209,3.21444 0.0533,3.29985 z"
       transform="matrix(-0.08319607,-0.12836669,-0.12776237,0.08358958,171.92507,187.01252)"
       inkscape:spray-origin="#path20" />
    <path
       sodipodi:type="star"
       style="fill:#e5e7eb;fill-opacity:1;stroke:none;stroke-width:3.46267;stroke-linejoin:round;stroke-dasharray:none;stroke-opacity:1"
       id="path7"
       inkscape:flatsided="false"
       sodipodi:sides="7"
       sodipodi:cx="647.09552"
       sodipodi:cy="199.78777"
       sodipodi:r1="4.867784"
       sodipodi:r2="1.8497579"
       sodipodi:arg1="1.3089969"
       sodipodi:arg2="1.7577959"
       inkscape:rounded="0.1"
       inkscape:randomized="0"
       d="m 648.3554,204.48968 c -0.31879,0.0854 -1.2795,-2.82305 -1.60377,-2.8844 -0.32428,-0.0614 -2.28116,2.29507 -2.5467,2.09909 -0.26554,-0.19597 1.4094,-2.76049 1.25519,-3.05227 -0.15421,-0.29178 -3.21664,-0.35252 -3.22898,-0.68232 -0.0123,-0.3298 3.03699,-0.61923 3.16896,-0.92172 0.13198,-0.30249 -1.72993,-2.73466 -1.47977,-2.94994 0.25015,-0.21527 2.37765,1.98833 2.69644,1.90292 0.31878,-0.0854 1.05945,-3.05755 1.38373,-2.9962 0.32427,0.0614 -0.0721,3.09864 0.19344,3.29461 0.26554,0.19598 3.05105,-1.07803 3.20526,-0.78625 0.15421,0.29179 -2.46756,1.8756 -2.45522,2.2054 0.0123,0.3298 2.74514,1.71326 2.61317,2.01575 -0.13198,0.30249 -3.0049,-0.75979 -3.25506,-0.54452 -0.25015,0.21527 0.37209,3.21444 0.0533,3.29985 z"
       transform="matrix(-0.08319607,-0.12836669,-0.12776237,0.08358958,169.88968,188.04326)"
       inkscape:spray-origin="#path20" />
    <path
       sodipodi:type="star"
       style="fill:#e5e7eb;fill-opacity:1;stroke:none;stroke-width:3.46267;stroke-linejoin:round;stroke-dasharray:none;stroke-opacity:1"
       id="path8"
       inkscape:flatsided="false"
       sodipodi:sides="7"
       sodipodi:cx="647.09552"
       sodipodi:cy="199.78777"
       sodipodi:r1="4.867784"
       sodipodi:r2="1.8497579"
       sodipodi:arg1="1.3089969"
       sodipodi:arg2="1.7577959"
       inkscape:rounded="0.1"
       inkscape:randomized="0"
       d="m 648.3554,204.48968 c -0.31879,0.0854 -1.2795,-2.82305 -1.60377,-2.8844 -0.32428,-0.0614 -2.28116,2.29507 -2.5467,2.09909 -0.26554,-0.19597 1.4094,-2.76049 1.25519,-3.05227 -0.15421,-0.29178 -3.21664,-0.35252 -3.22898,-0.68232 -0.0123,-0.3298 3.03699,-0.61923 3.16896,-0.92172 0.13198,-0.30249 -1.72993,-2.73466 -1.47977,-2.94994 0.25015,-0.21527 2.37765,1.98833 2.69644,1.90292 0.31878,-0.0854 1.05945,-3.05755 1.38373,-2.9962 0.32427,0.0614 -0.0721,3.09864 0.19344,3.29461 0.26554,0.19598 3.05105,-1.07803 3.20526,-0.78625 0.15421,0.29179 -2.46756,1.8756 -2.45522,2.2054 0.0123,0.3298 2.74514,1.71326 2.61317,2.01575 -0.13198,0.30249 -3.0049,-0.75979 -3.25506,-0.54452 -0.25015,0.21527 0.37209,3.21444 0.0533,3.29985 z"
       transform="matrix(-0.08319607,-0.12836669,-0.12776237,0.08358958,168.42837,186.3732)"
       inkscape:spray-origin="#path20" />
    <path
       sodipodi:type="star"
       style="fill:#22d3ee;fill-opacity:1;stroke:none;stroke-width:3.38839;stroke-linejoin:round;stroke-dasharray:none;stroke-opacity:1"
       id="path9"
       inkscape:flatsided="false"
       sodipodi:sides="6"
       sodipodi:cx="647.09552"
       sodipodi:cy="199.78777"
       sodipodi:r1="4.867784"
       sodipodi:r2="2.1905029"
       sodipodi:arg1="1.3089969"
       sodipodi:arg2="1.8325957"
       inkscape:rounded="0.19"
       inkscape:randomized="0"
       d="m 648.3554,204.48968 c -0.58109,0.1557 -1.24574,-2.43035 -1.82682,-2.58605 -0.58109,-0.1557 -2.44972,1.75156 -2.8751,1.32618 -0.42539,-0.42538 1.48188,-2.29402 1.32618,-2.8751 -0.1557,-0.58108 -2.74176,-1.24574 -2.58606,-1.82682 0.1557,-0.58108 2.72762,0.13634 3.153,-0.28904 0.42538,-0.42539 -0.29204,-2.9973 0.28904,-3.153 0.58109,-0.1557 1.24574,2.43035 1.82682,2.58605 0.58109,0.1557 2.44972,-1.75156 2.8751,-1.32618 0.42539,0.42538 -1.48188,2.29402 -1.32618,2.8751 0.1557,0.58108 2.74176,1.24574 2.58606,1.82682 -0.1557,0.58108 -2.72762,-0.13634 -3.153,0.28904 -0.42538,0.42539 0.29204,2.9973 -0.28904,3.153 z"
       transform="matrix(-0.14192907,0.04077201,-0.03581929,-0.16155357,189.88335,125.58275)"
       inkscape:spray-origin="#path16" />
    <path
       sodipodi:type="star"
       style="fill:#22d3ee;fill-opacity:1;stroke:none;stroke-width:6.95427;stroke-linejoin:round;stroke-dasharray:none;stroke-opacity:1"
       id="path10"
       inkscape:flatsided="false"
       sodipodi:sides="6"
       sodipodi:cx="647.09552"
       sodipodi:cy="199.78777"
       sodipodi:r1="4.867784"
       sodipodi:r2="2.1905029"
       sodipodi:arg1="1.3089969"
       sodipodi:arg2="1.8325957"
       inkscape:rounded="0.19"
       inkscape:randomized="0"
       d="m 648.3554,204.48968 c -0.58109,0.1557 -1.24574,-2.43035 -1.82682,-2.58605 -0.58109,-0.1557 -2.44972,1.75156 -2.8751,1.32618 -0.42539,-0.42538 1.48188,-2.29402 1.32618,-2.8751 -0.1557,-0.58108 -2.74176,-1.24574 -2.58606,-1.82682 0.1557,-0.58108 2.72762,0.13634 3.153,-0.28904 0.42538,-0.42539 -0.29204,-2.9973 0.28904,-3.153 0.58109,-0.1557 1.24574,2.43035 1.82682,2.58605 0.58109,0.1557 2.44972,-1.75156 2.8751,-1.32618 0.42539,0.42538 -1.48188,2.29402 -1.32618,2.8751 0.1557,0.58108 2.74176,1.24574 2.58606,1.82682 -0.1557,0.58108 -2.72762,-0.13634 -3.153,0.28904 -0.42538,0.42539 0.29204,2.9973 -0.28904,3.153 z"
       transform="matrix(-0.06915338,0.01986571,-0.01745256,-0.0787152,140.20401,121.43895)"
       inkscape:spray-origin="#path16" />
  </g>
</svg>
