<?xml version="1.0" encoding="UTF-8" standalone="no" ?>
<!-- Created with Inkscape (http://www.inkscape.org/) -->
<svg
  width="190.44727"
  height="199.45312"
  viewBox="0 0 50.389171 52.771977"
  version="1.1"
  id="svg1"
  inkscape:version="1.4.2 (1:1.4.2+202505120737+ebf0e940d0)"
  sodipodi:docname="telescope.svg"
  xml:space="preserve"
  xmlns:inkscape="http://www.inkscape.org/namespaces/inkscape"
  xmlns:sodipodi="http://sodipodi.sourceforge.net/DTD/sodipodi-0.dtd"
  xmlns="http://www.w3.org/2000/svg"
  xmlns:svg="http://www.w3.org/2000/svg"
><sodipodi:namedview
    id="namedview1"
    pagecolor="#ffffff"
    bordercolor="#000000"
    borderopacity="0.25"
    inkscape:showpageshadow="2"
    inkscape:pageopacity="0.0"
    inkscape:pagecheckerboard="0"
    inkscape:deskcolor="#d1d1d1"
    inkscape:document-units="px"
    inkscape:zoom="2.8284271"
    inkscape:cx="122.50625"
    inkscape:cy="142.65879"
    inkscape:window-width="2560"
    inkscape:window-height="1371"
    inkscape:window-x="0"
    inkscape:window-y="32"
    inkscape:window-maximized="1"
    inkscape:current-layer="svg1"
    showguides="true"
  ><inkscape:page
      x="0"
      y="0"
      width="50.389172"
      height="52.771976"
      id="page1"
      margin="0"
      bleed="0"
    /></sodipodi:namedview><defs id="defs1"><inkscape:path-effect
      effect="fillet_chamfer"
      id="path-effect21"
      is_visible="true"
      lpeversion="1"
      nodesatellites_param="F,0,0,1,0,0,0,1 @ F,0,0,1,0,0,0,1 @ F,0,0,1,0,0,0,1 @ F,0,0,1,0,0,0,1 @ F,0,0,1,0,0,0,1 @ F,0,0,1,0,0,0,1 @ F,0,0,1,0,0,0,1 @ F,0,0,1,0,0,0,1 @ F,0,0,1,0,0,0,1 @ F,0,0,1,0,0,0,1 @ F,0,0,1,0,0,0,1 @ F,0,0,1,0,0,0,1 @ F,0,0,1,0,0,0,1 @ F,0,0,1,0,0,0,1 @ F,0,0,1,0,0,0,1 @ F,0,0,1,0,0,0,1"
      radius="0"
      unit="px"
      method="auto"
      mode="F"
      chamfer_steps="1"
      flexible="false"
      use_knot_distance="true"
      apply_no_radius="true"
      apply_with_radius="true"
      only_selected="false"
      hide_knots="false"
    /></defs><g
    inkscape:label="Layer 1"
    inkscape:groupmode="layer"
    id="layer1"
    transform="translate(-500.46673,-1444.2748)"
  ><path
      id="path426"
      style="fill:#e5e7eb;fill-opacity:1;stroke-width:3.3073"
      d="m 532.37702,1467.2422 -2.69596,0.5731 a 3.232615,3.232615 0 0 1 -3.2241,3.0747 c -1.26022,0 -2.33921,-0.7262 -2.87527,-1.7761 l 2.23139,-0.4759 -3.64423,0.7746 a 0.77801629,0.77801629 0 0 0 0.0656,-0.01 l 0.19534,-0.042 c 0.18126,0.4138 0.41384,0.802 0.70538,1.1405 l -9.7038,26.5415 h 1.55133 l 10.28309,-25.1643 0.48473,25.1643 h 1.33997 l 0.48627,-25.1591 a 0.08378637,0.08378637 0 0 1 0.014,0 l 10.33735,25.1633 h 1.55391 l -9.74411,-26.493 c 0.68568,-0.7755 1.1157,-1.7807 1.1157,-2.8964 0,-0.031 -0.008,-0.059 -0.009,-0.088 z"
    /><path
      id="path18"
      style="opacity:1;fill:#f97316;fill-opacity:1;stroke-width:3.65512;stroke-linejoin:round"
      d="M 530.93567 1467.5488 L 529.68097 1467.8155 A 3.232615 3.232615 0 0 1 526.45688 1470.8902 C 525.19666 1470.8902 524.11766 1470.164 523.5816 1469.1141 L 525.81299 1468.6382 L 522.38064 1469.3678 A 4.4775405 4.4775405 0 0 0 522.38219 1469.3709 L 522.42973 1469.3606 C 522.61099 1469.7744 522.84357 1470.1626 523.13511 1470.5011 L 523.13046 1470.5135 A 4.4775405 4.4775405 0 0 0 526.45791 1471.9951 A 4.4775405 4.4775405 0 0 0 529.74091 1470.5626 L 529.73781 1470.5538 C 530.42349 1469.7783 530.85351 1468.7731 530.85351 1467.6574 C 530.85351 1467.6264 530.84572 1467.5985 530.84472 1467.5695 L 530.93567 1467.5499 A 4.4775405 4.4775405 0 0 0 530.93567 1467.5488 z "
    /><path
      style="fill:#e5e7eb;fill-opacity:1;stroke-width:3.3073"
      d="m 544.4656,1444.2758 c -0.0909,0.01 -0.17841,0.03 -0.262,0.062 l -13.63334,6.5569 -0.64124,-1.691 c -0.10181,-0.2956 -0.44269,-0.4314 -0.71986,-0.2868 l -7.94577,3.9408 c -0.28936,0.1523 -0.42483,0.4926 -0.31936,0.8021 l 0.54058,1.6041 -6.22081,3.0882 c -0.43305,0.1777 -0.56561,0.9326 -0.57572,1.885 l -9.15551,4.253 -0.88522,-2.4345 c -0.15427,-0.4159 -0.61107,-0.634 -1.03146,-0.4924 l -0.97565,0.3358 c -0.41731,0.1444 -0.63932,0.5991 -0.49661,1.017 l 0.93844,2.7115 -2.17506,1.0113 c -0.66855,0.2738 -0.56437,2.2585 0.2341,4.4318 0.79649,2.171 1.98485,3.7097 2.65255,3.4359 l 14.25598,-5.1097 c 0.61388,0.6952 1.1931,1.0281 1.62625,0.8511 l 1.53014,-0.5044 0.10026,0.2729 c 0.13714,0.364 0.52202,0.5708 0.90123,0.4842 l 3.53932,-1.1638 3.75584,-1.2381 2.61845,-0.861 0.91726,-0.3023 c 0.38799,-0.1261 0.59319,-0.5496 0.45165,-0.9322 l -0.10025,-0.2729 16.58606,-5.6606 c 1.33628,-0.5476 1.12705,-4.5147 -0.46715,-8.8599 -1.4943,-4.0712 -3.67483,-7.0304 -5.04259,-6.9324 z m 0.88728,2.3958 c 0.85111,-0.029 2.34829,1.869 3.39256,4.703 1.15887,3.1451 1.36287,5.9723 0.39842,6.3014 -0.82117,0.2803 -2.2888,-1.9168 -3.40289,-4.9397 -1.11408,-3.0229 -1.36002,-5.724 -0.54932,-6.0332 0.0507,-0.019 0.10449,-0.03 0.16123,-0.032 z m -4.44469,0.9983 c -0.0253,1.6676 0.43055,4.0268 1.34307,6.5154 0.90751,2.4728 2.06741,4.5321 3.14555,5.749 l -25.7328,8.5122 c -0.7534,-0.9665 -1.53791,-2.4246 -2.15388,-4.1052 -0.617,-1.6822 -0.96756,-3.3186 -1.02784,-4.5703 z m -26.06198,14.3744 0.0258,0.07 c 0.16518,0.9117 0.44067,1.9271 0.82424,2.9725 0.38346,1.0445 0.82697,1.9881 1.28623,2.7801 l 0.0279,0.078 -13.42863,4.809 c -0.46967,-0.6925 -0.85107,-1.4409 -1.13534,-2.2278 -0.32005,-0.8726 -0.50811,-1.727 -0.58291,-2.4619 l 1.77922,-0.8247 0.75965,2.1962 c 0.14658,0.4179 0.60199,0.6402 1.02164,0.4987 l 5.45031,-1.8448 c 0.41777,-0.1439 0.61011,-0.5857 0.42633,-0.9871 l -0.54156,-1.1823 c -0.19874,-0.4077 -0.66193,-0.6133 -1.09761,-0.4873 l -2.6324,0.8289 c -0.29408,0.087 -0.61239,0.01 -0.83044,-0.2083 z m -1.32343,2.8008 c -0.40552,10e-5 -0.73426,0.3288 -0.73432,0.7343 10e-6,0.4056 0.32876,0.7343 0.73432,0.7344 0.40556,-10e-5 0.73431,-0.3288 0.73432,-0.7344 -6e-5,-0.4055 -0.3288,-0.7342 -0.73432,-0.7343 z"
      id="circle1"
    /><path
      id="path7"
      style="fill:#f97316;fill-opacity:1;stroke-width:3.3073"
      d="m 529.42414,1448.859 c -0.0725,0 -0.14569,0.022 -0.21498,0.058 l -7.94577,3.9408 c -0.28936,0.1523 -0.42483,0.4926 -0.31936,0.8021 l 0.54054,1.604 -0.65164,0.3235 10.74043,-5.1749 -1.00304,0.4822 -0.6413,-1.6909 c -0.0764,-0.2217 -0.28731,-0.3536 -0.50488,-0.3447 z"
    /><path
      id="path17"
      style="fill:#f97316;fill-opacity:1;stroke-width:3.3073"
      d="m 513.52278,1464.8451 c -0.40552,10e-5 -0.73426,0.3288 -0.73432,0.7343 10e-6,0.4056 0.32876,0.7343 0.73432,0.7344 0.40556,-10e-5 0.73431,-0.3288 0.73432,-0.7344 -6e-5,-0.4055 -0.3288,-0.7342 -0.73432,-0.7343 z"
    /><path
      id="path20"
      style="opacity:1;fill:#f97316;fill-opacity:1;stroke-width:2.64583;stroke-linejoin:round"
      d="M 514.57388 1493.9172 L 513.43131 1497.0426 L 514.98264 1497.0426 L 516.25956 1493.9172 L 514.57388 1493.9172 z M 525.69051 1493.9172 L 525.75046 1497.0426 L 527.09043 1497.0426 L 527.15089 1493.9172 L 525.69051 1493.9172 z M 536.6423 1493.9172 L 537.92801 1497.0468 L 539.48192 1497.0468 L 538.33109 1493.9172 L 536.6423 1493.9172 z "
    /><path
      id="path22"
      style="opacity:1;fill:#f97316;fill-opacity:1;stroke-width:2.64583;stroke-linejoin:round"
      d="M 503.85412 1461.5203 C 503.77498 1461.5226 503.69471 1461.5366 503.61589 1461.5632 L 502.64024 1461.899 C 502.22293 1462.0434 502.00092 1462.4981 502.14363 1462.916 L 502.29969 1463.3667 L 503.64173 1467.2398 L 503.64276 1467.2393 L 504.40241 1469.4355 C 504.54899 1469.8534 505.0044 1470.0757 505.42405 1469.9342 L 510.87436 1468.0894 C 511.29213 1467.9455 511.48447 1467.5037 511.30069 1467.1023 L 510.75913 1465.92 C 510.56039 1465.5123 510.0972 1465.3067 509.66152 1465.4327 L 507.02912 1466.2616 C 506.81086 1466.3261 506.57929 1466.3002 506.38523 1466.1934 L 506.38472 1466.1934 L 506.3842 1466.1928 C 506.3174 1466.1559 506.25499 1466.1096 506.1992 1466.0538 L 506.19868 1466.0533 L 505.53257 1464.4901 L 504.64735 1462.0556 C 504.52198 1461.7178 504.19707 1461.5102 503.85412 1461.5203 z "
    /></g></svg>
