<?xml version="1.0" encoding="UTF-8" standalone="no"?>
<!-- Created with Inkscape (http://www.inkscape.org/) -->

<svg
   width="32.000015"
   height="32"
   viewBox="0 0 8.4666705 8.4666674"
   version="1.1"
   id="svg1"
   inkscape:version="1.4.2 (1:1.4.2+202505120737+ebf0e940d0)"
   sodipodi:docname="home_page.svg"
   xml:space="preserve"
   xmlns:inkscape="http://www.inkscape.org/namespaces/inkscape"
   xmlns:sodipodi="http://sodipodi.sourceforge.net/DTD/sodipodi-0.dtd"
   xmlns="http://www.w3.org/2000/svg"
   xmlns:svg="http://www.w3.org/2000/svg"><sodipodi:namedview
     id="namedview1"
     pagecolor="#ffffff"
     bordercolor="#000000"
     borderopacity="0.25"
     inkscape:showpageshadow="2"
     inkscape:pageopacity="0.0"
     inkscape:pagecheckerboard="0"
     inkscape:deskcolor="#d1d1d1"
     inkscape:document-units="px"
     inkscape:zoom="0.20063165"
     inkscape:cx="-112.14582"
     inkscape:cy="3152.5435"
     inkscape:window-width="2560"
     inkscape:window-height="1371"
     inkscape:window-x="0"
     inkscape:window-y="32"
     inkscape:window-maximized="1"
     inkscape:current-layer="svg1"
     showguides="false"><sodipodi:guide
       position="-1.6312253e-06,1031.5048"
       orientation="1,0"
       id="guide98"
       inkscape:locked="false" /><sodipodi:guide
       position="270.09933,1156.5948"
       orientation="1,0"
       id="guide99"
       inkscape:locked="false" /><sodipodi:guide
       position="189.9791,1057.662"
       orientation="0,-1"
       id="guide100"
       inkscape:locked="false" /><sodipodi:guide
       position="213.51307,972.47814"
       orientation="0,-1"
       id="guide101"
       inkscape:locked="false" /><sodipodi:guide
       position="134.87471,710.03314"
       orientation="-0.70710678,-0.70710678"
       id="guide142"
       inkscape:locked="false" /><sodipodi:guide
       position="134.87471,647.82724"
       orientation="0,-1"
       id="guide205"
       inkscape:locked="false" /><sodipodi:guide
       position="191.76582,709.45944"
       orientation="0,-1"
       id="guide365"
       inkscape:locked="false" /><sodipodi:guide
       position="613.21237,609.21255"
       orientation="0,-1"
       id="guide374"
       inkscape:locked="false" /><sodipodi:guide
       position="617.23135,549.03015"
       orientation="0,-1"
       id="guide375"
       inkscape:locked="false" /><inkscape:page
       x="0"
       y="0"
       width="8.46667"
       height="8.4666672"
       id="page1"
       margin="0"
       bleed="0" /></sodipodi:namedview><defs
     id="defs1" /><g
     inkscape:label="Layer 1"
     inkscape:groupmode="layer"
     id="layer1"
     transform="translate(-383.12527,-1437.816)"><path
       d="m 387.35913,1437.8161 c 2.33777,0 4.23281,1.943 4.23281,4.3403 0,1.9173 -1.21144,3.5436 -2.89228,4.1182 -0.2146,0.043 -0.29079,-0.093 -0.29079,-0.2084 0,-0.1431 0.005,-0.6103 0.005,-1.1912 0,-0.4047 -0.13544,-0.6687 -0.28742,-0.8034 0.94265,-0.108 1.93313,-0.4745 1.93313,-2.1415 0,-0.4742 -0.16423,-0.8612 -0.43597,-1.1651 0.044,-0.1093 0.18919,-0.5513 -0.0415,-1.1489 0,0 -0.35471,-0.116 -1.16275,0.4448 -0.33821,-0.096 -0.70054,-0.1442 -1.06032,-0.146 -0.35979,0 -0.72169,0.049 -1.05946,0.146 -0.80889,-0.5612 -1.16445,-0.4448 -1.16445,-0.4448 -0.22983,0.5976 -0.0847,1.0393 -0.0411,1.1489 -0.27047,0.3039 -0.43599,0.6909 -0.43599,1.1651 0,1.6627 0.98837,2.0352 1.92848,2.1448 -0.12106,0.108 -0.2307,0.2997 -0.26879,0.5803 -0.24128,0.1107 -0.85417,0.3027 -1.23176,-0.3605 0,0 -0.2239,-0.417 -0.64887,-0.4475 0,0 -0.41272,0 -0.0288,0.2637 0,0 0.27725,0.1334 0.46984,0.635 0,0 0.24846,0.7747 1.42603,0.5122 0.003,0.3627 0.005,0.7049 0.005,0.8081 0,0.1146 -0.0779,0.2489 -0.2891,0.2088 -1.6821,-0.5736 -2.8948,-2.2009 -2.8948,-4.1186 0,-2.3973 1.89544,-4.3403 4.23278,-4.3403"
       id="github-[#142]"
       style="display:inline;fill:#9ca3af;fill-opacity:1;fill-rule:evenodd;stroke:none;stroke-width:10.5833" /></g></svg>
