<?xml version="1.0" encoding="UTF-8" standalone="no"?>
<!-- Uploaded to: SVG Repo, www.svgrepo.com, Generator: SVG Repo Mixer Tools -->

<svg
   fill="#000000"
   width="749.77777"
   height="739.91162"
   viewBox="0 0 29.991111 29.596465"
   version="1.1"
   id="svg1"
   sodipodi:docname="inkscape-svgrepo-com.svg"
   inkscape:version="1.4.2 (1:1.4.2+202505120737+ebf0e940d0)"
   xmlns:inkscape="http://www.inkscape.org/namespaces/inkscape"
   xmlns:sodipodi="http://sodipodi.sourceforge.net/DTD/sodipodi-0.dtd"
   xmlns="http://www.w3.org/2000/svg"
   xmlns:svg="http://www.w3.org/2000/svg"
   xmlns:rdf="http://www.w3.org/1999/02/22-rdf-syntax-ns#"
   xmlns:cc="http://creativecommons.org/ns#"
   xmlns:dc="http://purl.org/dc/elements/1.1/">
  <defs
     id="defs1" />
  <sodipodi:namedview
     id="namedview1"
     pagecolor="#ffffff"
     bordercolor="#000000"
     borderopacity="0.25"
     inkscape:showpageshadow="2"
     inkscape:pageopacity="0.0"
     inkscape:pagecheckerboard="0"
     inkscape:deskcolor="#d1d1d1"
     inkscape:zoom="0.83615377"
     inkscape:cx="316.32938"
     inkscape:cy="557.91174"
     inkscape:window-width="2560"
     inkscape:window-height="1371"
     inkscape:window-x="0"
     inkscape:window-y="32"
     inkscape:window-maximized="1"
     inkscape:current-layer="svg1" />
  <title
     id="title1">inkscape</title>
  <path
     d="m 24.427522,24.009 c -1.263,1.135 0.142,2.284 1.388,1.552 0.277,-0.281 -0.008,-1.27 -1.387,-1.552 z M 6.2925225,25.841 c 0.98,0.849 2.496,-0.211 2.949,-1.395 -0.95,-1.262 -4.507,0.046 -2.949,1.395 z M 24.947522,22.854 c 0,0.562 4.141,0.931 4.141,-0.132 -0.397,-0.733 -1.16,-1.222 -2.038,-1.222 -0.929,0 -1.731,0.549 -2.097,1.34 z M 12.229522,1.016 1.1575225,12.345 c -3.74,4.632 2.547,4.094 5.241,5.427 0.967,0.988 -3.705,1.718 -2.738,2.707 0.966,0.988 5.846,1.904 6.8139995,2.892 0.966,0.988 -1.9789995,2.037 -1.0119995,3.024 0.9659995,0.99 3.2029995,0.052 3.6209995,2.334 0.297,1.63 4.029,0.7 5.853,-0.635 0.967,-0.988 -1.849,-0.896 -0.882,-1.884 2.403,-2.458 4.642,-0.892 5.465,-3.357 0.406,-1.217 -3.539,-1.876 -2.571,-2.864 2.782,-1.625 12.395,-2.682 7.833,-7.243 l -11.474,-11.73 c -0.659,-0.629 -1.554,-1.016 -2.539,-1.016 -0.985,0 -1.88,0.387 -2.54,1.017 z m 4.408,0.796 4.38,4.449 c 0.207,0.229 0.333,0.533 0.333,0.868 0,0.226 -0.058,0.438 -0.159,0.623 l 0.003,-0.007 -2.174,-1.739 -0.427,2.576 -1.818,-0.959 -2.909,1.837 -0.963,-3.874 -1.563,2.704 H 8.9495225 c -0.975,0 -1.088,-1.237 -0.204,-2.122 C 10.291522,4.5 12.065522,2.799 13.030522,1.813 c 0.466,-0.453 1.102,-0.732 1.804,-0.732 0.702,0 1.338,0.279 1.804,0.733 l -10e-4,-0.001 z M 9.5805225,18.388 c 0.296,0.184 4.7709995,1.093 5.8649995,1.275 0.379,0.08 0.11,0.47 -0.412,0.734 -1.178,0.314 -6.8939995,-2.008 -5.4519995,-2.008 z"
     id="path1"
     style="fill:#9ca3af;fill-opacity:1" />
  <metadata
     id="metadata1">
    <rdf:RDF>
      <cc:Work
         rdf:about="">
        <dc:title>inkscape</dc:title>
      </cc:Work>
    </rdf:RDF>
  </metadata>
</svg>
