<?xml version="1.0" encoding="UTF-8" standalone="no" ?>
<!-- Created with Inkscape (http://www.inkscape.org/) -->
<svg
  width="1200"
  height="675"
  viewBox="0 0 317.49999 178.59375"
  version="1.1"
  id="svg1"
  inkscape:version="1.4.3 (0d15f75042, 2025-12-25)"
  sodipodi:docname="coverImage.svg"
  xml:space="preserve"
  xmlns:inkscape="http://www.inkscape.org/namespaces/inkscape"
  xmlns:sodipodi="http://sodipodi.sourceforge.net/DTD/sodipodi-0.dtd"
  xmlns:xlink="http://www.w3.org/1999/xlink"
  xmlns="http://www.w3.org/2000/svg"
  xmlns:svg="http://www.w3.org/2000/svg"
><sodipodi:namedview
    id="namedview1"
    pagecolor="#ffffff"
    bordercolor="#000000"
    borderopacity="0.25"
    inkscape:showpageshadow="2"
    inkscape:pageopacity="0.0"
    inkscape:pagecheckerboard="0"
    inkscape:deskcolor="#d1d1d1"
    inkscape:document-units="px"
    inkscape:zoom="0.69259259"
    inkscape:cx="503.18182"
    inkscape:cy="449.75936"
    inkscape:window-width="2560"
    inkscape:window-height="1371"
    inkscape:window-x="0"
    inkscape:window-y="0"
    inkscape:window-maximized="1"
    inkscape:current-layer="layer1"
    showguides="true"
    showgrid="false"
  /><defs id="defs1"><inkscape:path-effect
      effect="bspline"
      id="path-effect22"
      is_visible="true"
      lpeversion="1.3"
      weight="33.333333"
      steps="2"
      helper_size="0"
      apply_no_weight="true"
      apply_with_weight="true"
      only_selected="false"
      uniform="false"
    /><inkscape:path-effect
      effect="bspline"
      id="path-effect20"
      is_visible="true"
      lpeversion="1.3"
      weight="33.333333"
      steps="2"
      helper_size="0"
      apply_no_weight="true"
      apply_with_weight="true"
      only_selected="false"
      uniform="false"
    /><inkscape:path-effect
      effect="bspline"
      id="path-effect17"
      is_visible="true"
      lpeversion="1.3"
      weight="33.333333"
      steps="2"
      helper_size="0"
      apply_no_weight="true"
      apply_with_weight="true"
      only_selected="false"
      uniform="false"
    /><inkscape:path-effect
      effect="bspline"
      id="path-effect14"
      is_visible="true"
      lpeversion="1.3"
      weight="33.333333"
      steps="2"
      helper_size="0"
      apply_no_weight="true"
      apply_with_weight="true"
      only_selected="false"
      uniform="false"
    /><inkscape:path-effect
      effect="bspline"
      id="path-effect11"
      is_visible="true"
      lpeversion="1.3"
      weight="33.333333"
      steps="2"
      helper_size="0"
      apply_no_weight="true"
      apply_with_weight="true"
      only_selected="false"
      uniform="false"
    /><linearGradient id="linearGradient8" inkscape:collect="always"><stop
        style="stop-color:#ffffff;stop-opacity:0;"
        offset="0"
        id="stop6"
      /><stop style="stop-color:#787878;stop-opacity:0.65882353;" offset="0.50999999" id="stop8" /><stop
        style="stop-color:#333333;stop-opacity:1;"
        offset="1"
        id="stop7"
      /></linearGradient><marker
      style="overflow:visible"
      id="marker9"
      refX="0"
      refY="0"
      orient="auto-start-reverse"
      inkscape:stockid="Wide arrow"
      markerWidth="1"
      markerHeight="1"
      viewBox="0 0 1 1"
      inkscape:isstock="true"
      inkscape:collect="always"
      preserveAspectRatio="xMidYMid"
    ><path
        style="fill:none;stroke:context-stroke;stroke-width:1;stroke-linecap:butt"
        d="M 3,-3 0,0 3,3"
        transform="rotate(180,0.125,0)"
        sodipodi:nodetypes="ccc"
        id="path9"
      /></marker><inkscape:path-effect
      effect="bspline"
      id="path-effect8"
      is_visible="true"
      lpeversion="1.3"
      weight="33.333333"
      steps="2"
      helper_size="0"
      apply_no_weight="true"
      apply_with_weight="true"
      only_selected="false"
      uniform="false"
    /><rect x="25.576399" y="-1069.4723" width="863.20447" height="542.86292" id="rect22-5" /><linearGradient
      id="paint0_linear_87_8204"
      x1="12.4809"
      y1="2"
      x2="12.4809"
      y2="22.7407"
      gradientUnits="userSpaceOnUse"
    ><stop stop-color="#327EBD" id="stop2-2" /><stop
        offset="1"
        stop-color="#1565A7"
        id="stop3-7"
      /></linearGradient><linearGradient
      id="paint1_linear_87_8204"
      x1="19.519"
      y1="9.25928"
      x2="19.519"
      y2="30"
      gradientUnits="userSpaceOnUse"
    ><stop stop-color="#FFDA4B" id="stop4" /><stop offset="1" stop-color="#F9C600" id="stop5" /></linearGradient><filter
      inkscape:collect="always"
      style="color-interpolation-filters:sRGB"
      id="filter29"
      x="-0.057638877"
      y="-0.050475942"
      width="1.1152778"
      height="1.1009519"
    ><feGaussianBlur inkscape:collect="always" stdDeviation="1.8213839" id="feGaussianBlur29" /></filter><linearGradient
      inkscape:collect="always"
      xlink:href="#linearGradient8"
      id="linearGradient1"
      gradientUnits="userSpaceOnUse"
      x1="-317.79232"
      y1="486.05109"
      x2="-222.95312"
      y2="486.05109"
    /><linearGradient
      inkscape:collect="always"
      xlink:href="#linearGradient8"
      id="linearGradient12"
      gradientUnits="userSpaceOnUse"
      x1="-317.79232"
      y1="486.05109"
      x2="-222.95312"
      y2="486.05109"
    /><linearGradient
      inkscape:collect="always"
      xlink:href="#linearGradient8"
      id="linearGradient14"
      gradientUnits="userSpaceOnUse"
      x1="-317.79232"
      y1="486.05109"
      x2="-222.95312"
      y2="486.05109"
    /><linearGradient
      inkscape:collect="always"
      xlink:href="#linearGradient8"
      id="linearGradient17"
      gradientUnits="userSpaceOnUse"
      x1="-317.79232"
      y1="486.05109"
      x2="-222.95312"
      y2="486.05109"
    /><linearGradient
      inkscape:collect="always"
      xlink:href="#linearGradient8"
      id="linearGradient20"
      gradientUnits="userSpaceOnUse"
      x1="-317.79232"
      y1="486.05109"
      x2="-222.95312"
      y2="486.05109"
    /><linearGradient
      inkscape:collect="always"
      xlink:href="#linearGradient8"
      id="linearGradient22"
      gradientUnits="userSpaceOnUse"
      x1="-317.79232"
      y1="486.05109"
      x2="-222.95312"
      y2="486.05109"
    /></defs><g inkscape:label="Layer 1" inkscape:groupmode="layer" id="layer1"><rect
      style="fill:#ffffff;fill-opacity:1;stroke-width:0.163031;stroke-linejoin:round"
      id="rect1-3"
      width="317.49997"
      height="178.59375"
      x="1.2758789e-05"
      y="7.3508852e-07"
    /><g
      id="SVGRepo_bgCarrier-32"
      stroke-width="0"
      transform="matrix(0.16536457,0,0,0.16536457,203.68216,-29.360327)"
    /><g
      id="SVGRepo_tracerCarrier-06"
      stroke-linecap="round"
      stroke-linejoin="round"
      transform="matrix(0.16536457,0,0,0.16536457,203.68216,-29.360327)"
      style="stroke-width:1.6"
    /><g
      id="SVGRepo_bgCarrier-56"
      stroke-width="0"
      transform="matrix(0.16536457,0,0,0.16536457,220.71471,-28.533502)"
    /><g
      id="SVGRepo_tracerCarrier-93"
      stroke-linecap="round"
      stroke-linejoin="round"
      transform="matrix(0.16536457,0,0,0.16536457,220.71471,-28.533502)"
      style="stroke-width:1.6"
    /><g id="SVGRepo_bgCarrier" stroke-width="0" transform="matrix(0.87026954,0,0,0.87026954,740.02361,-121.28636)" /><g
      id="SVGRepo_tracerCarrier"
      stroke-linecap="round"
      stroke-linejoin="round"
      transform="matrix(0.87026954,0,0,0.87026954,740.02361,-121.28636)"
      style="stroke-width:0.304024"
    /><g
      id="SVGRepo_bgCarrier-6"
      stroke-width="0"
      transform="matrix(0.05767074,0,0,0.05767074,684.30209,-125.88621)"
    /><g
      id="SVGRepo_tracerCarrier-2"
      stroke-linecap="round"
      stroke-linejoin="round"
      transform="matrix(0.05767074,0,0,0.05767074,684.30209,-125.88621)"
      style="stroke-width:4.58782"
    /><g
      id="SVGRepo_bgCarrier-9"
      stroke-width="0"
      transform="matrix(0.03173234,0,0,0.03173234,729.95466,-89.996653)"
    /><g
      id="SVGRepo_tracerCarrier-3"
      stroke-linecap="round"
      stroke-linejoin="round"
      transform="matrix(0.03173234,0,0,0.03173234,729.95466,-89.996653)"
      style="stroke-width:8.33797"
    /><g
      id="SVGRepo_bgCarrier-62"
      stroke-width="0"
      transform="matrix(0.16536457,0,0,0.16536457,552.62196,-64.847099)"
    /><g
      id="SVGRepo_tracerCarrier-6"
      stroke-linecap="round"
      stroke-linejoin="round"
      transform="matrix(0.16536457,0,0,0.16536457,552.62196,-64.847099)"
      style="stroke-width:1.6"
    /><g
      id="SVGRepo_bgCarrier-2"
      stroke-width="0"
      transform="matrix(0.05461136,0,0,0.05461136,696.39927,-65.763811)"
    /><g
      id="SVGRepo_tracerCarrier-28"
      stroke-linecap="round"
      stroke-linejoin="round"
      transform="matrix(0.05461136,0,0,0.05461136,696.39927,-65.763811)"
      style="stroke-width:4.84483"
    /><g id="SVGRepo_bgCarrier-61" stroke-width="0" transform="matrix(1.3011534,0,0,1.3011534,982.2891,-132.74542)" /><g
      id="SVGRepo_tracerCarrier-5"
      stroke-linecap="round"
      stroke-linejoin="round"
      transform="matrix(1.3011534,0,0,1.3011534,982.2891,-132.74542)"
      style="stroke-width:0.203346"
    /><g id="SVGRepo_bgCarrier-3" stroke-width="0" transform="matrix(0.6160333,0,0,0.6160333,972.8221,-132.73152)" /><g
      id="SVGRepo_tracerCarrier-7"
      stroke-linecap="round"
      stroke-linejoin="round"
      transform="matrix(0.6160333,0,0,0.6160333,972.8221,-132.73152)"
      style="stroke-width:3.33664"
    /><g id="SVGRepo_bgCarrier-0" stroke-width="0" transform="matrix(1.1548669,0,0,1.1548669,1016.035,-120.55471)" /><g
      id="SVGRepo_tracerCarrier-6-5"
      stroke-linecap="round"
      stroke-linejoin="round"
      transform="matrix(1.1548669,0,0,1.1548669,1016.035,-120.55471)"
      style="stroke-width:0.229102"
    /><g
      id="SVGRepo_bgCarrier-9-4"
      stroke-width="0"
      transform="matrix(0.98224441,0,0,0.98224441,1044.4157,-124.04385)"
    /><g
      id="SVGRepo_tracerCarrier-2-7"
      stroke-linecap="round"
      stroke-linejoin="round"
      transform="matrix(0.98224441,0,0,0.98224441,1044.4157,-124.04385)"
      style="stroke-width:0.269366"
    /><g
      id="SVGRepo_bgCarrier-97"
      stroke-width="0"
      transform="matrix(0.88084385,0,0,0.88084385,954.99367,-122.91675)"
    /><g
      id="SVGRepo_tracerCarrier-3-6"
      stroke-linecap="round"
      stroke-linejoin="round"
      transform="matrix(0.88084385,0,0,0.88084385,954.99367,-122.91675)"
      style="stroke-width:3.33664"
    /><g
      id="SVGRepo_bgCarrier-94"
      stroke-width="0"
      transform="matrix(1.4099297,0,0,1.4099297,900.75924,-150.98317)"
    /><g
      id="SVGRepo_tracerCarrier-78"
      stroke-linecap="round"
      stroke-linejoin="round"
      transform="matrix(1.4099297,0,0,1.4099297,900.75924,-150.98317)"
      style="stroke-width:0.187658"
    /><g id="SVGRepo_bgCarrier-1" stroke-width="0" transform="matrix(1.1738348,0,0,1.1738348,901.42117,-128.84974)" /><g
      id="SVGRepo_tracerCarrier-0"
      stroke-linecap="round"
      stroke-linejoin="round"
      transform="matrix(1.1738348,0,0,1.1738348,901.42117,-128.84974)"
      style="stroke-width:0.225402"
    /><g id="SVGRepo_bgCarrier-5" stroke-width="0" transform="matrix(1.3090047,0,0,1.3090047,872.86446,-142.63672)" /><g
      id="SVGRepo_tracerCarrier-4"
      stroke-linecap="round"
      stroke-linejoin="round"
      transform="matrix(1.3090047,0,0,1.3090047,872.86446,-142.63672)"
      style="stroke-width:0.202125"
    /><g
      id="SVGRepo_bgCarrier-4"
      stroke-width="0"
      transform="matrix(0.26120795,0,0,0.26120795,1048.582,-168.87766)"
    /><g
      id="SVGRepo_tracerCarrier-43"
      stroke-linecap="round"
      stroke-linejoin="round"
      transform="matrix(0.26120795,0,0,0.26120795,1048.582,-168.87766)"
      style="stroke-width:1.01292"
    /><g
      id="SVGRepo_bgCarrier-06"
      stroke-width="0"
      transform="matrix(0.16536457,0,0,0.16536457,684.98322,-128.64711)"
    /><g
      id="SVGRepo_tracerCarrier-8"
      stroke-linecap="round"
      stroke-linejoin="round"
      transform="matrix(0.16536457,0,0,0.16536457,684.98322,-128.64711)"
      style="stroke-width:1.6"
    /><text
      xml:space="preserve"
      transform="matrix(0.16536457,0,0,0.16536457,152.74988,-150.40719)"
      id="text18"
      style="font-weight:500;font-size:48px;line-height:1.2;font-family:Inter;-inkscape-font-specification:'Inter Medium';writing-mode:lr-tb;direction:ltr;white-space:pre;shape-inside:url(#rect22-5);display:inline;fill:#ffffff;stroke:none;stroke-width:4.8;stroke-linecap:square"
    /><g
      id="SVGRepo_bgCarrier-062"
      stroke-width="0"
      transform="matrix(0.16536457,0,0,0.16536457,396.23813,-42.958251)"
    /><g
      id="SVGRepo_tracerCarrier-61"
      stroke-linecap="round"
      stroke-linejoin="round"
      transform="matrix(0.16536457,0,0,0.16536457,396.23813,-42.958251)"
      style="stroke-width:1.6"
    /><g
      id="SVGRepo_bgCarrier-8"
      stroke-width="0"
      transform="matrix(0.16536457,0,0,0.16536457,384.67983,-56.00125)"
    /><g
      id="SVGRepo_tracerCarrier-79"
      stroke-linecap="round"
      stroke-linejoin="round"
      transform="matrix(0.16536457,0,0,0.16536457,384.67983,-56.00125)"
      style="stroke-width:1.6"
    /><g
      id="SVGRepo_bgCarrier-23"
      stroke-width="0"
      transform="matrix(0.16536457,0,0,0.16536457,391.90206,-55.608875)"
    /><g
      id="SVGRepo_tracerCarrier-75"
      stroke-linecap="round"
      stroke-linejoin="round"
      transform="matrix(0.16536457,0,0,0.16536457,391.90206,-55.608875)"
      style="stroke-width:1.6"
    /><g
      id="SVGRepo_bgCarrier-612"
      stroke-width="0"
      transform="matrix(0.16536457,0,0,0.16536457,397.1587,-53.668919)"
    /><g
      id="SVGRepo_tracerCarrier-9"
      stroke-linecap="round"
      stroke-linejoin="round"
      transform="matrix(0.16536457,0,0,0.16536457,397.1587,-53.668919)"
      style="stroke-width:1.6"
    /><g
      id="SVGRepo_bgCarrier-12"
      stroke-width="0"
      transform="matrix(0.01667396,0,0,0.01667396,283.47137,-72.237686)"
    /><g
      id="SVGRepo_tracerCarrier-70"
      stroke-linecap="round"
      stroke-linejoin="round"
      transform="matrix(0.01667396,0,0,0.01667396,283.47137,-72.237686)"
      style="stroke-width:15.868"
    /><g
      id="SVGRepo_bgCarrier-618"
      stroke-width="0"
      transform="matrix(0.16536457,0,0,0.16536457,301.04922,-110.44964)"
      style="fill:#000000;fill-opacity:1"
    /><g
      id="SVGRepo_tracerCarrier-792"
      stroke-linecap="round"
      stroke-linejoin="round"
      transform="matrix(0.16536457,0,0,0.16536457,301.04922,-110.44964)"
      style="fill:#000000;fill-opacity:1;stroke-width:1.6"
    /><g
      id="SVGRepo_bgCarrier-7"
      stroke-width="0"
      transform="matrix(0.09356868,0,0,0.09356868,286.83877,-26.240171)"
    /><g
      id="SVGRepo_tracerCarrier-59"
      stroke-linecap="round"
      stroke-linejoin="round"
      transform="matrix(0.09356868,0,0,0.09356868,286.83877,-26.240171)"
      style="stroke-width:2.8277"
    /><g
      id="SVGRepo_bgCarrier-47"
      stroke-width="0"
      transform="matrix(-0.021847,0,0,0.021847,283.83415,-31.17029)"
      style="fill:#333333;fill-opacity:1"
    /><g
      id="SVGRepo_tracerCarrier-84"
      stroke-linecap="round"
      stroke-linejoin="round"
      transform="matrix(-0.021847,0,0,0.021847,283.83415,-31.17029)"
      style="fill:#333333;fill-opacity:1;stroke-width:12.1107"
    /><g
      id="SVGRepo_bgCarrier-562"
      stroke-width="0"
      transform="matrix(0.04237333,0,0,0.04237333,-19.894439,-27.423715)"
      style="fill:#333333;fill-opacity:1"
    /><g
      id="SVGRepo_tracerCarrier-91"
      stroke-linecap="round"
      stroke-linejoin="round"
      transform="matrix(0.04237333,0,0,0.04237333,-19.894439,-27.423715)"
      style="fill:#333333;fill-opacity:1;stroke-width:6.2441"
    /><g
      id="SVGRepo_bgCarrier-129"
      stroke-width="0"
      transform="matrix(0.16536457,0,0,0.16536457,133.33199,19.80408)"
    /><g
      id="SVGRepo_tracerCarrier-31"
      stroke-linecap="round"
      stroke-linejoin="round"
      transform="matrix(0.16536457,0,0,0.16536457,133.33199,19.80408)"
      style="stroke-width:1.6"
    /><g
      id="SVGRepo_bgCarrier-45"
      stroke-width="0"
      transform="matrix(0.00960109,0,0,0.00960109,-255.91362,2.6287508)"
    /><g
      id="SVGRepo_tracerCarrier-03"
      stroke-linecap="round"
      stroke-linejoin="round"
      transform="matrix(0.00960109,0,0,0.00960109,-255.91362,2.6287508)"
      style="stroke-width:27.5576"
    /><g
      id="SVGRepo_bgCarrier-53"
      stroke-width="0"
      transform="matrix(0.60044018,0,0,0.60044018,264.23625,201.89428)"
      style="fill:#333333;fill-opacity:1"
    /><g
      id="SVGRepo_tracerCarrier-56"
      stroke-linecap="round"
      stroke-linejoin="round"
      transform="matrix(0.60044018,0,0,0.60044018,264.23625,201.89428)"
      style="fill:#333333;fill-opacity:1;stroke-width:0.44065"
    /><g
      id="SVGRepo_bgCarrier-127"
      stroke-width="0"
      transform="matrix(1.2697157,0,0,1.2697157,132.45703,260.1185)"
      style="fill:#333333;fill-opacity:1"
    /><g
      id="SVGRepo_tracerCarrier-09"
      stroke-linecap="round"
      stroke-linejoin="round"
      transform="matrix(1.2697157,0,0,1.2697157,132.45703,260.1185)"
      style="fill:#333333;fill-opacity:1;stroke-width:0.208379"
    /><g
      id="SVGRepo_bgCarrier-535"
      stroke-width="0"
      transform="matrix(0.76397436,0,0,0.76397436,270.0634,45.281653)"
    /><g
      id="SVGRepo_tracerCarrier-62"
      stroke-linecap="round"
      stroke-linejoin="round"
      transform="matrix(0.76397436,0,0,0.76397436,270.0634,45.281653)"
      style="stroke-width:0.346325"
    /><g id="SVGRepo_bgCarrier-09" stroke-width="0" transform="matrix(0.0835591,0,0,0.0835591,271.59136,92.948336)" /><g
      id="SVGRepo_tracerCarrier-36"
      stroke-linecap="round"
      stroke-linejoin="round"
      transform="matrix(0.0835591,0,0,0.0835591,271.59136,92.948336)"
      style="stroke-width:3.16642"
    /><g
      id="SVGRepo_bgCarrier-6187"
      stroke-width="0"
      transform="matrix(0.16536457,0,0,0.16536457,29.104175,63.169301)"
    /><g
      id="SVGRepo_tracerCarrier-92"
      stroke-linecap="round"
      stroke-linejoin="round"
      transform="matrix(0.16536457,0,0,0.16536457,29.104175,63.169301)"
      style="stroke-width:1.6"
    /><g
      id="SVGRepo_bgCarrier-59"
      stroke-width="0"
      transform="matrix(0.89139454,0,0,0.89139454,268.02426,132.35041)"
    /><g
      id="SVGRepo_tracerCarrier-22"
      stroke-linecap="round"
      stroke-linejoin="round"
      transform="matrix(0.89139454,0,0,0.89139454,268.02426,132.35041)"
      style="stroke-width:0.296819"
    /><g id="g23" transform="translate(-0.93482423,-13.804039)"><g id="g22"><path
          id="path22"
          style="fill:#000000;fill-opacity:1;stroke-width:0.423336;filter:url(#filter29)"
          d="m -152.78606,520.54204 c -1.0396,0.48191 -2.0163,1.08491 -3.01234,1.65381 -11.1808,6.43792 -22.3617,12.87186 -33.54246,19.3014 a 2.1435886,2.1435886 0 0 0 -1.19693,2.07348 v 40.71525 a 2.165241,2.165241 0 0 0 1.23737,2.05994 c 11.89635,6.85863 23.80461,13.70489 35.7238,20.53899 a 1.8157092,1.8157092 0 0 0 2.03127,-0.11908 c 11.9068,-6.84623 23.81241,-13.69625 35.71713,-20.5506 a 2.5147727,2.5147727 0 0 0 1.10254,-1.56778 c 0.007,-13.56993 -0.007,-27.1426 0.007,-40.71865 a 2.4498157,2.4498157 0 0 0 -1.28114,-2.43753 c -11.19534,-6.44209 -22.39103,-12.88204 -33.58637,-19.32004 a 32.224973,32.224973 0 0 0 -3.00561,-1.63356 z m 16.50318,21.63455 a 4.893445,4.893445 0 0 1 5.2208,4.45548 c 0.007,11.42413 0.007,22.84941 0,34.27567 a 4.8284873,4.8284873 0 0 1 -3.86871,4.24132 8.7630396,8.7630396 0 0 1 -8.04261,-2.41909 c -7.4196,-8.82186 -14.82427,-17.65626 -22.2128,-26.5029 -0.007,8.10436 0,16.20897 0,24.31333 a 4.837767,4.837767 0 0 1 -2.11893,4.00013 5.0945029,5.0945029 0 0 1 -6.37197,-0.63665 4.667641,4.667641 0 0 1 -1.31992,-3.36295 v -33.58978 a 4.8841653,4.8841653 0 0 1 4.33904,-4.65427 8.7135483,8.7135483 0 0 1 8.19427,3.25351 c 7.22882,8.58664 14.39479,17.21719 21.65142,25.77297 -0.0552,-8.231 0,-16.45668 0,-24.69074 a 4.893445,4.893445 0 0 1 4.52941,-4.45543 z"
          transform="matrix(0.62499994,0,0,0.62499994,254.22936,-249.3156)"
        /><path
          id="path29-5"
          style="fill:#009639;fill-opacity:1;stroke-width:0.423336;filter:url(#filter29)"
          d="m -152.78606,520.54204 c -1.0396,0.48191 -2.0163,1.08491 -3.01234,1.65381 -11.1808,6.43792 -22.3617,12.87186 -33.54246,19.3014 a 2.1435886,2.1435886 0 0 0 -1.19693,2.07348 v 40.71525 a 2.165241,2.165241 0 0 0 1.23737,2.05994 c 11.89635,6.85863 23.80461,13.70489 35.7238,20.53899 a 1.8157092,1.8157092 0 0 0 2.03127,-0.11908 c 11.9068,-6.84623 23.81241,-13.69625 35.71713,-20.5506 a 2.5147727,2.5147727 0 0 0 1.10254,-1.56778 c 0.007,-13.56993 -0.007,-27.1426 0.007,-40.71865 a 2.4498157,2.4498157 0 0 0 -1.28114,-2.43753 c -11.19534,-6.44209 -22.39103,-12.88204 -33.58637,-19.32004 a 32.224973,32.224973 0 0 0 -3.00561,-1.63356 z m 16.50318,21.63455 a 4.893445,4.893445 0 0 1 5.2208,4.45548 c 0.007,11.42413 0.007,22.84941 0,34.27567 a 4.8284873,4.8284873 0 0 1 -3.86871,4.24132 8.7630396,8.7630396 0 0 1 -8.04261,-2.41909 c -7.4196,-8.82186 -14.82427,-17.65626 -22.2128,-26.5029 -0.007,8.10436 0,16.20897 0,24.31333 a 4.837767,4.837767 0 0 1 -2.11893,4.00013 5.0945029,5.0945029 0 0 1 -6.37197,-0.63665 4.667641,4.667641 0 0 1 -1.31992,-3.36295 v -33.58978 a 4.8841653,4.8841653 0 0 1 4.33904,-4.65427 8.7135483,8.7135483 0 0 1 8.19427,3.25351 c 7.22882,8.58664 14.39479,17.21719 21.65142,25.77297 -0.0552,-8.231 0,-16.45668 0,-24.69074 a 4.893445,4.893445 0 0 1 4.52941,-4.45543 z"
          transform="matrix(0.62499994,0,0,0.62499994,254.22936,-249.3156)"
        /><rect
          style="fill:#ffffff;fill-opacity:1;stroke:none;stroke-width:0.79375;stroke-dasharray:none"
          id="rect29-6"
          width="33.008011"
          height="30.626558"
          x="141.724"
          y="87.504471"
        /><path
          id="path4"
          style="fill:#009639;fill-opacity:1;stroke-width:0.264585"
          d="m 158.73808,76.023144 c -0.64975,0.301193 -1.26019,0.678068 -1.88271,1.033631 -6.988,4.0237 -13.97606,8.044912 -20.96404,12.063374 a 1.3397427,1.3397427 0 0 0 -0.74808,1.295925 V 115.8631 a 1.3532755,1.3532755 0 0 0 0.77336,1.28746 c 7.43522,4.28665 14.87788,8.56556 22.32737,12.83687 a 1.1348181,1.1348181 0 0 0 1.26955,-0.0744 c 7.44174,-4.2789 14.88275,-8.56016 22.3232,-12.84413 a 1.5717328,1.5717328 0 0 0 0.68909,-0.97986 c 0.004,-8.4812 -0.004,-16.964122 0.004,-25.449153 a 1.5311347,1.5311347 0 0 0 -0.80071,-1.523456 C 174.73239,85.090105 167.73509,81.065137 160.738,77.041387 a 20.140606,20.140606 0 0 0 -1.87851,-1.020974 z m 10.31449,13.521592 a 3.0584028,3.0584028 0 0 1 3.263,2.784675 c 0.004,7.140081 0.004,14.280879 0,21.422289 a 3.0178043,3.0178043 0 0 1 -2.41795,2.65083 5.4768992,5.4768992 0 0 1 -5.02663,-1.51193 c -4.63725,-5.51367 -9.26516,-11.03517 -13.883,-16.564315 -0.004,5.065225 0,10.130605 0,15.195835 a 3.0236041,3.0236041 0 0 1 -1.32433,2.50008 3.184064,3.184064 0 0 1 -3.98248,-0.39791 2.9172753,2.9172753 0 0 1 -0.82495,-2.10184 V 92.528836 a 3.052603,3.052603 0 0 1 2.7119,-2.908919 5.4459672,5.4459672 0 0 1 5.12142,2.033444 c 4.51801,5.36665 8.99674,10.760739 13.53214,16.108109 -0.0345,-5.14438 0,-10.285428 0,-15.431715 a 3.0584028,3.0584028 0 0 1 2.83088,-2.784644 z"
        /></g><path
        style="fill:none;fill-opacity:1;stroke:url(#linearGradient1);stroke-width:1.40543;stroke-dasharray:none;marker-end:url(#marker9)"
        d="m -317.79232,468.43887 c 16.68119,-0.2907 33.36205,-0.58139 49.07,5.16214 15.70795,5.74353 30.44171,17.52081 45.17578,29.29833"
        id="path8"
        inkscape:path-effect="#path-effect8"
        inkscape:original-d="m -317.79232,468.43887 c 16.68119,-0.29069 33.36205,-0.58138 50.04358,-0.87209 14.73437,11.77776 29.46813,23.55504 44.2022,35.33256"
        sodipodi:nodetypes="ccc"
        transform="matrix(0.5647732,0,0,0.5647732,245.11878,-197.19408)"
      /><g
        id="SVGRepo_iconCarrier"
        transform="matrix(0.69035568,0,0,0.69035568,259.42702,51.136384)"
        style="stroke-width:0.383256"
      ><path
          fill-rule="evenodd"
          clip-rule="evenodd"
          d="M 13.0164,2 C 10.8193,2 9.03825,3.72453 9.03825,5.85185 V 8.51852 H 15.9235 V 9.25926 H 5.97814 C 3.78107,9.25926 2,10.9838 2,13.1111 v 5.7778 c 0,2.1273 1.78107,3.8518 3.97814,3.8518 h 2.29508 v -3.2592 c 0,-2.1273 1.78108,-3.8519 3.97818,-3.8519 h 7.3442 c 1.8591,0 3.3661,-1.4592 3.3661,-3.2592 V 5.85185 C 22.9617,3.72453 21.1807,2 18.9836,2 Z m -0.918,4.74074 c 0.7605,0 1.377,-0.59696 1.377,-1.33333 0,-0.73638 -0.6165,-1.33334 -1.377,-1.33334 -0.7606,0 -1.3771,0.59696 -1.3771,1.33334 0,0.73637 0.6165,1.33333 1.3771,1.33333 z"
          fill="url(#paint0_linear_87_8204)"
          id="path1-9"
          style="fill:url(#paint0_linear_87_8204);stroke-width:0.383256"
        /><path
          fill-rule="evenodd"
          clip-rule="evenodd"
          d="m 18.9834,30 c 2.1971,0 3.9782,-1.7245 3.9782,-3.8518 v -2.6667 h -6.8853 v -0.7407 h 9.9454 c 2.1971,0 3.9781,-1.7246 3.9781,-3.8519 v -5.7778 c 0,-2.1273 -1.781,-3.85182 -3.9781,-3.85182 h -2.2951 v 3.25922 c 0,2.1274 -1.7811,3.8519 -3.9781,3.8519 h -7.3443 c -1.8591,0 -3.36611,1.4592 -3.36611,3.2592 v 6.5186 C 9.03809,28.2755 10.8192,30 13.0162,30 Z m 0.9181,-4.7407 c -0.7606,0 -1.3771,0.5969 -1.3771,1.3333 0,0.7364 0.6165,1.3333 1.3771,1.3333 0.7605,0 1.377,-0.5969 1.377,-1.3333 0,-0.7364 -0.6165,-1.3333 -1.377,-1.3333 z"
          fill="url(#paint1_linear_87_8204)"
          id="path2-1"
          style="fill:url(#paint1_linear_87_8204);stroke-width:0.383256"
        /><defs id="defs5" /></g><g
        id="SVGRepo_iconCarrier-0"
        transform="matrix(0.07550711,0,0,0.07550711,260.80773,94.803604)"
        style="stroke-width:3.50408"
      ><path
          d="M 204.8,0 H 256 L 128,220.8 0,0 H 97.92 L 128,51.2 157.44,0 Z"
          fill="#41b883"
          id="path1-6"
          style="stroke-width:3.50408"
        /><path
          d="M 0,0 128,220.8 256,0 H 204.8 L 128,132.48 50.56,0 Z"
          fill="#41b883"
          id="path2-2"
          style="stroke-width:3.50408"
        /><path
          d="M 50.56,0 128,133.12 204.8,0 H 157.44 L 128,51.2 97.92,0 Z"
          fill="#35495e"
          id="path3"
          style="stroke-width:3.50408"
        /></g><g
        id="SVGRepo_iconCarrier-02"
        transform="matrix(1.2886546,0,0,1.2886546,36.654775,92.830355)"
        style="fill:#333333;fill-opacity:1;stroke-width:0.205318"
      ><path
          d="M 8,7 C 9.65685,7 11,5.65685 11,4 11,2.34315 9.65685,1 8,1 6.34315,1 5,2.34315 5,4 5,5.65685 6.34315,7 8,7 Z"
          fill="#000000"
          id="path1-3"
          style="fill:#333333;fill-opacity:1;stroke-width:0.205318"
        /><path
          d="M 14,12 C 14,10.3431 12.6569,9 11,9 H 5 C 3.34315,9 2,10.3431 2,12 v 3 h 12 z"
          fill="#000000"
          id="path2-7"
          style="fill:#333333;fill-opacity:1;stroke-width:0.205318"
        /></g><g
        id="g26"
        transform="matrix(1.2886546,0,0,1.2886546,36.654775,56.310258)"
        style="fill:#333333;fill-opacity:1;stroke-width:0.205318"
      ><path
          d="M 8,7 C 9.65685,7 11,5.65685 11,4 11,2.34315 9.65685,1 8,1 6.34315,1 5,2.34315 5,4 5,5.65685 6.34315,7 8,7 Z"
          fill="#000000"
          id="path25"
          style="fill:#333333;fill-opacity:1;stroke-width:0.205318"
        /><path
          d="M 14,12 C 14,10.3431 12.6569,9 11,9 H 5 C 3.34315,9 2,10.3431 2,12 v 3 h 12 z"
          fill="#000000"
          id="path26"
          style="fill:#333333;fill-opacity:1;stroke-width:0.205318"
        /></g><g
        id="g28"
        transform="matrix(1.2886546,0,0,1.2886546,36.654775,126.23633)"
        style="fill:#333333;fill-opacity:1;stroke-width:0.205318"
      ><path
          d="M 8,7 C 9.65685,7 11,5.65685 11,4 11,2.34315 9.65685,1 8,1 6.34315,1 5,2.34315 5,4 5,5.65685 6.34315,7 8,7 Z"
          fill="#000000"
          id="path27"
          style="fill:#333333;fill-opacity:1;stroke-width:0.205318"
        /><path
          d="M 14,12 C 14,10.3431 12.6569,9 11,9 H 5 C 3.34315,9 2,10.3431 2,12 v 3 h 12 z"
          fill="#000000"
          id="path28"
          style="fill:#333333;fill-opacity:1;stroke-width:0.205318"
        /></g><g
        id="SVGRepo_iconCarrier-8"
        transform="matrix(0.8054973,0,0,0.8054973,257.58437,129.53184)"
        style="stroke-width:0.328472"
      ><title id="title1">file_type_svelte</title><path
          d="M 26.47,5.7 A 8.973,8.973 0 0 0 14.677,3.246 L 7.96,7.4 a 7.461,7.461 0 0 0 -3.481,5.009 7.686,7.686 0 0 0 0.8,5.058 7.358,7.358 0 0 0 -1.151,2.8 7.789,7.789 0 0 0 1.4,6.028 8.977,8.977 0 0 0 11.794,2.458 L 24.04,24.6 a 7.468,7.468 0 0 0 3.481,-5.009 7.673,7.673 0 0 0 -0.8,-5.062 7.348,7.348 0 0 0 1.152,-2.8 A 7.785,7.785 0 0 0 26.47,5.7"
          style="fill:#ff3e00;stroke-width:0.328472"
          id="path1-97"
        /><path
          d="M 14.022,26.64 A 5.413,5.413 0 0 1 8.3,24.581 4.678,4.678 0 0 1 7.452,20.956 4.307,4.307 0 0 1 7.611,20.346 l 0.127,-0.375 0.344,0.238 a 8.76,8.76 0 0 0 2.628,1.274 l 0.245,0.073 -0.025,0.237 a 1.441,1.441 0 0 0 0.271,0.968 1.63,1.63 0 0 0 1.743,0.636 1.512,1.512 0 0 0 0.411,-0.175 l 6.7,-4.154 a 1.366,1.366 0 0 0 0.633,-0.909 1.407,1.407 0 0 0 -0.244,-1.091 1.634,1.634 0 0 0 -1.726,-0.622 1.509,1.509 0 0 0 -0.413,0.176 l -2.572,1.584 A 4.934,4.934 0 0 1 14.369,18.788 5.415,5.415 0 0 1 8.642,16.728 4.678,4.678 0 0 1 7.811,13.1 4.507,4.507 0 0 1 9.9,10.09 l 6.708,-4.154 a 4.932,4.932 0 0 1 1.364,-0.581 5.413,5.413 0 0 1 5.728,2.059 4.679,4.679 0 0 1 0.848,3.625 4.272,4.272 0 0 1 -0.159,0.61 l -0.127,0.375 -0.344,-0.237 A 8.713,8.713 0 0 0 21.29,10.513 L 21.045,10.439 21.07,10.202 A 1.438,1.438 0 0 0 20.798,9.234 1.629,1.629 0 0 0 19.073,8.612 1.484,1.484 0 0 0 18.662,8.788 l -6.722,4.14 a 1.353,1.353 0 0 0 -0.631,0.908 1.394,1.394 0 0 0 0.244,1.092 1.634,1.634 0 0 0 1.726,0.621 1.538,1.538 0 0 0 0.413,-0.175 l 2.562,-1.585 a 4.9,4.9 0 0 1 1.364,-0.581 5.417,5.417 0 0 1 5.728,2.059 4.681,4.681 0 0 1 0.843,3.625 4.5,4.5 0 0 1 -2.089,3.013 l -6.707,4.154 a 4.9,4.9 0 0 1 -1.364,0.581"
          style="fill:#ffffff;stroke-width:0.328472"
          id="path2-3"
        /></g><path
        style="fill:none;fill-opacity:1;stroke:url(#linearGradient12);stroke-width:1.40543;stroke-dasharray:none;marker-end:url(#marker9)"
        d="m -317.79232,468.43887 c 16.68119,-0.2907 33.36205,-0.58139 49.07,5.16214 15.70795,5.74353 30.44171,17.52081 45.17578,29.29833"
        id="path10"
        inkscape:path-effect="#path-effect11"
        inkscape:original-d="m -317.79232,468.43887 c 16.68119,-0.29069 33.36205,-0.58138 50.04358,-0.87209 14.73437,11.77776 29.46813,23.55504 44.2022,35.33256"
        sodipodi:nodetypes="ccc"
        transform="matrix(0.5647732,0,0,-0.5647732,245.11878,403.47328)"
      /><path
        style="fill:none;fill-opacity:1;stroke:url(#linearGradient14);stroke-width:1.40543;stroke-dasharray:none;marker-end:url(#marker9)"
        d="m -317.79232,468.43887 c 16.68119,-0.2907 33.36205,-0.58139 49.07,5.16214 15.70795,5.74353 30.44171,17.52081 45.17578,29.29833"
        id="path12"
        inkscape:path-effect="#path-effect14"
        inkscape:original-d="m -317.79232,468.43887 c 16.68119,-0.29069 33.36205,-0.58138 50.04358,-0.87209 14.73437,11.77776 29.46813,23.55504 44.2022,35.33256"
        sodipodi:nodetypes="ccc"
        transform="matrix(0.5647732,0,0,-0.5647732,377.76449,351.81368)"
      /><path
        style="fill:none;fill-opacity:1;stroke:url(#linearGradient17);stroke-width:1.40543;stroke-dasharray:none;marker-end:url(#marker9)"
        d="m -317.79232,468.43887 c 16.68119,-0.2907 33.36205,-0.58139 49.07,5.16214 15.70795,5.74353 30.44171,17.52081 45.17578,29.29833"
        id="path14"
        inkscape:path-effect="#path-effect17"
        inkscape:original-d="m -317.79232,468.43887 c 16.68119,-0.29069 33.36205,-0.58138 50.04358,-0.87209 14.73437,11.77776 29.46813,23.55504 44.2022,35.33256"
        sodipodi:nodetypes="ccc"
        transform="matrix(0.5647732,0,0,0.5647732,377.76449,-145.04042)"
      /><path
        style="fill:none;fill-opacity:1;stroke:url(#linearGradient20);stroke-width:1.40543;stroke-dasharray:none;marker-end:url(#marker9)"
        d="m -317.80457,502.89934 c 17.58716,0 35.17396,0 50.88395,0 15.70999,0 29.54189,0 43.37408,0"
        id="path18"
        inkscape:path-effect="#path-effect20"
        inkscape:original-d="m -317.80457,502.89934 c 17.58716,0 35.17396,0 52.76147,0 13.83247,0 27.66437,0 41.49656,0"
        sodipodi:nodetypes="ccc"
        transform="matrix(0.5647732,0,0,0.5647732,245.11878,-180.88448)"
      /><path
        style="fill:none;fill-opacity:1;stroke:url(#linearGradient22);stroke-width:1.40543;stroke-dasharray:none;marker-end:url(#marker9)"
        d="m -317.80457,502.89934 c 17.58716,0 35.17396,0 50.88395,0 15.70999,0 29.54189,0 43.37408,0"
        id="path20"
        inkscape:path-effect="#path-effect22"
        inkscape:original-d="m -317.80457,502.89934 c 17.58716,0 35.17396,0 52.76147,0 13.83247,0 27.66437,0 41.49656,0"
        sodipodi:nodetypes="ccc"
        transform="matrix(0.5647732,0,0,0.5647732,377.85945,-180.88448)"
      /></g></g><style type="text/css" id="style1">
.st0 {
  fill: #0080ff;
}
.st1 {
  fill-rule: evenodd;
  clip-rule: evenodd;
  fill: #0080ff;
}
  </style></svg>
