<?xml version="1.0" encoding="UTF-8" standalone="no" ?>
<svg
  width="1200"
  height="675"
  viewBox="0 0 1200 675"
  version="1.1"
  id="svg4"
  sodipodi:docname="coverImage.svg"
  xml:space="preserve"
  inkscape:version="1.4.3 (0d15f75042, 2025-12-25)"
  xmlns:inkscape="http://www.inkscape.org/namespaces/inkscape"
  xmlns:sodipodi="http://sodipodi.sourceforge.net/DTD/sodipodi-0.dtd"
  xmlns="http://www.w3.org/2000/svg"
  xmlns:svg="http://www.w3.org/2000/svg"
><defs id="defs4"><rect x="25.576399" y="-1069.4723" width="863.20447" height="542.86292" id="rect22" /><rect
      x="25.576399"
      y="-1069.4723"
      width="863.20447"
      height="542.86292"
      id="rect22-2"
    /></defs><sodipodi:namedview
    id="namedview4"
    pagecolor="#ffffff"
    bordercolor="#000000"
    borderopacity="0.25"
    inkscape:showpageshadow="2"
    inkscape:pageopacity="0.0"
    inkscape:pagecheckerboard="0"
    inkscape:deskcolor="#d1d1d1"
    inkscape:zoom="0.84666667"
    inkscape:cx="51.377953"
    inkscape:cy="441.14173"
    inkscape:window-width="2560"
    inkscape:window-height="1371"
    inkscape:window-x="0"
    inkscape:window-y="0"
    inkscape:window-maximized="1"
    inkscape:current-layer="svg4"
    showguides="true"
  /><path id="rect1" style="fill:#ffffff" d="M 0,0 H 1200 V 675 H 0 Z" /><g
    id="SVGRepo_bgCarrier"
    stroke-width="0"
    transform="translate(86.90551,-214.48031)"
  /><g
    id="SVGRepo_tracerCarrier"
    stroke-linecap="round"
    stroke-linejoin="round"
    transform="translate(86.90551,-214.48031)"
  /><g id="SVGRepo_bgCarrier-1" stroke-width="0" transform="matrix(4.6344358,0,0,4.6344358,-84.513542,-192.07417)" /><g
    id="SVGRepo_tracerCarrier-2"
    stroke-linecap="round"
    stroke-linejoin="round"
    transform="matrix(4.6344358,0,0,4.6344358,-84.513542,-192.07417)"
    style="stroke-width:0.215776"
  /><g id="SVGRepo_bgCarrier-32" stroke-width="0" transform="translate(-3118.4183,-1352.306)" /><g
    id="SVGRepo_tracerCarrier-06"
    stroke-linecap="round"
    stroke-linejoin="round"
    transform="translate(-3118.4183,-1352.306)"
  /><g id="SVGRepo_bgCarrier-56" stroke-width="0" transform="translate(-3015.4182,-1347.306)" /><g
    id="SVGRepo_tracerCarrier-93"
    stroke-linecap="round"
    stroke-linejoin="round"
    transform="translate(-3015.4182,-1347.306)"
  /><g id="SVGRepo_bgCarrier-60" stroke-width="0" transform="matrix(5.2627329,0,0,5.2627329,124.96985,-1908.2052)" /><g
    id="SVGRepo_tracerCarrier-62"
    stroke-linecap="round"
    stroke-linejoin="round"
    transform="matrix(5.2627329,0,0,5.2627329,124.96985,-1908.2052)"
    style="stroke-width:0.190015"
  /><g
    id="SVGRepo_bgCarrier-6"
    stroke-width="0"
    transform="matrix(0.34874911,0,0,0.34874911,-211.99181,-1936.0216)"
  /><g
    id="SVGRepo_tracerCarrier-2-6"
    stroke-linecap="round"
    stroke-linejoin="round"
    transform="matrix(0.34874911,0,0,0.34874911,-211.99181,-1936.0216)"
    style="stroke-width:2.86739"
  /><g id="SVGRepo_bgCarrier-9" stroke-width="0" transform="matrix(0.19189323,0,0,0.19189323,64.080455,-1718.9887)" /><g
    id="SVGRepo_tracerCarrier-3"
    stroke-linecap="round"
    stroke-linejoin="round"
    transform="matrix(0.19189323,0,0,0.19189323,64.080455,-1718.9887)"
    style="stroke-width:5.21123"
  /><g id="SVGRepo_bgCarrier-62" stroke-width="0" transform="translate(-1008.2938,-1566.9032)" /><g
    id="SVGRepo_tracerCarrier-6"
    stroke-linecap="round"
    stroke-linejoin="round"
    transform="translate(-1008.2938,-1566.9032)"
  /><g
    id="SVGRepo_bgCarrier-2"
    stroke-width="0"
    transform="matrix(0.33024828,0,0,0.33024828,-138.83717,-1572.4468)"
  /><g
    id="SVGRepo_tracerCarrier-28"
    stroke-linecap="round"
    stroke-linejoin="round"
    transform="matrix(0.33024828,0,0,0.33024828,-138.83717,-1572.4468)"
    style="stroke-width:3.02802"
  /><g id="SVGRepo_bgCarrier-61" stroke-width="0" transform="matrix(7.8683933,0,0,7.8683933,1590.0086,-1977.5009)" /><g
    id="SVGRepo_tracerCarrier-5"
    stroke-linecap="round"
    stroke-linejoin="round"
    transform="matrix(7.8683933,0,0,7.8683933,1590.0086,-1977.5009)"
    style="stroke-width:0.127091"
  /><g id="SVGRepo_bgCarrier-3" stroke-width="0" transform="matrix(3.7253041,0,0,3.7253041,1532.7593,-1977.4169)" /><g
    id="SVGRepo_tracerCarrier-7"
    stroke-linecap="round"
    stroke-linejoin="round"
    transform="matrix(3.7253041,0,0,3.7253041,1532.7593,-1977.4169)"
    style="stroke-width:2.0854"
  /><g id="SVGRepo_bgCarrier-0" stroke-width="0" transform="matrix(6.9837627,0,0,6.9837627,1794.0785,-1903.7807)" /><g
    id="SVGRepo_tracerCarrier-6-5"
    stroke-linecap="round"
    stroke-linejoin="round"
    transform="matrix(6.9837627,0,0,6.9837627,1794.0785,-1903.7807)"
    style="stroke-width:0.143189"
  /><g id="SVGRepo_bgCarrier-9-4" stroke-width="0" transform="matrix(5.9398723,0,0,5.9398723,1965.7035,-1924.8804)" /><g
    id="SVGRepo_tracerCarrier-2-7"
    stroke-linecap="round"
    stroke-linejoin="round"
    transform="matrix(5.9398723,0,0,5.9398723,1965.7035,-1924.8804)"
    style="stroke-width:0.168354"
  /><g id="SVGRepo_bgCarrier-97" stroke-width="0" transform="matrix(5.3266784,0,0,5.3266784,1424.9464,-1918.0646)" /><g
    id="SVGRepo_tracerCarrier-3-6"
    stroke-linecap="round"
    stroke-linejoin="round"
    transform="matrix(5.3266784,0,0,5.3266784,1424.9464,-1918.0646)"
    style="stroke-width:2.0854"
  /><g id="SVGRepo_bgCarrier-94" stroke-width="0" transform="matrix(8.5261902,0,0,8.5261902,1096.9775,-2087.7891)" /><g
    id="SVGRepo_tracerCarrier-78"
    stroke-linecap="round"
    stroke-linejoin="round"
    transform="matrix(8.5261902,0,0,8.5261902,1096.9775,-2087.7891)"
    style="stroke-width:0.117286"
  /><g
    id="SVGRepo_bgCarrier-1-18"
    stroke-width="0"
    transform="matrix(7.0984661,0,0,7.0984661,1100.9804,-1953.9428)"
  /><g
    id="SVGRepo_tracerCarrier-0"
    stroke-linecap="round"
    stroke-linejoin="round"
    transform="matrix(7.0984661,0,0,7.0984661,1100.9804,-1953.9428)"
    style="stroke-width:0.140876"
  /><g id="SVGRepo_bgCarrier-5" stroke-width="0" transform="matrix(7.9158721,0,0,7.9158721,928.29117,-2037.3161)" /><g
    id="SVGRepo_tracerCarrier-4"
    stroke-linecap="round"
    stroke-linejoin="round"
    transform="matrix(7.9158721,0,0,7.9158721,928.29117,-2037.3161)"
    style="stroke-width:0.126328"
  /><g id="SVGRepo_bgCarrier-4" stroke-width="0" transform="matrix(1.5795884,0,0,1.5795884,1990.8978,-2196.0015)" /><g
    id="SVGRepo_tracerCarrier-43"
    stroke-linecap="round"
    stroke-linejoin="round"
    transform="matrix(1.5795884,0,0,1.5795884,1990.8978,-2196.0015)"
    style="stroke-width:0.633077"
  /><g id="SVGRepo_bgCarrier-06" stroke-width="0" transform="translate(-207.87285,-1952.7175)" /><g
    id="SVGRepo_tracerCarrier-8"
    stroke-linecap="round"
    stroke-linejoin="round"
    transform="translate(-207.87285,-1952.7175)"
  /><text
    xml:space="preserve"
    transform="translate(-3426.4184,-2084.306)"
    id="text18"
    style="font-weight:500;font-size:48px;line-height:1.2;font-family:Inter;-inkscape-font-specification:'Inter Medium';writing-mode:lr-tb;direction:ltr;white-space:pre;shape-inside:url(#rect22);display:inline;fill:#ffffff;stroke:none;stroke-width:3;stroke-linecap:square"
  /><g id="SVGRepo_bgCarrier-062" stroke-width="0" transform="translate(-1953.9851,-1434.536)" /><g
    id="SVGRepo_tracerCarrier-61"
    stroke-linecap="round"
    stroke-linejoin="round"
    transform="translate(-1953.9851,-1434.536)"
  /><g id="SVGRepo_bgCarrier-8" stroke-width="0" transform="translate(-2023.8809,-1513.4102)" /><g
    id="SVGRepo_tracerCarrier-79"
    stroke-linecap="round"
    stroke-linejoin="round"
    transform="translate(-2023.8809,-1513.4102)"
  /><g id="SVGRepo_bgCarrier-23" stroke-width="0" transform="translate(-1980.2063,-1511.0374)" /><g
    id="SVGRepo_tracerCarrier-75"
    stroke-linecap="round"
    stroke-linejoin="round"
    transform="translate(-1980.2063,-1511.0374)"
  /><g id="SVGRepo_bgCarrier-612" stroke-width="0" transform="translate(-1948.4181,-1499.306)" /><g
    id="SVGRepo_tracerCarrier-9"
    stroke-linecap="round"
    stroke-linejoin="round"
    transform="translate(-1948.4181,-1499.306)"
  /><g
    id="SVGRepo_bgCarrier-12"
    stroke-width="0"
    transform="matrix(0.10083152,0,0,0.10083152,-2635.9132,-1611.5959)"
  /><g
    id="SVGRepo_tracerCarrier-70"
    stroke-linecap="round"
    stroke-linejoin="round"
    transform="matrix(0.10083152,0,0,0.10083152,-2635.9132,-1611.5959)"
    style="stroke-width:9.91753"
  /><g
    id="SVGRepo_bgCarrier-618"
    stroke-width="0"
    transform="translate(-2529.6159,-1842.6729)"
    style="fill:#000000;fill-opacity:1"
  /><g
    id="SVGRepo_tracerCarrier-792"
    stroke-linecap="round"
    stroke-linejoin="round"
    transform="translate(-2529.6159,-1842.6729)"
    style="fill:#000000;fill-opacity:1"
  /><g
    id="SVGRepo_bgCarrier-7"
    stroke-width="0"
    transform="matrix(0.56583274,0,0,0.56583274,-2615.5499,-1333.4377)"
  /><g
    id="SVGRepo_tracerCarrier-59"
    stroke-linecap="round"
    stroke-linejoin="round"
    transform="matrix(0.56583274,0,0,0.56583274,-2615.5499,-1333.4377)"
    style="stroke-width:1.76731"
  /><g
    id="SVGRepo_bgCarrier-47"
    stroke-width="0"
    transform="matrix(-0.13211418,0,0,0.13211418,-2633.7196,-1363.2513)"
    style="fill:#333333;fill-opacity:1"
  /><g
    id="SVGRepo_tracerCarrier-84"
    stroke-linecap="round"
    stroke-linejoin="round"
    transform="matrix(-0.13211418,0,0,0.13211418,-2633.7196,-1363.2513)"
    style="fill:#333333;fill-opacity:1;stroke-width:7.56921"
  /><g
    id="SVGRepo_bgCarrier-562"
    stroke-width="0"
    transform="matrix(0.25624188,0,0,0.25624188,-4470.4407,-1340.5948)"
    style="fill:#333333;fill-opacity:1"
  /><g
    id="SVGRepo_tracerCarrier-91"
    stroke-linecap="round"
    stroke-linejoin="round"
    transform="matrix(0.25624188,0,0,0.25624188,-4470.4407,-1340.5948)"
    style="fill:#333333;fill-opacity:1;stroke-width:3.90256"
  /><g id="SVGRepo_bgCarrier-129" stroke-width="0" transform="translate(-3543.8431,-1054.9968)" /><g
    id="SVGRepo_tracerCarrier-31"
    stroke-linecap="round"
    stroke-linejoin="round"
    transform="translate(-3543.8431,-1054.9968)"
  /><g
    id="SVGRepo_bgCarrier-45"
    stroke-width="0"
    transform="matrix(0.05806016,0,0,0.05806016,-5897.7064,-1158.8602)"
  /><g
    id="SVGRepo_tracerCarrier-03"
    stroke-linecap="round"
    stroke-linejoin="round"
    transform="matrix(0.05806016,0,0,0.05806016,-5897.7064,-1158.8602)"
    style="stroke-width:17.2235"
  /><g
    id="SVGRepo_bgCarrier-5629"
    stroke-width="0"
    transform="translate(-2911.4869,-91.035773)"
    style="fill:#333333;fill-opacity:1"
  /><g
    id="SVGRepo_tracerCarrier-1"
    stroke-linecap="round"
    stroke-linejoin="round"
    transform="translate(-2911.4869,-91.035773)"
    style="fill:#333333;fill-opacity:1"
  /><g id="SVGRepo_bgCarrier-32-0" stroke-width="0" transform="translate(-2922.0057,-794.94791)" /><g
    id="SVGRepo_tracerCarrier-06-9"
    stroke-linecap="round"
    stroke-linejoin="round"
    transform="translate(-2922.0057,-794.94791)"
  /><g id="SVGRepo_bgCarrier-56-3" stroke-width="0" transform="translate(-2819.0056,-789.9479)" /><g
    id="SVGRepo_tracerCarrier-93-6"
    stroke-linecap="round"
    stroke-linejoin="round"
    transform="translate(-2819.0056,-789.9479)"
  /><g
    id="SVGRepo_bgCarrier-0626"
    stroke-width="0"
    transform="matrix(5.2627329,0,0,5.2627329,321.38242,-1350.8471)"
  /><g
    id="SVGRepo_tracerCarrier-18"
    stroke-linecap="round"
    stroke-linejoin="round"
    transform="matrix(5.2627329,0,0,5.2627329,321.38242,-1350.8471)"
    style="stroke-width:0.190015"
  /><g
    id="SVGRepo_bgCarrier-6-7"
    stroke-width="0"
    transform="matrix(0.34874911,0,0,0.34874911,-15.579249,-1378.6635)"
  /><g
    id="SVGRepo_tracerCarrier-2-9"
    stroke-linecap="round"
    stroke-linejoin="round"
    transform="matrix(0.34874911,0,0,0.34874911,-15.579249,-1378.6635)"
    style="stroke-width:2.86739"
  /><g
    id="SVGRepo_bgCarrier-9-2"
    stroke-width="0"
    transform="matrix(0.19189323,0,0,0.19189323,260.49302,-1161.6306)"
  /><g
    id="SVGRepo_tracerCarrier-3-0"
    stroke-linecap="round"
    stroke-linejoin="round"
    transform="matrix(0.19189323,0,0,0.19189323,260.49302,-1161.6306)"
    style="stroke-width:5.21123"
  /><g id="SVGRepo_bgCarrier-62-2" stroke-width="0" transform="translate(-811.88123,-1009.5451)" /><g
    id="SVGRepo_tracerCarrier-6-3"
    stroke-linecap="round"
    stroke-linejoin="round"
    transform="translate(-811.88123,-1009.5451)"
  /><g
    id="SVGRepo_bgCarrier-2-7"
    stroke-width="0"
    transform="matrix(0.33024828,0,0,0.33024828,57.575397,-1015.0887)"
  /><g
    id="SVGRepo_tracerCarrier-28-5"
    stroke-linecap="round"
    stroke-linejoin="round"
    transform="matrix(0.33024828,0,0,0.33024828,57.575397,-1015.0887)"
    style="stroke-width:3.02802"
  /><g
    id="SVGRepo_bgCarrier-61-9"
    stroke-width="0"
    transform="matrix(7.8683933,0,0,7.8683933,1786.4208,-1420.1429)"
  /><g
    id="SVGRepo_tracerCarrier-5-2"
    stroke-linecap="round"
    stroke-linejoin="round"
    transform="matrix(7.8683933,0,0,7.8683933,1786.4208,-1420.1429)"
    style="stroke-width:0.127091"
  /><g id="SVGRepo_bgCarrier-3-2" stroke-width="0" transform="matrix(3.7253041,0,0,3.7253041,1729.1716,-1420.0588)" /><g
    id="SVGRepo_tracerCarrier-7-8"
    stroke-linecap="round"
    stroke-linejoin="round"
    transform="matrix(3.7253041,0,0,3.7253041,1729.1716,-1420.0588)"
    style="stroke-width:2.0854"
  /><g id="SVGRepo_bgCarrier-0-9" stroke-width="0" transform="matrix(6.9837627,0,0,6.9837627,1990.4907,-1346.4226)" /><g
    id="SVGRepo_tracerCarrier-6-5-7"
    stroke-linecap="round"
    stroke-linejoin="round"
    transform="matrix(6.9837627,0,0,6.9837627,1990.4907,-1346.4226)"
    style="stroke-width:0.143189"
  /><g
    id="SVGRepo_bgCarrier-9-4-3"
    stroke-width="0"
    transform="matrix(5.9398723,0,0,5.9398723,2162.1157,-1367.5223)"
  /><g
    id="SVGRepo_tracerCarrier-2-7-6"
    stroke-linecap="round"
    stroke-linejoin="round"
    transform="matrix(5.9398723,0,0,5.9398723,2162.1157,-1367.5223)"
    style="stroke-width:0.168354"
  /><g
    id="SVGRepo_bgCarrier-97-1"
    stroke-width="0"
    transform="matrix(5.3266784,0,0,5.3266784,1621.3586,-1360.7065)"
  /><g
    id="SVGRepo_tracerCarrier-3-6-2"
    stroke-linecap="round"
    stroke-linejoin="round"
    transform="matrix(5.3266784,0,0,5.3266784,1621.3586,-1360.7065)"
    style="stroke-width:2.0854"
  /><g
    id="SVGRepo_bgCarrier-94-9"
    stroke-width="0"
    transform="matrix(8.5261902,0,0,8.5261902,1293.3898,-1530.4311)"
  /><g
    id="SVGRepo_tracerCarrier-78-3"
    stroke-linecap="round"
    stroke-linejoin="round"
    transform="matrix(8.5261902,0,0,8.5261902,1293.3898,-1530.4311)"
    style="stroke-width:0.117286"
  /><g id="SVGRepo_bgCarrier-1-1" stroke-width="0" transform="matrix(7.0984661,0,0,7.0984661,1297.3927,-1396.5848)" /><g
    id="SVGRepo_tracerCarrier-0-9"
    stroke-linecap="round"
    stroke-linejoin="round"
    transform="matrix(7.0984661,0,0,7.0984661,1297.3927,-1396.5848)"
    style="stroke-width:0.140876"
  /><g id="SVGRepo_bgCarrier-5-4" stroke-width="0" transform="matrix(7.9158721,0,0,7.9158721,1124.7034,-1479.958)" /><g
    id="SVGRepo_tracerCarrier-4-7"
    stroke-linecap="round"
    stroke-linejoin="round"
    transform="matrix(7.9158721,0,0,7.9158721,1124.7034,-1479.958)"
    style="stroke-width:0.126328"
  /><g id="SVGRepo_bgCarrier-4-8" stroke-width="0" transform="matrix(1.5795884,0,0,1.5795884,2187.31,-1638.6434)" /><g
    id="SVGRepo_tracerCarrier-43-4"
    stroke-linecap="round"
    stroke-linejoin="round"
    transform="matrix(1.5795884,0,0,1.5795884,2187.31,-1638.6434)"
    style="stroke-width:0.633077"
  /><g id="SVGRepo_bgCarrier-06-5" stroke-width="0" transform="translate(-11.460282,-1395.3594)" /><g
    id="SVGRepo_tracerCarrier-8-0"
    stroke-linecap="round"
    stroke-linejoin="round"
    transform="translate(-11.460282,-1395.3594)"
  /><text
    xml:space="preserve"
    transform="translate(-3230.0055,-1526.9479)"
    id="text18-3"
    style="font-weight:500;font-size:48px;line-height:1.2;font-family:Inter;-inkscape-font-specification:'Inter Medium';writing-mode:lr-tb;direction:ltr;white-space:pre;shape-inside:url(#rect22-2);display:inline;fill:#ffffff;stroke:none;stroke-width:3;stroke-linecap:square"
  /><g id="SVGRepo_bgCarrier-062-6" stroke-width="0" transform="translate(-1757.5725,-877.17788)" /><g
    id="SVGRepo_tracerCarrier-61-1"
    stroke-linecap="round"
    stroke-linejoin="round"
    transform="translate(-1757.5725,-877.17788)"
  /><g id="SVGRepo_bgCarrier-8-0" stroke-width="0" transform="translate(-1827.4683,-956.05209)" /><g
    id="SVGRepo_tracerCarrier-79-6"
    stroke-linecap="round"
    stroke-linejoin="round"
    transform="translate(-1827.4683,-956.05209)"
  /><g id="SVGRepo_bgCarrier-23-3" stroke-width="0" transform="translate(-1783.7938,-953.6793)" /><g
    id="SVGRepo_tracerCarrier-75-2"
    stroke-linecap="round"
    stroke-linejoin="round"
    transform="translate(-1783.7938,-953.6793)"
  /><g id="SVGRepo_bgCarrier-612-0" stroke-width="0" transform="translate(-1752.0056,-941.94791)" /><g
    id="SVGRepo_tracerCarrier-9-6"
    stroke-linecap="round"
    stroke-linejoin="round"
    transform="translate(-1752.0056,-941.94791)"
  /><g
    id="SVGRepo_bgCarrier-52"
    stroke-width="0"
    transform="matrix(0.21663561,0,0,0.21663561,422.63048,-651.46676)"
    style="fill:#333333;fill-opacity:1"
  /><g
    id="SVGRepo_tracerCarrier-54"
    stroke-linecap="round"
    stroke-linejoin="round"
    transform="matrix(0.21663561,0,0,0.21663561,422.63048,-651.46676)"
    style="fill:#333333;fill-opacity:1;stroke-width:4.61605"
  /><g
    id="g47"
    stroke-width="0"
    transform="matrix(0.21663561,0,0,0.21663561,521.93496,-651.46676)"
    style="fill:#333333;fill-opacity:1"
  /><g
    id="g48"
    stroke-linecap="round"
    stroke-linejoin="round"
    transform="matrix(0.21663561,0,0,0.21663561,521.93496,-651.46676)"
    style="fill:#333333;fill-opacity:1;stroke-width:4.61605"
  /><g
    id="SVGRepo_bgCarrier-78"
    stroke-width="0"
    transform="matrix(6.337781,0,0,6.337781,515.81224,-243.88841)"
    style="fill:#333333;fill-opacity:1"
  /><g
    id="SVGRepo_tracerCarrier-68"
    stroke-linecap="round"
    stroke-linejoin="round"
    transform="matrix(6.337781,0,0,6.337781,515.81224,-243.88841)"
    style="fill:#333333;fill-opacity:1;stroke-width:0.157784"
  /><g
    id="SVGRepo_bgCarrier-20"
    stroke-width="0"
    transform="matrix(2.6975089,0,0,2.6975089,409.5371,-240.25893)"
    style="fill:#333333;fill-opacity:1"
  /><g
    id="SVGRepo_tracerCarrier-689"
    stroke-linecap="round"
    stroke-linejoin="round"
    transform="matrix(2.6975089,0,0,2.6975089,409.5371,-240.25893)"
    style="fill:#333333;fill-opacity:1;stroke-width:0.370712"
  /><g
    id="SVGRepo_bgCarrier-27"
    stroke-width="0"
    transform="matrix(0.25311311,0,0,0.25311311,68.648544,-257.22493)"
  /><g
    id="SVGRepo_tracerCarrier-22"
    stroke-linecap="round"
    stroke-linejoin="round"
    transform="matrix(0.25311311,0,0,0.25311311,68.648544,-257.22493)"
    style="stroke-width:3.9508"
  /><g id="SVGRepo_bgCarrier-75" stroke-width="0" transform="matrix(4.0810613,0,0,4.0810613,2571.9221,23.758776)" /><g
    id="SVGRepo_tracerCarrier-35"
    stroke-linecap="round"
    stroke-linejoin="round"
    transform="matrix(4.0810613,0,0,4.0810613,2571.9221,23.758776)"
    style="stroke-width:0.245034"
  /><path
    style="baseline-shift:baseline;display:inline;overflow:visible;vector-effect:none;fill:#ffffff;stroke-width:3.77952;enable-background:accumulate;stop-color:#000000"
    d="M 305.2805,145.9529 H 894.7182 V 529.04916 H 305.28051 Z"
    id="path16"
  /><rect
    style="opacity:0.15;fill:#ffffff;fill-opacity:1;stroke:none;stroke-width:3.999"
    id="rect16"
    width="586.3382"
    height="275.52603"
    x="306.83087"
    y="252.03563"
  /><path
    style="baseline-shift:baseline;display:inline;overflow:visible;vector-effect:none;fill:#404040;stroke-width:3.77952;enable-background:accumulate;stop-color:#000000"
    d="M 303.73642,144.45718 V 530.54282 H 896.26359 V 144.45718 Z m 3.09447,2.9813 H 893.16912 V 527.56161 H 306.83089 Z"
    id="path17"
  /><rect
    style="fill:#404040;fill-opacity:1;stroke:none;stroke-width:1.50001;stroke-linecap:butt;stroke-linejoin:miter;stroke-dasharray:none;stroke-opacity:1"
    id="rect18"
    width="589.43756"
    height="106.0827"
    x="305.28043"
    y="145.9529"
  /><rect
    style="fill:#ff4654;fill-opacity:1;stroke:none;stroke-width:1.50001;stroke-linecap:butt;stroke-linejoin:miter;stroke-dasharray:none;stroke-opacity:1"
    id="rect21"
    width="21.748884"
    height="21.749851"
    x="848.70532"
    y="189.19044"
  /><rect
    style="fill:#ff7f2a;fill-opacity:1;stroke:none;stroke-width:1.50001;stroke-linecap:butt;stroke-linejoin:miter;stroke-dasharray:none;stroke-opacity:1"
    id="rect23"
    width="21.748884"
    height="21.749851"
    x="814.15619"
    y="189.19044"
  /><rect
    style="fill:#00e61d;fill-opacity:1;stroke:none;stroke-width:1.50001;stroke-linecap:butt;stroke-linejoin:miter;stroke-dasharray:none;stroke-opacity:1"
    id="rect24"
    width="21.748884"
    height="21.749851"
    x="779.6073"
    y="189.19044"
  /><rect
    style="fill:#ffffff;fill-opacity:1;stroke:none;stroke-width:1.50001;stroke-linecap:butt;stroke-linejoin:miter;stroke-dasharray:none;stroke-opacity:1"
    id="rect25"
    width="397.66748"
    height="57.546471"
    x="334.31277"
    y="171.29201"
  /><path
    style="font-weight:bold;font-size:37.807px;line-height:1.2;font-family:Inter;-inkscape-font-specification:Inter;fill:#404040;stroke-width:2.00001"
    d="m 404.05694,213.69708 v -19.49423 h 5.44583 v 19.49423 z m 2.71369,-21.94947 q -1.34762,0 -2.23372,-0.81226 -0.8861,-0.83072 -0.8861,-2.08603 0,-1.25531 0.8861,-2.06757 0.8861,-0.83072 2.21526,-0.83072 1.34761,0 2.23371,0.83072 0.8861,0.81226 0.8861,2.06757 0,1.25531 -0.8861,2.08603 -0.8861,0.81226 -2.21525,0.81226 z m 6.57192,21.94947 v -19.49423 h 5.24276 v 4.39359 h -0.33228 q 0.51689,-1.62452 1.45837,-2.67677 0.94148,-1.07071 2.17833,-1.5876 1.23685,-0.53535 2.60293,-0.53535 2.23371,0 3.87669,1.29223 1.64298,1.27377 1.99373,3.50749 h -0.57227 q 0.36921,-1.4953 1.31069,-2.56601 0.94148,-1.0707 2.28909,-1.64298 1.36608,-0.59073 2.95368,-0.59073 1.88296,0 3.3598,0.81226 1.49529,0.81226 2.34447,2.3814 0.84919,1.55067 0.84919,3.78439 v 12.92231 h -5.42738 v -11.92545 q 0,-1.75374 -0.95994,-2.62138 -0.94148,-0.86764 -2.34448,-0.86764 -1.03378,0 -1.80912,0.46151 -0.77534,0.46151 -1.19993,1.29223 -0.40613,0.81226 -0.40613,1.91989 v 11.74084 h -5.24277 v -12.07313 q 0,-1.51376 -0.90456,-2.41832 -0.90456,-0.92302 -2.34448,-0.92302 -0.95994,0 -1.75374,0.46151 -0.77534,0.44305 -1.25531,1.32915 -0.46151,0.86764 -0.46151,2.12295 v 11.50086 z m 39.37614,0.33229 q -1.93835,0 -3.45211,-0.64612 -1.51375,-0.64611 -2.3814,-1.93834 -0.86764,-1.31069 -0.86764,-3.24904 0,-1.64298 0.6092,-2.73215 0.60919,-1.10762 1.66144,-1.7722 1.0707,-0.68304 2.43678,-1.03379 1.38453,-0.35074 2.89829,-0.47997 1.79066,-0.1846 2.84291,-0.35075 1.05224,-0.16614 1.51375,-0.47997 0.46152,-0.31383 0.46152,-0.94148 v -0.12922 q 0,-0.71996 -0.38767,-1.25531 -0.38767,-0.55382 -1.10763,-0.86765 -0.7015,-0.31382 -1.69836,-0.31382 -0.99687,0 -1.77221,0.31382 -0.75687,0.31383 -1.19992,0.88611 -0.44306,0.57227 -0.5169,1.32915 h -5.11354 q 0.12922,-2.01219 1.18147,-3.48903 1.0707,-1.47683 2.99059,-2.27063 1.91989,-0.81226 4.59665,-0.81226 1.99373,0 3.56287,0.46151 1.56914,0.44305 2.63984,1.31069 1.08917,0.86764 1.64298,2.10449 0.55382,1.23685 0.55382,2.80599 v 13.21768 h -5.31661 v -2.7506 h -0.0738 q -0.5169,0.95994 -1.27378,1.64298 -0.75687,0.68303 -1.84604,1.0707 -1.08917,0.36921 -2.58446,0.36921 z m 1.51375,-3.78439 q 1.3107,0 2.25218,-0.47997 0.95994,-0.47997 1.47683,-1.31069 0.5169,-0.83073 0.5169,-1.88297 v -1.95681 q -0.23999,0.12922 -0.62766,0.25845 -0.38767,0.11076 -0.90456,0.22152 -0.51689,0.0923 -1.12609,0.20307 -0.60919,0.11076 -1.25531,0.20306 -0.94148,0.14769 -1.69836,0.46151 -0.75688,0.29537 -1.19993,0.81226 -0.44305,0.49844 -0.44305,1.27378 0,0.68303 0.36921,1.18146 0.36921,0.49844 1.05224,0.75688 0.68304,0.25845 1.5876,0.25845 z m 21.00799,3.85823 q -2.54754,0 -4.44896,-1.27377 -1.90143,-1.27377 -2.95368,-3.56287 -1.03378,-2.28909 -1.03378,-5.33506 0,-3.00906 1.05224,-5.27969 1.07071,-2.2891 2.95368,-3.56287 1.90142,-1.29223 4.39358,-1.29223 1.27377,0 2.34448,0.35075 1.07071,0.33229 1.91989,1.01532 0.84918,0.68304 1.47683,1.73528 h 0.0185 v -10.70706 h 5.42738 v 27.50607 h -5.35353 v -2.99059 h -0.0185 q -0.57227,1.12609 -1.43991,1.90143 -0.84918,0.75687 -1.95681,1.12608 -1.10762,0.36921 -2.3814,0.36921 z m 1.403,-4.43051 q 1.38453,0 2.39986,-0.70149 1.03378,-0.71996 1.60606,-2.01219 0.57227,-1.29223 0.57227,-3.02751 0,-1.75375 -0.57227,-3.02752 -0.57228,-1.29223 -1.60606,-1.99373 -1.01533,-0.71995 -2.39986,-0.71995 -1.31069,0 -2.2891,0.68303 -0.9784,0.68304 -1.53221,1.95681 -0.53536,1.27377 -0.53536,3.10136 0,1.82758 0.53536,3.11981 0.55381,1.27377 1.53221,1.95681 0.97841,0.66457 2.2891,0.66457 z m 21.70948,4.50435 q -2.52908,0 -4.50435,-0.77533 -1.97527,-0.7938 -3.15673,-2.27064 -1.18147,-1.47684 -1.36608,-3.56287 h 5.35353 q 0.14769,1.27377 1.07071,1.99373 0.92302,0.71996 2.51062,0.71996 1.51376,0 2.36294,-0.57227 0.86764,-0.57228 0.86764,-1.47684 0,-0.77534 -0.66458,-1.25531 -0.64611,-0.47997 -1.84604,-0.7015 l -3.41519,-0.66457 q -2.84291,-0.55382 -4.31974,-1.99373 -1.47684,-1.43992 -1.47684,-3.69209 0,-1.84605 0.99687,-3.23058 1.01532,-1.38453 2.86137,-2.14141 1.8645,-0.75688 4.41204,-0.75688 2.52909,0 4.41205,0.81226 1.88297,0.7938 2.93521,2.27063 1.07071,1.47684 1.12609,3.50749 h -5.0397 q -0.0185,-1.18147 -0.92302,-1.95681 -0.90457,-0.77534 -2.36294,-0.77534 -1.403,0 -2.1968,0.6092 -0.7938,0.59073 -0.7938,1.45837 0,0.75688 0.62766,1.23685 0.62766,0.47997 1.73528,0.71996 l 3.69209,0.71996 q 2.95367,0.57227 4.33821,1.88296 1.40299,1.29224 1.40299,3.45211 0,1.93834 -1.10763,3.39672 -1.08916,1.43992 -3.04597,2.25217 -1.93835,0.7938 -4.48589,0.7938 z m 17.51897,-0.14768 q -1.93835,0 -3.45211,-0.64612 -1.51375,-0.64611 -2.38139,-1.93834 -0.86765,-1.31069 -0.86765,-3.24904 0,-1.64298 0.6092,-2.73215 0.60919,-1.10762 1.66144,-1.7722 1.07071,-0.68304 2.43678,-1.03379 1.38453,-0.35074 2.89829,-0.47997 1.79066,-0.1846 2.84291,-0.35075 1.05224,-0.16614 1.51376,-0.47997 0.46151,-0.31383 0.46151,-0.94148 v -0.12922 q 0,-0.71996 -0.38767,-1.25531 -0.38767,-0.55382 -1.10763,-0.86765 -0.7015,-0.31382 -1.69836,-0.31382 -0.99687,0 -1.7722,0.31382 -0.75688,0.31383 -1.19993,0.88611 -0.44305,0.57227 -0.5169,1.32915 h -5.11354 q 0.12922,-2.01219 1.18147,-3.48903 1.0707,-1.47683 2.99059,-2.27063 1.91989,-0.81226 4.59665,-0.81226 1.99373,0 3.56287,0.46151 1.56914,0.44305 2.63984,1.31069 1.08917,0.86764 1.64298,2.10449 0.55382,1.23685 0.55382,2.80599 v 13.21768 H 521.65 v -2.7506 h -0.0738 q -0.5169,0.95994 -1.27378,1.64298 -0.75687,0.68303 -1.84604,1.0707 -1.08917,0.36921 -2.58446,0.36921 z m 1.51375,-3.78439 q 1.3107,0 2.25218,-0.47997 0.95994,-0.47997 1.47683,-1.31069 0.5169,-0.83073 0.5169,-1.88297 v -1.95681 q -0.23999,0.12922 -0.62766,0.25845 -0.38767,0.11076 -0.90456,0.22152 -0.51689,0.0923 -1.12609,0.20307 -0.60919,0.11076 -1.25531,0.20306 -0.94148,0.14769 -1.69836,0.46151 -0.75688,0.29537 -1.19993,0.81226 -0.44305,0.49844 -0.44305,1.27378 0,0.68303 0.36921,1.18146 0.36921,0.49844 1.05225,0.75688 0.68303,0.25845 1.58759,0.25845 z m 21.008,3.85823 q -2.54754,0 -4.44897,-1.27377 -1.90143,-1.27377 -2.95367,-3.56287 -1.03379,-2.28909 -1.03379,-5.33506 0,-3.00906 1.05225,-5.27969 1.07071,-2.2891 2.95367,-3.56287 1.90143,-1.29223 4.39359,-1.29223 1.27377,0 2.34447,0.35075 1.07071,0.33229 1.91989,1.01532 0.84918,0.68304 1.47684,1.73528 h 0.0185 v -10.70706 h 5.42737 v 27.50607 h -5.35353 v -2.99059 h -0.0185 q -0.57227,1.12609 -1.43992,1.90143 -0.84918,0.75687 -1.9568,1.12608 -1.10763,0.36921 -2.3814,0.36921 z m 1.40299,-4.43051 q 1.38454,0 2.39986,-0.70149 1.03379,-0.71996 1.60606,-2.01219 0.57227,-1.29223 0.57227,-3.02751 0,-1.75375 -0.57227,-3.02752 -0.57227,-1.29223 -1.60606,-1.99373 -1.01532,-0.71995 -2.39986,-0.71995 -1.31069,0 -2.28909,0.68303 -0.97841,0.68304 -1.53222,1.95681 -0.53535,1.27377 -0.53535,3.10136 0,1.82758 0.53535,3.11981 0.55381,1.27377 1.53222,1.95681 0.9784,0.66457 2.28909,0.66457 z m 21.1926,4.43051 q -2.54754,0 -4.44897,-1.27377 -1.90143,-1.27377 -2.95367,-3.56287 -1.03379,-2.28909 -1.03379,-5.33506 0,-3.00906 1.05225,-5.27969 1.0707,-2.2891 2.95367,-3.56287 1.90143,-1.29223 4.39359,-1.29223 1.27377,0 2.34447,0.35075 1.07071,0.33229 1.91989,1.01532 0.84918,0.68304 1.47684,1.73528 h 0.0185 v -10.70706 h 5.42737 v 27.50607 h -5.35353 v -2.99059 h -0.0185 q -0.57228,1.12609 -1.43992,1.90143 -0.84918,0.75687 -1.9568,1.12608 -1.10763,0.36921 -2.3814,0.36921 z m 1.40299,-4.43051 q 1.38454,0 2.39986,-0.70149 1.03378,-0.71996 1.60606,-2.01219 0.57227,-1.29223 0.57227,-3.02751 0,-1.75375 -0.57227,-3.02752 -0.57228,-1.29223 -1.60606,-1.99373 -1.01532,-0.71995 -2.39986,-0.71995 -1.31069,0 -2.28909,0.68303 -0.97841,0.68304 -1.53222,1.95681 -0.53535,1.27377 -0.53535,3.10136 0,1.82758 0.53535,3.11981 0.55381,1.27377 1.53222,1.95681 0.9784,0.66457 2.28909,0.66457 z m 13.60534,4.02438 v -19.49423 h 5.44584 v 19.49423 z m 2.71369,-21.94947 q -1.34761,0 -2.23371,-0.81226 -0.88611,-0.83072 -0.88611,-2.08603 0,-1.25531 0.88611,-2.06757 0.8861,-0.83072 2.21525,-0.83072 1.34761,0 2.23371,0.83072 0.88611,0.81226 0.88611,2.06757 0,1.25531 -0.88611,2.08603 -0.8861,0.81226 -2.21525,0.81226 z m 11.50087,16.3375 v -6.42424 h 0.57227 l 6.83037,-7.45802 h 6.38731 l -8.84255,9.8025 h -1.25531 z m -4.92894,5.61197 v -27.50607 h 5.44583 v 27.50607 z m 12.75617,0 -6.16579,-8.4918 3.59979,-3.7844 8.93485,12.2762 z m 10.74399,0.33229 q -1.29224,0 -2.21526,-0.90456 -0.90456,-0.92302 -0.90456,-2.23372 0,-1.31069 0.90456,-2.21525 0.92302,-0.92302 2.21526,-0.92302 1.31069,0 2.21525,0.92302 0.92302,0.90456 0.92302,2.21525 0,1.3107 -0.92302,2.23372 -0.90456,0.90456 -2.21525,0.90456 z m 15.4883,0.11076 q -2.91675,0 -5.13201,-1.27377 -2.19679,-1.29223 -3.43364,-3.58132 -1.21839,-2.30756 -1.21839,-5.31661 0,-3.02752 1.21839,-5.31661 1.23685,-2.30756 3.43364,-3.59979 2.21526,-1.29223 5.13201,-1.29223 1.91989,0 3.54441,0.57227 1.62451,0.55382 2.82444,1.5876 1.21839,1.03379 1.93835,2.45524 0.71996,1.40299 0.84918,3.11982 h -5.26123 q -0.11076,-0.75688 -0.42459,-1.36608 -0.29536,-0.60919 -0.77534,-1.05224 -0.47997,-0.44305 -1.14454,-0.68304 -0.64612,-0.23999 -1.47684,-0.23999 -1.36607,0 -2.34448,0.71996 -0.9784,0.7015 -1.51375,2.01219 -0.5169,1.29223 -0.5169,3.0829 0,1.7722 0.5169,3.06443 0.53535,1.29223 1.51375,2.01219 0.97841,0.7015 2.34448,0.7015 0.83072,0 1.47684,-0.23999 0.64611,-0.23999 1.10762,-0.68304 0.47998,-0.44305 0.77534,-1.05224 0.29537,-0.62766 0.42459,-1.403 h 5.29815 q -0.0923,1.69837 -0.81226,3.11982 -0.70149,1.40299 -1.91988,2.45524 -1.21839,1.05225 -2.86137,1.62452 -1.62452,0.57227 -3.56287,0.57227 z m 21.10029,0 q -2.93521,0 -5.16892,-1.27377 -2.23372,-1.27377 -3.48903,-3.56286 -1.23685,-2.2891 -1.23685,-5.33507 0,-3.06444 1.23685,-5.35353 1.25531,-2.2891 3.48903,-3.56287 2.23371,-1.29223 5.16892,-1.29223 2.97214,0 5.18739,1.29223 2.23371,1.27377 3.47056,3.56287 1.25532,2.28909 1.25532,5.35353 0,3.04597 -1.25532,5.33507 -1.23685,2.28909 -3.47056,3.56286 -2.21525,1.27377 -5.18739,1.27377 z m 0,-4.41204 q 1.32916,0 2.32602,-0.68304 0.99687,-0.7015 1.55068,-1.99373 0.55381,-1.29223 0.55381,-3.08289 0,-1.82759 -0.55381,-3.11982 -0.55381,-1.29223 -1.55068,-1.97527 -0.99686,-0.70149 -2.32602,-0.70149 -1.31069,0 -2.30755,0.70149 -0.99687,0.68304 -1.55068,1.97527 -0.55381,1.29223 -0.55381,3.11982 0,1.80912 0.55381,3.10135 0.55381,1.27377 1.55068,1.97527 0.99686,0.68304 2.30755,0.68304 z m 12.90386,3.96899 v -19.49423 h 5.24277 v 4.39359 h -0.33229 q 0.51689,-1.62452 1.45838,-2.67677 0.94148,-1.07071 2.17833,-1.5876 1.23685,-0.53535 2.60292,-0.53535 2.23372,0 3.8767,1.29223 1.64298,1.27377 1.99373,3.50749 h -0.57228 q 0.36921,-1.4953 1.31069,-2.56601 0.94149,-1.0707 2.2891,-1.64298 1.36607,-0.59073 2.95367,-0.59073 1.88297,0 3.3598,0.81226 1.4953,0.81226 2.34448,2.3814 0.84918,1.55067 0.84918,3.78439 v 12.92231 h -5.42737 v -11.92545 q 0,-1.75374 -0.95994,-2.62138 -0.94149,-0.86764 -2.34448,-0.86764 -1.03379,0 -1.80913,0.46151 -0.77533,0.46151 -1.19992,1.29223 -0.40613,0.81226 -0.40613,1.91989 v 11.74084 h -5.24277 v -12.07313 q 0,-1.51376 -0.90456,-2.41832 -0.90457,-0.92302 -2.34448,-0.92302 -0.95994,0 -1.75374,0.46151 -0.77534,0.44305 -1.25531,1.32915 -0.46151,0.86764 -0.46151,2.12295 v 11.50086 z"
    id="text25"
    aria-label="imadsaddik.com"
  /><g
    id="g26"
    transform="matrix(1.5823894,0,0,1.5823894,342.27167,181.09304)"
    style="fill:#027f02;fill-opacity:1;stroke-width:0.631956"
  ><path
      d="M 19.42,3.83 12.24,2 V 2 A 0.67,0.67 0 0 0 12,2 0.67,0.67 0 0 0 11.8,2 V 2 L 4.58,3.83 A 2,2 0 0 0 3.07,5.92 l 0.42,5.51 a 12,12 0 0 0 7.24,10.11 l 0.88,0.38 v 0 a 0.91,0.91 0 0 0 0.7,0 v 0 l 0.88,-0.38 A 12,12 0 0 0 20.43,11.43 L 20.85,5.92 A 2,2 0 0 0 19.42,3.83 Z m -3.71,5.88 -4,4 a 1,1 0 0 1 -1.42,0 l -2,-2 a 1.0040916,1.0040916 0 0 1 1.42,-1.42 l 1.29,1.3 3.29,-3.3 a 1.0040916,1.0040916 0 0 1 1.42,1.42 z"
      style="fill:#027f02;fill-opacity:1;stroke-width:0.631956"
      data-darkreader-inline-fill=""
      id="path26"
    /></g><text
    xml:space="preserve"
    style="font-size:37.807px;line-height:1.2;font-family:Inter;-inkscape-font-specification:Inter;writing-mode:lr-tb;direction:ltr;fill:#404040;fill-opacity:1;stroke:none;stroke-width:2.00001;stroke-linecap:butt;stroke-linejoin:miter;stroke-dasharray:none;stroke-opacity:1"
    x="-340.72018"
    y="252.67346"
    id="text29"
  ><tspan
      sodipodi:role="line"
      id="tspan29"
      style="font-weight:bold;stroke-width:2.00001"
      x="-340.72018"
      y="252.67346"
    >imadsaddik.com</tspan></text><g
    id="SVGRepo_iconCarrier"
    transform="matrix(0.71164493,0,0,0.71164493,417.81887,327.24623)"
    style="stroke-width:1.40519"
  ><g id="g15" style="stroke-width:1.40519"><path
        d="m 126.9166,175.2504 c -0.99974,-6.55644 -6.66771,-11.66891 -13.5588,-11.66891 -6.89024,0 -12.55822,5.0012 -13.558793,11.66891 h 1.556083 z"
        fill="#000000"
        id="path1-3"
        style="stroke-width:1.40519"
      /><path
        d="m 96.353882,175.2504 c -0.999738,-6.55644 -6.667712,-11.66891 -13.558797,-11.66891 -6.891085,0 -12.558222,5.0012 -13.558797,11.66891 h 25.560679 z"
        fill="#000000"
        id="path2-67"
        style="stroke-width:1.40519"
      /><path
        d="m 78.572758,152.00895 v 19.24083 H 93.35383 V 122.79467 H 78.572758 v 19.90927 c -0.909924,1.33426 -1.44481,2.93838 -1.44481,4.6525 0,1.71413 0.534886,3.31825 1.44481,4.65251 z m 6.890249,-9.76581 c -2.778353,0 -5.111635,2.22285 -5.111635,5.11247 0,2.88962 2.22285,5.11163 5.111635,5.11163 2.88962,0 5.11247,-2.22201 5.11247,-5.11163 0,-2.88962 -2.334117,-5.11247 -5.11247,-5.11247 z"
        fill="#ed1c24"
        id="path3-5"
        style="stroke-width:1.40519"
      /><path
        d="m 117.24716,142.54474 v -19.75007 h -14.78107 v 48.45511 h 14.78107 v -19.0813 c 0.97747,-1.36505 1.55608,-3.02903 1.55608,-4.81204 0,-1.78286 -0.57865,-3.44672 -1.55608,-4.8117 z m -6.77898,-0.3016 c -2.77835,0 -5.11247,2.22285 -5.11247,5.11247 0,2.88962 2.22285,5.11163 5.11247,5.11163 2.88962,0 5.11164,-2.22201 5.11164,-5.11163 0,-2.88962 -2.33328,-5.11247 -5.11164,-5.11247 z"
        fill="#ed1c24"
        id="path4-3"
        style="stroke-width:1.40519"
      /><path
        d="m 142.88478,75.111055 2.70225,-41.780022 h 4.33443 l 2.08527,41.91168 c 1.58009,1.323362 2.58213,3.312308 2.58213,5.542856 0,3.887268 -3.04255,7.040754 -6.88583,7.216343 -5.05789,5.866536 -13.9174,13.998348 -27.12117,18.900678 v -20.449048 0 c 0,0 12.22278,1.658798 19.56729,-5.315234 -0.006,-0.116858 -0.008,-0.234459 -0.008,-0.352739 0,-2.305805 1.07079,-4.353429 2.74402,-5.674514 z m 4.48003,1.896422 c -2.11158,0 -3.88936,1.777778 -3.88936,3.88936 0,2.111581 1.77778,3.889359 3.88936,3.889359 2.11158,0 3.88936,-1.777778 3.88936,-3.889359 0,-2.111582 -1.66651,-3.88936 -3.88936,-3.88936 z"
        fill="#ed1c24"
        id="path5-5"
        style="stroke-width:1.40519"
      /><path
        d="M 52.935138,75.111055 50.232889,33.331033 h -4.334432 l -1.976668,41.82251 c -1.642639,1.322274 -2.69073,3.350797 -2.69073,5.632026 0,3.887538 3.043762,7.041192 6.886703,7.21638 5.057896,5.866533 13.917394,13.998321 27.12114,18.900641 V 86.453542 c 0,0 -12.223672,1.658918 -19.568092,-5.315994 0.0055,-0.116608 0.0084,-0.233955 0.0084,-0.351979 0,-2.305805 -1.070795,-4.353429 -2.744025,-5.674514 z m -4.480027,1.896422 c -2.111582,0 -3.889359,1.777778 -3.889359,3.88936 0,2.111581 1.777777,3.889359 3.889359,3.889359 2.111582,0 3.88936,-1.777778 3.88936,-3.889359 0,-2.111582 -1.777778,-3.88936 -3.88936,-3.88936 z"
        fill="#ed1c24"
        id="path6-6"
        style="stroke-width:1.40519"
      /><path
        d="M 53.455477,18.328261 V 30.553516 H 43.342641 V 18.328261 c -3.112157,1.777778 -5.223739,5.112471 -5.223739,8.890562 0,5.667974 4.556967,10.224105 10.224941,10.224105 5.667974,0 10.224105,-4.556131 10.224105,-10.224105 0.111268,-3.778091 -2.000314,-7.112784 -5.112471,-8.890562 z"
        fill="#000000"
        id="path7-2"
        style="stroke-width:1.40519"
      /><path
        d="m 143.03122,18.328261 v 12.225255 h 10.11283 V 18.328261 c 3.11216,1.777778 5.22374,5.112471 5.22374,8.890562 0,5.667974 -4.55613,10.224105 -10.2241,10.224105 -5.66798,0 -10.22495,-4.556131 -10.22495,-10.224105 -0.11126,-3.778091 2.00032,-7.112784 5.11248,-8.890562 z"
        fill="#000000"
        id="path8-9"
        style="stroke-width:1.40519"
      /><path
        d="m 76.242341,83.284205 0.218835,-23.169382 c 0.111268,-5.890509 2.44455,-11.335947 6.667713,-15.447843 4.223163,-4.111895 9.779869,-6.334745 15.669542,-6.223477 5.890509,0.111268 11.335949,2.444549 15.447839,6.667713 4.1119,4.223163 6.33475,9.779869 6.22348,15.670379 l -0.28407,22.186016 c 4.66803,5.195684 7.50812,12.066864 7.50812,19.601379 0,16.20382 -13.13579,29.33961 -29.339604,29.33961 -16.203818,0 -29.339608,-13.13579 -29.339608,-29.33961 0,-7.382464 2.72662,-14.128096 7.227753,-19.284785 z M 112.704,76.97207 112.91273,60.670327 c 0,-3.88936 -1.44481,-7.55702 -4.11189,-10.335373 -2.66709,-2.778353 -6.33475,-4.334431 -10.224945,-4.334431 -3.890196,0 -7.557019,1.44481 -10.335372,4.111895 -2.778353,2.667085 -4.334431,6.334745 -4.334431,10.224105 l -0.238407,16.827652 c 4.319239,-2.502344 9.335592,-3.934789 14.686511,-3.934789 5.212454,0 10.107434,1.35927 14.349814,3.742687 z M 90.908444,69.005386 c 1.779787,0 3.222589,-1.442802 3.222589,-3.222589 0,-1.779786 -1.442802,-3.222588 -3.222589,-3.222588 -1.779786,0 -3.222588,1.442802 -3.222588,3.222588 0,1.779787 1.442802,3.222589 3.222588,3.222589 z m 15.114036,0 c 1.77979,0 3.22259,-1.442802 3.22259,-3.222589 0,-1.779786 -1.4428,-3.222588 -3.22259,-3.222588 -1.77978,0 -3.22258,1.442802 -3.22258,3.222588 0,1.779787 1.4428,3.222589 3.22258,3.222589 z"
        fill="#000000"
        id="path9"
        style="stroke-width:1.40519"
      /><path
        d="m 95.687111,97.790327 -1.111843,21.003713 h 8.224632 l -1.66735,-21.114981 c 2.00031,-1.000575 3.33385,-3.000889 3.33385,-5.446275 0,-3.333856 -2.77835,-6.112209 -6.112204,-6.112209 -3.333856,0 -6.112209,2.778353 -6.112209,6.112209 0.111268,2.556654 1.44481,4.556131 3.445124,5.557543 z"
        fill="#ed1c24"
        id="path10"
        style="stroke-width:1.40519"
      /><path
        d="M 27.783529,11.548444 C 24.78264,7.1035817 20.559477,4.5469281 16.114614,4.5469281 c -4.556967,0 -8.6688624,2.444549 -11.7810192,6.8902489 C 1.5560784,15.549909 0,20.995346 0,26.66332 c 0,5.667138 1.5560784,11.113412 4.3344314,15.225307 3.0008889,4.444863 7.2240526,6.890249 11.6689146,6.890249 4.4457,0 8.668863,-2.444549 11.78102,-6.890249 2.000314,-2.889621 3.333856,-6.334745 3.889359,-10.113673 0.111268,-0.666771 0.77804,-1.222274 1.444811,-1.222274 l 176.148914,0.111268 c 0.77804,0 1.44481,-0.666772 1.55608,-1.444811 v -4.668235 c 0,-0.778039 -0.66677,-1.44481 -1.44481,-1.555242 h -5.33417 c -0.77804,0 -1.44481,-0.666771 -1.44481,-1.556078 V 1.6573072 c 0,-0.77803923 -0.66677,-1.44481047 -1.44481,-1.55607844 H 178.9281 c -0.77804,0 -1.44481,0.66677124 -1.55607,1.44481044 V 21.328314 c 0,0.778039 -0.66678,1.44481 -1.55608,1.44481 h -1.33355 c -0.77803,0 -1.44481,-0.666771 -1.44481,-1.555242 V 6.1038431 c 0,-0.7780392 -0.66677,-1.4448104 -1.44481,-1.5560784 h -3.44512 c -0.77804,0 -1.44481,0.6667712 -1.55608,1.4448105 V 21.106614 c 0,0.77804 -0.66677,1.444811 -1.55524,1.444811 H 33.229804 c -0.778039,0 -1.333543,-0.555503 -1.444811,-1.222275 -0.778875,-3.445961 -2.000313,-7.002353 -4.001464,-9.780706 z M 16.003346,42.555399 c -5.334169,0 -9.8911369,-7.335321 -9.8911369,-15.892079 0,-8.557595 4.5569679,-15.892915 10.0024049,-15.892915 5.445438,0 9.891138,7.33532 9.891138,15.892915 0,8.557595 -4.668236,15.892079 -10.002406,15.892079 z"
        fill="#ed1c24"
        id="path11"
        style="stroke-width:1.40519"
      /><path
        d="M 55.790431,33.331033 C 55.012392,32.219189 54.234353,31.663686 53.456314,30.55268 v 0 H 43.342641 V 18.327425 c -3.112157,1.777778 -5.223739,5.11247 -5.223739,8.890562 0,5.667974 4.556967,10.224104 10.224941,10.224104 3.11132,0 5.89051,-1.44481 7.779556,-3.556392 0,-0.220862 -0.222536,-0.33213 -0.332968,-0.554666 z"
        fill="#000000"
        id="path12"
        style="stroke-width:1.40519"
      /><path
        d="m 140.80837,33.331033 c 0.77804,-1.111844 0.99973,-1.667347 1.77777,-2.778353 h 0.55551 10.11283 V 18.327425 c 3.11216,1.777778 5.22374,5.11247 5.22374,8.890562 0,5.667974 -4.55613,10.224104 -10.2241,10.224104 -3.11216,0 -5.89051,-1.44481 -7.77956,-3.556392 8.4e-4,-0.220862 0.11127,-0.33213 0.33381,-0.554666 z"
        fill="#000000"
        id="path13"
        style="stroke-width:1.40519"
      /><path
        d="m 166.14735,163.24852 c 2.88962,0 5.22373,-0.88847 6.89024,-2.55665 1.77778,-1.66651 2.55582,-3.88936 2.55582,-6.66771 h 14.55854 l 0.11127,0.33296 c 0.11126,6.00094 -2.11159,11.11342 -6.77982,15.22531 -4.6674,4.1119 -10.55791,6.11221 -17.44816,6.11221 -8.89056,0 -15.78081,-2.77752 -20.67074,-8.44633 -4.77867,-5.66713 -7.22406,-12.89119 -7.22406,-21.78259 v -1.6665 c 0,-8.78014 2.44539,-16.00335 7.44576,-21.78259 5.0012,-5.66714 12.00271,-8.5576 21.22708,-8.5576 4.77867,0 9.1131,0.66677 13.00246,2.11075 3.77893,1.44564 7.00151,3.44512 9.55733,6.11304 l 0.22254,16.00335 h -13.11373 l -2.66708,-9.3348 c -0.77804,-0.66677 -1.77778,-1.33438 -3.00006,-1.77861 -1.22227,-0.44424 -2.55665,-0.66677 -4.00062,-0.66677 -4.55697,0 -7.77956,1.66734 -9.6686,5.0012 -1.88989,3.33386 -2.77836,7.55702 -2.77836,12.78076 v 1.66651 c 0,5.335 0.88847,9.66943 2.55582,12.89202 1.88905,3.33553 4.88993,5.00204 9.22437,5.00204 z m 59.01302,12.33569 c -8.66887,0 -15.55912,-2.77752 -20.67075,-8.33506 -5.11247,-5.55671 -7.77956,-12.55822 -7.77956,-21.11582 v -2.22201 c 0,-8.8914 2.44539,-16.22588 7.33533,-22.00512 4.88993,-5.77841 11.44721,-8.5576 19.671,-8.5576 8.11252,0 14.336,2.44455 18.7817,7.33532 4.44486,4.88994 6.66771,11.44722 6.66771,19.78228 v 8.77929 h -35.67435 l -0.11127,0.33297 c 0.33381,4.00062 1.66735,7.22405 4.00147,9.77987 2.33411,2.55665 5.5567,3.77892 9.55733,3.77892 3.55556,0 6.55644,-0.33296 8.89056,-1.111 2.33412,-0.66677 4.88994,-1.88988 7.77956,-3.44513 l 4.33443,10.00157 c -2.44539,2.00115 -5.66797,3.55639 -9.55733,4.89077 -4.00231,1.44398 -8.33674,2.11075 -13.22583,2.11075 z m -1.44481,-49.56612 c -3.00089,0 -5.33417,1.11101 -7.11279,3.44513 -1.77861,2.33411 -2.77835,5.33417 -3.22342,9.00183 l 0.11126,0.22337 h 19.89355 v -1.44565 c 0,-3.44512 -0.77804,-6.11221 -2.44455,-8.22379 -1.55608,-2.00115 -3.8902,-3.00089 -7.22405,-3.00089 z m 34.89631,38.78567 7.77956,-1.66651 v -37.11916 l -8.5576,-1.66651 v -9.77987 h 23.5612 l 0.66677,8.7793 c 1.44481,-3.11132 3.22343,-5.55671 5.44544,-7.22322 2.22285,-1.77861 4.7795,-2.55665 7.66829,-2.55665 0.88931,0 1.77861,0.11127 2.66708,0.22253 0.88847,0.11127 1.66735,0.33297 2.33412,0.44424 v 12.22442 l -4.7795,0.11126 c -4.22317,0 -8.00126,1.55608 -9.3348,2.44539 -1.44481,0.99974 -2.77835,3.33386 -3.66766,5.0012 v 29.11707 l 7.77956,1.66651 v 9.66944 h -31.67289 v -9.66944 z m 74.01579,-64.79142 v 14.22557 h 10.55791 v 12.22442 h -10.55791 v 30.00638 c 0,2.33411 0.44423,4.00062 1.44565,5.00203 0.99974,0.99974 2.22201,1.44482 3.88936,1.44482 1.111,0 2.11074,0 2.88878,-0.11127 0.77888,-0.11127 1.77861,-0.22254 2.77835,-0.44424 l 1.33438,11.66892 c -1.77861,0.5555 -3.55639,0.99974 -5.335,1.22227 -1.77778,0.22254 -3.66766,0.44424 -5.77841,0.44424 -5.55754,0 -9.89114,-1.55525 -12.89202,-4.55613 -3.00089,-3.11216 -4.55614,-7.89083 -4.55614,-14.55854 v -30.00638 h -8.77929 v -12.22442 h 8.77929 v -14.33683 h 16.22505 z"
        fill="#000000"
        id="path14"
        style="stroke-width:1.40519"
      /><path
        d="m 407.64403,146.24544 c 0,8.89056 -2.00032,16.00334 -6.00095,21.44878 -4.00062,5.33501 -9.77986,8.00126 -17.22645,8.00126 -3.5564,0 -6.55728,-0.77804 -9.1131,-2.22202 -2.55665,-1.44564 -4.7795,-3.55639 -6.55728,-6.33474 l -1.11101,7.33532 H 353.74348 V 99.568941 l -8.5576,-1.66651 v -9.779869 h 24.67137 v 32.784728 c 1.77862,-2.44538 3.77893,-4.22316 6.22348,-5.55754 2.44539,-1.33354 5.2229,-1.88904 8.33506,-1.88904 7.55702,0 13.33626,2.88962 17.33773,8.55759 4.00062,5.77924 6.00094,13.33626 6.00094,22.89359 v 1.33438 h -0.11043 z m -16.11462,-1.22311 c 0,-5.77841 -0.88847,-10.44664 -2.55665,-13.89093 -1.66651,-3.44513 -4.6674,-5.11247 -8.7793,-5.11247 -2.55665,0 -4.66739,0.5555 -6.33474,1.55608 -1.77778,0.99973 -3.11216,2.55581 -4.1119,4.55613 v 25.22687 c 0.99974,1.88988 2.33412,3.22343 4.1119,4.224 1.77861,0.99974 3.88936,1.44481 6.44601,1.44481 4.1119,0 7.11279,-1.44481 8.7793,-4.44486 1.66734,-2.88962 2.44538,-7.11278 2.44538,-12.44695 z m 22.8936,-1.00058 c 0,-8.89056 2.44538,-16.22588 7.44575,-21.89386 5.0012,-5.66713 11.89145,-8.55759 20.67158,-8.55759 8.89056,0 15.78081,2.88962 20.78201,8.55759 5.00121,5.66798 7.44575,13.0033 7.44575,22.00513 v 1.11101 c 0,9.00266 -2.44538,16.33715 -7.44575,22.00512 -5.0012,5.66797 -11.89145,8.44633 -20.67074,8.44633 -8.8914,0 -15.78165,-2.77752 -20.78285,-8.44633 -5.0012,-5.66714 -7.44575,-13.00246 -7.44575,-22.00512 z m 16.11461,1.11101 c 0,5.44627 1.00058,9.77987 2.88962,13.11456 1.88988,3.33386 5.0012,5.0012 9.33564,5.0012 4.11189,0 7.22405,-1.66651 9.11309,-5.0012 1.88989,-3.33386 2.88963,-7.66829 2.88963,-13.11456 v -1.11101 c 0,-5.33417 -0.99974,-9.66944 -2.88963,-13.00329 -2.00031,-3.33302 -5.0012,-5.0012 -9.22353,-5.0012 -4.224,0 -7.22405,1.66734 -9.22436,5.0012 -1.88905,3.33385 -2.88962,7.66912 -2.88962,13.00329 v 1.11101 z m 69.12669,-45.12042 v 14.6698 h 10.55791 v 11.33595 h -10.55791 v 30.45062 c 0,2.33411 0.44424,4.00062 1.44481,5.00203 0.99974,0.99974 2.22285,1.44482 3.88936,1.44482 1.11101,0 2.11159,0 2.88962,-0.11127 0.77804,-0.11127 1.77778,-0.22254 2.77836,-0.44424 L 512,174.02897 c -1.77778,0.5555 -3.55639,0.99974 -5.33417,1.22227 -1.77861,0.22254 -3.66766,0.44424 -5.77924,0.44424 -5.55671,0 -9.89114,-1.55525 -12.89119,-4.55613 -3.00089,-3.11216 -4.55697,-7.89083 -4.55697,-14.55854 v -30.56188 h -8.77929 v -11.33595 h 8.77929 v -14.6698 h 16.22588 z"
        fill="#ed1c24"
        id="path15"
        style="stroke-width:1.40519"
      /></g></g><g
    id="g30"
    transform="matrix(0.45279649,0,0,0.45279888,470.36507,109.47599)"
    style="stroke-width:2.20849"
  ><path
      style="opacity:1;fill:none;fill-opacity:1;stroke:#ffffff;stroke-width:8.83176"
      d="m 870.45422,189.19044 -21.7489,21.74985"
      id="path29"
    /><path
      style="opacity:1;fill:none;fill-opacity:1;stroke:#ffffff;stroke-width:8.83176"
      d="m 848.70532,189.19044 21.7489,21.74985"
      id="path30"
    /></g><path
    style="opacity:1;fill:none;fill-opacity:1;stroke:#ffffff;stroke-width:3.999"
    d="m 820.69236,195.72688 h 8.67654 l 10e-6,8.67699 h -8.67655 z"
    id="path31"
  /><path
    style="opacity:1;fill:none;fill-opacity:1;stroke:#ffffff;stroke-width:3.999"
    d="m 784.14396,200.06537 h 12.67556"
    id="path32"
  /></svg>
