<?xml version="1.0" encoding="UTF-8" standalone="no" ?>
<!-- Created with Inkscape (http://www.inkscape.org/) -->
<svg
  width="1200"
  height="675"
  viewBox="0 0 317.49999 178.59375"
  version="1.1"
  id="svg1"
  inkscape:version="1.4.2 (ebf0e940d0, 2025-05-08)"
  sodipodi:docname="coverImage.svg"
  xml:space="preserve"
  xmlns:inkscape="http://www.inkscape.org/namespaces/inkscape"
  xmlns:sodipodi="http://sodipodi.sourceforge.net/DTD/sodipodi-0.dtd"
  xmlns="http://www.w3.org/2000/svg"
  xmlns:svg="http://www.w3.org/2000/svg"
><sodipodi:namedview
    id="namedview1"
    pagecolor="#ffffff"
    bordercolor="#000000"
    borderopacity="0.25"
    inkscape:showpageshadow="2"
    inkscape:pageopacity="0.0"
    inkscape:pagecheckerboard="0"
    inkscape:deskcolor="#d1d1d1"
    inkscape:document-units="px"
    inkscape:zoom="0.92212231"
    inkscape:cx="598.07684"
    inkscape:cy="464.6889"
    inkscape:window-width="2560"
    inkscape:window-height="1371"
    inkscape:window-x="0"
    inkscape:window-y="0"
    inkscape:window-maximized="1"
    inkscape:current-layer="layer1"
  /><defs id="defs1" /><g inkscape:label="Layer 1" inkscape:groupmode="layer" id="layer1"><rect
      style="fill:#ffffff;fill-opacity:1;stroke-width:0.163031;stroke-linejoin:round"
      id="rect1-3"
      width="317.49997"
      height="178.59375"
      x="1.2758789e-05"
      y="7.3508852e-07"
    /><g id="SVGRepo_bgCarrier" stroke-width="0" transform="matrix(2.2424018,0,0,2.2424018,119.64845,52.401878)" /><g
      id="SVGRepo_tracerCarrier"
      stroke-linecap="round"
      stroke-linejoin="round"
      transform="matrix(2.2424018,0,0,2.2424018,119.64845,52.401878)"
      style="stroke-width:0.117991"
    /><g
      id="SVGRepo_iconCarrier"
      transform="matrix(2.2424018,0,0,2.2424018,122.87374,52.401878)"
      style="stroke-width:0.117991"
    ><title id="title1">inkscape</title><path
        d="m 25.431,25.209 c -1.263,1.135 0.142,2.284 1.388,1.552 0.277,-0.281 -0.008,-1.27 -1.387,-1.552 z M 7.296,27.041 c 0.98,0.849 2.496,-0.211 2.949,-1.395 -0.95,-1.262 -4.507,0.046 -2.949,1.395 z m 18.655,-2.987 c 0,0.562 4.141,0.931 4.141,-0.132 -0.397,-0.733 -1.16,-1.222 -2.038,-1.222 -0.929,0 -1.731,0.549 -2.097,1.34 z M 13.233,2.216 2.161,13.545 c -3.74,4.632 2.547,4.094 5.241,5.427 0.967,0.988 -3.705,1.718 -2.738,2.707 0.966,0.988 5.846,1.904 6.814,2.892 0.966,0.988 -1.979,2.037 -1.012,3.024 0.966,0.99 3.203,0.052 3.621,2.334 0.297,1.63 4.029,0.7 5.853,-0.635 0.967,-0.988 -1.849,-0.896 -0.882,-1.884 2.403,-2.458 4.642,-0.892 5.465,-3.357 0.406,-1.217 -3.539,-1.876 -2.571,-2.864 2.782,-1.625 12.395,-2.682 7.833,-7.243 L 18.311,2.216 C 17.652,1.587 16.757,1.2 15.772,1.2 c -0.985,0 -1.88,0.387 -2.54,1.017 z m 4.408,0.796 4.38,4.449 c 0.207,0.229 0.333,0.533 0.333,0.868 0,0.226 -0.058,0.438 -0.159,0.623 L 22.198,8.945 20.024,7.206 19.597,9.782 17.779,8.823 14.87,10.66 13.907,6.786 12.344,9.49 H 9.953 C 8.978,9.49 8.865,8.253 9.749,7.368 11.295,5.7 13.069,3.999 14.034,3.013 14.5,2.56 15.136,2.281 15.838,2.281 c 0.702,0 1.338,0.279 1.804,0.733 L 17.641,3.013 Z m -7.057,16.576 c 0.296,0.184 4.771,1.093 5.865,1.275 0.379,0.08 0.11,0.47 -0.412,0.734 -1.178,0.314 -6.894,-2.008 -5.452,-2.008 z"
        id="path1"
        style="stroke-width:0.117991"
      /></g><g
      id="g2"
      transform="matrix(1.0990298,0,0,1.0990298,255.43729,96.946597)"
      style="stroke-width:0.240743"
    ><title id="title2">inkscape</title><path
        d="m 25.431,25.209 c -1.263,1.135 0.142,2.284 1.388,1.552 0.277,-0.281 -0.008,-1.27 -1.387,-1.552 z M 7.296,27.041 c 0.98,0.849 2.496,-0.211 2.949,-1.395 -0.95,-1.262 -4.507,0.046 -2.949,1.395 z m 18.655,-2.987 c 0,0.562 4.141,0.931 4.141,-0.132 -0.397,-0.733 -1.16,-1.222 -2.038,-1.222 -0.929,0 -1.731,0.549 -2.097,1.34 z M 13.233,2.216 2.161,13.545 c -3.74,4.632 2.547,4.094 5.241,5.427 0.967,0.988 -3.705,1.718 -2.738,2.707 0.966,0.988 5.846,1.904 6.814,2.892 0.966,0.988 -1.979,2.037 -1.012,3.024 0.966,0.99 3.203,0.052 3.621,2.334 0.297,1.63 4.029,0.7 5.853,-0.635 0.967,-0.988 -1.849,-0.896 -0.882,-1.884 2.403,-2.458 4.642,-0.892 5.465,-3.357 0.406,-1.217 -3.539,-1.876 -2.571,-2.864 2.782,-1.625 12.395,-2.682 7.833,-7.243 L 18.311,2.216 C 17.652,1.587 16.757,1.2 15.772,1.2 c -0.985,0 -1.88,0.387 -2.54,1.017 z m 4.408,0.796 4.38,4.449 c 0.207,0.229 0.333,0.533 0.333,0.868 0,0.226 -0.058,0.438 -0.159,0.623 L 22.198,8.945 20.024,7.206 19.597,9.782 17.779,8.823 14.87,10.66 13.907,6.786 12.344,9.49 H 9.953 C 8.978,9.49 8.865,8.253 9.749,7.368 11.295,5.7 13.069,3.999 14.034,3.013 14.5,2.56 15.136,2.281 15.838,2.281 c 0.702,0 1.338,0.279 1.804,0.733 L 17.641,3.013 Z m -7.057,16.576 c 0.296,0.184 4.771,1.093 5.865,1.275 0.379,0.08 0.11,0.47 -0.412,0.734 -1.178,0.314 -6.894,-2.008 -5.452,-2.008 z"
        id="path2"
        style="stroke-width:0.240743"
      /></g><g
      id="text2"
      style="font-weight:500;font-size:22.5778px;line-height:1.2;font-family:Inter;-inkscape-font-specification:'Inter Medium';fill:#a02c89;stroke:#000000;stroke-width:1.05833"
      aria-label="Remove invisible&#10;data"
    ><path
        style="font-weight:bold;fill:#000000;stroke:none"
        d="M 16.459289,32.444546 V 16.018314 h 6.570493 q 1.852085,0 3.197052,0.661459 1.355991,0.650434 2.083596,1.863109 0.738629,1.201651 0.738629,2.866323 0,1.620574 -0.771702,2.8112 -0.771702,1.190627 -2.171791,1.841061 -1.389064,0.639411 -3.274222,0.639411 H 18.498788 V 23.97787 h 4.332556 q 0.89297,0 1.543405,-0.319705 0.650434,-0.319705 1.003212,-0.892969 0.352779,-0.584289 0.352779,-1.355991 0,-0.793751 -0.352779,-1.355991 -0.352778,-0.573265 -1.003212,-0.89297 -0.650435,-0.319705 -1.554429,-0.319705 h -2.965541 v 13.604007 z m 9.315548,0 -3.759292,-7.419365 h 3.560854 l 3.836462,7.419365 z m 10.045348,0.264583 q -1.76389,0 -3.075784,-0.771702 -1.300869,-0.782726 -2.028474,-2.160766 -0.716581,-1.37804 -0.716581,-3.14193 0,-1.78594 0.727605,-3.152955 0.738629,-1.378039 2.028474,-2.160766 1.289845,-0.782726 2.954517,-0.782726 1.289845,0 2.337155,0.440972 1.04731,0.429949 1.807988,1.245748 0.760678,0.804775 1.168578,1.907207 0.418924,1.102432 0.418924,2.436374 v 0.870921 H 31.156899 v -2.072572 h 8.720235 L 38.4109,25.863029 q 0,-0.881946 -0.319705,-1.521356 -0.319706,-0.63941 -0.915019,-0.981164 -0.584288,-0.352778 -1.400088,-0.352778 -0.804775,0 -1.389064,0.352778 -0.584289,0.341754 -0.903994,0.981164 -0.319705,0.63941 -0.319705,1.521356 v 1.411112 q 0,0.903994 0.319705,1.587502 0.33073,0.672483 0.948091,1.04731 0.617362,0.363802 1.488283,0.363802 0.639411,0 1.124481,-0.176389 0.496094,-0.187413 0.826823,-0.518143 0.341754,-0.341753 0.48507,-0.79375 h 2.965541 q -0.209462,1.157553 -0.981164,2.039498 -0.771702,0.881946 -1.940279,1.389064 -1.168578,0.496094 -2.579691,0.496094 z M 43.18443,32.444546 V 20.802867 h 3.130906 v 2.623788 h -0.198438 q 0.308681,-0.97014 0.870921,-1.598526 0.56224,-0.639411 1.30087,-0.948092 0.738629,-0.319705 1.554428,-0.319705 1.333943,0 2.315107,0.771702 0.981164,0.760678 1.190626,2.094621 h -0.341754 q 0.220486,-0.89297 0.782727,-1.53238 0.56224,-0.639411 1.367015,-0.981165 0.815799,-0.352778 1.763891,-0.352778 1.12448,0 2.006425,0.48507 0.89297,0.48507 1.400088,1.422137 0.507119,0.926043 0.507119,2.259985 v 7.717022 h -3.241149 v -7.121709 q 0,-1.04731 -0.573265,-1.565453 -0.56224,-0.518143 -1.400088,-0.518143 -0.617362,0 -1.080383,0.275608 -0.463021,0.275608 -0.71658,0.771702 -0.242535,0.48507 -0.242535,1.146529 v 7.011466 h -3.130906 v -7.209903 q 0,-0.903994 -0.540192,-1.444186 -0.540191,-0.551216 -1.400088,-0.551216 -0.573265,0 -1.04731,0.275608 -0.463022,0.264584 -0.749654,0.793751 -0.275608,0.518143 -0.275608,1.267796 v 6.86815 z m 25.355929,0.264583 q -1.752866,0 -3.086809,-0.760678 -1.333942,-0.760677 -2.083596,-2.127693 -0.738629,-1.367015 -0.738629,-3.186027 0,-1.830037 0.738629,-3.197052 0.749654,-1.367015 2.083596,-2.127693 1.333943,-0.771702 3.086809,-0.771702 1.774915,0 3.097833,0.771702 1.333942,0.760678 2.072571,2.127693 0.749654,1.367015 0.749654,3.197052 0,1.819012 -0.749654,3.186027 -0.738629,1.367016 -2.072571,2.127693 -1.322918,0.760678 -3.097833,0.760678 z m 0,-2.634811 q 0.793751,0 1.389064,-0.4079 0.595313,-0.418924 0.926042,-1.190626 0.33073,-0.771702 0.33073,-1.841061 0,-1.091408 -0.33073,-1.86311 -0.330729,-0.771702 -0.926042,-1.179602 -0.595313,-0.418924 -1.389064,-0.418924 -0.782727,0 -1.37804,0.418924 -0.595313,0.4079 -0.926042,1.179602 -0.33073,0.771702 -0.33073,1.86311 0,1.080383 0.33073,1.852085 0.330729,0.760678 0.926042,1.179602 0.595313,0.4079 1.37804,0.4079 z m 10.596992,2.370228 -4.310508,-11.641679 h 3.406514 l 1.918231,5.754694 q 0.341754,1.025261 0.639411,2.050523 0.297656,1.025261 0.595313,2.061547 H 80.61461 q 0.286632,-1.036286 0.573264,-2.061547 0.297657,-1.025262 0.617362,-2.050523 l 1.896182,-5.754694 h 3.373441 l -4.321532,11.641679 z m 14.113756,0.264583 q -1.763891,0 -3.075784,-0.771702 -1.30087,-0.782726 -2.028475,-2.160766 -0.71658,-1.37804 -0.71658,-3.14193 0,-1.78594 0.727605,-3.152955 0.738629,-1.378039 2.028474,-2.160766 1.289845,-0.782726 2.954517,-0.782726 1.289845,0 2.337155,0.440972 1.04731,0.429949 1.807988,1.245748 0.760678,0.804775 1.168577,1.907207 0.418924,1.102432 0.418924,2.436374 v 0.870921 H 88.587821 v -2.072572 h 8.720235 l -1.466235,0.496095 q 0,-0.881946 -0.319705,-1.521356 -0.319705,-0.63941 -0.915018,-0.981164 -0.584289,-0.352778 -1.400088,-0.352778 -0.804775,0 -1.389064,0.352778 -0.584289,0.341754 -0.903994,0.981164 -0.319705,0.63941 -0.319705,1.521356 v 1.411112 q 0,0.903994 0.319705,1.587502 0.330729,0.672483 0.948091,1.04731 0.617362,0.363802 1.488283,0.363802 0.63941,0 1.12448,-0.176389 0.496094,-0.187413 0.826824,-0.518143 0.341754,-0.341753 0.48507,-0.79375 h 2.965541 q -0.209462,1.157553 -0.981164,2.039498 -0.771702,0.881946 -1.94028,1.389064 -1.168578,0.496094 -2.57969,0.496094 z"
        id="path3"
      /><path
        style="font-weight:bold;stroke:none"
        d="M 105.45503,32.444546 V 20.802867 h 3.25217 v 11.641679 z m 1.62057,-13.107913 q -0.80478,0 -1.33394,-0.48507 -0.52917,-0.496094 -0.52917,-1.245748 0,-0.749653 0.52917,-1.234723 0.52916,-0.496094 1.32292,-0.496094 0.80477,0 1.33394,0.496094 0.52917,0.48507 0.52917,1.234723 0,0.749654 -0.52917,1.245748 -0.52917,0.48507 -1.32292,0.48507 z m 7.17683,6.636639 v 6.471274 h -3.25218 V 20.802867 h 3.19705 v 3.031687 h -0.55121 q 0.55121,-1.543404 1.57648,-2.403301 1.02526,-0.870921 2.61276,-0.870921 1.24575,0 2.16076,0.540192 0.91502,0.529167 1.41112,1.554428 0.50712,1.025262 0.50712,2.50252 v 7.287074 h -3.24115 v -6.691761 q 0,-1.168577 -0.56224,-1.774915 -0.55122,-0.617361 -1.57648,-0.617361 -0.67248,0 -1.19063,0.275608 -0.51814,0.275608 -0.80477,0.859896 -0.28663,0.573265 -0.28663,1.477259 z m 12.77055,6.471274 -4.31051,-11.641679 h 3.40651 l 1.91824,5.754694 q 0.34175,1.025261 0.63941,2.050523 0.29765,1.025261 0.59531,2.061547 h -0.7717 q 0.28663,-1.036286 0.57326,-2.061547 0.29766,-1.025262 0.61736,-2.050523 l 1.89619,-5.754694 h 3.37344 l -4.32154,11.641679 z m 9.20531,0 V 20.802867 h 3.25217 v 11.641679 z m 1.62057,-13.107913 q -0.80477,0 -1.33394,-0.48507 -0.52917,-0.496094 -0.52917,-1.245748 0,-0.749653 0.52917,-1.234723 0.52917,-0.496094 1.32292,-0.496094 0.80477,0 1.33394,0.496094 0.52917,0.48507 0.52917,1.234723 0,0.749654 -0.52917,1.245748 -0.52917,0.48507 -1.32292,0.48507 z m 8.76433,13.394545 q -1.51033,0 -2.68993,-0.463021 -1.17961,-0.474046 -1.88516,-1.355991 -0.70556,-0.881946 -0.8158,-2.127693 h 3.19705 q 0.0882,0.760677 0.63941,1.190626 0.55122,0.429948 1.49931,0.429948 0.90399,0 1.41111,-0.341754 0.51814,-0.341753 0.51814,-0.881945 0,-0.463021 -0.39687,-0.749654 -0.38585,-0.286632 -1.10243,-0.418924 l -2.0395,-0.396875 q -1.69775,-0.33073 -2.57969,-1.190626 -0.88195,-0.859897 -0.88195,-2.204864 0,-1.102431 0.59532,-1.929255 0.60633,-0.826824 1.70876,-1.278821 1.11346,-0.451997 2.63482,-0.451997 1.51033,0 2.63481,0.48507 1.12448,0.474046 1.75286,1.355991 0.63941,0.881946 0.67249,2.09462 h -3.00964 q -0.011,-0.705556 -0.55122,-1.168577 -0.54019,-0.463022 -1.41111,-0.463022 -0.83785,0 -1.31189,0.363803 -0.47405,0.352778 -0.47405,0.870921 0,0.451997 0.37483,0.738629 0.37482,0.286632 1.03628,0.429949 l 2.20487,0.429948 q 1.76389,0.341754 2.59071,1.12448 0.83785,0.771702 0.83785,2.061547 0,1.157554 -0.66146,2.028475 -0.65043,0.859896 -1.81901,1.344966 -1.15755,0.474046 -2.67891,0.474046 z m 6.90122,-0.286632 V 20.802867 h 3.25218 v 11.641679 z m 1.62058,-13.107913 q -0.80478,0 -1.33395,-0.48507 -0.52916,-0.496094 -0.52916,-1.245748 0,-0.749653 0.52916,-1.234723 0.52917,-0.496094 1.32292,-0.496094 0.80478,0 1.33395,0.496094 0.52916,0.48507 0.52916,1.234723 0,0.749654 -0.52916,1.245748 -0.52917,0.48507 -1.32292,0.48507 z m 10.59436,13.350448 q -0.76068,0 -1.42214,-0.220487 -0.66145,-0.220486 -1.1796,-0.672483 -0.50712,-0.463021 -0.84887,-1.135505 h -0.011 v 1.78594 h -3.20808 V 16.018314 h 3.25217 v 6.394103 h 0.011 q 0.37482,-0.628386 0.88194,-1.036285 0.50712,-0.4079 1.14653,-0.606338 0.65044,-0.209462 1.40009,-0.209462 1.48828,0 2.61276,0.771702 1.13551,0.760678 1.76389,2.127694 0.63941,1.355991 0.63941,3.152954 0,1.819012 -0.62838,3.186028 -0.62839,1.367015 -1.75287,2.127693 -1.12448,0.760678 -2.65686,0.760678 z m -0.83785,-2.645836 q 0.79375,0 1.36702,-0.396876 0.58429,-0.407899 0.90399,-1.168577 0.33073,-0.771702 0.33073,-1.86311 0,-1.091407 -0.33073,-1.852085 -0.3197,-0.760678 -0.90399,-1.168578 -0.57327,-0.407899 -1.36702,-0.407899 -0.8158,0 -1.44418,0.429948 -0.61736,0.418924 -0.95912,1.190626 -0.33073,0.760678 -0.33073,1.807988 0,1.036286 0.33073,1.807988 0.34176,0.771702 0.95912,1.201651 0.62838,0.418924 1.44418,0.418924 z m 10.91409,-14.022931 v 16.426232 h -3.25218 V 16.018314 Z m 7.60677,16.690815 q -1.76389,0 -3.07578,-0.771702 -1.30087,-0.782726 -2.02848,-2.160766 -0.71658,-1.37804 -0.71658,-3.14193 0,-1.78594 0.72761,-3.152955 0.73863,-1.378039 2.02847,-2.160766 1.28985,-0.782726 2.95452,-0.782726 1.28984,0 2.33715,0.440972 1.04731,0.429949 1.80799,1.245748 0.76068,0.804775 1.16858,1.907207 0.41892,1.102432 0.41892,2.436374 v 0.870921 h -10.28568 v -2.072572 h 8.72023 l -1.46623,0.496095 q 0,-0.881946 -0.31971,-1.521356 -0.3197,-0.63941 -0.91502,-0.981164 -0.58429,-0.352778 -1.40009,-0.352778 -0.80477,0 -1.38906,0.352778 -0.58429,0.341754 -0.90399,0.981164 -0.31971,0.63941 -0.31971,1.521356 v 1.411112 q 0,0.903994 0.31971,1.587502 0.33073,0.672483 0.94809,1.04731 0.61736,0.363802 1.48828,0.363802 0.63941,0 1.12448,-0.176389 0.4961,-0.187413 0.82682,-0.518143 0.34176,-0.341753 0.48507,-0.79375 h 2.96555 q -0.20947,1.157553 -0.98117,2.039498 -0.7717,0.881946 -1.94028,1.389064 -1.16858,0.496094 -2.57969,0.496094 z"
        id="path4"
      /><path
        style="font-weight:bold;fill:#000000;stroke:none"
        d="m 20.913113,59.780443 q -1.521356,0 -2.65686,-0.760678 Q 17.120748,58.259087 16.492362,56.892072 15.875,55.525056 15.875,53.706044 q 0,-1.796963 0.628386,-3.152954 0.639411,-1.367016 1.763891,-2.127694 1.135505,-0.771702 2.623787,-0.771702 0.760678,0 1.400089,0.209462 0.63941,0.198438 1.146529,0.606338 0.507118,0.407899 0.881945,1.036285 h 0.01102 V 43.111676 H 27.5718 v 16.426232 h -3.197051 v -1.78594 h -0.01103 q -0.341754,0.672484 -0.859896,1.135505 -0.507119,0.451997 -1.168578,0.672483 -0.661459,0.220487 -1.422137,0.220487 z m 0.837848,-2.645836 q 0.826824,0 1.433161,-0.418924 0.617362,-0.429949 0.959116,-1.201651 0.341754,-0.771702 0.341754,-1.807988 0,-1.04731 -0.341754,-1.807988 -0.341754,-0.771702 -0.959116,-1.190626 -0.606337,-0.429948 -1.433161,-0.429948 -0.782726,0 -1.367015,0.407899 -0.584289,0.4079 -0.915018,1.168578 -0.319706,0.760678 -0.319706,1.852085 0,1.091408 0.319706,1.86311 0.330729,0.760678 0.915018,1.168577 0.584289,0.396876 1.367015,0.396876 z m 11.685776,2.601738 q -1.157553,0 -2.061547,-0.385851 -0.903994,-0.385851 -1.422137,-1.157553 -0.518143,-0.782726 -0.518143,-1.94028 0,-0.981164 0.363803,-1.631599 0.363802,-0.661459 0.992188,-1.058334 0.639411,-0.4079 1.45521,-0.617362 0.826824,-0.209462 1.730818,-0.286632 1.069358,-0.110243 1.697744,-0.209462 0.628387,-0.09922 0.903994,-0.286632 0.275608,-0.187414 0.275608,-0.56224 v -0.07717 q 0,-0.429948 -0.23151,-0.749653 -0.231511,-0.33073 -0.661459,-0.518143 -0.418924,-0.187413 -1.014237,-0.187413 -0.595314,0 -1.058335,0.187413 -0.451997,0.187413 -0.71658,0.529167 -0.264584,0.341754 -0.308681,0.793751 h -3.053736 q 0.07717,-1.201651 0.705556,-2.083596 0.639411,-0.881945 1.78594,-1.355991 1.146528,-0.48507 2.745054,-0.48507 1.190627,0 2.127694,0.275608 0.937066,0.264584 1.576477,0.782727 0.650435,0.518143 0.981164,1.256772 0.33073,0.738629 0.33073,1.675696 v 7.893411 h -3.175004 v -1.642623 h -0.0441 q -0.308681,0.573264 -0.760678,0.981164 -0.451997,0.407899 -1.102431,0.63941 -0.650435,0.220486 -1.543405,0.220486 z m 0.903994,-2.259985 q 0.782727,0 1.344967,-0.286632 0.573264,-0.286632 0.881945,-0.782726 0.308681,-0.496094 0.308681,-1.124481 v -1.168577 q -0.143316,0.07717 -0.374827,0.15434 -0.23151,0.06615 -0.540191,0.132292 -0.308681,0.05512 -0.672484,0.121268 -0.363802,0.06614 -0.749653,0.121267 -0.56224,0.08819 -1.014237,0.275608 -0.451997,0.176389 -0.716581,0.48507 -0.264583,0.297656 -0.264583,0.760678 0,0.4079 0.220486,0.705556 0.220486,0.297657 0.628386,0.451997 0.4079,0.15434 0.948091,0.15434 z m 14.706438,-9.580131 v 2.546617 h -7.639852 v -2.546617 z m -5.633426,-3.175003 h 3.252173 V 55.94398 q 0,0.584289 0.231511,0.8158 0.242535,0.231511 0.903994,0.231511 0.275608,0 0.650435,0 0.385851,0 0.595313,0 v 2.546617 q -0.297657,0 -0.826824,0 -0.529167,0 -1.069359,0 -1.918231,0 -2.833249,-0.749654 -0.903994,-0.749653 -0.903994,-2.337155 z m 11.037539,15.015119 q -1.157554,0 -2.061548,-0.385851 -0.903994,-0.385851 -1.422136,-1.157553 -0.518143,-0.782726 -0.518143,-1.94028 0,-0.981164 0.363802,-1.631599 0.363803,-0.661459 0.992189,-1.058334 0.63941,-0.4079 1.455209,-0.617362 0.826824,-0.209462 1.730818,-0.286632 1.069359,-0.110243 1.697745,-0.209462 0.628386,-0.09922 0.903994,-0.286632 0.275608,-0.187414 0.275608,-0.56224 v -0.07717 q 0,-0.429948 -0.231511,-0.749653 -0.23151,-0.33073 -0.661459,-0.518143 -0.418924,-0.187413 -1.014237,-0.187413 -0.595313,0 -1.058334,0.187413 -0.451997,0.187413 -0.716581,0.529167 -0.264584,0.341754 -0.308681,0.793751 h -3.053736 q 0.07717,-1.201651 0.705557,-2.083596 0.63941,-0.881945 1.785939,-1.355991 1.146529,-0.48507 2.745055,-0.48507 1.190626,0 2.127693,0.275608 0.937067,0.264584 1.576477,0.782727 0.650435,0.518143 0.981165,1.256772 0.330729,0.738629 0.330729,1.675696 v 7.893411 h -3.175003 v -1.642623 h -0.0441 q -0.308681,0.573264 -0.760678,0.981164 -0.451997,0.407899 -1.102432,0.63941 -0.650435,0.220486 -1.543404,0.220486 z m 0.903994,-2.259985 q 0.782726,0 1.344966,-0.286632 0.573265,-0.286632 0.881946,-0.782726 0.30868,-0.496094 0.30868,-1.124481 v -1.168577 q -0.143316,0.07717 -0.374826,0.15434 -0.231511,0.06615 -0.540192,0.132292 -0.308681,0.05512 -0.672483,0.121268 -0.363803,0.06614 -0.749654,0.121267 -0.56224,0.08819 -1.014237,0.275608 -0.451997,0.176389 -0.71658,0.48507 -0.264584,0.297656 -0.264584,0.760678 0,0.4079 0.220486,0.705556 0.220487,0.297657 0.628386,0.451997 0.4079,0.15434 0.948092,0.15434 z"
        id="path5"
      /></g><rect
      style="fill:#a02c89;fill-opacity:1;stroke:none;stroke-width:1.05833"
      id="rect6"
      width="29.467503"
      height="18.687286"
      x="153.99953"
      y="139.09227"
    /><g
      id="text5"
      style="font-weight:500;font-size:16.9333px;line-height:1.2;font-family:Inter;-inkscape-font-specification:'Inter Medium';stroke-width:1.05833"
      aria-label="12 MB"
    ><path
        style="font-weight:bold"
        d="m 141.29167,141.5746 v 12.31964 h -2.44739 v -9.97973 h -0.0165 l -2.89388,1.83554 v -2.23242 l 3.05098,-1.94303 z m 1.57923,12.31964 v -1.86861 l 4.51444,-3.86126 q 0.5457,-0.47956 0.97565,-0.90124 0.42995,-0.42167 0.66972,-0.88469 0.24805,-0.46302 0.24805,-1.03353 0,-0.58704 -0.24805,-1.01699 -0.23977,-0.43822 -0.68626,-0.67799 -0.43821,-0.23978 -1.05006,-0.23978 -0.66146,0 -1.14101,0.28938 -0.47129,0.28939 -0.73588,0.82683 -0.25631,0.52916 -0.25631,1.28157 h -2.3399 q 0,-1.33945 0.5457,-2.33164 0.55397,-1.00045 1.55442,-1.54615 1.00046,-0.55397 2.37298,-0.55397 1.26504,0 2.24895,0.47129 0.98392,0.47128 1.53789,1.33945 0.56224,0.85989 0.56224,2.02571 0,0.85989 -0.32246,1.57096 -0.32246,0.71106 -0.93431,1.38079 -0.60358,0.66146 -1.46347,1.39733 l -2.61276,2.27376 v 0.0165 h 5.39088 v 2.04225 z"
        id="path6"
      /><path
        style="font-weight:bold;fill:#ffffff"
        d="M 156.89378,153.89424 V 141.5746 h 3.71243 l 2.03398,5.73814 q 0.12403,0.38861 0.29766,0.95912 0.17363,0.56224 0.35553,1.18235 0.1819,0.61185 0.33073,1.17409 0.1571,0.56224 0.25631,0.93431 h -0.63665 q 0.0992,-0.37207 0.24805,-0.93431 0.15709,-0.56224 0.339,-1.17409 0.1819,-0.62011 0.34726,-1.18235 0.17363,-0.57051 0.28939,-0.95912 l 2.00917,-5.73814 h 3.71243 v 12.31964 h -2.497 v -5.85389 q 0,-0.41341 0.0165,-0.98392 0.0165,-0.57051 0.0331,-1.21543 0.0165,-0.65319 0.0331,-1.31464 0.0165,-0.66973 0.0248,-1.26504 h 0.30592 q -0.19017,0.65319 -0.39687,1.33945 -0.19844,0.68626 -0.38861,1.33118 -0.19017,0.64492 -0.3638,1.19062 -0.16536,0.53744 -0.28939,0.91778 l -2.08359,5.85389 h -2.06705 l -2.10839,-5.85389 q -0.12403,-0.38034 -0.29766,-0.91778 -0.17363,-0.5457 -0.37207,-1.19062 -0.19017,-0.64492 -0.40514,-1.33118 -0.20671,-0.68626 -0.40514,-1.33945 h 0.3638 q 0.008,0.59531 0.0248,1.26504 0.0165,0.66145 0.0331,1.31464 0.0165,0.64492 0.0248,1.21543 0.0165,0.57051 0.0165,0.98392 v 5.85389 z m 15.1391,0 V 141.5746 h 4.93613 q 1.32291,0 2.24895,0.39688 0.93431,0.39687 1.41387,1.10794 0.47955,0.71107 0.47955,1.66191 0,0.71107 -0.27285,1.26504 -0.26458,0.5457 -0.76067,0.9095 -0.4961,0.3638 -1.17409,0.53743 v 0.0165 q 0.75241,0.0661 1.35599,0.43822 0.60358,0.3638 0.95084,1.00045 0.35553,0.63665 0.35553,1.51308 0,1.02526 -0.49609,1.81074 -0.48782,0.78548 -1.4552,1.2237 -0.96739,0.43821 -2.36471,0.43821 z m 2.48874,-2.00091 h 2.37297 q 0.98392,0 1.52962,-0.42168 0.5457,-0.42167 0.5457,-1.19062 0,-0.51263 -0.23977,-0.8847 -0.23978,-0.38033 -0.69453,-0.57877 -0.45476,-0.20671 -1.09968,-0.20671 h -2.41431 z m 0,-5.2007 h 2.25722 q 0.56224,0 0.95911,-0.19017 0.40514,-0.19017 0.62012,-0.53743 0.22324,-0.35554 0.22324,-0.82683 0,-0.71933 -0.47956,-1.14101 -0.47955,-0.42168 -1.32291,-0.42168 h -2.25722 z"
        id="path7"
      /></g><rect
      style="fill:#a02c89;fill-opacity:1;stroke:none;stroke-width:1.05833"
      id="rect7"
      width="19.281536"
      height="13.235641"
      x="271.17404"
      y="142.75061"
    /><g
      id="text6"
      style="font-weight:500;font-size:12.7px;line-height:1.2;font-family:Inter;-inkscape-font-specification:'Inter Medium';stroke-width:1.05833"
      aria-label="12 KB"
    ><path
        style="font-weight:bold"
        d="m 261.25087,144.6545 v 9.23974 h -1.83555 v -7.48481 h -0.0124 l -2.17041,1.37666 v -1.67432 l 2.28823,-1.45727 z m 1.18442,9.23974 v -1.40146 l 3.38584,-2.89595 q 0.40928,-0.35967 0.73174,-0.67593 0.32246,-0.31626 0.50229,-0.66352 0.18604,-0.34727 0.18604,-0.77515 0,-0.44028 -0.18604,-0.76274 -0.17983,-0.32867 -0.51469,-0.5085 -0.32867,-0.17983 -0.78755,-0.17983 -0.4961,0 -0.85576,0.21704 -0.35347,0.21704 -0.55191,0.62011 -0.19224,0.39688 -0.19224,0.96119 h -1.75493 q 0,-1.00459 0.40928,-1.74874 0.41548,-0.75034 1.16582,-1.15961 0.75034,-0.41548 1.77974,-0.41548 0.94878,0 1.68672,0.35346 0.73794,0.35347 1.15341,1.00459 0.42168,0.64493 0.42168,1.51929 0,0.64492 -0.24184,1.17822 -0.24185,0.5333 -0.70073,1.0356 -0.45269,0.49609 -1.09761,1.048 l -1.95957,1.70532 v 0.0124 h 4.04316 v 1.53169 z"
        id="path8"
      /><path
        style="font-weight:bold;fill:#ffffff"
        d="m 274.32914,151.96568 v -2.36265 q 0.31626,-0.38447 0.63252,-0.76274 0.31626,-0.37828 0.63252,-0.75655 0.32246,-0.37827 0.63872,-0.76274 l 2.28203,-2.6665 h 2.28823 l -3.90054,4.50205 h -0.14882 z m -1.37666,1.92856 v -9.23974 h 1.90996 v 2.55488 2.33784 0.90537 3.44165 z m 5.74228,0 -2.75952,-4.18579 1.14722,-1.45107 3.81372,5.63686 z m 2.96416,0 v -9.23974 h 3.7021 q 0.99219,0 1.68672,0.29765 0.70073,0.29766 1.0604,0.83096 0.35967,0.5333 0.35967,1.24643 0,0.5333 -0.20464,0.94878 -0.19844,0.40928 -0.57051,0.68213 -0.37207,0.27285 -0.88056,0.40308 v 0.0124 q 0.5643,0.0496 1.01699,0.32866 0.45268,0.27285 0.71313,0.75034 0.26665,0.47749 0.26665,1.13482 0,0.76894 -0.37207,1.35806 -0.36587,0.58911 -1.0914,0.91777 -0.72554,0.32866 -1.77354,0.32866 z m 1.86656,-1.50068 h 1.77973 q 0.73794,0 1.14722,-0.31626 0.40928,-0.31626 0.40928,-0.89297 0,-0.38447 -0.17984,-0.66353 -0.17983,-0.28525 -0.5209,-0.43408 -0.34106,-0.15503 -0.82475,-0.15503 h -1.81074 z m 0,-3.90054 h 1.69292 q 0.42167,0 0.71933,-0.14263 0.30386,-0.14262 0.46509,-0.40307 0.16743,-0.26665 0.16743,-0.62012 0,-0.5395 -0.35967,-0.85576 -0.35967,-0.31626 -0.99218,-0.31626 h -1.69292 z"
        id="path9"
      /></g><path
      id="path11"
      style="baseline-shift:baseline;display:inline;overflow:visible;opacity:1;vector-effect:none;fill:#a02c89;stroke-width:1;enable-background:accumulate;stop-color:#000000;stop-opacity:1"
      d="m 232.42444,86.43709 -7.51142,2.097068 1.37224,4.915298 -9.01011,-5.2023 -5.45943,9.457677 9.00949,5.201397 -4.94241,1.26896 1.93925,7.55499 12.65736,-3.25026 9.3e-4,9.3e-4 5.8e-4,-9.3e-4 7.55682,-1.94046 -2.09798,-7.512645 9.2e-4,-0.003 -0.003,-9.2e-4 z"
    /></g></svg>
