<?xml version="1.0" encoding="UTF-8" standalone="no"?>
<!-- Created with Inkscape (http://www.inkscape.org/) -->

<svg
   width="1280"
   height="720"
   viewBox="0 0 338.66666 190.5"
   version="1.1"
   id="svg1"
   inkscape:version="1.4.3 (0d15f75042, 2025-12-25)"
   sodipodi:docname="2_draw_shape_matching_surface.svg"
   xmlns:inkscape="http://www.inkscape.org/namespaces/inkscape"
   xmlns:sodipodi="http://sodipodi.sourceforge.net/DTD/sodipodi-0.dtd"
   xmlns="http://www.w3.org/2000/svg"
   xmlns:svg="http://www.w3.org/2000/svg">
  <sodipodi:namedview
     id="namedview1"
     pagecolor="#ffffff"
     bordercolor="#000000"
     borderopacity="0.25"
     inkscape:showpageshadow="2"
     inkscape:pageopacity="0.0"
     inkscape:pagecheckerboard="0"
     inkscape:deskcolor="#d1d1d1"
     inkscape:document-units="px"
     inkscape:zoom="0.72000791"
     inkscape:cx="640.96518"
     inkscape:cy="310.41326"
     inkscape:window-width="2560"
     inkscape:window-height="1371"
     inkscape:window-x="0"
     inkscape:window-y="0"
     inkscape:window-maximized="1"
     inkscape:current-layer="layer1" />
  <defs
     id="defs1">
    <marker
       style="overflow:visible"
       id="ArrowWide"
       refX="0"
       refY="0"
       orient="auto-start-reverse"
       inkscape:stockid="Wide arrow"
       markerWidth="1"
       markerHeight="1"
       viewBox="0 0 1 1"
       inkscape:isstock="true"
       inkscape:collect="always"
       preserveAspectRatio="xMidYMid">
      <path
         style="fill:none;stroke:context-stroke;stroke-width:1;stroke-linecap:butt"
         d="M 3,-3 0,0 3,3"
         transform="rotate(180,0.125,0)"
         sodipodi:nodetypes="ccc"
         id="path15" />
    </marker>
    <marker
       style="overflow:visible"
       id="marker12"
       refX="0"
       refY="0"
       orient="auto-start-reverse"
       inkscape:stockid="Wide arrow"
       markerWidth="1"
       markerHeight="1"
       viewBox="0 0 1 1"
       inkscape:isstock="true"
       inkscape:collect="always"
       preserveAspectRatio="xMidYMid">
      <path
         style="fill:none;stroke:context-stroke;stroke-width:1;stroke-linecap:butt"
         d="M 3,-3 0,0 3,3"
         transform="rotate(180,0.125,0)"
         sodipodi:nodetypes="ccc"
         id="path12" />
    </marker>
    <inkscape:path-effect
       effect="bspline"
       id="path-effect5"
       is_visible="true"
       lpeversion="1.3"
       weight="33.333333"
       steps="2"
       helper_size="0"
       apply_no_weight="true"
       apply_with_weight="true"
       only_selected="false"
       uniform="false" />
    <inkscape:path-effect
       effect="bspline"
       id="path-effect1"
       is_visible="true"
       lpeversion="1.3"
       weight="33.333333"
       steps="2"
       helper_size="0"
       apply_no_weight="true"
       apply_with_weight="true"
       only_selected="false"
       uniform="false" />
  </defs>
  <g
     inkscape:label="Layer 1"
     inkscape:groupmode="layer"
     id="layer1">
    <rect
       style="fill:#ffffff;stroke-width:2.64583;stroke-linecap:square"
       id="rect29"
       width="338.66666"
       height="190.5"
       x="0"
       y="0" />
    <rect
       style="fill:#000000;fill-opacity:1;stroke:#ffffff;stroke-width:0.264583;stroke-linecap:butt;stroke-linejoin:round;stroke-dasharray:none;paint-order:normal"
       id="rect6"
       width="78.383522"
       height="19.254986"
       x="120.40008"
       y="102.60723" />
    <ellipse
       style="fill:#ffffff;fill-opacity:1;stroke:none;stroke-width:0.264583;stroke-dasharray:none"
       id="circle6"
       cx="189.91856"
       cy="112.23472"
       rx="3.8959584"
       ry="3.9218073" />
    <rect
       style="fill:#ffffff;fill-opacity:1;stroke:none;stroke-width:0.264583;stroke-dasharray:none"
       id="rect7"
       width="0.80859512"
       height="5.8457122"
       x="125.36918"
       y="109.31187" />
    <rect
       style="fill:#ffffff;fill-opacity:1;stroke:none;stroke-width:0.264583;stroke-dasharray:none"
       id="rect8"
       width="0.80859512"
       height="5.8457122"
       x="137.7917"
       y="109.31187" />
    <rect
       style="fill:#ffffff;fill-opacity:1;stroke:none;stroke-width:0.264583;stroke-dasharray:none"
       id="rect9"
       width="0.80859512"
       height="5.8457122"
       x="133.65086"
       y="109.31187" />
    <rect
       style="fill:#ffffff;fill-opacity:1;stroke:none;stroke-width:0.264583;stroke-dasharray:none"
       id="rect10"
       width="0.80859512"
       height="5.8457122"
       x="129.51001"
       y="109.31187" />
    <path
       style="fill:#000000;fill-opacity:1;stroke:#ffffff;stroke-width:0.264583;stroke-linecap:butt;stroke-linejoin:round;stroke-dasharray:none"
       d="m 218.26659,68.637779 -78.39561,5e-5 -19.4709,33.969441 78.38354,-4e-5 z"
       id="path10"
       sodipodi:nodetypes="ccccc" />
    <path
       style="fill:#000000;fill-opacity:1;stroke:#ffffff;stroke-width:0.264583;stroke-linecap:butt;stroke-linejoin:round;stroke-dasharray:none"
       d="m 218.25447,68.637829 7e-5,19.25496 -19.47092,33.969441 v -19.255 z"
       id="path11" />
    <path
       d="m 149.85071,154.56314 v -15.12743 h 6.05097 q 1.70565,0 2.94427,0.60916 1.24877,0.59901 1.91885,1.7158 0.68022,1.10663 0.68022,2.63968 0,1.49244 -0.71068,2.58892 -0.71068,1.09649 -2.00007,1.69549 -1.27923,0.58886 -3.01533,0.58886 h -3.98999 v -2.5077 h 3.98999 q 0.82236,0 1.42137,-0.29443 0.599,-0.29443 0.92389,-0.82236 0.32488,-0.53809 0.32488,-1.24878 0,-0.73099 -0.32488,-1.24877 -0.32489,-0.52794 -0.92389,-0.82237 -0.59901,-0.29442 -1.43153,-0.29442 h -2.73105 v 12.52835 z m 8.57898,0 -3.46205,-6.83272 h 3.2793 l 3.53312,6.83272 z m 3.90877,0 5.30983,-15.12743 h 4.02044 l 5.30983,15.12743 h -3.46205 l -2.37572,-7.36066 q -0.43656,-1.45183 -0.90358,-2.98488 -0.45687,-1.5432 -0.99496,-3.50266 h 0.86297 q -0.55839,1.95946 -1.02541,3.50266 -0.45687,1.53305 -0.91374,2.98488 l -2.45694,7.36066 z m 3.37067,-3.29961 v -2.49754 h 7.90891 v 2.49754 z m 12.4979,3.29961 v -15.12743 h 4.55853 l 2.49755,7.04593 q 0.15229,0.47718 0.3655,1.17771 0.2132,0.69038 0.43656,1.45182 0.22336,0.7513 0.40611,1.44168 0.1929,0.69038 0.31473,1.14725 h -0.78176 q 0.12184,-0.45687 0.30458,-1.14725 0.1929,-0.69038 0.41626,-1.44168 0.22336,-0.76144 0.42641,-1.45182 0.21321,-0.70053 0.35534,-1.17771 l 2.46709,-7.04593 h 4.55854 v 15.12743 h -3.0661 v -7.18807 q 0,-0.50763 0.0203,-1.20816 0.0203,-0.70053 0.0406,-1.49244 0.0203,-0.80206 0.0406,-1.61427 0.0203,-0.82236 0.0305,-1.55335 h 0.37564 q -0.23351,0.80206 -0.48732,1.64473 -0.24367,0.84267 -0.47718,1.63457 -0.23351,0.79191 -0.44671,1.46198 -0.20306,0.65992 -0.35534,1.12694 l -2.55847,7.18807 h -2.53816 l -2.58892,-7.18807 q -0.15229,-0.46702 -0.3655,-1.12694 -0.2132,-0.67007 -0.45686,-1.46198 -0.23352,-0.7919 -0.49748,-1.63457 -0.25382,-0.84267 -0.49748,-1.64473 h 0.44671 q 0.0102,0.73099 0.0305,1.55335 0.0203,0.81221 0.0406,1.61427 0.0203,0.79191 0.0305,1.49244 0.0203,0.70053 0.0203,1.20816 v 7.18807 z"
       id="text19"
       style="font-weight:bold;font-size:20.7926px;line-height:1.2;font-family:Inter;-inkscape-font-specification:'Inter Bold';stroke-width:2.64583;stroke-linecap:square"
       aria-label="RAM" />
    <path
       style="font-weight:500;font-size:8.01806px;line-height:1.2;font-family:Inter;-inkscape-font-specification:'Inter Medium';stroke-width:0.79375;stroke-linecap:square"
       d="m 73.410038,70.823227 2.118052,-5.833452 h 1.049238 l 2.102392,5.833452 H 77.736188 L 76.612564,67.53457 Q 76.475536,67.115657 76.315019,66.618444 76.154501,66.12123 75.931342,65.385197 h 0.246649 q -0.223159,0.736033 -0.383677,1.233247 -0.160517,0.497213 -0.30146,0.916126 l -1.15886,3.288657 z m 1.17452,-1.515131 v -0.739948 h 2.924556 v 0.739948 z m 5.45369,-0.865231 v 2.380362 h -0.826079 v -4.134312 h 0.810419 v 1.025748 H 79.83075 q 0.203583,-0.55594 0.56377,-0.829995 0.364101,-0.27797 0.876975,-0.27797 0.426742,0 0.763438,0.187924 0.340611,0.184008 0.536365,0.548109 0.195753,0.364102 0.195753,0.904381 v 2.576115 h -0.826079 v -2.474323 q 0,-0.497214 -0.23882,-0.747778 -0.234904,-0.25448 -0.665561,-0.25448 -0.281885,0 -0.508959,0.113537 -0.223159,0.113537 -0.356271,0.356272 -0.133113,0.242734 -0.133113,0.62641 z m 5.465436,4.071671 q -0.508959,0 -0.896551,-0.152687 -0.383676,-0.148773 -0.61858,-0.438488 -0.234904,-0.2858 -0.289715,-0.689052 h 0.826079 q 0.05481,0.199669 0.187923,0.332781 0.137028,0.137027 0.336696,0.203583 0.203584,0.07047 0.454148,0.07047 0.501129,0 0.783014,-0.27014 0.281885,-0.27014 0.281885,-0.771268 v -0.626411 h -0.0039 q -0.140943,0.238819 -0.336696,0.395421 -0.191839,0.156603 -0.430658,0.234905 -0.234904,0.07439 -0.508959,0.07439 -0.536364,0 -0.943531,-0.27014 -0.403252,-0.274055 -0.626411,-0.751693 -0.223159,-0.481553 -0.223159,-1.111879 0,-0.630326 0.223159,-1.11188 0.227074,-0.485468 0.630326,-0.755608 0.403252,-0.27014 0.935701,-0.27014 0.27014,0 0.508959,0.07439 0.242734,0.07439 0.438488,0.234904 0.199668,0.156603 0.336696,0.403252 h 0.0039 v -0.630326 h 0.814334 v 4.079501 q 0,0.626411 -0.25448,1.010088 -0.250564,0.383676 -0.681221,0.559854 -0.426743,0.176178 -0.947447,0.176178 z m -0.04698,-2.345125 q 0.352356,0 0.610751,-0.176179 0.262309,-0.176178 0.403252,-0.497213 0.144857,-0.324951 0.144857,-0.755608 0,-0.434573 -0.144857,-0.755609 -0.140943,-0.321035 -0.403252,-0.497213 -0.258395,-0.176178 -0.610751,-0.176178 -0.332781,0 -0.58726,0.164433 -0.250564,0.160517 -0.395422,0.481553 -0.140942,0.317121 -0.140942,0.783014 0,0.461978 0.140942,0.783013 0.144858,0.317121 0.395422,0.481554 0.254479,0.164433 0.58726,0.164433 z m 3.687994,-5.179636 v 5.833452 h -0.82608 v -5.833452 z m 2.697482,5.927414 q -0.614666,0 -1.057069,-0.27797 -0.438487,-0.27797 -0.677306,-0.763439 -0.234904,-0.489383 -0.234904,-1.111879 0,-0.634241 0.246649,-1.119709 0.246649,-0.489384 0.681222,-0.767354 0.434572,-0.281885 0.998342,-0.281885 0.438488,0 0.790844,0.156603 0.356271,0.156603 0.610751,0.446318 0.254479,0.2858 0.391506,0.681222 0.137028,0.395422 0.137028,0.876975 v 0.223159 h -3.484411 v -0.626411 h 3.049838 l -0.364101,0.191838 q 0,-0.383676 -0.137028,-0.665561 -0.137027,-0.2858 -0.391506,-0.438488 -0.250565,-0.156603 -0.595091,-0.156603 -0.340611,0 -0.591175,0.156603 -0.250564,0.152688 -0.391507,0.438488 -0.137027,0.281885 -0.137027,0.665561 v 0.356271 q 0,0.391507 0.137027,0.692968 0.137028,0.297545 0.395422,0.465893 0.26231,0.168348 0.634241,0.168348 0.27014,0 0.477638,-0.08222 0.207499,-0.08613 0.344526,-0.234904 0.137028,-0.148773 0.195754,-0.344526 h 0.794759 q -0.07439,0.399337 -0.332781,0.704712 -0.25448,0.301461 -0.642071,0.473724 -0.383677,0.172263 -0.84957,0.172263 z m 4.189123,-0.01175 q -0.536364,0 -0.943532,-0.270139 -0.403252,-0.274055 -0.62641,-0.755609 -0.223159,-0.485468 -0.223159,-1.123624 0,-0.638156 0.223159,-1.11971 0.227074,-0.485468 0.630326,-0.755608 0.403252,-0.274055 0.935701,-0.274055 0.27014,0 0.508959,0.0783 0.238819,0.07439 0.430657,0.223159 0.195754,0.148772 0.328866,0.379761 h 0.0078 v -2.298145 h 0.82608 v 5.833452 h -0.81042 v -0.630326 h -0.0078 q -0.140942,0.238819 -0.336696,0.399337 -0.195753,0.156603 -0.434572,0.234904 -0.238819,0.0783 -0.508959,0.0783 z m 0.168348,-0.712542 q 0.352356,0 0.610751,-0.176178 0.262309,-0.180093 0.403252,-0.505044 0.144857,-0.324951 0.144857,-0.755608 0,-0.438488 -0.144857,-0.759523 -0.140943,-0.324951 -0.403252,-0.501129 -0.258395,-0.180093 -0.610751,-0.180093 -0.332781,0 -0.58726,0.164433 -0.250565,0.164433 -0.395422,0.485468 -0.140943,0.321036 -0.140943,0.790844 0,0.465893 0.140943,0.786929 0.144857,0.31712 0.395422,0.485468 0.254479,0.164433 0.58726,0.164433 z m 6.30326,0.728203 q -0.47372,0 -0.85348,-0.152688 -0.37977,-0.152688 -0.61076,-0.454148 -0.23098,-0.30146 -0.2623,-0.747778 h 0.81433 q 0.0352,0.332781 0.26231,0.516789 0.23099,0.180093 0.63424,0.180093 0.39542,0 0.6225,-0.160518 0.22707,-0.160517 0.22707,-0.407167 0,-0.211413 -0.16443,-0.336696 -0.16052,-0.129197 -0.43066,-0.187923 l -0.68514,-0.152688 q -0.58334,-0.129197 -0.8848,-0.426742 -0.30146,-0.297545 -0.30146,-0.755608 0,-0.368017 0.19575,-0.645986 0.19967,-0.27797 0.55594,-0.434573 0.35627,-0.156603 0.82999,-0.156603 0.4659,0 0.82608,0.164433 0.36411,0.164433 0.5716,0.465893 0.21142,0.301461 0.22316,0.720373 h -0.79084 q -0.004,-0.30146 -0.22707,-0.497214 -0.22316,-0.199668 -0.59118,-0.199668 -0.35236,0 -0.55986,0.164433 -0.20749,0.164432 -0.20749,0.403252 0,0.211413 0.1566,0.340611 0.16052,0.129197 0.43849,0.191838 l 0.70471,0.156603 q 0.60683,0.133112 0.88872,0.411082 0.2858,0.27797 0.2858,0.728202 0,0.395422 -0.21924,0.681222 -0.21533,0.281885 -0.59118,0.438488 -0.37585,0.152688 -0.8574,0.152688 z m 3.89158,-0.01566 q -0.42283,0 -0.76344,-0.184008 -0.34061,-0.187923 -0.53636,-0.552024 -0.19576,-0.368017 -0.19576,-0.904381 v -2.576115 h 0.82608 v 2.474323 q 0,0.493299 0.23882,0.747778 0.23882,0.254479 0.66948,0.254479 0.27797,0 0.50113,-0.113537 0.22707,-0.113536 0.36018,-0.356271 0.13311,-0.246649 0.13311,-0.626411 v -2.380361 h 0.82608 v 4.134312 h -0.81042 v -1.025748 h 0.19184 q -0.19967,0.552025 -0.56377,0.829995 -0.36018,0.277969 -0.87697,0.277969 z m 2.99111,-0.08222 v -4.134312 h 0.79085 v 0.669477 h 0.0157 q 0.11353,-0.340611 0.35627,-0.528535 0.24665,-0.191838 0.64207,-0.191838 0.094,0 0.17226,0.0078 0.0822,0.0039 0.1292,0.01175 v 0.771269 q -0.047,-0.01175 -0.16835,-0.02349 -0.12137,-0.01566 -0.26622,-0.01566 -0.23099,0 -0.42675,0.105707 -0.19184,0.105707 -0.30537,0.324951 -0.11354,0.219243 -0.11354,0.559854 v 2.443003 z m 4.86204,-4.134312 v 0.681222 h -2.40777 v -0.681222 z m -1.66782,4.134312 v -4.803789 q 0,-0.328866 0.13703,-0.555939 0.14094,-0.23099 0.40325,-0.352357 0.26231,-0.121367 0.63424,-0.121367 0.16052,0 0.30146,0 0.14486,0 0.19184,0 v 0.681222 q -0.0392,0 -0.16443,0 -0.12528,0 -0.20359,0 -0.25447,0 -0.3641,0.113537 -0.10962,0.109622 -0.10962,0.368017 v 4.670676 z m 3.41582,0.06656 q -0.41108,0 -0.73603,-0.140942 -0.32104,-0.140943 -0.50896,-0.418913 -0.18792,-0.27797 -0.18792,-0.689052 0,-0.352356 0.13311,-0.57943 0.13703,-0.227074 0.36802,-0.360186 0.23098,-0.133112 0.52461,-0.199669 0.29363,-0.07047 0.60684,-0.105706 0.39151,-0.0509 0.61467,-0.0783 0.22707,-0.03132 0.32103,-0.09396 0.0979,-0.06656 0.0979,-0.215329 v -0.03524 q 0,-0.199668 -0.0979,-0.352356 -0.0979,-0.156603 -0.2858,-0.246649 -0.18792,-0.09005 -0.45023,-0.09005 -0.26231,0 -0.46589,0.08613 -0.19967,0.08613 -0.32104,0.238819 -0.11745,0.148773 -0.13311,0.340611 h -0.81042 q 0.0196,-0.395422 0.23882,-0.696882 0.21924,-0.301461 0.60292,-0.473724 0.38367,-0.172263 0.90046,-0.172263 0.37977,0 0.68514,0.09788 0.30538,0.09788 0.51679,0.281885 0.21533,0.180093 0.32495,0.434573 0.11354,0.254479 0.11354,0.567685 v 2.834509 h -0.81434 v -0.58726 h -0.0157 q -0.0861,0.168348 -0.2349,0.31712 -0.14877,0.148773 -0.39151,0.242734 -0.23882,0.09396 -0.59509,0.09396 z m 0.16835,-0.665562 q 0.3641,0 0.599,-0.129197 0.23882,-0.133112 0.35236,-0.348441 0.11745,-0.215329 0.11745,-0.469808 v -0.485468 q -0.0431,0.03524 -0.14094,0.06656 -0.094,0.02741 -0.23099,0.05481 -0.13703,0.02349 -0.29754,0.0509 -0.16052,0.02741 -0.32104,0.04698 -0.22707,0.03132 -0.42283,0.105707 -0.19575,0.07047 -0.31712,0.199669 -0.11745,0.129197 -0.11745,0.340611 0,0.176178 0.094,0.305375 0.094,0.125282 0.27014,0.195753 0.17618,0.06656 0.415,0.06656 z m 4.58454,0.692968 q -0.59117,0 -1.03357,-0.274055 -0.44241,-0.274055 -0.69297,-0.759523 -0.24665,-0.489384 -0.24665,-1.11971 0,-0.638156 0.24665,-1.12754 0.25056,-0.489383 0.69297,-0.763438 0.4424,-0.27797 1.03357,-0.27797 0.36802,0 0.68123,0.113537 0.31712,0.109622 0.55594,0.313206 0.23882,0.199668 0.38367,0.477638 0.14878,0.274055 0.18793,0.602921 h -0.82217 q -0.0313,-0.176179 -0.10962,-0.321036 -0.0783,-0.144858 -0.20358,-0.250564 -0.12529,-0.105707 -0.29363,-0.164433 -0.16444,-0.05873 -0.37585,-0.05873 -0.35627,0 -0.61075,0.180093 -0.25448,0.180093 -0.39151,0.508959 -0.13702,0.32495 -0.13702,0.767353 0,0.438488 0.13702,0.763438 0.13703,0.321036 0.39151,0.501129 0.25448,0.176178 0.61075,0.176178 0.21141,0 0.37585,-0.05481 0.16443,-0.05873 0.28188,-0.164433 0.11745,-0.105707 0.19575,-0.250564 0.0783,-0.148773 0.11746,-0.328866 h 0.83391 q -0.0352,0.324951 -0.18401,0.599006 -0.14486,0.274054 -0.38759,0.481553 -0.23882,0.203584 -0.55594,0.317121 -0.31321,0.113537 -0.68123,0.113537 z m 4.27526,0 q -0.61466,0 -1.05707,-0.27797 -0.43849,-0.27797 -0.6773,-0.763439 -0.23491,-0.489383 -0.23491,-1.111879 0,-0.634241 0.24665,-1.119709 0.24665,-0.489384 0.68122,-0.767354 0.43458,-0.281885 0.99835,-0.281885 0.43848,0 0.79084,0.156603 0.35627,0.156603 0.61075,0.446318 0.25448,0.2858 0.39151,0.681222 0.13702,0.395422 0.13702,0.876975 v 0.223159 h -3.48441 v -0.626411 h 3.04984 l -0.3641,0.191838 q 0,-0.383676 -0.13703,-0.665561 -0.13702,-0.2858 -0.3915,-0.438488 -0.25057,-0.156603 -0.59509,-0.156603 -0.34062,0 -0.59118,0.156603 -0.25056,0.152688 -0.39151,0.438488 -0.13702,0.281885 -0.13702,0.665561 v 0.356271 q 0,0.391507 0.13702,0.692968 0.13703,0.297545 0.39543,0.465893 0.2623,0.168348 0.63424,0.168348 0.27014,0 0.47763,-0.08222 0.2075,-0.08613 0.34453,-0.234904 0.13703,-0.148773 0.19575,-0.344526 h 0.79476 q -0.0744,0.399337 -0.33278,0.704712 -0.25448,0.301461 -0.64207,0.473724 -0.38368,0.172263 -0.84957,0.172263 z"
       id="text2"
       aria-label="Angled surface" />
    <path
       style="fill:#999999;stroke:none;stroke-width:0.79375;stroke-linecap:square;stroke-dasharray:none"
       d="m 155.90197,68.637829 -19.47088,33.969401 h 46.32152 l 19.48297,-33.969451 z"
       id="path3"
       sodipodi:nodetypes="ccccc" />
    <g
       id="text5"
       style="font-weight:bold;font-size:8.01806px;line-height:1.2;font-family:Inter;-inkscape-font-specification:'Inter Bold';fill:none;stroke:#666666;stroke-width:0.79375;stroke-linecap:square"
       aria-label="Draw a shape that&#10;matches the top surface">
      <path
         style="font-weight:500;-inkscape-font-specification:'Inter Medium';fill:#000000;stroke:none"
         d="m 172.59273,34.069172 h -1.43683 v -0.755608 h 1.38202 q 0.68122,0 1.12362,-0.258395 0.44241,-0.258394 0.66165,-0.743863 0.21924,-0.489383 0.21924,-1.16669 0,-0.677307 -0.21532,-1.15886 -0.21533,-0.481554 -0.64991,-0.736033 -0.43065,-0.258395 -1.08055,-0.258395 h -1.47207 V 28.23572 h 1.52688 q 0.8574,0 1.47598,0.352356 0.62249,0.348441 0.95527,1.002258 0.33278,0.649901 0.33278,1.554282 0,0.904381 -0.33669,1.562112 -0.33278,0.653817 -0.96311,1.010088 -0.63032,0.352356 -1.52296,0.352356 z m -1.01792,-5.833452 v 5.833452 h -0.86914 V 28.23572 Z m 4.6237,5.833452 V 29.93486 h 0.79084 v 0.669477 h 0.0157 q 0.11354,-0.340611 0.35627,-0.528535 0.24665,-0.191838 0.64207,-0.191838 0.094,0 0.17227,0.0078 0.0822,0.0039 0.12919,0.01174 v 0.771269 q -0.047,-0.01174 -0.16834,-0.02349 -0.12137,-0.01566 -0.26623,-0.01566 -0.23099,0 -0.42674,0.105707 -0.19184,0.105707 -0.30538,0.324951 -0.11353,0.219243 -0.11353,0.559854 v 2.443003 z m 3.8789,0.06656 q -0.41108,0 -0.73604,-0.140942 -0.32103,-0.140943 -0.50895,-0.418913 -0.18793,-0.27797 -0.18793,-0.689052 0,-0.352356 0.13311,-0.57943 0.13703,-0.227074 0.36802,-0.360186 0.23099,-0.133112 0.52462,-0.199669 0.29363,-0.07047 0.60684,-0.105706 0.3915,-0.0509 0.61466,-0.0783 0.22708,-0.03132 0.32104,-0.09396 0.0979,-0.06656 0.0979,-0.215329 v -0.03524 q 0,-0.199668 -0.0979,-0.352356 -0.0979,-0.156603 -0.2858,-0.246649 -0.18793,-0.09005 -0.45024,-0.09005 -0.26231,0 -0.46589,0.08613 -0.19967,0.08613 -0.32103,0.238819 -0.11746,0.148772 -0.13312,0.340611 h -0.81042 q 0.0196,-0.395422 0.23882,-0.696882 0.21925,-0.301461 0.60292,-0.473724 0.38368,-0.172263 0.90047,-0.172263 0.37976,0 0.68514,0.09788 0.30537,0.09788 0.51679,0.281885 0.21532,0.180093 0.32495,0.434573 0.11353,0.254479 0.11353,0.567685 v 2.834509 h -0.81433 v -0.58726 h -0.0157 q -0.0861,0.168348 -0.23491,0.31712 -0.14877,0.148773 -0.3915,0.242734 -0.23882,0.09396 -0.59509,0.09396 z m 0.16835,-0.665562 q 0.3641,0 0.599,-0.129197 0.23882,-0.133112 0.35236,-0.348441 0.11745,-0.215329 0.11745,-0.469808 v -0.485469 q -0.0431,0.03524 -0.14094,0.06656 -0.094,0.02741 -0.23099,0.05481 -0.13703,0.02349 -0.29755,0.05089 -0.16052,0.02741 -0.32103,0.04698 -0.22708,0.03132 -0.42283,0.105707 -0.19575,0.07047 -0.31712,0.199669 -0.11745,0.129197 -0.11745,0.340611 0,0.176178 0.094,0.305375 0.094,0.125282 0.27014,0.195753 0.17618,0.06656 0.415,0.06656 z m 3.72323,0.599006 -1.28023,-4.134312 h 0.86523 l 0.47372,1.691309 q 0.12137,0.426743 0.22708,0.880891 0.10962,0.450233 0.22315,0.884805 h -0.11745 q 0.11354,-0.434572 0.22708,-0.884805 0.11745,-0.454148 0.2349,-0.880891 l 0.48155,-1.691309 h 0.78693 l 0.47373,1.691309 q 0.12136,0.426743 0.23098,0.880891 0.11354,0.450233 0.22708,0.884805 h -0.12137 q 0.11354,-0.434572 0.22316,-0.884805 0.11354,-0.450233 0.23099,-0.880891 l 0.47764,-1.691309 h 0.87306 l -1.28023,4.134312 h -0.86131 l -0.52462,-1.800931 q -0.0744,-0.266225 -0.14878,-0.544195 -0.0705,-0.27797 -0.14094,-0.55594 -0.0705,-0.281885 -0.14486,-0.552024 h 0.18793 q -0.0744,0.270139 -0.14878,0.552024 -0.0705,0.27797 -0.14485,0.55594 -0.0705,0.27797 -0.14878,0.544195 l -0.53245,1.800931 z m 8.46829,0.06656 q -0.41108,0 -0.73603,-0.140942 -0.32104,-0.140943 -0.50896,-0.418913 -0.18793,-0.27797 -0.18793,-0.689052 0,-0.352356 0.13312,-0.57943 0.13702,-0.227074 0.36801,-0.360186 0.23099,-0.133112 0.52462,-0.199669 0.29363,-0.07047 0.60684,-0.105706 0.3915,-0.0509 0.61466,-0.0783 0.22708,-0.03132 0.32104,-0.09396 0.0979,-0.06656 0.0979,-0.215329 v -0.03524 q 0,-0.199668 -0.0979,-0.352356 -0.0979,-0.156603 -0.2858,-0.246649 -0.18792,-0.09005 -0.45023,-0.09005 -0.26231,0 -0.4659,0.08613 -0.19967,0.08613 -0.32103,0.238819 -0.11746,0.148772 -0.13312,0.340611 h -0.81041 q 0.0196,-0.395422 0.23881,-0.696882 0.21925,-0.301461 0.60292,-0.473724 0.38368,-0.172263 0.90047,-0.172263 0.37976,0 0.68514,0.09788 0.30537,0.09788 0.51679,0.281885 0.21533,0.180093 0.32495,0.434573 0.11353,0.254479 0.11353,0.567685 v 2.834509 h -0.81433 v -0.58726 h -0.0157 q -0.0861,0.168348 -0.2349,0.31712 -0.14878,0.148773 -0.39151,0.242734 -0.23882,0.09396 -0.59509,0.09396 z m 0.16835,-0.665562 q 0.3641,0 0.599,-0.129197 0.23882,-0.133112 0.35236,-0.348441 0.11745,-0.215329 0.11745,-0.469808 v -0.485469 q -0.0431,0.03524 -0.14094,0.06656 -0.094,0.02741 -0.23099,0.05481 -0.13703,0.02349 -0.29755,0.05089 -0.16051,0.02741 -0.32103,0.04698 -0.22708,0.03132 -0.42283,0.105707 -0.19575,0.07047 -0.31712,0.199669 -0.11745,0.129197 -0.11745,0.340611 0,0.176178 0.094,0.305375 0.094,0.125282 0.27014,0.195753 0.17618,0.06656 0.415,0.06656 z m 6.25628,0.696883 q -0.47373,0 -0.85349,-0.152688 -0.37976,-0.152688 -0.61075,-0.454148 -0.23099,-0.30146 -0.26231,-0.747778 h 0.81433 q 0.0352,0.332781 0.26231,0.516789 0.23099,0.180093 0.63425,0.180093 0.39542,0 0.62249,-0.160518 0.22708,-0.160517 0.22708,-0.407167 0,-0.211413 -0.16444,-0.336696 -0.16052,-0.129197 -0.43066,-0.187923 l -0.68513,-0.152688 q -0.58335,-0.129197 -0.88481,-0.426742 -0.30146,-0.297545 -0.30146,-0.755608 0,-0.368017 0.19576,-0.645986 0.19966,-0.27797 0.55594,-0.434573 0.35627,-0.156603 0.82999,-0.156603 0.46589,0 0.82608,0.164433 0.3641,0.164433 0.5716,0.465893 0.21141,0.301461 0.22316,0.720373 H 199.641 q -0.004,-0.30146 -0.22707,-0.497214 -0.22316,-0.199668 -0.59117,-0.199668 -0.35236,0 -0.55986,0.164433 -0.2075,0.164432 -0.2075,0.403252 0,0.211413 0.1566,0.340611 0.16052,0.129197 0.43849,0.191838 l 0.70471,0.156603 q 0.60684,0.133112 0.88872,0.411082 0.2858,0.27797 0.2858,0.728202 0,0.395422 -0.21924,0.681222 -0.21533,0.281885 -0.59117,0.438488 -0.37585,0.152688 -0.8574,0.152688 z m 3.2221,-2.478239 v 2.380362 h -0.82608 V 28.23572 h 0.82608 v 2.724888 h -0.2075 q 0.20358,-0.55594 0.56377,-0.829995 0.3641,-0.27797 0.87697,-0.27797 0.42675,0 0.76344,0.187924 0.34061,0.184008 0.53637,0.548109 0.19575,0.364102 0.19575,0.904381 v 2.576115 h -0.82608 v -2.474323 q 0,-0.497214 -0.23882,-0.747778 -0.2349,-0.25448 -0.66556,-0.25448 -0.28189,0 -0.50896,0.113537 -0.22316,0.113537 -0.35627,0.356272 -0.13311,0.242734 -0.13311,0.62641 z m 4.92124,2.446918 q -0.41109,0 -0.73604,-0.140942 -0.32103,-0.140943 -0.50895,-0.418913 -0.18793,-0.27797 -0.18793,-0.689052 0,-0.352356 0.13311,-0.57943 0.13703,-0.227074 0.36802,-0.360186 0.23099,-0.133112 0.52462,-0.199669 0.29363,-0.07047 0.60684,-0.105706 0.3915,-0.0509 0.61466,-0.0783 0.22708,-0.03132 0.32104,-0.09396 0.0979,-0.06656 0.0979,-0.215329 v -0.03524 q 0,-0.199668 -0.0979,-0.352356 -0.0979,-0.156603 -0.2858,-0.246649 -0.18793,-0.09005 -0.45024,-0.09005 -0.26231,0 -0.46589,0.08613 -0.19967,0.08613 -0.32103,0.238819 -0.11746,0.148772 -0.13312,0.340611 h -0.81042 q 0.0196,-0.395422 0.23882,-0.696882 0.21925,-0.301461 0.60292,-0.473724 0.38368,-0.172263 0.90047,-0.172263 0.37976,0 0.68514,0.09788 0.30537,0.09788 0.51678,0.281885 0.21533,0.180093 0.32496,0.434573 0.11353,0.254479 0.11353,0.567685 v 2.834509 h -0.81433 v -0.58726 h -0.0157 q -0.0861,0.168348 -0.23491,0.31712 -0.14877,0.148773 -0.3915,0.242734 -0.23882,0.09396 -0.59509,0.09396 z m 0.16834,-0.665562 q 0.36411,0 0.59901,-0.129197 0.23882,-0.133112 0.35236,-0.348441 0.11745,-0.215329 0.11745,-0.469808 v -0.485469 q -0.0431,0.03524 -0.14094,0.06656 -0.094,0.02741 -0.23099,0.05481 -0.13703,0.02349 -0.29755,0.05089 -0.16052,0.02741 -0.32103,0.04698 -0.22708,0.03132 -0.42283,0.105707 -0.19575,0.07047 -0.31712,0.199669 -0.11745,0.129197 -0.11745,0.340611 0,0.176178 0.094,0.305375 0.094,0.125282 0.27014,0.195753 0.17618,0.06656 0.41499,0.06656 z m 2.81494,2.235504 v -5.77081 h 0.81042 v 0.59509 h 0.0117 q 0.1292,-0.227074 0.32495,-0.375846 0.19967,-0.148773 0.44241,-0.223159 0.24665,-0.0783 0.51287,-0.0783 0.53637,0 0.9357,0.274055 0.40325,0.27014 0.62641,0.755608 0.22708,0.481554 0.22708,1.11971 0,0.638156 -0.22316,1.123624 -0.22316,0.481554 -0.62641,0.755609 -0.40325,0.270139 -0.94353,0.270139 -0.26623,0 -0.50505,-0.0783 -0.2349,-0.0783 -0.42674,-0.234904 -0.19184,-0.156603 -0.32887,-0.391507 h -0.0117 v 2.258994 z m 1.93013,-2.266824 q 0.33669,0 0.58726,-0.164433 0.25056,-0.168348 0.39151,-0.485468 0.14485,-0.321036 0.14485,-0.786929 0,-0.469808 -0.14485,-0.790844 -0.14095,-0.321035 -0.39151,-0.485468 -0.25057,-0.164433 -0.58726,-0.164433 -0.35236,0 -0.61467,0.180093 -0.25839,0.176178 -0.40325,0.501129 -0.14094,0.321035 -0.14094,0.759523 0,0.430657 0.14094,0.755608 0.14486,0.324951 0.40325,0.505044 0.26231,0.176178 0.61467,0.176178 z m 4.45535,0.724288 q -0.61467,0 -1.05707,-0.27797 -0.43849,-0.27797 -0.67731,-0.763439 -0.2349,-0.489383 -0.2349,-1.111879 0,-0.634241 0.24665,-1.119709 0.24665,-0.489384 0.68122,-0.767354 0.43457,-0.281885 0.99834,-0.281885 0.43849,0 0.79084,0.156603 0.35628,0.156603 0.61076,0.446318 0.25447,0.2858 0.3915,0.681222 0.13703,0.395421 0.13703,0.876975 v 0.223159 h -3.48441 v -0.626411 h 3.04984 l -0.3641,0.191838 q 0,-0.383676 -0.13703,-0.665561 -0.13703,-0.2858 -0.39151,-0.438488 -0.25056,-0.156603 -0.59509,-0.156603 -0.34061,0 -0.59117,0.156603 -0.25057,0.152688 -0.39151,0.438488 -0.13703,0.281885 -0.13703,0.665561 v 0.356271 q 0,0.391507 0.13703,0.692967 0.13703,0.297546 0.39542,0.465894 0.26231,0.168348 0.63424,0.168348 0.27014,0 0.47764,-0.08222 0.2075,-0.08613 0.34453,-0.234904 0.13702,-0.148773 0.19575,-0.344526 h 0.79476 q -0.0744,0.399337 -0.33278,0.704712 -0.25448,0.301461 -0.64207,0.473724 -0.38368,0.172263 -0.84957,0.172263 z m 6.50292,-4.228274 v 0.681222 h -2.39602 V 29.93486 Z m -1.66782,-1.12754 h 0.82608 v 4.169548 q 0,0.227074 0.094,0.321035 0.0979,0.09005 0.34453,0.09005 0.094,0 0.2075,0 0.11354,0 0.19575,0 v 0.681222 q -0.10179,0 -0.24665,0 -0.14094,0 -0.27405,0 -0.58335,0 -0.86523,-0.242734 -0.28189,-0.24665 -0.28189,-0.743863 z m 3.14772,2.88149 v 2.380362 h -0.82608 V 28.23572 h 0.82608 v 2.724888 h -0.2075 q 0.20358,-0.55594 0.56377,-0.829995 0.3641,-0.27797 0.87698,-0.27797 0.42674,0 0.76343,0.187924 0.34062,0.184008 0.53637,0.548109 0.19575,0.364102 0.19575,0.904381 v 2.576115 h -0.82608 v -2.474323 q 0,-0.497214 -0.23882,-0.747778 -0.2349,-0.25448 -0.66556,-0.25448 -0.28188,0 -0.50896,0.113537 -0.22316,0.113537 -0.35627,0.356272 -0.13311,0.242734 -0.13311,0.62641 z m 4.92124,2.446918 q -0.41108,0 -0.73603,-0.140942 -0.32104,-0.140943 -0.50896,-0.418913 -0.18792,-0.27797 -0.18792,-0.689052 0,-0.352356 0.13311,-0.57943 0.13702,-0.227074 0.36801,-0.360186 0.23099,-0.133112 0.52462,-0.199669 0.29363,-0.07047 0.60684,-0.105706 0.39151,-0.0509 0.61466,-0.0783 0.22708,-0.03132 0.32104,-0.09396 0.0979,-0.06656 0.0979,-0.215329 v -0.03524 q 0,-0.199668 -0.0979,-0.352356 -0.0979,-0.156603 -0.2858,-0.246649 -0.18792,-0.09005 -0.45023,-0.09005 -0.26231,0 -0.4659,0.08613 -0.19966,0.08613 -0.32103,0.238819 -0.11745,0.148772 -0.13311,0.340611 h -0.81042 q 0.0196,-0.395422 0.23882,-0.696882 0.21924,-0.301461 0.60292,-0.473724 0.38367,-0.172263 0.90046,-0.172263 0.37976,0 0.68514,0.09788 0.30537,0.09788 0.51679,0.281885 0.21533,0.180093 0.32495,0.434573 0.11354,0.254479 0.11354,0.567685 v 2.834509 h -0.81434 v -0.58726 h -0.0157 q -0.0861,0.168348 -0.2349,0.31712 -0.14878,0.148773 -0.39151,0.242734 -0.23882,0.09396 -0.59509,0.09396 z m 0.16835,-0.665562 q 0.3641,0 0.599,-0.129197 0.23882,-0.133112 0.35236,-0.348441 0.11745,-0.215329 0.11745,-0.469808 v -0.485469 q -0.0431,0.03524 -0.14094,0.06656 -0.094,0.02741 -0.23099,0.05481 -0.13703,0.02349 -0.29754,0.05089 -0.16052,0.02741 -0.32104,0.04698 -0.22707,0.03132 -0.42283,0.105707 -0.19575,0.07047 -0.31712,0.199669 -0.11745,0.129197 -0.11745,0.340611 0,0.176178 0.094,0.305375 0.094,0.125282 0.27014,0.195753 0.17618,0.06656 0.415,0.06656 z m 4.8077,-3.535306 v 0.681222 H 231.8581 V 29.93486 Z m -1.66782,-1.12754 h 0.82608 v 4.169548 q 0,0.227074 0.094,0.321035 0.0979,0.09005 0.34453,0.09005 0.094,0 0.2075,0 0.11354,0 0.19575,0 v 0.681222 q -0.10179,0 -0.24665,0 -0.14094,0 -0.27405,0 -0.58335,0 -0.86523,-0.242734 -0.28189,-0.24665 -0.28189,-0.743863 z"
         id="path1" />
      <path
         style="font-weight:500;-inkscape-font-specification:'Inter Medium';fill:#000000;stroke:none"
         d="m 170.63911,43.690844 v -4.134312 h 0.80259 v 0.87306 h -0.0783 q 0.11745,-0.313205 0.3132,-0.524619 0.19967,-0.215329 0.45807,-0.321036 0.25839,-0.109622 0.54028,-0.109622 0.48155,0 0.82216,0.27797 0.34453,0.274055 0.42283,0.677307 h -0.1292 q 0.0861,-0.274055 0.27797,-0.489383 0.19575,-0.215329 0.47764,-0.340611 0.28188,-0.125283 0.62641,-0.125283 0.38759,0 0.7008,0.168348 0.3132,0.168348 0.49721,0.501129 0.18401,0.328866 0.18401,0.82608 v 2.720972 h -0.83 v -2.650501 q 0,-0.442403 -0.24664,-0.642071 -0.24665,-0.199669 -0.58335,-0.199669 -0.27405,0 -0.47372,0.117452 -0.19967,0.117452 -0.30929,0.321036 -0.10963,0.203583 -0.10963,0.469808 v 2.583945 h -0.81433 v -2.705312 q 0,-0.356271 -0.23099,-0.5716 -0.22707,-0.215329 -0.57943,-0.215329 -0.23882,0 -0.45023,0.113537 -0.2075,0.113537 -0.3367,0.336696 -0.12528,0.219244 -0.12528,0.54811 v 2.493898 z m 8.10811,0.06656 q -0.41108,0 -0.73604,-0.140942 -0.32103,-0.140943 -0.50895,-0.418913 -0.18793,-0.277969 -0.18793,-0.689052 0,-0.352356 0.13311,-0.57943 0.13703,-0.227074 0.36802,-0.360186 0.23099,-0.133112 0.52462,-0.199668 0.29363,-0.07047 0.60684,-0.105707 0.3915,-0.0509 0.61466,-0.0783 0.22708,-0.03132 0.32104,-0.09396 0.0979,-0.06656 0.0979,-0.215329 v -0.03524 q 0,-0.199668 -0.0979,-0.352356 -0.0979,-0.156603 -0.2858,-0.246649 -0.18793,-0.09005 -0.45024,-0.09005 -0.26231,0 -0.46589,0.08613 -0.19967,0.08613 -0.32103,0.238819 -0.11746,0.148773 -0.13312,0.340611 h -0.81042 q 0.0196,-0.395422 0.23882,-0.696882 0.21925,-0.301461 0.60292,-0.473724 0.38368,-0.172263 0.90047,-0.172263 0.37976,0 0.68514,0.09788 0.30537,0.09788 0.51679,0.281885 0.21532,0.180093 0.32495,0.434573 0.11353,0.254479 0.11353,0.567685 v 2.834509 h -0.81433 v -0.58726 h -0.0157 q -0.0861,0.168348 -0.23491,0.31712 -0.14877,0.148773 -0.3915,0.242734 -0.23882,0.09396 -0.59509,0.09396 z m 0.16835,-0.665561 q 0.3641,0 0.599,-0.129198 0.23882,-0.133112 0.35236,-0.348441 0.11745,-0.215329 0.11745,-0.469808 v -0.485468 q -0.0431,0.03524 -0.14094,0.06656 -0.094,0.02741 -0.23099,0.05481 -0.13703,0.02349 -0.29755,0.0509 -0.16052,0.02741 -0.32103,0.04698 -0.22708,0.03132 -0.42283,0.105707 -0.19575,0.07047 -0.31712,0.199669 -0.11745,0.129197 -0.11745,0.340611 0,0.176178 0.094,0.305375 0.094,0.125282 0.27014,0.195753 0.17618,0.06656 0.415,0.06656 z m 4.8077,-3.535307 v 0.681222 h -2.39602 v -0.681222 z m -1.66782,-1.12754 h 0.82608 v 4.169548 q 0,0.227074 0.094,0.321036 0.0979,0.09005 0.34453,0.09005 0.094,0 0.2075,0 0.11353,0 0.19575,0 v 0.681222 q -0.10179,0 -0.24665,0 -0.14094,0 -0.27405,0 -0.58335,0 -0.86523,-0.242734 -0.28189,-0.24665 -0.28189,-0.743863 z m 4.01999,5.355814 q -0.59117,0 -1.03357,-0.274055 -0.44241,-0.274055 -0.69297,-0.759523 -0.24665,-0.489384 -0.24665,-1.11971 0,-0.638156 0.24665,-1.12754 0.25056,-0.489383 0.69297,-0.763438 0.4424,-0.27797 1.03357,-0.27797 0.36802,0 0.68123,0.113537 0.31712,0.109622 0.55594,0.313206 0.23882,0.199668 0.38367,0.477638 0.14878,0.274055 0.18793,0.602921 h -0.82217 q -0.0313,-0.176179 -0.10962,-0.321036 -0.0783,-0.144858 -0.20358,-0.250564 -0.12529,-0.105707 -0.29363,-0.164433 -0.16444,-0.05873 -0.37585,-0.05873 -0.35627,0 -0.61075,0.180093 -0.25448,0.180093 -0.39151,0.508959 -0.13702,0.32495 -0.13702,0.767353 0,0.438488 0.13702,0.763438 0.13703,0.321036 0.39151,0.501129 0.25448,0.176178 0.61075,0.176178 0.21141,0 0.37585,-0.05481 0.16443,-0.05873 0.28188,-0.164433 0.11745,-0.105706 0.19575,-0.250564 0.0783,-0.148773 0.11746,-0.328866 h 0.83391 q -0.0352,0.324951 -0.18401,0.599006 -0.14486,0.274054 -0.38759,0.481553 -0.23882,0.203584 -0.55594,0.317121 -0.31321,0.113537 -0.68123,0.113537 z m 3.33564,-2.474324 v 2.380362 H 188.585 v -5.833452 h 0.82608 v 2.724888 h -0.2075 q 0.20359,-0.55594 0.56377,-0.829995 0.36411,-0.27797 0.87698,-0.27797 0.42674,0 0.76344,0.187924 0.34061,0.184008 0.53636,0.548109 0.19576,0.364102 0.19576,0.904381 v 2.576115 h -0.82608 v -2.474323 q 0,-0.497214 -0.23882,-0.747778 -0.23491,-0.25448 -0.66556,-0.25448 -0.28189,0 -0.50896,0.113537 -0.22316,0.113537 -0.35628,0.356272 -0.13311,0.242734 -0.13311,0.62641 z m 5.42629,2.474324 q -0.61467,0 -1.05707,-0.27797 -0.43849,-0.27797 -0.67731,-0.763439 -0.2349,-0.489383 -0.2349,-1.111879 0,-0.634241 0.24665,-1.119709 0.24665,-0.489384 0.68122,-0.767354 0.43457,-0.281885 0.99834,-0.281885 0.43849,0 0.79085,0.156603 0.35627,0.156603 0.61075,0.446318 0.25448,0.2858 0.3915,0.681222 0.13703,0.395422 0.13703,0.876975 v 0.223159 h -3.48441 v -0.626411 h 3.04984 l -0.3641,0.191838 q 0,-0.383676 -0.13703,-0.665561 -0.13703,-0.2858 -0.39151,-0.438488 -0.25056,-0.156603 -0.59509,-0.156603 -0.34061,0 -0.59117,0.156603 -0.25057,0.152688 -0.39151,0.438488 -0.13703,0.281885 -0.13703,0.665561 v 0.356271 q 0,0.391507 0.13703,0.692968 0.13703,0.297545 0.39542,0.465893 0.26231,0.168348 0.63424,0.168348 0.27014,0 0.47764,-0.08222 0.2075,-0.08613 0.34453,-0.234904 0.13703,-0.148773 0.19575,-0.344526 h 0.79476 q -0.0744,0.399337 -0.33278,0.704712 -0.25448,0.301461 -0.64207,0.473724 -0.38368,0.172263 -0.84957,0.172263 z m 4.1304,0.0039 q -0.47373,0 -0.85349,-0.152688 -0.37976,-0.152688 -0.61075,-0.454148 -0.23099,-0.30146 -0.26231,-0.747778 h 0.81433 q 0.0352,0.332781 0.26231,0.516789 0.23099,0.180093 0.63425,0.180093 0.39542,0 0.62249,-0.160518 0.22708,-0.160517 0.22708,-0.407167 0,-0.211413 -0.16444,-0.336696 -0.16052,-0.129197 -0.43066,-0.187923 l -0.68513,-0.152687 q -0.58335,-0.129198 -0.88481,-0.426743 -0.30146,-0.297545 -0.30146,-0.755608 0,-0.368017 0.19576,-0.645986 0.19966,-0.27797 0.55594,-0.434573 0.35627,-0.156603 0.82999,-0.156603 0.46589,0 0.82608,0.164433 0.3641,0.164433 0.5716,0.465893 0.21141,0.301461 0.22316,0.720373 h -0.79085 q -0.004,-0.30146 -0.22707,-0.497214 -0.22316,-0.199668 -0.59118,-0.199668 -0.35235,0 -0.55985,0.164433 -0.2075,0.164432 -0.2075,0.403252 0,0.211413 0.1566,0.340611 0.16052,0.129197 0.43849,0.191838 l 0.70471,0.156603 q 0.60684,0.133112 0.88872,0.411082 0.2858,0.27797 0.2858,0.728202 0,0.395422 -0.21924,0.681222 -0.21533,0.281885 -0.59117,0.438488 -0.37585,0.152688 -0.8574,0.152688 z m 6.29934,-4.232189 v 0.681222 h -2.39602 v -0.681222 z m -1.66782,-1.12754 h 0.82608 v 4.169548 q 0,0.227074 0.094,0.321036 0.0979,0.09005 0.34453,0.09005 0.094,0 0.2075,0 0.11354,0 0.19575,0 v 0.681222 q -0.10179,0 -0.24665,0 -0.14094,0 -0.27405,0 -0.58335,0 -0.86523,-0.242734 -0.28189,-0.24665 -0.28189,-0.743863 z m 3.14771,2.88149 v 2.380362 h -0.82607 v -5.833452 h 0.82607 v 2.724888 h -0.20749 q 0.20358,-0.55594 0.56377,-0.829995 0.3641,-0.27797 0.87697,-0.27797 0.42674,0 0.76344,0.187924 0.34061,0.184008 0.53636,0.548109 0.19576,0.364102 0.19576,0.904381 v 2.576115 h -0.82608 v -2.474323 q 0,-0.497214 -0.23882,-0.747778 -0.23491,-0.25448 -0.66556,-0.25448 -0.28189,0 -0.50896,0.113537 -0.22316,0.113537 -0.35627,0.356272 -0.13312,0.242734 -0.13312,0.62641 z m 5.42629,2.474324 q -0.61467,0 -1.05707,-0.27797 -0.43849,-0.27797 -0.67731,-0.763439 -0.2349,-0.489383 -0.2349,-1.111879 0,-0.634241 0.24665,-1.119709 0.24665,-0.489384 0.68122,-0.767354 0.43457,-0.281885 0.99834,-0.281885 0.43849,0 0.79085,0.156603 0.35627,0.156603 0.61075,0.446318 0.25448,0.2858 0.3915,0.681222 0.13703,0.395422 0.13703,0.876975 v 0.223159 h -3.48441 v -0.626411 h 3.04984 l -0.3641,0.191838 q 0,-0.383676 -0.13703,-0.665561 -0.13703,-0.2858 -0.39151,-0.438488 -0.25056,-0.156603 -0.59509,-0.156603 -0.34061,0 -0.59117,0.156603 -0.25057,0.152688 -0.39151,0.438488 -0.13703,0.281885 -0.13703,0.665561 v 0.356271 q 0,0.391507 0.13703,0.692968 0.13703,0.297545 0.39542,0.465893 0.26231,0.168348 0.63424,0.168348 0.27014,0 0.47764,-0.08222 0.2075,-0.08613 0.34453,-0.234904 0.13703,-0.148773 0.19575,-0.344526 h 0.79476 q -0.0744,0.399337 -0.33278,0.704712 -0.25448,0.301461 -0.64207,0.473724 -0.38368,0.172263 -0.84957,0.172263 z m 6.50293,-4.228274 v 0.681222 h -2.39602 v -0.681222 z m -1.66782,-1.12754 h 0.82608 v 4.169548 q 0,0.227074 0.094,0.321036 0.0979,0.09005 0.34453,0.09005 0.094,0 0.2075,0 0.11353,0 0.19575,0 v 0.681222 q -0.10179,0 -0.24665,0 -0.14094,0 -0.27406,0 -0.58334,0 -0.86523,-0.242734 -0.28188,-0.24665 -0.28188,-0.743863 z m 4.02783,5.355814 q -0.59118,0 -1.0375,-0.274055 -0.44631,-0.274055 -0.69688,-0.759523 -0.24665,-0.485469 -0.24665,-1.11971 0,-0.642071 0.24665,-1.12754 0.25057,-0.489383 0.69688,-0.763438 0.44632,-0.27797 1.0375,-0.27797 0.59117,0 1.03357,0.27797 0.44632,0.274055 0.69297,0.763438 0.25057,0.485469 0.25057,1.12754 0,0.634241 -0.25057,1.11971 -0.24665,0.485468 -0.69297,0.759523 -0.4424,0.274055 -1.03357,0.274055 z m 0,-0.712543 q 0.35235,0 0.60683,-0.176178 0.2584,-0.180093 0.39542,-0.505044 0.14095,-0.32495 0.14095,-0.759523 0,-0.446318 -0.14095,-0.771268 -0.13702,-0.324951 -0.39542,-0.505044 -0.25448,-0.180093 -0.60683,-0.180093 -0.35236,0 -0.61075,0.180093 -0.25448,0.176178 -0.39543,0.505044 -0.13702,0.32495 -0.13702,0.771268 0,0.438488 0.13702,0.763438 0.14095,0.321036 0.39543,0.501129 0.25448,0.176178 0.61075,0.176178 z m 2.70922,2.255079 v -5.77081 h 0.81042 v 0.59509 h 0.0118 q 0.12919,-0.227074 0.32495,-0.375846 0.19967,-0.148773 0.4424,-0.223159 0.24665,-0.0783 0.51287,-0.0783 0.53637,0 0.93571,0.274055 0.40325,0.27014 0.62641,0.755608 0.22707,0.481554 0.22707,1.11971 0,0.638156 -0.22316,1.123625 -0.22316,0.481553 -0.62641,0.755608 -0.40325,0.270139 -0.94353,0.270139 -0.26622,0 -0.50504,-0.0783 -0.23491,-0.0783 -0.42675,-0.234904 -0.19183,-0.156603 -0.32886,-0.391507 h -0.0118 v 2.258994 z m 1.93013,-2.266824 q 0.3367,0 0.58726,-0.164433 0.25057,-0.168348 0.39151,-0.485468 0.14486,-0.321036 0.14486,-0.786929 0,-0.469808 -0.14486,-0.790844 -0.14094,-0.321035 -0.39151,-0.485468 -0.25056,-0.164433 -0.58726,-0.164433 -0.35235,0 -0.61466,0.180093 -0.2584,0.176178 -0.40326,0.501129 -0.14094,0.321035 -0.14094,0.759523 0,0.430657 0.14094,0.755608 0.14486,0.324951 0.40326,0.505044 0.26231,0.176178 0.61466,0.176178 z m 6.131,0.728203 q -0.47372,0 -0.85349,-0.152688 -0.37976,-0.152688 -0.61075,-0.454148 -0.23099,-0.30146 -0.26231,-0.747778 h 0.81434 q 0.0352,0.332781 0.26231,0.516789 0.23099,0.180093 0.63424,0.180093 0.39542,0 0.62249,-0.160518 0.22708,-0.160517 0.22708,-0.407167 0,-0.211413 -0.16443,-0.336696 -0.16052,-0.129197 -0.43066,-0.187923 l -0.68514,-0.152687 q -0.58334,-0.129198 -0.8848,-0.426743 -0.30146,-0.297545 -0.30146,-0.755608 0,-0.368017 0.19575,-0.645986 0.19967,-0.27797 0.55594,-0.434573 0.35627,-0.156603 0.82999,-0.156603 0.4659,0 0.82608,0.164433 0.3641,0.164433 0.5716,0.465893 0.21142,0.301461 0.22316,0.720373 h -0.79084 q -0.004,-0.30146 -0.22708,-0.497214 -0.22315,-0.199668 -0.59117,-0.199668 -0.35236,0 -0.55986,0.164433 -0.20749,0.164432 -0.20749,0.403252 0,0.211413 0.1566,0.340611 0.16052,0.129197 0.43849,0.191838 l 0.70471,0.156603 q 0.60683,0.133112 0.88872,0.411082 0.2858,0.27797 0.2858,0.728202 0,0.395422 -0.21925,0.681222 -0.21532,0.281885 -0.59117,0.438488 -0.37585,0.152688 -0.8574,0.152688 z m 3.89157,-0.01566 q -0.42282,0 -0.76343,-0.184008 -0.34061,-0.187923 -0.53637,-0.552024 -0.19575,-0.368017 -0.19575,-0.904381 v -2.576115 h 0.82608 v 2.474323 q 0,0.493299 0.23882,0.747778 0.23882,0.25448 0.66947,0.25448 0.27797,0 0.50113,-0.113537 0.22708,-0.113537 0.36019,-0.356272 0.13311,-0.246649 0.13311,-0.626411 v -2.380361 h 0.82608 v 4.134312 h -0.81042 v -1.025748 h 0.19184 q -0.19967,0.552025 -0.56377,0.829995 -0.36019,0.277969 -0.87698,0.277969 z m 2.99112,-0.08222 v -4.134312 h 0.79084 v 0.669477 h 0.0157 q 0.11354,-0.340611 0.35627,-0.528535 0.24665,-0.191838 0.64207,-0.191838 0.094,0 0.17227,0.0078 0.0822,0.0039 0.12919,0.01174 v 0.771269 q -0.047,-0.01175 -0.16834,-0.02349 -0.12137,-0.01566 -0.26623,-0.01566 -0.23099,0 -0.42674,0.105707 -0.19184,0.105707 -0.30538,0.324951 -0.11353,0.219243 -0.11353,0.559854 v 2.443003 z m 4.86204,-4.134312 v 0.681222 h -2.40777 v -0.681222 z m -1.66782,4.134312 v -4.803789 q 0,-0.328865 0.13703,-0.555939 0.14094,-0.230989 0.40325,-0.352357 0.26231,-0.121367 0.63424,-0.121367 0.16052,0 0.30146,0 0.14486,0 0.19184,0 v 0.681222 q -0.0392,0 -0.16443,0 -0.12528,0 -0.20359,0 -0.25448,0 -0.3641,0.113537 -0.10962,0.109622 -0.10962,0.368017 v 4.670676 z m 3.41582,0.06656 q -0.41109,0 -0.73604,-0.140942 -0.32103,-0.140943 -0.50896,-0.418913 -0.18792,-0.277969 -0.18792,-0.689052 0,-0.352356 0.13311,-0.57943 0.13703,-0.227074 0.36802,-0.360186 0.23099,-0.133112 0.52462,-0.199668 0.29363,-0.07047 0.60684,-0.105707 0.3915,-0.0509 0.61466,-0.0783 0.22707,-0.03132 0.32104,-0.09396 0.0979,-0.06656 0.0979,-0.215329 v -0.03524 q 0,-0.199668 -0.0979,-0.352356 -0.0979,-0.156603 -0.2858,-0.246649 -0.18793,-0.09005 -0.45024,-0.09005 -0.26231,0 -0.46589,0.08613 -0.19967,0.08613 -0.32104,0.238819 -0.11745,0.148773 -0.13311,0.340611 h -0.81042 q 0.0196,-0.395422 0.23882,-0.696882 0.21925,-0.301461 0.60292,-0.473724 0.38368,-0.172263 0.90047,-0.172263 0.37976,0 0.68514,0.09788 0.30537,0.09788 0.51678,0.281885 0.21533,0.180093 0.32496,0.434573 0.11353,0.254479 0.11353,0.567685 v 2.834509 h -0.81433 v -0.58726 h -0.0157 q -0.0861,0.168348 -0.23491,0.31712 -0.14877,0.148773 -0.3915,0.242734 -0.23882,0.09396 -0.59509,0.09396 z m 0.16834,-0.665561 q 0.36411,0 0.59901,-0.129198 0.23882,-0.133112 0.35236,-0.348441 0.11745,-0.215329 0.11745,-0.469808 v -0.485468 q -0.0431,0.03524 -0.14094,0.06656 -0.094,0.02741 -0.23099,0.05481 -0.13703,0.02349 -0.29755,0.0509 -0.16052,0.02741 -0.32103,0.04698 -0.22708,0.03132 -0.42283,0.105707 -0.19575,0.07047 -0.31712,0.199669 -0.11745,0.129197 -0.11745,0.340611 0,0.176178 0.094,0.305375 0.094,0.125282 0.27014,0.195753 0.17618,0.06656 0.41499,0.06656 z m 4.58455,0.692967 q -0.59118,0 -1.03358,-0.274055 -0.4424,-0.274055 -0.69296,-0.759523 -0.24665,-0.489384 -0.24665,-1.11971 0,-0.638156 0.24665,-1.12754 0.25056,-0.489383 0.69296,-0.763438 0.4424,-0.27797 1.03358,-0.27797 0.36802,0 0.68122,0.113537 0.31712,0.109622 0.55594,0.313206 0.23882,0.199668 0.38368,0.477638 0.14877,0.274055 0.18792,0.602921 h -0.82216 q -0.0313,-0.176179 -0.10962,-0.321036 -0.0783,-0.144858 -0.20359,-0.250564 -0.12528,-0.105707 -0.29363,-0.164433 -0.16443,-0.05873 -0.37584,-0.05873 -0.35628,0 -0.61076,0.180093 -0.25447,0.180093 -0.3915,0.508959 -0.13703,0.32495 -0.13703,0.767353 0,0.438488 0.13703,0.763438 0.13703,0.321036 0.3915,0.501129 0.25448,0.176178 0.61076,0.176178 0.21141,0 0.37584,-0.05481 0.16443,-0.05873 0.28189,-0.164433 0.11745,-0.105706 0.19575,-0.250564 0.0783,-0.148773 0.11745,-0.328866 h 0.83391 q -0.0352,0.324951 -0.18401,0.599006 -0.14485,0.274054 -0.38759,0.481553 -0.23882,0.203584 -0.55594,0.317121 -0.3132,0.113537 -0.68122,0.113537 z m 4.27526,0 q -0.61467,0 -1.05707,-0.27797 -0.43849,-0.27797 -0.67731,-0.763439 -0.2349,-0.489383 -0.2349,-1.111879 0,-0.634241 0.24665,-1.119709 0.24665,-0.489384 0.68122,-0.767354 0.43457,-0.281885 0.99834,-0.281885 0.43849,0 0.79085,0.156603 0.35627,0.156603 0.61075,0.446318 0.25448,0.2858 0.39151,0.681222 0.13702,0.395422 0.13702,0.876975 v 0.223159 h -3.48441 v -0.626411 h 3.04984 l -0.3641,0.191838 q 0,-0.383676 -0.13703,-0.665561 -0.13703,-0.2858 -0.39151,-0.438488 -0.25056,-0.156603 -0.59509,-0.156603 -0.34061,0 -0.59117,0.156603 -0.25057,0.152688 -0.39151,0.438488 -0.13703,0.281885 -0.13703,0.665561 v 0.356271 q 0,0.391507 0.13703,0.692968 0.13703,0.297545 0.39542,0.465893 0.26231,0.168348 0.63425,0.168348 0.27013,0 0.47763,-0.08222 0.2075,-0.08613 0.34453,-0.234904 0.13703,-0.148773 0.19575,-0.344526 h 0.79476 q -0.0744,0.399337 -0.33278,0.704712 -0.25448,0.301461 -0.64207,0.473724 -0.38368,0.172263 -0.84957,0.172263 z"
         id="path4" />
    </g>
    <path
       style="fill:#999999;stroke:#666666;stroke-width:0.79375;stroke-linecap:square;stroke-dasharray:none;stroke-opacity:1;marker-end:url(#marker12)"
       d="m 108.86382,75.699398 22.27804,22.278041"
       id="path9" />
    <path
       style="fill:#999999;stroke:#000000;stroke-width:0.79375;stroke-linecap:square;stroke-dasharray:none;stroke-opacity:1;marker-end:url(#ArrowWide)"
       d="M 179.06878,49.804822 V 73.506819"
       id="path14" />
    <g
       id="text1"
       style="font-weight:bold;font-size:8.01806px;line-height:1.2;font-family:Inter;-inkscape-font-specification:'Inter Bold';fill:none;stroke:#666666;stroke-width:0.79375;stroke-linecap:square"
       aria-label="Text will be placed&#10;on the top surface">
      <path
         style="font-weight:500;-inkscape-font-specification:'Inter Medium';fill:#000000;stroke:none"
         d="m 235.59083,143.27296 v -0.76344 h 4.58455 v 0.76344 h -1.85183 v 5.07001 h -0.87306 v -5.07001 z m 6.05034,5.16397 q -0.61466,0 -1.05707,-0.27797 -0.43848,-0.27797 -0.6773,-0.76343 -0.23491,-0.48939 -0.23491,-1.11188 0,-0.63425 0.24665,-1.11971 0.24665,-0.48939 0.68122,-0.76736 0.43458,-0.28188 0.99835,-0.28188 0.43848,0 0.79084,0.1566 0.35627,0.1566 0.61075,0.44632 0.25448,0.2858 0.39151,0.68122 0.13702,0.39542 0.13702,0.87698 v 0.22315 h -3.48441 v -0.62641 h 3.04984 l -0.3641,0.19184 q 0,-0.38367 -0.13703,-0.66556 -0.13702,-0.2858 -0.3915,-0.43849 -0.25057,-0.1566 -0.59509,-0.1566 -0.34061,0 -0.59118,0.1566 -0.25056,0.15269 -0.39151,0.43849 -0.13702,0.28189 -0.13702,0.66556 v 0.35627 q 0,0.39151 0.13702,0.69297 0.13703,0.29755 0.39543,0.46589 0.26231,0.16835 0.63424,0.16835 0.27014,0 0.47764,-0.0822 0.20749,-0.0861 0.34452,-0.2349 0.13703,-0.14877 0.19575,-0.34453 h 0.79476 q -0.0744,0.39934 -0.33278,0.70472 -0.25448,0.30146 -0.64207,0.47372 -0.38367,0.17226 -0.84957,0.17226 z m 1.99982,-0.094 1.71089,-2.36861 -0.0118,0.51287 -1.60518,-2.27857 h 0.94354 l 0.49329,0.73603 q 0.16444,0.25057 0.31712,0.4933 0.15661,0.24274 0.31321,0.48938 h -0.34453 q 0.16444,-0.24664 0.31712,-0.48938 0.15661,-0.24273 0.32495,-0.4933 l 0.50113,-0.73603 h 0.92787 l -1.62083,2.27857 0.008,-0.51679 1.68348,2.37253 h -0.94354 l -0.57551,-0.83782 q -0.16052,-0.24274 -0.31321,-0.47373 -0.14877,-0.2349 -0.30537,-0.47372 h 0.32886 q -0.1566,0.23882 -0.3132,0.47372 -0.15269,0.23099 -0.31321,0.47373 l -0.58726,0.83782 z m 6.62821,-4.13431 v 0.68122 h -2.39602 v -0.68122 z m -1.66782,-1.12754 h 0.82608 v 4.16955 q 0,0.22707 0.094,0.32103 0.0979,0.0901 0.34453,0.0901 0.094,0 0.2075,0 0.11354,0 0.19575,0 v 0.68122 q -0.10179,0 -0.24665,0 -0.14094,0 -0.27405,0 -0.58335,0 -0.86523,-0.24273 -0.28189,-0.24665 -0.28189,-0.74387 z m 5.14049,5.26185 -1.28023,-4.13431 h 0.86523 l 0.47372,1.69131 q 0.12137,0.42674 0.22708,0.88089 0.10962,0.45023 0.22316,0.8848 h -0.11745 q 0.11353,-0.43457 0.22707,-0.8848 0.11745,-0.45415 0.2349,-0.88089 l 0.48156,-1.69131 h 0.78693 l 0.47372,1.69131 q 0.12137,0.42674 0.23099,0.88089 0.11353,0.45023 0.22707,0.8848 h -0.12137 q 0.11354,-0.43457 0.22316,-0.8848 0.11354,-0.45023 0.23099,-0.88089 l 0.47764,-1.69131 h 0.87306 l -1.28023,4.13431 h -0.86131 l -0.52462,-1.80093 q -0.0744,-0.26622 -0.14877,-0.54419 -0.0705,-0.27797 -0.14095,-0.55594 -0.0705,-0.28189 -0.14485,-0.55203 h 0.18792 q -0.0744,0.27014 -0.14877,0.55203 -0.0705,0.27797 -0.14486,0.55594 -0.0705,0.27797 -0.14877,0.54419 l -0.53245,1.80093 z m 5.29709,0 v -4.13431 h 0.82608 v 4.13431 z m 0.41108,-4.84685 q -0.21925,0 -0.37193,-0.14486 -0.14878,-0.14877 -0.14878,-0.36019 0,-0.21533 0.14878,-0.36018 0.15268,-0.14878 0.37193,-0.14878 0.21924,0 0.37193,0.14878 0.15269,0.14485 0.15269,0.36018 0,0.21142 -0.15269,0.36019 -0.15269,0.14486 -0.37193,0.14486 z m 2.17286,-0.9866 v 5.83345 h -0.82608 v -5.83345 z m 1.75787,0 v 5.83345 h -0.82608 v -5.83345 z m 4.94081,5.91567 q -0.26622,0 -0.50896,-0.0783 -0.23881,-0.0783 -0.43848,-0.23491 -0.19576,-0.16052 -0.33278,-0.39933 h -0.008 v 0.63032 h -0.81042 v -5.83345 h 0.82608 v 2.29815 h 0.008 q 0.13311,-0.23099 0.32495,-0.37977 0.19575,-0.14877 0.43457,-0.22316 0.24273,-0.0783 0.50896,-0.0783 0.53636,0 0.9357,0.27406 0.40325,0.27014 0.62641,0.75561 0.22707,0.48155 0.22707,1.11971 0,0.63815 -0.22315,1.12362 -0.22316,0.48155 -0.62642,0.75561 -0.40325,0.27014 -0.94353,0.27014 z m -0.16834,-0.71254 q 0.33669,0 0.58726,-0.16444 0.25056,-0.16834 0.3915,-0.48547 0.14486,-0.32103 0.14486,-0.78692 0,-0.46981 -0.14486,-0.79085 -0.14094,-0.32103 -0.3915,-0.48547 -0.25057,-0.16443 -0.58726,-0.16443 -0.35236,0 -0.61467,0.18009 -0.25839,0.17618 -0.40325,0.50113 -0.14094,0.32104 -0.14094,0.75953 0,0.43065 0.14094,0.7556 0.14486,0.32495 0.40325,0.50505 0.26231,0.17618 0.61467,0.17618 z m 4.45534,0.72428 q -0.61466,0 -1.05706,-0.27797 -0.43849,-0.27797 -0.67731,-0.76343 -0.23491,-0.48939 -0.23491,-1.11188 0,-0.63425 0.24665,-1.11971 0.24665,-0.48939 0.68123,-0.76736 0.43457,-0.28188 0.99834,-0.28188 0.43849,0 0.79084,0.1566 0.35627,0.1566 0.61075,0.44632 0.25448,0.2858 0.39151,0.68122 0.13703,0.39542 0.13703,0.87698 v 0.22315 h -3.48441 v -0.62641 h 3.04983 l -0.3641,0.19184 q 0,-0.38367 -0.13702,-0.66556 -0.13703,-0.2858 -0.39151,-0.43849 -0.25057,-0.1566 -0.59509,-0.1566 -0.34061,0 -0.59118,0.1566 -0.25056,0.15269 -0.3915,0.43849 -0.13703,0.28189 -0.13703,0.66556 v 0.35627 q 0,0.39151 0.13703,0.69297 0.13702,0.29755 0.39542,0.46589 0.26231,0.16835 0.63424,0.16835 0.27014,0 0.47764,-0.0822 0.2075,-0.0861 0.34452,-0.2349 0.13703,-0.14877 0.19576,-0.34453 h 0.79476 q -0.0744,0.39934 -0.33279,0.70472 -0.25447,0.30146 -0.64207,0.47372 -0.38367,0.17226 -0.84957,0.17226 z m 4.51016,1.54254 v -5.77081 h 0.81042 v 0.59509 h 0.0117 q 0.1292,-0.22707 0.32496,-0.37585 0.19966,-0.14877 0.4424,-0.22316 0.24665,-0.0783 0.51287,-0.0783 0.53637,0 0.9357,0.27406 0.40326,0.27014 0.62641,0.75561 0.22708,0.48155 0.22708,1.11971 0,0.63815 -0.22316,1.12362 -0.22316,0.48155 -0.62641,0.75561 -0.40325,0.27014 -0.94353,0.27014 -0.26623,0 -0.50505,-0.0783 -0.2349,-0.0783 -0.42674,-0.23491 -0.19184,-0.1566 -0.32886,-0.3915 h -0.0118 v 2.25899 z m 1.93013,-2.26682 q 0.33669,0 0.58726,-0.16444 0.25056,-0.16834 0.39151,-0.48547 0.14485,-0.32103 0.14485,-0.78692 0,-0.46981 -0.14485,-0.79085 -0.14095,-0.32103 -0.39151,-0.48547 -0.25057,-0.16443 -0.58726,-0.16443 -0.35236,0 -0.61467,0.18009 -0.25839,0.17618 -0.40325,0.50113 -0.14094,0.32104 -0.14094,0.75953 0,0.43065 0.14094,0.7556 0.14486,0.32495 0.40325,0.50505 0.26231,0.17618 0.61467,0.17618 z m 3.51573,-5.20313 v 5.83345 h -0.82608 v -5.83345 z m 2.19244,5.90001 q -0.41108,0 -0.73603,-0.14094 -0.32104,-0.14095 -0.50896,-0.41892 -0.18793,-0.27797 -0.18793,-0.68905 0,-0.35235 0.13312,-0.57943 0.13702,-0.22707 0.36801,-0.36019 0.23099,-0.13311 0.52462,-0.19966 0.29363,-0.0705 0.60684,-0.10571 0.39151,-0.0509 0.61466,-0.0783 0.22708,-0.0313 0.32104,-0.094 0.0979,-0.0666 0.0979,-0.21533 v -0.0352 q 0,-0.19967 -0.0979,-0.35235 -0.0979,-0.15661 -0.2858,-0.24665 -0.18792,-0.09 -0.45023,-0.09 -0.26231,0 -0.4659,0.0861 -0.19966,0.0861 -0.32103,0.23882 -0.11745,0.14877 -0.13311,0.34061 h -0.81042 q 0.0196,-0.39542 0.23882,-0.69688 0.21924,-0.30146 0.60292,-0.47372 0.38367,-0.17227 0.90046,-0.17227 0.37976,0 0.68514,0.0979 0.30537,0.0979 0.51679,0.28188 0.21533,0.1801 0.32495,0.43458 0.11354,0.25448 0.11354,0.56768 v 2.83451 h -0.81434 v -0.58726 h -0.0157 q -0.0861,0.16835 -0.2349,0.31712 -0.14878,0.14877 -0.39151,0.24274 -0.23882,0.094 -0.59509,0.094 z m 0.16835,-0.66556 q 0.3641,0 0.599,-0.1292 0.23882,-0.13311 0.35236,-0.34844 0.11745,-0.21533 0.11745,-0.46981 v -0.48547 q -0.0431,0.0352 -0.14094,0.0666 -0.094,0.0274 -0.23099,0.0548 -0.13703,0.0235 -0.29755,0.0509 -0.16051,0.0274 -0.32103,0.047 -0.22707,0.0313 -0.42283,0.1057 -0.19575,0.0705 -0.31712,0.19967 -0.11745,0.1292 -0.11745,0.34061 0,0.17618 0.094,0.30538 0.094,0.12528 0.27014,0.19575 0.17618,0.0666 0.415,0.0666 z m 4.58454,0.69296 q -0.59117,0 -1.03357,-0.27405 -0.44241,-0.27406 -0.69297,-0.75952 -0.24665,-0.48939 -0.24665,-1.11971 0,-0.63816 0.24665,-1.12754 0.25056,-0.48939 0.69297,-0.76344 0.4424,-0.27797 1.03357,-0.27797 0.36802,0 0.68123,0.11354 0.31712,0.10962 0.55593,0.3132 0.23882,0.19967 0.38368,0.47764 0.14877,0.27405 0.18792,0.60292 h -0.82216 q -0.0313,-0.17618 -0.10962,-0.32104 -0.0783,-0.14485 -0.20358,-0.25056 -0.12529,-0.10571 -0.29364,-0.16443 -0.16443,-0.0587 -0.37584,-0.0587 -0.35627,0 -0.61075,0.18009 -0.25448,0.1801 -0.39151,0.50896 -0.13703,0.32495 -0.13703,0.76736 0,0.43848 0.13703,0.76343 0.13703,0.32104 0.39151,0.50113 0.25448,0.17618 0.61075,0.17618 0.21141,0 0.37584,-0.0548 0.16444,-0.0587 0.28189,-0.16443 0.11745,-0.10571 0.19575,-0.25057 0.0783,-0.14877 0.11746,-0.32886 h 0.8339 q -0.0352,0.32495 -0.184,0.599 -0.14486,0.27406 -0.3876,0.48156 -0.23881,0.20358 -0.55593,0.31712 -0.31321,0.11353 -0.68123,0.11353 z m 4.27526,0 q -0.61467,0 -1.05707,-0.27797 -0.43849,-0.27797 -0.67731,-0.76343 -0.2349,-0.48939 -0.2349,-1.11188 0,-0.63425 0.24665,-1.11971 0.24664,-0.48939 0.68122,-0.76736 0.43457,-0.28188 0.99834,-0.28188 0.43849,0 0.79084,0.1566 0.35627,0.1566 0.61075,0.44632 0.25448,0.2858 0.39151,0.68122 0.13703,0.39542 0.13703,0.87698 v 0.22315 h -3.48441 v -0.62641 h 3.04984 l -0.36411,0.19184 q 0,-0.38367 -0.13702,-0.66556 -0.13703,-0.2858 -0.39151,-0.43849 -0.25056,-0.1566 -0.59509,-0.1566 -0.34061,0 -0.59118,0.1566 -0.25056,0.15269 -0.3915,0.43849 -0.13703,0.28189 -0.13703,0.66556 v 0.35627 q 0,0.39151 0.13703,0.69297 0.13703,0.29755 0.39542,0.46589 0.26231,0.16835 0.63424,0.16835 0.27014,0 0.47764,-0.0822 0.2075,-0.0861 0.34452,-0.2349 0.13703,-0.14877 0.19576,-0.34453 h 0.79476 q -0.0744,0.39934 -0.33278,0.70472 -0.25448,0.30146 -0.64207,0.47372 -0.38368,0.17226 -0.84957,0.17226 z m 4.18912,-0.0117 q -0.53636,0 -0.94353,-0.27014 -0.40325,-0.27406 -0.62641,-0.75561 -0.22316,-0.48547 -0.22316,-1.12362 0,-0.63816 0.22316,-1.11971 0.22707,-0.48547 0.63032,-0.75561 0.40326,-0.27406 0.93571,-0.27406 0.27013,0 0.50895,0.0783 0.23882,0.0744 0.43066,0.22316 0.19576,0.14878 0.32887,0.37977 h 0.008 v -2.29815 h 0.82608 v 5.83345 h -0.81042 v -0.63032 h -0.008 q -0.14094,0.23881 -0.3367,0.39933 -0.19575,0.15661 -0.43457,0.23491 -0.23882,0.0783 -0.50896,0.0783 z m 0.16835,-0.71254 q 0.35235,0 0.61075,-0.17618 0.26231,-0.1801 0.40325,-0.50505 0.14486,-0.32495 0.14486,-0.7556 0,-0.43849 -0.14486,-0.75953 -0.14094,-0.32495 -0.40325,-0.50113 -0.2584,-0.18009 -0.61075,-0.18009 -0.33278,0 -0.58726,0.16443 -0.25057,0.16444 -0.39542,0.48547 -0.14095,0.32104 -0.14095,0.79085 0,0.46589 0.14095,0.78692 0.14485,0.31713 0.39542,0.48547 0.25448,0.16444 0.58726,0.16444 z"
         id="path5" />
      <path
         style="font-weight:500;-inkscape-font-specification:'Inter Medium';fill:#000000;stroke:none"
         d="m 237.64624,158.05861 q -0.59117,0 -1.03749,-0.27406 -0.44632,-0.27405 -0.69688,-0.75952 -0.24665,-0.48547 -0.24665,-1.11971 0,-0.64207 0.24665,-1.12754 0.25056,-0.48939 0.69688,-0.76344 0.44632,-0.27797 1.03749,-0.27797 0.59118,0 1.03358,0.27797 0.44632,0.27405 0.69297,0.76344 0.25056,0.48547 0.25056,1.12754 0,0.63424 -0.25056,1.11971 -0.24665,0.48547 -0.69297,0.75952 -0.4424,0.27406 -1.03358,0.27406 z m 0,-0.71255 q 0.35236,0 0.60684,-0.17617 0.25839,-0.1801 0.39542,-0.50505 0.14094,-0.32495 0.14094,-0.75952 0,-0.44632 -0.14094,-0.77127 -0.13703,-0.32495 -0.39542,-0.50504 -0.25448,-0.1801 -0.60684,-0.1801 -0.35235,0 -0.61075,0.1801 -0.25448,0.17617 -0.39542,0.50504 -0.13703,0.32495 -0.13703,0.77127 0,0.43849 0.13703,0.76344 0.14094,0.32103 0.39542,0.50113 0.25448,0.17617 0.61075,0.17617 z m 3.53531,-1.76178 v 2.38036 h -0.82608 v -4.13431 h 0.81042 v 1.02575 h -0.19184 q 0.20358,-0.55594 0.56377,-0.82999 0.3641,-0.27797 0.87698,-0.27797 0.42674,0 0.76343,0.18792 0.34061,0.18401 0.53637,0.54811 0.19575,0.3641 0.19575,0.90438 v 2.57611 h -0.82608 v -2.47432 q 0,-0.49721 -0.23882,-0.74778 -0.2349,-0.25448 -0.66556,-0.25448 -0.28188,0 -0.50896,0.11354 -0.22316,0.11354 -0.35627,0.35627 -0.13311,0.24274 -0.13311,0.62641 z m 7.56391,-1.75395 v 0.68122 h -2.39602 v -0.68122 z m -1.66782,-1.12754 h 0.82608 v 4.16955 q 0,0.22707 0.094,0.32104 0.0979,0.09 0.34453,0.09 0.094,0 0.2075,0 0.11353,0 0.19575,0 v 0.68122 q -0.10179,0 -0.24665,0 -0.14094,0 -0.27405,0 -0.58335,0 -0.86523,-0.24273 -0.28189,-0.24665 -0.28189,-0.74386 z m 3.14772,2.88149 v 2.38036 h -0.82608 v -5.83345 h 0.82608 v 2.72489 h -0.2075 q 0.20358,-0.55594 0.56377,-0.82999 0.3641,-0.27797 0.87697,-0.27797 0.42675,0 0.76344,0.18792 0.34061,0.18401 0.53637,0.54811 0.19575,0.3641 0.19575,0.90438 v 2.57611 h -0.82608 v -2.47432 q 0,-0.49721 -0.23882,-0.74778 -0.2349,-0.25448 -0.66556,-0.25448 -0.28189,0 -0.50896,0.11354 -0.22316,0.11354 -0.35627,0.35627 -0.13311,0.24274 -0.13311,0.62641 z m 5.42628,2.47433 q -0.61467,0 -1.05707,-0.27797 -0.43849,-0.27797 -0.6773,-0.76344 -0.23491,-0.48939 -0.23491,-1.11188 0,-0.63424 0.24665,-1.11971 0.24665,-0.48939 0.68122,-0.76735 0.43457,-0.28189 0.99834,-0.28189 0.43849,0 0.79085,0.1566 0.35627,0.15661 0.61075,0.44632 0.25448,0.2858 0.39151,0.68122 0.13702,0.39542 0.13702,0.87698 v 0.22316 h -3.48441 v -0.62641 h 3.04984 l -0.3641,0.19183 q 0,-0.38367 -0.13703,-0.66556 -0.13703,-0.2858 -0.3915,-0.43849 -0.25057,-0.1566 -0.5951,-0.1566 -0.34061,0 -0.59117,0.1566 -0.25056,0.15269 -0.39151,0.43849 -0.13702,0.28189 -0.13702,0.66556 v 0.35628 q 0,0.3915 0.13702,0.69296 0.13703,0.29755 0.39542,0.4659 0.26231,0.16834 0.63425,0.16834 0.27014,0 0.47763,-0.0822 0.2075,-0.0861 0.34453,-0.23491 0.13703,-0.14877 0.19575,-0.34452 h 0.79476 q -0.0744,0.39933 -0.33278,0.70471 -0.25448,0.30146 -0.64207,0.47372 -0.38368,0.17227 -0.84957,0.17227 z m 6.50293,-4.22828 v 0.68122 h -2.39602 v -0.68122 z m -1.66782,-1.12754 h 0.82608 v 4.16955 q 0,0.22707 0.094,0.32104 0.0979,0.09 0.34453,0.09 0.094,0 0.2075,0 0.11353,0 0.19575,0 v 0.68122 q -0.10179,0 -0.24665,0 -0.14094,0 -0.27405,0 -0.58335,0 -0.86523,-0.24273 -0.28189,-0.24665 -0.28189,-0.74386 z m 4.02783,5.35582 q -0.59118,0 -1.0375,-0.27406 -0.44631,-0.27405 -0.69688,-0.75952 -0.24665,-0.48547 -0.24665,-1.11971 0,-0.64207 0.24665,-1.12754 0.25057,-0.48939 0.69688,-0.76344 0.44632,-0.27797 1.0375,-0.27797 0.59117,0 1.03357,0.27797 0.44632,0.27405 0.69297,0.76344 0.25057,0.48547 0.25057,1.12754 0,0.63424 -0.25057,1.11971 -0.24665,0.48547 -0.69297,0.75952 -0.4424,0.27406 -1.03357,0.27406 z m 0,-0.71255 q 0.35235,0 0.60683,-0.17617 0.2584,-0.1801 0.39542,-0.50505 0.14095,-0.32495 0.14095,-0.75952 0,-0.44632 -0.14095,-0.77127 -0.13702,-0.32495 -0.39542,-0.50504 -0.25448,-0.1801 -0.60683,-0.1801 -0.35236,0 -0.61075,0.1801 -0.25448,0.17617 -0.39543,0.50504 -0.13702,0.32495 -0.13702,0.77127 0,0.43849 0.13702,0.76344 0.14095,0.32103 0.39543,0.50113 0.25448,0.17617 0.61075,0.17617 z m 2.70922,2.25508 v -5.77081 h 0.81042 v 0.59509 h 0.0118 q 0.12919,-0.22707 0.32495,-0.37584 0.19967,-0.14878 0.4424,-0.22316 0.24665,-0.0783 0.51287,-0.0783 0.53637,0 0.93571,0.27405 0.40325,0.27014 0.62641,0.75561 0.22707,0.48155 0.22707,1.11971 0,0.63815 -0.22316,1.12362 -0.22316,0.48156 -0.62641,0.75561 -0.40325,0.27014 -0.94353,0.27014 -0.26623,0 -0.50504,-0.0783 -0.23491,-0.0783 -0.42675,-0.23491 -0.19184,-0.1566 -0.32886,-0.3915 h -0.0118 v 2.25899 z m 1.93013,-2.26682 q 0.3367,0 0.58726,-0.16443 0.25057,-0.16835 0.39151,-0.48547 0.14486,-0.32104 0.14486,-0.78693 0,-0.46981 -0.14486,-0.79085 -0.14094,-0.32103 -0.39151,-0.48546 -0.25056,-0.16444 -0.58726,-0.16444 -0.35235,0 -0.61466,0.1801 -0.2584,0.17617 -0.40326,0.50112 -0.14094,0.32104 -0.14094,0.75953 0,0.43066 0.14094,0.75561 0.14486,0.32495 0.40326,0.50504 0.26231,0.17618 0.61466,0.17618 z m 6.131,0.7282 q -0.47373,0 -0.85349,-0.15269 -0.37976,-0.15268 -0.61075,-0.45415 -0.23099,-0.30146 -0.26231,-0.74777 h 0.81434 q 0.0352,0.33278 0.26231,0.51679 0.23098,0.18009 0.63424,0.18009 0.39542,0 0.62249,-0.16052 0.22708,-0.16052 0.22708,-0.40717 0,-0.21141 -0.16444,-0.33669 -0.16051,-0.1292 -0.43065,-0.18792 l -0.68514,-0.15269 q -0.58335,-0.1292 -0.88481,-0.42675 -0.30146,-0.29754 -0.30146,-0.7556 0,-0.36802 0.19576,-0.64599 0.19967,-0.27797 0.55594,-0.43457 0.35627,-0.1566 0.82999,-0.1566 0.46589,0 0.82608,0.16443 0.3641,0.16443 0.5716,0.46589 0.21141,0.30146 0.22316,0.72037 h -0.79084 q -0.004,-0.30146 -0.22708,-0.49721 -0.22316,-0.19967 -0.59117,-0.19967 -0.35236,0 -0.55986,0.16443 -0.2075,0.16444 -0.2075,0.40326 0,0.21141 0.15661,0.34061 0.16051,0.12919 0.43848,0.19184 l 0.70472,0.1566 q 0.60683,0.13311 0.88872,0.41108 0.2858,0.27797 0.2858,0.7282 0,0.39543 -0.21925,0.68123 -0.21533,0.28188 -0.59117,0.43848 -0.37585,0.15269 -0.8574,0.15269 z m 3.89158,-0.0157 q -0.42283,0 -0.76344,-0.18401 -0.34061,-0.18792 -0.53637,-0.55202 -0.19575,-0.36802 -0.19575,-0.90438 v -2.57612 h 0.82608 v 2.47432 q 0,0.4933 0.23882,0.74778 0.23882,0.25448 0.66948,0.25448 0.27797,0 0.50112,-0.11353 0.22708,-0.11354 0.36019,-0.35628 0.13311,-0.24665 0.13311,-0.62641 v -2.38036 h 0.82608 v 4.13431 h -0.81042 v -1.02574 h 0.19184 q -0.19967,0.55202 -0.56377,0.82999 -0.36018,0.27797 -0.87697,0.27797 z m 2.99111,-0.0822 v -4.13431 h 0.79084 v 0.66948 h 0.0157 q 0.11354,-0.34061 0.35627,-0.52854 0.24665,-0.19183 0.64207,-0.19183 0.094,0 0.17227,0.008 0.0822,0.004 0.12919,0.0117 v 0.77127 q -0.047,-0.0118 -0.16834,-0.0235 -0.12137,-0.0157 -0.26623,-0.0157 -0.23099,0 -0.42674,0.10571 -0.19184,0.1057 -0.30538,0.32495 -0.11353,0.21924 -0.11353,0.55985 v 2.443 z m 4.86204,-4.13431 v 0.68122 h -2.40777 v -0.68122 z m -1.66782,4.13431 v -4.80378 q 0,-0.32887 0.13703,-0.55594 0.14094,-0.23099 0.40325,-0.35236 0.26231,-0.12137 0.63424,-0.12137 0.16052,0 0.30146,0 0.14486,0 0.19184,0 v 0.68122 q -0.0392,0 -0.16443,0 -0.12529,0 -0.20359,0 -0.25448,0 -0.3641,0.11354 -0.10962,0.10962 -0.10962,0.36802 v 4.67067 z m 3.41582,0.0666 q -0.41108,0 -0.73603,-0.14094 -0.32104,-0.14094 -0.50896,-0.41891 -0.18792,-0.27797 -0.18792,-0.68906 0,-0.35235 0.13311,-0.57943 0.13703,-0.22707 0.36802,-0.36018 0.23098,-0.13312 0.52461,-0.19967 0.29364,-0.0705 0.60684,-0.10571 0.39151,-0.0509 0.61467,-0.0783 0.22707,-0.0313 0.32103,-0.094 0.0979,-0.0666 0.0979,-0.21533 v -0.0352 q 0,-0.19966 -0.0979,-0.35235 -0.0979,-0.1566 -0.2858,-0.24665 -0.18792,-0.09 -0.45023,-0.09 -0.26231,0 -0.46589,0.0861 -0.19967,0.0861 -0.32104,0.23882 -0.11745,0.14878 -0.13311,0.34061 h -0.81042 q 0.0196,-0.39542 0.23882,-0.69688 0.21924,-0.30146 0.60292,-0.47372 0.38368,-0.17226 0.90046,-0.17226 0.37977,0 0.68514,0.0979 0.30538,0.0979 0.51679,0.28189 0.21533,0.18009 0.32495,0.43457 0.11354,0.25448 0.11354,0.56768 v 2.83451 h -0.81434 v -0.58726 h -0.0157 q -0.0861,0.16835 -0.2349,0.31712 -0.14877,0.14878 -0.39151,0.24274 -0.23882,0.094 -0.59509,0.094 z m 0.16835,-0.66556 q 0.3641,0 0.59901,-0.1292 0.23881,-0.13311 0.35235,-0.34844 0.11745,-0.21533 0.11745,-0.46981 v -0.48547 q -0.0431,0.0352 -0.14094,0.0666 -0.094,0.0274 -0.23099,0.0548 -0.13703,0.0235 -0.29754,0.0509 -0.16052,0.0274 -0.32104,0.047 -0.22707,0.0313 -0.42283,0.1057 -0.19575,0.0705 -0.31712,0.19967 -0.11745,0.1292 -0.11745,0.34061 0,0.17618 0.094,0.30538 0.094,0.12528 0.27014,0.19575 0.17618,0.0666 0.415,0.0666 z m 4.58454,0.69297 q -0.59117,0 -1.03358,-0.27406 -0.4424,-0.27405 -0.69296,-0.75952 -0.24665,-0.48939 -0.24665,-1.11971 0,-0.63816 0.24665,-1.12754 0.25056,-0.48939 0.69296,-0.76344 0.44241,-0.27797 1.03358,-0.27797 0.36802,0 0.68122,0.11354 0.31712,0.10962 0.55594,0.3132 0.23882,0.19967 0.38368,0.47764 0.14877,0.27406 0.18792,0.60292 h -0.82216 q -0.0313,-0.17618 -0.10962,-0.32103 -0.0783,-0.14486 -0.20359,-0.25057 -0.12528,-0.10571 -0.29363,-0.16443 -0.16443,-0.0587 -0.37584,-0.0587 -0.35627,0 -0.61075,0.1801 -0.25448,0.18009 -0.39151,0.50895 -0.13703,0.32496 -0.13703,0.76736 0,0.43849 0.13703,0.76344 0.13703,0.32103 0.39151,0.50113 0.25448,0.17617 0.61075,0.17617 0.21141,0 0.37584,-0.0548 0.16444,-0.0587 0.28189,-0.16443 0.11745,-0.10571 0.19575,-0.25057 0.0783,-0.14877 0.11745,-0.32886 h 0.83391 q -0.0352,0.32495 -0.184,0.599 -0.14486,0.27406 -0.3876,0.48156 -0.23882,0.20358 -0.55594,0.31712 -0.3132,0.11354 -0.68122,0.11354 z m 4.27526,0 q -0.61467,0 -1.05707,-0.27797 -0.43849,-0.27797 -0.67731,-0.76344 -0.2349,-0.48939 -0.2349,-1.11188 0,-0.63424 0.24665,-1.11971 0.24665,-0.48939 0.68122,-0.76735 0.43457,-0.28189 0.99834,-0.28189 0.43849,0 0.79085,0.1566 0.35627,0.15661 0.61075,0.44632 0.25448,0.2858 0.3915,0.68122 0.13703,0.39542 0.13703,0.87698 v 0.22316 h -3.48441 v -0.62641 h 3.04984 l -0.3641,0.19183 q 0,-0.38367 -0.13703,-0.66556 -0.13703,-0.2858 -0.39151,-0.43849 -0.25056,-0.1566 -0.59509,-0.1566 -0.34061,0 -0.59117,0.1566 -0.25057,0.15269 -0.39151,0.43849 -0.13703,0.28189 -0.13703,0.66556 v 0.35628 q 0,0.3915 0.13703,0.69296 0.13703,0.29755 0.39542,0.4659 0.26231,0.16834 0.63424,0.16834 0.27014,0 0.47764,-0.0822 0.2075,-0.0861 0.34453,-0.23491 0.13702,-0.14877 0.19575,-0.34452 h 0.79476 q -0.0744,0.39933 -0.33278,0.70471 -0.25448,0.30146 -0.64207,0.47372 -0.38368,0.17227 -0.84957,0.17227 z"
         id="path6" />
    </g>
    <path
       style="fill:#999999;stroke:#000000;stroke-width:0.79375;stroke-linecap:square;stroke-dasharray:none;stroke-opacity:1;marker-end:url(#ArrowWide)"
       d="m 227.09406,146.99943 h -23.702"
       id="path2" />
  </g>
</svg>
