<?xml version="1.0" encoding="UTF-8" standalone="no"?>
<!-- Created with Inkscape (http://www.inkscape.org/) -->

<svg
   width="1280"
   height="720"
   viewBox="0 0 338.66666 190.5"
   version="1.1"
   id="svg1"
   inkscape:version="1.4.3 (0d15f75042, 2025-12-25)"
   sodipodi:docname="3_using_perspective_extension.svg"
   xmlns:inkscape="http://www.inkscape.org/namespaces/inkscape"
   xmlns:sodipodi="http://sodipodi.sourceforge.net/DTD/sodipodi-0.dtd"
   xmlns="http://www.w3.org/2000/svg"
   xmlns:svg="http://www.w3.org/2000/svg">
  <sodipodi:namedview
     id="namedview1"
     pagecolor="#ffffff"
     bordercolor="#000000"
     borderopacity="0.25"
     inkscape:showpageshadow="2"
     inkscape:pageopacity="0.0"
     inkscape:pagecheckerboard="0"
     inkscape:deskcolor="#d1d1d1"
     inkscape:document-units="px"
     inkscape:zoom="0.72000794"
     inkscape:cx="732.6308"
     inkscape:cy="356.24607"
     inkscape:window-width="2560"
     inkscape:window-height="1371"
     inkscape:window-x="0"
     inkscape:window-y="0"
     inkscape:window-maximized="1"
     inkscape:current-layer="layer1" />
  <defs
     id="defs1">
    <inkscape:path-effect
       effect="bspline"
       id="path-effect5"
       is_visible="true"
       lpeversion="1.3"
       weight="33.333333"
       steps="2"
       helper_size="0"
       apply_no_weight="true"
       apply_with_weight="true"
       only_selected="false"
       uniform="false" />
    <inkscape:path-effect
       effect="bspline"
       id="path-effect1"
       is_visible="true"
       lpeversion="1.3"
       weight="33.333333"
       steps="2"
       helper_size="0"
       apply_no_weight="true"
       apply_with_weight="true"
       only_selected="false"
       uniform="false" />
  </defs>
  <g
     inkscape:label="Layer 1"
     inkscape:groupmode="layer"
     id="layer1">
    <rect
       style="fill:#ffffff;stroke-width:2.64583;stroke-linecap:square"
       id="rect29"
       width="338.66666"
       height="190.5"
       x="0"
       y="0" />
    <g
       id="g22">
      <rect
         style="fill:#000000;fill-opacity:1;stroke:#ffffff;stroke-width:0.264583;stroke-linecap:butt;stroke-linejoin:round;stroke-dasharray:none;paint-order:normal"
         id="rect6"
         width="78.383522"
         height="19.254986"
         x="55.699291"
         y="102.60723" />
      <ellipse
         style="fill:#ffffff;fill-opacity:1;stroke:none;stroke-width:0.264583;stroke-dasharray:none"
         id="circle6"
         cx="125.21777"
         cy="112.23472"
         rx="3.8959584"
         ry="3.9218073" />
      <rect
         style="fill:#ffffff;fill-opacity:1;stroke:none;stroke-width:0.264583;stroke-dasharray:none"
         id="rect7"
         width="0.80859512"
         height="5.8457122"
         x="60.668392"
         y="109.31187" />
      <rect
         style="fill:#ffffff;fill-opacity:1;stroke:none;stroke-width:0.264583;stroke-dasharray:none"
         id="rect8"
         width="0.80859512"
         height="5.8457122"
         x="73.090912"
         y="109.31187" />
      <rect
         style="fill:#ffffff;fill-opacity:1;stroke:none;stroke-width:0.264583;stroke-dasharray:none"
         id="rect9"
         width="0.80859512"
         height="5.8457122"
         x="68.950073"
         y="109.31187" />
      <rect
         style="fill:#ffffff;fill-opacity:1;stroke:none;stroke-width:0.264583;stroke-dasharray:none"
         id="rect10"
         width="0.80859512"
         height="5.8457122"
         x="64.809219"
         y="109.31187" />
      <path
         style="fill:#000000;fill-opacity:1;stroke:#ffffff;stroke-width:0.264583;stroke-linecap:butt;stroke-linejoin:round;stroke-dasharray:none"
         d="m 153.5658,68.637779 -78.395608,5e-5 -19.4709,33.969441 78.383538,-4e-5 z"
         id="path10"
         sodipodi:nodetypes="ccccc" />
      <path
         style="fill:#000000;fill-opacity:1;stroke:#ffffff;stroke-width:0.264583;stroke-linecap:butt;stroke-linejoin:round;stroke-dasharray:none"
         d="m 153.55368,68.637829 7e-5,19.25496 -19.47092,33.969441 v -19.255 z"
         id="path11" />
      <path
         d="m 78.310782,99.21008 15.57664,-27.17536 h 5.01976 c 0.94328,0 1.548318,0.36488 1.815038,1.09464 0.27928,0.71752 0.22072,1.7452 -0.1756,3.08296 -0.38376,1.32552 -1.101918,2.9064 -2.154638,4.74264 -1.02472,1.78752 -2.11,3.33784 -3.25584,4.65104 -1.14576,1.3132 -2.2808,2.32848 -3.40496,3.04576 -1.11168,0.7052 -2.14744,1.05784 -3.10744,1.05784 h -3.30944 l 2.58216,-4.5048 h 3.3096 c 0.45472,0 0.9488,-0.17632 1.48216,-0.52896 0.53344,-0.35264 1.07112,-0.84504 1.61328,-1.47736 0.54912,-0.64448 1.0676,-1.39232 1.5556,-2.24352 0.50192,-0.87552 0.8408,-1.62336 1.01664,-2.2436 0.1828,-0.63232 0.20968,-1.12488 0.08064,-1.47752 -0.12912,-0.35264 -0.42384,-0.52904 -0.88432,-0.52904 h -2.26544 l -12.90048,22.50528 z m 7.11504,0 4.16384,-12.27264 h 2.72 l -4.1052,12.27264 z m 3.24176,0 19.984318,-27.17536 h 3.3352 l -11.1776,27.17536 h -2.871278 l 5.610158,-13.22104 c 0.75552,-1.7388 1.53048,-3.52624 2.32504,-5.3624 0.80712,-1.8484 1.73472,-3.94616 2.78288,-6.29328 h 0.71592 c -1.65456,2.34712 -3.14088,4.44488 -4.45888,6.29328 -1.30544,1.83616 -2.58288,3.6236 -3.8324,5.3624 l -9.617838,13.22104 z m 6.19312,-5.92616 2.57208,-4.48624 h 6.559918 l -2.57224,4.48624 z m 6.967598,5.92616 15.58288,-27.17536 h 3.7816 l -5.18784,12.65936 c -0.24352,0.57152 -0.54688,1.27672 -0.91008,2.11568 -0.35632,0.8268 -0.73416,1.69616 -1.13352,2.608 -0.39248,0.89968 -0.7752,1.76288 -1.14832,2.5896 -0.36744,0.82672 -0.67432,1.5136 -0.92072,2.06072 h -0.6484 c 0.38112,-0.54712 0.85928,-1.234 1.4344,-2.06072 0.5808,-0.82672 1.19088,-1.68992 1.8304,-2.5896 0.6464,-0.91184 1.26288,-1.7812 1.84928,-2.608 0.59904,-0.83896 1.10176,-1.54416 1.50808,-2.11568 l 9.30672,-12.65936 h 3.7816 l -15.5864,27.17536 h -2.54288 l 7.4048,-12.91104 c 0.34864,-0.60792 0.7692,-1.33136 1.2616,-2.1704 0.4924,-0.83896 1.01624,-1.73272 1.57144,-2.6812 0.56184,-0.96064 1.12744,-1.92744 1.69704,-2.90024 0.576,-0.98504 1.1184,-1.91536 1.6256,-2.79096 h 0.312 c -0.68,0.96072 -1.38,1.94576 -2.0992,2.95512 -0.7136,1.00936 -1.40696,1.98824 -2.08,2.93672 -0.67312,0.94848 -1.29872,1.824 -1.87688,2.62648 -0.5656,0.7904 -1.05088,1.4652 -1.45584,2.02448 l -9.52656,12.91104 h -2.10504 l 5.25672,-12.91096 c 0.23656,-0.55936 0.52248,-1.23416 0.85776,-2.02456 0.34232,-0.80248 0.71808,-1.678 1.1272,-2.62648 0.4148,-0.94848 0.83856,-1.92736 1.27136,-2.93672 0.43848,-1.00936 0.86576,-1.9944 1.28192,-2.95512 h 0.37056 c -0.49648,0.8756 -1.02152,1.80592 -1.57512,2.79096 -0.54664,0.97288 -1.08976,1.9396 -1.62944,2.90024 -0.53264,0.94848 -1.03672,1.84224 -1.51224,2.6812 -0.46984,0.83904 -0.87912,1.56248 -1.22776,2.17048 l -7.40376,12.91096 z"
         id="text19"
         style="font-weight:bold;font-size:20.7926px;line-height:1.2;font-family:Inter;-inkscape-font-specification:'Inter Bold';fill:#ffffff;stroke-width:2.64583;stroke-linecap:square"
         aria-label="RAM" />
    </g>
    <g
       id="g21">
      <rect
         style="fill:#000000;fill-opacity:1;stroke:#ffffff;stroke-width:0.264583;stroke-linecap:butt;stroke-linejoin:round;stroke-dasharray:none;paint-order:normal"
         id="rect5"
         width="78.383522"
         height="19.254986"
         x="185.10086"
         y="102.60723" />
      <ellipse
         style="fill:#ffffff;fill-opacity:1;stroke:none;stroke-width:0.264583;stroke-dasharray:none"
         id="ellipse5"
         cx="254.61934"
         cy="112.23472"
         rx="3.8959584"
         ry="3.9218073" />
      <rect
         style="fill:#ffffff;fill-opacity:1;stroke:none;stroke-width:0.264583;stroke-dasharray:none"
         id="rect11"
         width="0.80859512"
         height="5.8457122"
         x="190.06996"
         y="109.31187" />
      <rect
         style="fill:#ffffff;fill-opacity:1;stroke:none;stroke-width:0.264583;stroke-dasharray:none"
         id="rect12"
         width="0.80859512"
         height="5.8457122"
         x="202.49249"
         y="109.31187" />
      <rect
         style="fill:#ffffff;fill-opacity:1;stroke:none;stroke-width:0.264583;stroke-dasharray:none"
         id="rect13"
         width="0.80859512"
         height="5.8457122"
         x="198.35165"
         y="109.31187" />
      <rect
         style="fill:#ffffff;fill-opacity:1;stroke:none;stroke-width:0.264583;stroke-dasharray:none"
         id="rect14"
         width="0.80859512"
         height="5.8457122"
         x="194.2108"
         y="109.31187" />
      <path
         style="fill:#000000;fill-opacity:1;stroke:#ffffff;stroke-width:0.264583;stroke-linecap:butt;stroke-linejoin:round;stroke-dasharray:none"
         d="m 282.96737,68.637779 -78.39561,5e-5 -19.4709,33.969441 78.38354,-4e-5 z"
         id="path14"
         sodipodi:nodetypes="ccccc" />
      <path
         style="fill:#000000;fill-opacity:1;stroke:#ffffff;stroke-width:0.264583;stroke-linecap:butt;stroke-linejoin:round;stroke-dasharray:none"
         d="m 282.95526,68.637829 7e-5,19.25496 -19.47092,33.969441 v -19.255 z"
         id="path15" />
      <path
         d="m 207.71222,99.21008 h 37.0576 l 2.1104,-3.6792 c 0.396,-0.69144 0.24079,-1.28824 -0.4656,-1.7904 -0.688,-0.50624 -1.86641,-0.8952 -3.5344,-1.16688 -1.64961,-0.27576 -3.72561,-0.41368 -6.2296,-0.41368 -2.4376,0 -4.63441,0.14408 -6.5904,0.43224 -1.956,0.28808 -3.57281,0.69352 -4.8504,1.21624 -1.2592,0.51856 -2.0904,1.12976 -2.4944,1.8336 l -1.3904,2.42648 h 6.1424 l 1.3912,-2.42648 c 0.1912,-0.33336 0.5968,-0.62152 1.2168,-0.86432 0.6208,-0.2428 1.3992,-0.43008 2.3368,-0.56184 0.9544,-0.13168 2.01199,-0.19752 3.1728,-0.19752 1.19359,0 2.176,0.06584 2.94559,0.19752 0.78721,0.13176 1.3512,0.31904 1.69281,0.56184 0.3416,0.2428 0.4152,0.53304 0.2224,0.87048 l -0.9528,1.66032 h -30.69121 z m 2.9904,-5.21648 15.5312,2.10528 1.144,-1.99416 -15.5072,-2.14856 z m 1.3624,-2.37696 38.91199,-3.2292 1.4024,-2.4452 -35.2112,-3.22952 -1.2064,2.10576 17.2048,1.44488 c 2.2696,0.17704 4.6024,0.36016 6.9976,0.54952 2.4144,0.18528 5.1592,0.38696 8.2344,0.60512 l 0.3016,-0.5248 c -3.3304,0.2264 -6.31039,0.43424 -8.9392,0.6236 -2.6104,0.18528 -5.1544,0.37048 -7.6312,0.55576 l -18.8896,1.49424 z m 9.2584,-2.04984 h 6.1192 l 2.7576,-4.81008 h -6.1192 z m -3.7264,-7.60128 h 37.0632 l 1.5904,-2.7728 -16.3928,-1.5192 c -0.744,-0.06176 -1.6632,-0.13584 -2.7576,-0.22232 -1.0784,-0.08648 -2.2136,-0.17496 -3.4056,-0.26552 -1.1752,-0.09064 -2.3056,-0.17296 -3.3904,-0.24704 -1.0832,-0.07824 -1.9832,-0.14208 -2.7016,-0.19144 l -0.272,0.47552 c 0.7744,-0.04944 1.7464,-0.1112 2.9168,-0.18528 1.1728,-0.07824 2.3984,-0.16264 3.6776,-0.2532 1.296,-0.09064 2.5312,-0.17704 3.7064,-0.25944 1.1936,-0.08648 2.1968,-0.15848 3.0096,-0.21616 l 18.124,-1.5008 1.5912,-2.77312 h -37.0672 L 222.22022,73.9 h 17.612 c 0.8296,0 1.8184,-0.0042 2.96799,-0.0124 1.1488,-0.0082 2.3728,-0.0164 3.67041,-0.02464 1.3152,-0.0082 2.6384,-0.01648 3.96959,-0.02472 1.34801,-0.0082 2.62081,-0.0144 3.81681,-0.01856 l 0.1312,-0.22856 c -1.364,0.09472 -2.764,0.1936 -4.2,0.29648 -1.4328,0.09888 -2.8232,0.1956 -4.1712,0.29032 -1.34801,0.09472 -2.5944,0.18528 -3.73841,0.27176 -1.1248,0.08232 -2.0872,0.1544 -2.88479,0.21616 l -18.5048,1.5564 -0.8848,1.54392 16.7088,1.5748 c 0.72719,0.06176 1.6056,0.13584 2.6336,0.22232 1.0448,0.08648 2.1856,0.17912 3.42239,0.27792 1.2392,0.09464 2.51681,0.19552 3.83201,0.30256 1.3168,0.10296 2.6024,0.20384 3.856,0.30264 l 0.156,-0.27176 c -1.19201,-0.0041 -2.45681,-0.01032 -3.79521,-0.01856 -1.3224,-0.0082 -2.636,-0.0164 -3.9416,-0.02464 -1.2888,-0.0082 -2.504,-0.01448 -3.6456,-0.01856 -1.14,-0.0082 -2.124,-0.0124 -2.9528,-0.0124 l -17.612,8e-5 z"
         id="path17"
         style="font-weight:bold;font-size:20.7926px;line-height:1.2;font-family:Inter;-inkscape-font-specification:'Inter Bold';fill:#ffffff;stroke-width:2.64583;stroke-linecap:square"
         aria-label="RAM" />
    </g>
    <path
       d="m 63.182053,153.62525 q -1.144116,0 -2.020342,-0.54136 -0.876226,-0.54137 -1.367358,-1.50689 -0.491133,-0.96552 -0.491133,-2.238 0,-1.28364 0.491133,-2.24917 0.491132,-0.9711 1.367358,-1.50688 0.876226,-0.54136 2.020342,-0.54136 0.680889,0 1.266899,0.20649 0.591592,0.20092 1.05482,0.58043 0.468808,0.37952 0.770185,0.9153 0.301377,0.53578 0.412998,1.19992 h -1.261318 q -0.0893,-0.42416 -0.290215,-0.75344 -0.200918,-0.32928 -0.491133,-0.5581 -0.290215,-0.22883 -0.658564,-0.34045 -0.36835,-0.1172 -0.79251,-0.1172 -0.820415,0 -1.412007,0.39625 -0.591592,0.39626 -0.915293,1.11063 -0.31812,0.7088 -0.31812,1.65758 0,0.9432 0.31812,1.65199 0.323701,0.70879 0.915293,1.10505 0.591592,0.39625 1.412007,0.39625 0.42416,0 0.786929,-0.11162 0.368349,-0.1172 0.658564,-0.34044 0.290215,-0.22883 0.491133,-0.55811 0.200918,-0.32928 0.301377,-0.74786 h 1.255737 q -0.10604,0.65857 -0.412998,1.19435 -0.301377,0.53578 -0.770185,0.91529 -0.463228,0.37951 -1.05482,0.58043 -0.58601,0.20092 -1.266899,0.20092 z m 7.138169,0 q -0.84274,0 -1.47898,-0.39068 -0.63624,-0.39067 -0.993428,-1.08272 -0.351606,-0.69205 -0.351606,-1.59618 0,-0.9153 0.351606,-1.60735 0.357188,-0.69763 0.993428,-1.0883 0.63624,-0.39626 1.47898,-0.39626 0.842739,0 1.473398,0.39626 0.63624,0.39067 0.987847,1.0883 0.357187,0.69205 0.357187,1.60735 0,0.90413 -0.357187,1.59618 -0.351607,0.69205 -0.987847,1.08272 -0.630659,0.39068 -1.473398,0.39068 z m 0,-1.01575 q 0.502295,0 0.865063,-0.25115 0.36835,-0.25673 0.563687,-0.71996 0.200918,-0.46323 0.200918,-1.08272 0,-0.63624 -0.200918,-1.09947 -0.195337,-0.46323 -0.563687,-0.71996 -0.362768,-0.25672 -0.865063,-0.25672 -0.502295,0 -0.870645,0.25672 -0.362768,0.25115 -0.563686,0.71996 -0.195337,0.46323 -0.195337,1.09947 0,0.62508 0.195337,1.0883 0.200918,0.45765 0.563686,0.71438 0.362769,0.25115 0.870645,0.25115 z m 3.862089,0.8818 v -5.89359 h 1.127373 v 0.95436 h 0.02232 q 0.161851,-0.48555 0.507876,-0.75344 0.351607,-0.27348 0.915293,-0.27348 0.133946,0 0.245567,0.0112 0.117202,0.006 0.184175,0.0167 v 1.09947 q -0.06697,-0.0168 -0.239986,-0.0335 -0.173012,-0.0223 -0.379511,-0.0223 -0.329283,0 -0.608335,0.15069 -0.273472,0.15068 -0.435323,0.46322 -0.16185,0.31254 -0.16185,0.79809 v 3.48258 z m 3.908962,0 v -5.89359 h 1.127373 v 0.95436 h 0.02232 q 0.16185,-0.48555 0.507876,-0.75344 0.351606,-0.27348 0.915293,-0.27348 0.133945,0 0.245566,0.0112 0.117202,0.006 0.184175,0.0167 v 1.09947 q -0.06697,-0.0168 -0.239985,-0.0335 -0.173013,-0.0223 -0.379512,-0.0223 -0.329282,0 -0.608335,0.15069 -0.273472,0.15068 -0.435322,0.46322 -0.161851,0.31254 -0.161851,0.79809 v 3.48258 z m 6.30437,0.13395 q -0.876226,0 -1.506885,-0.39626 -0.625078,-0.39625 -0.965523,-1.0883 -0.334863,-0.69763 -0.334863,-1.58502 0,-0.90413 0.351606,-1.59618 0.351607,-0.69764 0.971104,-1.09389 0.619497,-0.40184 1.423169,-0.40184 0.625078,0 1.127373,0.22325 0.507876,0.22324 0.870645,0.63624 0.362768,0.40741 0.558105,0.9711 0.195337,0.56369 0.195337,1.25016 v 0.31812 h -4.967139 v -0.89297 h 4.347642 l -0.519038,0.27347 q 0,-0.54694 -0.195337,-0.94878 -0.195337,-0.40742 -0.558106,-0.62508 -0.357187,-0.22324 -0.84832,-0.22324 -0.485552,0 -0.842739,0.22324 -0.357188,0.21766 -0.558106,0.62508 -0.195337,0.40184 -0.195337,0.94878 v 0.50787 q 0,0.55811 0.195337,0.98785 0.195337,0.42416 0.563687,0.66415 0.373931,0.23998 0.904131,0.23998 0.385093,0 0.680888,-0.1172 0.295796,-0.12278 0.491133,-0.33486 0.195337,-0.21208 0.279053,-0.49114 h 1.132954 q -0.10604,0.56927 -0.47439,1.00459 -0.362768,0.42974 -0.915293,0.67531 -0.546943,0.24557 -1.211088,0.24557 z m 6.228456,0 q -0.842739,0 -1.473398,-0.39068 -0.630659,-0.39067 -0.987847,-1.08272 -0.351606,-0.69763 -0.351606,-1.59618 0,-0.90971 0.351606,-1.60735 0.357188,-0.69763 0.987847,-1.0883 0.630659,-0.39626 1.473398,-0.39626 0.524619,0 0.971104,0.16185 0.452065,0.15627 0.79251,0.44649 0.340444,0.28463 0.546943,0.68089 0.21208,0.39067 0.267891,0.85948 h -1.172022 q -0.04465,-0.25115 -0.15627,-0.45765 -0.111621,-0.2065 -0.290214,-0.35718 -0.178594,-0.15069 -0.418579,-0.23441 -0.234405,-0.0837 -0.535782,-0.0837 -0.507876,0 -0.870644,0.25672 -0.362769,0.25673 -0.558106,0.72554 -0.195337,0.46323 -0.195337,1.09389 0,0.62508 0.195337,1.0883 0.195337,0.45765 0.558106,0.71438 0.362768,0.25115 0.870644,0.25115 0.301377,0 0.535782,-0.0781 0.234404,-0.0837 0.401835,-0.2344 0.167432,-0.15069 0.279053,-0.35719 0.111621,-0.21208 0.167432,-0.46881 h 1.188765 q -0.05023,0.46323 -0.26231,0.8539 -0.206499,0.39068 -0.552524,0.68647 -0.340445,0.29022 -0.79251,0.45207 -0.446485,0.16185 -0.971104,0.16185 z m 6.418214,-6.02754 v 0.9711 h -3.415605 v -0.9711 z m -2.377529,-1.60735 h 1.177602 v 5.94383 q 0,0.3237 0.133946,0.45764 0.139526,0.12837 0.491133,0.12837 0.133945,0 0.295795,0 0.161851,0 0.279053,0 v 0.9711 q -0.145107,0 -0.351606,0 -0.200918,0 -0.390674,0 -0.831577,0 -1.233413,-0.34602 -0.401836,-0.35161 -0.401836,-1.0604 z m 7.830216,7.59582 q -0.58601,0 -1.04924,-0.20092 -0.45764,-0.20092 -0.72553,-0.59717 -0.26789,-0.39626 -0.26789,-0.98227 0,-0.50229 0.18975,-0.82599 0.19534,-0.3237 0.52462,-0.51346 0.32928,-0.18976 0.74786,-0.28463 0.41858,-0.10046 0.86507,-0.15069 0.5581,-0.0726 0.87622,-0.11162 0.3237,-0.0447 0.45765,-0.13395 0.13952,-0.0949 0.13952,-0.30696 v -0.0502 q 0,-0.28463 -0.13952,-0.50229 -0.13953,-0.22324 -0.40742,-0.35161 -0.26789,-0.12836 -0.64182,-0.12836 -0.37393,0 -0.66415,0.12278 -0.28463,0.12279 -0.45764,0.34045 -0.16743,0.21208 -0.18976,0.48555 h -1.15528 q 0.0279,-0.56369 0.34045,-0.99343 0.31254,-0.42974 0.85948,-0.67531 0.54694,-0.24556 1.28364,-0.24556 0.54136,0 0.97669,0.13952 0.43532,0.13953 0.7367,0.40184 0.30695,0.25673 0.46322,0.6195 0.16185,0.36276 0.16185,0.80925 v 4.04068 h -1.16086 v -0.83716 h -0.0223 q -0.12278,0.23999 -0.33486,0.45207 -0.21208,0.21208 -0.55811,0.34603 -0.34044,0.13394 -0.84832,0.13394 z m 0.23999,-0.94878 q 0.51903,0 0.8539,-0.18417 0.34044,-0.18976 0.50229,-0.49672 0.16743,-0.30696 0.16743,-0.66972 v -0.69205 q -0.0614,0.0502 -0.20091,0.0949 -0.13395,0.0391 -0.32929,0.0781 -0.19533,0.0335 -0.42416,0.0726 -0.22882,0.0391 -0.45764,0.067 -0.3237,0.0446 -0.60276,0.15069 -0.27905,0.10046 -0.45206,0.28464 -0.16743,0.18417 -0.16743,0.48555 0,0.25115 0.13394,0.43532 0.13395,0.17859 0.38509,0.27905 0.25115,0.0949 0.5916,0.0949 z m 5.19038,-7.46187 v 8.31577 h -1.1776 v -8.31577 z m 1.32829,8.31577 v -5.89359 h 1.1776 v 5.89359 z m 0.58601,-6.90934 q -0.31254,0 -0.5302,-0.2065 -0.21208,-0.21208 -0.21208,-0.51346 0,-0.30696 0.21208,-0.51346 0.21766,-0.21208 0.5302,-0.21208 0.31254,0 0.5302,0.21208 0.21766,0.2065 0.21766,0.51346 0,0.30138 -0.21766,0.51346 -0.21766,0.2065 -0.5302,0.2065 z m 4.49275,9.32036 q -0.72554,0 -1.27806,-0.21766 -0.54694,-0.21208 -0.88181,-0.62508 -0.33486,-0.40742 -0.413,-0.98227 h 1.17761 q 0.0781,0.28464 0.26789,0.47439 0.19534,0.19534 0.47997,0.29022 0.29021,0.10046 0.6474,0.10046 0.71438,0 1.11621,-0.3851 0.40184,-0.38509 0.40184,-1.09946 v -0.89297 h -0.006 q -0.20092,0.34044 -0.47997,0.56368 -0.27348,0.22325 -0.61392,0.33487 -0.33486,0.10604 -0.72554,0.10604 -0.7646,0 -1.34503,-0.3851 -0.57485,-0.39067 -0.89297,-1.07156 -0.31812,-0.68647 -0.31812,-1.58502 0,-0.89855 0.31812,-1.58502 0.3237,-0.69205 0.89855,-1.07714 0.57485,-0.38509 1.33387,-0.38509 0.38509,0 0.72554,0.10604 0.34602,0.10604 0.62508,0.33486 0.28463,0.22324 0.47997,0.57485 h 0.006 v -0.89855 h 1.16086 v 5.81546 q 0,0.89297 -0.36277,1.43991 -0.35719,0.54694 -0.9711,0.79809 -0.60834,0.25115 -1.35062,0.25115 z m -0.067,-3.34305 q 0.50229,0 0.87064,-0.25115 0.37393,-0.25115 0.57485,-0.7088 0.2065,-0.46322 0.2065,-1.07714 0,-0.6195 -0.2065,-1.07714 -0.20092,-0.45765 -0.57485,-0.7088 -0.36835,-0.25114 -0.87064,-0.25114 -0.47439,0 -0.83716,0.2344 -0.35719,0.22882 -0.56369,0.68647 -0.20091,0.45207 -0.20091,1.11621 0,0.65857 0.20091,1.11621 0.2065,0.45207 0.56369,0.68647 0.36277,0.23441 0.83716,0.23441 z m 5.25735,-2.46125 v 3.39328 h -1.1776 v -5.89359 h 1.15528 v 1.46223 h -0.27347 q 0.29021,-0.7925 0.80367,-1.18318 0.51904,-0.39625 1.25015,-0.39625 0.60834,0 1.08831,0.26789 0.48555,0.26231 0.7646,0.78134 0.27906,0.51904 0.27906,1.28923 v 3.67233 h -1.17761 v -3.52722 q 0,-0.7088 -0.34044,-1.06599 -0.33486,-0.36276 -0.94878,-0.36276 -0.40184,0 -0.72554,0.16185 -0.31812,0.16185 -0.50787,0.50787 -0.18976,0.34603 -0.18976,0.89297 z m 5.21828,3.39328 v -5.89359 h 1.14412 v 1.24457 h -0.11162 q 0.16743,-0.44648 0.44648,-0.74786 0.28464,-0.30696 0.65299,-0.45764 0.36835,-0.15627 0.77018,-0.15627 0.68647,0 1.17202,0.39625 0.49114,0.39068 0.60276,0.96552 h -0.18418 q 0.12279,-0.39067 0.39626,-0.69763 0.27905,-0.30696 0.68089,-0.48555 0.40183,-0.17859 0.89297,-0.17859 0.55252,0 0.999,0.23998 0.44649,0.23999 0.7088,0.71438 0.26231,0.46881 0.26231,1.1776 v 3.87883 h -1.18319 v -3.77837 q 0,-0.63066 -0.3516,-0.91529 -0.35161,-0.28464 -0.83158,-0.28464 -0.39067,0 -0.67531,0.16743 -0.28463,0.16743 -0.4409,0.45765 -0.15627,0.29021 -0.15627,0.66973 v 3.68349 h -1.16086 v -3.85651 q 0,-0.50787 -0.32928,-0.81483 -0.3237,-0.30696 -0.826,-0.30696 -0.34044,0 -0.64182,0.16185 -0.29579,0.16185 -0.47997,0.47997 -0.17859,0.31254 -0.17859,0.78135 v 3.55513 z m 12.27833,0.13395 q -0.87623,0 -1.50689,-0.39626 -0.62507,-0.39625 -0.96552,-1.0883 -0.33486,-0.69763 -0.33486,-1.58502 0,-0.90413 0.3516,-1.59618 0.35161,-0.69764 0.97111,-1.09389 0.6195,-0.40184 1.42317,-0.40184 0.62508,0 1.12737,0.22325 0.50788,0.22324 0.87064,0.63624 0.36277,0.40741 0.55811,0.9711 0.19534,0.56369 0.19534,1.25016 v 0.31812 h -4.96714 v -0.89297 h 4.34764 l -0.51904,0.27347 q 0,-0.54694 -0.19534,-0.94878 -0.19533,-0.40742 -0.5581,-0.62508 -0.35719,-0.22324 -0.84832,-0.22324 -0.48555,0 -0.84274,0.22324 -0.35719,0.21766 -0.55811,0.62508 -0.19533,0.40184 -0.19533,0.94878 v 0.50787 q 0,0.55811 0.19533,0.98785 0.19534,0.42416 0.56369,0.66415 0.37393,0.23998 0.90413,0.23998 0.38509,0 0.68089,-0.1172 0.2958,-0.12278 0.49113,-0.33486 0.19534,-0.21208 0.27906,-0.49114 h 1.13295 q -0.10604,0.56927 -0.47439,1.00459 -0.36277,0.42974 -0.91529,0.67531 -0.54695,0.24557 -1.21109,0.24557 z m 4.88342,-3.52723 v 3.39328 h -1.1776 v -5.89359 h 1.15528 v 1.46223 h -0.27347 q 0.29021,-0.7925 0.80367,-1.18318 0.51904,-0.39625 1.25016,-0.39625 0.60833,0 1.0883,0.26789 0.48555,0.26231 0.76461,0.78134 0.27905,0.51904 0.27905,1.28923 v 3.67233 h -1.1776 v -3.52722 q 0,-0.7088 -0.34045,-1.06599 -0.33486,-0.36276 -0.94878,-0.36276 -0.40183,0 -0.72554,0.16185 -0.31812,0.16185 -0.50787,0.50787 -0.18976,0.34603 -0.18976,0.89297 z m 8.05905,-2.50031 v 0.9711 h -3.41561 v -0.9711 z m -2.37753,-1.60735 h 1.1776 v 5.94383 q 0,0.3237 0.13394,0.45764 0.13953,0.12837 0.49114,0.12837 0.13394,0 0.29579,0 0.16185,0 0.27906,0 v 0.9711 q -0.14511,0 -0.35161,0 -0.20092,0 -0.39067,0 -0.83158,0 -1.23342,-0.34602 -0.40183,-0.35161 -0.40183,-1.0604 z"
       id="text20"
       style="font-weight:500;font-size:11.43px;line-height:1.2;font-family:Inter;-inkscape-font-specification:'Inter Medium';stroke-width:0.79375;stroke-linecap:square"
       aria-label="Correct alignment" />
    <path
       d="m 198.11164,153.49657 v -8.31577 h 3.10865 q 0.85948,0 1.46781,0.27347 0.60834,0.26789 0.92646,0.75902 0.3237,0.48555 0.3237,1.15528 0,0.47439 -0.16743,0.83158 -0.16743,0.35718 -0.47997,0.59717 -0.31254,0.23998 -0.74786,0.37951 v 0.0112 q 0.48555,0.067 0.87622,0.30696 0.39068,0.23999 0.6195,0.65856 0.22882,0.413 0.22882,1.00459 0,0.70322 -0.32928,1.23342 -0.3237,0.52462 -0.98227,0.81483 -0.65856,0.29022 -1.64083,0.29022 z m 1.22783,-1.04366 h 1.89756 q 0.84832,0 1.30597,-0.32928 0.46322,-0.33487 0.46322,-0.97111 0,-0.42416 -0.20091,-0.72553 -0.20092,-0.30696 -0.58601,-0.47439 -0.3851,-0.16743 -0.93762,-0.16743 h -1.94221 z m 0,-3.68908 h 1.86407 q 0.47439,0 0.80926,-0.15069 0.34044,-0.15627 0.51903,-0.4409 0.1786,-0.28463 0.1786,-0.67531 0,-0.58601 -0.40184,-0.92645 -0.39625,-0.34603 -1.10505,-0.34603 h -1.86407 z m 7.79115,4.82761 q -0.58601,0 -1.04923,-0.20091 -0.45765,-0.20092 -0.72554,-0.59718 -0.26789,-0.39625 -0.26789,-0.98226 0,-0.5023 0.18975,-0.826 0.19534,-0.3237 0.52462,-0.51345 0.32928,-0.18976 0.74786,-0.28464 0.41858,-0.10046 0.86507,-0.15069 0.5581,-0.0725 0.87622,-0.11162 0.3237,-0.0446 0.45765,-0.13394 0.13953,-0.0949 0.13953,-0.30696 v -0.0502 q 0,-0.28463 -0.13953,-0.5023 -0.13953,-0.22324 -0.40742,-0.3516 -0.26789,-0.12837 -0.64182,-0.12837 -0.37393,0 -0.66414,0.12279 -0.28464,0.12278 -0.45765,0.34044 -0.16743,0.21208 -0.18976,0.48555 h -1.15528 q 0.0279,-0.56368 0.34045,-0.99343 0.31254,-0.42974 0.85948,-0.6753 0.54694,-0.24557 1.28364,-0.24557 0.54137,0 0.97669,0.13953 0.43532,0.13952 0.7367,0.40183 0.30696,0.25673 0.46323,0.6195 0.16185,0.36277 0.16185,0.80925 v 4.04069 h -1.16086 v -0.83716 h -0.0223 q -0.12278,0.23998 -0.33486,0.45206 -0.21208,0.21208 -0.55811,0.34603 -0.34044,0.13394 -0.84832,0.13394 z m 0.23999,-0.94877 q 0.51904,0 0.8539,-0.18418 0.34044,-0.18976 0.5023,-0.49671 0.16743,-0.30696 0.16743,-0.66973 V 150.6 q -0.0614,0.0502 -0.20092,0.0949 -0.13395,0.0391 -0.32928,0.0781 -0.19534,0.0335 -0.42416,0.0726 -0.22883,0.0391 -0.45765,0.067 -0.3237,0.0446 -0.60275,0.15069 -0.27906,0.10046 -0.45207,0.28463 -0.16743,0.18418 -0.16743,0.48555 0,0.25115 0.13394,0.43532 0.13395,0.1786 0.3851,0.27906 0.25114,0.0949 0.59159,0.0949 z m 6.27869,0.9711 q -0.76461,0 -1.34504,-0.38509 -0.57485,-0.39068 -0.89297,-1.07715 -0.31812,-0.69205 -0.31812,-1.60176 0,-0.90971 0.31812,-1.59618 0.3237,-0.69205 0.89855,-1.07715 0.57485,-0.39067 1.33387,-0.39067 0.3851,0 0.72554,0.11162 0.34045,0.10604 0.61392,0.31812 0.27905,0.21208 0.46881,0.54136 h 0.0112 v -3.27607 h 1.1776 v 8.31577 h -1.15528 v -0.89855 h -0.0112 q -0.20092,0.34044 -0.47997,0.56926 -0.27905,0.22325 -0.6195,0.33487 -0.34044,0.11162 -0.72553,0.11162 z m 0.23998,-1.01575 q 0.5023,0 0.87065,-0.25115 0.37393,-0.25673 0.57484,-0.71996 0.2065,-0.46322 0.2065,-1.07714 0,-0.62508 -0.2065,-1.08272 -0.20091,-0.46323 -0.57484,-0.71438 -0.36835,-0.25673 -0.87065,-0.25673 -0.47439,0 -0.83716,0.23441 -0.35718,0.2344 -0.56368,0.69205 -0.20092,0.45764 -0.20092,1.12737 0,0.66415 0.20092,1.12179 0.2065,0.45207 0.56368,0.69205 0.36277,0.23441 0.83716,0.23441 z m 8.60041,0.99342 q -0.58602,0 -1.04924,-0.20091 -0.45765,-0.20092 -0.72554,-0.59718 -0.26789,-0.39625 -0.26789,-0.98226 0,-0.5023 0.18976,-0.826 0.19533,-0.3237 0.52461,-0.51345 0.32929,-0.18976 0.74787,-0.28464 0.41858,-0.10046 0.86506,-0.15069 0.5581,-0.0725 0.87623,-0.11162 0.3237,-0.0446 0.45764,-0.13394 0.13953,-0.0949 0.13953,-0.30696 v -0.0502 q 0,-0.28463 -0.13953,-0.5023 -0.13952,-0.22324 -0.40742,-0.3516 -0.26789,-0.12837 -0.64182,-0.12837 -0.37393,0 -0.66414,0.12279 -0.28464,0.12278 -0.45765,0.34044 -0.16743,0.21208 -0.18975,0.48555 h -1.15528 q 0.0279,-0.56368 0.34044,-0.99343 0.31254,-0.42974 0.85948,-0.6753 0.54695,-0.24557 1.28365,-0.24557 0.54136,0 0.97668,0.13953 0.43532,0.13952 0.7367,0.40183 0.30696,0.25673 0.46323,0.6195 0.16185,0.36277 0.16185,0.80925 v 4.04069 h -1.16086 v -0.83716 h -0.0223 q -0.12278,0.23998 -0.33486,0.45206 -0.21208,0.21208 -0.5581,0.34603 -0.34045,0.13394 -0.84832,0.13394 z m 0.23998,-0.94877 q 0.51904,0 0.8539,-0.18418 0.34045,-0.18976 0.5023,-0.49671 0.16743,-0.30696 0.16743,-0.66973 V 150.6 q -0.0614,0.0502 -0.20092,0.0949 -0.13394,0.0391 -0.32928,0.0781 -0.19534,0.0335 -0.42416,0.0726 -0.22882,0.0391 -0.45765,0.067 -0.3237,0.0446 -0.60275,0.15069 -0.27905,0.10046 -0.45207,0.28463 -0.16743,0.18418 -0.16743,0.48555 0,0.25115 0.13395,0.43532 0.13394,0.1786 0.38509,0.27906 0.25115,0.0949 0.59159,0.0949 z m 5.19038,-7.46187 v 8.31577 h -1.1776 v -8.31577 z m 1.32829,8.31577 v -5.8936 h 1.17761 v 5.8936 z m 0.58601,-6.90935 q -0.31253,0 -0.5302,-0.2065 -0.21208,-0.21208 -0.21208,-0.51346 0,-0.30695 0.21208,-0.51345 0.21767,-0.21208 0.5302,-0.21208 0.31254,0 0.5302,0.21208 0.21767,0.2065 0.21767,0.51345 0,0.30138 -0.21767,0.51346 -0.21766,0.2065 -0.5302,0.2065 z m 4.49275,9.32036 q -0.72553,0 -1.27806,-0.21766 -0.54694,-0.21208 -0.8818,-0.62508 -0.33487,-0.40741 -0.413,-0.98226 h 1.1776 q 0.0781,0.28463 0.26789,0.47439 0.19534,0.19533 0.47997,0.29021 0.29022,0.10046 0.6474,0.10046 0.71438,0 1.11621,-0.38509 0.40184,-0.38509 0.40184,-1.09947 v -0.89297 h -0.006 q -0.20092,0.34045 -0.47997,0.56369 -0.27347,0.22324 -0.61392,0.33486 -0.33486,0.10604 -0.72553,0.10604 -0.76461,0 -1.34504,-0.38509 -0.57485,-0.39068 -0.89297,-1.07156 -0.31812,-0.68647 -0.31812,-1.58502 0,-0.89855 0.31812,-1.58502 0.3237,-0.69205 0.89855,-1.07715 0.57485,-0.38509 1.33387,-0.38509 0.3851,0 0.72554,0.10604 0.34603,0.10604 0.62508,0.33486 0.28463,0.22325 0.47997,0.57485 h 0.006 v -0.89855 h 1.16086 v 5.81546 q 0,0.89297 -0.36277,1.43991 -0.35719,0.54695 -0.9711,0.79809 -0.60834,0.25115 -1.35062,0.25115 z m -0.067,-3.34305 q 0.5023,0 0.87065,-0.25115 0.37393,-0.25114 0.57484,-0.70879 0.2065,-0.46323 0.2065,-1.07714 0,-0.6195 -0.2065,-1.07715 -0.20091,-0.45764 -0.57484,-0.70879 -0.36835,-0.25115 -0.87065,-0.25115 -0.47439,0 -0.83716,0.2344 -0.35718,0.22883 -0.56368,0.68647 -0.20092,0.45207 -0.20092,1.11622 0,0.65856 0.20092,1.11621 0.2065,0.45206 0.56368,0.68647 0.36277,0.2344 0.83716,0.2344 z m 5.25735,-2.46124 v 3.39328 h -1.1776 v -5.8936 h 1.15528 v 1.46224 h -0.27347 q 0.29021,-0.79251 0.80367,-1.18318 0.51904,-0.39626 1.25016,-0.39626 0.60833,0 1.0883,0.26789 0.48555,0.26231 0.76461,0.78135 0.27905,0.51904 0.27905,1.28922 v 3.67234 h -1.1776 v -3.52723 q 0,-0.70879 -0.34045,-1.06598 -0.33486,-0.36277 -0.94878,-0.36277 -0.40183,0 -0.72553,0.16185 -0.31812,0.16185 -0.50788,0.50788 -0.18976,0.34602 -0.18976,0.89297 z m 5.21829,3.39328 v -5.8936 h 1.14412 v 1.24458 h -0.11162 q 0.16743,-0.44649 0.44648,-0.74786 0.28463,-0.30696 0.65298,-0.45765 0.36835,-0.15627 0.77019,-0.15627 0.68647,0 1.17202,0.39626 0.49113,0.39067 0.60275,0.96552 h -0.18417 q 0.12278,-0.39068 0.39625,-0.69763 0.27906,-0.30696 0.68089,-0.48556 0.40184,-0.17859 0.89297,-0.17859 0.55253,0 0.99901,0.23999 0.44648,0.23998 0.70879,0.71437 0.26231,0.46881 0.26231,1.1776 v 3.87884 h -1.18318 v -3.77838 q 0,-0.63066 -0.35161,-0.91529 -0.3516,-0.28463 -0.83157,-0.28463 -0.39068,0 -0.67531,0.16743 -0.28463,0.16743 -0.4409,0.45764 -0.15627,0.29022 -0.15627,0.66973 v 3.6835 h -1.16086 v -3.85651 q 0,-0.50788 -0.32929,-0.81484 -0.3237,-0.30695 -0.82599,-0.30695 -0.34045,0 -0.64182,0.16185 -0.2958,0.16185 -0.47997,0.47997 -0.1786,0.31254 -0.1786,0.78134 v 3.55514 z m 12.27832,0.13394 q -0.87622,0 -1.50688,-0.39625 -0.62508,-0.39626 -0.96553,-1.08831 -0.33486,-0.69763 -0.33486,-1.58502 0,-0.90413 0.35161,-1.59618 0.3516,-0.69763 0.9711,-1.09389 0.6195,-0.40183 1.42317,-0.40183 0.62508,0 1.12737,0.22324 0.50788,0.22324 0.87065,0.63624 0.36277,0.40742 0.5581,0.9711 0.19534,0.56369 0.19534,1.25016 v 0.31812 h -4.96714 v -0.89297 h 4.34764 l -0.51904,0.27347 q 0,-0.54694 -0.19533,-0.94878 -0.19534,-0.40741 -0.55811,-0.62507 -0.35719,-0.22325 -0.84832,-0.22325 -0.48555,0 -0.84274,0.22325 -0.35719,0.21766 -0.5581,0.62507 -0.19534,0.40184 -0.19534,0.94878 v 0.50788 q 0,0.5581 0.19534,0.98785 0.19533,0.42416 0.56368,0.66414 0.37393,0.23999 0.90413,0.23999 0.3851,0 0.68089,-0.11721 0.2958,-0.12278 0.49114,-0.33486 0.19533,-0.21208 0.27905,-0.49113 h 1.13295 q -0.10604,0.56927 -0.47439,1.00459 -0.36277,0.42974 -0.91529,0.67531 -0.54694,0.24556 -1.21109,0.24556 z m 4.88343,-3.52722 v 3.39328 h -1.17761 v -5.8936 h 1.15528 v 1.46224 h -0.27347 q 0.29021,-0.79251 0.80367,-1.18318 0.51904,-0.39626 1.25016,-0.39626 0.60833,0 1.0883,0.26789 0.48555,0.26231 0.76461,0.78135 0.27905,0.51904 0.27905,1.28922 v 3.67234 h -1.1776 v -3.52723 q 0,-0.70879 -0.34045,-1.06598 -0.33486,-0.36277 -0.94878,-0.36277 -0.40183,0 -0.72553,0.16185 -0.31812,0.16185 -0.50788,0.50788 -0.18975,0.34602 -0.18975,0.89297 z m 8.05903,-2.50032 v 0.97111 h -3.4156 v -0.97111 z m -2.37752,-1.60734 h 1.1776 v 5.94382 q 0,0.3237 0.13394,0.45765 0.13953,0.12836 0.49114,0.12836 0.13394,0 0.29579,0 0.16185,0 0.27905,0 v 0.97111 q -0.1451,0 -0.3516,0 -0.20092,0 -0.39068,0 -0.83157,0 -1.23341,-0.34603 -0.40183,-0.35161 -0.40183,-1.0604 z"
       id="text21"
       style="font-weight:500;font-size:11.43px;line-height:1.2;font-family:Inter;-inkscape-font-specification:'Inter Medium';stroke-width:0.79375;stroke-linecap:square"
       aria-label="Bad alignment" />
  </g>
</svg>
