<?xml version="1.0" encoding="UTF-8" standalone="no"?>
<!-- Created with Inkscape (http://www.inkscape.org/) -->

<svg
   width="1280"
   height="720"
   viewBox="0 0 338.66666 190.5"
   version="1.1"
   id="svg1"
   inkscape:version="1.4.3 (0d15f75042, 2025-12-25)"
   sodipodi:docname="4_perspective_fails_on_circle.svg"
   xmlns:inkscape="http://www.inkscape.org/namespaces/inkscape"
   xmlns:sodipodi="http://sodipodi.sourceforge.net/DTD/sodipodi-0.dtd"
   xmlns="http://www.w3.org/2000/svg"
   xmlns:svg="http://www.w3.org/2000/svg">
  <sodipodi:namedview
     id="namedview1"
     pagecolor="#ffffff"
     bordercolor="#000000"
     borderopacity="0.25"
     inkscape:showpageshadow="2"
     inkscape:pageopacity="0.0"
     inkscape:pagecheckerboard="0"
     inkscape:deskcolor="#d1d1d1"
     inkscape:document-units="px"
     inkscape:zoom="0.72000791"
     inkscape:cx="695.13125"
     inkscape:cy="431.24526"
     inkscape:window-width="2560"
     inkscape:window-height="1371"
     inkscape:window-x="0"
     inkscape:window-y="0"
     inkscape:window-maximized="1"
     inkscape:current-layer="layer1" />
  <defs
     id="defs1">
    <marker
       style="overflow:visible"
       id="ArrowWide"
       refX="0"
       refY="0"
       orient="auto-start-reverse"
       inkscape:stockid="Wide arrow"
       markerWidth="1"
       markerHeight="1"
       viewBox="0 0 1 1"
       inkscape:isstock="true"
       inkscape:collect="always"
       preserveAspectRatio="xMidYMid">
      <path
         style="fill:none;stroke:context-stroke;stroke-width:1;stroke-linecap:butt"
         d="M 3,-3 0,0 3,3"
         transform="rotate(180,0.125,0)"
         sodipodi:nodetypes="ccc"
         id="path15" />
    </marker>
    <inkscape:path-effect
       effect="bspline"
       id="path-effect5"
       is_visible="true"
       lpeversion="1.3"
       weight="33.333333"
       steps="2"
       helper_size="0"
       apply_no_weight="true"
       apply_with_weight="true"
       only_selected="false"
       uniform="false" />
    <inkscape:path-effect
       effect="bspline"
       id="path-effect1"
       is_visible="true"
       lpeversion="1.3"
       weight="33.333333"
       steps="2"
       helper_size="0"
       apply_no_weight="true"
       apply_with_weight="true"
       only_selected="false"
       uniform="false" />
  </defs>
  <g
     inkscape:label="Layer 1"
     inkscape:groupmode="layer"
     id="layer1">
    <rect
       style="fill:#ffffff;stroke-width:2.64583;stroke-linecap:square"
       id="rect29"
       width="338.66666"
       height="190.5"
       x="0"
       y="0" />
    <rect
       style="fill:#ffffff;fill-opacity:1;stroke:none;stroke-width:0.264583;stroke-dasharray:none"
       id="rect7"
       width="0.80859512"
       height="5.8457122"
       x="64.001221"
       y="61.540401" />
    <rect
       style="fill:#ffffff;fill-opacity:1;stroke:none;stroke-width:0.264583;stroke-dasharray:none"
       id="rect8"
       width="0.80859512"
       height="5.8457122"
       x="76.423744"
       y="61.540401" />
    <rect
       style="fill:#ffffff;fill-opacity:1;stroke:none;stroke-width:0.264583;stroke-dasharray:none"
       id="rect9"
       width="0.80859512"
       height="5.8457122"
       x="72.282906"
       y="61.540401" />
    <rect
       style="fill:#ffffff;fill-opacity:1;stroke:none;stroke-width:0.264583;stroke-dasharray:none"
       id="rect10"
       width="0.80859512"
       height="5.8457122"
       x="68.142052"
       y="61.540401" />
    <path
       style="font-weight:500;font-size:8.01806px;line-height:1.2;font-family:Inter;-inkscape-font-specification:'Inter Medium';stroke-width:0.79375;stroke-linecap:square"
       d="m 198.47282,150.26519 v -0.76344 h 4.58455 v 0.76344 h -1.85183 v 5.07002 h -0.87306 v -5.07002 z m 6.06444,2.68965 v 2.38037 h -0.82608 v -5.83346 h 0.82608 v 2.72489 h -0.2075 q 0.20359,-0.55594 0.56377,-0.82999 0.3641,-0.27797 0.87698,-0.27797 0.42674,0 0.76344,0.18792 0.34061,0.18401 0.53636,0.54811 0.19575,0.3641 0.19575,0.90438 v 2.57612 h -0.82608 v -2.47433 q 0,-0.49721 -0.23882,-0.74778 -0.2349,-0.25448 -0.66556,-0.25448 -0.28188,0 -0.50896,0.11354 -0.22315,0.11354 -0.35627,0.35627 -0.13311,0.24274 -0.13311,0.62641 z m 5.42629,2.47433 q -0.61467,0 -1.05707,-0.27797 -0.43849,-0.27797 -0.67731,-0.76344 -0.2349,-0.48938 -0.2349,-1.11188 0,-0.63424 0.24665,-1.11971 0.24664,-0.48938 0.68122,-0.76735 0.43457,-0.28189 0.99834,-0.28189 0.43849,0 0.79084,0.1566 0.35627,0.15661 0.61075,0.44632 0.25448,0.2858 0.39151,0.68122 0.13703,0.39543 0.13703,0.87698 v 0.22316 h -3.48441 v -0.62641 h 3.04984 l -0.36411,0.19184 q 0,-0.38368 -0.13702,-0.66557 -0.13703,-0.2858 -0.39151,-0.43848 -0.25056,-0.15661 -0.59509,-0.15661 -0.34061,0 -0.59118,0.15661 -0.25056,0.15268 -0.3915,0.43848 -0.13703,0.28189 -0.13703,0.66557 v 0.35627 q 0,0.3915 0.13703,0.69296 0.13703,0.29755 0.39542,0.4659 0.26231,0.16834 0.63424,0.16834 0.27014,0 0.47764,-0.0822 0.2075,-0.0861 0.34452,-0.23491 0.13703,-0.14877 0.19576,-0.34452 h 0.79476 q -0.0744,0.39934 -0.33278,0.70471 -0.25448,0.30146 -0.64207,0.47372 -0.38368,0.17227 -0.84957,0.17227 z m 6.27585,0 q -0.61467,0 -1.05707,-0.27797 -0.43849,-0.27797 -0.67731,-0.76344 -0.2349,-0.48938 -0.2349,-1.11188 0,-0.63424 0.24665,-1.11971 0.24665,-0.48938 0.68122,-0.76735 0.43457,-0.28189 0.99834,-0.28189 0.43849,0 0.79085,0.1566 0.35627,0.15661 0.61075,0.44632 0.25448,0.2858 0.3915,0.68122 0.13703,0.39543 0.13703,0.87698 v 0.22316 h -3.48441 v -0.62641 h 3.04984 l -0.3641,0.19184 q 0,-0.38368 -0.13703,-0.66557 -0.13703,-0.2858 -0.39151,-0.43848 -0.25056,-0.15661 -0.59509,-0.15661 -0.34061,0 -0.59117,0.15661 -0.25057,0.15268 -0.39151,0.43848 -0.13703,0.28189 -0.13703,0.66557 v 0.35627 q 0,0.3915 0.13703,0.69296 0.13703,0.29755 0.39542,0.4659 0.26231,0.16834 0.63424,0.16834 0.27014,0 0.47764,-0.0822 0.2075,-0.0861 0.34453,-0.23491 0.13703,-0.14877 0.19575,-0.34452 h 0.79476 q -0.0744,0.39934 -0.33278,0.70471 -0.25448,0.30146 -0.64207,0.47372 -0.38368,0.17227 -0.84957,0.17227 z m 1.99982,-0.094 1.71088,-2.36862 -0.0117,0.51287 -1.60518,-2.27857 h 0.94353 l 0.4933,0.73604 q 0.16443,0.25056 0.31712,0.49329 0.1566,0.24274 0.31321,0.48939 h -0.34453 q 0.16443,-0.24665 0.31712,-0.48939 0.1566,-0.24273 0.32495,-0.49329 l 0.50113,-0.73604 h 0.92787 l -1.62084,2.27857 0.008,-0.51679 1.68348,2.37254 h -0.94353 l -0.57551,-0.83783 q -0.16052,-0.24273 -0.31321,-0.47372 -0.14877,-0.23491 -0.30537,-0.47373 h 0.32886 q -0.1566,0.23882 -0.3132,0.47373 -0.15269,0.23099 -0.31321,0.47372 l -0.58726,0.83783 z m 6.62821,-4.13432 v 0.68122 h -2.39602 v -0.68122 z m -1.66782,-1.12754 h 0.82608 v 4.16955 q 0,0.22707 0.094,0.32104 0.0979,0.09 0.34453,0.09 0.094,0 0.2075,0 0.11353,0 0.19575,0 v 0.68123 q -0.10179,0 -0.24665,0 -0.14094,0 -0.27405,0 -0.58335,0 -0.86523,-0.24274 -0.28189,-0.24665 -0.28189,-0.74386 z m 4.01608,5.35582 q -0.61466,0 -1.05707,-0.27797 -0.43848,-0.27797 -0.6773,-0.76344 -0.23491,-0.48938 -0.23491,-1.11188 0,-0.63424 0.24665,-1.11971 0.24665,-0.48938 0.68122,-0.76735 0.43458,-0.28189 0.99835,-0.28189 0.43848,0 0.79084,0.1566 0.35627,0.15661 0.61075,0.44632 0.25448,0.2858 0.39151,0.68122 0.13702,0.39543 0.13702,0.87698 v 0.22316 h -3.48441 v -0.62641 h 3.04984 l -0.3641,0.19184 q 0,-0.38368 -0.13703,-0.66557 -0.13702,-0.2858 -0.3915,-0.43848 -0.25057,-0.15661 -0.59509,-0.15661 -0.34062,0 -0.59118,0.15661 -0.25056,0.15268 -0.39151,0.43848 -0.13702,0.28189 -0.13702,0.66557 v 0.35627 q 0,0.3915 0.13702,0.69296 0.13703,0.29755 0.39543,0.4659 0.2623,0.16834 0.63424,0.16834 0.27014,0 0.47763,-0.0822 0.2075,-0.0861 0.34453,-0.23491 0.13703,-0.14877 0.19575,-0.34452 h 0.79476 q -0.0744,0.39934 -0.33278,0.70471 -0.25448,0.30146 -0.64207,0.47372 -0.38368,0.17227 -0.84957,0.17227 z m 3.42569,-2.47433 v 2.38037 h -0.82608 v -4.13432 h 0.81042 v 1.02575 h -0.19184 q 0.20358,-0.55594 0.56377,-0.82999 0.3641,-0.27797 0.87697,-0.27797 0.42674,0 0.76344,0.18792 0.34061,0.18401 0.53637,0.54811 0.19575,0.3641 0.19575,0.90438 v 2.57612 h -0.82608 v -2.47433 q 0,-0.49721 -0.23882,-0.74778 -0.2349,-0.25448 -0.66556,-0.25448 -0.28189,0 -0.50896,0.11354 -0.22316,0.11354 -0.35627,0.35627 -0.13311,0.24274 -0.13311,0.62641 z m 5.19138,2.47824 q -0.47373,0 -0.85349,-0.15269 -0.37976,-0.15268 -0.61075,-0.45414 -0.23099,-0.30146 -0.26231,-0.74778 h 0.81433 q 0.0352,0.33278 0.26231,0.51679 0.23099,0.18009 0.63425,0.18009 0.39542,0 0.62249,-0.16052 0.22708,-0.16052 0.22708,-0.40716 0,-0.21142 -0.16444,-0.3367 -0.16052,-0.1292 -0.43066,-0.18792 l -0.68513,-0.15269 q -0.58335,-0.1292 -0.88481,-0.42674 -0.30146,-0.29755 -0.30146,-0.75561 0,-0.36802 0.19576,-0.64599 0.19966,-0.27797 0.55594,-0.43457 0.35627,-0.1566 0.82999,-0.1566 0.46589,0 0.82608,0.16443 0.3641,0.16443 0.5716,0.46589 0.21141,0.30146 0.22316,0.72037 h -0.79085 q -0.004,-0.30146 -0.22707,-0.49721 -0.22316,-0.19967 -0.59117,-0.19967 -0.35236,0 -0.55986,0.16444 -0.2075,0.16443 -0.2075,0.40325 0,0.21141 0.1566,0.34061 0.16052,0.1292 0.43849,0.19184 l 0.70471,0.1566 q 0.60684,0.13311 0.88872,0.41108 0.2858,0.27797 0.2858,0.7282 0,0.39543 -0.21924,0.68123 -0.21533,0.28188 -0.59117,0.43848 -0.37585,0.15269 -0.8574,0.15269 z m 2.39602,-0.0979 v -4.13432 h 0.82608 v 4.13432 z m 0.41108,-4.84686 q -0.21924,0 -0.37193,-0.14486 -0.14877,-0.14877 -0.14877,-0.36018 0,-0.21533 0.14877,-0.36019 0.15269,-0.14877 0.37193,-0.14877 0.21925,0 0.37193,0.14877 0.15269,0.14486 0.15269,0.36019 0,0.21141 -0.15269,0.36018 -0.15268,0.14486 -0.37193,0.14486 z m 3.12423,4.94082 q -0.59118,0 -1.0375,-0.27406 -0.44631,-0.27405 -0.69688,-0.75952 -0.24665,-0.48547 -0.24665,-1.11971 0,-0.64207 0.24665,-1.12754 0.25057,-0.48938 0.69688,-0.76344 0.44632,-0.27797 1.0375,-0.27797 0.59117,0 1.03357,0.27797 0.44632,0.27406 0.69297,0.76344 0.25057,0.48547 0.25057,1.12754 0,0.63424 -0.25057,1.11971 -0.24665,0.48547 -0.69297,0.75952 -0.4424,0.27406 -1.03357,0.27406 z m 0,-0.71255 q 0.35235,0 0.60683,-0.17617 0.2584,-0.1801 0.39542,-0.50505 0.14095,-0.32495 0.14095,-0.75952 0,-0.44632 -0.14095,-0.77127 -0.13702,-0.32495 -0.39542,-0.50504 -0.25448,-0.1801 -0.60683,-0.1801 -0.35236,0 -0.61075,0.1801 -0.25448,0.17618 -0.39543,0.50504 -0.13702,0.32495 -0.13702,0.77127 0,0.43849 0.13702,0.76344 0.14095,0.32103 0.39543,0.50113 0.25447,0.17617 0.61075,0.17617 z m 3.5353,-1.76178 v 2.38037 h -0.82608 v -4.13432 h 0.81042 v 1.02575 h -0.19184 q 0.20359,-0.55594 0.56377,-0.82999 0.3641,-0.27797 0.87698,-0.27797 0.42674,0 0.76344,0.18792 0.34061,0.18401 0.53636,0.54811 0.19575,0.3641 0.19575,0.90438 v 2.57612 h -0.82607 v -2.47433 q 0,-0.49721 -0.23882,-0.74778 -0.23491,-0.25448 -0.66557,-0.25448 -0.28188,0 -0.50895,0.11354 -0.22316,0.11354 -0.35628,0.35627 -0.13311,0.24274 -0.13311,0.62641 z m 7.57566,-1.75395 v 0.68122 h -2.40777 v -0.68122 z m -1.66782,4.13432 v -4.80379 q 0,-0.32887 0.13703,-0.55594 0.14094,-0.23099 0.40325,-0.35236 0.26231,-0.12137 0.63424,-0.12137 0.16052,0 0.30146,0 0.14486,0 0.19184,0 v 0.68123 q -0.0391,0 -0.16443,0 -0.12529,0 -0.20359,0 -0.25448,0 -0.3641,0.11353 -0.10962,0.10962 -0.10962,0.36802 v 4.67068 z m 3.41582,0.0666 q -0.41108,0 -0.73603,-0.14094 -0.32104,-0.14094 -0.50896,-0.41891 -0.18793,-0.27797 -0.18793,-0.68906 0,-0.35235 0.13312,-0.57943 0.13702,-0.22707 0.36801,-0.36018 0.23099,-0.13311 0.52462,-0.19967 0.29363,-0.0705 0.60684,-0.10571 0.3915,-0.0509 0.61466,-0.0783 0.22708,-0.0313 0.32104,-0.094 0.0979,-0.0666 0.0979,-0.21533 v -0.0352 q 0,-0.19967 -0.0979,-0.35236 -0.0979,-0.1566 -0.2858,-0.24665 -0.18792,-0.0901 -0.45023,-0.0901 -0.26231,0 -0.4659,0.0861 -0.19967,0.0861 -0.32103,0.23882 -0.11746,0.14878 -0.13312,0.34061 h -0.81041 q 0.0196,-0.39542 0.23881,-0.69688 0.21925,-0.30146 0.60293,-0.47372 0.38367,-0.17226 0.90046,-0.17226 0.37976,0 0.68514,0.0979 0.30537,0.0979 0.51679,0.28189 0.21533,0.18009 0.32495,0.43457 0.11353,0.25448 0.11353,0.56769 v 2.83451 h -0.81433 v -0.58727 h -0.0157 q -0.0861,0.16835 -0.2349,0.31713 -0.14878,0.14877 -0.39151,0.24273 -0.23882,0.094 -0.59509,0.094 z m 0.16835,-0.66556 q 0.3641,0 0.599,-0.1292 0.23882,-0.13311 0.35236,-0.34844 0.11745,-0.21533 0.11745,-0.46981 v -0.48547 q -0.0431,0.0352 -0.14094,0.0666 -0.094,0.0274 -0.23099,0.0548 -0.13703,0.0235 -0.29755,0.0509 -0.16051,0.0274 -0.32103,0.047 -0.22708,0.0313 -0.42283,0.10571 -0.19575,0.0705 -0.31712,0.19966 -0.11745,0.1292 -0.11745,0.34061 0,0.17618 0.094,0.30538 0.094,0.12528 0.27014,0.19575 0.17618,0.0666 0.415,0.0666 z m 2.81493,0.59901 v -4.13432 h 0.82608 v 4.13432 z m 0.41108,-4.84686 q -0.21924,0 -0.37193,-0.14486 -0.14877,-0.14877 -0.14877,-0.36018 0,-0.21533 0.14877,-0.36019 0.15269,-0.14877 0.37193,-0.14877 0.21925,0 0.37193,0.14877 0.15269,0.14486 0.15269,0.36019 0,0.21141 -0.15269,0.36018 -0.15268,0.14486 -0.37193,0.14486 z m 2.17287,-0.9866 v 5.83346 h -0.82608 v -5.83346 z m 2.69748,5.92742 q -0.61467,0 -1.05707,-0.27797 -0.43849,-0.27797 -0.67731,-0.76344 -0.2349,-0.48938 -0.2349,-1.11188 0,-0.63424 0.24665,-1.11971 0.24665,-0.48938 0.68122,-0.76735 0.43457,-0.28189 0.99834,-0.28189 0.43849,0 0.79085,0.1566 0.35627,0.15661 0.61075,0.44632 0.25448,0.2858 0.3915,0.68122 0.13703,0.39543 0.13703,0.87698 v 0.22316 h -3.48441 v -0.62641 h 3.04984 l -0.3641,0.19184 q 0,-0.38368 -0.13703,-0.66557 -0.13703,-0.2858 -0.39151,-0.43848 -0.25056,-0.15661 -0.59509,-0.15661 -0.34061,0 -0.59117,0.15661 -0.25057,0.15268 -0.39151,0.43848 -0.13703,0.28189 -0.13703,0.66557 v 0.35627 q 0,0.3915 0.13703,0.69296 0.13703,0.29755 0.39542,0.4659 0.26231,0.16834 0.63424,0.16834 0.27014,0 0.47764,-0.0822 0.2075,-0.0861 0.34453,-0.23491 0.13703,-0.14877 0.19575,-0.34452 h 0.79476 q -0.0744,0.39934 -0.33278,0.70471 -0.25448,0.30146 -0.64207,0.47372 -0.38368,0.17227 -0.84957,0.17227 z m 4.18912,-0.0118 q -0.53636,0 -0.94353,-0.27014 -0.40325,-0.27405 -0.62641,-0.75561 -0.22316,-0.48546 -0.22316,-1.12362 0,-0.63816 0.22316,-1.11971 0.22707,-0.48547 0.63032,-0.75561 0.40326,-0.27405 0.9357,-0.27405 0.27014,0 0.50896,0.0783 0.23882,0.0744 0.43066,0.22316 0.19575,0.14877 0.32887,0.37976 h 0.008 v -2.29815 h 0.82608 v 5.83346 h -0.81042 v -0.63033 h -0.008 q -0.14095,0.23882 -0.3367,0.39934 -0.19575,0.1566 -0.43457,0.2349 -0.23882,0.0783 -0.50896,0.0783 z m 0.16835,-0.71254 q 0.35235,0 0.61075,-0.17618 0.26231,-0.18009 0.40325,-0.50504 0.14486,-0.32495 0.14486,-0.75561 0,-0.43849 -0.14486,-0.75952 -0.14094,-0.32495 -0.40325,-0.50113 -0.2584,-0.1801 -0.61075,-0.1801 -0.33278,0 -0.58726,0.16444 -0.25057,0.16443 -0.39542,0.48547 -0.14095,0.32103 -0.14095,0.79084 0,0.46589 0.14095,0.78693 0.14485,0.31712 0.39542,0.48547 0.25448,0.16443 0.58726,0.16443 z"
       id="text5"
       aria-label="The extension failed" />
    <path
       style="fill:#999999;stroke:#000000;stroke-width:0.79375;stroke-linecap:square;stroke-dasharray:none;stroke-opacity:1;marker-end:url(#ArrowWide)"
       d="m 206.33837,144.2697 -10.3937,-12.02634"
       id="path14"
       sodipodi:nodetypes="cc" />
    <path
       id="path1"
       style="stroke-width:0.79375;stroke-linecap:square"
       d="M 209.75534,95.25 A 40.422009,40.422009 0 0 1 169.33333,135.67201 40.422009,40.422009 0 0 1 128.91132,95.25 40.422009,40.422009 0 0 1 169.33333,54.827991 40.422009,40.422009 0 0 1 209.75534,95.25 Z" />
    <path
       d="M 209.755 95.25 L 197.916 123.833 L 194.045 125.436 C 193.318 125.737 192.715 125.854 192.225 125.785 C 191.714 125.721 191.329 125.469 191.072 125.011 C 190.792 124.531 190.671 123.817 190.726 122.826 C 190.786 121.763 191.048 120.666 191.537 119.553 C 192.066 118.347 192.799 117.223 193.734 116.222 C 194.706 115.187 195.808 114.402 197.004 113.907 L 201.127 112.199 L 199.556 116.517 L 195.992 117.993 C 195.503 118.196 195.05 118.507 194.642 118.919 C 194.241 119.323 193.91 119.784 193.65 120.295 C 193.397 120.796 193.23 121.307 193.147 121.823 C 193.064 122.331 193.079 122.712 193.186 122.978 C 193.288 123.242 193.467 123.4 193.721 123.458 C 193.971 123.514 194.291 123.46 194.686 123.297 L 196.629 122.492 L 204.926 97.2503 Z M 196.506 100.738 L 197.055 116.266 L 193.965 117.547 L 191.332 102.881 Z M 190.47 103.238 L 186.531 128.549 L 183.959 129.614 L 167.86 112.604 L 173.207 110.389 L 182.04 123.207 C 182.674 124.163 183.264 125.048 183.814 125.869 C 184.309 126.622 184.808 127.399 185.301 128.185 L 184.72 128.426 C 184.714 127.438 184.714 126.454 184.722 125.493 C 184.728 124.442 184.74 123.307 184.761 122.08 L 185.264 105.395 Z M 186.273 114.506 L 186.769 118.979 L 178.847 122.26 L 176.939 118.373 Z M 165.963 113.389 L 179.777 131.346 L 176.861 132.554 L 169.904 129.153 C 169.475 128.934 168.927 128.652 168.247 128.299 C 167.538 127.933 166.754 127.524 165.886 127.068 C 164.971 126.59 164.045 126.098 163.11 125.593 C 162.107 125.059 161.225 124.587 160.49 124.191 L 161.443 123.797 C 161.963 124.281 162.586 124.861 163.293 125.518 C 163.949 126.138 164.589 126.748 165.211 127.348 C 165.805 127.918 166.338 128.43 166.818 128.891 C 167.275 129.336 167.643 129.693 167.93 129.971 L 172.249 134.464 L 169.333 135.672 L 140.751 123.833 L 145.486 121.871 L 163.193 130.783 C 163.683 131.029 164.236 131.313 164.843 131.629 C 165.422 131.93 166.009 132.235 166.601 132.543 C 167.172 132.838 167.717 133.121 168.24 133.391 C 168.743 133.652 169.199 133.886 169.612 134.097 L 169.35 134.205 C 168.996 133.933 168.617 133.639 168.212 133.322 C 167.781 132.991 167.341 132.653 166.894 132.307 C 166.423 131.943 165.971 131.587 165.54 131.243 C 165.092 130.89 164.695 130.574 164.356 130.301 L 151.381 119.429 L 155.301 117.806 L 171.455 127.361 C 171.857 127.608 172.323 127.895 172.845 128.218 C 173.349 128.531 173.871 128.858 174.406 129.195 C 174.909 129.518 175.406 129.832 175.897 130.139 C 176.358 130.433 176.788 130.705 177.188 130.959 L 176.877 131.087 C 176.607 130.818 176.305 130.52 175.968 130.19 C 175.618 129.848 175.253 129.491 174.871 129.117 C 174.474 128.729 174.082 128.343 173.698 127.961 C 173.288 127.563 172.923 127.201 172.608 126.883 L 161.228 115.351 Z"
       id="text19"
       style="font-weight:bold;font-size:25.3875px;line-height:1.2;font-family:Inter;-inkscape-font-specification:&quot;Inter Bold&quot;;fill:#999999;stroke-width:2.64583;stroke-linecap:square"
       aria-label="RAM" />
  </g>
</svg>
