<?xml version="1.0" encoding="UTF-8" standalone="no" ?>
<!-- Created with Inkscape (http://www.inkscape.org/) -->
<svg
  width="1280"
  height="720"
  viewBox="0 0 338.66666 190.5"
  version="1.1"
  id="svg1"
  inkscape:version="1.4.3 (0d15f75042, 2025-12-25)"
  sodipodi:docname="6_draw_shape_matching_curved_surface.svg"
  xml:space="preserve"
  xmlns:inkscape="http://www.inkscape.org/namespaces/inkscape"
  xmlns:sodipodi="http://sodipodi.sourceforge.net/DTD/sodipodi-0.dtd"
  xmlns="http://www.w3.org/2000/svg"
  xmlns:svg="http://www.w3.org/2000/svg"
><sodipodi:namedview
    id="namedview1"
    pagecolor="#ffffff"
    bordercolor="#000000"
    borderopacity="0.25"
    inkscape:showpageshadow="2"
    inkscape:pageopacity="0.0"
    inkscape:pagecheckerboard="0"
    inkscape:deskcolor="#d1d1d1"
    inkscape:document-units="px"
    inkscape:zoom="0.9221223"
    inkscape:cx="696.76224"
    inkscape:cy="271.65594"
    inkscape:window-width="2560"
    inkscape:window-height="1371"
    inkscape:window-x="0"
    inkscape:window-y="0"
    inkscape:window-maximized="1"
    inkscape:current-layer="layer1"
    showguides="true"
    showgrid="false"
  /><defs id="defs1"><marker
      style="overflow:visible"
      id="ArrowWide"
      refX="0"
      refY="0"
      orient="auto-start-reverse"
      inkscape:stockid="Wide arrow"
      markerWidth="1"
      markerHeight="1"
      viewBox="0 0 1 1"
      inkscape:isstock="true"
      inkscape:collect="always"
      preserveAspectRatio="xMidYMid"
    ><path
        style="fill:none;stroke:context-stroke;stroke-width:1;stroke-linecap:butt"
        d="M 3,-3 0,0 3,3"
        transform="rotate(180,0.125,0)"
        sodipodi:nodetypes="ccc"
        id="path3"
      /></marker><inkscape:path-effect
      effect="envelope"
      id="path-effect35"
      is_visible="true"
      lpeversion="1"
      yy="true"
      xx="true"
      bendpath1="m 250.07154,84.208135 22.97695,-1.3e-5"
      bendpath2="M 273.04849,84.208122 263.85357,100.1342"
      bendpath3="m 240.87662,100.1342 h 22.97695"
      bendpath4="M 250.07154,84.208135 240.87662,100.1342"
      bendpath1-nodetypes="cc"
      bendpath2-nodetypes="cc"
      bendpath3-nodetypes="cc"
      bendpath4-nodetypes="cc"
    /><inkscape:path-effect
      effect="perspective-envelope"
      up_left_point="251.44253,86.643806"
      up_right_point="262.48268,86.643806"
      down_left_point="251.44253,97.698428"
      down_right_point="262.48268,97.698428"
      id="path-effect34"
      is_visible="true"
      lpeversion="1"
      deform_type="perspective"
      horizontal_mirror="false"
      vertical_mirror="false"
      overflow_perspective="false"
    /><inkscape:path-effect
      effect="perspective-envelope"
      up_left_point="2,2"
      up_right_point="30,2"
      down_left_point="2,30"
      down_right_point="30,30"
      id="path-effect33"
      is_visible="true"
      lpeversion="1"
      deform_type="perspective"
      horizontal_mirror="false"
      vertical_mirror="false"
      overflow_perspective="false"
    /><linearGradient
      id="paint0_linear_87_7435"
      x1="16.0578"
      y1="6.30617"
      x2="15.8364"
      y2="9.3059797"
      gradientUnits="userSpaceOnUse"
      gradientTransform="matrix(0.26458333,0,0,0.26458333,168.93645,-25.973263)"
    ><stop stop-color="white" stop-opacity="0.8" id="stop23" /><stop
        offset="1"
        stop-color="white"
        stop-opacity="0"
        id="stop24"
      /></linearGradient><linearGradient
      id="paint1_linear_87_7435"
      x1="12.8966"
      y1="22.6721"
      x2="11.2506"
      y2="17.271601"
      gradientUnits="userSpaceOnUse"
    ><stop stop-color="#FFEED7" id="stop25" /><stop
        offset="1"
        stop-color="#BDBFC2"
        id="stop26"
      /></linearGradient><linearGradient
      id="paint3_linear_87_7435"
      x1="16.6681"
      y1="9.6554604"
      x2="16.5748"
      y2="10.3542"
      gradientUnits="userSpaceOnUse"
      gradientTransform="matrix(0.26458333,0,0,0.26458333,168.93645,-25.973263)"
    ><stop stop-color="white" stop-opacity="0.65" id="stop29" /><stop
        offset="1"
        stop-color="white"
        stop-opacity="0"
        id="stop30"
      /></linearGradient><linearGradient
      id="paint4_linear_87_7435"
      x1="14.434"
      y1="9.7829399"
      x2="14.5344"
      y2="10.3483"
      gradientUnits="userSpaceOnUse"
      gradientTransform="matrix(0.26458333,0,0,0.26458333,168.93645,-25.973263)"
    ><stop stop-color="white" stop-opacity="0.65" id="stop31" /><stop
        offset="1"
        stop-color="white"
        stop-opacity="0"
        id="stop32"
      /></linearGradient><linearGradient
      id="paint5_linear_87_7435"
      x1="15.7613"
      y1="15.6306"
      x2="15.778"
      y2="19.627199"
      gradientUnits="userSpaceOnUse"
      gradientTransform="matrix(0.26458333,0,0,0.26458333,168.93645,-25.973263)"
    ><stop stop-color="white" stop-opacity="0.8" id="stop33" /><stop
        offset="1"
        stop-color="white"
        stop-opacity="0"
        id="stop34"
      /></linearGradient><linearGradient
      id="paint6_linear_87_7435"
      x1="15.8504"
      y1="13.1247"
      x2="15.8688"
      y2="14.7138"
      gradientUnits="userSpaceOnUse"
      gradientTransform="matrix(0.26458333,0,0,0.26458333,168.93645,-25.973263)"
    ><stop stop-color="white" stop-opacity="0.65" id="stop35" /><stop
        offset="1"
        stop-color="white"
        stop-opacity="0"
        id="stop36"
      /></linearGradient><linearGradient
      id="paint7_linear_87_7435"
      x1="11.72"
      y1="14.1055"
      x2="11.72"
      y2="19.937201"
      gradientUnits="userSpaceOnUse"
      gradientTransform="matrix(0.26458333,0,0,0.26458333,168.93645,-25.973263)"
    ><stop stop-color="white" stop-opacity="0.65" id="stop37" /><stop
        offset="1"
        stop-color="white"
        stop-opacity="0"
        id="stop38"
      /></linearGradient><linearGradient
      id="paint8_linear_87_7435"
      x1="21.033001"
      y1="13.5359"
      x2="21.0308"
      y2="18.805201"
      gradientUnits="userSpaceOnUse"
      gradientTransform="matrix(0.26458333,0,0,0.26458333,168.93645,-25.973263)"
    ><stop stop-color="white" stop-opacity="0.65" id="stop39" /><stop
        offset="1"
        stop-color="white"
        stop-opacity="0"
        id="stop40"
      /></linearGradient><linearGradient
      id="paint9_linear_87_7435"
      x1="11.4286"
      y1="22.437401"
      x2="10.5354"
      y2="25.4214"
      gradientUnits="userSpaceOnUse"
      gradientTransform="matrix(0.26458333,0,0,0.26458333,168.93645,-25.973263)"
    ><stop stop-color="#FFA63F" id="stop41" /><stop
        offset="1"
        stop-color="#FFFF00"
        id="stop42"
      /></linearGradient><linearGradient
      id="paint10_linear_87_7435"
      x1="19.882"
      y1="21.530001"
      x2="22.2656"
      y2="24.7801"
      gradientUnits="userSpaceOnUse"
      gradientTransform="matrix(0.26458333,0,0,0.26458333,168.93645,-25.973263)"
    ><stop stop-color="#FFA63F" id="stop43" /><stop
        offset="1"
        stop-color="#FFFF00"
        id="stop44"
      /></linearGradient><linearGradient
      id="paint11_linear_87_7435"
      x1="20.5198"
      y1="18.9333"
      x2="19.6863"
      y2="22.8605"
      gradientUnits="userSpaceOnUse"
      gradientTransform="matrix(0.26458333,0,0,0.26458333,168.93645,-25.973263)"
    ><stop stop-color="white" stop-opacity="0.65" id="stop45" /><stop
        offset="1"
        stop-color="white"
        stop-opacity="0"
        id="stop46"
      /></linearGradient><linearGradient
      id="paint12_linear_87_7435"
      x1="11.2464"
      y1="19.9042"
      x2="11.4117"
      y2="24.3239"
      gradientUnits="userSpaceOnUse"
      gradientTransform="matrix(0.26458333,0,0,0.26458333,168.93645,-25.973263)"
    ><stop stop-color="white" stop-opacity="0.65" id="stop47" /><stop
        offset="1"
        stop-color="white"
        stop-opacity="0"
        id="stop48"
      /></linearGradient><linearGradient
      id="paint13_linear_87_7435"
      x1="20.3755"
      y1="18.861601"
      x2="20.5688"
      y2="20.182199"
      gradientUnits="userSpaceOnUse"
      gradientTransform="matrix(0.26458333,0,0,0.26458333,168.93645,-25.973263)"
    ><stop stop-color="white" stop-opacity="0.65" id="stop49" /><stop
        offset="1"
        stop-color="white"
        stop-opacity="0"
        id="stop50"
      /></linearGradient><linearGradient
      id="paint14_linear_87_7435"
      x1="15.7644"
      y1="10.784"
      x2="15.7805"
      y2="13.1098"
      gradientUnits="userSpaceOnUse"
      gradientTransform="matrix(0.26458333,0,0,0.26458333,168.93645,-25.973263)"
    ><stop stop-color="#FFA63F" id="stop51" /><stop
        offset="1"
        stop-color="#FFFF00"
        id="stop52"
      /></linearGradient><linearGradient
      id="paint15_linear_87_7435"
      x1="15.5106"
      y1="10.5638"
      x2="15.5062"
      y2="11.7936"
      gradientUnits="userSpaceOnUse"
      gradientTransform="matrix(0.26458333,0,0,0.26458333,168.93645,-25.973263)"
    ><stop stop-color="white" stop-opacity="0.65" id="stop53" /><stop
        offset="1"
        stop-color="white"
        stop-opacity="0"
        id="stop54"
      /></linearGradient></defs><g inkscape:label="Layer 1" inkscape:groupmode="layer" id="layer1"><rect
      style="fill:#ffffff;fill-opacity:1;stroke-width:0.163031;stroke-linejoin:round"
      id="rect1-3"
      width="338.66666"
      height="190.5"
      x="1.3609376e-05"
      y="7.8409442e-07"
    /><g id="g1" transform="translate(9.2337833,-18.013258)"><rect
        style="fill:#000000;fill-opacity:1;stroke:#ffffff;stroke-width:0.264583;stroke-linecap:butt;stroke-linejoin:round;stroke-dasharray:none;paint-order:normal"
        id="rect5"
        width="78.383522"
        height="19.254986"
        x="156.50104"
        y="120.62049"
      /><ellipse
        style="fill:#ffffff;fill-opacity:1;stroke:none;stroke-width:0.264583;stroke-dasharray:none"
        id="ellipse5"
        cx="226.01952"
        cy="130.24799"
        rx="3.8959584"
        ry="3.9218073"
      /><rect
        style="fill:#ffffff;fill-opacity:1;stroke:none;stroke-width:0.264583;stroke-dasharray:none"
        id="rect11"
        width="0.80859512"
        height="5.8457122"
        x="161.47014"
        y="127.32513"
      /><rect
        style="fill:#ffffff;fill-opacity:1;stroke:none;stroke-width:0.264583;stroke-dasharray:none"
        id="rect12"
        width="0.80859512"
        height="5.8457122"
        x="173.89267"
        y="127.32513"
      /><rect
        style="fill:#ffffff;fill-opacity:1;stroke:none;stroke-width:0.264583;stroke-dasharray:none"
        id="rect13"
        width="0.80859512"
        height="5.8457122"
        x="169.75183"
        y="127.32513"
      /><rect
        style="fill:#ffffff;fill-opacity:1;stroke:none;stroke-width:0.264583;stroke-dasharray:none"
        id="rect14"
        width="0.80859512"
        height="5.8457122"
        x="165.61098"
        y="127.32513"
      /><path
        style="fill:#000000;fill-opacity:1;stroke:#ffffff;stroke-width:0.264583;stroke-linecap:butt;stroke-linejoin:round;stroke-dasharray:none"
        d="m 254.36755,86.651041 -78.39561,5e-5 -19.4709,33.969439 78.38354,-4e-5 z"
        id="path14"
        sodipodi:nodetypes="ccccc"
      /><path
        style="fill:#000000;fill-opacity:1;stroke:#ffffff;stroke-width:0.264583;stroke-linecap:butt;stroke-linejoin:round;stroke-dasharray:none"
        d="m 254.35544,86.651091 7e-5,19.254959 -19.47092,33.96944 v -19.255 z"
        id="path15"
      /></g><path
      id="path31"
      style="stroke-width:0.264584;stroke-dasharray:none;fill:#e95420;fill-opacity:1"
      d="M 86.843794 75.694087 C 76.050254 75.694087 67.308036 84.445316 67.308036 95.249999 C 67.308036 106.04491 76.050254 114.80591 86.843794 114.80591 C 97.637333 114.80591 106.37955 106.04491 106.37955 95.249999 C 106.37955 84.445316 97.637333 75.694087 86.843794 75.694087 z M 93.518839 81.282376 C 93.928688 81.293159 94.341609 81.405129 94.722383 81.628608 C 95.940999 82.343728 96.360064 83.91907 95.655659 85.156042 C 94.951253 86.393028 93.399413 86.818406 92.180936 86.103271 C 90.971809 85.388151 90.552742 83.812809 91.247659 82.575837 C 91.731939 81.72541 92.61717 81.258655 93.518839 81.282376 z M 86.982804 84.044482 C 88.001457 84.044482 88.991581 84.189725 89.934045 84.450658 C 90.105402 85.494361 90.704987 86.441071 91.676057 87.011226 C 92.637498 87.571784 93.751313 87.630124 94.722383 87.26289 C 96.60731 89.137611 97.826092 91.68894 98.006937 94.530146 L 94.379768 94.588024 C 94.046542 90.732142 90.866943 87.717126 86.982804 87.717126 C 85.868983 87.717126 84.802976 87.968071 83.860513 88.41269 L 82.089562 85.204101 C 83.565074 84.459968 85.22165 84.044482 86.982804 84.044482 z M 80.86173 85.929121 L 82.717948 89.089135 C 80.804554 90.451628 79.557417 92.703292 79.557417 95.25465 C 79.557417 97.805868 80.804554 100.05805 82.717948 101.42068 L 80.86173 104.5807 C 78.634089 103.07307 76.977411 100.76309 76.291983 98.066881 C 77.091654 97.400022 77.606115 96.385266 77.606115 95.25465 C 77.606115 94.123895 77.091654 93.109278 76.291983 92.442419 C 76.986942 89.746207 78.634089 87.436678 80.86173 85.929121 z M 74.03579 92.674446 C 75.435225 92.674446 76.577754 93.824269 76.577754 95.25465 C 76.577754 96.675253 75.435225 97.835371 74.03579 97.835371 C 72.63637 97.835371 71.494343 96.675253 71.494343 95.25465 C 71.494343 93.834047 72.626853 92.674446 74.03579 92.674446 z M 94.370466 95.921793 L 97.997635 95.97967 C 97.816789 98.820876 96.588519 101.37221 94.713081 103.24693 C 93.7515 102.8797 92.628196 102.92787 91.666755 103.49807 C 90.695685 104.06826 90.086611 105.02507 89.924743 106.05916 C 88.982279 106.3201 87.992156 106.46482 86.973502 106.46482 C 85.221837 106.46482 83.555772 106.04945 82.08026 105.3052 L 83.850695 102.09713 C 84.802647 102.54161 85.868983 102.79269 86.982804 102.79269 C 90.866943 102.79269 94.046729 99.768036 94.370466 95.921793 z M 93.388097 104.0567 C 94.287319 104.03548 95.174159 104.50021 95.664961 105.34396 C 96.359878 106.58102 95.950817 108.15634 94.732201 108.87139 C 93.513724 109.58659 91.962023 109.16121 91.257478 107.92416 C 90.562561 106.68724 90.971622 105.11193 92.190238 104.39673 C 92.568046 104.17629 92.97936 104.06634 93.388097 104.0567 z "
    /><path
      style="opacity:1;fill:#999999;stroke-width:1.5875;stroke-linecap:square"
      d="m 196.89805,68.637832 55.01092,-5.1e-5 -19.48299,33.969449 h -54.99881 z"
      id="path1"
      sodipodi:nodetypes="ccccc"
    /><path
      style="opacity:1;fill:none;stroke:#000000;stroke-width:0.79375;stroke-linecap:square;stroke-dasharray:none;marker-end:url(#ArrowWide)"
      d="m 222.36972,49.328868 0,23.69448"
      id="path2"
      sodipodi:nodetypes="cc"
    /><g
      id="text5"
      style="font-weight:bold;font-size:8.01806px;line-height:1.2;font-family:Inter;-inkscape-font-specification:'Inter Bold';fill:none;stroke:#666666;stroke-width:0.79375;stroke-linecap:square"
      aria-label="Draw a shape that&#10;matches the top surface"
    ><path
        style="font-weight:500;-inkscape-font-specification:'Inter Medium';fill:#000000;stroke:none"
        d="m 210.98642,33.278542 h -1.43683 v -0.755609 h 1.38202 q 0.68122,0 1.12363,-0.258394 0.4424,-0.258395 0.66164,-0.743863 0.21925,-0.489384 0.21925,-1.16669 0,-0.677307 -0.21533,-1.158861 -0.21533,-0.481553 -0.6499,-0.736032 -0.43066,-0.258395 -1.08056,-0.258395 h -1.47207 V 27.44509 h 1.52688 q 0.8574,0 1.47598,0.352356 0.62249,0.348441 0.95528,1.002258 0.33278,0.649901 0.33278,1.554282 0,0.90438 -0.3367,1.562112 -0.33278,0.653816 -0.96311,1.010087 -0.63032,0.352357 -1.52296,0.352357 z M 209.9685,27.44509 v 5.833452 h -0.86914 V 27.44509 Z m 4.6237,5.833452 V 29.14423 h 0.79084 v 0.669476 h 0.0157 q 0.11354,-0.340611 0.35627,-0.528534 0.24665,-0.191838 0.64208,-0.191838 0.094,0 0.17226,0.0078 0.0822,0.0039 0.1292,0.01174 v 0.771268 q -0.047,-0.01175 -0.16835,-0.02349 -0.12137,-0.01566 -0.26623,-0.01566 -0.23099,0 -0.42674,0.105707 -0.19184,0.105706 -0.30537,0.32495 -0.11354,0.219244 -0.11354,0.559855 v 2.443003 z m 3.8789,0.06656 q -0.41108,0 -0.73603,-0.140943 -0.32104,-0.140942 -0.50896,-0.418912 -0.18793,-0.27797 -0.18793,-0.689052 0,-0.352356 0.13312,-0.57943 0.13702,-0.227074 0.36801,-0.360186 0.23099,-0.133113 0.52462,-0.199669 0.29363,-0.07047 0.60684,-0.105707 0.3915,-0.0509 0.61466,-0.0783 0.22708,-0.03132 0.32104,-0.09396 0.0979,-0.06656 0.0979,-0.215328 v -0.03524 q 0,-0.199669 -0.0979,-0.352356 -0.0979,-0.156603 -0.2858,-0.24665 -0.18792,-0.09005 -0.45023,-0.09005 -0.26231,0 -0.4659,0.08613 -0.19967,0.08613 -0.32103,0.23882 -0.11745,0.148772 -0.13311,0.34061 h -0.81042 q 0.0196,-0.395421 0.23882,-0.696882 0.21924,-0.30146 0.60292,-0.473723 0.38367,-0.172263 0.90046,-0.172263 0.37976,0 0.68514,0.09788 0.30537,0.09788 0.51679,0.281885 0.21533,0.180093 0.32495,0.434572 0.11354,0.25448 0.11354,0.567685 v 2.83451 h -0.81434 v -0.587261 h -0.0157 q -0.0861,0.168348 -0.2349,0.317121 -0.14878,0.148772 -0.39151,0.242734 -0.23882,0.09396 -0.59509,0.09396 z m 0.16835,-0.665562 q 0.3641,0 0.599,-0.129197 0.23882,-0.133112 0.35236,-0.348441 0.11745,-0.215329 0.11745,-0.469808 v -0.485469 q -0.0431,0.03524 -0.14094,0.06656 -0.094,0.02741 -0.23099,0.05481 -0.13703,0.02349 -0.29755,0.0509 -0.16051,0.02741 -0.32103,0.04698 -0.22708,0.03132 -0.42283,0.105707 -0.19575,0.07047 -0.31712,0.199668 -0.11745,0.129198 -0.11745,0.340611 0,0.176178 0.094,0.305376 0.094,0.125282 0.27014,0.195753 0.17618,0.06656 0.415,0.06656 z m 3.72323,0.599006 -1.28023,-4.134312 h 0.86523 l 0.47372,1.691309 q 0.12137,0.426742 0.22708,0.88089 0.10962,0.450233 0.22316,0.884806 h -0.11746 q 0.11354,-0.434573 0.22708,-0.884806 0.11745,-0.454148 0.2349,-0.88089 l 0.48156,-1.691309 h 0.78692 l 0.47373,1.691309 q 0.12136,0.426742 0.23099,0.88089 0.11353,0.450233 0.22707,0.884806 h -0.12137 q 0.11354,-0.434573 0.22316,-0.884806 0.11354,-0.450233 0.23099,-0.88089 l 0.47764,-1.691309 h 0.87306 l -1.28023,4.134312 h -0.86131 l -0.52462,-1.800932 q -0.0744,-0.266224 -0.14877,-0.544194 -0.0705,-0.27797 -0.14095,-0.55594 -0.0705,-0.281885 -0.14485,-0.552025 h 0.18792 q -0.0744,0.27014 -0.14877,0.552025 -0.0705,0.27797 -0.14486,0.55594 -0.0705,0.27797 -0.14877,0.544194 l -0.53245,1.800932 z m 8.46829,0.06656 q -0.41108,0 -0.73603,-0.140943 -0.32104,-0.140942 -0.50896,-0.418912 -0.18792,-0.27797 -0.18792,-0.689052 0,-0.352356 0.13311,-0.57943 0.13703,-0.227074 0.36801,-0.360186 0.23099,-0.133113 0.52462,-0.199669 0.29363,-0.07047 0.60684,-0.105707 0.39151,-0.0509 0.61466,-0.0783 0.22708,-0.03132 0.32104,-0.09396 0.0979,-0.06656 0.0979,-0.215328 v -0.03524 q 0,-0.199669 -0.0979,-0.352356 -0.0979,-0.156603 -0.2858,-0.24665 -0.18792,-0.09005 -0.45023,-0.09005 -0.26231,0 -0.4659,0.08613 -0.19966,0.08613 -0.32103,0.23882 -0.11745,0.148772 -0.13311,0.34061 h -0.81042 q 0.0196,-0.395421 0.23882,-0.696882 0.21924,-0.30146 0.60292,-0.473723 0.38367,-0.172263 0.90046,-0.172263 0.37976,0 0.68514,0.09788 0.30537,0.09788 0.51679,0.281885 0.21533,0.180093 0.32495,0.434572 0.11354,0.25448 0.11354,0.567685 v 2.83451 h -0.81434 v -0.587261 h -0.0157 q -0.0861,0.168348 -0.2349,0.317121 -0.14877,0.148772 -0.39151,0.242734 -0.23882,0.09396 -0.59509,0.09396 z m 0.16835,-0.665562 q 0.3641,0 0.599,-0.129197 0.23882,-0.133112 0.35236,-0.348441 0.11745,-0.215329 0.11745,-0.469808 v -0.485469 q -0.0431,0.03524 -0.14094,0.06656 -0.094,0.02741 -0.23099,0.05481 -0.13703,0.02349 -0.29754,0.0509 -0.16052,0.02741 -0.32104,0.04698 -0.22707,0.03132 -0.42283,0.105707 -0.19575,0.07047 -0.31712,0.199668 -0.11745,0.129198 -0.11745,0.340611 0,0.176178 0.094,0.305376 0.094,0.125282 0.27014,0.195753 0.17618,0.06656 0.415,0.06656 z m 6.25628,0.696882 q -0.47373,0 -0.85349,-0.152687 -0.37976,-0.152688 -0.61075,-0.454148 -0.23099,-0.301461 -0.26231,-0.747778 h 0.81434 q 0.0352,0.33278 0.26231,0.516789 0.23099,0.180093 0.63424,0.180093 0.39542,0 0.62249,-0.160518 0.22708,-0.160518 0.22708,-0.407167 0,-0.211414 -0.16444,-0.336696 -0.16051,-0.129197 -0.43065,-0.187923 l -0.68514,-0.152688 q -0.58335,-0.129197 -0.88481,-0.426742 -0.30146,-0.297546 -0.30146,-0.755608 0,-0.368017 0.19576,-0.645987 0.19967,-0.27797 0.55594,-0.434572 0.35627,-0.156603 0.82999,-0.156603 0.4659,0 0.82608,0.164433 0.3641,0.164433 0.5716,0.465893 0.21141,0.30146 0.22316,0.720372 h -0.79084 q -0.004,-0.30146 -0.22708,-0.497213 -0.22316,-0.199669 -0.59117,-0.199669 -0.35236,0 -0.55986,0.164433 -0.2075,0.164433 -0.2075,0.403252 0,0.211414 0.15661,0.340611 0.16051,0.129197 0.43848,0.191839 l 0.70472,0.156602 q 0.60683,0.133113 0.88872,0.411082 0.2858,0.27797 0.2858,0.728203 0,0.395422 -0.21925,0.681222 -0.21533,0.281885 -0.59117,0.438488 -0.37585,0.152687 -0.8574,0.152687 z m 3.2221,-2.478238 v 2.380362 h -0.82608 V 27.44509 h 0.82608 v 2.724887 h -0.2075 q 0.20358,-0.555939 0.56377,-0.829994 0.3641,-0.27797 0.87698,-0.27797 0.42674,0 0.76343,0.187923 0.34061,0.184009 0.53637,0.54811 0.19575,0.364101 0.19575,0.904381 v 2.576115 h -0.82608 v -2.474324 q 0,-0.497213 -0.23882,-0.747778 -0.2349,-0.254479 -0.66556,-0.254479 -0.28188,0 -0.50896,0.113537 -0.22316,0.113537 -0.35627,0.356271 -0.13311,0.242734 -0.13311,0.626411 z m 4.92124,2.446918 q -0.41108,0 -0.73603,-0.140943 -0.32104,-0.140942 -0.50896,-0.418912 -0.18793,-0.27797 -0.18793,-0.689052 0,-0.352356 0.13312,-0.57943 0.13702,-0.227074 0.36801,-0.360186 0.23099,-0.133113 0.52462,-0.199669 0.29363,-0.07047 0.60684,-0.105707 0.3915,-0.0509 0.61466,-0.0783 0.22708,-0.03132 0.32104,-0.09396 0.0979,-0.06656 0.0979,-0.215328 v -0.03524 q 0,-0.199669 -0.0979,-0.352356 -0.0979,-0.156603 -0.2858,-0.24665 -0.18792,-0.09005 -0.45023,-0.09005 -0.26231,0 -0.4659,0.08613 -0.19967,0.08613 -0.32103,0.23882 -0.11745,0.148772 -0.13312,0.34061 h -0.81041 q 0.0196,-0.395421 0.23881,-0.696882 0.21925,-0.30146 0.60293,-0.473723 0.38367,-0.172263 0.90046,-0.172263 0.37976,0 0.68514,0.09788 0.30537,0.09788 0.51679,0.281885 0.21533,0.180093 0.32495,0.434572 0.11353,0.25448 0.11353,0.567685 v 2.83451 h -0.81433 v -0.587261 h -0.0157 q -0.0861,0.168348 -0.2349,0.317121 -0.14878,0.148772 -0.39151,0.242734 -0.23882,0.09396 -0.59509,0.09396 z m 0.16835,-0.665562 q 0.3641,0 0.599,-0.129197 0.23882,-0.133112 0.35236,-0.348441 0.11745,-0.215329 0.11745,-0.469808 v -0.485469 q -0.0431,0.03524 -0.14094,0.06656 -0.094,0.02741 -0.23099,0.05481 -0.13703,0.02349 -0.29755,0.0509 -0.16051,0.02741 -0.32103,0.04698 -0.22708,0.03132 -0.42283,0.105707 -0.19575,0.07047 -0.31712,0.199668 -0.11745,0.129198 -0.11745,0.340611 0,0.176178 0.094,0.305376 0.094,0.125282 0.27014,0.195753 0.17618,0.06656 0.415,0.06656 z m 2.81493,2.235504 v -5.77081 h 0.81042 v 0.59509 h 0.0117 q 0.12919,-0.227074 0.32495,-0.375847 0.19967,-0.148772 0.4424,-0.223159 0.24665,-0.0783 0.51287,-0.0783 0.53637,0 0.9357,0.274055 0.40326,0.27014 0.62642,0.755608 0.22707,0.481553 0.22707,1.11971 0,0.638156 -0.22316,1.123624 -0.22316,0.481554 -0.62641,0.755608 -0.40325,0.27014 -0.94353,0.27014 -0.26623,0 -0.50505,-0.0783 -0.2349,-0.0783 -0.42674,-0.234904 -0.19184,-0.156603 -0.32886,-0.391507 h -0.0117 v 2.258994 z m 1.93013,-2.266824 q 0.3367,0 0.58726,-0.164433 0.25056,-0.168348 0.39151,-0.485469 0.14485,-0.321035 0.14485,-0.786928 0,-0.469809 -0.14485,-0.790844 -0.14095,-0.321036 -0.39151,-0.485469 -0.25056,-0.164433 -0.58726,-0.164433 -0.35236,0 -0.61467,0.180094 -0.25839,0.176178 -0.40325,0.501128 -0.14094,0.321036 -0.14094,0.759524 0,0.430657 0.14094,0.755608 0.14486,0.32495 0.40325,0.505044 0.26231,0.176178 0.61467,0.176178 z m 4.45535,0.724287 q -0.61467,0 -1.05707,-0.27797 -0.43849,-0.277969 -0.67731,-0.763438 -0.2349,-0.489383 -0.2349,-1.111879 0,-0.634241 0.24665,-1.11971 0.24665,-0.489383 0.68122,-0.767353 0.43457,-0.281885 0.99834,-0.281885 0.43849,0 0.79085,0.156603 0.35627,0.156602 0.61075,0.446317 0.25448,0.2858 0.3915,0.681222 0.13703,0.395422 0.13703,0.876976 v 0.223158 h -3.48441 v -0.62641 h 3.04984 l -0.3641,0.191838 q 0,-0.383677 -0.13703,-0.665562 -0.13703,-0.2858 -0.39151,-0.438487 -0.25056,-0.156603 -0.59509,-0.156603 -0.34061,0 -0.59117,0.156603 -0.25057,0.152687 -0.39151,0.438487 -0.13703,0.281885 -0.13703,0.665562 v 0.356271 q 0,0.391507 0.13703,0.692967 0.13703,0.297545 0.39542,0.465893 0.26231,0.168348 0.63424,0.168348 0.27014,0 0.47764,-0.08222 0.2075,-0.08613 0.34453,-0.234904 0.13703,-0.148773 0.19575,-0.344526 h 0.79476 q -0.0744,0.399337 -0.33278,0.704712 -0.25448,0.30146 -0.64207,0.473723 -0.38368,0.172263 -0.84957,0.172263 z m 6.50292,-4.228273 v 0.681221 H 258.8746 V 29.14423 Z m -1.66781,-1.12754 h 0.82608 v 4.169548 q 0,0.227073 0.094,0.321035 0.0979,0.09005 0.34452,0.09005 0.094,0 0.2075,0 0.11354,0 0.19575,0 v 0.681222 q -0.10179,0 -0.24664,0 -0.14095,0 -0.27406,0 -0.58334,0 -0.86523,-0.242735 -0.28188,-0.246649 -0.28188,-0.743863 z m 3.14771,2.88149 v 2.380362 h -0.82608 V 27.44509 h 0.82608 v 2.724887 h -0.2075 q 0.20359,-0.555939 0.56377,-0.829994 0.3641,-0.27797 0.87698,-0.27797 0.42674,0 0.76344,0.187923 0.34061,0.184009 0.53636,0.54811 0.19575,0.364101 0.19575,0.904381 v 2.576115 h -0.82607 v -2.474324 q 0,-0.497213 -0.23882,-0.747778 -0.23491,-0.254479 -0.66557,-0.254479 -0.28188,0 -0.50895,0.113537 -0.22316,0.113537 -0.35628,0.356271 -0.13311,0.242734 -0.13311,0.626411 z m 4.92124,2.446918 q -0.41108,0 -0.73603,-0.140943 -0.32104,-0.140942 -0.50896,-0.418912 -0.18792,-0.27797 -0.18792,-0.689052 0,-0.352356 0.13311,-0.57943 0.13703,-0.227074 0.36802,-0.360186 0.23099,-0.133113 0.52462,-0.199669 0.29363,-0.07047 0.60683,-0.105707 0.39151,-0.0509 0.61467,-0.0783 0.22707,-0.03132 0.32103,-0.09396 0.0979,-0.06656 0.0979,-0.215328 v -0.03524 q 0,-0.199669 -0.0979,-0.352356 -0.0979,-0.156603 -0.2858,-0.24665 -0.18792,-0.09005 -0.45023,-0.09005 -0.26231,0 -0.46589,0.08613 -0.19967,0.08613 -0.32104,0.23882 -0.11745,0.148772 -0.13311,0.34061 h -0.81042 q 0.0196,-0.395421 0.23882,-0.696882 0.21924,-0.30146 0.60292,-0.473723 0.38368,-0.172263 0.90046,-0.172263 0.37977,0 0.68514,0.09788 0.30538,0.09788 0.51679,0.281885 0.21533,0.180093 0.32495,0.434572 0.11354,0.25448 0.11354,0.567685 v 2.83451 h -0.81434 v -0.587261 h -0.0157 q -0.0861,0.168348 -0.2349,0.317121 -0.14877,0.148772 -0.39151,0.242734 -0.23882,0.09396 -0.59509,0.09396 z m 0.16835,-0.665562 q 0.3641,0 0.59901,-0.129197 0.23881,-0.133112 0.35235,-0.348441 0.11745,-0.215329 0.11745,-0.469808 v -0.485469 q -0.0431,0.03524 -0.14094,0.06656 -0.094,0.02741 -0.23099,0.05481 -0.13703,0.02349 -0.29754,0.0509 -0.16052,0.02741 -0.32104,0.04698 -0.22707,0.03132 -0.42283,0.105707 -0.19575,0.07047 -0.31712,0.199668 -0.11745,0.129198 -0.11745,0.340611 0,0.176178 0.094,0.305376 0.094,0.125282 0.27014,0.195753 0.17618,0.06656 0.415,0.06656 z m 4.8077,-3.535306 v 0.681221 h -2.39602 V 29.14423 Z M 270.98,28.01669 h 0.82607 v 4.169548 q 0,0.227073 0.094,0.321035 0.0979,0.09005 0.34452,0.09005 0.094,0 0.2075,0 0.11354,0 0.19575,0 v 0.681222 q -0.10179,0 -0.24664,0 -0.14095,0 -0.27406,0 -0.58334,0 -0.86523,-0.242735 Q 270.98,32.789158 270.98,32.291944 Z"
        id="path4"
      /><path
        style="font-weight:500;-inkscape-font-specification:'Inter Medium';fill:#000000;stroke:none"
        d="m 209.0328,42.900214 v -4.134312 h 0.80259 v 0.87306 h -0.0783 q 0.11745,-0.313206 0.31321,-0.524619 0.19966,-0.215329 0.45806,-0.321036 0.25839,-0.109622 0.54028,-0.109622 0.48155,0 0.82216,0.27797 0.34453,0.274055 0.42283,0.677307 h -0.1292 q 0.0861,-0.274055 0.27797,-0.489384 0.19576,-0.215328 0.47764,-0.340611 0.28189,-0.125282 0.62641,-0.125282 0.38759,0 0.7008,0.168348 0.3132,0.168348 0.49721,0.501129 0.18401,0.328866 0.18401,0.826079 v 2.720973 h -0.82999 v -2.650502 q 0,-0.442402 -0.24665,-0.642071 -0.24665,-0.199668 -0.58335,-0.199668 -0.27405,0 -0.47372,0.117452 -0.19967,0.117452 -0.30929,0.321035 -0.10962,0.203584 -0.10962,0.469809 v 2.583945 h -0.81434 v -2.705313 q 0,-0.356271 -0.23099,-0.571599 -0.22707,-0.215329 -0.57943,-0.215329 -0.23882,0 -0.45023,0.113537 -0.2075,0.113537 -0.3367,0.336696 -0.12528,0.219243 -0.12528,0.548109 v 2.493899 z m 8.10811,0.06656 q -0.41108,0 -0.73603,-0.140943 -0.32104,-0.140942 -0.50896,-0.418912 -0.18793,-0.27797 -0.18793,-0.689052 0,-0.352356 0.13312,-0.57943 0.13702,-0.227074 0.36801,-0.360186 0.23099,-0.133113 0.52462,-0.199669 0.29363,-0.07047 0.60684,-0.105707 0.3915,-0.0509 0.61466,-0.0783 0.22708,-0.03132 0.32104,-0.09396 0.0979,-0.06656 0.0979,-0.215328 v -0.03524 q 0,-0.199669 -0.0979,-0.352356 -0.0979,-0.156603 -0.2858,-0.246649 -0.18792,-0.09005 -0.45023,-0.09005 -0.26231,0 -0.4659,0.08613 -0.19967,0.08613 -0.32103,0.23882 -0.11745,0.148772 -0.13311,0.340611 h -0.81042 q 0.0196,-0.395422 0.23882,-0.696883 0.21924,-0.30146 0.60292,-0.473723 0.38367,-0.172263 0.90046,-0.172263 0.37976,0 0.68514,0.09788 0.30537,0.09788 0.51679,0.281885 0.21533,0.180093 0.32495,0.434572 0.11354,0.25448 0.11354,0.567685 v 2.83451 h -0.81434 v -0.587261 h -0.0157 q -0.0861,0.168348 -0.2349,0.317121 -0.14878,0.148773 -0.39151,0.242734 -0.23882,0.09396 -0.59509,0.09396 z m 0.16835,-0.665562 q 0.3641,0 0.599,-0.129197 0.23882,-0.133112 0.35236,-0.348441 0.11745,-0.215329 0.11745,-0.469808 v -0.485469 q -0.0431,0.03524 -0.14094,0.06656 -0.094,0.02741 -0.23099,0.05481 -0.13703,0.02349 -0.29755,0.0509 -0.16051,0.02741 -0.32103,0.04698 -0.22708,0.03132 -0.42283,0.105707 -0.19575,0.07047 -0.31712,0.199668 -0.11745,0.129198 -0.11745,0.340611 0,0.176178 0.094,0.305376 0.094,0.125282 0.27014,0.195753 0.17618,0.06656 0.415,0.06656 z m 4.8077,-3.535306 v 0.681221 h -2.39602 v -0.681221 z m -1.66782,-1.12754 h 0.82608 v 4.169548 q 0,0.227074 0.094,0.321035 0.0979,0.09005 0.34453,0.09005 0.094,0 0.2075,0 0.11353,0 0.19575,0 v 0.681222 q -0.10179,0 -0.24665,0 -0.14094,0 -0.27405,0 -0.58335,0 -0.86523,-0.242735 -0.28189,-0.246649 -0.28189,-0.743863 z m 4.02,5.355813 q -0.59118,0 -1.03358,-0.274055 -0.4424,-0.274054 -0.69297,-0.759523 -0.24665,-0.489383 -0.24665,-1.119709 0,-0.638156 0.24665,-1.12754 0.25057,-0.489383 0.69297,-0.763438 0.4424,-0.27797 1.03358,-0.27797 0.36801,0 0.68122,0.113537 0.31712,0.109622 0.55594,0.313205 0.23882,0.199669 0.38368,0.477639 0.14877,0.274054 0.18792,0.60292 h -0.82217 q -0.0313,-0.176178 -0.10962,-0.321035 -0.0783,-0.144858 -0.20358,-0.250565 -0.12528,-0.105707 -0.29363,-0.164433 -0.16443,-0.05873 -0.37585,-0.05873 -0.35627,0 -0.61075,0.180093 -0.25448,0.180094 -0.39151,0.508959 -0.13702,0.324951 -0.13702,0.767354 0,0.438487 0.13702,0.763438 0.13703,0.321036 0.39151,0.501129 0.25448,0.176178 0.61075,0.176178 0.21142,0 0.37585,-0.05481 0.16443,-0.05873 0.28188,-0.164433 0.11746,-0.105707 0.19576,-0.250564 0.0783,-0.148773 0.11745,-0.328866 h 0.83391 q -0.0352,0.324951 -0.18401,0.599005 -0.14486,0.274055 -0.38759,0.481554 -0.23882,0.203583 -0.55594,0.31712 -0.31321,0.113537 -0.68122,0.113537 z m 3.33563,-2.474323 v 2.380362 h -0.82607 v -5.833452 h 0.82607 v 2.724887 h -0.20749 q 0.20358,-0.555939 0.56377,-0.829994 0.3641,-0.27797 0.87697,-0.27797 0.42674,0 0.76344,0.187923 0.34061,0.184009 0.53636,0.54811 0.19576,0.364101 0.19576,0.904381 v 2.576115 h -0.82608 v -2.474323 q 0,-0.497214 -0.23882,-0.747779 -0.23491,-0.254479 -0.66556,-0.254479 -0.28189,0 -0.50896,0.113537 -0.22316,0.113537 -0.35627,0.356271 -0.13312,0.242734 -0.13312,0.626411 z m 5.42629,2.474323 q -0.61467,0 -1.05707,-0.27797 -0.43849,-0.277969 -0.6773,-0.763438 -0.23491,-0.489383 -0.23491,-1.111879 0,-0.634241 0.24665,-1.11971 0.24665,-0.489383 0.68122,-0.767353 0.43457,-0.281885 0.99834,-0.281885 0.43849,0 0.79085,0.156603 0.35627,0.156602 0.61075,0.446317 0.25448,0.2858 0.39151,0.681222 0.13702,0.395422 0.13702,0.876976 v 0.223158 h -3.48441 v -0.62641 h 3.04984 l -0.3641,0.191838 q 0,-0.383677 -0.13703,-0.665562 -0.13703,-0.2858 -0.3915,-0.438487 -0.25057,-0.156603 -0.5951,-0.156603 -0.34061,0 -0.59117,0.156603 -0.25056,0.152687 -0.39151,0.438487 -0.13702,0.281885 -0.13702,0.665562 v 0.356271 q 0,0.391507 0.13702,0.692967 0.13703,0.297545 0.39542,0.465893 0.26231,0.168348 0.63425,0.168348 0.27014,0 0.47763,-0.08222 0.2075,-0.08613 0.34453,-0.234904 0.13703,-0.148773 0.19575,-0.344526 h 0.79476 q -0.0744,0.399337 -0.33278,0.704712 -0.25448,0.30146 -0.64207,0.473723 -0.38368,0.172263 -0.84957,0.172263 z m 4.1304,0.0039 q -0.47373,0 -0.85349,-0.152687 -0.37976,-0.152688 -0.61075,-0.454148 -0.23099,-0.30146 -0.26231,-0.747778 h 0.81434 q 0.0352,0.332781 0.26231,0.516789 0.23099,0.180093 0.63424,0.180093 0.39542,0 0.62249,-0.160518 0.22708,-0.160518 0.22708,-0.407167 0,-0.211414 -0.16444,-0.336696 -0.16051,-0.129197 -0.43065,-0.187923 l -0.68514,-0.152688 q -0.58335,-0.129197 -0.88481,-0.426742 -0.30146,-0.297545 -0.30146,-0.755608 0,-0.368017 0.19576,-0.645987 0.19967,-0.27797 0.55594,-0.434572 0.35627,-0.156603 0.82999,-0.156603 0.46589,0 0.82608,0.164433 0.3641,0.164433 0.5716,0.465893 0.21141,0.30146 0.22316,0.720373 h -0.79084 q -0.004,-0.301461 -0.22708,-0.497214 -0.22316,-0.199669 -0.59117,-0.199669 -0.35236,0 -0.55986,0.164433 -0.2075,0.164433 -0.2075,0.403252 0,0.211414 0.15661,0.340611 0.16051,0.129197 0.43848,0.191839 l 0.70472,0.156602 q 0.60683,0.133113 0.88872,0.411082 0.2858,0.27797 0.2858,0.728203 0,0.395422 -0.21925,0.681222 -0.21533,0.281885 -0.59117,0.438488 -0.37585,0.152687 -0.8574,0.152687 z m 6.29934,-4.232188 v 0.681221 h -2.39602 v -0.681221 z m -1.66782,-1.12754 h 0.82608 v 4.169548 q 0,0.227074 0.094,0.321035 0.0979,0.09005 0.34452,0.09005 0.094,0 0.2075,0 0.11354,0 0.19575,0 v 0.681222 q -0.10179,0 -0.24665,0 -0.14094,0 -0.27405,0 -0.58335,0 -0.86523,-0.242735 -0.28189,-0.246649 -0.28189,-0.743863 z m 3.14772,2.88149 v 2.380362 h -0.82608 v -5.833452 h 0.82608 v 2.724887 h -0.2075 q 0.20358,-0.555939 0.56377,-0.829994 0.3641,-0.27797 0.87697,-0.27797 0.42675,0 0.76344,0.187923 0.34061,0.184009 0.53637,0.54811 0.19575,0.364101 0.19575,0.904381 v 2.576115 h -0.82608 v -2.474323 q 0,-0.497214 -0.23882,-0.747779 -0.2349,-0.254479 -0.66556,-0.254479 -0.28189,0 -0.50896,0.113537 -0.22316,0.113537 -0.35627,0.356271 -0.13311,0.242734 -0.13311,0.626411 z m 5.42628,2.474323 q -0.61466,0 -1.05707,-0.27797 -0.43849,-0.277969 -0.6773,-0.763438 -0.23491,-0.489383 -0.23491,-1.111879 0,-0.634241 0.24665,-1.11971 0.24665,-0.489383 0.68122,-0.767353 0.43458,-0.281885 0.99835,-0.281885 0.43848,0 0.79084,0.156603 0.35627,0.156602 0.61075,0.446317 0.25448,0.2858 0.39151,0.681222 0.13702,0.395422 0.13702,0.876976 v 0.223158 h -3.48441 v -0.62641 h 3.04984 l -0.3641,0.191838 q 0,-0.383677 -0.13703,-0.665562 -0.13702,-0.2858 -0.3915,-0.438487 -0.25057,-0.156603 -0.59509,-0.156603 -0.34062,0 -0.59118,0.156603 -0.25056,0.152687 -0.39151,0.438487 -0.13702,0.281885 -0.13702,0.665562 v 0.356271 q 0,0.391507 0.13702,0.692967 0.13703,0.297545 0.39543,0.465893 0.2623,0.168348 0.63424,0.168348 0.27014,0 0.47763,-0.08222 0.2075,-0.08613 0.34453,-0.234904 0.13703,-0.148773 0.19575,-0.344526 h 0.79476 q -0.0744,0.399337 -0.33278,0.704712 -0.25448,0.30146 -0.64207,0.473723 -0.38368,0.172263 -0.84957,0.172263 z m 6.50293,-4.228273 v 0.681221 h -2.39602 v -0.681221 z m -1.66782,-1.12754 h 0.82608 v 4.169548 q 0,0.227074 0.094,0.321035 0.0979,0.09005 0.34453,0.09005 0.094,0 0.2075,0 0.11353,0 0.19575,0 v 0.681222 q -0.10179,0 -0.24665,0 -0.14094,0 -0.27405,0 -0.58335,0 -0.86523,-0.242735 -0.28189,-0.246649 -0.28189,-0.743863 z m 4.02783,5.355813 q -0.59118,0 -1.03749,-0.274055 -0.44632,-0.274054 -0.69689,-0.759523 -0.24665,-0.485468 -0.24665,-1.119709 0,-0.642071 0.24665,-1.12754 0.25057,-0.489383 0.69689,-0.763438 0.44631,-0.27797 1.03749,-0.27797 0.59117,0 1.03358,0.27797 0.44631,0.274055 0.69296,0.763438 0.25057,0.485469 0.25057,1.12754 0,0.634241 -0.25057,1.119709 -0.24665,0.485469 -0.69296,0.759523 -0.44241,0.274055 -1.03358,0.274055 z m 0,-0.712542 q 0.35235,0 0.60683,-0.176178 0.2584,-0.180093 0.39543,-0.505044 0.14094,-0.324951 0.14094,-0.759523 0,-0.446318 -0.14094,-0.771269 -0.13703,-0.32495 -0.39543,-0.505044 -0.25448,-0.180093 -0.60683,-0.180093 -0.35236,0 -0.61075,0.180093 -0.25448,0.176179 -0.39542,0.505044 -0.13703,0.324951 -0.13703,0.771269 0,0.438487 0.13703,0.763438 0.14094,0.321036 0.39542,0.501129 0.25448,0.176178 0.61075,0.176178 z m 2.70923,2.255079 v -5.77081 h 0.81041 v 0.59509 h 0.0118 q 0.1292,-0.227074 0.32495,-0.375847 0.19967,-0.148772 0.4424,-0.223158 0.24665,-0.0783 0.51288,-0.0783 0.53636,0 0.9357,0.274055 0.40325,0.27014 0.62641,0.755608 0.22707,0.481553 0.22707,1.11971 0,0.638156 -0.22316,1.123624 -0.22315,0.481554 -0.62641,0.755608 -0.40325,0.27014 -0.94353,0.27014 -0.26622,0 -0.50504,-0.0783 -0.23491,-0.0783 -0.42674,-0.234904 -0.19184,-0.156603 -0.32887,-0.391507 h -0.0118 v 2.258994 z m 1.93012,-2.266824 q 0.3367,0 0.58726,-0.164433 0.25057,-0.168348 0.39151,-0.485469 0.14486,-0.321035 0.14486,-0.786928 0,-0.469809 -0.14486,-0.790844 -0.14094,-0.321036 -0.39151,-0.485469 -0.25056,-0.164433 -0.58726,-0.164433 -0.35235,0 -0.61466,0.180094 -0.2584,0.176178 -0.40325,0.501128 -0.14095,0.321036 -0.14095,0.759524 0,0.430657 0.14095,0.755608 0.14485,0.32495 0.40325,0.505044 0.26231,0.176178 0.61466,0.176178 z m 6.131,0.728202 q -0.47372,0 -0.85348,-0.152687 -0.37977,-0.152688 -0.61075,-0.454148 -0.23099,-0.30146 -0.26231,-0.747778 h 0.81433 q 0.0352,0.332781 0.26231,0.516789 0.23099,0.180093 0.63424,0.180093 0.39542,0 0.6225,-0.160518 0.22707,-0.160518 0.22707,-0.407167 0,-0.211414 -0.16443,-0.336696 -0.16052,-0.129197 -0.43066,-0.187923 l -0.68514,-0.152688 q -0.58334,-0.129197 -0.8848,-0.426742 -0.30146,-0.297545 -0.30146,-0.755608 0,-0.368017 0.19575,-0.645987 0.19967,-0.27797 0.55594,-0.434572 0.35627,-0.156603 0.83,-0.156603 0.46589,0 0.82607,0.164433 0.36411,0.164433 0.5716,0.465893 0.21142,0.30146 0.22316,0.720373 h -0.79084 q -0.004,-0.301461 -0.22707,-0.497214 -0.22316,-0.199669 -0.59118,-0.199669 -0.35236,0 -0.55985,0.164433 -0.2075,0.164433 -0.2075,0.403252 0,0.211414 0.1566,0.340611 0.16052,0.129197 0.43849,0.191839 l 0.70471,0.156602 q 0.60684,0.133113 0.88872,0.411082 0.2858,0.27797 0.2858,0.728203 0,0.395422 -0.21924,0.681222 -0.21533,0.281885 -0.59118,0.438488 -0.37585,0.152687 -0.8574,0.152687 z m 3.89158,-0.01566 q -0.42283,0 -0.76344,-0.184008 -0.34061,-0.187923 -0.53637,-0.552025 -0.19575,-0.368016 -0.19575,-0.904381 v -2.576114 h 0.82608 v 2.474323 q 0,0.493298 0.23882,0.747778 0.23882,0.254479 0.66948,0.254479 0.27797,0 0.50112,-0.113537 0.22708,-0.113537 0.36019,-0.356271 0.13311,-0.246649 0.13311,-0.626411 v -2.380361 h 0.82608 v 4.134312 h -0.81042 v -1.025748 h 0.19184 q -0.19967,0.552024 -0.56377,0.829994 -0.36018,0.27797 -0.87697,0.27797 z m 2.99111,-0.08222 v -4.134312 h 0.79084 v 0.669476 h 0.0157 q 0.11354,-0.340611 0.35627,-0.528534 0.24665,-0.191838 0.64208,-0.191838 0.094,0 0.17226,0.0078 0.0822,0.0039 0.1292,0.01174 v 0.771268 q -0.047,-0.01174 -0.16835,-0.02349 -0.12137,-0.01566 -0.26623,-0.01566 -0.23099,0 -0.42674,0.105707 -0.19184,0.105706 -0.30538,0.32495 -0.11353,0.219244 -0.11353,0.559855 v 2.443003 z m 4.86204,-4.134312 v 0.681221 h -2.40776 v -0.681221 z m -1.66782,4.134312 v -4.803789 q 0,-0.328866 0.13703,-0.55594 0.14094,-0.230989 0.40325,-0.352356 0.26231,-0.121367 0.63424,-0.121367 0.16052,0 0.30146,0 0.14486,0 0.19184,0 v 0.681222 q -0.0392,0 -0.16443,0 -0.12528,0 -0.20358,0 -0.25448,0 -0.36411,0.113537 -0.10962,0.109622 -0.10962,0.368016 v 4.670677 z m 3.41582,0.06656 q -0.41108,0 -0.73603,-0.140943 -0.32104,-0.140942 -0.50896,-0.418912 -0.18793,-0.27797 -0.18793,-0.689052 0,-0.352356 0.13312,-0.57943 0.13702,-0.227074 0.36801,-0.360186 0.23099,-0.133113 0.52462,-0.199669 0.29363,-0.07047 0.60684,-0.105707 0.3915,-0.0509 0.61466,-0.0783 0.22708,-0.03132 0.32104,-0.09396 0.0979,-0.06656 0.0979,-0.215328 v -0.03524 q 0,-0.199669 -0.0979,-0.352356 -0.0979,-0.156603 -0.2858,-0.246649 -0.18792,-0.09005 -0.45023,-0.09005 -0.26231,0 -0.4659,0.08613 -0.19967,0.08613 -0.32103,0.23882 -0.11746,0.148772 -0.13312,0.340611 h -0.81041 q 0.0196,-0.395422 0.23881,-0.696883 0.21925,-0.30146 0.60293,-0.473723 0.38367,-0.172263 0.90046,-0.172263 0.37976,0 0.68514,0.09788 0.30537,0.09788 0.51679,0.281885 0.21533,0.180093 0.32495,0.434572 0.11353,0.25448 0.11353,0.567685 v 2.83451 h -0.81433 v -0.587261 h -0.0157 q -0.0861,0.168348 -0.2349,0.317121 -0.14878,0.148773 -0.39151,0.242734 -0.23882,0.09396 -0.59509,0.09396 z m 0.16835,-0.665562 q 0.3641,0 0.599,-0.129197 0.23882,-0.133112 0.35236,-0.348441 0.11745,-0.215329 0.11745,-0.469808 v -0.485469 q -0.0431,0.03524 -0.14094,0.06656 -0.094,0.02741 -0.23099,0.05481 -0.13703,0.02349 -0.29755,0.0509 -0.16051,0.02741 -0.32103,0.04698 -0.22708,0.03132 -0.42283,0.105707 -0.19575,0.07047 -0.31712,0.199668 -0.11745,0.129198 -0.11745,0.340611 0,0.176178 0.094,0.305376 0.094,0.125282 0.27014,0.195753 0.17618,0.06656 0.415,0.06656 z m 4.58454,0.692967 q -0.59117,0 -1.03358,-0.274055 -0.4424,-0.274054 -0.69296,-0.759523 -0.24665,-0.489383 -0.24665,-1.119709 0,-0.638156 0.24665,-1.12754 0.25056,-0.489383 0.69296,-0.763438 0.44241,-0.27797 1.03358,-0.27797 0.36802,0 0.68122,0.113537 0.31712,0.109622 0.55594,0.313205 0.23882,0.199669 0.38368,0.477639 0.14877,0.274054 0.18792,0.60292 h -0.82216 q -0.0313,-0.176178 -0.10962,-0.321035 -0.0783,-0.144858 -0.20359,-0.250565 -0.12528,-0.105707 -0.29363,-0.164433 -0.16443,-0.05873 -0.37584,-0.05873 -0.35627,0 -0.61075,0.180093 -0.25448,0.180094 -0.39151,0.508959 -0.13703,0.324951 -0.13703,0.767354 0,0.438487 0.13703,0.763438 0.13703,0.321036 0.39151,0.501129 0.25448,0.176178 0.61075,0.176178 0.21141,0 0.37584,-0.05481 0.16444,-0.05873 0.28189,-0.164433 0.11745,-0.105707 0.19575,-0.250564 0.0783,-0.148773 0.11745,-0.328866 h 0.83391 q -0.0352,0.324951 -0.184,0.599005 -0.14486,0.274055 -0.3876,0.481554 -0.23882,0.203583 -0.55594,0.31712 -0.3132,0.113537 -0.68122,0.113537 z m 4.27526,0 q -0.61466,0 -1.05707,-0.27797 -0.43848,-0.277969 -0.6773,-0.763438 -0.23491,-0.489383 -0.23491,-1.111879 0,-0.634241 0.24665,-1.11971 0.24665,-0.489383 0.68122,-0.767353 0.43458,-0.281885 0.99835,-0.281885 0.43848,0 0.79084,0.156603 0.35627,0.156602 0.61075,0.446317 0.25448,0.2858 0.39151,0.681222 0.13702,0.395422 0.13702,0.876976 v 0.223158 h -3.48441 v -0.62641 h 3.04984 l -0.3641,0.191838 q 0,-0.383677 -0.13703,-0.665562 -0.13702,-0.2858 -0.3915,-0.438487 -0.25057,-0.156603 -0.59509,-0.156603 -0.34061,0 -0.59118,0.156603 -0.25056,0.152687 -0.39151,0.438487 -0.13702,0.281885 -0.13702,0.665562 v 0.356271 q 0,0.391507 0.13702,0.692967 0.13703,0.297545 0.39543,0.465893 0.26231,0.168348 0.63424,0.168348 0.27014,0 0.47764,-0.08222 0.20749,-0.08613 0.34452,-0.234904 0.13703,-0.148773 0.19575,-0.344526 h 0.79476 q -0.0744,0.399337 -0.33278,0.704712 -0.25448,0.30146 -0.64207,0.473723 -0.38368,0.172263 -0.84957,0.172263 z"
        id="path5"
      /></g></g><style type="text/css" id="style1">
.st0 {
  fill: #0080ff;
}
.st1 {
  fill-rule: evenodd;
  clip-rule: evenodd;
  fill: #0080ff;
}
  </style></svg>
