<?xml version="1.0" encoding="UTF-8" standalone="no"?>
<!-- Created with Inkscape (http://www.inkscape.org/) -->

<svg
   width="1280"
   height="720"
   viewBox="0 0 338.66666 190.5"
   version="1.1"
   id="svg1"
   inkscape:version="1.4.3 (0d15f75042, 2025-12-25)"
   sodipodi:docname="8_aligning_top_bend_handles.svg"
   xml:space="preserve"
   xmlns:inkscape="http://www.inkscape.org/namespaces/inkscape"
   xmlns:sodipodi="http://sodipodi.sourceforge.net/DTD/sodipodi-0.dtd"
   xmlns="http://www.w3.org/2000/svg"
   xmlns:svg="http://www.w3.org/2000/svg"><sodipodi:namedview
     id="namedview1"
     pagecolor="#ffffff"
     bordercolor="#000000"
     borderopacity="0.25"
     inkscape:showpageshadow="2"
     inkscape:pageopacity="0.0"
     inkscape:pagecheckerboard="0"
     inkscape:deskcolor="#d1d1d1"
     inkscape:document-units="px"
     inkscape:zoom="1"
     inkscape:cx="632.5"
     inkscape:cy="401.5"
     inkscape:window-width="2560"
     inkscape:window-height="1371"
     inkscape:window-x="0"
     inkscape:window-y="0"
     inkscape:window-maximized="1"
     inkscape:current-layer="layer1"
     showguides="true"
     showgrid="false" /><defs
     id="defs1"><marker
       style="overflow:visible"
       id="ArrowWide"
       refX="0"
       refY="0"
       orient="auto-start-reverse"
       inkscape:stockid="Wide arrow"
       markerWidth="1"
       markerHeight="1"
       viewBox="0 0 1 1"
       inkscape:isstock="true"
       inkscape:collect="always"
       preserveAspectRatio="xMidYMid"><path
         style="fill:none;stroke:context-stroke;stroke-width:1;stroke-linecap:butt"
         d="M 3,-3 0,0 3,3"
         transform="rotate(180,0.125,0)"
         sodipodi:nodetypes="ccc"
         id="path18" /></marker><inkscape:path-effect
       effect="envelope"
       id="path-effect10"
       is_visible="true"
       lpeversion="1"
       yy="true"
       xx="true"
       bendpath1="M 86.176224,71.714882 136.2767,68.63779"
       bendpath2="M 112.97293,71.714882 V 98.539243"
       bendpath3="M 86.176224,98.539243 H 112.97293"
       bendpath4="M 86.176224,71.714882 V 98.539243"
       bendpath1-nodetypes="cc" /><inkscape:path-effect
       effect="envelope"
       id="path-effect9"
       is_visible="true"
       lpeversion="1"
       yy="true"
       xx="true"
       bendpath1="m 196.89805,68.637832 55.01091,-4.2e-5"
       bendpath2="M 228.60519,71.714882 V 98.539243"
       bendpath3="m 201.80848,98.539243 h 26.79671"
       bendpath4="M 201.80848,71.714882 V 98.539243"
       bendpath1-nodetypes="cc" /><inkscape:path-effect
       effect="envelope"
       id="path-effect35"
       is_visible="true"
       lpeversion="1"
       yy="true"
       xx="true"
       bendpath1="m 250.07154,84.208135 22.97695,-1.3e-5"
       bendpath2="M 273.04849,84.208122 263.85357,100.1342"
       bendpath3="m 240.87662,100.1342 h 22.97695"
       bendpath4="M 250.07154,84.208135 240.87662,100.1342"
       bendpath1-nodetypes="cc"
       bendpath2-nodetypes="cc"
       bendpath3-nodetypes="cc"
       bendpath4-nodetypes="cc" /><inkscape:path-effect
       effect="perspective-envelope"
       up_left_point="251.44253,86.643806"
       up_right_point="262.48268,86.643806"
       down_left_point="251.44253,97.698428"
       down_right_point="262.48268,97.698428"
       id="path-effect34"
       is_visible="true"
       lpeversion="1"
       deform_type="perspective"
       horizontal_mirror="false"
       vertical_mirror="false"
       overflow_perspective="false" /><inkscape:path-effect
       effect="perspective-envelope"
       up_left_point="2,2"
       up_right_point="30,2"
       down_left_point="2,30"
       down_right_point="30,30"
       id="path-effect33"
       is_visible="true"
       lpeversion="1"
       deform_type="perspective"
       horizontal_mirror="false"
       vertical_mirror="false"
       overflow_perspective="false" /><linearGradient
       id="paint0_linear_87_7435"
       x1="16.0578"
       y1="6.30617"
       x2="15.8364"
       y2="9.3059797"
       gradientUnits="userSpaceOnUse"
       gradientTransform="matrix(0.26458333,0,0,0.26458333,168.93645,-25.973263)"><stop
         stop-color="white"
         stop-opacity="0.8"
         id="stop23" /><stop
         offset="1"
         stop-color="white"
         stop-opacity="0"
         id="stop24" /></linearGradient><linearGradient
       id="paint1_linear_87_7435"
       x1="12.8966"
       y1="22.6721"
       x2="11.2506"
       y2="17.271601"
       gradientUnits="userSpaceOnUse"><stop
         stop-color="#FFEED7"
         id="stop25" /><stop
         offset="1"
         stop-color="#BDBFC2"
         id="stop26" /></linearGradient><linearGradient
       id="paint3_linear_87_7435"
       x1="16.6681"
       y1="9.6554604"
       x2="16.5748"
       y2="10.3542"
       gradientUnits="userSpaceOnUse"
       gradientTransform="matrix(0.26458333,0,0,0.26458333,168.93645,-25.973263)"><stop
         stop-color="white"
         stop-opacity="0.65"
         id="stop29" /><stop
         offset="1"
         stop-color="white"
         stop-opacity="0"
         id="stop30" /></linearGradient><linearGradient
       id="paint4_linear_87_7435"
       x1="14.434"
       y1="9.7829399"
       x2="14.5344"
       y2="10.3483"
       gradientUnits="userSpaceOnUse"
       gradientTransform="matrix(0.26458333,0,0,0.26458333,168.93645,-25.973263)"><stop
         stop-color="white"
         stop-opacity="0.65"
         id="stop31" /><stop
         offset="1"
         stop-color="white"
         stop-opacity="0"
         id="stop32" /></linearGradient><linearGradient
       id="paint5_linear_87_7435"
       x1="15.7613"
       y1="15.6306"
       x2="15.778"
       y2="19.627199"
       gradientUnits="userSpaceOnUse"
       gradientTransform="matrix(0.26458333,0,0,0.26458333,168.93645,-25.973263)"><stop
         stop-color="white"
         stop-opacity="0.8"
         id="stop33" /><stop
         offset="1"
         stop-color="white"
         stop-opacity="0"
         id="stop34" /></linearGradient><linearGradient
       id="paint6_linear_87_7435"
       x1="15.8504"
       y1="13.1247"
       x2="15.8688"
       y2="14.7138"
       gradientUnits="userSpaceOnUse"
       gradientTransform="matrix(0.26458333,0,0,0.26458333,168.93645,-25.973263)"><stop
         stop-color="white"
         stop-opacity="0.65"
         id="stop35" /><stop
         offset="1"
         stop-color="white"
         stop-opacity="0"
         id="stop36" /></linearGradient><linearGradient
       id="paint7_linear_87_7435"
       x1="11.72"
       y1="14.1055"
       x2="11.72"
       y2="19.937201"
       gradientUnits="userSpaceOnUse"
       gradientTransform="matrix(0.26458333,0,0,0.26458333,168.93645,-25.973263)"><stop
         stop-color="white"
         stop-opacity="0.65"
         id="stop37" /><stop
         offset="1"
         stop-color="white"
         stop-opacity="0"
         id="stop38" /></linearGradient><linearGradient
       id="paint8_linear_87_7435"
       x1="21.033001"
       y1="13.5359"
       x2="21.0308"
       y2="18.805201"
       gradientUnits="userSpaceOnUse"
       gradientTransform="matrix(0.26458333,0,0,0.26458333,168.93645,-25.973263)"><stop
         stop-color="white"
         stop-opacity="0.65"
         id="stop39" /><stop
         offset="1"
         stop-color="white"
         stop-opacity="0"
         id="stop40" /></linearGradient><linearGradient
       id="paint9_linear_87_7435"
       x1="11.4286"
       y1="22.437401"
       x2="10.5354"
       y2="25.4214"
       gradientUnits="userSpaceOnUse"
       gradientTransform="matrix(0.26458333,0,0,0.26458333,168.93645,-25.973263)"><stop
         stop-color="#FFA63F"
         id="stop41" /><stop
         offset="1"
         stop-color="#FFFF00"
         id="stop42" /></linearGradient><linearGradient
       id="paint10_linear_87_7435"
       x1="19.882"
       y1="21.530001"
       x2="22.2656"
       y2="24.7801"
       gradientUnits="userSpaceOnUse"
       gradientTransform="matrix(0.26458333,0,0,0.26458333,168.93645,-25.973263)"><stop
         stop-color="#FFA63F"
         id="stop43" /><stop
         offset="1"
         stop-color="#FFFF00"
         id="stop44" /></linearGradient><linearGradient
       id="paint11_linear_87_7435"
       x1="20.5198"
       y1="18.9333"
       x2="19.6863"
       y2="22.8605"
       gradientUnits="userSpaceOnUse"
       gradientTransform="matrix(0.26458333,0,0,0.26458333,168.93645,-25.973263)"><stop
         stop-color="white"
         stop-opacity="0.65"
         id="stop45" /><stop
         offset="1"
         stop-color="white"
         stop-opacity="0"
         id="stop46" /></linearGradient><linearGradient
       id="paint12_linear_87_7435"
       x1="11.2464"
       y1="19.9042"
       x2="11.4117"
       y2="24.3239"
       gradientUnits="userSpaceOnUse"
       gradientTransform="matrix(0.26458333,0,0,0.26458333,168.93645,-25.973263)"><stop
         stop-color="white"
         stop-opacity="0.65"
         id="stop47" /><stop
         offset="1"
         stop-color="white"
         stop-opacity="0"
         id="stop48" /></linearGradient><linearGradient
       id="paint13_linear_87_7435"
       x1="20.3755"
       y1="18.861601"
       x2="20.5688"
       y2="20.182199"
       gradientUnits="userSpaceOnUse"
       gradientTransform="matrix(0.26458333,0,0,0.26458333,168.93645,-25.973263)"><stop
         stop-color="white"
         stop-opacity="0.65"
         id="stop49" /><stop
         offset="1"
         stop-color="white"
         stop-opacity="0"
         id="stop50" /></linearGradient><linearGradient
       id="paint14_linear_87_7435"
       x1="15.7644"
       y1="10.784"
       x2="15.7805"
       y2="13.1098"
       gradientUnits="userSpaceOnUse"
       gradientTransform="matrix(0.26458333,0,0,0.26458333,168.93645,-25.973263)"><stop
         stop-color="#FFA63F"
         id="stop51" /><stop
         offset="1"
         stop-color="#FFFF00"
         id="stop52" /></linearGradient><linearGradient
       id="paint15_linear_87_7435"
       x1="15.5106"
       y1="10.5638"
       x2="15.5062"
       y2="11.7936"
       gradientUnits="userSpaceOnUse"
       gradientTransform="matrix(0.26458333,0,0,0.26458333,168.93645,-25.973263)"><stop
         stop-color="white"
         stop-opacity="0.65"
         id="stop53" /><stop
         offset="1"
         stop-color="white"
         stop-opacity="0"
         id="stop54" /></linearGradient></defs><g
     inkscape:label="Layer 1"
     inkscape:groupmode="layer"
     id="layer1"><rect
       style="fill:#ffffff;fill-opacity:1;stroke-width:0.163031;stroke-linejoin:round"
       id="rect1-3"
       width="338.66666"
       height="190.5"
       x="-338.66666"
       y="7.8409442e-07"
       transform="scale(-1,1)" /><g
       id="g1"
       transform="translate(21.715169,-18.013258)"><rect
         style="fill:#000000;fill-opacity:1;stroke:#ffffff;stroke-width:0.264583;stroke-linecap:butt;stroke-linejoin:round;stroke-dasharray:none;paint-order:normal"
         id="rect5"
         width="78.383522"
         height="19.254986"
         x="156.50104"
         y="120.62049" /><ellipse
         style="fill:#ffffff;fill-opacity:1;stroke:none;stroke-width:0.264583;stroke-dasharray:none"
         id="ellipse5"
         cx="226.01952"
         cy="130.24799"
         rx="3.8959584"
         ry="3.9218073" /><rect
         style="fill:#ffffff;fill-opacity:1;stroke:none;stroke-width:0.264583;stroke-dasharray:none"
         id="rect11"
         width="0.80859512"
         height="5.8457122"
         x="161.47014"
         y="127.32513" /><rect
         style="fill:#ffffff;fill-opacity:1;stroke:none;stroke-width:0.264583;stroke-dasharray:none"
         id="rect12"
         width="0.80859512"
         height="5.8457122"
         x="173.89267"
         y="127.32513" /><rect
         style="fill:#ffffff;fill-opacity:1;stroke:none;stroke-width:0.264583;stroke-dasharray:none"
         id="rect13"
         width="0.80859512"
         height="5.8457122"
         x="169.75183"
         y="127.32513" /><rect
         style="fill:#ffffff;fill-opacity:1;stroke:none;stroke-width:0.264583;stroke-dasharray:none"
         id="rect14"
         width="0.80859512"
         height="5.8457122"
         x="165.61098"
         y="127.32513" /><path
         style="fill:#000000;fill-opacity:1;stroke:#ffffff;stroke-width:0.264583;stroke-linecap:butt;stroke-linejoin:round;stroke-dasharray:none"
         d="m 254.36755,86.651041 -78.39561,5e-5 -19.4709,33.969439 78.38354,-4e-5 z"
         id="path14"
         sodipodi:nodetypes="ccccc" /><path
         style="fill:#000000;fill-opacity:1;stroke:#ffffff;stroke-width:0.264583;stroke-linecap:butt;stroke-linejoin:round;stroke-dasharray:none"
         d="m 254.35544,86.651091 7e-5,19.254959 -19.47092,33.96944 v -19.255 z"
         id="path15" /></g><path
       style="fill:#999999;stroke-width:1.5875;stroke-linecap:square"
       d="m 209.37944,68.637832 55.01092,-5.1e-5 -19.48299,33.969449 h -54.99881 z"
       id="path1"
       sodipodi:nodetypes="ccccc" /><path
       id="path31"
       style="fill:#e95420;fill-opacity:1;stroke-width:0.264584;stroke-dasharray:none"
       d="m 224.0605,68.541679 c -3.88584,0.0065 -8.02946,0.611015 -11.42031,1.642117 -3.4402,1.04611 -5.8924,2.445241 -7.52919,4.087586 -1.61851,1.624009 -2.39319,3.429683 -2.842,5.263068 -0.42021,1.716552 -0.62005,3.815497 -0.62329,5.544349 -0.007,3.834081 0.99325,6.600452 3.81232,9.236197 1.29458,1.210385 2.87339,2.267982 4.45335,2.989768 1.60668,0.734 3.26761,1.154599 5.11753,1.154582 3.71177,-3.4e-5 8.11114,-1.701222 10.88426,-4.154131 1.42623,-1.26155 2.22847,-2.606405 2.54092,-4.18526 0.3289,-1.661966 0.0886,-3.12059 0.12297,-5.087751 0.0344,-1.971519 0.3925,-3.602696 1.33576,-5.55732 0.88565,-1.835228 2.18767,-3.639849 2.91774,-5.259646 0.73959,-1.640902 0.81512,-3.027161 -0.62283,-4.066224 -1.41317,-1.021162 -4.24585,-1.613871 -8.14723,-1.607335 z m 3.89676,5.067475 c 0.37323,0.02727 0.6615,0.141141 0.82896,0.347283 0.51472,0.633466 -0.31338,2.007476 -1.42195,2.909821 -1.12507,0.915769 -2.45037,1.217981 -3.22789,0.604642 -0.75579,-0.60233 -0.54833,-1.850167 0.84173,-2.866736 0.95137,-0.690822 2.15837,-1.054978 2.97915,-0.99501 z m -8.07347,2.140814 c 1.09174,-0.001 2.06075,0.125835 2.87629,0.352627 -0.2843,0.84311 -0.0545,1.595298 0.57768,2.064278 0.62809,0.461801 1.50322,0.5396 2.36317,0.300765 0.58169,1.423185 0.39365,3.612467 0.0344,5.539036 -0.68412,-0.04138 -1.46664,-0.0734 -2.32324,-0.09613 0.43379,-2.775918 -0.68412,-5.257859 -4.67214,-5.254308 -1.09205,9.73e-4 -2.22266,0.207153 -3.24099,0.565491 -0.39035,-0.801113 -0.80214,-1.637854 -1.21934,-2.461564 1.73157,-0.638781 3.70883,-1.008437 5.60415,-1.01019 0,0 0,-5e-6 0,-5e-6 z m -7.03027,1.625581 c 0.48214,0.799157 0.9551,1.606004 1.40602,2.386454 -2.10859,1.096993 -3.35255,2.798956 -3.4572,4.639741 -0.10367,1.823555 0.92428,3.394223 2.45521,4.33115 -0.56651,0.751474 -1.12678,1.51466 -1.66577,2.266959 -1.75488,-1.041044 -3.07956,-2.610252 -3.61468,-4.48367 0.65446,-0.498911 1.10952,-1.237281 1.13533,-2.046788 0.0259,-0.812231 -0.38779,-1.522893 -1.06442,-1.970583 0.64758,-2.005045 2.20929,-3.83478 4.80551,-5.123263 z m -6.67552,5.415715 c 1.11601,-0.08405 2.08622,0.698578 2.06559,1.719991 -0.0205,1.016805 -0.98195,1.872676 -2.0555,1.936881 -1.08225,0.06473 -1.88562,-0.677703 -1.89962,-1.667012 -0.014,-0.990122 0.75683,-1.904555 1.88953,-1.98986 z m 17.01257,2.079617 c 0.84905,0.04808 1.62861,0.104625 2.3177,0.169577 -0.50188,2.045806 -1.32887,3.70288 -2.89191,5.034937 -0.64268,-0.276357 -1.47596,-0.261993 -2.26704,0.134144 -0.80047,0.397035 -1.36701,1.071558 -1.6087,1.813719 -0.75698,0.182273 -1.54582,0.283914 -2.35024,0.284206 -1.38334,5.02e-4 -2.68223,-0.289999 -3.84093,-0.806216 0.52657,-0.763145 1.07361,-1.539438 1.62162,-2.299556 0.76921,0.307732 1.63252,0.48155 2.5401,0.481118 1.58338,-7.54e-4 3.04136,-0.526034 4.1672,-1.384907 1.13425,-0.865299 1.91075,-2.047577 2.3122,-3.427017 0,-10e-7 0,-3e-6 0,-5e-6 z m -1.61294,5.756638 c 0.66217,-0.0025 1.24012,0.342367 1.48727,0.94783 0.34605,0.889481 -0.14512,1.997972 -1.14613,2.506909 -0.99161,0.504304 -2.04505,0.18622 -2.39886,-0.710629 -0.34805,-0.900451 0.13329,-2.018674 1.13198,-2.517446 0.30745,-0.152694 0.62506,-0.225541 0.92574,-0.226664 z"
       inkscape:path-effect="#path-effect9"
       inkscape:original-d="m 215.20683,71.714882 c -7.40261,0 -13.39835,6.001922 -13.39835,13.412181 0,7.403556 5.99574,13.41218 13.39835,13.41218 7.40262,0 13.39836,-6.008624 13.39836,-13.41218 0,-7.410259 -5.99574,-13.412181 -13.39836,-13.412181 z m 4.578,3.832659 c 0.28109,0.0074 0.56429,0.08419 0.82544,0.237459 0.83577,0.490456 1.12318,1.570885 0.64008,2.419247 -0.48312,0.848371 -1.54743,1.140112 -2.3831,0.649645 -0.82927,-0.490456 -1.11668,-1.570885 -0.64008,-2.419247 0.33214,-0.583255 0.93926,-0.903373 1.55766,-0.887104 z m -4.48266,1.894356 c 0.69864,0 1.3777,0.09961 2.02408,0.278571 0.11752,0.715811 0.52874,1.3651 1.19474,1.756134 0.65939,0.384452 1.42328,0.424463 2.08928,0.172601 1.29275,1.285754 2.12864,3.035551 2.25267,4.984157 l -2.48765,0.0397 c -0.22854,-2.644509 -2.40923,-4.712321 -5.07312,-4.712321 -0.7639,0 -1.495,0.172108 -2.14138,0.477044 l -1.21459,-2.200571 c 1.01196,-0.510354 2.14811,-0.79531 3.35597,-0.79531 z m -4.19806,1.292557 1.27307,2.167256 c -1.31229,0.934449 -2.16761,2.478725 -2.16761,4.228542 0,1.749722 0.85532,3.294353 2.16761,4.228896 l -1.27307,2.167261 c -1.5278,-1.03399 -2.66401,-2.618261 -3.13411,-4.467423 0.54845,-0.457357 0.90129,-1.153315 0.90129,-1.928734 0,-0.775514 -0.35284,-1.471376 -0.90129,-1.928733 0.47663,-1.849164 1.60631,-3.433126 3.13411,-4.467065 z m -4.68149,4.626197 c 0.95979,0 1.74338,0.788592 1.74338,1.769601 0,0.974303 -0.78359,1.769956 -1.74338,1.769956 -0.95977,0 -1.74302,-0.795653 -1.74302,-1.769956 0,-0.974303 0.77672,-1.769601 1.74302,-1.769601 z m 13.94629,2.227153 2.48765,0.0397 c -0.12403,1.948606 -0.96642,3.698406 -2.25267,4.98416 -0.65949,-0.25186 -1.42989,-0.218823 -2.08928,0.172241 -0.666,0.391058 -1.08373,1.047274 -1.19475,1.756492 -0.64637,0.178961 -1.32543,0.278216 -2.02407,0.278216 -1.20135,0 -2.344,-0.284875 -3.35597,-0.79531 l 1.21424,-2.200215 c 0.65288,0.304841 1.38421,0.477041 2.14811,0.477041 2.66389,0 4.84471,-2.074421 5.06674,-4.71232 z m -0.67374,5.579226 c 0.61672,-0.01455 1.22494,0.304176 1.56155,0.882851 0.47661,0.848423 0.19606,1.928837 -0.63972,2.419245 -0.83568,0.490511 -1.89989,0.19877 -2.38309,-0.649646 -0.4766,-0.848326 -0.19606,-1.928734 0.63972,-2.419245 0.25912,-0.151186 0.54121,-0.226594 0.82154,-0.233205 z"
       transform="translate(12.481386)" /><g
       id="g7"
       transform="translate(-93.917084,-18.013258)"><rect
         style="fill:#000000;fill-opacity:1;stroke:#ffffff;stroke-width:0.264583;stroke-linecap:butt;stroke-linejoin:round;stroke-dasharray:none;paint-order:normal"
         id="rect1"
         width="78.383522"
         height="19.254986"
         x="156.50104"
         y="120.62049" /><ellipse
         style="fill:#ffffff;fill-opacity:1;stroke:none;stroke-width:0.264583;stroke-dasharray:none"
         id="ellipse1"
         cx="226.01952"
         cy="130.24799"
         rx="3.8959584"
         ry="3.9218073" /><rect
         style="fill:#ffffff;fill-opacity:1;stroke:none;stroke-width:0.264583;stroke-dasharray:none"
         id="rect2"
         width="0.80859512"
         height="5.8457122"
         x="161.47014"
         y="127.32513" /><rect
         style="fill:#ffffff;fill-opacity:1;stroke:none;stroke-width:0.264583;stroke-dasharray:none"
         id="rect3"
         width="0.80859512"
         height="5.8457122"
         x="173.89267"
         y="127.32513" /><rect
         style="fill:#ffffff;fill-opacity:1;stroke:none;stroke-width:0.264583;stroke-dasharray:none"
         id="rect4"
         width="0.80859512"
         height="5.8457122"
         x="169.75183"
         y="127.32513" /><rect
         style="fill:#ffffff;fill-opacity:1;stroke:none;stroke-width:0.264583;stroke-dasharray:none"
         id="rect6"
         width="0.80859512"
         height="5.8457122"
         x="165.61098"
         y="127.32513" /><path
         style="fill:#000000;fill-opacity:1;stroke:#ffffff;stroke-width:0.264583;stroke-linecap:butt;stroke-linejoin:round;stroke-dasharray:none"
         d="m 254.36755,86.651041 -78.39561,5e-5 -19.4709,33.969439 78.38354,-4e-5 z"
         id="path6"
         sodipodi:nodetypes="ccccc" /><path
         style="fill:#000000;fill-opacity:1;stroke:#ffffff;stroke-width:0.264583;stroke-linecap:butt;stroke-linejoin:round;stroke-dasharray:none"
         d="m 254.35544,86.651091 7e-5,19.254959 -19.47092,33.96944 v -19.255 z"
         id="path7" /></g><path
       style="fill:#999999;stroke-width:1.5875;stroke-linecap:square"
       d="m 93.74718,68.637832 55.01092,-5.1e-5 -19.48299,33.969449 H 74.2763 Z"
       id="path8"
       sodipodi:nodetypes="ccccc" /><path
       id="path9"
       style="fill:#e95420;fill-opacity:1;stroke-width:0.264584;stroke-dasharray:none"
       d="m 111.15385,70.102381 c -3.50174,0.21672 -7.55849,0.899896 -11.0594,1.830554 -3.559781,0.946306 -6.434245,2.106241 -8.553756,3.446028 -4.091484,2.586314 -5.452435,6.032348 -5.45305,9.676434 -6.42e-4,3.799509 1.622116,6.951637 4.272858,9.44692 2.536013,2.387283 5.651609,3.962089 9.163042,3.961012 3.549936,-0.0011 8.268096,-1.631233 11.024446,-4.124179 1.40347,-1.269353 2.14881,-2.625144 2.40636,-4.207166 0.25249,-1.550962 -0.009,-3.233228 0.0101,-5.086624 0.0202,-1.952614 0.39791,-3.619161 1.40326,-5.540786 0.95067,-1.817108 2.37109,-3.576853 3.32433,-5.076264 0.96591,-1.519351 1.36647,-2.710461 0.35329,-3.488031 -0.9976,-0.765612 -3.34723,-1.057248 -6.89145,-0.837898 z m 2.45183,4.127972 c 0.32635,0.0015 0.56015,0.08445 0.67122,0.257816 0.33401,0.521173 -0.61032,1.837076 -1.70593,2.731202 -1.11539,0.910263 -2.33275,1.268389 -2.9729,0.72987 -0.62245,-0.530045 -0.25371,-1.672823 1.16968,-2.66039 0.96973,-0.668947 2.12544,-1.061683 2.83793,-1.058498 z m -7.69967,2.323523 c 1.02083,-0.04231 1.89745,0.03075 2.61421,0.200635 -0.38045,0.783509 -0.25918,1.468805 0.26765,1.879215 0.52407,0.404001 1.31152,0.436381 2.10817,0.168455 0.3541,1.264016 0.0201,3.455655 -0.36865,5.326975 -0.6143,-0.01369 -1.32556,-0.01482 -2.11346,-0.0061 0.53062,-2.75621 -0.2411,-4.983783 -3.9578,-4.857082 -1.03018,0.03512 -2.13941,0.257136 -3.16301,0.611635 -0.30653,-0.776862 -0.57469,-1.468964 -0.87725,-2.246783 1.77235,-0.610245 3.72592,-1.003863 5.49014,-1.076981 0,0 0,-6e-6 0,-6e-6 z m -6.974754,1.658843 c 0.355932,0.70485 0.745843,1.486947 1.097714,2.191994 -2.18802,1.064164 -3.600291,2.6513 -3.806376,4.443034 -0.202964,1.764596 0.802232,3.314543 2.279906,4.215983 -0.588872,0.73964 -1.176524,1.491424 -1.747423,2.228365 -1.696987,-1.00282 -3.041751,-2.580172 -3.538564,-4.417515 0.701418,-0.475522 1.200678,-1.192701 1.269054,-1.975968 0.06867,-0.786692 -0.312114,-1.475102 -0.990724,-1.918234 0.832712,-1.910123 2.688175,-3.558012 5.436413,-4.767659 z m -7.460241,4.98683 c 1.240907,-0.03328 2.179372,0.732181 2.106649,1.724707 -0.07215,0.984742 -1.102647,1.810003 -2.259989,1.835075 -1.160646,0.02514 -2.070142,-0.757083 -2.053218,-1.733079 0.01691,-0.974951 0.960786,-1.793295 2.206558,-1.826703 z m 16.699105,1.869644 c 0.78365,0.01828 1.49549,0.04578 2.11843,0.08481 -0.51451,2.04149 -1.27291,3.700147 -2.79005,5.058457 -0.60199,-0.257847 -1.39158,-0.223344 -2.16034,0.183294 -0.77751,0.407592 -1.34816,1.080716 -1.61495,1.811395 -0.7402,0.191412 -1.51214,0.302875 -2.29729,0.314326 -1.35035,0.01969 -2.613077,-0.249352 -3.739073,-0.744917 0.555933,-0.743663 1.135534,-1.517548 1.700529,-2.262824 0.745924,0.29275 1.583814,0.451034 2.465164,0.435502 1.53893,-0.02712 2.95297,-0.573282 4.0452,-1.446633 1.10275,-0.881759 1.84862,-2.066184 2.27238,-3.433403 0,0 0,-5e-6 0,-5e-6 z m -1.67231,5.711447 c 0.63044,-0.01686 1.17052,0.310154 1.39054,0.903584 0.30791,0.874788 -0.1931,1.97367 -1.18904,2.489774 -0.99327,0.514861 -1.99237,0.207751 -2.28696,-0.660012 -0.2895,-0.873372 0.22436,-1.980014 1.19462,-2.490492 0.29917,-0.156573 0.60434,-0.235194 0.89084,-0.242854 z"
       inkscape:path-effect="#path-effect10"
       inkscape:original-d="m 99.574574,71.714882 c -7.40261,0 -13.39835,6.001922 -13.39835,13.412181 0,7.403556 5.99574,13.41218 13.39835,13.41218 7.402616,0 13.398356,-6.008624 13.398356,-13.41218 0,-7.410259 -5.99574,-13.412181 -13.398356,-13.412181 z m 4.577996,3.832659 c 0.28109,0.0074 0.56429,0.08419 0.82544,0.237459 0.83577,0.490456 1.12318,1.570885 0.64008,2.419247 -0.48312,0.848371 -1.54743,1.140112 -2.3831,0.649645 -0.82927,-0.490456 -1.11668,-1.570885 -0.64008,-2.419247 0.33214,-0.583255 0.93926,-0.903373 1.55766,-0.887104 z m -4.482656,1.894356 c 0.698636,0 1.377696,0.09961 2.024076,0.278571 0.11752,0.715811 0.52874,1.3651 1.19474,1.756134 0.65939,0.384452 1.42328,0.424463 2.08928,0.172601 1.29275,1.285754 2.12864,3.035551 2.25267,4.984157 l -2.48765,0.0397 c -0.22854,-2.644509 -2.40923,-4.712321 -5.073116,-4.712321 -0.7639,0 -1.495,0.172108 -2.14138,0.477044 l -1.21459,-2.200571 c 1.01196,-0.510354 2.14811,-0.79531 3.35597,-0.79531 z m -4.19806,1.292557 1.27307,2.167256 c -1.31229,0.934449 -2.16761,2.478725 -2.16761,4.228542 0,1.749722 0.85532,3.294353 2.16761,4.228896 l -1.27307,2.167261 c -1.5278,-1.03399 -2.66401,-2.618261 -3.13411,-4.467423 0.54845,-0.457357 0.90129,-1.153315 0.90129,-1.928734 0,-0.775514 -0.35284,-1.471376 -0.90129,-1.928733 0.47663,-1.849164 1.60631,-3.433126 3.13411,-4.467065 z m -4.68149,4.626197 c 0.95979,0 1.74338,0.788592 1.74338,1.769601 0,0.974303 -0.78359,1.769956 -1.74338,1.769956 -0.95977,0 -1.74302,-0.795653 -1.74302,-1.769956 0,-0.974303 0.77672,-1.769601 1.74302,-1.769601 z m 13.946286,2.227153 2.48765,0.0397 c -0.12403,1.948606 -0.96642,3.698406 -2.25267,4.98416 -0.65949,-0.25186 -1.42989,-0.218823 -2.08928,0.172241 -0.666,0.391058 -1.08373,1.047274 -1.19475,1.756492 -0.64637,0.178961 -1.32543,0.278216 -2.024066,0.278216 -1.20135,0 -2.344,-0.284875 -3.35597,-0.79531 l 1.21424,-2.200215 c 0.65288,0.304841 1.38421,0.477041 2.14811,0.477041 2.663886,0 4.844706,-2.074421 5.066736,-4.71232 z m -0.67374,5.579226 c 0.61672,-0.01455 1.22494,0.304176 1.56155,0.882851 0.47661,0.848423 0.19606,1.928837 -0.63972,2.419245 -0.83568,0.490511 -1.89989,0.19877 -2.38309,-0.649646 -0.4766,-0.848326 -0.19606,-1.928734 0.63972,-2.419245 0.25912,-0.151186 0.54121,-0.226594 0.82154,-0.233205 z"
       transform="translate(12.481386)" /><path
       style="fill:none;stroke:#808000;stroke-width:0.529167;stroke-linecap:square;stroke-dasharray:none"
       d="M 98.658579,71.708657 148.7581,68.637787"
       id="path13" /><path
       id="rect15"
       style="fill:#ffffff;stroke:#000000;stroke-width:0.0264584;stroke-linecap:square;stroke-dasharray:none"
       d="m 98.658573,71.149814 -0.162576,0.162583 H 98.26309 v 0.231442 l -0.164065,0.164072 0.164065,0.164073 v 0.231442 h 0.231434 l 0.164066,0.164072 0.164065,-0.164072 h 0.231432 v -0.231442 l 0.164066,-0.164073 -0.164066,-0.164072 v -0.231442 h -0.232905 z" /><path
       id="path16"
       style="fill:#ffffff;stroke:#000000;stroke-width:0.0264583;stroke-linecap:square;stroke-dasharray:none"
       d="m 148.75806,68.078948 -0.16263,0.162582 h -0.23291 v 0.231442 l -0.16409,0.164072 0.16409,0.164072 v 0.231442 h 0.23144 l 0.16408,0.164072 0.16409,-0.164072 h 0.23144 v -0.231442 l 0.16408,-0.164072 -0.16408,-0.164072 V 68.24153 h -0.23291 z" /><path
       style="fill:none;stroke:#808000;stroke-width:0.529167;stroke-linecap:square;stroke-dasharray:none"
       d="m 209.37944,68.637832 55.01091,-4.2e-5"
       id="path13-9"
       sodipodi:nodetypes="cc" /><path
       id="rect15-1"
       style="fill:#ffffff;stroke:#000000;stroke-width:0.0264583;stroke-linecap:square;stroke-dasharray:none"
       d="m 209.37946,68.078989 -0.16263,0.162582 h -0.23291 v 0.231442 l -0.16409,0.164072 0.16409,0.164072 v 0.231442 h 0.23144 l 0.16408,0.164072 0.16409,-0.164072 h 0.23144 v -0.231442 l 0.16408,-0.164072 -0.16408,-0.164072 v -0.231442 h -0.23291 z" /><path
       id="path16-2"
       style="fill:#ffffff;stroke:#000000;stroke-width:0.0264583;stroke-linecap:square;stroke-dasharray:none"
       d="m 264.52266,68.078966 -0.16264,0.162583 h -0.2329 v 0.231441 l -0.16409,0.164073 0.16409,0.164072 v 0.231441 h 0.23143 l 0.16409,0.164073 0.16409,-0.164073 h 0.23143 v -0.231441 l 0.16409,-0.164072 -0.16409,-0.164073 v -0.231441 h -0.2329 z" /><g
       id="text16"
       style="font-weight:500;font-size:4.66382px;line-height:1.2;font-family:Inter;-inkscape-font-specification:'Inter Medium';stroke-width:0.529167;stroke-linecap:square"
       aria-label="Drag the first handle&#10;to this corner"><path
         d="m 126.97644,46.767685 h -0.83575 v -0.43951 h 0.80387 q 0.39624,0 0.65357,-0.150299 0.25733,-0.150299 0.38486,-0.432679 0.12753,-0.284657 0.12753,-0.678622 0,-0.393965 -0.12525,-0.674068 -0.12525,-0.280102 -0.37803,-0.428124 -0.25049,-0.150299 -0.62852,-0.150299 h -0.85625 v -0.43951 h 0.88813 q 0.49872,0 0.85853,0.204953 0.36208,0.202676 0.55565,0.582977 0.19356,0.378025 0.19356,0.904071 0,0.526046 -0.19584,0.908625 -0.19357,0.380302 -0.5602,0.587532 -0.36664,0.204953 -0.88586,0.204953 z m -0.59208,-3.393111 v 3.393111 h -0.50555 v -3.393111 z m 2.68944,3.393111 v -2.404782 h 0.46 v 0.389411 h 0.009 q 0.066,-0.198122 0.20723,-0.30743 0.14347,-0.111585 0.37347,-0.111585 0.0547,0 0.1002,0.0046 0.0478,0.0023 0.0752,0.0068 v 0.448619 q -0.0273,-0.0068 -0.0979,-0.01366 -0.0706,-0.0091 -0.15486,-0.0091 -0.13435,0 -0.24822,0.06149 -0.11158,0.06149 -0.17762,0.189012 -0.066,0.127526 -0.066,0.325647 v 1.421008 z m 2.25621,0.03871 q -0.23911,0 -0.42812,-0.08198 -0.18674,-0.08198 -0.29604,-0.243666 -0.10931,-0.161685 -0.10931,-0.400797 0,-0.204953 0.0774,-0.337034 0.0797,-0.132081 0.21406,-0.209508 0.13436,-0.07743 0.30515,-0.11614 0.17079,-0.04099 0.35297,-0.06149 0.22773,-0.0296 0.35753,-0.04555 0.13208,-0.01822 0.18674,-0.05465 0.0569,-0.03871 0.0569,-0.125249 v -0.0205 q 0,-0.11614 -0.0569,-0.204953 -0.0569,-0.09109 -0.16624,-0.143467 -0.10931,-0.05238 -0.26189,-0.05238 -0.15257,0 -0.27099,0.0501 -0.11614,0.0501 -0.18673,0.138913 -0.0683,0.08654 -0.0774,0.198121 h -0.47139 q 0.0114,-0.230003 0.13891,-0.405351 0.12753,-0.175349 0.3507,-0.275548 0.22317,-0.1002 0.52377,-0.1002 0.22089,0 0.39852,0.05693 0.17762,0.05693 0.30059,0.163962 0.12525,0.104754 0.18902,0.252776 0.066,0.148021 0.066,0.330202 v 1.648733 h -0.47367 v -0.341588 h -0.009 q -0.0501,0.09792 -0.13664,0.184457 -0.0865,0.08654 -0.22772,0.14119 -0.13892,0.05465 -0.34615,0.05465 z m 0.0979,-0.387133 q 0.21178,0 0.34842,-0.07515 0.13891,-0.07743 0.20495,-0.202675 0.0683,-0.125249 0.0683,-0.273271 v -0.28238 q -0.0251,0.0205 -0.082,0.03871 -0.0547,0.01594 -0.13436,0.03188 -0.0797,0.01366 -0.17307,0.0296 -0.0934,0.01594 -0.18674,0.02733 -0.13208,0.01822 -0.24594,0.06148 -0.11387,0.04099 -0.18446,0.11614 -0.0683,0.07515 -0.0683,0.198122 0,0.102476 0.0547,0.177626 0.0547,0.07287 0.15713,0.113862 0.10247,0.03871 0.24139,0.03871 z m 2.68716,1.332194 q -0.29605,0 -0.52149,-0.08881 -0.22318,-0.08654 -0.35981,-0.255052 -0.13664,-0.16624 -0.16852,-0.400797 h 0.4805 q 0.0319,0.11614 0.10931,0.193567 0.0797,0.0797 0.19585,0.118417 0.11841,0.04099 0.26416,0.04099 0.29149,0 0.45545,-0.15713 0.16396,-0.157131 0.16396,-0.44862 V 46.38966 h -0.002 q -0.082,0.138913 -0.19584,0.230003 -0.11159,0.09109 -0.2505,0.136636 -0.13663,0.04327 -0.29604,0.04327 -0.31199,0 -0.54882,-0.157131 -0.23456,-0.159408 -0.36436,-0.437233 -0.1298,-0.280103 -0.1298,-0.646741 0,-0.366638 0.1298,-0.646741 0.13208,-0.282379 0.36664,-0.43951 0.23455,-0.157131 0.54426,-0.157131 0.15713,0 0.29604,0.04327 0.14119,0.04327 0.25506,0.136636 0.11614,0.09109 0.19584,0.234557 h 0.002 v -0.366638 h 0.47367 v 2.3729 q 0,0.364361 -0.14802,0.587532 -0.14575,0.223171 -0.39625,0.325648 -0.24822,0.102476 -0.55109,0.102476 z m -0.0273,-1.364076 q 0.20495,0 0.35525,-0.102476 0.15258,-0.102477 0.23456,-0.289212 0.0843,-0.189012 0.0843,-0.43951 0,-0.252776 -0.0843,-0.43951 -0.082,-0.186735 -0.23456,-0.289212 -0.1503,-0.102476 -0.35525,-0.102476 -0.19357,0 -0.34159,0.09564 -0.14574,0.09337 -0.23,0.280103 -0.082,0.184457 -0.082,0.455451 0,0.268716 0.082,0.455451 0.0843,0.184458 0.23,0.280102 0.14802,0.09564 0.34159,0.09564 z m 3.9351,-2.02448 v 0.396242 h -1.39368 v -0.396242 z m -0.97011,-0.65585 h 0.4805 v 2.425278 q 0,0.13208 0.0546,0.186735 0.0569,0.05238 0.2004,0.05238 0.0547,0 0.1207,0 0.066,0 0.11386,0 v 0.396243 q -0.0592,0 -0.14347,0 -0.082,0 -0.15941,0 -0.33931,0 -0.50327,-0.14119 -0.16396,-0.143467 -0.16396,-0.432679 z m 1.83091,1.67606 v 1.384572 h -0.4805 v -3.393111 h 0.4805 v 1.58497 h -0.12069 q 0.11841,-0.32337 0.32792,-0.482778 0.21179,-0.161686 0.51011,-0.161686 0.24822,0 0.44406,0.109309 0.19812,0.107031 0.31199,0.318816 0.11386,0.211784 0.11386,0.526046 v 1.498434 h -0.4805 v -1.439226 q 0,-0.289211 -0.13892,-0.434956 -0.13663,-0.148021 -0.38713,-0.148021 -0.16396,0 -0.29604,0.06604 -0.12981,0.06604 -0.20723,0.207231 -0.0774,0.141189 -0.0774,0.36436 z m 3.15628,1.439226 q -0.35753,0 -0.61486,-0.161685 -0.25505,-0.161685 -0.39397,-0.444065 -0.13663,-0.284657 -0.13663,-0.646741 0,-0.368915 0.14347,-0.651295 0.14346,-0.284657 0.39624,-0.446342 0.25277,-0.163962 0.5807,-0.163962 0.25505,0 0.46,0.09109 0.20723,0.09109 0.35526,0.259607 0.14802,0.16624 0.22772,0.396243 0.0797,0.230002 0.0797,0.510105 v 0.129803 h -2.02675 v -0.36436 h 1.77398 l -0.21179,0.111585 q 0,-0.223171 -0.0797,-0.387133 -0.0797,-0.16624 -0.22772,-0.255053 -0.14575,-0.09109 -0.34615,-0.09109 -0.19812,0 -0.34386,0.09109 -0.14575,0.08881 -0.22773,0.255053 -0.0797,0.163962 -0.0797,0.387133 v 0.20723 q 0,0.227726 0.0797,0.403075 0.0797,0.173071 0.23,0.270993 0.15258,0.09792 0.36892,0.09792 0.15713,0 0.27782,-0.04782 0.1207,-0.0501 0.2004,-0.136636 0.0797,-0.08654 0.11387,-0.200398 h 0.46228 q -0.0433,0.23228 -0.19357,0.409906 -0.14802,0.175349 -0.37347,0.275548 -0.22317,0.100199 -0.49416,0.100199 z m 3.78935,-2.459436 v 0.396242 h -1.40051 v -0.396242 z m -0.97011,2.404782 v -2.794193 q 0,-0.191289 0.0797,-0.32337 0.082,-0.134358 0.23456,-0.204953 0.15258,-0.07059 0.36892,-0.07059 0.0934,0 0.17535,0 0.0842,0 0.11158,0 v 0.396242 q -0.0228,0 -0.0956,0 -0.0729,0 -0.11842,0 -0.14802,0 -0.21179,0.06604 -0.0638,0.06376 -0.0638,0.214062 v 2.716766 z m 1.33219,0 v -2.404782 h 0.48051 v 2.404782 z m 0.23912,-2.819243 q -0.12753,0 -0.21634,-0.08426 -0.0865,-0.08654 -0.0865,-0.209508 0,-0.125249 0.0865,-0.209507 0.0888,-0.08654 0.21634,-0.08654 0.12752,0 0.21634,0.08654 0.0888,0.08426 0.0888,0.209507 0,0.122972 -0.0888,0.209508 -0.0888,0.08426 -0.21634,0.08426 z m 0.78337,2.819243 v -2.404782 h 0.46001 v 0.389411 h 0.009 q 0.066,-0.198122 0.20723,-0.30743 0.14346,-0.111585 0.37347,-0.111585 0.0547,0 0.1002,0.0046 0.0478,0.0023 0.0752,0.0068 v 0.448619 q -0.0273,-0.0068 -0.0979,-0.01366 -0.0706,-0.0091 -0.15485,-0.0091 -0.13436,0 -0.24822,0.06149 -0.11159,0.06149 -0.17763,0.189012 -0.066,0.127526 -0.066,0.325647 v 1.421008 z m 2.4731,0.05693 q -0.27555,0 -0.49644,-0.08881 -0.22089,-0.08881 -0.35525,-0.264161 -0.13436,-0.175349 -0.15258,-0.434956 h 0.47367 q 0.0205,0.193567 0.15258,0.300598 0.13436,0.104753 0.36891,0.104753 0.23001,0 0.36209,-0.09337 0.13208,-0.09337 0.13208,-0.236835 0,-0.122972 -0.0957,-0.195844 -0.0934,-0.07515 -0.2505,-0.109308 l -0.39851,-0.08881 q -0.33932,-0.07515 -0.51466,-0.248221 -0.17535,-0.173071 -0.17535,-0.43951 0,-0.214062 0.11386,-0.375747 0.11614,-0.161686 0.32337,-0.252776 0.20723,-0.09109 0.48278,-0.09109 0.27099,0 0.4805,0.09564 0.21178,0.09564 0.33248,0.270993 0.12297,0.175349 0.1298,0.419015 h -0.46 q -0.002,-0.175348 -0.13208,-0.289211 -0.12981,-0.11614 -0.34387,-0.11614 -0.20495,0 -0.32565,0.09564 -0.12069,0.09564 -0.12069,0.234558 0,0.122972 0.0911,0.198121 0.0934,0.07515 0.25505,0.111586 l 0.40991,0.09109 q 0.35297,0.07743 0.51693,0.239112 0.16624,0.161685 0.16624,0.423569 0,0.230003 -0.12752,0.396243 -0.12525,0.163962 -0.34387,0.255052 -0.21862,0.08881 -0.49872,0.08881 z m 2.59835,-2.461713 v 0.396242 h -1.39368 v -0.396242 z m -0.97011,-0.65585 h 0.4805 v 2.425278 q 0,0.13208 0.0546,0.186735 0.0569,0.05238 0.2004,0.05238 0.0547,0 0.1207,0 0.066,0 0.11386,0 v 0.396243 q -0.0592,0 -0.14347,0 -0.082,0 -0.1594,0 -0.33932,0 -0.50328,-0.14119 -0.16396,-0.143467 -0.16396,-0.432679 z m 2.94221,1.67606 v 1.384572 h -0.4805 v -3.393111 h 0.4805 v 1.58497 h -0.12069 q 0.11842,-0.32337 0.32792,-0.482778 0.21179,-0.161686 0.51011,-0.161686 0.24822,0 0.44406,0.109309 0.19813,0.107031 0.31199,0.318816 0.11386,0.211784 0.11386,0.526046 v 1.498434 h -0.4805 v -1.439226 q 0,-0.289211 -0.13891,-0.434956 -0.13664,-0.148021 -0.38714,-0.148021 -0.16396,0 -0.29604,0.06604 -0.1298,0.06604 -0.20723,0.207231 -0.0774,0.141189 -0.0774,0.36436 z m 2.86252,1.423285 q -0.23912,0 -0.42813,-0.08198 -0.18673,-0.08198 -0.29604,-0.243666 -0.10931,-0.161685 -0.10931,-0.400797 0,-0.204953 0.0774,-0.337034 0.0797,-0.132081 0.21406,-0.209508 0.13436,-0.07743 0.30515,-0.11614 0.17079,-0.04099 0.35298,-0.06149 0.22772,-0.0296 0.35752,-0.04555 0.13209,-0.01822 0.18674,-0.05465 0.0569,-0.03871 0.0569,-0.125249 v -0.0205 q 0,-0.11614 -0.0569,-0.204953 -0.0569,-0.09109 -0.16624,-0.143467 -0.10931,-0.05238 -0.26188,-0.05238 -0.15258,0 -0.271,0.0501 -0.11614,0.0501 -0.18673,0.138913 -0.0683,0.08654 -0.0774,0.198121 h -0.47139 q 0.0114,-0.230003 0.13891,-0.405351 0.12753,-0.175349 0.3507,-0.275548 0.22317,-0.1002 0.52377,-0.1002 0.22089,0 0.39852,0.05693 0.17762,0.05693 0.30059,0.163962 0.12525,0.104754 0.18902,0.252776 0.066,0.148021 0.066,0.330202 v 1.648733 h -0.47367 v -0.341588 h -0.009 q -0.0501,0.09792 -0.13664,0.184457 -0.0865,0.08654 -0.22772,0.14119 -0.13891,0.05465 -0.34614,0.05465 z m 0.0979,-0.387133 q 0.21178,0 0.34842,-0.07515 0.13891,-0.07743 0.20495,-0.202675 0.0683,-0.125249 0.0683,-0.273271 v -0.28238 q -0.025,0.0205 -0.082,0.03871 -0.0547,0.01594 -0.13436,0.03188 -0.0797,0.01366 -0.17307,0.0296 -0.0934,0.01594 -0.18674,0.02733 -0.13208,0.01822 -0.24594,0.06148 -0.11386,0.04099 -0.18446,0.11614 -0.0683,0.07515 -0.0683,0.198122 0,0.102476 0.0547,0.177626 0.0546,0.07287 0.15713,0.113862 0.10247,0.03871 0.24139,0.03871 z m 2.11784,-1.036152 v 1.384572 h -0.4805 v -2.404782 h 0.47139 v 0.596641 h -0.11158 q 0.11842,-0.32337 0.32792,-0.482778 0.21179,-0.161686 0.51011,-0.161686 0.24822,0 0.44406,0.109309 0.19813,0.107031 0.31199,0.318816 0.11386,0.211784 0.11386,0.526046 v 1.498434 h -0.4805 v -1.439226 q 0,-0.289211 -0.13891,-0.434956 -0.13664,-0.148021 -0.38714,-0.148021 -0.16396,0 -0.29604,0.06604 -0.1298,0.06604 -0.20723,0.207231 -0.0774,0.141189 -0.0774,0.36436 z m 3.05381,1.432394 q -0.31199,0 -0.54882,-0.15713 -0.23456,-0.159408 -0.36436,-0.439511 -0.12981,-0.282379 -0.12981,-0.653572 0,-0.371193 0.12981,-0.651295 0.13208,-0.28238 0.36663,-0.439511 0.23456,-0.159408 0.54427,-0.159408 0.15713,0 0.29604,0.04555 0.13891,0.04327 0.2505,0.129803 0.11386,0.08654 0.19129,0.220894 h 0.005 v -1.336749 h 0.48051 v 3.393111 h -0.4714 v -0.366638 h -0.005 q -0.082,0.138912 -0.19585,0.23228 -0.11386,0.09109 -0.25277,0.136635 -0.13891,0.04554 -0.29604,0.04554 z m 0.0979,-0.41446 q 0.20495,0 0.35525,-0.102477 0.15258,-0.104754 0.23456,-0.293766 0.0843,-0.189012 0.0843,-0.43951 0,-0.255053 -0.0843,-0.441788 -0.082,-0.189012 -0.23456,-0.291488 -0.1503,-0.104754 -0.35525,-0.104754 -0.19357,0 -0.34159,0.09565 -0.14574,0.09564 -0.23,0.282379 -0.082,0.186735 -0.082,0.460006 0,0.270993 0.082,0.457728 0.0843,0.184458 0.23,0.28238 0.14802,0.09564 0.34159,0.09564 z m 2.14517,-3.026473 v 3.393111 h -0.4805 v -3.393111 z m 1.56903,3.447765 q -0.35753,0 -0.61486,-0.161685 -0.25505,-0.161685 -0.39396,-0.444065 -0.13664,-0.284657 -0.13664,-0.646741 0,-0.368915 0.14347,-0.651295 0.14347,-0.284657 0.39624,-0.446342 0.25278,-0.163962 0.5807,-0.163962 0.25505,0 0.46001,0.09109 0.20723,0.09109 0.35525,0.259607 0.14802,0.16624 0.22772,0.396243 0.0797,0.230002 0.0797,0.510105 v 0.129803 h -2.02676 v -0.36436 h 1.77398 l -0.21178,0.111585 q 0,-0.223171 -0.0797,-0.387133 -0.0797,-0.16624 -0.22772,-0.255053 -0.14575,-0.09109 -0.34614,-0.09109 -0.19813,0 -0.34387,0.09109 -0.14574,0.08881 -0.22773,0.255053 -0.0797,0.163962 -0.0797,0.387133 v 0.20723 q 0,0.227726 0.0797,0.403075 0.0797,0.173071 0.23001,0.270993 0.15257,0.09792 0.36891,0.09792 0.15713,0 0.27783,-0.04782 0.12069,-0.0501 0.2004,-0.136636 0.0797,-0.08654 0.11386,-0.200398 h 0.46228 q -0.0433,0.23228 -0.19356,0.409906 -0.14803,0.175349 -0.37347,0.275548 -0.22318,0.100199 -0.49417,0.100199 z"
         id="path4" /><path
         d="m 126.99922,49.959487 v 0.396242 h -1.39368 v -0.396242 z m -0.97011,-0.65585 h 0.4805 v 2.425278 q 0,0.13208 0.0547,0.186735 0.0569,0.05238 0.2004,0.05238 0.0546,0 0.12069,0 0.066,0 0.11387,0 v 0.396243 q -0.0592,0 -0.14347,0 -0.082,0 -0.15941,0 -0.33931,0 -0.50327,-0.14119 -0.16396,-0.143467 -0.16396,-0.432679 z m 2.34284,3.115286 q -0.34387,0 -0.60348,-0.159408 -0.2596,-0.159408 -0.40535,-0.441787 -0.14346,-0.28238 -0.14346,-0.651296 0,-0.37347 0.14346,-0.655849 0.14575,-0.284657 0.40535,-0.444065 0.25961,-0.161685 0.60348,-0.161685 0.34386,0 0.60119,0.161685 0.25961,0.159408 0.40308,0.444065 0.14574,0.282379 0.14574,0.655849 0,0.368916 -0.14574,0.651296 -0.14347,0.282379 -0.40308,0.441787 -0.25733,0.159408 -0.60119,0.159408 z m 0,-0.414461 q 0.20495,0 0.35297,-0.102476 0.1503,-0.104754 0.23001,-0.293766 0.082,-0.189012 0.082,-0.441788 0,-0.259607 -0.082,-0.448619 -0.0797,-0.189012 -0.23001,-0.293766 -0.14802,-0.104754 -0.35297,-0.104754 -0.20496,0 -0.35525,0.104754 -0.14803,0.102477 -0.23001,0.293766 -0.0797,0.189012 -0.0797,0.448619 0,0.255053 0.0797,0.444065 0.082,0.186735 0.23001,0.291489 0.14802,0.102476 0.35525,0.102476 z m 3.84628,-2.044975 v 0.396242 h -1.39368 v -0.396242 z m -0.97011,-0.65585 h 0.4805 v 2.425278 q 0,0.13208 0.0547,0.186735 0.0569,0.05238 0.2004,0.05238 0.0547,0 0.12069,0 0.066,0 0.11386,0 v 0.396243 q -0.0592,0 -0.14346,0 -0.082,0 -0.15941,0 -0.33931,0 -0.50328,-0.14119 -0.16396,-0.143467 -0.16396,-0.432679 z m 1.83092,1.67606 v 1.384572 h -0.48051 v -3.393111 h 0.48051 v 1.58497 h -0.1207 q 0.11842,-0.32337 0.32793,-0.482778 0.21178,-0.161686 0.5101,-0.161686 0.24822,0 0.44407,0.109309 0.19812,0.107031 0.31198,0.318816 0.11386,0.211784 0.11386,0.526046 v 1.498434 h -0.4805 v -1.439226 q 0,-0.289211 -0.13891,-0.434956 -0.13664,-0.148021 -0.38713,-0.148021 -0.16397,0 -0.29605,0.06604 -0.1298,0.06604 -0.20723,0.20723 -0.0774,0.14119 -0.0774,0.364361 z m 2.12923,1.384572 v -2.404782 h 0.4805 v 2.404782 z m 0.23911,-2.819243 q -0.12753,0 -0.21634,-0.08426 -0.0865,-0.08654 -0.0865,-0.209508 0,-0.125249 0.0865,-0.209507 0.0888,-0.08654 0.21634,-0.08654 0.12753,0 0.21634,0.08654 0.0888,0.08426 0.0888,0.209507 0,0.122972 -0.0888,0.209508 -0.0888,0.08426 -0.21634,0.08426 z m 1.67378,2.876174 q -0.27554,0 -0.49644,-0.08881 -0.22089,-0.08881 -0.35525,-0.264161 -0.13436,-0.175349 -0.15258,-0.434956 h 0.47367 q 0.0205,0.193567 0.15258,0.300598 0.13436,0.104753 0.36891,0.104753 0.23001,0 0.36209,-0.09337 0.13208,-0.09337 0.13208,-0.236835 0,-0.122972 -0.0957,-0.195844 -0.0934,-0.07515 -0.25049,-0.109308 l -0.39852,-0.08881 q -0.33931,-0.07515 -0.51466,-0.248221 -0.17535,-0.173071 -0.17535,-0.43951 0,-0.214062 0.11386,-0.375747 0.11614,-0.161686 0.32337,-0.252776 0.20723,-0.09109 0.48278,-0.09109 0.27099,0 0.4805,0.09564 0.21179,0.09564 0.33248,0.270993 0.12297,0.175349 0.1298,0.419015 h -0.46 q -0.002,-0.175349 -0.13208,-0.289211 -0.12981,-0.11614 -0.34387,-0.11614 -0.20495,0 -0.32565,0.09564 -0.12069,0.09564 -0.12069,0.234558 0,0.122972 0.0911,0.198121 0.0934,0.07515 0.25505,0.111586 l 0.40991,0.09109 q 0.35297,0.07743 0.51694,0.239112 0.16623,0.161685 0.16623,0.423569 0,0.230003 -0.12752,0.396243 -0.12525,0.163962 -0.34387,0.255052 -0.21861,0.08881 -0.49872,0.08881 z m 3.53431,-0.0023 q -0.34387,0 -0.6012,-0.159408 -0.25733,-0.159408 -0.40307,-0.441787 -0.14347,-0.284657 -0.14347,-0.651296 0,-0.371192 0.14347,-0.655849 0.14574,-0.284657 0.40307,-0.444065 0.25733,-0.161685 0.6012,-0.161685 0.21406,0 0.39624,0.06604 0.18446,0.06376 0.32337,0.182181 0.13891,0.11614 0.22317,0.277825 0.0865,0.159408 0.10931,0.350697 h -0.47823 q -0.0182,-0.102476 -0.0638,-0.186735 -0.0455,-0.08426 -0.11842,-0.145744 -0.0729,-0.06149 -0.17079,-0.09565 -0.0957,-0.03416 -0.21862,-0.03416 -0.20723,0 -0.35525,0.104754 -0.14802,0.104754 -0.22773,0.296043 -0.0797,0.189012 -0.0797,0.446342 0,0.255053 0.0797,0.444065 0.0797,0.186735 0.22773,0.291489 0.14802,0.102476 0.35525,0.102476 0.12297,0 0.21862,-0.03188 0.0956,-0.03416 0.16396,-0.09564 0.0683,-0.06149 0.11386,-0.145744 0.0455,-0.08654 0.0683,-0.19129 h 0.48506 q -0.0205,0.189013 -0.10703,0.34842 -0.0843,0.159408 -0.22545,0.280103 -0.13891,0.118417 -0.32337,0.184458 -0.18218,0.06604 -0.39624,0.06604 z m 2.49359,0 q -0.34387,0 -0.60347,-0.159408 -0.25961,-0.159408 -0.40535,-0.441787 -0.14347,-0.28238 -0.14347,-0.651296 0,-0.37347 0.14347,-0.655849 0.14574,-0.284657 0.40535,-0.444065 0.2596,-0.161685 0.60347,-0.161685 0.34387,0 0.6012,0.161685 0.2596,0.159408 0.40307,0.444065 0.14574,0.282379 0.14574,0.655849 0,0.368916 -0.14574,0.651296 -0.14347,0.282379 -0.40307,0.441787 -0.25733,0.159408 -0.6012,0.159408 z m 0,-0.414461 q 0.20495,0 0.35297,-0.102476 0.1503,-0.104754 0.23001,-0.293766 0.082,-0.189012 0.082,-0.441788 0,-0.259607 -0.082,-0.448619 -0.0797,-0.189012 -0.23001,-0.293766 -0.14802,-0.104754 -0.35297,-0.104754 -0.20495,0 -0.35525,0.104754 -0.14802,0.102477 -0.23,0.293766 -0.0797,0.189012 -0.0797,0.448619 0,0.255053 0.0797,0.444065 0.082,0.186735 0.23,0.291489 0.14802,0.102476 0.35525,0.102476 z m 1.57586,0.359807 v -2.404782 h 0.46001 v 0.389411 h 0.009 q 0.066,-0.198122 0.20723,-0.30743 0.14346,-0.111585 0.37347,-0.111585 0.0546,0 0.1002,0.0046 0.0478,0.0023 0.0751,0.0068 v 0.448619 q -0.0273,-0.0068 -0.0979,-0.01366 -0.0706,-0.0091 -0.15485,-0.0091 -0.13436,0 -0.24822,0.06149 -0.11159,0.06149 -0.17763,0.189012 -0.066,0.127526 -0.066,0.325647 v 1.421008 z m 2.07549,-1.384572 v 1.384572 h -0.4805 v -2.404782 h 0.47139 v 0.596641 h -0.11159 q 0.11842,-0.32337 0.32793,-0.482778 0.21178,-0.161686 0.5101,-0.161686 0.24822,0 0.44407,0.109309 0.19812,0.107031 0.31198,0.318816 0.11387,0.211784 0.11387,0.526046 v 1.498434 h -0.48051 v -1.439226 q 0,-0.289211 -0.13891,-0.434956 -0.13663,-0.148021 -0.38713,-0.148021 -0.16396,0 -0.29604,0.06604 -0.12981,0.06604 -0.20723,0.20723 -0.0774,0.14119 -0.0774,0.364361 z m 3.15628,1.439226 q -0.35753,0 -0.61486,-0.161685 -0.25506,-0.161685 -0.39397,-0.444065 -0.13663,-0.284657 -0.13663,-0.646741 0,-0.368915 0.14346,-0.651295 0.14347,-0.284657 0.39625,-0.446342 0.25277,-0.163962 0.5807,-0.163962 0.25505,0 0.46,0.09109 0.20723,0.09109 0.35525,0.259607 0.14802,0.16624 0.22773,0.396243 0.0797,0.230002 0.0797,0.510105 v 0.129803 h -2.02676 v -0.36436 h 1.77399 l -0.21179,0.111585 q 0,-0.223171 -0.0797,-0.387133 -0.0797,-0.16624 -0.22773,-0.255053 -0.14574,-0.09109 -0.34614,-0.09109 -0.19812,0 -0.34387,0.09109 -0.14574,0.08881 -0.22772,0.255053 -0.0797,0.163962 -0.0797,0.387133 v 0.20723 q 0,0.227726 0.0797,0.403075 0.0797,0.173071 0.23,0.270993 0.15258,0.09792 0.36892,0.09792 0.15713,0 0.27782,-0.04782 0.1207,-0.0501 0.2004,-0.136636 0.0797,-0.08654 0.11386,-0.200398 h 0.46229 q -0.0433,0.23228 -0.19357,0.409906 -0.14802,0.175349 -0.37347,0.275548 -0.22317,0.100199 -0.49416,0.100199 z m 1.51209,-0.05465 v -2.404782 h 0.46001 v 0.389411 h 0.009 q 0.066,-0.198122 0.20723,-0.30743 0.14346,-0.111585 0.37347,-0.111585 0.0547,0 0.1002,0.0046 0.0478,0.0023 0.0752,0.0068 v 0.448619 q -0.0273,-0.0068 -0.0979,-0.01366 -0.0706,-0.0091 -0.15485,-0.0091 -0.13436,0 -0.24822,0.06149 -0.11159,0.06149 -0.17763,0.189012 -0.066,0.127526 -0.066,0.325647 v 1.421008 z"
         id="path5" /></g><path
       style="fill:#000000;stroke:#000000;stroke-width:0.79375;stroke-linecap:square;stroke-dasharray:none;marker-end:url(#ArrowWide)"
       d="m 145.14023,54.958673 2.98148,11.127029"
       id="path17" /><g
       id="text19"
       style="font-weight:500;font-size:4.66382px;line-height:1.2;font-family:Inter;-inkscape-font-specification:'Inter Medium';stroke-width:0.529167;stroke-linecap:square"
       aria-label="Drag the second handle&#10;to this corner"><path
         d="m 194.04772,46.767685 h -0.83575 v -0.43951 h 0.80387 q 0.39625,0 0.65358,-0.150299 0.25733,-0.150299 0.38485,-0.432679 0.12753,-0.284657 0.12753,-0.678622 0,-0.393965 -0.12525,-0.674068 -0.12525,-0.280102 -0.37803,-0.428124 -0.25049,-0.150299 -0.62852,-0.150299 h -0.85625 v -0.43951 h 0.88813 q 0.49872,0 0.85853,0.204953 0.36208,0.202676 0.55565,0.582977 0.19357,0.378025 0.19357,0.904071 0,0.526046 -0.19585,0.908625 -0.19356,0.380302 -0.5602,0.587532 -0.36664,0.204953 -0.88586,0.204953 z m -0.59208,-3.393111 v 3.393111 h -0.50555 v -3.393111 z m 2.68944,3.393111 v -2.404782 h 0.46 v 0.389411 h 0.009 q 0.066,-0.198122 0.20723,-0.30743 0.14347,-0.111585 0.37347,-0.111585 0.0547,0 0.1002,0.0046 0.0478,0.0023 0.0752,0.0068 v 0.448619 q -0.0273,-0.0068 -0.0979,-0.01366 -0.0706,-0.0091 -0.15485,-0.0091 -0.13436,0 -0.24823,0.06149 -0.11158,0.06149 -0.17762,0.189012 -0.066,0.127526 -0.066,0.325647 v 1.421008 z m 2.25622,0.03871 q -0.23912,0 -0.42813,-0.08198 -0.18673,-0.08198 -0.29604,-0.243666 -0.10931,-0.161685 -0.10931,-0.400797 0,-0.204953 0.0774,-0.337034 0.0797,-0.132081 0.21406,-0.209508 0.13436,-0.07743 0.30515,-0.11614 0.17079,-0.04099 0.35298,-0.06149 0.22772,-0.0296 0.35752,-0.04555 0.13209,-0.01822 0.18674,-0.05465 0.0569,-0.03871 0.0569,-0.125249 v -0.0205 q 0,-0.11614 -0.0569,-0.204953 -0.0569,-0.09109 -0.16624,-0.143467 -0.10931,-0.05238 -0.26188,-0.05238 -0.15258,0 -0.271,0.0501 -0.11614,0.0501 -0.18673,0.138913 -0.0683,0.08654 -0.0774,0.198121 h -0.47139 q 0.0114,-0.230003 0.13891,-0.405351 0.12753,-0.175349 0.3507,-0.275548 0.22317,-0.1002 0.52377,-0.1002 0.22089,0 0.39852,0.05693 0.17762,0.05693 0.30059,0.163962 0.12525,0.104754 0.18902,0.252776 0.066,0.148021 0.066,0.330202 v 1.648733 h -0.47367 v -0.341588 h -0.009 q -0.0501,0.09792 -0.13664,0.184457 -0.0865,0.08654 -0.22772,0.14119 -0.13891,0.05465 -0.34614,0.05465 z m 0.0979,-0.387133 q 0.21178,0 0.34842,-0.07515 0.13891,-0.07743 0.20495,-0.202675 0.0683,-0.125249 0.0683,-0.273271 v -0.28238 q -0.0251,0.0205 -0.082,0.03871 -0.0547,0.01594 -0.13436,0.03188 -0.0797,0.01366 -0.17307,0.0296 -0.0934,0.01594 -0.18674,0.02733 -0.13208,0.01822 -0.24594,0.06148 -0.11386,0.04099 -0.18446,0.11614 -0.0683,0.07515 -0.0683,0.198122 0,0.102476 0.0547,0.177626 0.0547,0.07287 0.15713,0.113862 0.10247,0.03871 0.24139,0.03871 z m 2.68716,1.332194 q -0.29604,0 -0.52149,-0.08881 -0.22317,-0.08654 -0.35981,-0.255052 -0.13663,-0.16624 -0.16852,-0.400797 h 0.4805 q 0.0319,0.11614 0.10931,0.193567 0.0797,0.0797 0.19585,0.118417 0.11841,0.04099 0.26416,0.04099 0.29149,0 0.45545,-0.15713 0.16396,-0.157131 0.16396,-0.44862 V 46.38966 h -0.002 q -0.082,0.138913 -0.19585,0.230003 -0.11158,0.09109 -0.2505,0.136636 -0.13663,0.04327 -0.29604,0.04327 -0.31198,0 -0.54882,-0.157131 -0.23456,-0.159408 -0.36436,-0.437233 -0.1298,-0.280103 -0.1298,-0.646741 0,-0.366638 0.1298,-0.646741 0.13208,-0.282379 0.36664,-0.43951 0.23456,-0.157131 0.54426,-0.157131 0.15713,0 0.29605,0.04327 0.14119,0.04327 0.25505,0.136636 0.11614,0.09109 0.19584,0.234557 h 0.002 v -0.366638 h 0.47367 v 2.3729 q 0,0.364361 -0.14802,0.587532 -0.14575,0.223171 -0.39625,0.325648 -0.24822,0.102476 -0.55109,0.102476 z m -0.0273,-1.364076 q 0.20495,0 0.35525,-0.102476 0.15258,-0.102477 0.23456,-0.289212 0.0843,-0.189012 0.0843,-0.43951 0,-0.252776 -0.0843,-0.43951 -0.082,-0.186735 -0.23456,-0.289212 -0.1503,-0.102476 -0.35525,-0.102476 -0.19356,0 -0.34159,0.09564 -0.14574,0.09337 -0.23,0.280103 -0.082,0.184457 -0.082,0.455451 0,0.268716 0.082,0.455451 0.0843,0.184458 0.23,0.280102 0.14803,0.09564 0.34159,0.09564 z m 3.9351,-2.02448 v 0.396242 h -1.39368 v -0.396242 z m -0.97011,-0.65585 h 0.4805 v 2.425278 q 0,0.13208 0.0547,0.186735 0.0569,0.05238 0.2004,0.05238 0.0547,0 0.1207,0 0.066,0 0.11386,0 v 0.396243 q -0.0592,0 -0.14347,0 -0.082,0 -0.15941,0 -0.33931,0 -0.50327,-0.14119 -0.16396,-0.143467 -0.16396,-0.432679 z m 1.83091,1.67606 v 1.384572 h -0.4805 v -3.393111 h 0.4805 v 1.58497 h -0.12069 q 0.11841,-0.32337 0.32792,-0.482778 0.21179,-0.161686 0.51011,-0.161686 0.24822,0 0.44406,0.109309 0.19812,0.107031 0.31199,0.318816 0.11386,0.211784 0.11386,0.526046 v 1.498434 h -0.4805 v -1.439226 q 0,-0.289211 -0.13891,-0.434956 -0.13664,-0.148021 -0.38714,-0.148021 -0.16396,0 -0.29604,0.06604 -0.1298,0.06604 -0.20723,0.207231 -0.0774,0.141189 -0.0774,0.36436 z m 3.15628,1.439226 q -0.35753,0 -0.61486,-0.161685 -0.25505,-0.161685 -0.39397,-0.444065 -0.13663,-0.284657 -0.13663,-0.646741 0,-0.368915 0.14347,-0.651295 0.14346,-0.284657 0.39624,-0.446342 0.25277,-0.163962 0.5807,-0.163962 0.25505,0 0.46,0.09109 0.20724,0.09109 0.35526,0.259607 0.14802,0.16624 0.22772,0.396243 0.0797,0.230002 0.0797,0.510105 v 0.129803 h -2.02676 v -0.36436 h 1.77398 l -0.21178,0.111585 q 0,-0.223171 -0.0797,-0.387133 -0.0797,-0.16624 -0.22772,-0.255053 -0.14575,-0.09109 -0.34615,-0.09109 -0.19812,0 -0.34386,0.09109 -0.14575,0.08881 -0.22773,0.255053 -0.0797,0.163962 -0.0797,0.387133 v 0.20723 q 0,0.227726 0.0797,0.403075 0.0797,0.173071 0.23001,0.270993 0.15257,0.09792 0.36891,0.09792 0.15713,0 0.27783,-0.04782 0.12069,-0.0501 0.20039,-0.136636 0.0797,-0.08654 0.11387,-0.200398 h 0.46228 q -0.0433,0.23228 -0.19357,0.409906 -0.14802,0.175349 -0.37347,0.275548 -0.22317,0.100199 -0.49416,0.100199 z m 3.5138,0.0023 q -0.27554,0 -0.49644,-0.08881 -0.22089,-0.08881 -0.35525,-0.264161 -0.13436,-0.175349 -0.15257,-0.434956 h 0.47366 q 0.0205,0.193567 0.15258,0.300598 0.13436,0.104753 0.36892,0.104753 0.23,0 0.36208,-0.09337 0.13208,-0.09337 0.13208,-0.236835 0,-0.122972 -0.0956,-0.195844 -0.0934,-0.07515 -0.2505,-0.109308 l -0.39852,-0.08881 q -0.33931,-0.07515 -0.51466,-0.248221 -0.17535,-0.173071 -0.17535,-0.43951 0,-0.214062 0.11386,-0.375747 0.11614,-0.161686 0.32337,-0.252776 0.20723,-0.09109 0.48278,-0.09109 0.27099,0 0.4805,0.09564 0.21179,0.09564 0.33248,0.270993 0.12297,0.175349 0.1298,0.419015 h -0.46 q -0.002,-0.175348 -0.13208,-0.289211 -0.12981,-0.11614 -0.34387,-0.11614 -0.20495,0 -0.32565,0.09564 -0.12069,0.09564 -0.12069,0.234558 0,0.122972 0.0911,0.198121 0.0934,0.07515 0.25505,0.111586 l 0.40991,0.09109 q 0.35297,0.07743 0.51694,0.239112 0.16624,0.161685 0.16624,0.423569 0,0.230003 -0.12753,0.396243 -0.12525,0.163962 -0.34387,0.255052 -0.21861,0.08881 -0.49872,0.08881 z m 2.42073,-0.0023 q -0.35753,0 -0.61486,-0.161685 -0.25506,-0.161685 -0.39397,-0.444065 -0.13663,-0.284657 -0.13663,-0.646741 0,-0.368915 0.14346,-0.651295 0.14347,-0.284657 0.39625,-0.446342 0.25277,-0.163962 0.5807,-0.163962 0.25505,0 0.46,0.09109 0.20723,0.09109 0.35525,0.259607 0.14803,0.16624 0.22773,0.396243 0.0797,0.230002 0.0797,0.510105 v 0.129803 h -2.02675 v -0.36436 h 1.77398 l -0.21179,0.111585 q 0,-0.223171 -0.0797,-0.387133 -0.0797,-0.16624 -0.22773,-0.255053 -0.14574,-0.09109 -0.34614,-0.09109 -0.19812,0 -0.34386,0.09109 -0.14575,0.08881 -0.22773,0.255053 -0.0797,0.163962 -0.0797,0.387133 v 0.20723 q 0,0.227726 0.0797,0.403075 0.0797,0.173071 0.23,0.270993 0.15258,0.09792 0.36892,0.09792 0.15713,0 0.27782,-0.04782 0.1207,-0.0501 0.2004,-0.136636 0.0797,-0.08654 0.11386,-0.200398 h 0.46229 q -0.0433,0.23228 -0.19357,0.409906 -0.14802,0.175349 -0.37347,0.275548 -0.22317,0.100199 -0.49416,0.100199 z m 2.54141,0 q -0.34386,0 -0.60119,-0.159408 -0.25733,-0.159408 -0.40308,-0.441787 -0.14346,-0.284657 -0.14346,-0.651296 0,-0.371192 0.14346,-0.655849 0.14575,-0.284657 0.40308,-0.444065 0.25733,-0.161685 0.60119,-0.161685 0.21407,0 0.39625,0.06604 0.18445,0.06376 0.32337,0.182181 0.13891,0.11614 0.22317,0.277825 0.0865,0.159408 0.10931,0.350697 h -0.47823 q -0.0182,-0.102476 -0.0638,-0.186735 -0.0456,-0.08426 -0.11842,-0.145744 -0.0729,-0.06149 -0.17079,-0.09565 -0.0956,-0.03416 -0.21862,-0.03416 -0.20723,0 -0.35525,0.104754 -0.14802,0.104754 -0.22773,0.296043 -0.0797,0.189013 -0.0797,0.446342 0,0.255053 0.0797,0.444065 0.0797,0.186735 0.22773,0.291489 0.14802,0.102477 0.35525,0.102477 0.12297,0 0.21862,-0.03188 0.0956,-0.03416 0.16396,-0.09564 0.0683,-0.06149 0.11386,-0.145744 0.0455,-0.08654 0.0683,-0.19129 h 0.48506 q -0.0205,0.189013 -0.10703,0.34842 -0.0843,0.159408 -0.22545,0.280103 -0.13892,0.118417 -0.32337,0.184458 -0.18218,0.06604 -0.39625,0.06604 z m 2.4936,0 q -0.34387,0 -0.60347,-0.159408 -0.25961,-0.159408 -0.40535,-0.441787 -0.14347,-0.28238 -0.14347,-0.651296 0,-0.37347 0.14347,-0.655849 0.14574,-0.284657 0.40535,-0.444065 0.2596,-0.161685 0.60347,-0.161685 0.34386,0 0.60119,0.161685 0.25961,0.159408 0.40308,0.444065 0.14574,0.282379 0.14574,0.655849 0,0.368916 -0.14574,0.651296 -0.14347,0.282379 -0.40308,0.441787 -0.25733,0.159408 -0.60119,0.159408 z m 0,-0.41446 q 0.20495,0 0.35297,-0.102477 0.1503,-0.104754 0.23001,-0.293766 0.082,-0.189012 0.082,-0.441788 0,-0.259607 -0.082,-0.448619 -0.0797,-0.189012 -0.23001,-0.293766 -0.14802,-0.104754 -0.35297,-0.104754 -0.20495,0 -0.35525,0.104754 -0.14802,0.102477 -0.23001,0.293766 -0.0797,0.189012 -0.0797,0.448619 0,0.255053 0.0797,0.444065 0.082,0.186735 0.23001,0.291489 0.14802,0.102477 0.35525,0.102477 z m 2.05636,-1.024766 v 1.384572 h -0.4805 v -2.404782 h 0.47139 v 0.596641 h -0.11158 q 0.11841,-0.32337 0.32792,-0.482778 0.21179,-0.161686 0.51011,-0.161686 0.24822,0 0.44406,0.109309 0.19812,0.107031 0.31199,0.318816 0.11386,0.211784 0.11386,0.526046 v 1.498434 h -0.4805 v -1.439226 q 0,-0.289211 -0.13891,-0.434956 -0.13664,-0.148021 -0.38714,-0.148021 -0.16396,0 -0.29604,0.06604 -0.1298,0.06604 -0.20723,0.207231 -0.0774,0.141189 -0.0774,0.36436 z m 3.0538,1.432394 q -0.31198,0 -0.54882,-0.15713 -0.23455,-0.159408 -0.36436,-0.439511 -0.1298,-0.282379 -0.1298,-0.653572 0,-0.371193 0.1298,-0.651295 0.13208,-0.28238 0.36664,-0.439511 0.23456,-0.159408 0.54426,-0.159408 0.15714,0 0.29605,0.04555 0.13891,0.04327 0.2505,0.129803 0.11386,0.08654 0.19129,0.220894 h 0.005 v -1.336749 h 0.4805 v 3.393111 h -0.47139 v -0.366638 h -0.005 q -0.082,0.138912 -0.19584,0.23228 -0.11386,0.09109 -0.25277,0.136635 -0.13892,0.04554 -0.29605,0.04554 z m 0.0979,-0.41446 q 0.20496,0 0.35526,-0.102477 0.15257,-0.104754 0.23455,-0.293766 0.0843,-0.189012 0.0843,-0.43951 0,-0.255053 -0.0843,-0.441788 -0.082,-0.189012 -0.23455,-0.291488 -0.1503,-0.104754 -0.35526,-0.104754 -0.19356,0 -0.34158,0.09565 -0.14575,0.09564 -0.23001,0.282379 -0.082,0.186735 -0.082,0.460006 0,0.270993 0.082,0.457728 0.0843,0.184458 0.23001,0.28238 0.14802,0.09564 0.34158,0.09564 z m 3.25648,-1.017934 v 1.384572 h -0.4805 v -3.393111 h 0.4805 v 1.58497 h -0.1207 q 0.11842,-0.32337 0.32793,-0.482778 0.21178,-0.161686 0.5101,-0.161686 0.24823,0 0.44407,0.109309 0.19812,0.107031 0.31198,0.318816 0.11387,0.211784 0.11387,0.526046 v 1.498434 h -0.4805 v -1.439226 q 0,-0.289211 -0.13892,-0.434956 -0.13663,-0.148021 -0.38713,-0.148021 -0.16396,0 -0.29604,0.06604 -0.12981,0.06604 -0.20723,0.207231 -0.0774,0.141189 -0.0774,0.36436 z m 2.86251,1.423285 q -0.23911,0 -0.42813,-0.08198 -0.18673,-0.08198 -0.29604,-0.243666 -0.10931,-0.161685 -0.10931,-0.400797 0,-0.204953 0.0774,-0.337034 0.0797,-0.132081 0.21406,-0.209508 0.13436,-0.07743 0.30515,-0.11614 0.1708,-0.04099 0.35298,-0.06149 0.22772,-0.0296 0.35753,-0.04555 0.13208,-0.01822 0.18673,-0.05465 0.0569,-0.03871 0.0569,-0.125249 v -0.0205 q 0,-0.11614 -0.0569,-0.204953 -0.0569,-0.09109 -0.16624,-0.143467 -0.10931,-0.05238 -0.26188,-0.05238 -0.15258,0 -0.271,0.0501 -0.11614,0.0501 -0.18673,0.138913 -0.0683,0.08654 -0.0774,0.198121 h -0.47139 q 0.0114,-0.230003 0.13891,-0.405351 0.12753,-0.175349 0.3507,-0.275548 0.22317,-0.1002 0.52377,-0.1002 0.22089,0 0.39852,0.05693 0.17763,0.05693 0.3006,0.163962 0.12525,0.104754 0.18901,0.252776 0.066,0.148021 0.066,0.330202 v 1.648733 h -0.47367 v -0.341588 h -0.009 q -0.0501,0.09792 -0.13663,0.184457 -0.0865,0.08654 -0.22773,0.14119 -0.13891,0.05465 -0.34614,0.05465 z m 0.0979,-0.387133 q 0.21178,0 0.34842,-0.07515 0.13891,-0.07743 0.20495,-0.202675 0.0683,-0.125249 0.0683,-0.273271 v -0.28238 q -0.0251,0.0205 -0.082,0.03871 -0.0546,0.01594 -0.13436,0.03188 -0.0797,0.01366 -0.17307,0.0296 -0.0934,0.01594 -0.18673,0.02733 -0.13209,0.01822 -0.24595,0.06148 -0.11386,0.04099 -0.18446,0.11614 -0.0683,0.07515 -0.0683,0.198122 0,0.102476 0.0546,0.177626 0.0547,0.07287 0.15713,0.113862 0.10248,0.03871 0.24139,0.03871 z m 2.11785,-1.036152 v 1.384572 h -0.4805 v -2.404782 h 0.47139 v 0.596641 h -0.11158 q 0.11841,-0.32337 0.32792,-0.482778 0.21179,-0.161686 0.51011,-0.161686 0.24822,0 0.44406,0.109309 0.19812,0.107031 0.31198,0.318816 0.11387,0.211784 0.11387,0.526046 v 1.498434 h -0.4805 v -1.439226 q 0,-0.289211 -0.13892,-0.434956 -0.13663,-0.148021 -0.38713,-0.148021 -0.16396,0 -0.29604,0.06604 -0.12981,0.06604 -0.20723,0.207231 -0.0774,0.141189 -0.0774,0.36436 z m 3.0538,1.432394 q -0.31199,0 -0.54882,-0.15713 -0.23456,-0.159408 -0.36436,-0.439511 -0.1298,-0.282379 -0.1298,-0.653572 0,-0.371193 0.1298,-0.651295 0.13208,-0.28238 0.36664,-0.439511 0.23455,-0.159408 0.54426,-0.159408 0.15713,0 0.29604,0.04555 0.13892,0.04327 0.2505,0.129803 0.11387,0.08654 0.19129,0.220894 h 0.005 v -1.336749 h 0.4805 v 3.393111 h -0.47139 v -0.366638 h -0.005 q -0.082,0.138912 -0.19584,0.23228 -0.11387,0.09109 -0.25278,0.136635 -0.13891,0.04554 -0.29604,0.04554 z m 0.0979,-0.41446 q 0.20495,0 0.35525,-0.102477 0.15258,-0.104754 0.23456,-0.293766 0.0843,-0.189012 0.0843,-0.43951 0,-0.255053 -0.0843,-0.441788 -0.082,-0.189012 -0.23456,-0.291488 -0.1503,-0.104754 -0.35525,-0.104754 -0.19357,0 -0.34159,0.09565 -0.14574,0.09564 -0.23,0.282379 -0.082,0.186735 -0.082,0.460006 0,0.270993 0.082,0.457728 0.0843,0.184458 0.23,0.28238 0.14802,0.09564 0.34159,0.09564 z m 2.14517,-3.026473 v 3.393111 H 238.44 v -3.393111 z m 1.56903,3.447765 q -0.35753,0 -0.61486,-0.161685 -0.25505,-0.161685 -0.39396,-0.444065 -0.13664,-0.284657 -0.13664,-0.646741 0,-0.368915 0.14347,-0.651295 0.14347,-0.284657 0.39624,-0.446342 0.25278,-0.163962 0.5807,-0.163962 0.25506,0 0.46001,0.09109 0.20723,0.09109 0.35525,0.259607 0.14802,0.16624 0.22773,0.396243 0.0797,0.230002 0.0797,0.510105 v 0.129803 h -2.02676 v -0.36436 h 1.77399 l -0.21179,0.111585 q 0,-0.223171 -0.0797,-0.387133 -0.0797,-0.16624 -0.22773,-0.255053 -0.14574,-0.09109 -0.34614,-0.09109 -0.19812,0 -0.34387,0.09109 -0.14574,0.08881 -0.22772,0.255053 -0.0797,0.163962 -0.0797,0.387133 v 0.20723 q 0,0.227726 0.0797,0.403075 0.0797,0.173071 0.23,0.270993 0.15258,0.09792 0.36892,0.09792 0.15713,0 0.27782,-0.04782 0.1207,-0.0501 0.2004,-0.136636 0.0797,-0.08654 0.11386,-0.200398 h 0.46228 q -0.0433,0.23228 -0.19356,0.409906 -0.14802,0.175349 -0.37347,0.275548 -0.22317,0.100199 -0.49417,0.100199 z"
         id="path2" /><path
         d="m 194.0705,49.959487 v 0.396242 h -1.39368 v -0.396242 z m -0.97011,-0.65585 h 0.4805 v 2.425278 q 0,0.13208 0.0546,0.186735 0.0569,0.05238 0.2004,0.05238 0.0547,0 0.12069,0 0.0661,0 0.11387,0 v 0.396243 q -0.0592,0 -0.14347,0 -0.082,0 -0.15941,0 -0.33931,0 -0.50327,-0.14119 -0.16396,-0.143467 -0.16396,-0.432679 z m 2.34284,3.115286 q -0.34387,0 -0.60347,-0.159408 -0.25961,-0.159408 -0.40536,-0.441787 -0.14346,-0.28238 -0.14346,-0.651296 0,-0.37347 0.14346,-0.655849 0.14575,-0.284657 0.40536,-0.444065 0.2596,-0.161685 0.60347,-0.161685 0.34386,0 0.60119,0.161685 0.25961,0.159408 0.40308,0.444065 0.14574,0.282379 0.14574,0.655849 0,0.368916 -0.14574,0.651296 -0.14347,0.282379 -0.40308,0.441787 -0.25733,0.159408 -0.60119,0.159408 z m 0,-0.414461 q 0.20495,0 0.35297,-0.102476 0.1503,-0.104754 0.23001,-0.293766 0.082,-0.189012 0.082,-0.441788 0,-0.259607 -0.082,-0.448619 -0.0797,-0.189012 -0.23001,-0.293766 -0.14802,-0.104754 -0.35297,-0.104754 -0.20495,0 -0.35525,0.104754 -0.14802,0.102477 -0.23001,0.293766 -0.0797,0.189012 -0.0797,0.448619 0,0.255053 0.0797,0.444065 0.082,0.186735 0.23001,0.291489 0.14802,0.102476 0.35525,0.102476 z m 3.84628,-2.044975 v 0.396242 h -1.39368 v -0.396242 z m -0.97011,-0.65585 h 0.4805 v 2.425278 q 0,0.13208 0.0547,0.186735 0.0569,0.05238 0.2004,0.05238 0.0547,0 0.12069,0 0.066,0 0.11386,0 v 0.396243 q -0.0592,0 -0.14346,0 -0.082,0 -0.15941,0 -0.33931,0 -0.50327,-0.14119 -0.16397,-0.143467 -0.16397,-0.432679 z m 1.83092,1.67606 v 1.384572 h -0.4805 v -3.393111 h 0.4805 v 1.58497 h -0.1207 q 0.11842,-0.32337 0.32793,-0.482778 0.21178,-0.161686 0.5101,-0.161686 0.24822,0 0.44407,0.109309 0.19812,0.107031 0.31198,0.318816 0.11386,0.211784 0.11386,0.526046 v 1.498434 h -0.4805 v -1.439226 q 0,-0.289211 -0.13891,-0.434956 -0.13663,-0.148021 -0.38713,-0.148021 -0.16397,0 -0.29605,0.06604 -0.1298,0.06604 -0.20723,0.20723 -0.0774,0.14119 -0.0774,0.364361 z m 2.12923,1.384572 v -2.404782 h 0.4805 v 2.404782 z m 0.23911,-2.819243 q -0.12752,0 -0.21634,-0.08426 -0.0865,-0.08654 -0.0865,-0.209508 0,-0.125249 0.0865,-0.209507 0.0888,-0.08654 0.21634,-0.08654 0.12753,0 0.21634,0.08654 0.0888,0.08426 0.0888,0.209507 0,0.122972 -0.0888,0.209508 -0.0888,0.08426 -0.21634,0.08426 z m 1.67379,2.876174 q -0.27555,0 -0.49645,-0.08881 -0.22089,-0.08881 -0.35525,-0.264161 -0.13436,-0.175349 -0.15257,-0.434956 h 0.47366 q 0.0205,0.193567 0.15258,0.300598 0.13436,0.104753 0.36892,0.104753 0.23,0 0.36208,-0.09337 0.13208,-0.09337 0.13208,-0.236835 0,-0.122972 -0.0956,-0.195844 -0.0934,-0.07515 -0.2505,-0.109308 l -0.39852,-0.08881 q -0.33931,-0.07515 -0.51466,-0.248221 -0.17535,-0.173071 -0.17535,-0.43951 0,-0.214062 0.11386,-0.375747 0.11614,-0.161686 0.32337,-0.252776 0.20723,-0.09109 0.48278,-0.09109 0.27099,0 0.4805,0.09564 0.21179,0.09564 0.33248,0.270993 0.12297,0.175349 0.1298,0.419015 h -0.46 q -0.002,-0.175349 -0.13208,-0.289211 -0.12981,-0.11614 -0.34387,-0.11614 -0.20495,0 -0.32564,0.09564 -0.1207,0.09564 -0.1207,0.234558 0,0.122972 0.0911,0.198121 0.0934,0.07515 0.25505,0.111586 l 0.40991,0.09109 q 0.35297,0.07743 0.51694,0.239112 0.16624,0.161685 0.16624,0.423569 0,0.230003 -0.12753,0.396243 -0.12525,0.163962 -0.34387,0.255052 -0.21861,0.08881 -0.49871,0.08881 z m 3.5343,-0.0023 q -0.34387,0 -0.6012,-0.159408 -0.25733,-0.159408 -0.40307,-0.441787 -0.14347,-0.284657 -0.14347,-0.651296 0,-0.371192 0.14347,-0.655849 0.14574,-0.284657 0.40307,-0.444065 0.25733,-0.161685 0.6012,-0.161685 0.21406,0 0.39624,0.06604 0.18446,0.06376 0.32337,0.182181 0.13891,0.11614 0.22317,0.277825 0.0865,0.159408 0.10931,0.350697 h -0.47822 q -0.0182,-0.102476 -0.0638,-0.186735 -0.0455,-0.08426 -0.11842,-0.145744 -0.0729,-0.06149 -0.17079,-0.09565 -0.0956,-0.03416 -0.21862,-0.03416 -0.20723,0 -0.35525,0.104754 -0.14802,0.104754 -0.22772,0.296043 -0.0797,0.189012 -0.0797,0.446342 0,0.255053 0.0797,0.444065 0.0797,0.186735 0.22772,0.291489 0.14802,0.102476 0.35525,0.102476 0.12298,0 0.21862,-0.03188 0.0957,-0.03416 0.16396,-0.09564 0.0683,-0.06149 0.11387,-0.145744 0.0455,-0.08654 0.0683,-0.19129 h 0.48506 q -0.0205,0.189013 -0.10703,0.34842 -0.0843,0.159408 -0.22545,0.280103 -0.13891,0.118417 -0.32337,0.184458 -0.18218,0.06604 -0.39624,0.06604 z m 2.49359,0 q -0.34386,0 -0.60347,-0.159408 -0.25961,-0.159408 -0.40535,-0.441787 -0.14347,-0.28238 -0.14347,-0.651296 0,-0.37347 0.14347,-0.655849 0.14574,-0.284657 0.40535,-0.444065 0.25961,-0.161685 0.60347,-0.161685 0.34387,0 0.6012,0.161685 0.2596,0.159408 0.40307,0.444065 0.14575,0.282379 0.14575,0.655849 0,0.368916 -0.14575,0.651296 -0.14347,0.282379 -0.40307,0.441787 -0.25733,0.159408 -0.6012,0.159408 z m 0,-0.414461 q 0.20495,0 0.35298,-0.102476 0.1503,-0.104754 0.23,-0.293766 0.082,-0.189012 0.082,-0.441788 0,-0.259607 -0.082,-0.448619 -0.0797,-0.189012 -0.23,-0.293766 -0.14803,-0.104754 -0.35298,-0.104754 -0.20495,0 -0.35525,0.104754 -0.14802,0.102477 -0.23,0.293766 -0.0797,0.189012 -0.0797,0.448619 0,0.255053 0.0797,0.444065 0.082,0.186735 0.23,0.291489 0.14802,0.102476 0.35525,0.102476 z m 1.57586,0.359807 v -2.404782 h 0.46001 v 0.389411 h 0.009 q 0.066,-0.198122 0.20723,-0.30743 0.14346,-0.111585 0.37347,-0.111585 0.0546,0 0.1002,0.0046 0.0478,0.0023 0.0751,0.0068 v 0.448619 q -0.0273,-0.0068 -0.0979,-0.01366 -0.0706,-0.0091 -0.15485,-0.0091 -0.13436,0 -0.24822,0.06149 -0.11159,0.06149 -0.17763,0.189012 -0.066,0.127526 -0.066,0.325647 v 1.421008 z m 2.07549,-1.384572 v 1.384572 h -0.4805 v -2.404782 h 0.47139 v 0.596641 H 213.751 q 0.11841,-0.32337 0.32792,-0.482778 0.21178,-0.161686 0.51011,-0.161686 0.24822,0 0.44406,0.109309 0.19812,0.107031 0.31198,0.318816 0.11387,0.211784 0.11387,0.526046 v 1.498434 h -0.4805 v -1.439226 q 0,-0.289211 -0.13892,-0.434956 -0.13663,-0.148021 -0.38713,-0.148021 -0.16396,0 -0.29604,0.06604 -0.12981,0.06604 -0.20723,0.20723 -0.0774,0.14119 -0.0774,0.364361 z m 3.15628,1.439226 q -0.35753,0 -0.61486,-0.161685 -0.25506,-0.161685 -0.39397,-0.444065 -0.13663,-0.284657 -0.13663,-0.646741 0,-0.368915 0.14346,-0.651295 0.14347,-0.284657 0.39625,-0.446342 0.25277,-0.163962 0.5807,-0.163962 0.25505,0 0.46,0.09109 0.20723,0.09109 0.35525,0.259607 0.14803,0.16624 0.22773,0.396243 0.0797,0.230002 0.0797,0.510105 v 0.129803 h -2.02675 v -0.36436 h 1.77398 l -0.21179,0.111585 q 0,-0.223171 -0.0797,-0.387133 -0.0797,-0.16624 -0.22773,-0.255053 -0.14574,-0.09109 -0.34614,-0.09109 -0.19812,0 -0.34386,0.09109 -0.14575,0.08881 -0.22773,0.255053 -0.0797,0.163962 -0.0797,0.387133 v 0.20723 q 0,0.227726 0.0797,0.403075 0.0797,0.173071 0.23,0.270993 0.15258,0.09792 0.36892,0.09792 0.15713,0 0.27782,-0.04782 0.1207,-0.0501 0.2004,-0.136636 0.0797,-0.08654 0.11386,-0.200398 h 0.46229 q -0.0433,0.23228 -0.19357,0.409906 -0.14802,0.175349 -0.37347,0.275548 -0.22317,0.100199 -0.49416,0.100199 z m 1.51209,-0.05465 v -2.404782 h 0.46001 v 0.389411 h 0.009 q 0.066,-0.198122 0.20723,-0.30743 0.14347,-0.111585 0.37347,-0.111585 0.0547,0 0.1002,0.0046 0.0478,0.0023 0.0752,0.0068 v 0.448619 q -0.0273,-0.0068 -0.0979,-0.01366 -0.0706,-0.0091 -0.15485,-0.0091 -0.13436,0 -0.24822,0.06149 -0.11159,0.06149 -0.17763,0.189012 -0.066,0.127526 -0.066,0.325647 v 1.421008 z"
         id="path3" /></g><path
       style="fill:#000000;stroke:#000000;stroke-width:0.79375;stroke-linecap:square;stroke-dasharray:none;marker-end:url(#ArrowWide)"
       d="M 213.27788,54.958673 210.2964,66.085702"
       id="path19" /></g><style
     type="text/css"
     id="style1">
.st0 {
  fill: #0080ff;
}
.st1 {
  fill-rule: evenodd;
  clip-rule: evenodd;
  fill: #0080ff;
}
  </style></svg>
