<?xml version="1.0" encoding="UTF-8" standalone="no" ?>
<!-- Created with Inkscape (http://www.inkscape.org/) -->
<svg
  width="1280"
  height="720"
  viewBox="0 0 338.66666 190.5"
  version="1.1"
  id="svg1"
  inkscape:version="1.4.3 (0d15f75042, 2025-12-25)"
  sodipodi:docname="9_aligning_all_bend_handles.svg"
  xml:space="preserve"
  xmlns:inkscape="http://www.inkscape.org/namespaces/inkscape"
  xmlns:sodipodi="http://sodipodi.sourceforge.net/DTD/sodipodi-0.dtd"
  xmlns="http://www.w3.org/2000/svg"
  xmlns:svg="http://www.w3.org/2000/svg"
><sodipodi:namedview
    id="namedview1"
    pagecolor="#ffffff"
    bordercolor="#000000"
    borderopacity="0.25"
    inkscape:showpageshadow="2"
    inkscape:pageopacity="0.0"
    inkscape:pagecheckerboard="0"
    inkscape:deskcolor="#d1d1d1"
    inkscape:document-units="px"
    inkscape:zoom="1"
    inkscape:cx="513"
    inkscape:cy="393.5"
    inkscape:window-width="2560"
    inkscape:window-height="1371"
    inkscape:window-x="0"
    inkscape:window-y="0"
    inkscape:window-maximized="1"
    inkscape:current-layer="layer1"
    showguides="true"
    showgrid="false"
  /><defs id="defs1"><marker
      style="overflow:visible"
      id="marker28"
      refX="0"
      refY="0"
      orient="auto-start-reverse"
      inkscape:stockid="Wide arrow"
      markerWidth="1"
      markerHeight="1"
      viewBox="0 0 1 1"
      inkscape:isstock="true"
      inkscape:collect="always"
      preserveAspectRatio="xMidYMid"
    ><path
        style="fill:none;stroke:context-stroke;stroke-width:1;stroke-linecap:butt"
        d="M 3,-3 0,0 3,3"
        transform="rotate(180,0.125,0)"
        sodipodi:nodetypes="ccc"
        id="path28"
      /></marker><marker
      style="overflow:visible"
      id="ArrowWide"
      refX="0"
      refY="0"
      orient="auto-start-reverse"
      inkscape:stockid="Wide arrow"
      markerWidth="1"
      markerHeight="1"
      viewBox="0 0 1 1"
      inkscape:isstock="true"
      inkscape:collect="always"
      preserveAspectRatio="xMidYMid"
    ><path
        style="fill:none;stroke:context-stroke;stroke-width:1;stroke-linecap:butt"
        d="M 3,-3 0,0 3,3"
        transform="rotate(180,0.125,0)"
        sodipodi:nodetypes="ccc"
        id="path1"
      /></marker><inkscape:path-effect
      effect="envelope"
      id="path-effect22"
      is_visible="true"
      lpeversion="1"
      yy="true"
      xx="true"
      bendpath1="m 81.266814,68.636574 55.009886,0.0012"
      bendpath2="M 136.27671,68.637788 116.79373,102.60723"
      bendpath3="M 61.794917,102.60723 H 116.79373"
      bendpath4="M 81.265797,68.637832 61.794917,102.60723"
      bendpath1-nodetypes="cc"
      bendpath2-nodetypes="cc"
      bendpath3-nodetypes="cc"
      bendpath4-nodetypes="cc"
    /><inkscape:path-effect
      effect="envelope"
      id="path-effect10"
      is_visible="true"
      lpeversion="1"
      yy="true"
      xx="true"
      bendpath1="M 86.176224,71.714882 136.2767,68.63779"
      bendpath2="M 136.27671,68.637788 116.79373,102.60723"
      bendpath3="M 61.794917,102.60723 H 116.79373"
      bendpath4="M 81.265797,68.637832 61.794917,102.60723"
      bendpath1-nodetypes="cc"
      bendpath2-nodetypes="cc"
      bendpath3-nodetypes="cc"
      bendpath4-nodetypes="cc"
    /><inkscape:path-effect
      effect="envelope"
      id="path-effect9"
      is_visible="true"
      lpeversion="1"
      yy="true"
      xx="true"
      bendpath1="m 196.89805,68.637832 55.01091,-4.2e-5"
      bendpath2="M 228.60519,71.714882 V 98.539243"
      bendpath3="m 201.80848,98.539243 h 26.79671"
      bendpath4="M 201.80848,71.714882 V 98.539243"
      bendpath1-nodetypes="cc"
    /><inkscape:path-effect
      effect="envelope"
      id="path-effect35"
      is_visible="true"
      lpeversion="1"
      yy="true"
      xx="true"
      bendpath1="m 250.07154,84.208135 22.97695,-1.3e-5"
      bendpath2="M 273.04849,84.208122 263.85357,100.1342"
      bendpath3="m 240.87662,100.1342 h 22.97695"
      bendpath4="M 250.07154,84.208135 240.87662,100.1342"
      bendpath1-nodetypes="cc"
      bendpath2-nodetypes="cc"
      bendpath3-nodetypes="cc"
      bendpath4-nodetypes="cc"
    /><inkscape:path-effect
      effect="perspective-envelope"
      up_left_point="251.44253,86.643806"
      up_right_point="262.48268,86.643806"
      down_left_point="251.44253,97.698428"
      down_right_point="262.48268,97.698428"
      id="path-effect34"
      is_visible="true"
      lpeversion="1"
      deform_type="perspective"
      horizontal_mirror="false"
      vertical_mirror="false"
      overflow_perspective="false"
    /><inkscape:path-effect
      effect="perspective-envelope"
      up_left_point="2,2"
      up_right_point="30,2"
      down_left_point="2,30"
      down_right_point="30,30"
      id="path-effect33"
      is_visible="true"
      lpeversion="1"
      deform_type="perspective"
      horizontal_mirror="false"
      vertical_mirror="false"
      overflow_perspective="false"
    /><linearGradient
      id="paint0_linear_87_7435"
      x1="16.0578"
      y1="6.30617"
      x2="15.8364"
      y2="9.3059797"
      gradientUnits="userSpaceOnUse"
      gradientTransform="matrix(0.26458333,0,0,0.26458333,168.93645,-25.973263)"
    ><stop stop-color="white" stop-opacity="0.8" id="stop23" /><stop
        offset="1"
        stop-color="white"
        stop-opacity="0"
        id="stop24"
      /></linearGradient><linearGradient
      id="paint1_linear_87_7435"
      x1="12.8966"
      y1="22.6721"
      x2="11.2506"
      y2="17.271601"
      gradientUnits="userSpaceOnUse"
    ><stop stop-color="#FFEED7" id="stop25" /><stop
        offset="1"
        stop-color="#BDBFC2"
        id="stop26"
      /></linearGradient><linearGradient
      id="paint3_linear_87_7435"
      x1="16.6681"
      y1="9.6554604"
      x2="16.5748"
      y2="10.3542"
      gradientUnits="userSpaceOnUse"
      gradientTransform="matrix(0.26458333,0,0,0.26458333,168.93645,-25.973263)"
    ><stop stop-color="white" stop-opacity="0.65" id="stop29" /><stop
        offset="1"
        stop-color="white"
        stop-opacity="0"
        id="stop30"
      /></linearGradient><linearGradient
      id="paint4_linear_87_7435"
      x1="14.434"
      y1="9.7829399"
      x2="14.5344"
      y2="10.3483"
      gradientUnits="userSpaceOnUse"
      gradientTransform="matrix(0.26458333,0,0,0.26458333,168.93645,-25.973263)"
    ><stop stop-color="white" stop-opacity="0.65" id="stop31" /><stop
        offset="1"
        stop-color="white"
        stop-opacity="0"
        id="stop32"
      /></linearGradient><linearGradient
      id="paint5_linear_87_7435"
      x1="15.7613"
      y1="15.6306"
      x2="15.778"
      y2="19.627199"
      gradientUnits="userSpaceOnUse"
      gradientTransform="matrix(0.26458333,0,0,0.26458333,168.93645,-25.973263)"
    ><stop stop-color="white" stop-opacity="0.8" id="stop33" /><stop
        offset="1"
        stop-color="white"
        stop-opacity="0"
        id="stop34"
      /></linearGradient><linearGradient
      id="paint6_linear_87_7435"
      x1="15.8504"
      y1="13.1247"
      x2="15.8688"
      y2="14.7138"
      gradientUnits="userSpaceOnUse"
      gradientTransform="matrix(0.26458333,0,0,0.26458333,168.93645,-25.973263)"
    ><stop stop-color="white" stop-opacity="0.65" id="stop35" /><stop
        offset="1"
        stop-color="white"
        stop-opacity="0"
        id="stop36"
      /></linearGradient><linearGradient
      id="paint7_linear_87_7435"
      x1="11.72"
      y1="14.1055"
      x2="11.72"
      y2="19.937201"
      gradientUnits="userSpaceOnUse"
      gradientTransform="matrix(0.26458333,0,0,0.26458333,168.93645,-25.973263)"
    ><stop stop-color="white" stop-opacity="0.65" id="stop37" /><stop
        offset="1"
        stop-color="white"
        stop-opacity="0"
        id="stop38"
      /></linearGradient><linearGradient
      id="paint8_linear_87_7435"
      x1="21.033001"
      y1="13.5359"
      x2="21.0308"
      y2="18.805201"
      gradientUnits="userSpaceOnUse"
      gradientTransform="matrix(0.26458333,0,0,0.26458333,168.93645,-25.973263)"
    ><stop stop-color="white" stop-opacity="0.65" id="stop39" /><stop
        offset="1"
        stop-color="white"
        stop-opacity="0"
        id="stop40"
      /></linearGradient><linearGradient
      id="paint9_linear_87_7435"
      x1="11.4286"
      y1="22.437401"
      x2="10.5354"
      y2="25.4214"
      gradientUnits="userSpaceOnUse"
      gradientTransform="matrix(0.26458333,0,0,0.26458333,168.93645,-25.973263)"
    ><stop stop-color="#FFA63F" id="stop41" /><stop
        offset="1"
        stop-color="#FFFF00"
        id="stop42"
      /></linearGradient><linearGradient
      id="paint10_linear_87_7435"
      x1="19.882"
      y1="21.530001"
      x2="22.2656"
      y2="24.7801"
      gradientUnits="userSpaceOnUse"
      gradientTransform="matrix(0.26458333,0,0,0.26458333,168.93645,-25.973263)"
    ><stop stop-color="#FFA63F" id="stop43" /><stop
        offset="1"
        stop-color="#FFFF00"
        id="stop44"
      /></linearGradient><linearGradient
      id="paint11_linear_87_7435"
      x1="20.5198"
      y1="18.9333"
      x2="19.6863"
      y2="22.8605"
      gradientUnits="userSpaceOnUse"
      gradientTransform="matrix(0.26458333,0,0,0.26458333,168.93645,-25.973263)"
    ><stop stop-color="white" stop-opacity="0.65" id="stop45" /><stop
        offset="1"
        stop-color="white"
        stop-opacity="0"
        id="stop46"
      /></linearGradient><linearGradient
      id="paint12_linear_87_7435"
      x1="11.2464"
      y1="19.9042"
      x2="11.4117"
      y2="24.3239"
      gradientUnits="userSpaceOnUse"
      gradientTransform="matrix(0.26458333,0,0,0.26458333,168.93645,-25.973263)"
    ><stop stop-color="white" stop-opacity="0.65" id="stop47" /><stop
        offset="1"
        stop-color="white"
        stop-opacity="0"
        id="stop48"
      /></linearGradient><linearGradient
      id="paint13_linear_87_7435"
      x1="20.3755"
      y1="18.861601"
      x2="20.5688"
      y2="20.182199"
      gradientUnits="userSpaceOnUse"
      gradientTransform="matrix(0.26458333,0,0,0.26458333,168.93645,-25.973263)"
    ><stop stop-color="white" stop-opacity="0.65" id="stop49" /><stop
        offset="1"
        stop-color="white"
        stop-opacity="0"
        id="stop50"
      /></linearGradient><linearGradient
      id="paint14_linear_87_7435"
      x1="15.7644"
      y1="10.784"
      x2="15.7805"
      y2="13.1098"
      gradientUnits="userSpaceOnUse"
      gradientTransform="matrix(0.26458333,0,0,0.26458333,168.93645,-25.973263)"
    ><stop stop-color="#FFA63F" id="stop51" /><stop
        offset="1"
        stop-color="#FFFF00"
        id="stop52"
      /></linearGradient><linearGradient
      id="paint15_linear_87_7435"
      x1="15.5106"
      y1="10.5638"
      x2="15.5062"
      y2="11.7936"
      gradientUnits="userSpaceOnUse"
      gradientTransform="matrix(0.26458333,0,0,0.26458333,168.93645,-25.973263)"
    ><stop stop-color="white" stop-opacity="0.65" id="stop53" /><stop
        offset="1"
        stop-color="white"
        stop-opacity="0"
        id="stop54"
      /></linearGradient></defs><g inkscape:label="Layer 1" inkscape:groupmode="layer" id="layer1"><rect
      style="fill:#ffffff;fill-opacity:1;stroke-width:0.163031;stroke-linejoin:round"
      id="rect1-3"
      width="338.66666"
      height="190.5"
      x="-338.66666"
      y="-9.3750003e-07"
      transform="scale(-1,1)"
    /><g id="g23" transform="translate(5.8208302)"><g id="g7" transform="translate(-107.27387,-18.01326)"><rect
          style="fill:#000000;fill-opacity:1;stroke:#ffffff;stroke-width:0.264583;stroke-linecap:butt;stroke-linejoin:round;stroke-dasharray:none;paint-order:normal"
          id="rect1"
          width="78.383522"
          height="19.254986"
          x="156.50104"
          y="120.62049"
        /><ellipse
          style="fill:#ffffff;fill-opacity:1;stroke:none;stroke-width:0.264583;stroke-dasharray:none"
          id="ellipse1"
          cx="226.01952"
          cy="130.24799"
          rx="3.8959584"
          ry="3.9218073"
        /><rect
          style="fill:#ffffff;fill-opacity:1;stroke:none;stroke-width:0.264583;stroke-dasharray:none"
          id="rect2"
          width="0.80859512"
          height="5.8457122"
          x="161.47014"
          y="127.32513"
        /><rect
          style="fill:#ffffff;fill-opacity:1;stroke:none;stroke-width:0.264583;stroke-dasharray:none"
          id="rect3"
          width="0.80859512"
          height="5.8457122"
          x="173.89267"
          y="127.32513"
        /><rect
          style="fill:#ffffff;fill-opacity:1;stroke:none;stroke-width:0.264583;stroke-dasharray:none"
          id="rect4"
          width="0.80859512"
          height="5.8457122"
          x="169.75183"
          y="127.32513"
        /><rect
          style="fill:#ffffff;fill-opacity:1;stroke:none;stroke-width:0.264583;stroke-dasharray:none"
          id="rect6"
          width="0.80859512"
          height="5.8457122"
          x="165.61098"
          y="127.32513"
        /><path
          style="fill:#000000;fill-opacity:1;stroke:#ffffff;stroke-width:0.264583;stroke-linecap:butt;stroke-linejoin:round;stroke-dasharray:none"
          d="m 254.36755,86.651041 -78.39561,5e-5 -19.4709,33.969439 78.38354,-4e-5 z"
          id="path6"
          sodipodi:nodetypes="ccccc"
        /><path
          style="fill:#000000;fill-opacity:1;stroke:#ffffff;stroke-width:0.264583;stroke-linecap:butt;stroke-linejoin:round;stroke-dasharray:none"
          d="m 254.35544,86.651091 7e-5,19.254959 -19.47092,33.96944 v -19.255 z"
          id="path7"
        /></g><path
        style="fill:#999999;stroke-width:1.5875;stroke-linecap:square"
        d="m 80.390394,68.637832 55.010916,-5.1e-5 -19.48299,33.969449 H 60.919514 Z"
        id="path8"
        sodipodi:nodetypes="ccccc"
      /><path
        id="path9"
        style="fill:#e95420;fill-opacity:1;stroke-width:0.264584;stroke-dasharray:none"
        d="m 111.13281,70.10799 c -6.31781,0.388683 -15.654249,2.185803 -22.88909,4.535862 -7.911075,2.569718 -14.068605,6.012921 -16.856801,10.877974 -2.672378,4.662966 -1.461473,9.262913 1.59937,12.207863 3.130445,3.011921 8.589067,4.791821 16.194164,4.790701 7.682435,-0.001 15.691057,-1.83585 22.449897,-4.949702 6.67996,-3.077511 12.10842,-7.377291 14.78277,-12.039064 2.69642,-4.700241 2.10652,-8.961854 -0.74443,-11.814476 -2.90837,-2.910062 -7.6571,-4.032352 -14.53588,-3.609158 z m 5.25423,3.905774 c 0.52852,-0.01683 1.00393,0.04888 1.37714,0.209901 1.18846,0.512677 0.89934,1.812529 -0.70529,2.884864 -1.60408,1.071947 -3.89954,1.49479 -5.13361,0.951645 -1.22642,-0.545704 -0.87197,-1.812515 0.75012,-2.856729 1.12172,-0.716959 2.555,-1.152843 3.71164,-1.189681 z M 106.1586,76.60295 c 1.36684,-0.04229 2.60039,0.02879 3.70509,0.197628 -0.36848,0.845227 -0.0991,1.601886 0.88667,2.037308 0.97779,0.427648 2.43684,0.432977 3.93064,0.08337 1.5041,1.498185 1.83129,3.655383 0.63137,6.099257 -1.65047,0.04527 -3.30018,0.09379 -4.94956,0.142865 1.55825,-3.33618 -1.12616,-5.685906 -6.32375,-5.564943 -1.50828,0.0351 -3.1155,0.270082 -4.667042,0.653109 -0.203349,-0.866701 -0.393543,-1.724737 -0.566666,-2.569655 2.479648,-0.61855 5.003918,-1.006244 7.353248,-1.078936 0,0 0,-6e-6 0,-6e-6 z m -9.496942,1.676186 c 0.233339,0.838973 0.48202,1.689611 0.74218,2.547635 -3.452048,1.152985 -6.477812,2.992226 -7.851007,5.159338 -1.36604,2.155821 -0.757748,4.087569 1.210103,5.237123 -1.410745,0.899593 -2.84382,1.810287 -4.26376,2.70623 -2.34123,-1.277844 -3.526567,-3.27404 -3.113821,-5.587235 1.501581,-0.556052 2.773888,-1.416168 3.377258,-2.371545 0.60402,-0.956403 0.418894,-1.813365 -0.376787,-2.388138 2.505089,-2.248917 6.240626,-4.068399 10.275834,-5.303408 z m -13.711732,5.433381 c 2.070844,0.05012 3.09078,1.031993 2.328709,2.242674 -0.756109,1.201209 -3.009059,2.178592 -5.05712,2.140267 -2.040943,-0.03819 -3.176799,-1.085233 -2.436102,-2.304422 0.739947,-1.217952 3.072926,-2.129144 5.164513,-2.078519 z m 26.713414,2.595372 c 1.63402,-0.01382 3.26542,-0.02688 4.90066,-0.03681 -1.68696,2.459959 -4.63017,4.688255 -8.16477,6.339429 -1.13332,-0.300189 -2.69834,-0.237643 -4.31573,0.26855 -1.62991,0.506117 -2.969029,1.336403 -3.736033,2.223081 -1.441128,0.236102 -2.891045,0.371912 -4.306655,0.383373 -2.434152,0.01971 -4.537942,-0.319125 -6.212384,-0.944274 1.389576,-0.910543 2.786967,-1.834574 4.16465,-2.749878 1.09631,0.370591 2.448072,0.572689 3.991165,0.557117 5.409837,-0.0546 11.256267,-2.719334 13.679087,-6.040586 0,0 1e-5,-6e-6 1e-5,-6e-6 z m -5.49891,7.022714 c 1.24708,-0.03314 2.2291,0.352421 2.47356,1.073336 0.325,1.059164 -1.04738,2.41998 -3.11604,3.047904 -2.06949,0.628339 -3.994943,0.274516 -4.31377,-0.771505 -0.305999,-1.047382 1.08671,-2.404102 3.13245,-3.037699 0.63422,-0.195523 1.25663,-0.296969 1.8238,-0.312036 z"
        inkscape:path-effect="#path-effect10"
        inkscape:original-d="m 99.574574,71.714882 c -7.40261,0 -13.39835,6.001922 -13.39835,13.412181 0,7.403556 5.99574,13.41218 13.39835,13.41218 7.402616,0 13.398356,-6.008624 13.398356,-13.41218 0,-7.410259 -5.99574,-13.412181 -13.398356,-13.412181 z m 4.577996,3.832659 c 0.28109,0.0074 0.56429,0.08419 0.82544,0.237459 0.83577,0.490456 1.12318,1.570885 0.64008,2.419247 -0.48312,0.848371 -1.54743,1.140112 -2.3831,0.649645 -0.82927,-0.490456 -1.11668,-1.570885 -0.64008,-2.419247 0.33214,-0.583255 0.93926,-0.903373 1.55766,-0.887104 z m -4.482656,1.894356 c 0.698636,0 1.377696,0.09961 2.024076,0.278571 0.11752,0.715811 0.52874,1.3651 1.19474,1.756134 0.65939,0.384452 1.42328,0.424463 2.08928,0.172601 1.29275,1.285754 2.12864,3.035551 2.25267,4.984157 l -2.48765,0.0397 c -0.22854,-2.644509 -2.40923,-4.712321 -5.073116,-4.712321 -0.7639,0 -1.495,0.172108 -2.14138,0.477044 l -1.21459,-2.200571 c 1.01196,-0.510354 2.14811,-0.79531 3.35597,-0.79531 z m -4.19806,1.292557 1.27307,2.167256 c -1.31229,0.934449 -2.16761,2.478725 -2.16761,4.228542 0,1.749722 0.85532,3.294353 2.16761,4.228896 l -1.27307,2.167261 c -1.5278,-1.03399 -2.66401,-2.618261 -3.13411,-4.467423 0.54845,-0.457357 0.90129,-1.153315 0.90129,-1.928734 0,-0.775514 -0.35284,-1.471376 -0.90129,-1.928733 0.47663,-1.849164 1.60631,-3.433126 3.13411,-4.467065 z m -4.68149,4.626197 c 0.95979,0 1.74338,0.788592 1.74338,1.769601 0,0.974303 -0.78359,1.769956 -1.74338,1.769956 -0.95977,0 -1.74302,-0.795653 -1.74302,-1.769956 0,-0.974303 0.77672,-1.769601 1.74302,-1.769601 z m 13.946286,2.227153 2.48765,0.0397 c -0.12403,1.948606 -0.96642,3.698406 -2.25267,4.98416 -0.65949,-0.25186 -1.42989,-0.218823 -2.08928,0.172241 -0.666,0.391058 -1.08373,1.047274 -1.19475,1.756492 -0.64637,0.178961 -1.32543,0.278216 -2.024066,0.278216 -1.20135,0 -2.344,-0.284875 -3.35597,-0.79531 l 1.21424,-2.200215 c 0.65288,0.304841 1.38421,0.477041 2.14811,0.477041 2.663886,0 4.844706,-2.074421 5.066736,-4.71232 z m -0.67374,5.579226 c 0.61672,-0.01455 1.22494,0.304176 1.56155,0.882851 0.47661,0.848423 0.19606,1.928837 -0.63972,2.419245 -0.83568,0.490511 -1.89989,0.19877 -2.38309,-0.649646 -0.4766,-0.848326 -0.19606,-1.928734 0.63972,-2.419245 0.25912,-0.151186 0.54121,-0.226594 0.82154,-0.233205 z"
        transform="translate(-0.87540297)"
      /></g><g id="g24" transform="translate(5.8208302)"><g id="g19" transform="translate(23.430295,-18.01326)"><rect
          style="fill:#000000;fill-opacity:1;stroke:#ffffff;stroke-width:0.264583;stroke-linecap:butt;stroke-linejoin:round;stroke-dasharray:none;paint-order:normal"
          id="rect14"
          width="78.383522"
          height="19.254986"
          x="156.50104"
          y="120.62049"
        /><ellipse
          style="fill:#ffffff;fill-opacity:1;stroke:none;stroke-width:0.264583;stroke-dasharray:none"
          id="ellipse14"
          cx="226.01952"
          cy="130.24799"
          rx="3.8959584"
          ry="3.9218073"
        /><rect
          style="fill:#ffffff;fill-opacity:1;stroke:none;stroke-width:0.264583;stroke-dasharray:none"
          id="rect15"
          width="0.80859512"
          height="5.8457122"
          x="161.47014"
          y="127.32513"
        /><rect
          style="fill:#ffffff;fill-opacity:1;stroke:none;stroke-width:0.264583;stroke-dasharray:none"
          id="rect16"
          width="0.80859512"
          height="5.8457122"
          x="173.89267"
          y="127.32513"
        /><rect
          style="fill:#ffffff;fill-opacity:1;stroke:none;stroke-width:0.264583;stroke-dasharray:none"
          id="rect17"
          width="0.80859512"
          height="5.8457122"
          x="169.75183"
          y="127.32513"
        /><rect
          style="fill:#ffffff;fill-opacity:1;stroke:none;stroke-width:0.264583;stroke-dasharray:none"
          id="rect18"
          width="0.80859512"
          height="5.8457122"
          x="165.61098"
          y="127.32513"
        /><path
          style="fill:#000000;fill-opacity:1;stroke:#ffffff;stroke-width:0.264583;stroke-linecap:butt;stroke-linejoin:round;stroke-dasharray:none"
          d="m 254.36755,86.651041 -78.39561,5e-5 -19.4709,33.969439 78.38354,-4e-5 z"
          id="path18"
          sodipodi:nodetypes="ccccc"
        /><path
          style="fill:#000000;fill-opacity:1;stroke:#ffffff;stroke-width:0.264583;stroke-linecap:butt;stroke-linejoin:round;stroke-dasharray:none"
          d="m 254.35544,86.651091 7e-5,19.254959 -19.47092,33.96944 v -19.255 z"
          id="path19"
        /></g><path
        style="fill:#ffffff;stroke-width:1.5875;stroke-linecap:square"
        d="m 228.36678,78.159782 14.12464,-0.493095 -1.1971,10.916243 -9.19392,5.643786 -11.98746,-0.333723 -7.45489,-6.89618 z"
        id="path20"
        sodipodi:nodetypes="ccccccc"
      /><path
        id="path21"
        style="fill:#e95420;fill-opacity:1;stroke-width:0.422788;stroke-dasharray:none"
        d="m 108.64692,68.546356 c -15.197308,-3.37e-4 -31.861954,7.600219 -37.241414,16.985383 -5.373252,9.374334 2.57119,16.984661 17.764015,16.984661 15.192699,10e-6 31.864199,-7.610178 37.240909,-16.984727 5.38261,-9.384842 -2.56645,-16.984979 -17.76351,-16.985317 z m 6.61489,4.853505 c 0.57165,0.0094 1.09725,0.106626 1.52204,0.300721 1.35952,0.621099 1.16491,1.989285 -0.44285,3.063581 -1.6078,1.074306 -4.00441,1.443717 -5.36369,0.822603 -1.34615,-0.6211 -1.15162,-1.989292 0.44276,-3.063581 1.10534,-0.738583 2.58409,-1.14394 3.84174,-1.123324 z m -10.57752,2.398769 c 1.43415,1.6e-5 2.75579,0.126171 3.95272,0.352809 -0.27852,0.906456 0.0942,1.728685 1.17734,2.223881 1.0744,0.486861 2.61341,0.537547 4.16344,0.218624 1.72001,1.628248 2.16511,3.844134 1.00458,6.311797 -0.26496,0.0026 -4.87016,0.04759 -5.13513,0.05017 1.45128,-3.348927 -1.52357,-5.967529 -6.99185,-5.967576 -1.56809,-1.3e-5 -3.193815,0.217923 -4.742066,0.604072 -0.01445,-0.04495 -0.881099,-2.741757 -0.895544,-2.786708 2.447864,-0.646273 4.98703,-1.007096 7.46651,-1.007068 z m -9.556145,1.636749 c -0.01659,-0.04379 1.05639,2.788312 1.039799,2.744522 -3.372255,1.183343 -6.249118,3.13896 -7.519518,5.354896 -1.270321,2.215799 -0.636088,4.171916 1.378962,5.355427 -0.0068,0.0044 -4.179854,2.740199 -4.186642,2.744649 -2.385156,-1.309465 -3.567177,-3.315785 -3.189679,-5.657494 1.457813,-0.579215 2.687345,-1.460577 3.250294,-2.442549 0.563018,-0.982094 0.343935,-1.863302 -0.449857,-2.442459 2.320855,-2.341765 5.789727,-4.34766 9.676641,-5.656992 z M 82.15961,83.293997 c 1.970222,-8.5e-5 3.0062,0.998537 2.294007,2.240861 -0.707327,1.233838 -2.893414,2.241466 -4.863552,2.241547 -1.970096,8e-5 -3.000321,-1.007407 -2.293059,-2.241231 0.707266,-1.233832 2.879018,-2.241091 4.862604,-2.241177 z m 27.01027,2.820324 c -0.3856,-0.0038 5.46303,0.05419 5.07743,0.05037 -1.6697,2.467641 -4.66958,4.683542 -8.24341,6.311802 -1.17074,-0.318968 -2.77605,-0.27714 -4.41348,0.218104 -1.65099,0.495238 -2.98492,1.32628 -3.727803,2.224459 -1.45666,0.226641 -2.922529,0.352339 -4.356508,0.352334 -2.465819,-7e-6 -4.604289,-0.360797 -6.310798,-1.007235 -0.0037,0.0025 4.09352,-2.788899 4.089839,-2.786391 1.118754,0.386058 2.494829,0.604141 4.062795,0.604147 5.467755,2.1e-5 11.450595,-2.627047 13.821925,-5.967585 z m -5.43449,7.065484 c 1.27642,-0.01842 2.29337,0.385228 2.56404,1.118077 0.36212,1.07446 -0.99836,2.442721 -3.06995,3.063793 -2.07147,0.621203 -4.043901,0.251736 -4.419577,-0.822734 -0.362197,-1.074361 0.998173,-2.44262 3.069867,-3.063808 0.64165,-0.191463 1.27542,-0.286958 1.85562,-0.295328 z"
        inkscape:path-effect="#path-effect22"
        inkscape:original-d="m 99.574574,71.714882 c -7.40261,0 -13.39835,6.001922 -13.39835,13.412181 0,7.403556 5.99574,13.41218 13.39835,13.41218 7.402616,0 13.398356,-6.008624 13.398356,-13.41218 0,-7.410259 -5.99574,-13.412181 -13.398356,-13.412181 z m 4.577996,3.832659 c 0.28109,0.0074 0.56429,0.08419 0.82544,0.237459 0.83577,0.490456 1.12318,1.570885 0.64008,2.419247 -0.48312,0.848371 -1.54743,1.140112 -2.3831,0.649645 -0.82927,-0.490456 -1.11668,-1.570885 -0.64008,-2.419247 0.33214,-0.583255 0.93926,-0.903373 1.55766,-0.887104 z m -4.482656,1.894356 c 0.698636,0 1.377696,0.09961 2.024076,0.278571 0.11752,0.715811 0.52874,1.3651 1.19474,1.756134 0.65939,0.384452 1.42328,0.424463 2.08928,0.172601 1.29275,1.285754 2.12864,3.035551 2.25267,4.984157 l -2.48765,0.0397 c -0.22854,-2.644509 -2.40923,-4.712321 -5.073116,-4.712321 -0.7639,0 -1.495,0.172108 -2.14138,0.477044 l -1.21459,-2.200571 c 1.01196,-0.510354 2.14811,-0.79531 3.35597,-0.79531 z m -4.19806,1.292557 1.27307,2.167256 c -1.31229,0.934449 -2.16761,2.478725 -2.16761,4.228542 0,1.749722 0.85532,3.294353 2.16761,4.228896 l -1.27307,2.167261 c -1.5278,-1.03399 -2.66401,-2.618261 -3.13411,-4.467423 0.54845,-0.457357 0.90129,-1.153315 0.90129,-1.928734 0,-0.775514 -0.35284,-1.471376 -0.90129,-1.928733 0.47663,-1.849164 1.60631,-3.433126 3.13411,-4.467065 z m -4.68149,4.626197 c 0.95979,0 1.74338,0.788592 1.74338,1.769601 0,0.974303 -0.78359,1.769956 -1.74338,1.769956 -0.95977,0 -1.74302,-0.795653 -1.74302,-1.769956 0,-0.974303 0.77672,-1.769601 1.74302,-1.769601 z m 13.946286,2.227153 2.48765,0.0397 c -0.12403,1.948606 -0.96642,3.698406 -2.25267,4.98416 -0.65949,-0.25186 -1.42989,-0.218823 -2.08928,0.172241 -0.666,0.391058 -1.08373,1.047274 -1.19475,1.756492 -0.64637,0.178961 -1.32543,0.278216 -2.024066,0.278216 -1.20135,0 -2.344,-0.284875 -3.35597,-0.79531 l 1.21424,-2.200215 c 0.65288,0.304841 1.38421,0.477041 2.14811,0.477041 2.663886,0 4.844706,-2.074421 5.066736,-4.71232 z m -0.67374,5.579226 c 0.61672,-0.01455 1.22494,0.304176 1.56155,0.882851 0.47661,0.848423 0.19606,1.928837 -0.63972,2.419245 -0.83568,0.490511 -1.89989,0.19877 -2.38309,-0.649646 -0.4766,-0.848326 -0.19606,-1.928734 0.63972,-2.419245 0.25912,-0.151186 0.54121,-0.226594 0.82154,-0.233205 z"
        transform="matrix(0.62580767,0,0,0.62580767,166.88542,32.281961)"
      /></g><path
      style="fill:#000000;stroke:#000000;stroke-width:0.79375;stroke-linecap:square;marker-end:url(#ArrowWide)"
      d="M 134.89093,54.81698 V 71.46787"
      id="path25"
    /><path
      style="font-weight:500;font-size:7.75889px;line-height:1.2;font-family:Inter;-inkscape-font-specification:'Inter Medium';stroke-width:0.793753;stroke-linecap:square"
      d="m 126.36732,47.455128 v -5.644896 h 2.14809 q 0.60616,0 1.04563,0.215946 0.44326,0.212157 0.68194,0.606163 0.23867,0.394006 0.23867,0.935765 0,0.53797 -0.25383,0.931976 -0.25383,0.394006 -0.70845,0.606163 -0.45462,0.212157 -1.06079,0.212157 h -1.60633 v -0.71603 h 1.62906 q 0.3637,0 0.62511,-0.125021 0.2652,-0.125022 0.40537,-0.356121 0.14018,-0.234889 0.14018,-0.553124 0,-0.318236 -0.14397,-0.545547 -0.14017,-0.2311 -0.40537,-0.356121 -0.26141,-0.12881 -0.6251,-0.12881 h -1.26916 v 4.9175 z m 3.25434,0 -1.33735,-2.542098 h 0.92061 l 1.36387,2.542098 z m 3.17629,0.09092 q -0.5948,0 -1.0229,-0.268985 -0.42432,-0.268985 -0.65542,-0.738761 -0.22731,-0.473565 -0.22731,-1.07594 0,-0.61374 0.23868,-1.083517 0.23868,-0.473565 0.6592,-0.74255 0.42053,-0.272774 0.96608,-0.272774 0.42431,0 0.76528,0.151541 0.34475,0.151541 0.59101,0.431892 0.24625,0.276562 0.37885,0.659202 0.1326,0.382641 0.1326,0.848629 v 0.215946 h -3.37179 v -0.606164 h 2.95126 l -0.35233,0.185638 q 0,-0.371275 -0.1326,-0.644049 -0.1326,-0.276562 -0.37885,-0.424314 -0.24247,-0.151541 -0.57586,-0.151541 -0.3296,0 -0.57206,0.151541 -0.24247,0.147752 -0.37886,0.424314 -0.13259,0.272774 -0.13259,0.644049 v 0.344755 q 0,0.378852 0.13259,0.670568 0.1326,0.287928 0.38264,0.450834 0.25383,0.162907 0.61374,0.162907 0.26141,0 0.4622,-0.07956 0.2008,-0.08335 0.33339,-0.227312 0.1326,-0.143963 0.18943,-0.333389 h 0.76907 q -0.072,0.386429 -0.32202,0.681933 -0.24626,0.291716 -0.62132,0.458411 -0.37128,0.166695 -0.82211,0.166695 z m 2.51558,-0.09092 V 43.45445 h 0.77664 v 0.84484 h -0.0758 q 0.11366,-0.303082 0.30308,-0.507662 0.19322,-0.208368 0.44326,-0.310658 0.25004,-0.106079 0.52282,-0.106079 0.46598,0 0.79559,0.268985 0.33339,0.265196 0.40916,0.655414 h -0.12503 q 0.0833,-0.265196 0.26899,-0.473565 0.18943,-0.208369 0.4622,-0.329601 0.27277,-0.121233 0.60616,-0.121233 0.37507,0 0.67815,0.162906 0.30308,0.162907 0.48114,0.484931 0.17806,0.318236 0.17806,0.799378 v 2.633022 h -0.80317 v -2.564829 q 0,-0.428103 -0.23867,-0.621317 -0.23868,-0.193215 -0.56449,-0.193215 -0.2652,0 -0.45841,0.113656 -0.19322,0.113656 -0.2993,0.310659 -0.10607,0.197003 -0.10607,0.454622 v 2.500424 h -0.78802 V 44.83726 q 0,-0.344755 -0.22352,-0.553124 -0.21973,-0.208369 -0.5607,-0.208369 -0.2311,0 -0.43568,0.109867 -0.20079,0.109868 -0.32581,0.325813 -0.12124,0.212157 -0.12124,0.530393 v 2.413288 z m 8.34611,0.09092 q -0.57207,0 -1.00396,-0.265196 -0.43189,-0.265197 -0.67436,-0.734973 -0.23867,-0.469777 -0.23867,-1.083517 0,-0.621317 0.23867,-1.091094 0.24247,-0.473565 0.67436,-0.738762 0.43189,-0.268985 1.00396,-0.268985 0.57206,0 1.00017,0.268985 0.43189,0.265197 0.67057,0.738762 0.24246,0.469777 0.24246,1.091094 0,0.61374 -0.24246,1.083517 -0.23868,0.469776 -0.67057,0.734973 -0.42811,0.265196 -1.00017,0.265196 z m 0,-0.689511 q 0.34096,0 0.58722,-0.170483 0.25004,-0.174272 0.38264,-0.488719 0.13639,-0.314447 0.13639,-0.734973 0,-0.431891 -0.13639,-0.746339 -0.1326,-0.314447 -0.38264,-0.488719 -0.24626,-0.174272 -0.58722,-0.174272 -0.34097,0 -0.59101,0.174272 -0.24626,0.170484 -0.38264,0.488719 -0.1326,0.314448 -0.1326,0.746339 0,0.424314 0.1326,0.738761 0.13638,0.310659 0.38264,0.484931 0.24625,0.170483 0.59101,0.170483 z m 3.63727,0.598587 -1.52298,-4.000678 h 0.8562 l 0.79559,2.193553 q 0.10987,0.310659 0.20837,0.621318 0.10229,0.30687 0.20079,0.617529 h -0.19321 q 0.0985,-0.310659 0.197,-0.617529 0.0985,-0.310659 0.20458,-0.621318 l 0.78422,-2.193553 h 0.84484 l -1.52677,4.000678 z m 4.47833,0.09092 q -0.5948,0 -1.0229,-0.268985 -0.42431,-0.268985 -0.65541,-0.738761 -0.22732,-0.473565 -0.22732,-1.07594 0,-0.61374 0.23868,-1.083517 0.23868,-0.473565 0.6592,-0.74255 0.42053,-0.272774 0.96608,-0.272774 0.42431,0 0.76528,0.151541 0.34475,0.151541 0.59101,0.431892 0.24625,0.276562 0.37885,0.659202 0.1326,0.382641 0.1326,0.848629 v 0.215946 h -3.37179 v -0.606164 h 2.95126 l -0.35233,0.185638 q 0,-0.371275 -0.1326,-0.644049 -0.1326,-0.276562 -0.37885,-0.424314 -0.24247,-0.151541 -0.57586,-0.151541 -0.3296,0 -0.57206,0.151541 -0.24247,0.147752 -0.37885,0.424314 -0.1326,0.272774 -0.1326,0.644049 v 0.344755 q 0,0.378852 0.1326,0.670568 0.13259,0.287928 0.38264,0.450834 0.25383,0.162907 0.61374,0.162907 0.2614,0 0.4622,-0.07956 0.20079,-0.08335 0.33339,-0.227312 0.13259,-0.143963 0.18942,-0.333389 h 0.76907 q -0.072,0.386429 -0.32202,0.681933 -0.24626,0.291716 -0.62132,0.458411 -0.37128,0.166695 -0.82211,0.166695 z m 6.29273,-4.091602 v 0.659203 H 155.7494 V 43.45445 Z m -1.61391,-1.091094 h 0.79938 v 4.034774 q 0,0.219735 0.0909,0.310659 0.0947,0.08714 0.33339,0.08714 0.0909,0 0.20079,0 0.10986,0 0.18942,0 v 0.659203 q -0.0985,0 -0.23867,0 -0.13639,0 -0.2652,0 -0.56449,0 -0.83726,-0.234889 -0.27278,-0.238676 -0.27278,-0.719818 z m 3.04597,2.788351 v 2.303421 h -0.79938 v -5.644896 h 0.79938 v 2.63681 h -0.20079 q 0.197,-0.53797 0.54555,-0.803166 0.35233,-0.268985 0.84863,-0.268985 0.41295,0 0.73876,0.181849 0.3296,0.178061 0.51903,0.530393 0.18942,0.352332 0.18942,0.875148 v 2.492847 h -0.79938 v -2.394345 q 0,-0.481142 -0.2311,-0.723608 -0.22731,-0.246254 -0.64404,-0.246254 -0.27278,0 -0.49251,0.109868 -0.21595,0.109867 -0.34476,0.344755 -0.12881,0.234888 -0.12881,0.606163 z m 5.25089,2.394345 q -0.5948,0 -1.0229,-0.268985 -0.42431,-0.268985 -0.65541,-0.738761 -0.22731,-0.473565 -0.22731,-1.07594 0,-0.61374 0.23867,-1.083517 0.23868,-0.473565 0.65921,-0.74255 0.42052,-0.272774 0.96607,-0.272774 0.42431,0 0.76528,0.151541 0.34475,0.151541 0.59101,0.431892 0.24625,0.276562 0.37885,0.659202 0.1326,0.382641 0.1326,0.848629 v 0.215946 h -3.37178 v -0.606164 h 2.95125 l -0.35233,0.185638 q 0,-0.371275 -0.1326,-0.644049 -0.1326,-0.276562 -0.37885,-0.424314 -0.24247,-0.151541 -0.57585,-0.151541 -0.32961,0 -0.57207,0.151541 -0.24247,0.147752 -0.37885,0.424314 -0.1326,0.272774 -0.1326,0.644049 v 0.344755 q 0,0.378852 0.1326,0.670568 0.13259,0.287928 0.38264,0.450834 0.25383,0.162907 0.61374,0.162907 0.26141,0 0.4622,-0.07956 0.20079,-0.08335 0.33339,-0.227312 0.13259,-0.143963 0.18942,-0.333389 h 0.76907 q -0.072,0.386429 -0.32202,0.681933 -0.24626,0.291716 -0.62132,0.458411 -0.37127,0.166695 -0.82211,0.166695 z m 6.11088,1.545717 q -0.4925,0 -0.86757,-0.147753 -0.37127,-0.143963 -0.59858,-0.424314 -0.22731,-0.276562 -0.28035,-0.66678 h 0.79937 q 0.053,0.193215 0.18185,0.322025 0.1326,0.132598 0.32582,0.197003 0.197,0.06819 0.43946,0.06819 0.48494,0 0.75771,-0.261408 0.27277,-0.261408 0.27277,-0.746338 v -0.606164 h -0.004 q -0.13638,0.2311 -0.32581,0.382641 -0.18564,0.151541 -0.41674,0.227311 -0.22731,0.07198 -0.4925,0.07198 -0.51903,0 -0.91304,-0.261408 -0.39021,-0.265196 -0.60616,-0.727396 -0.21595,-0.465988 -0.21595,-1.07594 0,-0.609952 0.21595,-1.07594 0.21973,-0.469776 0.60995,-0.731184 0.39022,-0.261408 0.90546,-0.261408 0.26141,0 0.49251,0.07198 0.23488,0.07198 0.42431,0.227311 0.19321,0.151541 0.32581,0.390218 h 0.004 V 43.45445 h 0.78801 v 3.947638 q 0,0.606164 -0.24625,0.977439 -0.24247,0.371275 -0.6592,0.541758 -0.41295,0.170484 -0.91683,0.170484 z m -0.0455,-2.269324 q 0.34097,0 0.59101,-0.170484 0.25383,-0.170483 0.39022,-0.481142 0.14017,-0.314447 0.14017,-0.731184 0,-0.420526 -0.14017,-0.731185 -0.13639,-0.310658 -0.39022,-0.481142 -0.25004,-0.170483 -0.59101,-0.170483 -0.32202,0 -0.56828,0.159118 -0.24246,0.155329 -0.38264,0.465988 -0.13638,0.30687 -0.13638,0.757704 0,0.447045 0.13638,0.757704 0.14018,0.30687 0.38264,0.465988 0.24626,0.159118 0.56828,0.159118 z m 4.21663,0.712242 q -0.40916,0 -0.73876,-0.178061 -0.32961,-0.181849 -0.51903,-0.534181 -0.18943,-0.356121 -0.18943,-0.875148 V 43.45445 h 0.79938 v 2.394345 q 0,0.477354 0.2311,0.723607 0.2311,0.246254 0.64784,0.246254 0.26898,0 0.48493,-0.109867 0.21973,-0.109867 0.34854,-0.344755 0.12881,-0.238677 0.12881,-0.606164 v -2.30342 h 0.79938 v 4.000678 h -0.78422 v -0.992593 h 0.18563 q -0.19321,0.534182 -0.54554,0.803167 -0.34855,0.268985 -0.84863,0.268985 z m 2.89443,-0.07956 V 43.45445 h 0.79937 v 4.000678 z m 0.39779,-4.690189 q -0.21216,0 -0.35991,-0.140175 -0.14396,-0.143964 -0.14396,-0.348544 0,-0.208369 0.14396,-0.348544 0.14775,-0.143964 0.35991,-0.143964 0.21216,0 0.35991,0.143964 0.14775,0.140175 0.14775,0.348544 0,0.20458 -0.14775,0.348544 -0.14775,0.140175 -0.35991,0.140175 z m 2.84139,4.769748 q -0.51903,0 -0.91303,-0.261408 -0.39022,-0.265197 -0.60616,-0.731185 -0.21595,-0.469776 -0.21595,-1.087305 0,-0.617529 0.21595,-1.083517 0.21973,-0.469777 0.60995,-0.731185 0.39021,-0.265196 0.90545,-0.265196 0.26141,0 0.49251,0.07577 0.2311,0.07198 0.41674,0.215946 0.18942,0.143964 0.31823,0.367487 h 0.008 v -2.223862 h 0.79938 v 5.644896 h -0.78422 v -0.609952 h -0.008 q -0.13639,0.2311 -0.32581,0.386429 -0.18943,0.151541 -0.42053,0.227311 -0.2311,0.07577 -0.49251,0.07577 z m 0.16291,-0.689511 q 0.34097,0 0.59101,-0.170484 0.25383,-0.174271 0.39022,-0.488719 0.14017,-0.314447 0.14017,-0.731184 0,-0.424314 -0.14017,-0.734973 -0.13639,-0.314447 -0.39022,-0.484931 -0.25004,-0.174272 -0.59101,-0.174272 -0.32203,0 -0.56828,0.159118 -0.24247,0.159118 -0.38264,0.469777 -0.13639,0.310658 -0.13639,0.765281 0,0.450834 0.13639,0.761492 0.14017,0.306871 0.38264,0.469777 0.24625,0.159118 0.56828,0.159118 z m 4.47803,0.700876 q -0.5948,0 -1.0229,-0.268985 -0.42431,-0.268985 -0.65541,-0.738761 -0.22732,-0.473565 -0.22732,-1.07594 0,-0.61374 0.23868,-1.083517 0.23868,-0.473565 0.6592,-0.74255 0.42053,-0.272774 0.96608,-0.272774 0.42431,0 0.76528,0.151541 0.34475,0.151541 0.59101,0.431892 0.24625,0.276562 0.37885,0.659202 0.1326,0.382641 0.1326,0.848629 v 0.215946 h -3.37179 v -0.606164 h 2.95126 l -0.35233,0.185638 q 0,-0.371275 -0.1326,-0.644049 -0.1326,-0.276562 -0.37885,-0.424314 -0.24247,-0.151541 -0.57586,-0.151541 -0.3296,0 -0.57206,0.151541 -0.24247,0.147752 -0.37885,0.424314 -0.1326,0.272774 -0.1326,0.644049 v 0.344755 q 0,0.378852 0.1326,0.670568 0.13259,0.287928 0.38264,0.450834 0.25383,0.162907 0.61374,0.162907 0.2614,0 0.4622,-0.07956 0.20079,-0.08335 0.33339,-0.227312 0.13259,-0.143963 0.18942,-0.333389 h 0.76907 q -0.072,0.386429 -0.32202,0.681933 -0.24626,0.291716 -0.62132,0.458411 -0.37128,0.166695 -0.82211,0.166695 z m 5.84569,0.0038 q -0.45841,0 -0.8259,-0.147753 -0.36749,-0.147752 -0.59101,-0.439468 -0.22352,-0.291716 -0.25383,-0.723607 h 0.78801 q 0.0341,0.322024 0.25383,0.500084 0.22353,0.174272 0.61374,0.174272 0.38264,0 0.60238,-0.155329 0.21973,-0.155329 0.21973,-0.394006 0,-0.20458 -0.15912,-0.325813 -0.15533,-0.125021 -0.41673,-0.181849 l -0.66299,-0.147752 q -0.56449,-0.125021 -0.85621,-0.412949 -0.29172,-0.287928 -0.29172,-0.731184 0,-0.356121 0.18943,-0.625106 0.19321,-0.268985 0.53797,-0.420526 0.34476,-0.151541 0.80317,-0.151541 0.45083,0 0.79937,0.159118 0.35234,0.159118 0.55313,0.450834 0.20458,0.291716 0.21594,0.697088 h -0.76528 q -0.004,-0.291716 -0.21973,-0.481143 -0.21595,-0.193214 -0.57207,-0.193214 -0.34096,0 -0.54176,0.159118 -0.20079,0.159118 -0.20079,0.390217 0,0.204581 0.15154,0.329602 0.15533,0.125021 0.42432,0.185637 l 0.68193,0.151541 q 0.58722,0.12881 0.85999,0.397795 0.27657,0.268985 0.27657,0.704665 0,0.38264 -0.21216,0.659202 -0.20837,0.272774 -0.57207,0.424314 -0.36369,0.147753 -0.82968,0.147753 z m 3.11795,-2.398134 v 2.303421 h -0.79938 v -5.644896 h 0.79938 v 2.63681 h -0.20079 q 0.197,-0.53797 0.54555,-0.803166 0.35233,-0.268985 0.84863,-0.268985 0.41294,0 0.73876,0.181849 0.3296,0.178061 0.51902,0.530393 0.18943,0.352332 0.18943,0.875148 v 2.492847 h -0.79938 v -2.394345 q 0,-0.481142 -0.2311,-0.723608 -0.22731,-0.246254 -0.64405,-0.246254 -0.27277,0 -0.4925,0.109868 -0.21595,0.109867 -0.34476,0.344755 -0.12881,0.234888 -0.12881,0.606163 z m 4.76217,2.367826 q -0.39779,0 -0.71224,-0.136387 -0.31066,-0.136387 -0.49251,-0.405372 -0.18185,-0.268985 -0.18185,-0.666779 0,-0.340967 0.12881,-0.560702 0.1326,-0.219734 0.35612,-0.348543 0.22353,-0.12881 0.50767,-0.193215 0.28414,-0.06819 0.58722,-0.10229 0.37885,-0.04925 0.59479,-0.07577 0.21974,-0.03031 0.31066,-0.09093 0.0947,-0.0644 0.0947,-0.208369 v -0.0341 q 0,-0.193215 -0.0947,-0.340967 -0.0947,-0.151541 -0.27656,-0.238677 -0.18185,-0.08714 -0.43568,-0.08714 -0.25383,0 -0.45083,0.08335 -0.19322,0.08335 -0.31066,0.231099 -0.11366,0.143964 -0.12881,0.329602 h -0.78422 q 0.0189,-0.382641 0.23109,-0.674357 0.21216,-0.291716 0.58344,-0.458411 0.37127,-0.166695 0.87136,-0.166695 0.36748,0 0.66299,0.09471 0.2955,0.09471 0.50008,0.272774 0.20837,0.174271 0.31445,0.420525 0.10987,0.246254 0.10987,0.549336 v 2.742889 H 200.7305 V 46.88685 h -0.0152 q -0.0833,0.162906 -0.22731,0.30687 -0.14396,0.143964 -0.37885,0.234888 -0.2311,0.09093 -0.57586,0.09093 z m 0.16291,-0.644049 q 0.35233,0 0.57964,-0.125021 0.2311,-0.12881 0.34097,-0.337178 0.11365,-0.208369 0.11365,-0.454623 v -0.469776 q -0.0417,0.0341 -0.13638,0.0644 -0.0909,0.02652 -0.22352,0.05304 -0.1326,0.02273 -0.28793,0.04925 -0.15533,0.02652 -0.31066,0.04546 -0.21974,0.03031 -0.40916,0.10229 -0.18943,0.06819 -0.30687,0.193214 -0.11366,0.125021 -0.11366,0.329602 0,0.170483 0.0909,0.295504 0.0909,0.121233 0.26141,0.189426 0.17048,0.06441 0.40158,0.06441 z m 2.72394,2.163245 V 43.45445 h 0.78422 v 0.575855 h 0.0114 q 0.12502,-0.219734 0.31445,-0.363698 0.19321,-0.143964 0.4281,-0.215946 0.23868,-0.07577 0.49629,-0.07577 0.51903,0 0.90546,0.265196 0.39022,0.261408 0.60616,0.731185 0.21974,0.465988 0.21974,1.083517 0,0.617529 -0.21595,1.087305 -0.21594,0.465988 -0.60616,0.731185 -0.39022,0.261408 -0.91303,0.261408 -0.25762,0 -0.48872,-0.07577 -0.22731,-0.07577 -0.41295,-0.227311 -0.18564,-0.151541 -0.31824,-0.378852 h -0.0114 v 2.185976 z m 1.86774,-2.193553 q 0.32581,0 0.56828,-0.159118 0.24246,-0.162906 0.37885,-0.469777 0.14018,-0.310658 0.14018,-0.761492 0,-0.454623 -0.14018,-0.765281 -0.13639,-0.310659 -0.37885,-0.469777 -0.24247,-0.159118 -0.56828,-0.159118 -0.34097,0 -0.5948,0.174272 -0.25004,0.170484 -0.39022,0.484931 -0.13638,0.310659 -0.13638,0.734973 0,0.416737 0.13638,0.731184 0.14018,0.314448 0.39022,0.488719 0.25383,0.170484 0.5948,0.170484 z m 4.31134,0.700876 q -0.5948,0 -1.0229,-0.268985 -0.42431,-0.268985 -0.65541,-0.738761 -0.22732,-0.473565 -0.22732,-1.07594 0,-0.61374 0.23868,-1.083517 0.23868,-0.473565 0.6592,-0.74255 0.42053,-0.272774 0.96608,-0.272774 0.42431,0 0.76528,0.151541 0.34475,0.151541 0.59101,0.431892 0.24625,0.276562 0.37885,0.659202 0.1326,0.382641 0.1326,0.848629 v 0.215946 h -3.37179 v -0.606164 h 2.95126 l -0.35233,0.185638 q 0,-0.371275 -0.1326,-0.644049 -0.1326,-0.276562 -0.37885,-0.424314 -0.24247,-0.151541 -0.57586,-0.151541 -0.3296,0 -0.57206,0.151541 -0.24247,0.147752 -0.37885,0.424314 -0.1326,0.272774 -0.1326,0.644049 v 0.344755 q 0,0.378852 0.1326,0.670568 0.13259,0.287928 0.38264,0.450834 0.25383,0.162907 0.61374,0.162907 0.2614,0 0.4622,-0.07956 0.20079,-0.08335 0.33339,-0.227312 0.13259,-0.143963 0.18942,-0.333389 h 0.76907 q -0.072,0.386429 -0.32202,0.681933 -0.24626,0.291716 -0.62132,0.458411 -0.37128,0.166695 -0.82211,0.166695 z"
      id="text26"
      aria-label="Remove the guide shape"
    /><path
      style="fill:none;stroke:#999999;stroke-width:0.79375;stroke-linecap:square;marker-end:url(#marker28);stroke-opacity:1"
      d="M 96.837499,131.49792 V 99.615624"
      id="path27"
    /><path
      style="font-weight:500;font-size:7.75889px;line-height:1.2;font-family:Inter;-inkscape-font-specification:'Inter Medium';stroke-width:0.793753;stroke-linecap:square"
      d="m 90.326241,141.91138 2.04959,-5.6449 h 1.015323 l 2.034436,5.6449 h -0.913033 l -1.087306,-3.18236 q -0.132598,-0.40537 -0.287927,-0.88651 -0.15533,-0.48115 -0.371275,-1.19339 h 0.238676 q -0.215945,0.71224 -0.371275,1.19339 -0.155329,0.48114 -0.291716,0.88651 l -1.121402,3.18236 z m 1.136557,-1.46616 v -0.71603 h 2.830024 v 0.71603 z m 5.857807,1.54572 q -0.519027,0 -0.913033,-0.26141 -0.390218,-0.2652 -0.606164,-0.73119 -0.215945,-0.46977 -0.215945,-1.0873 0,-0.61753 0.215945,-1.08352 0.219734,-0.46978 0.609952,-0.73118 0.390218,-0.2652 0.905456,-0.2652 0.261408,0 0.492508,0.0758 0.2311,0.072 0.416737,0.21595 0.189426,0.14396 0.318236,0.36748 h 0.0076 v -2.22386 h 0.799378 v 5.6449 h -0.784224 v -0.60995 h -0.0076 q -0.136387,0.23109 -0.325813,0.38642 -0.189426,0.15155 -0.420525,0.22732 -0.2311,0.0758 -0.492508,0.0758 z m 0.162906,-0.68951 q 0.340967,0 0.59101,-0.17049 0.25383,-0.17427 0.390217,-0.48872 0.140175,-0.31444 0.140175,-0.73118 0,-0.42432 -0.140175,-0.73497 -0.136387,-0.31445 -0.390217,-0.48494 -0.250043,-0.17427 -0.59101,-0.17427 -0.322024,0 -0.568278,0.15912 -0.242465,0.15912 -0.38264,0.46978 -0.136387,0.31066 -0.136387,0.76528 0,0.45083 0.136387,0.76149 0.140175,0.30687 0.38264,0.46978 0.246254,0.15912 0.568278,0.15912 z m 2.769409,-3.39073 h 0.80317 v 4.48561 q 0,0.32202 -0.1326,0.57206 -0.1326,0.25005 -0.39022,0.38643 -0.25762,0.14018 -0.628894,0.14018 h -0.33339 v -0.67436 h 0.227311 q 0.238673,0 0.344753,-0.12881 0.10987,-0.12502 0.10987,-0.40158 z m 0.39779,-0.68951 q -0.21215,0 -0.3599,-0.14018 -0.14397,-0.14396 -0.14397,-0.34854 0,-0.20837 0.14397,-0.34854 0.14775,-0.14397 0.3599,-0.14397 0.21216,0 0.35991,0.14397 0.14776,0.14017 0.14776,0.34854 0,0.20458 -0.14776,0.34854 -0.14775,0.14018 -0.35991,0.14018 z m 2.75047,4.76975 q -0.40916,0 -0.73876,-0.17806 -0.3296,-0.18185 -0.51903,-0.53419 -0.18942,-0.35612 -0.18942,-0.87514 v -2.49285 h 0.79937 v 2.39434 q 0,0.47736 0.2311,0.72361 0.2311,0.24626 0.64784,0.24626 0.26899,0 0.48493,-0.10987 0.21974,-0.10987 0.34854,-0.34476 0.12881,-0.23867 0.12881,-0.60616 v -2.30342 h 0.79938 v 4.00068 h -0.78422 v -0.9926 h 0.18564 q -0.19322,0.53419 -0.54555,0.80317 -0.34854,0.26899 -0.84863,0.26899 z m 4.37574,0.0152 q -0.45841,0 -0.8259,-0.14775 -0.36748,-0.14775 -0.59101,-0.43947 -0.22352,-0.29172 -0.25383,-0.72361 h 0.78802 q 0.0341,0.32203 0.25383,0.50009 0.22352,0.17427 0.61374,0.17427 0.38264,0 0.60237,-0.15533 0.21974,-0.15533 0.21974,-0.39401 0,-0.20458 -0.15912,-0.32581 -0.15533,-0.12502 -0.41674,-0.18185 l -0.66299,-0.14775 q -0.56449,-0.12502 -0.85621,-0.41295 -0.29171,-0.28793 -0.29171,-0.73118 0,-0.35613 0.18942,-0.62511 0.19322,-0.26899 0.53797,-0.42053 0.34476,-0.15154 0.80317,-0.15154 0.45083,0 0.79938,0.15912 0.35233,0.15912 0.55312,0.45084 0.20458,0.29171 0.21595,0.69708 h -0.76528 q -0.004,-0.29171 -0.21974,-0.48114 -0.21594,-0.19321 -0.57206,-0.19321 -0.34097,0 -0.54176,0.15911 -0.20079,0.15912 -0.20079,0.39022 0,0.20458 0.15154,0.3296 0.15533,0.12502 0.42431,0.18564 l 0.68194,0.15154 q 0.58722,0.12881 0.85999,0.3978 0.27656,0.26898 0.27656,0.70466 0,0.38264 -0.21216,0.6592 -0.20836,0.27278 -0.57206,0.42432 -0.3637,0.14775 -0.82969,0.14775 z m 4.3227,-4.09539 v 0.6592 h -2.31857 v -0.6592 z m -1.61391,-1.09109 h 0.79938 v 4.03477 q 0,0.21973 0.0909,0.31066 0.0947,0.0871 0.33339,0.0871 0.0909,0 0.20079,0 0.10986,0 0.18942,0 v 0.65921 q -0.0985,0 -0.23867,0 -0.13639,0 -0.2652,0 -0.56449,0 -0.83726,-0.23489 -0.27278,-0.23868 -0.27278,-0.71982 z m 6.02375,1.09109 v 0.6592 h -2.31857 v -0.6592 z m -1.61391,-1.09109 h 0.79938 v 4.03477 q 0,0.21973 0.0909,0.31066 0.0947,0.0871 0.33339,0.0871 0.0909,0 0.20079,0 0.10986,0 0.18942,0 v 0.65921 q -0.0985,0 -0.23867,0 -0.13639,0 -0.2652,0 -0.56449,0 -0.83726,-0.23489 -0.27278,-0.23868 -0.27278,-0.71982 z m 3.04597,2.78835 v 2.30342 h -0.79938 v -5.6449 h 0.79938 v 2.63681 h -0.20079 q 0.197,-0.53797 0.54555,-0.80316 0.35233,-0.26899 0.84863,-0.26899 0.41295,0 0.73876,0.18185 0.3296,0.17806 0.51903,0.53039 0.18942,0.35233 0.18942,0.87515 v 2.49285 h -0.79938 v -2.39435 q 0,-0.48114 -0.2311,-0.72361 -0.22731,-0.24625 -0.64404,-0.24625 -0.27278,0 -0.49251,0.10987 -0.21595,0.10986 -0.34476,0.34475 -0.12881,0.23489 -0.12881,0.60617 z m 5.25089,2.39434 q -0.5948,0 -1.0229,-0.26898 -0.42431,-0.26899 -0.65541,-0.73877 -0.22731,-0.47356 -0.22731,-1.07593 0,-0.61375 0.23867,-1.08352 0.23868,-0.47357 0.65921,-0.74255 0.42052,-0.27278 0.96607,-0.27278 0.42431,0 0.76528,0.15155 0.34475,0.15154 0.59101,0.43189 0.24625,0.27656 0.37885,0.6592 0.1326,0.38264 0.1326,0.84863 v 0.21594 h -3.37178 v -0.60616 h 2.95125 l -0.35233,0.18564 q 0,-0.37128 -0.1326,-0.64405 -0.1326,-0.27656 -0.37885,-0.42431 -0.24246,-0.15155 -0.57585,-0.15155 -0.32961,0 -0.57207,0.15155 -0.24247,0.14775 -0.37885,0.42431 -0.1326,0.27277 -0.1326,0.64405 v 0.34475 q 0,0.37886 0.1326,0.67057 0.13259,0.28793 0.38264,0.45084 0.25383,0.1629 0.61374,0.1629 0.26141,0 0.4622,-0.0796 0.20079,-0.0833 0.33339,-0.22731 0.1326,-0.14396 0.18942,-0.33339 h 0.76907 q -0.072,0.38643 -0.32202,0.68194 -0.24626,0.29171 -0.62132,0.45841 -0.37127,0.16669 -0.82211,0.16669 z m 5.84569,0.004 q -0.45841,0 -0.8259,-0.14775 -0.36749,-0.14775 -0.59101,-0.43947 -0.22352,-0.29172 -0.25383,-0.72361 h 0.78801 q 0.0341,0.32203 0.25383,0.50009 0.22353,0.17427 0.61374,0.17427 0.38265,0 0.60238,-0.15533 0.21973,-0.15533 0.21973,-0.39401 0,-0.20458 -0.15911,-0.32581 -0.15533,-0.12502 -0.41674,-0.18185 l -0.66299,-0.14775 q -0.56449,-0.12502 -0.85621,-0.41295 -0.29171,-0.28793 -0.29171,-0.73118 0,-0.35613 0.18942,-0.62511 0.19322,-0.26899 0.53797,-0.42053 0.34476,-0.15154 0.80317,-0.15154 0.45083,0 0.79938,0.15912 0.35233,0.15912 0.55312,0.45084 0.20458,0.29171 0.21595,0.69708 h -0.76529 q -0.004,-0.29171 -0.21973,-0.48114 -0.21595,-0.19321 -0.57207,-0.19321 -0.34096,0 -0.54175,0.15911 -0.2008,0.15912 -0.2008,0.39022 0,0.20458 0.15154,0.3296 0.15533,0.12502 0.42432,0.18564 l 0.68193,0.15154 q 0.58722,0.12881 0.86,0.3978 0.27656,0.26898 0.27656,0.70466 0,0.38264 -0.21216,0.6592 -0.20837,0.27278 -0.57207,0.42432 -0.36369,0.14775 -0.82968,0.14775 z m 2.31858,-0.0947 v -4.00068 h 0.79937 v 4.00068 z m 0.39779,-4.69019 q -0.21216,0 -0.35991,-0.14018 -0.14396,-0.14396 -0.14396,-0.34854 0,-0.20837 0.14396,-0.34854 0.14775,-0.14397 0.35991,-0.14397 0.21216,0 0.35991,0.14397 0.14775,0.14017 0.14775,0.34854 0,0.20458 -0.14775,0.34854 -0.14775,0.14018 -0.35991,0.14018 z m 1.21233,4.69019 v -0.57965 l 2.12157,-2.72773 v -0.0152 h -2.12157 v -0.67814 h 3.08764 v 0.60616 l -2.09126,2.70122 v 0.0152 h 2.11399 v 0.67815 z m 5.49184,0.0909 q -0.5948,0 -1.0229,-0.26898 -0.42432,-0.26899 -0.65541,-0.73877 -0.22732,-0.47356 -0.22732,-1.07593 0,-0.61375 0.23868,-1.08352 0.23868,-0.47357 0.6592,-0.74255 0.42053,-0.27278 0.96608,-0.27278 0.42431,0 0.76528,0.15155 0.34475,0.15154 0.59101,0.43189 0.24625,0.27656 0.37885,0.6592 0.1326,0.38264 0.1326,0.84863 v 0.21594 h -3.37179 v -0.60616 h 2.95126 l -0.35233,0.18564 q 0,-0.37128 -0.1326,-0.64405 -0.1326,-0.27656 -0.37885,-0.42431 -0.24247,-0.15155 -0.57586,-0.15155 -0.3296,0 -0.57206,0.15155 -0.24247,0.14775 -0.37886,0.42431 -0.13259,0.27277 -0.13259,0.64405 v 0.34475 q 0,0.37886 0.13259,0.67057 0.1326,0.28793 0.38264,0.45084 0.25384,0.1629 0.61375,0.1629 0.2614,0 0.46219,-0.0796 0.2008,-0.0833 0.33339,-0.22731 0.1326,-0.14396 0.18943,-0.33339 h 0.76907 q -0.072,0.38643 -0.32202,0.68194 -0.24626,0.29171 -0.62132,0.45841 -0.37128,0.16669 -0.82211,0.16669 z"
      id="text28"
      aria-label="Adjust the size"
    /></g><style type="text/css" id="style1">
.st0 {
  fill: #0080ff;
}
.st1 {
  fill-rule: evenodd;
  clip-rule: evenodd;
  fill: #0080ff;
}
  </style></svg>
