<?xml version="1.0" encoding="UTF-8" standalone="no" ?>
<!-- Created with Inkscape (http://www.inkscape.org/) -->
<svg
  width="1200"
  height="675"
  viewBox="0 0 317.49999 178.59375"
  version="1.1"
  id="svg1"
  inkscape:version="1.4.2 (ebf0e940d0, 2025-05-08)"
  xml:space="preserve"
  sodipodi:docname="earth_pointing_at_polaris.svg"
  inkscape:export-filename="earth_pointing_at_polaris.png"
  inkscape:export-xdpi="96"
  inkscape:export-ydpi="96"
  xmlns:inkscape="http://www.inkscape.org/namespaces/inkscape"
  xmlns:sodipodi="http://sodipodi.sourceforge.net/DTD/sodipodi-0.dtd"
  xmlns="http://www.w3.org/2000/svg"
  xmlns:svg="http://www.w3.org/2000/svg"
><sodipodi:namedview
    id="namedview1"
    pagecolor="#ffffff"
    bordercolor="#000000"
    borderopacity="0.25"
    inkscape:showpageshadow="2"
    inkscape:pageopacity="0.0"
    inkscape:pagecheckerboard="0"
    inkscape:deskcolor="#d1d1d1"
    inkscape:document-units="px"
    showguides="true"
    inkscape:zoom="0.80947088"
    inkscape:cx="560.8602"
    inkscape:cy="426.82202"
    inkscape:window-width="2560"
    inkscape:window-height="1371"
    inkscape:window-x="0"
    inkscape:window-y="0"
    inkscape:window-maximized="1"
    inkscape:current-layer="layer1"
  /><defs id="defs1"><inkscape:path-effect
      effect="bspline"
      id="path-effect34"
      is_visible="true"
      lpeversion="1.3"
      weight="33.333333"
      steps="2"
      helper_size="0"
      apply_no_weight="true"
      apply_with_weight="true"
      only_selected="false"
      uniform="false"
    /></defs><g
    inkscape:label="Layer 1"
    inkscape:groupmode="layer"
    id="layer1"
    transform="translate(-78.576401,-40.486794)"
  ><rect
      style="opacity:1;fill:#ffffff;fill-opacity:1;stroke:none;stroke-width:0.79375;stroke-dasharray:none"
      id="rect44"
      width="317.5"
      height="178.59375"
      x="78.576401"
      y="40.486794"
    /><path
      id="path33"
      style="fill:#ffffff;stroke:none;stroke-width:0.793746;stroke-dasharray:none"
      d="m 239.20625,184.65868 a 51.314973,51.314973 0 0 1 -36.78757,-13.75414 51.314973,51.314973 0 0 1 -16.3185,-37.52949 51.314973,6.698667 0 0 0 51.315,6.69865 51.314973,6.698667 0 0 0 51.315,-6.69865 51.314973,51.314973 0 0 1 -13.78552,34.9969 51.314973,51.314973 0 0 1 -35.73841,16.28673 z"
    /><path
      id="circle33"
      style="fill:#666666;stroke:none;stroke-width:0.793746;stroke-dasharray:none"
      d="m 239.20625,82.09142 a 51.314973,51.314973 45 0 0 -36.78757,13.754151 51.314973,51.314973 45 0 0 -16.3185,37.529479 51.314973,6.698667 2.9822052e-8 0 1 51.315,-6.69864 51.314973,6.698667 2.9822052e-8 0 1 51.315,6.69865 A 51.314973,51.314973 45 0 0 274.94466,98.378159 51.314973,51.314973 45 0 0 239.20625,82.09142 Z"
    /><ellipse
      style="fill:#9ef09e;fill-opacity:1;stroke:#000000;stroke-width:0.529167"
      id="ellipse16"
      cx="133.37505"
      cy="-237.41531"
      rx="6.698667"
      ry="51.314972"
      transform="rotate(90)"
    /><circle
      style="fill:none;stroke:#000000;stroke-width:0.793746;stroke-dasharray:none"
      id="path1"
      cx="82.672997"
      cy="259.46118"
      r="51.314972"
      transform="rotate(-43)"
    /><ellipse
      style="fill:none;stroke:#000000;stroke-width:0.396875;stroke-dasharray:none;stroke-opacity:0.5"
      id="circle12"
      cx="82.672997"
      cy="259.46118"
      rx="41.01133"
      ry="51.314972"
      transform="rotate(-43)"
    /><ellipse
      style="fill:none;stroke:#000000;stroke-width:0.396875;stroke-dasharray:none;stroke-opacity:0.5"
      id="circle13"
      cx="82.672997"
      cy="259.46118"
      rx="30.707687"
      ry="51.314972"
      transform="rotate(-43)"
    /><ellipse
      style="fill:none;stroke:#000000;stroke-width:0.396875;stroke-dasharray:none;stroke-opacity:0.5"
      id="circle14"
      cx="82.672997"
      cy="259.46118"
      rx="20.404043"
      ry="51.314972"
      transform="rotate(-43)"
    /><ellipse
      style="fill:none;stroke:#000000;stroke-width:0.396875;stroke-dasharray:none;stroke-opacity:0.5"
      id="circle15"
      cx="82.672997"
      cy="259.46118"
      rx="10.100402"
      ry="51.314972"
      transform="rotate(-43)"
    /><path
      id="path2"
      style="baseline-shift:baseline;display:inline;overflow:visible;vector-effect:none;stroke-width:1;enable-background:accumulate;stop-color:#000000"
      d="m 186.87107,78.725623 -0.44697,0.415614 9.97909,10.701159 0.44658,-0.416011 z m 10.96713,11.761034 -0.44619,0.416011 90.56847,97.122212 0.44538,-0.41561 z"
    /><path
      d="m 178.05494,135.74091 v -4.73173 h 0.65736 l 1.94985,3.08039 q 0.0635,0.0984 0.15879,0.2604 0.0984,0.16196 0.20959,0.3525 0.11115,0.18736 0.21277,0.37155 l -0.054,0.11432 q -0.006,-0.16831 -0.0159,-0.39378 -0.006,-0.22547 -0.01,-0.42871 -0.003,-0.20324 -0.003,-0.30169 v -3.05498 h 0.57162 v 4.73173 h -0.66371 l -1.73391,-2.73742 q -0.0699,-0.11115 -0.19054,-0.30486 -0.1175,-0.19372 -0.27628,-0.4573 -0.15878,-0.26357 -0.34615,-0.57796 l 0.0667,-0.15244 q 0.0159,0.36838 0.0222,0.66054 0.01,0.28898 0.0127,0.49858 0.003,0.20642 0.003,0.32709 v 2.74377 z"
      id="text30"
      style="font-size:6.50374px;line-height:1;font-family:Inter;-inkscape-font-specification:Inter;letter-spacing:0px;white-space:pre;stroke-width:0.396875"
      aria-label="N"
    /><path
      d="m 294.883,135.81712 q -0.54621,0 -0.94634,-0.19371 -0.40013,-0.19689 -0.61925,-0.55574 -0.21912,-0.35885 -0.21912,-0.85108 h 0.58432 q 0,0.33662 0.13973,0.58115 0.1429,0.24135 0.41283,0.37155 0.26993,0.12702 0.64783,0.12702 0.34615,0 0.6002,-0.10162 0.25723,-0.10162 0.40014,-0.28898 0.1429,-0.18736 0.1429,-0.44142 0,-0.19689 -0.0921,-0.34297 -0.0921,-0.14608 -0.29852,-0.25405 -0.20324,-0.11115 -0.54621,-0.19372 l -0.53033,-0.1302 q -0.72405,-0.17783 -1.04479,-0.47635 -0.32074,-0.29851 -0.32074,-0.78121 0,-0.40966 0.20006,-0.71134 0.20324,-0.30487 0.57162,-0.47318 0.36838,-0.1683 0.8606,-0.1683 0.49223,0 0.85425,0.18101 0.3652,0.17783 0.56845,0.5081 0.20324,0.33027 0.21594,0.78439 h -0.56527 q -0.0254,-0.44459 -0.31756,-0.69547 -0.29216,-0.25405 -0.77486,-0.25405 -0.30486,0 -0.54304,0.10162 -0.235,0.10162 -0.37155,0.28263 -0.13338,0.18101 -0.13338,0.41601 0,0.18419 0.0953,0.32074 0.0953,0.13656 0.30169,0.24135 0.20959,0.1048 0.55256,0.19054 l 0.53669,0.13338 q 0.34615,0.0857 0.6002,0.20642 0.25405,0.12067 0.41918,0.27946 0.16831,0.15878 0.25088,0.36202 0.0826,0.20007 0.0826,0.44777 0,0.40966 -0.21595,0.72087 -0.21277,0.31122 -0.6002,0.48588 -0.38425,0.17148 -0.89871,0.17148 z"
      id="text31"
      style="font-size:6.50374px;line-height:1;font-family:Inter;-inkscape-font-specification:Inter;letter-spacing:0px;white-space:pre;stroke-width:0.396875"
      aria-label="S"
    /><path
      id="path31"
      style="stroke-width:0.396875"
      d="m 232.22745,126.72547 a 1.0129746,1.0129746 0 0 1 -1.01297,1.01298 1.0129746,1.0129746 0 0 1 -1.01298,-1.01298 1.0129746,1.0129746 0 0 1 1.01298,-1.01297 1.0129746,1.0129746 0 0 1 1.01297,1.01297 z"
    /><path
      id="circle31"
      style="stroke-width:0.396875"
      d="m 244.62911,140.02463 a 1.0129746,1.0129746 0 0 1 -1.01298,1.01297 1.0129746,1.0129746 0 0 1 -1.01297,-1.01297 1.0129746,1.0129746 0 0 1 1.01297,-1.01298 1.0129746,1.0129746 0 0 1 1.01298,1.01298 z"
    /><path
      d="m 232.14993,124.47611 v -4.73172 h 3.07721 v 0.5081 h -2.50559 v 1.54655 h 2.3214 v 0.5081 h -2.3214 v 1.66087 h 2.50559 v 0.5081 z"
      id="text32"
      style="font-size:6.50374px;line-height:1;font-family:Inter;-inkscape-font-specification:Inter;letter-spacing:0px;white-space:pre;fill:#ffffff;stroke-width:0.396875"
      aria-label="E"
    /><path
      d="m 239.27162,146.90604 -1.28931,-4.73173 h 0.57796 l 0.76534,2.95336 q 0.0603,0.22865 0.11432,0.45729 0.054,0.22865 0.1048,0.4573 0.0508,0.22865 0.0953,0.45729 h -0.0667 q 0.0476,-0.22864 0.0984,-0.45729 0.0508,-0.22865 0.1048,-0.4573 0.0572,-0.22864 0.1175,-0.45729 l 0.78121,-2.95336 h 0.66054 l 0.77486,2.95336 q 0.0603,0.22865 0.1175,0.45729 0.0572,0.22865 0.10797,0.4573 0.054,0.22865 0.10162,0.45729 h -0.0762 q 0.0476,-0.22864 0.0985,-0.45729 0.0508,-0.22865 0.10797,-0.4573 0.0572,-0.22864 0.11432,-0.45729 l 0.76216,-2.95336 h 0.58432 l -1.29567,4.73173 h -0.66688 l -0.82885,-3.04863 q -0.0857,-0.31757 -0.15878,-0.63513 -0.0699,-0.31757 -0.13655,-0.63513 h 0.12067 q -0.0667,0.31756 -0.13655,0.63513 -0.0699,0.31756 -0.15561,0.63513 l -0.82567,3.04863 z"
      id="text33"
      style="font-size:6.50374px;line-height:1;font-family:Inter;-inkscape-font-specification:Inter;letter-spacing:0px;white-space:pre;stroke-width:0.396875"
      aria-label="W"
    /><path
      d="m 316.0526,-84.894188 v -4.140258 h 2.69256 v 0.444592 h -2.19239 v 1.353225 h 2.03123 v 0.444591 h -2.03123 v 1.453259 h 2.19239 v 0.444591 z m 4.13193,0.04446 q -0.29177,0 -0.5224,-0.100033 -0.23063,-0.100033 -0.36679,-0.29732 -0.13337,-0.200067 -0.13337,-0.49183 0,-0.252861 0.0973,-0.411247 0.10003,-0.158385 0.26398,-0.247304 0.16672,-0.0917 0.37512,-0.138934 0.21118,-0.04724 0.4307,-0.07503 0.28065,-0.0389 0.44181,-0.05835 0.16117,-0.01945 0.22785,-0.06391 0.0695,-0.04446 0.0695,-0.155607 v -0.02779 q 0,-0.161164 -0.0778,-0.283427 -0.075,-0.125041 -0.2223,-0.194509 -0.14449,-0.07225 -0.35011,-0.07225 -0.20285,0 -0.36123,0.06947 -0.15561,0.06669 -0.25009,0.183394 -0.0917,0.116705 -0.10281,0.263976 h -0.48071 q 0.0139,-0.269534 0.16672,-0.477936 0.15283,-0.211181 0.4168,-0.333444 0.26398,-0.122262 0.61132,-0.122262 0.25564,0 0.46126,0.06947 0.2084,0.06947 0.35289,0.197288 0.14728,0.12782 0.22508,0.305656 0.0778,0.177837 0.0778,0.394575 v 2.022891 h -0.46682 v -0.416804 h -0.0111 q -0.0528,0.10559 -0.15561,0.213959 -0.10281,0.105591 -0.27787,0.177837 -0.17228,0.06947 -0.43903,0.06947 z m 0.0667,-0.422362 q 0.28899,0 0.4696,-0.102811 0.18062,-0.105591 0.26398,-0.272313 0.0834,-0.166721 0.0834,-0.358451 v -0.366788 q -0.0278,0.02501 -0.10281,0.04724 -0.0723,0.02223 -0.18062,0.04446 -0.10559,0.01945 -0.23063,0.0389 -0.12226,0.01945 -0.2473,0.03612 -0.1695,0.02223 -0.32233,0.0778 -0.15005,0.05279 -0.24453,0.152828 -0.0945,0.09725 -0.0945,0.263976 0,0.136156 0.0722,0.23619 0.075,0.09725 0.21118,0.150049 0.13615,0.0528 0.32232,0.0528 z m 1.98399,0.377903 v -2.934303 h 0.45015 v 0.461263 h 0.0111 q 0.0806,-0.227853 0.25564,-0.366788 0.17506,-0.138934 0.45015,-0.138934 0.0639,0 0.1167,0.0056 0.0556,0.0056 0.0834,0.01112 v 0.472378 q -0.0278,-0.0083 -0.10837,-0.01945 -0.0778,-0.01389 -0.18061,-0.01389 -0.16117,0 -0.3001,0.07502 -0.13894,0.07502 -0.2223,0.23341 -0.0834,0.158386 -0.0834,0.408468 v 1.806153 z m 3.20384,-2.934303 v 0.405689 h -1.58941 v -0.405689 z m -1.06702,-0.800265 h 0.47238 v 3.023222 q 0,0.1695 0.0695,0.238968 0.0722,0.06669 0.25286,0.06669 0.0639,0 0.13615,0 0.075,0 0.13616,0 v 0.40569 q -0.0722,0 -0.15838,0 -0.0861,0 -0.15839,0 -0.3779,0 -0.56408,-0.163943 -0.18617,-0.166722 -0.18617,-0.497387 z m 2.02845,2.017334 v 1.717234 h -0.47238 v -4.140258 h 0.47238 v 1.917301 h -0.14449 q 0.14449,-0.397354 0.40013,-0.580748 0.25842,-0.186172 0.60576,-0.186172 0.29732,0 0.54184,0.130599 0.24453,0.12782 0.38902,0.386238 0.14727,0.258419 0.14727,0.650215 v 1.822825 h -0.47238 v -1.78948 q 0,-0.380682 -0.18339,-0.572412 -0.18062,-0.194509 -0.51128,-0.194509 -0.21396,0 -0.38902,0.08614 -0.17506,0.08614 -0.28065,0.272312 -0.10281,0.183394 -0.10281,0.480715 z m 4.95719,1.761693 q -0.29176,0 -0.52239,-0.100033 -0.23063,-0.100033 -0.36679,-0.29732 -0.13338,-0.200067 -0.13338,-0.49183 0,-0.252861 0.0973,-0.411247 0.10003,-0.158385 0.26397,-0.247304 0.16673,-0.0917 0.37513,-0.138934 0.21118,-0.04724 0.4307,-0.07503 0.28064,-0.0389 0.44181,-0.05835 0.16116,-0.01945 0.22785,-0.06391 0.0695,-0.04446 0.0695,-0.155607 v -0.02779 q 0,-0.161164 -0.0778,-0.283427 -0.075,-0.125041 -0.2223,-0.194509 -0.14449,-0.07225 -0.35012,-0.07225 -0.20284,0 -0.36123,0.06947 -0.1556,0.06669 -0.25008,0.183394 -0.0917,0.116705 -0.10281,0.263976 h -0.48071 q 0.0139,-0.269534 0.16672,-0.477936 0.15283,-0.211181 0.4168,-0.333444 0.26398,-0.122262 0.61131,-0.122262 0.25564,0 0.46127,0.06947 0.2084,0.06947 0.35289,0.197288 0.14727,0.12782 0.22508,0.305656 0.0778,0.177837 0.0778,0.394575 v 2.022891 h -0.46682 v -0.416804 h -0.0111 q -0.0528,0.10559 -0.1556,0.213959 -0.10281,0.105591 -0.27787,0.177837 -0.17228,0.06947 -0.43904,0.06947 z m 0.0667,-0.422362 q 0.28899,0 0.4696,-0.102811 0.18062,-0.105591 0.26398,-0.272313 0.0834,-0.166721 0.0834,-0.358451 v -0.366788 q -0.0278,0.02501 -0.10281,0.04724 -0.0722,0.02223 -0.18062,0.04446 -0.10559,0.01945 -0.23063,0.0389 -0.12226,0.01945 -0.2473,0.03612 -0.1695,0.02223 -0.32233,0.0778 -0.15005,0.05279 -0.24453,0.152828 -0.0945,0.09725 -0.0945,0.263976 0,0.136156 0.0722,0.23619 0.075,0.09725 0.21118,0.150049 0.13616,0.0528 0.32233,0.0528 z m 1.71724,0.377903 1.22818,-1.678333 -0.003,0.36401 -1.16149,-1.61998 h 0.55574 l 0.39735,0.577969 q 0.11948,0.172279 0.23341,0.344558 0.11393,0.1695 0.23063,0.344558 h -0.23341 q 0.11949,-0.175058 0.23341,-0.344558 0.11671,-0.172279 0.23619,-0.344558 l 0.40291,-0.577969 h 0.54741 l -1.16428,1.61998 v -0.366788 l 1.21429,1.681111 h -0.55296 l -0.46682,-0.666887 q -0.11671,-0.166722 -0.22785,-0.330665 -0.11115,-0.163943 -0.22508,-0.333443 h 0.23619 q -0.11392,0.1695 -0.22785,0.333443 -0.11393,0.163943 -0.23063,0.330665 l -0.47238,0.666887 z m 3.15104,0 v -2.934303 h 0.47238 v 2.934303 z m 0.23619,-3.506715 q -0.13338,0 -0.22786,-0.09448 -0.0945,-0.09448 -0.0945,-0.227854 0,-0.133377 0.0945,-0.227853 0.0945,-0.09447 0.22786,-0.09447 0.13337,0 0.22785,0.09447 0.0945,0.09448 0.0945,0.227853 0,0.133378 -0.0945,0.227854 -0.0945,0.09448 -0.22785,0.09448 z m 1.95898,3.573404 q -0.31399,0 -0.56963,-0.102812 -0.25564,-0.102812 -0.41403,-0.311214 -0.15838,-0.211181 -0.17784,-0.530731 h 0.46683 q 0.025,0.261197 0.20006,0.400132 0.17506,0.138935 0.48349,0.138935 0.30566,0 0.48072,-0.12782 0.17784,-0.12782 0.17784,-0.322329 0,-0.166721 -0.12227,-0.266755 -0.12226,-0.100033 -0.31955,-0.144492 l -0.47238,-0.111148 q -0.40846,-0.09725 -0.61964,-0.305656 -0.20841,-0.208402 -0.20841,-0.527953 0,-0.250082 0.13338,-0.441812 0.13616,-0.194509 0.37512,-0.302878 0.24175,-0.111148 0.55574,-0.111148 0.30566,0 0.54741,0.116705 0.24452,0.113927 0.38624,0.325108 0.14449,0.211181 0.15282,0.502944 h -0.46126 q -0.003,-0.233411 -0.17228,-0.386239 -0.1695,-0.152828 -0.45293,-0.152828 -0.26953,0 -0.43069,0.130598 -0.16117,0.130599 -0.16117,0.31955 0,0.166722 0.12226,0.269534 0.12227,0.100033 0.33345,0.15005 l 0.47238,0.111147 q 0.42236,0.100034 0.61965,0.3001 0.19728,0.197287 0.19728,0.514059 0,0.272312 -0.14727,0.466821 -0.14727,0.194508 -0.40291,0.29732 -0.25286,0.102812 -0.57241,0.102812 z"
      id="text34"
      style="font-size:5.69077px;line-height:1;font-family:Inter;-inkscape-font-specification:Inter;letter-spacing:0px;white-space:pre;stroke-width:0.396875"
      inkscape:transform-center-x="-11.954521"
      inkscape:transform-center-y="9.3410361"
      transform="rotate(46.972579)"
      aria-label="Earth axis"
    /><path
      id="path39"
      style="baseline-shift:baseline;display:inline;overflow:visible;vector-effect:none;stroke-width:1;enable-background:accumulate;stop-color:#000000"
      d="m 197.7989,84.034919 c -1.02423,0.563059 -2.11422,1.350874 -3.14628,2.246379 l 0.42276,0.453327 c 1.0001,-0.869166 2.0498,-1.633375 3.01687,-2.165005 z m 2.51432,2.324579 -2.83784,0.553753 0.1163,0.59742 1.79783,-0.349715 c -1.71396,2.315117 -4.61133,4.809296 -6.75423,5.793976 -0.57357,0.263567 -1.04136,0.394665 -1.37029,0.416016 -0.32892,0.02135 -0.48732,-0.05287 -0.57083,-0.156802 -0.0835,-0.103931 -0.13385,-0.309963 -0.0627,-0.665694 0.0711,-0.355736 0.26274,-0.834935 0.59345,-1.404833 0.5936,-1.022906 1.53454,-2.175073 2.61713,-3.258617 l -0.42316,-0.453724 c -1.11478,1.11581 -2.08473,2.312191 -2.72034,3.407479 -0.35268,0.60775 -0.57365,1.133945 -0.6649,1.590207 -0.0912,0.456264 -0.0546,0.867898 0.18538,1.166659 0.24001,0.298764 0.63986,0.411982 1.08528,0.383064 0.44542,-0.02892 0.96889,-0.185891 1.58544,-0.469205 2.31664,-1.064513 5.24462,-3.601007 7.02137,-6.027392 l 0.35726,1.831955 0.59743,-0.115907 z"
    /><path
      d="m 178.82417,73.336159 v -4.140258 h 1.48382 q 0.43348,0 0.74747,0.152828 0.31677,0.152829 0.48627,0.436256 0.17228,0.280648 0.17228,0.666887 0,0.386239 -0.17784,0.669666 -0.17506,0.280648 -0.49738,0.436255 -0.31955,0.152828 -0.75303,0.152828 h -1.21151 V 71.26603 h 1.21707 q 0.28898,0 0.4946,-0.09725 0.20841,-0.100033 0.31955,-0.283427 0.11393,-0.183394 0.11393,-0.433477 0,-0.252861 -0.11393,-0.433477 -0.11114,-0.180615 -0.31955,-0.277869 -0.20562,-0.100033 -0.4946,-0.100033 h -0.96699 v 3.695666 z m 4.46536,0.06669 q -0.40569,0 -0.71412,-0.194508 -0.30566,-0.197288 -0.47794,-0.541846 -0.1695,-0.344558 -0.1695,-0.791929 0,-0.450148 0.1695,-0.797485 0.17228,-0.347337 0.47794,-0.544625 0.30843,-0.197287 0.71412,-0.197287 0.40847,0 0.71413,0.197287 0.30565,0.197288 0.47515,0.544625 0.17228,0.347337 0.17228,0.797485 0,0.447371 -0.17228,0.791929 -0.1695,0.344558 -0.47515,0.541846 -0.30566,0.194508 -0.71413,0.194508 z m 0,-0.427919 q 0.27787,0 0.47516,-0.136156 0.19728,-0.136156 0.30288,-0.38346 0.10559,-0.250083 0.10559,-0.580748 0,-0.336222 -0.10559,-0.583526 -0.1056,-0.250082 -0.30288,-0.389017 -0.19729,-0.138935 -0.47516,-0.138935 -0.27509,0 -0.47516,0.138935 -0.19728,0.136156 -0.30287,0.386239 -0.1056,0.250082 -0.1056,0.586304 0,0.333444 0.1056,0.580748 0.10559,0.247304 0.30287,0.38346 0.19729,0.136156 0.47516,0.136156 z m 2.38412,-3.779027 v 4.140258 h -0.47238 v -4.140258 z m 1.59497,4.184717 q -0.29176,0 -0.52239,-0.100033 -0.23063,-0.100033 -0.36679,-0.297321 -0.13338,-0.200066 -0.13338,-0.491829 0,-0.252861 0.0973,-0.411247 0.10003,-0.158386 0.26397,-0.247304 0.16673,-0.0917 0.37513,-0.138935 0.21118,-0.04724 0.4307,-0.07502 0.28064,-0.0389 0.44181,-0.05835 0.16116,-0.01945 0.22785,-0.06391 0.0695,-0.04446 0.0695,-0.155607 v -0.02779 q 0,-0.161165 -0.0778,-0.283427 -0.075,-0.125042 -0.2223,-0.194509 -0.14449,-0.07225 -0.35012,-0.07225 -0.20284,0 -0.36123,0.06947 -0.1556,0.06669 -0.25008,0.183394 -0.0917,0.116706 -0.10281,0.263976 h -0.48072 q 0.0139,-0.269533 0.16673,-0.477935 0.15282,-0.211181 0.4168,-0.333444 0.26398,-0.122263 0.61131,-0.122263 0.25564,0 0.46127,0.06947 0.2084,0.06947 0.35289,0.197287 0.14727,0.12782 0.22508,0.305657 0.0778,0.177836 0.0778,0.394575 v 2.022891 h -0.46682 v -0.416805 h -0.0111 q -0.0528,0.105591 -0.1556,0.21396 -0.10281,0.10559 -0.27787,0.177836 -0.17228,0.06947 -0.43904,0.06947 z m 0.0667,-0.422362 q 0.28899,0 0.4696,-0.102812 0.18062,-0.10559 0.26398,-0.272312 0.0834,-0.166722 0.0834,-0.358452 v -0.366788 q -0.0278,0.02501 -0.10281,0.04724 -0.0722,0.02223 -0.18062,0.04446 -0.10559,0.01945 -0.23063,0.0389 -0.12226,0.01945 -0.2473,0.03612 -0.1695,0.02223 -0.32233,0.0778 -0.15005,0.0528 -0.24453,0.152828 -0.0945,0.09725 -0.0945,0.263976 0,0.136156 0.0722,0.236189 0.075,0.09726 0.21118,0.15005 0.13616,0.0528 0.32233,0.0528 z m 1.98399,0.377903 v -2.934304 h 0.45015 v 0.461264 h 0.0111 q 0.0806,-0.227853 0.25564,-0.366788 0.17505,-0.138935 0.45014,-0.138935 0.0639,0 0.11671,0.0056 0.0556,0.0056 0.0834,0.01111 v 0.472379 q -0.0278,-0.0083 -0.10837,-0.01945 -0.0778,-0.01389 -0.18061,-0.01389 -0.16117,0 -0.3001,0.07502 -0.13894,0.07502 -0.2223,0.233411 -0.0834,0.158385 -0.0834,0.408468 v 1.806153 z m 1.83394,0 v -2.934304 h 0.47238 v 2.934304 z m 0.23619,-3.506715 q -0.13338,0 -0.22785,-0.09448 -0.0945,-0.09447 -0.0945,-0.227853 0,-0.133377 0.0945,-0.227853 0.0945,-0.09448 0.22785,-0.09448 0.13338,0 0.22785,0.09448 0.0945,0.09448 0.0945,0.227853 0,0.133378 -0.0945,0.227853 -0.0945,0.09448 -0.22785,0.09448 z m 1.95898,3.573403 q -0.31399,0 -0.56963,-0.102811 -0.25564,-0.102812 -0.41403,-0.311214 -0.15838,-0.211181 -0.17783,-0.530731 h 0.46682 q 0.025,0.261197 0.20006,0.400132 0.17506,0.138935 0.4835,0.138935 0.30565,0 0.48071,-0.12782 0.17784,-0.12782 0.17784,-0.322329 0,-0.166722 -0.12227,-0.266755 -0.12226,-0.100033 -0.31955,-0.144492 l -0.47237,-0.111148 q -0.40847,-0.09725 -0.61965,-0.305657 -0.20841,-0.208402 -0.20841,-0.527952 0,-0.250083 0.13338,-0.441813 0.13616,-0.194508 0.37513,-0.302877 0.24174,-0.111148 0.55574,-0.111148 0.30565,0 0.5474,0.116705 0.24452,0.113926 0.38624,0.325107 0.14449,0.211181 0.15283,0.502944 h -0.46127 q -0.003,-0.23341 -0.17228,-0.386238 -0.1695,-0.152829 -0.45292,-0.152829 -0.26954,0 -0.4307,0.130599 -0.16117,0.130599 -0.16117,0.31955 0,0.166722 0.12227,0.269534 0.12226,0.100033 0.33344,0.150049 l 0.47238,0.111148 q 0.42236,0.100033 0.61965,0.300099 0.19728,0.197288 0.19728,0.514059 0,0.272312 -0.14727,0.466821 -0.14727,0.194509 -0.40291,0.297321 -0.25286,0.102811 -0.57241,0.102811 z"
      id="text40"
      style="font-size:5.69077px;line-height:1;font-family:Inter;-inkscape-font-specification:Inter;letter-spacing:0px;white-space:pre;stroke-width:0.396875"
      aria-label="Polaris"
    /><g id="g41" style="stroke-width:1.30182" transform="matrix(0.76815818,0,0,0.76815818,103.35495,31.386547)"><circle
        style="fill:#ff6600;fill-opacity:1;stroke:none;stroke-width:0.318155;stroke-linejoin:round"
        id="circle159"
        cx="108.43162"
        cy="61.897255"
        r="1.9282815"
      /><rect
        style="fill:#ff6600;fill-opacity:1;stroke:none;stroke-width:0.318155;stroke-linejoin:round"
        id="rect160"
        width="0.95445067"
        height="9.2377186"
        x="107.95439"
        y="57.278397"
      /><rect
        style="fill:#ff6600;fill-opacity:1;stroke:none;stroke-width:0.318155;stroke-linejoin:round"
        id="rect161"
        width="0.95445067"
        height="9.2377186"
        x="107.34318"
        y="-67.574768"
        transform="rotate(60)"
      /><rect
        style="fill:#ff6600;fill-opacity:1;stroke:none;stroke-width:0.318155;stroke-linejoin:round"
        id="rect162"
        width="0.95445067"
        height="9.2377186"
        x="-1.0884393"
        y="-129.47202"
        transform="rotate(120)"
      /></g></g></svg>
