<?xml version="1.0" encoding="UTF-8" standalone="no"?>
<!-- Created with Inkscape (http://www.inkscape.org/) -->

<svg
   width="1200"
   height="675"
   viewBox="0 0 317.49999 178.59375"
   version="1.1"
   id="svg1"
   inkscape:version="1.4.2 (ebf0e940d0, 2025-05-08)"
   sodipodi:docname="coverImage.svg"
   xml:space="preserve"
   xmlns:inkscape="http://www.inkscape.org/namespaces/inkscape"
   xmlns:sodipodi="http://sodipodi.sourceforge.net/DTD/sodipodi-0.dtd"
   xmlns="http://www.w3.org/2000/svg"
   xmlns:svg="http://www.w3.org/2000/svg"><sodipodi:namedview
     id="namedview1"
     pagecolor="#ffffff"
     bordercolor="#000000"
     borderopacity="0.25"
     inkscape:showpageshadow="2"
     inkscape:pageopacity="0.0"
     inkscape:pagecheckerboard="0"
     inkscape:deskcolor="#d1d1d1"
     inkscape:document-units="px"
     inkscape:zoom="0.84852814"
     inkscape:cx="545.65073"
     inkscape:cy="385.96245"
     inkscape:window-width="2560"
     inkscape:window-height="1371"
     inkscape:window-x="0"
     inkscape:window-y="0"
     inkscape:window-maximized="1"
     inkscape:current-layer="layer1"
     showguides="true" /><defs
     id="defs1" /><g
     inkscape:label="Layer 1"
     inkscape:groupmode="layer"
     id="layer1"><rect
       style="fill:#ffffff;stroke-width:0.529167"
       id="rect3"
       width="317.5"
       height="178.59375"
       x="4.2268066e-06"
       y="-6.7154101e-06" /><path
       style="baseline-shift:baseline;display:inline;overflow:visible;opacity:0.77215;vector-effect:none;fill:#000000;fill-opacity:1;stroke-width:1.20976;stroke-linecap:round;enable-background:accumulate;stop-color:#000000"
       d="m 128.87277,169.91976 a 0.6299987,0.6299987 0 0 0 -0.44414,0.18511 0.6299987,0.6299987 0 0 0 0.003,0.89031 c 2.63212,2.61333 5.32492,5.14637 8.07457,7.59856 h 1.89793 c -3.102,-2.72829 -6.13185,-5.55964 -9.08557,-8.49226 a 0.6299987,0.6299987 0 0 0 -0.44482,-0.18172 z"
       id="path61" /><path
       style="baseline-shift:baseline;display:inline;overflow:visible;opacity:0.591943;vector-effect:none;fill:#000000;fill-opacity:1;stroke-width:1.20976;stroke-linecap:round;enable-background:accumulate;stop-color:#000000"
       d="m 193.35398,155.56009 a 1.0499978,1.0499978 0 0 0 -0.92015,0.50245 1.0499978,1.0499978 0 0 0 0.34989,1.44227 c 18.20587,11.10919 37.86896,18.06685 57.83536,21.08893 h 46.67079 c 6.82371,-1.02959 13.57631,-2.5096 20.21013,-4.43057 v -2.17799 c -40.37395,11.8651 -85.2697,7.13194 -123.62525,-16.27253 a 1.0499978,1.0499978 0 0 0 -0.52077,-0.15256 z"
       id="path63" /><path
       style="baseline-shift:baseline;display:inline;overflow:visible;opacity:0.5;vector-effect:none;fill:#000000;fill-opacity:1;stroke-width:1.20976;stroke-linecap:round;enable-background:accumulate;stop-color:#000000"
       d="m 177.10044,106.70249 a 0.15749968,0.15749968 0 0 0 -0.0942,0.0387 0.15749968,0.15749968 0 0 0 -0.0163,0.22104 c 34.49719,40.52058 90.52265,55.33089 140.51008,37.19939 v -0.33768 c -49.89258,18.14865 -105.83285,3.38441 -140.27072,-37.06648 a 0.15749968,0.15749968 0 0 0 -0.12885,-0.055 z"
       id="path67" /><path
       style="baseline-shift:baseline;display:inline;overflow:visible;opacity:0.5;vector-effect:none;fill:#000000;fill-opacity:1;stroke-width:1.20976;stroke-linecap:round;enable-background:accumulate;stop-color:#000000"
       d="m 116.666,84.227575 -0.29428,0.11114 c 16.65511,43.765975 49.60517,76.644065 89.37075,94.254965 h 0.77438 C 166.53637,161.08657 133.38094,128.1507 116.666,84.227509 Z"
       id="path69" /><path
       style="baseline-shift:baseline;display:inline;overflow:visible;opacity:0.212344;vector-effect:none;fill:#000000;fill-opacity:1;stroke-width:1.20976;stroke-linecap:round;enable-background:accumulate;stop-color:#000000"
       d="m 223.33115,44.564034 a 0.20999929,0.20999929 0 0 0 -0.08,0.01562 0.20999929,0.20999929 0 0 0 -0.1173,0.272589 c 9.31794,23.123578 33.05345,37.061601 57.7872,33.936477 14.8803,-1.880158 27.87448,-9.652488 36.57895,-20.928213 V 57.1709 c -8.6373,11.424419 -21.67338,19.312902 -36.63116,21.202835 -24.5465,3.101506 -48.09706,-10.730928 -57.34443,-33.67949 a 0.20999929,0.20999929 0 0 0 -0.19325,-0.130166 z"
       id="path70" /><path
       style="baseline-shift:baseline;display:inline;overflow:visible;opacity:0.258949;vector-effect:none;fill:#000000;fill-opacity:1;stroke-width:1.20976;stroke-linecap:round;enable-background:accumulate;stop-color:#000000"
       d="m 18.229337,42.703388 -0.418375,0.02782 c 3.582401,49.900359 21.564425,96.912752 50.808422,135.862542 h 0.52416 C 39.835943,139.65909 21.813596,92.629664 18.229337,42.703388 Z"
       id="path71" /><path
       id="path72"
       style="baseline-shift:baseline;display:inline;overflow:visible;opacity:0.216369;vector-effect:none;fill:#000000;fill-opacity:1;stroke-width:1.20976;stroke-linecap:round;enable-background:accumulate;stop-color:#000000"
       d="M 0 126.67547 L 0 127.86713 C 6.6807737 145.5482 15.055413 162.53732 25.000024 178.59375 L 25.493534 178.59375 C 15.30715 162.17986 6.7650696 144.78763 0 126.67547 z " /><path
       style="baseline-shift:baseline;display:inline;overflow:visible;opacity:0.5;vector-effect:none;fill:#000000;fill-opacity:1;stroke-width:1.20976;stroke-linecap:round;enable-background:accumulate;stop-color:#000000"
       d="m 283.21906,24.180999 v 6.82e-4 a 0.15749968,0.15749968 0 0 0 -0.15528,0.154599 c 0,4.314219 -3.05232,8.025774 -7.28595,8.855704 a 0.15749968,0.15749968 0 0 0 -0.12675,0.183086 0.15749968,0.15749968 0 0 0 0.1858,0.123343 c 4.37952,-0.858521 7.54023,-4.699312 7.54022,-9.162199 a 0.15749968,0.15749968 0 0 0 -0.15798,-0.155281 z"
       id="path73" /><path
       style="baseline-shift:baseline;display:inline;overflow:visible;opacity:0.82582;vector-effect:none;fill:#000000;fill-opacity:1;stroke-width:1.20976;stroke-linecap:round;enable-background:accumulate;stop-color:#000000"
       d="m 312.35948,24.128788 a 0.20999929,0.20999929 0 0 0 -0.20749,0.207492 c 0,18.662647 -13.5125,34.577691 -31.928,37.604876 -18.41553,3.027171 -36.31216,-7.723557 -42.28634,-25.404208 a 0.20999929,0.20999929 0 0 0 -0.26648,-0.130823 0.20999929,0.20999929 0 0 0 -0.13016,0.263771 c 6.03909,17.872699 24.13521,28.747033 42.75082,25.686979 18.61559,-3.060067 32.27857,-19.155127 32.27857,-38.020543 a 0.20999929,0.20999929 0 0 0 -0.21089,-0.207492 z"
       id="path74" /><path
       style="baseline-shift:baseline;display:inline;overflow:visible;opacity:0.5;vector-effect:none;fill:#000000;fill-opacity:1;stroke-width:1.20976;stroke-linecap:round;enable-background:accumulate;stop-color:#000000"
       d="m 308.38459,24.128788 a 0.20999929,0.20999929 0 0 0 -0.21088,0.207492 c 0,15.147876 -9.98033,28.482646 -24.51457,32.750519 -14.53422,4.267847 -30.14049,-1.550241 -38.33043,-14.293226 a 0.20999929,0.20999929 0 0 0 -0.2909,-0.06508 0.20999929,0.20999929 0 0 0 -0.0623,0.291576 c 8.28972,12.898187 24.08972,18.789362 38.80102,14.469527 14.71128,-4.319848 24.81632,-17.820895 24.81632,-33.1533 a 0.20999929,0.20999929 0 0 0 -0.20818,-0.207492 z"
       id="path75" /><path
       style="baseline-shift:baseline;display:inline;overflow:visible;opacity:0.237102;vector-effect:none;fill:#000000;fill-opacity:1;stroke-width:1.20976;stroke-linecap:round;enable-background:accumulate;stop-color:#000000"
       d="m 210.92978,24.064374 a 0.1049998,0.1049998 0 0 0 -0.10511,0.105104 c -0.06,22.604264 11.9564,43.521113 31.51235,54.857919 19.55594,11.33678 43.67746,11.368902 63.26339,0.08411 4.35484,-2.509143 8.33804,-5.492724 11.89959,-8.864522 v -0.290893 c -3.58652,3.416673 -7.60541,6.437573 -12.0047,8.972329 C 285.97412,90.17596 261.93409,90.143668 242.44281,78.844311 222.95153,67.545007 210.9758,46.698975 211.03557,24.169478 a 0.1049998,0.1049998 0 0 0 -0.10445,-0.105104 z"
       id="path76" /><path
       style="baseline-shift:baseline;display:inline;overflow:visible;opacity:0.5;vector-effect:none;fill:#000000;fill-opacity:1;stroke-width:1.20976;stroke-linecap:round;enable-background:accumulate;stop-color:#000000"
       d="m 300.76164,23.917897 a 0.41999913,0.41999913 0 0 0 -0.41974,0.418383 c 0,9.748223 -5.3891,18.697235 -14.00707,23.253351 -8.618,4.556142 -19.04776,3.973831 -27.10348,-1.515508 a 0.41999913,0.41999913 0 0 0 -0.58314,0.10786 0.41999913,0.41999913 0 0 0 0.10917,0.583151 c 8.31168,5.663791 19.0769,6.266585 27.9687,1.565685 8.8918,-4.700874 14.45664,-13.93654 14.45664,-23.994487 a 0.41999913,0.41999913 0 0 0 -0.42108,-0.418383 z"
       id="path77" /><path
       style="baseline-shift:baseline;display:inline;overflow:visible;vector-effect:none;fill:#000000;fill-opacity:1;stroke-width:1.20976;stroke-linecap:round;enable-background:accumulate;stop-color:#000000"
       d="m 287.11327,23.707019 a 0.6299987,0.6299987 0 0 0 -0.62926,0.629261 c 0,5.99233 -4.2642,11.129248 -10.15423,12.231858 -5.89003,1.102597 -11.71951,-2.143509 -13.88705,-7.730092 a 0.6299987,0.6299987 0 0 0 -0.81505,-0.358706 0.6299987,0.6299987 0 0 0 -0.35938,0.81505 c 2.38399,6.144462 8.81582,9.723266 15.29406,8.510566 6.4782,-1.212714 11.17949,-6.877935 11.17949,-13.468676 a 0.6299987,0.6299987 0 0 0 -0.62858,-0.629261 z"
       id="path78" /><path
       style="baseline-shift:baseline;display:inline;overflow:visible;opacity:0.5;vector-effect:none;fill:#000000;fill-opacity:1;stroke-width:1.20976;stroke-linecap:round;enable-background:accumulate;stop-color:#000000"
       d="m 298.39379,18.258659 -6.9e-4,6.83e-4 a 0.1049998,0.1049998 0 0 0 -0.0197,0.0026 0.1049998,0.1049998 0 0 0 -0.0739,0.127542 c 1.78836,7.291791 0.20061,14.999773 -4.32208,20.992627 -4.5227,5.992855 -11.50316,9.632124 -19.00587,9.912152 a 0.1049998,0.1049998 0 0 0 -0.0989,0.108516 0.1049998,0.1049998 0 0 0 0.10917,0.102349 c 7.56564,-0.282364 14.60255,-3.953125 19.16318,-9.996236 4.56063,-6.04311 6.15936,-13.819311 4.35598,-21.172327 a 0.1049998,0.1049998 0 0 0 -0.0976,-0.07794 0.1049998,0.1049998 0 0 0 -0.009,0 z"
       id="path79" /><path
       style="baseline-shift:baseline;display:inline;overflow:visible;opacity:0.5;vector-effect:none;fill:#000000;fill-opacity:1;stroke-width:1.20976;stroke-linecap:round;enable-background:accumulate;stop-color:#000000"
       d="m 273.93888,17.946745 v 6.7e-4 c -0.30167,0.0092 -0.602,0.04028 -0.89845,0.09225 -1.18585,0.208069 -2.31319,0.749415 -3.23376,1.599591 -1.84112,1.700339 -2.51865,4.323588 -1.73317,6.703482 a 0.41999913,0.41999913 0 0 0 0.53026,0.266487 0.41999913,0.41999913 0 0 0 0.26648,-0.529575 c -0.6829,-2.069175 -0.0941,-4.344333 1.50669,-5.822667 1.60075,-1.478322 3.91664,-1.884515 5.92506,-1.039495 a 0.41999913,0.41999913 0 0 0 0.54923,-0.225115 0.41999913,0.41999913 0 0 0 -0.22376,-0.549245 c -0.86624,-0.364479 -1.78366,-0.526151 -2.68858,-0.496351 z"
       id="path80" /><path
       style="baseline-shift:baseline;display:inline;overflow:visible;opacity:0.5;vector-effect:none;fill:#000000;fill-opacity:1;stroke-width:1.20976;stroke-linecap:round;enable-background:accumulate;stop-color:#000000"
       d="m 261.89417,7.562648 a 0.1049998,0.1049998 0 0 0 -0.0135,6.824e-4 H 261.88 a 0.1049998,0.1049998 0 0 0 -0.0503,0.019026 c -4.93179,3.5950226 -8.03031,9.1823276 -8.46784,15.2696446 -0.43757,6.087318 1.82869,12.05658 6.19561,16.319991 a 0.1049998,0.1049998 0 0 0 0.14781,0 0.1049998,0.1049998 0 0 0 0,-0.148497 c -4.3228,-4.22032 -6.56909,-10.130102 -6.13593,-16.155892 0.43311,-6.025803 3.50183,-11.555675 8.38377,-15.1143768 a 0.1049998,0.1049998 0 0 0 0.0223,-0.1464636 0.1049998,0.1049998 0 0 0 -0.0813,-0.044089 z"
       id="path81" /><path
       style="baseline-shift:baseline;display:inline;overflow:visible;opacity:0.672405;vector-effect:none;fill:#000000;fill-opacity:1;stroke-width:1.20976;stroke-linecap:round;enable-background:accumulate;stop-color:#000000"
       d="m 274.21825,7.0093355 a 0.15749968,0.15749968 0 0 0 -0.158,0.1545989 0.15749968,0.15749968 0 0 0 0.15528,0.1607137 c 6.05278,0.062065 11.61674,3.3345189 14.61193,8.5946359 a 0.15749968,0.15749968 0 0 0 0.21426,0.05905 0.15749968,0.15749968 0 0 0 0.0591,-0.214277 C 286.0504,10.406996 280.38331,7.0723849 274.21898,7.009388 Z"
       id="path82" /><path
       style="baseline-shift:baseline;display:inline;overflow:visible;opacity:0.672405;vector-effect:none;fill:#000000;fill-opacity:1;stroke-width:1.20976;stroke-linecap:round;enable-background:accumulate;stop-color:#000000"
       d="M 272.90345,1.3785719 C 265.61283,1.747014 258.62474,5.5732921 254.49972,12.232581 a 0.36749926,0.36749926 0 0 0 0.11862,0.505838 0.36749926,0.36749926 0 0 0 0.50517,-0.117307 C 261.517,2.2996573 274.99111,-0.99446028 285.42344,5.2164889 A 0.36749926,0.36749926 0 0 0 285.92861,5.089734 0.36749926,0.36749926 0 0 0 285.8012,4.5872809 C 281.76277,2.182993 277.27842,1.1578663 272.90414,1.3786113 Z"
       id="path83" /><path
       style="baseline-shift:baseline;display:inline;overflow:visible;opacity:0.869557;vector-effect:none;fill:#000000;fill-opacity:1;stroke-width:1.20976;stroke-linecap:round;enable-background:accumulate;stop-color:#000000"
       d="M 292.94678,4.0572731e-5 C 298.03879,3.9559603 301.87948,9.4973787 303.70654,15.987097 c 3.44573,12.239376 -0.97886,25.335529 -11.14017,32.979032 a 0.20999929,0.20999929 0 0 0 -0.04,0.294961 0.20999929,0.20999929 0 0 0 0.29428,0.04002 C 303.11934,41.554223 307.60505,28.277398 304.11268,15.872519 302.3115,9.4746783 298.57857,3.9855233 293.62551,5.3694353e-5 Z"
       id="path84" /><path
       style="baseline-shift:baseline;display:inline;overflow:visible;opacity:0.5;vector-effect:none;fill:#000000;fill-opacity:1;stroke-width:1.20976;stroke-linecap:round;enable-background:accumulate;stop-color:#000000"
       d="M 237.37553,4.0572731e-5 C 236.60877,1.1568034 235.89078,2.3589277 235.22534,3.6047076 a 1.0499978,1.0499978 0 0 0 0.43057,1.4198907 1.0499978,1.0499978 0 0 0 1.41991,-0.4312552 c 0.85942,-1.6089339 1.81079,-3.1413032 2.84453,-4.593302527269 z"
       id="path85" /><path
       style="baseline-shift:baseline;display:inline;overflow:visible;opacity:0.768763;vector-effect:none;fill:#000000;fill-opacity:1;stroke-width:1.20976;stroke-linecap:round;enable-background:accumulate;stop-color:#000000"
       d="M 230.93988,4.0572731e-5 C 223.86171,12.548392 222.39463,27.949725 227.84852,42.117534 a 0.20999929,0.20999929 0 0 0 0.27326,0.120719 0.20999929,0.20999929 0 0 0 0.12072,-0.26919 C 222.80398,27.841144 224.30331,12.479084 231.42268,6.6815975e-5 Z"
       id="path86" /><path
       style="baseline-shift:baseline;display:inline;overflow:visible;opacity:0.70464;vector-effect:none;fill:#000000;fill-opacity:1;stroke-width:1.20976;stroke-linecap:round;enable-background:accumulate;stop-color:#000000"
       d="M 191.97613,4.0572731e-5 C 182.52148,31.870545 192.37867,66.383284 217.32678,88.452671 c 25.21889,22.308959 61.17408,27.759729 91.87286,13.929769 2.86457,-1.2905 5.63373,-2.72641 8.30036,-4.296976 v -0.975763 c -2.77092,1.65381 -5.65505,3.160589 -8.64415,4.507199 -30.39944,13.69512 -66.00139,8.29794 -90.97441,-13.793476 C 193.11445,65.914252 183.36771,31.6258 192.85016,4.0572731e-5 Z"
       id="path87" /><path
       style="baseline-shift:baseline;display:inline;overflow:visible;opacity:0.242393;vector-effect:none;fill:#000000;fill-opacity:1;stroke-width:1.20976;stroke-linecap:round;enable-background:accumulate;stop-color:#000000"
       d="M 180.33623,4.0572731e-5 C 174.51444,22.434681 176.76647,46.81787 187.89749,68.519878 c 19.72374,38.455142 62.55223,59.181952 104.94757,50.788092 a 0.36749926,0.36749926 0 0 0 0.28887,-0.43059 0.36749926,0.36749926 0 0 0 -0.43058,-0.28886 C 250.62658,126.91928 208.12734,106.35173 188.55184,68.185591 177.47392,46.5871 175.25685,22.315012 181.095,4.0572731e-5 Z"
       id="path88" /><path
       style="baseline-shift:baseline;display:inline;overflow:visible;opacity:0.686623;vector-effect:none;fill:#000000;fill-opacity:1;stroke-width:1.20976;stroke-linecap:round;enable-background:accumulate;stop-color:#000000"
       d="M 166.4268,4.0572731e-5 C 161.60459,21.271764 163.03495,44.123594 171.75379,65.690253 a 0.6299987,0.6299987 0 0 0 0.81844,0.349888 0.6299987,0.6299987 0 0 0 0.34786,-0.821821 C 164.26151,43.800802 162.87155,21.105828 167.71311,4.0572731e-5 Z"
       id="path89" /><path
       style="baseline-shift:baseline;display:inline;overflow:visible;opacity:0.212918;vector-effect:none;fill:#000000;fill-opacity:1;stroke-width:1.20976;stroke-linecap:round;enable-background:accumulate;stop-color:#000000"
       d="M 159.3931,4.0572731e-5 C 153.85368,26.114706 157.27593,53.892314 170.11013,78.513397 a 0.20999929,0.20999929 0 0 0 0.28546,0.08883 0.20999929,0.20999929 0 0 0 0.0875,-0.284109 C 157.68019,53.757121 154.27618,26.045712 159.82168,4.0572731e-5 Z"
       id="path90" /><path
       style="baseline-shift:baseline;display:inline;overflow:visible;opacity:0.225859;vector-effect:none;fill:#000000;fill-opacity:1;stroke-width:1.20976;stroke-linecap:round;enable-background:accumulate;stop-color:#000000"
       d="M 130.12044,4.0572731e-5 C 128.79178,7.9143075 128.10045,16.044622 128.10045,24.33628 c 0,80.59575 65.34574,145.9415 145.9415,145.9415 15.13444,0 29.73101,-2.30409 43.45805,-6.58075 v -0.76759 c -13.72123,4.29805 -28.31893,6.61466 -43.45805,6.61466 -80.19853,0 -145.20375,-65.00929 -145.20375,-145.20782 0,-8.292852 0.69506,-16.4233371 2.03016,-24.336239427269 z"
       id="path91" /><path
       style="baseline-shift:baseline;display:inline;overflow:visible;opacity:0.776976;vector-effect:none;fill:#000000;fill-opacity:1;stroke-width:1.20976;stroke-linecap:round;enable-background:accumulate;stop-color:#000000"
       d="M 94.736274,4.0572731e-5 C 93.626444,8.2057912 93.070564,16.562283 93.102774,25.024522 a 0.20999929,0.20999929 0 0 0 0.21089,0.210891 0.20999929,0.20999929 0 0 0 0.21088,-0.210891 c -0.0323,-8.462593 0.52513,-16.8191507 1.63756,-25.024481427269 z"
       id="path92" /><path
       style="baseline-shift:baseline;display:inline;overflow:visible;opacity:0.5;vector-effect:none;fill:#000000;fill-opacity:1;stroke-width:1.20976;stroke-linecap:round;enable-background:accumulate;stop-color:#000000"
       d="M 80.458644,4.0572731e-5 C 74.469674,47.708933 86.206194,96.931221 115.14032,137.54422 a 0.31499936,0.31499936 0 0 0 0.44076,0.0745 0.31499936,0.31499936 0 0 0 0.0745,-0.44008 C 86.798494,96.673669 75.101964,47.57916 81.093954,-1.1913757e-5 Z"
       id="path93" /><path
       style="baseline-shift:baseline;display:inline;overflow:visible;opacity:0.255356;vector-effect:none;fill:#000000;fill-opacity:1;stroke-width:1.20976;stroke-linecap:round;enable-background:accumulate;stop-color:#000000"
       d="M 56.264124,4.0572731e-5 C 49.061979,64.71012 70.979334,130.80015 118.41884,178.59374 h 1.18799 C 71.913754,130.91336 49.871465,64.759733 57.110364,4.0572731e-5 Z"
       id="path94" /><path
       style="baseline-shift:baseline;display:inline;overflow:visible;opacity:0.301604;vector-effect:none;fill:#000000;fill-opacity:1;stroke-width:1.20976;stroke-linecap:round;enable-background:accumulate;stop-color:#000000"
       d="M 42.481498,4.0572731e-5 C 42.462997,0.17783855 42.444627,0.35576775 42.426519,0.53368382 41.631676,8.360154 41.224972,16.300113 41.224972,24.33628 c 0,59.343756 22.314802,113.2938 58.950788,154.25746 h 0.19867 C 63.851114,137.59296 41.646779,83.585219 41.646779,24.33628 c 0,-8.021982 0.405459,-15.9486231 1.198844,-23.76123683 0.01942,-0.1917069 0.0391,-0.38342692 0.05905,-0.575002597269 z"
       id="path95" /><path
       style="baseline-shift:baseline;display:inline;overflow:visible;opacity:0.643871;vector-effect:none;fill:#000000;fill-opacity:1;stroke-width:1.20976;stroke-linecap:round;enable-background:accumulate;stop-color:#000000"
       d="M 8.9898372,4.0572731e-5 C 8.2631742,8.0148323 7.8920292,16.132261 7.8920292,24.33628 c 0,57.499643 18.2354218,110.74152 49.2380048,154.25746 h 0.51127 C 26.583687,135.10207 8.3104042,81.853204 8.3104042,24.33628 c 0,-8.204202 0.371504,-16.3216446 1.099163,-24.336239427269 z"
       id="path96" /><path
       style="baseline-shift:baseline;display:inline;overflow:visible;opacity:0.196871;vector-effect:none;fill:#000000;fill-opacity:1;stroke-width:1.20976;stroke-linecap:round;enable-background:accumulate;stop-color:#000000"
       d="M 3.8445772,4.0572731e-5 C -0.74190277,50.933453 9.1355232,102.52531 32.900247,148.63148 l 1.866079,-0.96423 C 11.156048,101.86082 1.3615832,50.599639 5.9547562,4.0572731e-5 Z"
       id="path97" /><path
       id="path98"
       style="baseline-shift:baseline;display:inline;overflow:visible;opacity:0.5;vector-effect:none;fill:#000000;fill-opacity:1;stroke-width:1.20976;stroke-linecap:round;enable-background:accumulate;stop-color:#000000"
       d="M 0 75.297212 L 0 77.56684 C 7.0976765 114.3219 21.406515 148.50769 41.395405 178.59375 L 41.8977 178.59375 C 21.46261 147.90083 6.952337 112.92399 0 75.297212 z " /><path
       id="path99"
       style="baseline-shift:baseline;display:inline;overflow:visible;opacity:0.708059;vector-effect:none;fill:#000000;fill-opacity:1;stroke-width:1.20976;stroke-linecap:round;enable-background:accumulate;stop-color:#000000"
       d="M 0 151.76799 L 0 152.75863 C 4.1566841 161.61312 8.7297866 170.23316 13.694254 178.59375 L 14.18208 178.59375 C 9.0236774 169.92255 4.2867618 160.97123 0 151.76799 z " /><rect
       style="fill:#ffffff;fill-opacity:1;stroke-width:0.246874"
       id="rect106"
       width="173.90311"
       height="38.128567"
       x="71.668991"
       y="70.232597"
       ry="5.8105893" /><path
       d="M 74.139386,97.535843 V 75.134261 h 8.840355 q 2.525816,0 4.36004,0.902077 1.834223,0.887043 2.826508,2.540851 1.00732,1.638773 1.00732,3.909 0,2.255193 -1.00732,3.909001 -1.007319,1.638774 -2.871612,2.540851 -1.849258,0.902077 -4.375074,0.902077 h -6.209298 v -3.878932 h 5.968744 q 1.232839,0 2.119881,-0.420969 0.887043,-0.436004 1.368151,-1.217804 0.481107,-0.7818 0.481107,-1.834224 0,-1.082492 -0.481107,-1.849258 -0.481108,-0.766765 -1.368151,-1.187735 -0.887042,-0.436003 -2.119881,-0.436003 h -3.909001 v 18.52265 z m 19.725419,6.284467 v -3.50306 h 2.014639 q 0.541247,0 0.872008,-0.16538 0.330762,-0.165384 0.556281,-0.54125 0.240554,-0.360831 0.451039,-0.97725 L 98.194776,97.475704 92.09072,81.659285 h 4.645698 l 2.661127,7.848071 q 0.451039,1.383185 0.872005,2.79644 0.42097,1.398219 0.81187,2.811473 h -1.232836 q 0.375866,-1.413254 0.796836,-2.811473 0.42097,-1.413255 0.87201,-2.79644 l 2.67616,-7.848071 h 4.60059 l -6.9911,18.327201 q -0.49614,1.323044 -1.20277,2.164984 -0.691588,0.85697 -1.638769,1.26291 -0.932146,0.40593 -2.164985,0.40593 -0.721662,0 -1.473393,0 -0.736696,0 -1.458358,0 z m 25.243125,-5.923636 q -2.87161,0 -4.90128,-0.902077 -2.02968,-0.917112 -3.11217,-2.646093 -1.08249,-1.728981 -1.08249,-4.16459 h 4.46528 q 0.0301,1.232839 0.58635,2.104847 0.57131,0.872008 1.6087,1.338081 1.03739,0.466073 2.46568,0.466073 1.29298,0 2.24016,-0.345796 0.96221,-0.360831 1.48843,-1.007319 0.54124,-0.646489 0.54124,-1.518497 0,-0.721662 -0.42097,-1.247873 -0.40593,-0.541247 -1.29297,-0.947181 -0.87201,-0.405935 -2.3003,-0.706627 l -2.36044,-0.511177 q -3.33768,-0.721662 -4.96142,-2.270228 -1.62374,-1.548566 -1.62374,-3.954105 0,-2.044708 1.06746,-3.563204 1.06746,-1.533531 2.97685,-2.390505 1.92444,-0.856973 4.46529,-0.856973 2.57092,0 4.45024,0.872008 1.87933,0.872008 2.91672,2.495747 1.05242,1.608704 1.1276,3.863897 h -4.32997 q -0.12028,-1.59367 -1.23284,-2.510782 -1.11257,-0.917111 -2.91672,-0.917111 -1.1276,0 -2.01464,0.36083 -0.87201,0.345797 -1.38318,0.977251 -0.49615,0.631454 -0.49615,1.443323 0,0.691593 0.3909,1.20277 0.3909,0.496142 1.24788,0.872007 0.85697,0.375866 2.22512,0.676558 l 2.14995,0.466074 q 1.78912,0.3909 3.09713,0.962215 1.30801,0.556281 2.14995,1.338081 0.84194,0.766766 1.24788,1.774085 0.40593,1.00732 0.40593,2.270228 0,2.14995 -1.08249,3.728585 -1.06746,1.5636 -3.06706,2.405539 -1.98457,0.841939 -4.73591,0.841939 z m 20.6275,-16.237389 v 3.472997 h -10.41899 v -3.472997 z m -7.68269,-4.32997 h 4.43521 v 15.305242 q 0,0.796835 0.31573,1.112562 0.33076,0.315727 1.23284,0.315727 0.37586,0 0.88704,0 0.52621,0 0.81187,0 v 3.472997 q -0.40594,0 -1.1276,0 -0.72166,0 -1.45836,0 -2.61602,0 -3.86389,-1.022354 -1.23284,-1.022354 -1.23284,-3.187339 z m 15.05264,20.477151 q -1.57863,0 -2.81147,-0.526212 -1.23284,-0.526211 -1.93947,-1.578635 -0.70662,-1.067458 -0.70662,-2.646093 0,-1.338081 0.49614,-2.225123 0.49614,-0.902077 1.35311,-1.443323 0.87201,-0.556281 1.98457,-0.841939 1.1276,-0.285658 2.36044,-0.3909 1.45836,-0.150346 2.31533,-0.285658 0.85697,-0.135312 1.23284,-0.3909 0.37586,-0.255589 0.37586,-0.766766 v -0.105242 q 0,-0.58635 -0.31572,-1.022354 -0.31573,-0.451039 -0.90208,-0.706627 -0.57132,-0.255589 -1.38318,-0.255589 -0.81187,0 -1.44333,0.255589 -0.61642,0.255588 -0.97725,0.721662 -0.36083,0.466073 -0.42097,1.082492 h -4.16459 q 0.10525,-1.638773 0.96222,-2.841543 0.87201,-1.202769 2.43561,-1.849258 1.5636,-0.661523 3.74362,-0.661523 1.62374,0 2.90168,0.375865 1.27794,0.360831 2.14995,1.067458 0.88704,0.706627 1.33808,1.713947 0.45104,1.007319 0.45104,2.285262 v 10.764787 h -4.32997 v -2.240158 h -0.0601 q -0.42097,0.7818 -1.03739,1.338081 -0.61642,0.556281 -1.50346,0.872008 -0.88704,0.300692 -2.10485,0.300692 z m 1.23284,-3.082097 q 1.06746,0 1.83422,-0.3909 0.7818,-0.3909 1.20277,-1.067458 0.42097,-0.676558 0.42097,-1.533531 v -1.59367 q -0.19545,0.105243 -0.51117,0.210485 -0.31573,0.09021 -0.7367,0.180416 -0.42097,0.07517 -0.91711,0.16538 -0.49614,0.09021 -1.02236,0.165381 -0.76676,0.120277 -1.38318,0.375866 -0.61642,0.240554 -0.97725,0.661523 -0.36083,0.405935 -0.36083,1.037389 0,0.55628 0.30069,0.962215 0.30069,0.405935 0.85697,0.61642 0.55628,0.210484 1.29298,0.210484 z m 10.93017,2.811474 V 81.659285 h 4.26983 v 2.706232 h 0.0451 q 0.43601,-1.428289 1.36815,-2.119881 0.93215,-0.691593 2.51079,-0.691593 0.3909,0 0.70662,0.01504 0.33076,0 0.60139,0.01503 v 3.77369 q -0.24056,-0.01504 -0.79684,-0.0451 -0.54124,-0.03007 -1.11256,-0.03007 -0.90208,0 -1.62374,0.420969 -0.72166,0.405935 -1.12759,1.217804 -0.40594,0.811869 -0.40594,2.014639 v 8.599802 z m 8.8554,-18.432443 v -3.969139 h 18.20692 V 79.1034 h -6.78061 v 18.432443 h -4.63067 V 79.1034 Z m 18.19124,18.432443 V 81.659285 h 4.26983 v 2.706232 h 0.0451 q 0.43601,-1.428289 1.36815,-2.119881 0.93215,-0.691593 2.51078,-0.691593 0.3909,0 0.70663,0.01504 0.33076,0 0.60139,0.01503 v 3.77369 q -0.24056,-0.01504 -0.79684,-0.0451 -0.54124,-0.03007 -1.11256,-0.03007 -0.90208,0 -1.62374,0.420969 -0.72166,0.405935 -1.1276,1.217804 -0.40593,0.811869 -0.40593,2.014639 v 8.599802 z m 16.12133,0.270623 q -1.57863,0 -2.81147,-0.526212 -1.23284,-0.526211 -1.93947,-1.578635 -0.70663,-1.067458 -0.70663,-2.646093 0,-1.338081 0.49615,-2.225123 0.49614,-0.902077 1.35311,-1.443323 0.87201,-0.556281 1.98457,-0.841939 1.1276,-0.285658 2.36044,-0.3909 1.45836,-0.150346 2.31533,-0.285658 0.85697,-0.135312 1.23284,-0.3909 0.37586,-0.255589 0.37586,-0.766766 v -0.105242 q 0,-0.58635 -0.31572,-1.022354 -0.31573,-0.451039 -0.90208,-0.706627 -0.57132,-0.255589 -1.38319,-0.255589 -0.81187,0 -1.44332,0.255589 -0.61642,0.255588 -0.97725,0.721662 -0.36083,0.466073 -0.42097,1.082492 h -4.16459 q 0.10524,-1.638773 0.96222,-2.841543 0.872,-1.202769 2.43561,-1.849258 1.5636,-0.661523 3.74362,-0.661523 1.62373,0 2.90168,0.375865 1.27794,0.360831 2.14995,1.067458 0.88704,0.706627 1.33808,1.713947 0.45104,1.007319 0.45104,2.285262 v 10.764787 h -4.32997 v -2.240158 h -0.0601 q -0.42097,0.7818 -1.03739,1.338081 -0.61642,0.556281 -1.50346,0.872008 -0.88704,0.300692 -2.10485,0.300692 z m 1.23284,-3.082097 q 1.06746,0 1.83422,-0.3909 0.7818,-0.3909 1.20277,-1.067458 0.42097,-0.676558 0.42097,-1.533531 v -1.59367 q -0.19545,0.105243 -0.51118,0.210485 -0.31572,0.09021 -0.73669,0.180416 -0.42097,0.07517 -0.91711,0.16538 -0.49615,0.09021 -1.02236,0.165381 -0.76676,0.120277 -1.38318,0.375866 -0.61642,0.240554 -0.97725,0.661523 -0.36083,0.405935 -0.36083,1.037389 0,0.55628 0.30069,0.962215 0.30069,0.405935 0.85697,0.61642 0.55628,0.210484 1.29298,0.210484 z m 10.93017,2.811474 V 81.659285 h 4.43522 v 15.876558 z m 2.21009,-17.876162 q -1.09752,0 -1.81919,-0.661523 -0.72166,-0.676558 -0.72166,-1.698912 0,-1.022354 0.72166,-1.683877 0.72167,-0.676558 1.80416,-0.676558 1.09753,0 1.81919,0.676558 0.72166,0.661523 0.72166,1.683877 0,1.022354 -0.72166,1.698912 -0.72166,0.661523 -1.80416,0.661523 z m 9.78754,-4.52542 v 22.401582 h -4.43522 V 75.134261 Z m 9.72739,22.792482 q -2.05974,0 -3.66845,-0.631454 -1.6087,-0.646489 -2.57092,-1.849258 -0.96221,-1.20277 -1.11256,-2.901682 h 4.36004 q 0.12028,1.037389 0.87201,1.623739 0.75173,0.58635 2.04471,0.58635 1.23283,0 1.92443,-0.466073 0.70662,-0.466073 0.70662,-1.202769 0,-0.631454 -0.54124,-1.022354 -0.52621,-0.3909 -1.50346,-0.571316 l -2.78141,-0.541246 q -2.31533,-0.451039 -3.5181,-1.623739 -1.20277,-1.1727 -1.20277,-3.006924 0,-1.503462 0.81187,-2.631058 0.8269,-1.127596 2.33037,-1.744016 1.51849,-0.616419 3.59327,-0.616419 2.05974,0 3.59327,0.661523 1.53354,0.646489 2.39051,1.849258 0.87201,1.20277 0.91711,2.856578 h -4.10445 q -0.015,-0.962216 -0.75173,-1.59367 -0.7367,-0.631454 -1.92443,-0.631454 -1.14263,0 -1.78912,0.496143 -0.64649,0.481107 -0.64649,1.187734 0,0.61642 0.51118,1.00732 0.51117,0.3909 1.41325,0.58635 l 3.00692,0.58635 q 2.40554,0.466073 3.53314,1.533531 1.14263,1.052424 1.14263,2.811474 0,1.578635 -0.90208,2.76637 -0.88704,1.1727 -2.48071,1.834223 -1.57863,0.646489 -3.65341,0.646489 z"
       id="text106"
       style="font-weight:bold;font-size:30.7909px;font-family:Inter;-inkscape-font-specification:'Inter Bold';stroke-width:2.56591"
       aria-label="PyStarTrails" /></g></svg>
