<?xml version="1.0" encoding="UTF-8" standalone="no"?>
<!-- Created with Inkscape (http://www.inkscape.org/) -->

<svg
   width="31.999998"
   height="31.999998"
   viewBox="0 0 8.466666 8.4666661"
   version="1.1"
   id="svg1"
   inkscape:version="1.4.2 (1:1.4.2+202505120737+ebf0e940d0)"
   sodipodi:docname="favicon.svg"
   xmlns:inkscape="http://www.inkscape.org/namespaces/inkscape"
   xmlns:sodipodi="http://sodipodi.sourceforge.net/DTD/sodipodi-0.dtd"
   xmlns="http://www.w3.org/2000/svg"
   xmlns:svg="http://www.w3.org/2000/svg">
  <sodipodi:namedview
     id="namedview1"
     pagecolor="#ffffff"
     bordercolor="#000000"
     borderopacity="0.25"
     inkscape:showpageshadow="2"
     inkscape:pageopacity="0.0"
     inkscape:pagecheckerboard="0"
     inkscape:deskcolor="#d1d1d1"
     inkscape:document-units="px"
     inkscape:zoom="20.278648"
     inkscape:cx="18.936174"
     inkscape:cy="18.615639"
     inkscape:window-width="2560"
     inkscape:window-height="1371"
     inkscape:window-x="0"
     inkscape:window-y="32"
     inkscape:window-maximized="1"
     inkscape:current-layer="layer1" />
  <defs
     id="defs1" />
  <g
     inkscape:label="Layer 1"
     inkscape:groupmode="layer"
     id="layer1"
     transform="translate(-111.00596,-76.907051)">
    <g
       id="g1"
       transform="matrix(1.0515711,0.3374816,-0.3374816,1.0515711,21.440372,-43.075639)"
       style="stroke-width:0.90547">
      <path
         id="path97-4"
         style="color:#000000;font-style:normal;font-variant:normal;font-weight:normal;font-stretch:normal;font-size:medium;line-height:normal;font-family:sans-serif;font-variant-ligatures:normal;font-variant-position:normal;font-variant-caps:normal;font-variant-numeric:normal;font-variant-alternates:normal;font-variant-east-asian:normal;font-feature-settings:normal;font-variation-settings:normal;text-indent:0;text-align:start;text-decoration-line:none;text-decoration-style:solid;text-decoration-color:#000000;letter-spacing:normal;word-spacing:normal;text-transform:none;writing-mode:lr-tb;direction:ltr;text-orientation:mixed;dominant-baseline:auto;baseline-shift:baseline;text-anchor:start;white-space:normal;shape-padding:0;shape-margin:0;inline-size:0;clip-rule:nonzero;display:inline;overflow:visible;visibility:visible;isolation:auto;mix-blend-mode:normal;color-interpolation:sRGB;color-interpolation-filters:linearRGB;solid-color:#000000;solid-opacity:1;fill:#22d3ee;fill-opacity:1;fill-rule:evenodd;stroke:none;stroke-width:0.0534159;stroke-linecap:butt;stroke-linejoin:miter;stroke-miterlimit:4;stroke-dasharray:none;stroke-dashoffset:0;stroke-opacity:0.575207;color-rendering:auto;image-rendering:auto;shape-rendering:auto;text-rendering:auto;enable-background:accumulate;stop-color:#000000"
         d="m 113.60471,77.821905 c -0.075,-0.0015 -0.18207,0.0027 -0.31859,0.0156 -0.26326,0.02518 -0.67235,0.09205 -1.07984,0.262896 -0.0303,0.01265 -0.0606,0.02598 -0.0909,0.03991 -0.36565,0.167773 -0.65734,0.388549 -0.85108,0.656552 -0.20672,0.285595 -0.29819,0.626878 -0.24216,1.007182 0.0591,0.393325 0.28125,0.823114 0.64797,1.247773 0.50128,0.579395 1.29654,1.137296 2.22826,1.550246 0.45838,0.20339 0.95227,0.368888 1.45005,0.475947 0.51566,0.109819 1.01857,0.149782 1.46303,0.114961 0.60713,-0.04849 1.07241,-0.250514 1.29583,-0.574368 0.11085,-0.159647 0.1557,-0.35225 0.11935,-0.56997 -0.0404,-0.226904 -0.1728,-0.470958 -0.38811,-0.712772 -0.29724,-0.33219 -0.74961,-0.642659 -1.2864,-0.876417 -0.55916,-0.244015 -1.18338,-0.372133 -1.72509,-0.33084 -0.36365,0.03503 -0.63195,0.159053 -0.76157,0.35806 -0.10943,0.16622 -0.0924,0.381194 0.055,0.619911 -0.14754,-0.0751 -0.28825,-0.170017 -0.39596,-0.276502 -0.1124,-0.111176 -0.19878,-0.236713 -0.2341,-0.356497 -0.0349,-0.111311 -0.0255,-0.224384 0.0244,-0.328641 0.0975,-0.200054 0.36121,-0.359792 0.74597,-0.411768 0.28228,-0.03824 0.62469,-0.02861 0.98812,0.03507 0.34511,0.05952 0.7165,0.169538 1.08016,0.315035 0.73549,0.294896 1.42418,0.732764 1.8793,1.203486 0.34636,0.358055 0.57506,0.729786 0.66493,1.073454 0.092,0.347894 0.0444,0.666292 -0.1,0.935572 -0.14645,0.272515 -0.39116,0.493849 -0.68932,0.66409 -0.0255,0.01454 -0.051,0.02858 -0.0765,0.04208 -0.34654,0.183492 -0.70415,0.281762 -0.92353,0.337229 -0.22996,0.05814 -0.35222,0.08419 -0.33597,0.102179 0.0162,0.01803 0.1715,0.0281 0.44454,0.0018 0.26326,-0.02518 0.67234,-0.09206 1.07984,-0.262893 0.0303,-0.01265 0.0606,-0.02598 0.0909,-0.03991 0.36565,-0.167777 0.65734,-0.388437 0.85108,-0.656446 0.20672,-0.285595 0.29819,-0.626982 0.24216,-1.007286 -0.0591,-0.393325 -0.28125,-0.82301 -0.64797,-1.247669 -0.50128,-0.579401 -1.29654,-1.13729 -2.22826,-1.550246 -0.45837,-0.203393 -0.95216,-0.368882 -1.44994,-0.475947 -0.51567,-0.109819 -1.01868,-0.149779 -1.46314,-0.114958 -0.60713,0.0485 -1.0723,0.250511 -1.29572,0.574365 -0.11085,0.159647 -0.1557,0.352152 -0.11936,0.569863 0.0404,0.226908 0.1727,0.470959 0.38801,0.712775 0.29724,0.332191 0.74961,0.64266 1.2864,0.876418 0.55916,0.244015 1.18338,0.372136 1.72509,0.330836 0.36365,-0.03503 0.63195,-0.159049 0.76157,-0.358057 0.10944,-0.166237 0.0925,-0.381267 -0.055,-0.620014 0.14759,0.07511 0.28833,0.170094 0.39607,0.276606 0.1124,0.111172 0.19867,0.236713 0.23399,0.356497 0.0349,0.111311 0.0255,0.224387 -0.0244,0.328641 -0.0975,0.20005 -0.3612,0.359789 -0.74596,0.411771 -0.28229,0.03824 -0.6247,0.02875 -0.98813,-0.03498 -0.34511,-0.05951 -0.7165,-0.169532 -1.08016,-0.315032 -0.73549,-0.294895 -1.42418,-0.732871 -1.8793,-1.203593 -0.34636,-0.358054 -0.57506,-0.729782 -0.66493,-1.073453 -0.092,-0.347891 -0.0443,-0.666289 0.10009,-0.935569 0.14646,-0.272518 0.39106,-0.493852 0.68922,-0.664094 0.0255,-0.01454 0.051,-0.02855 0.0765,-0.04208 0.34653,-0.183495 0.70416,-0.281662 0.92353,-0.337125 0.22996,-0.05814 0.35222,-0.08429 0.33597,-0.102286 -0.008,-0.009 -0.051,-0.01608 -0.12595,-0.01758 z" />
      <ellipse
         style="fill:#ffffff;fill-opacity:1;stroke:none;stroke-width:0.349286;stroke-linecap:round;stroke-linejoin:round;stroke-dasharray:none;stroke-opacity:1"
         id="ellipse97-5"
         cx="136.04117"
         cy="36.832901"
         rx="0.39206538"
         ry="0.19603269"
         transform="rotate(19.999999)" />
    </g>
  </g>
</svg>
