<?xml version="1.0" encoding="UTF-8" standalone="no"?>
<!-- Created with Inkscape (http://www.inkscape.org/) -->

<svg
   width="190.4328"
   height="182.33301"
   viewBox="0 0 50.385344 48.242279"
   version="1.1"
   id="svg1"
   inkscape:version="1.4.2 (1:1.4.2+202505120737+ebf0e940d0)"
   sodipodi:docname="home_page.svg"
   xml:space="preserve"
   xmlns:inkscape="http://www.inkscape.org/namespaces/inkscape"
   xmlns:sodipodi="http://sodipodi.sourceforge.net/DTD/sodipodi-0.dtd"
   xmlns:xlink="http://www.w3.org/1999/xlink"
   xmlns="http://www.w3.org/2000/svg"
   xmlns:svg="http://www.w3.org/2000/svg"><sodipodi:namedview
     id="namedview1"
     pagecolor="#ffffff"
     bordercolor="#000000"
     borderopacity="0.25"
     inkscape:showpageshadow="2"
     inkscape:pageopacity="0.0"
     inkscape:pagecheckerboard="0"
     inkscape:deskcolor="#d1d1d1"
     inkscape:document-units="px"
     inkscape:zoom="0.20063165"
     inkscape:cx="-112.14582"
     inkscape:cy="3152.5435"
     inkscape:window-width="2560"
     inkscape:window-height="1371"
     inkscape:window-x="0"
     inkscape:window-y="32"
     inkscape:window-maximized="1"
     inkscape:current-layer="svg1"
     showguides="false"><sodipodi:guide
       position="-109.68215,18.786357"
       orientation="1,0"
       id="guide98"
       inkscape:locked="false" /><sodipodi:guide
       position="160.41719,143.87636"
       orientation="1,0"
       id="guide99"
       inkscape:locked="false" /><sodipodi:guide
       position="80.296957,44.943557"
       orientation="0,-1"
       id="guide100"
       inkscape:locked="false" /><sodipodi:guide
       position="103.83093,-40.240343"
       orientation="0,-1"
       id="guide101"
       inkscape:locked="false" /><sodipodi:guide
       position="25.192567,-302.68534"
       orientation="-0.70710678,-0.70710678"
       id="guide142"
       inkscape:locked="false" /><sodipodi:guide
       position="25.192567,-364.89124"
       orientation="0,-1"
       id="guide205"
       inkscape:locked="false" /><sodipodi:guide
       position="82.083677,-303.25914"
       orientation="0,-1"
       id="guide365"
       inkscape:locked="false" /><sodipodi:guide
       position="503.53023,-403.50604"
       orientation="0,-1"
       id="guide374"
       inkscape:locked="false" /><sodipodi:guide
       position="507.54921,-463.68841"
       orientation="0,-1"
       id="guide375"
       inkscape:locked="false" /><inkscape:page
       x="0"
       y="0"
       width="50.385345"
       height="48.242279"
       id="page1"
       margin="0"
       bleed="0" /></sodipodi:namedview><defs
     id="defs1"><linearGradient
       id="linearGradient188"
       inkscape:collect="always"><stop
         style="stop-color:#22d3ee;stop-opacity:1;"
         offset="0"
         id="stop188" /><stop
         style="stop-color:#103064;stop-opacity:1;"
         offset="0.8110075"
         id="stop189" /></linearGradient><linearGradient
       id="linearGradient186"
       inkscape:collect="always"><stop
         style="stop-color:#22d3ee;stop-opacity:1;"
         offset="0"
         id="stop186" /><stop
         style="stop-color:#22d3ee;stop-opacity:0;"
         offset="1"
         id="stop187" /></linearGradient><inkscape:path-effect
       effect="fillet_chamfer"
       id="path-effect155"
       is_visible="true"
       lpeversion="1"
       nodesatellites_param="F,0,0,1,0,4.6918231,0,1 @ F,0,1,1,0,4.6918231,0,1 @ F,0,0,1,0,0,0,1 @ F,0,0,1,0,0,0,1 @ F,0,0,1,0,0,0,1 @ F,0,0,1,0,0,0,1 @ F,0,0,1,0,0,0,1"
       radius="0"
       unit="px"
       method="auto"
       mode="F"
       chamfer_steps="1"
       flexible="false"
       use_knot_distance="true"
       apply_no_radius="true"
       apply_with_radius="true"
       only_selected="false"
       hide_knots="false" /><linearGradient
       id="linearGradient12"
       inkscape:collect="always"><stop
         style="stop-color:#58dbf9;stop-opacity:1;"
         offset="0.34220436"
         id="stop12" /><stop
         style="stop-color:#103064;stop-opacity:1;"
         offset="1"
         id="stop13" /></linearGradient><linearGradient
       inkscape:collect="always"
       xlink:href="#linearGradient12"
       id="linearGradient142"
       gradientUnits="userSpaceOnUse"
       gradientTransform="matrix(0.62245256,0,0,-0.62245256,595.81701,452.14211)"
       x1="-165.99591"
       y1="34.805733"
       x2="-82.538643"
       y2="99.91259" /><linearGradient
       inkscape:collect="always"
       xlink:href="#linearGradient186"
       id="linearGradient187"
       x1="493.819"
       y1="394.83759"
       x2="513.52063"
       y2="394.83759"
       gradientUnits="userSpaceOnUse"
       gradientTransform="rotate(180,517.89764,409.44291)" /><linearGradient
       inkscape:collect="always"
       xlink:href="#linearGradient188"
       id="linearGradient189"
       x1="493.81903"
       y1="397.45267"
       x2="518.00812"
       y2="397.45267"
       gradientUnits="userSpaceOnUse" /></defs><g
     inkscape:label="Layer 1"
     inkscape:groupmode="layer"
     id="layer1"
     transform="translate(-492.80741,-385.32187)"><g
       id="g1"><path
         id="path136"
         style="color:#000000;font-style:normal;font-variant:normal;font-weight:normal;font-stretch:normal;font-size:medium;line-height:normal;font-family:sans-serif;font-variant-ligatures:normal;font-variant-position:normal;font-variant-caps:normal;font-variant-numeric:normal;font-variant-alternates:normal;font-variant-east-asian:normal;font-feature-settings:normal;font-variation-settings:normal;text-indent:0;text-align:start;text-decoration-line:none;text-decoration-style:solid;text-decoration-color:#000000;letter-spacing:normal;word-spacing:normal;text-transform:none;writing-mode:lr-tb;direction:ltr;text-orientation:mixed;dominant-baseline:auto;baseline-shift:baseline;text-anchor:start;white-space:normal;shape-padding:0;shape-margin:0;inline-size:0;clip-rule:nonzero;display:inline;overflow:visible;visibility:visible;isolation:auto;mix-blend-mode:normal;color-interpolation:sRGB;color-interpolation-filters:linearRGB;solid-color:#000000;solid-opacity:1;fill:url(#linearGradient142);fill-opacity:1;fill-rule:evenodd;stroke:none;stroke-width:0.264584;stroke-linecap:butt;stroke-linejoin:miter;stroke-miterlimit:4;stroke-dasharray:none;stroke-dashoffset:0;stroke-opacity:0.575207;color-rendering:auto;image-rendering:auto;shape-rendering:auto;text-rendering:auto;enable-background:accumulate;stop-color:#000000"
         d="m 508.27303,429.73039 c -0.44611,0.008 -1.08356,-0.014 -1.89592,-0.0929 -1.56689,-0.1499 -4.00138,-0.54784 -6.42646,-1.56452 -0.18013,-0.0752 -0.36045,-0.15471 -0.54078,-0.23739 -2.17611,-0.99845 -3.91191,-2.3123 -5.06491,-3.90725 -1.23026,-1.69962 -1.77463,-3.73067 -1.4412,-5.99392 0.35164,-2.34075 1.67376,-4.89848 3.85627,-7.4257 2.98307,-3.44809 7.71596,-6.76821 13.26061,-9.22576 2.72789,-1.21042 5.66717,-2.19532 8.62957,-2.83247 3.0689,-0.65353 6.0618,-0.89136 8.7067,-0.68411 3.6133,0.28858 6.3822,1.49085 7.7117,3.41813 0.6597,0.95008 0.9267,2.09632 0.7103,3.39198 -0.2402,1.35035 -1.0283,2.80274 -2.3096,4.24184 -1.769,1.97691 -4.4611,3.82458 -7.6557,5.2157 -3.3275,1.45219 -7.0425,2.21464 -10.2663,1.96889 -2.1641,-0.20849 -3.76084,-0.94654 -4.53218,-2.1309 -0.65125,-0.98919 -0.54998,-2.26852 0.32723,-3.68918 -0.87821,0.44697 -1.71559,1.0118 -2.35644,1.64552 -0.66906,0.66162 -1.18302,1.40872 -1.39337,2.12155 -0.20754,0.66246 -0.1521,1.33537 0.1441,1.95582 0.58061,1.19053 2.1497,2.14119 4.43949,2.4505 1.67997,0.22764 3.71757,0.17032 5.88047,-0.2087 2.0538,-0.35419 4.264,-1.00894 6.4283,-1.87482 4.377,-1.75498 8.4754,-4.36081 11.1839,-7.16216 2.0613,-2.13084 3.4224,-4.34305 3.9572,-6.38831 0.5474,-2.07036 0.2644,-3.96519 -0.595,-5.56773 -0.8716,-1.62178 -2.3279,-2.93898 -4.1023,-3.95212 -0.1521,-0.0867 -0.3036,-0.16992 -0.4555,-0.25047 -2.0622,-1.092 -4.1905,-1.67683 -5.496,-2.0069 -1.3686,-0.346 -2.0963,-0.50105 -1.9996,-0.6081 0.096,-0.10747 1.0207,-0.16732 2.6456,-0.012 1.5667,0.14991 4.0012,0.54784 6.4263,1.56453 0.1801,0.0753 0.3604,0.15471 0.5408,0.2374 2.1761,0.99846 3.9121,2.31169 5.0649,3.90664 1.2304,1.69962 1.7746,3.73129 1.4412,5.99452 -0.3515,2.34072 -1.6738,4.89788 -3.8561,7.42509 -2.9833,3.4481 -7.7159,6.7682 -13.2608,9.22575 -2.7279,1.21044 -5.6665,2.19532 -8.6288,2.83246 -3.0689,0.65356 -6.06239,0.89136 -8.70743,0.68412 -3.61311,-0.2886 -6.38143,-1.49084 -7.71115,-3.41814 -0.65966,-0.9501 -0.92644,-2.09569 -0.71029,-3.39135 0.24036,-1.35038 1.02791,-2.80275 2.3092,-4.24184 1.76883,-1.97692 4.4611,-3.82458 7.65551,-5.21571 3.32766,-1.45216 7.04246,-2.21463 10.26636,-1.96888 2.1641,0.2085 3.7608,0.94653 4.5321,2.1309 0.6515,0.9893 0.5504,2.26895 -0.327,3.6898 0.8782,-0.44703 1.716,-1.01226 2.357,-1.64614 0.6689,-0.66162 1.1824,-1.40872 1.3926,-2.12156 0.2077,-0.66244 0.1521,-1.33538 -0.1441,-1.95581 -0.5804,-1.19055 -2.1497,-2.14117 -4.4393,-2.45053 -1.68,-0.22759 -3.7178,-0.17091 -5.8805,0.20811 -2.0538,0.35418 -4.2641,1.00894 -6.42823,1.87482 -4.37704,1.75496 -8.47549,4.36143 -11.18417,7.16277 -2.06123,2.13084 -3.42217,4.34306 -3.95694,6.38832 -0.54738,2.07035 -0.26379,3.96519 0.59561,5.56772 0.8716,1.62181 2.32721,2.939 4.10165,3.95213 0.1521,0.0867 0.30361,0.16991 0.45551,0.25047 2.06223,1.092 4.19051,1.6762 5.49602,2.00627 1.36855,0.346 2.09605,0.50167 1.99939,0.60875 -0.048,0.0538 -0.30341,0.0957 -0.74952,0.10467 z" /><path
         id="path137"
         style="fill:#382646;stroke-width:2.64584;stroke-linecap:round;stroke-linejoin:round"
         d="m 521.35371,408.76091 a 1.7841139,3.5682277 70 0 0 -3.9632,-0.45612 1.7841139,3.5682277 70 0 0 -2.7429,2.89694 1.7841139,3.5682277 70 0 0 3.9632,0.45609 1.7841139,3.5682277 70 0 0 2.7429,-2.89691 z" /><path
         id="path146"
         style="opacity:1;fill:url(#linearGradient189);stroke:none;stroke-width:0.264583;stroke-linecap:round;stroke-linejoin:round;stroke-dasharray:none;stroke-opacity:1"
         d="m 494.93839,386.51192 a 4.0059998,4.0059998 84.85302 0 0 0.54282,6.0264 l 22.03397,16.5504 0.48472,0.48473 -0.21135,-0.26924 0.21954,0.27927 -0.42832,-0.54488 -16.5142,-22.0867 a 4.0631439,4.0631439 4.1073058 0 0 -6.12718,-0.43998 z"
         sodipodi:nodetypes="cccccccc"
         inkscape:path-effect="#path-effect155"
         inkscape:original-d="m 498.25601,383.1943 -6.52622,6.52621 25.78539,19.36821 0.48472,0.48473 -0.21135,-0.26924 0.21954,0.27927 -0.42832,-0.54488 z"
         transform="translate(1.0029297e-4)" /><path
         id="path156"
         style="opacity:1;fill:url(#linearGradient187);stroke:none;stroke-width:0.264583;stroke-linecap:round;stroke-linejoin:round;stroke-dasharray:none;stroke-opacity:1"
         d="m 524.58461,414.53232 c -0.7594,0.28509 -1.5324,0.53434 -2.3099,0.74362 l 1.0702,1.43144 c 0.3806,-0.13817 0.7611,-0.28301 1.14,-0.4346 0.5181,-0.20773 1.032,-0.42736 1.5404,-0.65784 z m 3.916,2.94194 c -0.8185,0.42055 -1.6601,0.82289 -2.5213,1.20457 -0.2902,0.12877 -0.5827,0.25476 -0.8774,0.37828 l 9.6278,12.87673 a 4.0631439,4.0631439 0 0 0 6.1273,0.44028 4.0059998,4.0059998 0 0 0 -0.5431,-6.0265 z" /></g></g></svg>
