<?xml version="1.0" encoding="UTF-8" standalone="no" ?>
<svg
  width="1200"
  height="675"
  viewBox="0 0 1200 675"
  version="1.1"
  id="svg4"
  sodipodi:docname="coverImage.svg"
  xml:space="preserve"
  inkscape:version="1.4.3 (0d15f75042, 2025-12-25)"
  xmlns:inkscape="http://www.inkscape.org/namespaces/inkscape"
  xmlns:sodipodi="http://sodipodi.sourceforge.net/DTD/sodipodi-0.dtd"
  xmlns="http://www.w3.org/2000/svg"
  xmlns:svg="http://www.w3.org/2000/svg"
><defs id="defs4" /><sodipodi:namedview
    id="namedview4"
    pagecolor="#ffffff"
    bordercolor="#000000"
    borderopacity="0.25"
    inkscape:showpageshadow="2"
    inkscape:pageopacity="0.0"
    inkscape:pagecheckerboard="0"
    inkscape:deskcolor="#d1d1d1"
    inkscape:zoom="0.84666667"
    inkscape:cx="475.3937"
    inkscape:cy="397.44094"
    inkscape:window-width="2560"
    inkscape:window-height="1371"
    inkscape:window-x="0"
    inkscape:window-y="0"
    inkscape:window-maximized="1"
    inkscape:current-layer="svg4"
    showguides="true"
  /><path id="rect1" style="fill:#ffffff" d="M 0,0 H 1200 V 675 H 0 Z" /><path
    d="M 382.59887,375.0882 V 356.10378 H 405.3347 V 310.63212 H 382.59887 V 291.6477 A 15.233007,15.233007 0 0 0 367.47954,276.52837 H 193.20939 a 15.233007,15.233007 0 0 0 -15.23301,15.11933 v 83.32682 a 15.233007,15.233007 0 0 0 15.11933,15.23301 h 174.38383 a 15.233007,15.233007 0 0 0 15.11933,-15.11933 z"
    id="path2"
    style="stroke-width:1"
  /><path
    style="font-weight:bold;font-size:59.805px;line-height:1.2;font-family:Inter;-inkscape-font-specification:'Inter Medium';fill:#ffffff;stroke-width:2.00001"
    d="m 223.05232,311.61273 v 43.51047 h -8.64369 v -35.2464 h -0.0584 l -10.22058,6.48277 v -7.88445 l 10.77541,-6.86239 z m 22.68969,44.21131 q -5.46071,0 -9.43213,-2.71575 -3.94223,-2.74496 -6.07395,-7.76764 -2.10252,-5.02269 -2.10252,-11.94348 0,-6.95 2.10252,-11.97268 2.13172,-5.02269 6.07395,-7.76765 3.94222,-2.74495 9.43213,-2.74495 5.46071,0 9.40294,2.74495 3.97142,2.71576 6.07394,7.76765 2.13172,5.02268 2.13172,11.97268 0,6.92079 -2.13172,11.94348 -2.10252,5.02268 -6.07394,7.76764 -3.94223,2.71575 -9.40294,2.71575 z m 0,-7.18361 q 2.83256,0 4.87668,-1.8397 2.04412,-1.83971 3.15378,-5.2563 1.10966,-3.41659 1.10966,-8.14726 0,-4.75987 -1.10966,-8.17647 -1.10966,-3.41659 -3.15378,-5.2563 -2.04412,-1.8689 -4.87668,-1.8689 -2.83256,0 -4.90588,1.8689 -2.04411,1.83971 -3.15378,5.2563 -1.08046,3.4166 -1.08046,8.17647 0,4.73067 1.08046,8.14726 1.10967,3.41659 3.15378,5.2563 2.07332,1.8397 4.90588,1.8397 z m 38.89661,7.18361 q -5.46071,0 -9.43213,-2.71575 -3.94223,-2.74496 -6.07395,-7.76764 -2.10252,-5.02269 -2.10252,-11.94348 0,-6.95 2.10252,-11.97268 2.13172,-5.02269 6.07395,-7.76765 3.94222,-2.74495 9.43213,-2.74495 5.46071,0 9.40294,2.74495 3.97142,2.71576 6.07394,7.76765 2.13172,5.02268 2.13172,11.97268 0,6.92079 -2.13172,11.94348 -2.10252,5.02268 -6.07394,7.76764 -3.94223,2.71575 -9.40294,2.71575 z m 0,-7.18361 q 2.83256,0 4.87668,-1.8397 2.04412,-1.83971 3.15378,-5.2563 1.10966,-3.41659 1.10966,-8.14726 0,-4.75987 -1.10966,-8.17647 -1.10966,-3.41659 -3.15378,-5.2563 -2.04412,-1.8689 -4.87668,-1.8689 -2.83256,0 -4.90588,1.8689 -2.04411,1.83971 -3.15377,5.2563 -1.08047,3.4166 -1.08047,8.17647 0,4.73067 1.08047,8.14726 1.10966,3.41659 3.15377,5.2563 2.07332,1.8397 4.90588,1.8397 z m 33.26069,-15.38927 q -2.94936,0 -5.22709,-1.34328 -2.27773,-1.34327 -3.56261,-3.73781 -1.28487,-2.42374 -1.28487,-5.63592 v -0.87605 q 0,-3.21218 1.28487,-5.60672 1.28488,-2.42374 3.56261,-3.76701 2.27773,-1.37248 5.22709,-1.37248 2.97857,0 5.2563,1.37248 2.27773,1.34327 3.5626,3.76701 1.28488,2.39454 1.28488,5.60672 v 0.87605 q 0,3.21218 -1.28488,5.63592 -1.28487,2.39454 -3.5626,3.73781 -2.27773,1.34328 -5.2563,1.34328 z m 0,-5.3439 q 1.7813,0 2.83256,-1.34328 1.08047,-1.37248 1.08047,-4.02983 v -0.87605 q 0,-2.65735 -1.08047,-4.02983 -1.05126,-1.40168 -2.83256,-1.40168 -1.7521,0 -2.83256,1.40168 -1.05126,1.37248 -1.05126,4.02983 v 0.87605 q 0,2.65735 1.05126,4.02983 1.08046,1.34328 2.83256,1.34328 z m 28.44242,27.91678 q -2.97857,0 -5.2563,-1.34327 -2.27773,-1.34328 -3.5626,-3.76702 -1.28487,-2.42374 -1.28487,-5.60672 v -0.87605 q 0,-3.21218 1.28487,-5.60672 1.28487,-2.42373 3.5626,-3.76701 2.27773,-1.37248 5.2563,-1.37248 2.97857,0 5.2271,1.37248 2.27773,1.34328 3.5626,3.76701 1.31407,2.39454 1.31407,5.60672 v 0.87605 q 0,3.18298 -1.31407,5.60672 -1.28487,2.42374 -3.5626,3.76702 -2.24853,1.34327 -5.2271,1.34327 z m 0,-5.3439 q 1.7521,0 2.80336,-1.34328 1.08046,-1.37248 1.08046,-4.02983 v -0.87605 q 0,-2.68655 -1.08046,-4.05903 -1.05126,-1.37248 -2.80336,-1.37248 -1.7813,0 -2.83256,1.37248 -1.05126,1.37248 -1.05126,4.05903 v 0.87605 q 0,2.65735 1.05126,4.02983 1.05126,1.34328 2.83256,1.34328 z m -32.38464,4.64306 29.9025,-43.51047 h 6.36596 l -29.9025,43.51047 z"
    id="text8"
    aria-label="100%"
  /><path
    d="m 999.28781,314.82101 v -18.98442 a 15.233007,15.233007 0 0 0 -15.1194,-15.11933 h -30.3523 v 113.67916 h 30.3523 a 15.233007,15.233007 0 0 0 15.1194,-15.11933 v -18.98442 h 22.73579 v -45.47166 z"
    fill-opacity="0.3"
    id="path2-6"
    style="fill:#9a9a9a;fill-opacity:1;stroke-width:1"
  /><path
    d="M 953.81611,280.71726 H 809.89829 a 15.233007,15.233007 0 0 0 -15.23301,15.11933 v 83.32682 a 15.233007,15.233007 0 0 0 15.11933,15.23301 h 144.0315 z"
    id="path3-2"
    style="fill:#710000;fill-opacity:1;stroke-width:1"
  /><path
    style="font-weight:bold;font-size:59.805px;line-height:1.2;font-family:Inter;-inkscape-font-specification:'Inter Medium';fill:#ffffff;stroke-width:2.00001"
    d="m 850.39986,360.01296 q -4.90588,0 -8.64369,-1.54769 -3.70861,-1.57689 -5.78193,-4.38024 -2.07332,-2.80336 -2.07332,-6.45357 0,-2.97857 1.31408,-5.2855 1.31407,-2.30693 3.67941,-3.79622 2.39453,-1.48928 5.51911,-1.8689 v 0.0292 q -4.11743,-0.64244 -6.59957,-3.21219 -2.45294,-2.59894 -2.45294,-6.59957 0,-3.4458 1.89811,-6.10315 1.92731,-2.68655 5.3147,-4.17583 3.41659,-1.51849 7.82604,-1.51849 4.49706,0 7.88445,1.48928 3.38739,1.48929 5.2855,4.14664 1.89811,2.65735 1.89811,6.16155 0,3.97143 -2.45294,6.57037 -2.45294,2.56975 -6.57037,3.24139 v -0.0292 q 3.12457,0.37962 5.48991,1.8689 2.36533,1.48929 3.67941,3.82542 1.34327,2.30693 1.34327,5.2563 0,3.65021 -2.10252,6.45357 -2.07331,2.80335 -5.81113,4.38024 -3.70861,1.54769 -8.64369,1.54769 z m 0,-6.54117 q 2.24853,0 3.94223,-0.78844 1.69369,-0.81765 2.62815,-2.27773 0.96365,-1.48929 0.96365,-3.3874 0,-1.98571 -0.96365,-3.47499 -0.96366,-1.51849 -2.65735,-2.36534 -1.6937,-0.87605 -3.91303,-0.87605 -2.19012,0 -3.88382,0.87605 -1.69369,0.84685 -2.65735,2.36534 -0.96365,1.48928 -0.96365,3.47499 0,1.92731 0.93445,3.3874 0.96365,1.46008 2.65735,2.27773 1.6937,0.78844 3.91302,0.78844 z m 0,-19.82793 q 1.95651,0 3.4166,-0.73004 1.46008,-0.73004 2.24852,-2.07332 0.81765,-1.37247 0.81765,-3.15378 0,-1.7813 -0.81765,-3.09537 -0.78844,-1.34328 -2.24852,-2.07332 -1.43088,-0.73004 -3.4166,-0.73004 -1.92731,0 -3.38739,0.73004 -1.46008,0.73004 -2.27773,2.07332 -0.78844,1.31407 -0.78844,3.09537 0,1.78131 0.78844,3.12458 0.81765,1.34328 2.27773,2.10252 1.46008,0.73004 3.38739,0.73004 z m 20.09074,16.29453 v -6.95 l 19.15629,-27.18674 h 5.63592 v 8.58529 h -3.12457 l -12.99474,18.51385 v 0.0584 h 27.18674 v 6.9792 z m 21.72604,9.37373 v -11.47625 -3.12458 -28.90964 h 8.43928 v 43.51047 z m 29.66888,-21.87204 q -2.94937,0 -5.22709,-1.34328 -2.27773,-1.34327 -3.56261,-3.73781 -1.28487,-2.42374 -1.28487,-5.63592 v -0.87605 q 0,-3.21218 1.28487,-5.60672 1.28488,-2.42374 3.56261,-3.76701 2.27772,-1.37248 5.22709,-1.37248 2.97857,0 5.2563,1.37248 2.27773,1.34327 3.5626,3.76701 1.28488,2.39454 1.28488,5.60672 v 0.87605 q 0,3.21218 -1.28488,5.63592 -1.28487,2.39454 -3.5626,3.73781 -2.27773,1.34328 -5.2563,1.34328 z m 0,-5.3439 q 1.7813,0 2.83256,-1.34328 1.08047,-1.37248 1.08047,-4.02983 v -0.87605 q 0,-2.65735 -1.08047,-4.02983 -1.05126,-1.40168 -2.83256,-1.40168 -1.7521,0 -2.83256,1.40168 -1.05126,1.37248 -1.05126,4.02983 v 0.87605 q 0,2.65735 1.05126,4.02983 1.08046,1.34328 2.83256,1.34328 z m 28.44239,27.91678 q -2.9785,0 -5.2563,-1.34327 -2.2777,-1.34328 -3.5626,-3.76702 -1.2848,-2.42374 -1.2848,-5.60672 v -0.87605 q 0,-3.21218 1.2848,-5.60672 1.2849,-2.42373 3.5626,-3.76701 2.2778,-1.37248 5.2563,-1.37248 2.9786,0 5.2271,1.37248 2.2778,1.34328 3.5626,3.76701 1.3141,2.39454 1.3141,5.60672 v 0.87605 q 0,3.18298 -1.3141,5.60672 -1.2848,2.42374 -3.5626,3.76702 -2.2485,1.34327 -5.2271,1.34327 z m 0,-5.3439 q 1.7521,0 2.8034,-1.34328 1.0804,-1.37248 1.0804,-4.02983 v -0.87605 q 0,-2.68655 -1.0804,-4.05903 -1.0513,-1.37248 -2.8034,-1.37248 -1.7813,0 -2.8325,1.37248 -1.0513,1.37248 -1.0513,4.05903 v 0.87605 q 0,2.65735 1.0513,4.02983 1.0512,1.34328 2.8325,1.34328 z m -32.38461,4.64306 29.90251,-43.51047 h 6.3659 l -29.90245,43.51047 z"
    id="text9"
    aria-label="84%"
  /><path
    fill="#202020"
    d="m 21.19142,726.68546 c 0.716944,-1.59642 0.499528,-4.05834 0.288395,-6.69343 -0.218724,-2.62045 -0.419501,-5.45444 1.053157,-7.79149 l -0.0035,-0.0111 a 8.811443,8.811443 0 0 1 2.006202,-2.27376 c -5.422061,-7.39098 -6.933507,-15.98397 -6.480414,-24.31895 0.570175,-10.24266 4.08012,-20.12052 6.966747,-27.02563 3.093208,-8.14425 6.180888,-15.91997 3.202496,-25.01416 -4.568999,-13.88426 -14.129612,-39.28155 10.371291,-47.07888 1.000015,-0.31675 2.047441,-0.59962 3.15339,-0.85212 28.097251,-6.47903 29.998753,24.76757 33.478866,34.32638 2.745442,6.93061 5.94558,12.05445 13.019589,17.44283 7.879752,4.99867 19.423241,13.45831 26.881151,23.72555 3.51402,4.84103 6.12988,10.08881 6.98403,15.56451 0.32595,0.14128 0.63319,0.3007 0.93285,0.47476 2.24444,1.25747 4.17872,3.0411 6.0322,4.06785 1.69717,0.88065 3.6965,0.78531 5.94752,0.86699 2.26565,0.0893 4.82577,0.45206 6.99028,2.61513 l 0.004,0.0111 a 8.1820542,8.1820542 0 0 1 2.04867,3.49572 c 0.38011,1.20002 0.58595,2.46746 0.77772,3.69045 0.3965,2.56415 0.74725,4.98384 1.73999,6.38104 2.99022,3.88215 4.15864,6.83754 3.72214,9.39656 -0.43297,2.57013 -2.43791,4.26887 -4.89883,5.64744 -4.90368,2.77585 -12.11399,4.75406 -16.78548,9.49811 l -0.76638,-0.75979 0.76638,0.75979 c -5.00407,5.04501 -10.75221,8.08834 -15.95626,8.52634 a 11.538794,11.538794 0 0 1 -9.78732,-3.64866 c -3.807092,1.18144 -8.480625,0.90123 -15.278161,2.63866 -4.646022,1.08039 -9.68982,4.84203 -16.302537,6.54537 a 9.3942104,9.3942104 0 0 1 -0.111499,2.27269 l -0.0076,0.0146 c -0.92089,5.85455 -4.892423,9.64333 -10.015676,10.8382 -5.126774,1.18377 -11.370626,-0.0784 -17.293172,-3.83865 l 0.566619,-0.91305 -0.566619,0.91305 c -5.687902,-3.67564 -13.139105,-3.5773 -18.512556,-4.87065 -2.688485,-0.65223 -5.060326,-1.77154 -5.978508,-4.20711 -0.925773,-2.42095 -0.34655,-5.64871 1.811321,-10.41572 z"
    id="path1"
    style="stroke-width:1"
  /><path
    fill="#f8bf11"
    d="m 21.400489,736.33896 c 0.559949,1.4976 2.033584,2.29012 4.45409,2.86829 4.870274,1.17153 12.779453,1.0137 19.164453,5.1532 5.535661,3.50379 11.2517,4.56636 15.671977,3.54525 4.405646,-1.02871 7.553692,-3.98202 8.360005,-9.07894 l -0.007,-0.0222 c 0.546645,-3.02182 -1.311683,-6.92016 -3.818186,-10.85772 -2.506504,-3.93755 -5.551729,-7.83895 -6.91075,-11.3575 l -0.0035,-0.0111 c -1.682814,-4.54079 -3.220021,-8.46749 -4.979748,-11.32117 -1.763246,-2.86479 -3.636039,-4.57009 -6.16821,-5.07621 a 10.210085,10.210085 0 0 0 -0.349278,-0.0605 c 1.01905,4.06637 0.329377,8.75957 -2.881522,10.74248 -3.494411,2.2072 -10.02922,0.68263 -13.199673,-1.25961 l -1.369653,0.38493 c -2.062071,0.59203 -3.723381,1.25274 -4.996791,3.33106 l 0.0035,0.0111 c -0.985475,1.55921 -0.947148,3.91893 -0.742502,6.49494 0.208166,2.58712 0.594315,5.35016 -0.469989,7.74125 -2.062698,4.5657 -2.342875,7.27083 -1.757184,8.77251 z m 81.117841,-13.28459 0.0105,0.0333 c 1.90877,4.71374 5.47626,6.48131 9.95677,6.11355 4.49163,-0.37128 9.86681,-3.1253 14.59737,-7.87584 5.22202,-5.3219 12.79438,-7.35366 17.25547,-9.86705 2.24166,-1.26022 3.56902,-2.51203 3.84021,-4.12619 0.26766,-1.62527 -0.48088,-4.06567 -3.32294,-7.75023 l -0.004,-0.0111 -0.0182,-0.0187 c -1.49113,-2.08293 -1.74153,-4.80339 -2.13155,-7.30846 -0.3865,-2.49395 -0.89854,-4.72807 -2.18832,-5.98228 l -0.0146,-0.008 c -1.68148,-1.68031 -3.44361,-1.91685 -5.55832,-1.99281 -2.10713,-0.0906 -4.53165,0.0905 -6.87257,-1.12415 l -0.0146,-0.008 -0.0111,0.004 c -2.19703,-1.22359 -4.13131,-3.00722 -6.06499,-4.09415 -1.63402,-0.91287 -3.13078,-1.39241 -4.96766,-0.8228 l -0.0556,0.0176 a 7.1097622,7.1097622 0 0 0 -1.0052,0.41621 c -2.32833,1.14096 -3.90858,3.52432 -5.08429,6.95324 l -2.50489,12.66493 0.004,0.0111 c -0.53603,3.7887 -2.71094,8.46331 -4.36474,13.0462 -1.65027,4.594 -2.65609,8.98388 -1.48083,11.72926 z"
    id="path2-0"
    style="stroke-width:1"
  /><path
    fill="#d6a312"
    d="m 41.115583,631.79663 c 0.182147,-1.08469 0.867269,-2.27978 2.31927,-3.4855 2.976402,-2.56884 4.433636,-3.14045 5.961703,-4.99378 2.474128,-2.9966 4.841326,-4.51665 6.985801,-5.19591 a 9.7205601,9.7205601 0 0 1 3.187682,-0.43508 c 2.903819,0.0583 5.23549,1.39818 6.648188,2.07551 0.289095,0.14072 0.612078,0.23404 1.437131,0.52287 0.818014,0.26662 2.053835,0.69432 3.84321,1.32569 1.602694,0.54379 2.415033,1.68025 2.435155,3.28772 0.02012,1.60747 -0.852527,3.75447 -2.97688,6.0412 l -0.01111,0.004 c -1.311978,1.45478 -2.007252,3.081 -2.953663,4.49335 a 9.3359337,9.3359337 45 0 1 -1.68825,1.9652 c -0.690907,0.59786 -1.550345,1.12683 -2.6848,1.55953 -2.702802,1.0395 -4.989015,0.8467 -7.087092,0.39869 -2.101596,-0.45911 -4.006912,-1.22493 -5.919764,-1.24256 l -0.01111,0.004 c -3.907556,0.0151 -7.148343,-1.41581 -8.624097,-3.29577 a 3.7763327,3.7763327 0 0 1 -0.861372,-3.0282 z"
    id="path3"
    style="stroke-width:1"
  /><path
    fill="#202020"
    d="m 51.799134,634.18332 c 3.301466,0.58033 7.168151,1.32396 10.690424,0.20828 3.511161,-1.11216 5.775133,-3.61428 7.260763,-5.83318 0.75365,-1.09454 1.311369,-2.15148 1.742995,-2.91172 0.80272,-1.17122 0.296319,-2.30678 -0.126462,-2.13619 -0.705188,0.32118 -0.510105,1.32305 -0.828407,1.90069 -0.439217,0.77488 -0.977681,1.77681 -1.686333,2.82042 -1.413785,2.09834 -3.47499,4.35284 -6.619479,5.34885 -3.155601,0.99954 -7.406555,0.3165 -10.052254,-0.23925 -1.503043,-0.30638 -3.518919,-1.07385 -5.147356,-1.62171 -1.23582,-0.4277 -1.484045,-1.32716 -2.285715,-0.9632 -0.80167,0.36397 0.09101,1.0593 1.577966,1.70088 1.490477,0.65269 3.753214,1.42755 5.473858,1.72613 z"
    id="path4"
    style="stroke-width:1"
  /><path
    fill="#ffffff"
    d="m 27.601203,708.28446 a 20.09382,20.09382 0 0 1 1.155572,-0.36603 l 0.111113,-0.0352 c -1.95269,-2.7681 -0.511561,-5.70647 4.390702,-10.10794 5.106338,-4.49055 9.920687,-5.7343 12.399496,-0.68762 0.143543,0.26018 0.275976,0.52389 0.389705,0.80574 a 9.3359337,9.3359337 45 0 1 1.523405,0.17767 c 3.28221,0.63533 5.680807,2.91987 7.602228,6.05243 1.917901,3.12146 3.461041,7.14409 5.158486,11.69247 0.8765,2.26539 2.824566,5.09609 4.847093,8.12328 11.918524,3.85388 26.368979,2.57774 35.358087,-8.87671 0.39065,-1.4686 0.8924,-2.9724 1.43453,-4.46454 a 161.42657,161.42657 0 0 1 1.05631,-2.84093 7.5759761,7.5759761 0 0 1 -3.153793,0.38766 3.9628183,3.9628183 0 0 1 -2.742438,-1.47874 c -1.298324,-1.66718 -1.435952,-4.53339 -0.148777,-8.2666 1.272544,-3.74079 3.981008,-8.3521 8.463748,-13.53763 3.27946,-3.85077 4.58293,-7.68694 4.57968,-11.40264 0.004,-3.73032 -1.30153,-7.35129 -3.26759,-10.70201 -3.7886,-6.44126 -10.006283,-11.90526 -13.936135,-15.31861 -0.861906,-0.28939 0.04712,1.03652 4.617811,5.46949 4.126394,4.07244 12.532074,13.8194 8.711824,24.72473 -2.16277,-6.21044 -5.67891,-12.13892 -10.091132,-17.30675 -6.284668,-7.1422 -18.494553,-19.09526 -22.726676,-30.37204 -0.251837,0.32429 -1.086233,1.39551 -1.490661,1.81704 -1.136058,1.2768 -1.808004,2.82228 -2.826261,4.35519 a 9.9070457,9.9070457 0 0 1 -5.685082,4.24596 c -2.666705,0.84468 -5.022552,0.62503 -7.058034,0.18165 -2.226786,-0.46837 -4.095802,-1.19677 -5.673455,-1.19832 -3.299199,0.006 -6.227157,-0.90068 -8.198643,-2.41577 0.587811,9.96145 -0.643882,24.98619 -2.077438,32.58029 -0.76454,4.03225 -2.145249,12.52657 -0.943204,21.84109 -1.018165,0.29805 -2.087058,0.78334 -3.188529,1.47456 -7.591191,-9.49146 -3.571915,-23.58971 -1.077334,-27.94988 0.985826,-1.82829 0.866513,-2.47516 0.154839,-2.21306 -2.74124,4.58501 -5.606086,12.98703 -5.007478,21.24563 0.275294,3.76402 1.273576,7.49464 3.313351,10.84647 -0.384619,0.32967 -0.769238,0.65934 -1.143299,1.02234 -5.668886,5.37786 -7.249229,8.99608 -4.832021,12.49733 z"
    id="path5"
    style="stroke-width:1"
  /><path
    fill="#e6e6e6"
    d="m 66.083032,663.91634 c 6.184905,-1.93461 13.094677,-1.07899 19.831313,2.47231 6.744228,3.53666 12.993443,9.60198 17.956075,17.39523 l -0.54405,0.63692 0.0141,0.0444 c -4.173491,4.96532 -6.83992,9.47773 -8.154495,13.31742 -1.391599,4.05971 -1.455779,7.60114 0.457442,10.05165 a 5.9791935,5.9791935 0 0 0 3.996059,2.19423 l 0.508354,0.0224 c -0.480843,1.33823 -0.928906,2.70276 -1.310853,4.08303 -8.278799,10.30028 -21.295496,11.58686 -32.461364,8.17924 -1.86732,-2.80737 -3.586471,-5.41716 -4.267741,-7.18199 -1.693925,-4.53727 -3.25411,-8.65231 -5.319627,-12.00821 -2.072556,-3.37812 -4.906206,-6.14838 -8.842526,-6.91885 -0.224086,-0.0513 -0.430575,-0.047 -0.647623,-0.0761 a 8.811443,8.811443 0 0 0 -0.57528,-0.96703 c 0.499804,-7.76292 2.554541,-14.74686 5.943147,-20.22159 3.399717,-5.47824 8.02757,-9.27929 13.405977,-11.01958 z m -18.749208,32.28598 0.03982,0.0485 -0.007,-0.0222 -0.02519,-0.0409 z"
    id="path6"
    style="stroke-width:1"
  /><path
    fill="#ffffff"
    d="m 37.443354,621.28391 a 12.238115,12.238115 0 0 0 4.697709,6.5323 48.008378,48.008378 0 0 1 2.105503,-1.76726 l 1.252754,-0.94698 c -0.445409,-0.28683 -1.20842,-0.53419 -1.635881,-1.03455 a 7.7974277,7.7974277 0 0 1 -1.4108,-2.52406 l -0.04631,-0.1076 a 7.8440491,7.8440491 0 0 1 -0.441706,-2.74544 5.058421,5.058421 0 0 1 0.552431,-2.42458 2.5991426,2.5991426 0 0 1 1.486994,-1.32683 l 0.07778,-0.0246 a 2.6574193,2.6574193 0 0 1 1.888971,0.13523 5.058421,5.058421 0 0 1 1.971486,1.5151 7.8790152,7.8790152 0 0 1 1.4108,2.52406 l 0.0352,0.11111 a 8.3685398,8.3685398 0 0 1 0.392727,1.58726 20.664932,20.664932 0 0 1 3.511051,-2.57926 13.939796,13.939796 0 0 0 -0.35698,-1.51299 l -0.04575,-0.14445 a 12.063285,12.063285 0 0 0 -2.551004,-4.65702 9.2426909,9.2426909 0 0 0 -3.932211,-2.76462 6.4570627,6.4570627 0 0 0 -4.277397,-0.14895 l -0.06667,0.0211 c -1.388909,0.43994 -2.451113,1.21653 -3.391794,2.49257 a 9.0911714,9.0911714 0 0 0 -1.715281,4.50457 c -0.21432,1.75508 -0.08364,3.3642 0.446146,5.15257 l 0.03112,0.13685 z m 21.577497,-4.82959 a 12.238115,12.238115 0 0 1 3.517758,0.41401 7.2612817,7.2612817 0 0 1 -0.550146,-1.65965 l -0.02816,-0.0889 a 7.5876315,7.5876315 0 0 1 -0.142401,-2.3023 4.3124787,4.3124787 0 0 1 0.570433,-1.90456 1.841545,1.841545 0 0 1 1.163864,-0.91883 c 0.480752,-0.10337 0.940036,-0.004 1.451007,0.33509 a 4.3357894,4.3357894 0 0 1 1.326829,1.487 7.2962478,7.2962478 0 0 1 0.865942,2.23205 l 0.02816,0.0889 a 7.3894906,7.3894906 0 0 1 0.145921,2.31341 4.2775127,4.2775127 0 0 1 -0.739867,2.14162 l 1.414909,0.52992 1.063771,0.34771 a 8.2286756,8.2286756 0 0 0 0.933125,-3.22983 c 0.166559,-1.51988 0.06645,-2.9553 -0.340911,-4.55014 l -0.0035,-0.0111 a 12.482878,12.482878 0 0 0 -1.872608,-4.17502 7.7857724,7.7857724 0 0 0 -2.883274,-2.65674 4.1842699,4.1842699 0 0 0 -3.348675,-0.38198 c -0.933347,0.29563 -1.657035,0.86719 -2.294394,1.82709 a 7.9256366,7.9256366 0 0 0 -1.257361,3.71153 c -0.166558,1.51989 -0.04422,2.94827 0.355542,4.55774 l 0.0035,0.0111 c 0.177835,0.67723 0.371407,1.28835 0.620536,1.88187 z"
    id="path7"
    style="stroke-width:1"
  /><path
    fill="#202020"
    d="m 55.565928,621.68108 c 0.0085,0.41298 -0.620168,0.55099 -0.919416,0.8414 -0.250732,0.25058 -0.397187,0.67598 -0.727005,0.79267 -0.329819,0.1167 -0.879652,0.15637 -1.029682,-0.16289 -0.189297,-0.40463 0.356058,-0.88302 0.706791,-1.16528 0.45536,-0.37653 1.09036,-0.6877 1.667244,-0.56478 0.12871,0.0204 0.296687,0.1261 0.305587,0.26999 z m 3.577829,-1.13328 c 0.230775,0.34259 0.824297,0.0935 1.225059,0.16214 0.360388,0.057 0.71394,0.32403 1.061909,0.22604 0.336858,-0.0945 0.809262,-0.3786 0.748122,-0.72601 -0.07818,-0.43983 -0.799514,-0.517 -1.248792,-0.54585 -0.5891,-0.0457 -1.298563,0.069 -1.699472,0.50162 -0.09352,0.0908 -0.158875,0.2704 -0.08331,0.39317 z"
    id="path8"
    style="stroke-width:1"
  /><path
    style="baseline-shift:baseline;display:inline;overflow:visible;vector-effect:none;enable-background:accumulate;stop-color:#000000"
    d="m 490.96875,332.5 v 10 h 208.49023 v -10 z"
    id="path142"
  /><path
    style="baseline-shift:baseline;display:inline;overflow:visible;vector-effect:none;enable-background:accumulate;stop-color:#000000"
    d="m 675.49414,303.96484 -7.07031,7.07032 26.46484,26.46484 -26.46484,26.46484 7.07031,7.07032 L 709.03125,337.5 Z"
    id="path141"
  /><path
    id="rect14"
    style="fill:#a02c89;stroke-width:9.99996"
    d="m 547.987,223.81332 h 224.38016 v 51.67323 H 547.987 Z"
  /><path
    style="font-weight:500;font-size:48px;line-height:1.2;font-family:Inter;-inkscape-font-specification:'Inter Medium';fill:#ffffff;stroke-width:2"
    d="m 754.39458,267.40384 q -2.83594,0 -5.10937,-0.91406 -2.27344,-0.91407 -3.65625,-2.71875 -1.38282,-1.80469 -1.57032,-4.47657 h 4.875 q 0.21094,1.99219 1.57032,3.09375 1.38281,1.07813 3.79687,1.07813 2.36719,0 3.72656,-0.96094 1.35938,-0.96094 1.35938,-2.4375 0,-1.26562 -0.98438,-2.01562 -0.96093,-0.77344 -2.57812,-1.125 l -4.10156,-0.91407 q -3.49219,-0.77343 -5.29688,-2.55468 -1.80469,-1.78125 -1.80469,-4.52344 0,-2.20313 1.17188,-3.86719 1.19531,-1.66406 3.32812,-2.60156 2.13282,-0.9375 4.96875,-0.9375 2.78907,0 4.94532,0.98437 2.17968,0.98438 3.42187,2.78907 1.26563,1.80468 1.33594,4.3125 h -4.73438 q -0.0234,-1.80469 -1.35937,-2.97657 -1.33594,-1.19531 -3.53906,-1.19531 -2.10938,0 -3.35157,0.98438 -1.24218,0.98437 -1.24218,2.41406 0,1.26562 0.9375,2.03906 0.96093,0.77344 2.625,1.14844 l 4.21875,0.9375 q 3.63281,0.79687 5.32031,2.46094 1.71094,1.66406 1.71094,4.35937 0,2.36719 -1.3125,4.07813 -1.28907,1.6875 -3.53907,2.625 -2.25,0.91406 -5.13281,0.91406 z"
    id="path45"
  /><path
    style="font-weight:500;font-size:48px;line-height:1.2;font-family:Inter;-inkscape-font-specification:'Inter Medium';fill:#ffffff;stroke-width:2"
    d="m 723.31646,252.5679 v 14.25 h -4.94532 v -34.92187 h 4.94532 v 16.3125 h -1.24219 q 1.21875,-3.32813 3.375,-4.96875 2.17969,-1.66407 5.25,-1.66407 2.55469,0 4.57031,1.125 2.03906,1.10157 3.21094,3.28125 1.17187,2.17969 1.17187,5.41407 v 15.42187 h -4.94531 v -14.8125 q 0,-2.97656 -1.42969,-4.47656 -1.40625,-1.52344 -3.98437,-1.52344 -1.6875,0 -3.04688,0.67969 -1.33593,0.67969 -2.13281,2.13281 -0.79687,1.45313 -0.79687,3.75 z"
    id="path44"
  /><path
    style="font-weight:500;font-size:48px;line-height:1.2;font-family:Inter;-inkscape-font-specification:'Inter Medium';fill:#ffffff;stroke-width:2"
    d="m 704.47271,235.3179 h 4.94531 v 24.96094 q 0,1.35937 0.5625,1.92187 0.58594,0.53907 2.0625,0.53907 0.5625,0 1.24219,0 0.67968,0 1.17187,0 v 4.07812 q -0.60937,0 -1.47656,0 -0.84375,0 -1.64063,0 -3.49218,0 -5.17968,-1.45312 -1.6875,-1.47657 -1.6875,-4.45313 z"
    id="path43"
  /><path
    style="font-weight:500;font-size:48px;line-height:1.2;font-family:Inter;-inkscape-font-specification:'Inter Medium';fill:#ffffff;stroke-width:2"
    d="m 714.45708,242.0679 v 4.07813 h -14.34375 v -4.07813 z"
    id="path42"
  /><path
    style="font-weight:500;font-size:48px;line-height:1.2;font-family:Inter;-inkscape-font-specification:'Inter Medium';fill:#ffffff;stroke-width:2"
    d="m 680.61333,252.5679 v 14.25 h -4.94531 v -24.75 h 4.85156 v 6.14063 h -1.14844 q 1.21875,-3.32813 3.375,-4.96875 2.17969,-1.66407 5.25,-1.66407 2.55469,0 4.57032,1.125 2.03906,1.10157 3.21093,3.28125 1.17188,2.17969 1.17188,5.41407 v 15.42187 h -4.94531 v -14.8125 q 0,-2.97656 -1.42969,-4.47656 -1.40625,-1.52344 -3.98438,-1.52344 -1.6875,0 -3.04687,0.67969 -1.33594,0.67969 -2.13281,2.13281 -0.79688,1.45313 -0.79688,3.75 z"
    id="path41"
  /><path
    style="font-weight:500;font-size:48px;line-height:1.2;font-family:Inter;-inkscape-font-specification:'Inter Medium';fill:#ffffff;stroke-width:2"
    d="m 659.44927,267.3804 q -3.53906,0 -6.21094,-1.64062 -2.67187,-1.64063 -4.17187,-4.54688 -1.47657,-2.90625 -1.47657,-6.70312 0,-3.84375 1.47657,-6.75 1.5,-2.92969 4.17187,-4.57032 2.67188,-1.66406 6.21094,-1.66406 3.53906,0 6.1875,1.66406 2.67187,1.64063 4.14844,4.57032 1.5,2.90625 1.5,6.75 0,3.79687 -1.5,6.70312 -1.47657,2.90625 -4.14844,4.54688 -2.64844,1.64062 -6.1875,1.64062 z m 0,-4.26562 q 2.10937,0 3.63281,-1.05469 1.54688,-1.07813 2.36719,-3.02344 0.84375,-1.94531 0.84375,-4.54687 0,-2.67188 -0.84375,-4.61719 -0.82031,-1.94531 -2.36719,-3.02344 -1.52344,-1.07812 -3.63281,-1.07812 -2.10938,0 -3.65625,1.07812 -1.52344,1.05469 -2.36719,3.02344 -0.82031,1.94531 -0.82031,4.61719 0,2.625 0.82031,4.57031 0.84375,1.92187 2.36719,3 1.52344,1.05469 3.65625,1.05469 z"
    id="path40"
  /><path
    style="font-weight:500;font-size:48px;line-height:1.2;font-family:Inter;-inkscape-font-specification:'Inter Medium';fill:#ffffff;stroke-width:2"
    d="m 607.81646,266.8179 v -24.75 h 4.80468 v 5.22656 h -0.46875 q 0.70313,-1.875 1.875,-3.14062 1.19532,-1.28906 2.74219,-1.92188 1.54688,-0.65625 3.23438,-0.65625 2.88281,0 4.92187,1.66407 2.0625,1.64062 2.53125,4.05468 h -0.77344 q 0.51563,-1.64062 1.66407,-2.92968 1.17187,-1.28907 2.85937,-2.03907 1.6875,-0.75 3.75,-0.75 2.32031,0 4.19531,1.00782 1.875,1.00781 2.97657,3 1.10156,1.96875 1.10156,4.94531 v 16.28906 h -4.96875 v -15.86719 q 0,-2.64843 -1.47656,-3.84375 -1.47657,-1.19531 -3.49219,-1.19531 -1.64063,0 -2.83594,0.70313 -1.19531,0.70312 -1.85156,1.92187 -0.65625,1.21875 -0.65625,2.8125 v 15.46875 h -4.875 v -16.19531 q 0,-2.13281 -1.38281,-3.42188 -1.35938,-1.28906 -3.46875,-1.28906 -1.42969,0 -2.69532,0.67969 -1.24218,0.67969 -2.01562,2.01562 -0.75,1.3125 -0.75,3.28125 v 14.92969 z"
    id="path39"
  /><path
    style="font-weight:500;font-size:48px;line-height:1.2;font-family:Inter;-inkscape-font-specification:'Inter Medium';fill:#ffffff;stroke-width:2"
    d="m 571.83989,266.8179 15.375,-30.39844 v -0.0234 h -17.78906 v -4.5 h 23.03906 v 4.64062 l -15.23437,30.28125 z"
    id="path38"
  /><path
    style="font-weight:500;font-size:48px;line-height:1.2;font-family:Inter;-inkscape-font-specification:'Inter Medium';fill:#ffffff;stroke-width:2"
    d="m 565.11333,231.89603 v 34.92187 h -5.03906 v -29.8125 h -0.0234 l -8.53125,5.57813 v -4.96875 l 8.69531,-5.71875 z"
    id="path37"
  /><path
    style="font-weight:500;font-size:48px;line-height:1.2;font-family:Inter;-inkscape-font-specification:'Inter Medium';stroke-width:2"
    d="m 525.52739,266.8179 v -24.75 h 4.73438 v 4.00781 h 0.0937 q 0.67969,-2.03906 2.13281,-3.16406 1.47656,-1.14844 3.84375,-1.14844 0.5625,0 1.03125,0.0469 0.49219,0.0234 0.77344,0.0703 v 4.61719 q -0.28125,-0.0703 -1.00781,-0.14063 -0.72657,-0.0937 -1.59375,-0.0937 -1.38282,0 -2.55469,0.63282 -1.14844,0.63281 -1.82813,1.94531 -0.67968,1.3125 -0.67968,3.35156 v 14.625 z"
    id="path36"
  /><path
    style="font-weight:500;font-size:48px;line-height:1.2;font-family:Inter;-inkscape-font-specification:'Inter Medium';stroke-width:2"
    d="m 509.96489,267.3804 q -3.67968,0 -6.32812,-1.66406 -2.625,-1.66406 -4.05469,-4.57031 -1.40625,-2.92969 -1.40625,-6.65625 0,-3.79688 1.47656,-6.70313 1.47657,-2.92969 4.07813,-4.59375 2.60156,-1.6875 5.97656,-1.6875 2.625,0 4.73438,0.9375 2.13281,0.9375 3.65625,2.67188 1.52343,1.71093 2.34375,4.07812 0.82031,2.36719 0.82031,5.25 v 1.33594 h -20.85938 v -3.75 h 18.25782 l -2.17969,1.14844 q 0,-2.29688 -0.82031,-3.98438 -0.82032,-1.71094 -2.34375,-2.625 -1.5,-0.9375 -3.5625,-0.9375 -2.03907,0 -3.53907,0.9375 -1.5,0.91406 -2.34375,2.625 -0.82031,1.6875 -0.82031,3.98438 v 2.13281 q 0,2.34375 0.82031,4.14844 0.82032,1.78125 2.36719,2.78906 1.57031,1.00781 3.79688,1.00781 1.61718,0 2.85937,-0.49219 1.24219,-0.51562 2.0625,-1.40625 0.82031,-0.89062 1.17188,-2.0625 h 4.75781 q -0.44531,2.39063 -1.99219,4.21875 -1.52344,1.80469 -3.84375,2.83594 -2.29687,1.03125 -5.08594,1.03125 z"
    id="path35"
  /><path
    style="font-weight:500;font-size:48px;line-height:1.2;font-family:Inter;-inkscape-font-specification:'Inter Medium';stroke-width:2"
    d="m 485.92269,235.3179 h 4.94531 v 24.96094 q 0,1.35937 0.5625,1.92187 0.58594,0.53907 2.0625,0.53907 0.5625,0 1.24219,0 0.67969,0 1.17187,0 v 4.07812 q -0.60937,0 -1.47656,0 -0.84375,0 -1.64062,0 -3.49219,0 -5.17969,-1.45312 -1.6875,-1.47657 -1.6875,-4.45313 z"
    id="path34"
  /><path
    style="font-weight:500;font-size:48px;line-height:1.2;font-family:Inter;-inkscape-font-specification:'Inter Medium';stroke-width:2"
    d="m 495.90706,242.0679 v 4.07813 h -14.34375 v -4.07813 z"
    id="path33"
  /><path
    style="font-weight:500;font-size:48px;line-height:1.2;font-family:Inter;-inkscape-font-specification:'Inter Medium';stroke-width:2"
    d="m 472.03359,266.8179 v -28.75781 q 0,-1.96875 0.82031,-3.32813 0.84375,-1.38281 2.41406,-2.10937 1.57032,-0.72656 3.79688,-0.72656 0.96094,0 1.80469,0 0.86718,0 1.14843,0 v 4.07812 q -0.23437,0 -0.98437,0 -0.75,0 -1.21875,0 -1.52344,0 -2.17969,0.67969 -0.65625,0.65625 -0.65625,2.20312 v 27.96094 z"
    id="path32"
  /><path
    style="font-weight:500;font-size:48px;line-height:1.2;font-family:Inter;-inkscape-font-specification:'Inter Medium';stroke-width:2"
    d="m 482.01796,242.0679 v 4.07813 H 467.6039 v -4.07813 z"
    id="path31"
  /><path
    style="font-weight:500;font-size:48px;line-height:1.2;font-family:Inter;-inkscape-font-specification:'Inter Medium';stroke-width:2"
    d="m 442.6523,257.74759 v -4.42969 h 17.50781 v 4.42969 z"
    id="path30"
  /><path
    style="font-weight:500;font-size:48px;line-height:1.2;font-family:Inter;-inkscape-font-specification:'Inter Medium';stroke-width:2"
    d="m 435.62105,266.8179 12.67969,-34.92187 h 6.28125 l 12.58594,34.92187 h -5.64844 l -6.72656,-19.6875 q -0.82032,-2.50781 -1.78125,-5.48437 -0.96094,-2.97657 -2.29688,-7.38282 h 1.47656 q -1.33593,4.40625 -2.29687,7.38282 -0.96094,2.97656 -1.80469,5.48437 l -6.9375,19.6875 z"
    id="text10"
  /><path
    fill="#202020"
    d="m 1001.2082,269.20782 c -0.5788,-0.66031 -0.8367,-1.87327 -1.1231,-3.16837 -0.28056,-1.2892 -0.60119,-2.67818 -1.65144,-3.58259 l 5e-5,-0.006 a 4.4211263,4.4211263 0 0 0 -1.29688,-0.79556 c 1.51357,-4.34311 0.9744,-8.68748 -0.46919,-12.61907 -1.78042,-4.82946 -4.91736,-9.05144 -7.31794,-11.9391 -2.68198,-3.45168 -5.30709,-6.72738 -5.21631,-11.528 0.14906,-7.3324 0.99878,-20.9219 -11.90132,-21.05766 -0.5263,-0.005 -1.07036,0.0136 -1.63803,0.0552 -14.4313,1.02573 -10.74642,16.29431 -11.00952,21.39161 -0.29734,3.72849 -1.0786,6.65717 -3.67923,10.28268 -3.04446,3.55711 -7.33723,9.31343 -9.40422,15.33578 -0.97345,2.8392 -1.45621,5.74138 -1.06035,8.49371 -0.13557,0.11572 -0.2595,0.2374 -0.37763,0.36498 -0.89165,0.93341 -1.55711,2.07357 -2.29516,2.83879 -0.68456,0.67213 -1.65765,0.92053 -2.72543,1.29089 -1.07369,0.37615 -2.24839,0.92682 -2.96846,2.28287 l -6e-5,0.006 a 4.1053315,4.1053315 0 0 0 -0.46844,1.97828 c -0.006,0.63156 0.0819,1.26983 0.16987,1.88471 0.18704,1.28834 0.37477,2.50066 0.10412,3.31694 -0.86325,2.30216 -0.98894,3.89175 -0.40307,5.05508 0.58581,1.16918 1.79749,1.68908 3.1808,1.98833 2.76065,0.61012 6.51043,0.49828 9.44927,2.0867 l 0.25585,-0.47722 -0.25585,0.47722 c 3.14265,1.68387 6.34773,2.29806 8.90853,1.74255 a 5.7895701,5.7895701 0 0 0 4.15813,-3.19016 c 2.00006,0.007 4.2007,-0.81536 7.71705,-0.98198 2.38762,-0.16526 5.36052,0.89713 8.7832,0.74134 a 4.7135288,4.7135288 0 0 0 0.38784,1.0738 l 0.006,0.006 c 1.30307,2.67291 3.7656,3.90607 6.39898,3.72551 2.63345,-0.1864 5.4429,-1.71046 7.7307,-4.38556 l -0.40613,-0.35462 0.40613,0.35462 c 2.18769,-2.59999 5.77646,-3.64904 8.16384,-5.05999 1.1937,-0.70841 2.1667,-1.59428 2.2489,-2.8977 0.088,-1.29751 -0.6648,-2.76064 -2.4013,-4.72988 z"
    id="path54"
    style="stroke-width:0.999999"
  /><path
    fill="#f8bf11"
    d="m 1002.5282,273.86931 c -0.048,0.80078 -0.6386,1.39774 -1.7147,2.03119 -2.16385,1.2785 -5.98106,2.36639 -8.4349,5.29145 -2.13995,2.49516 -4.72558,3.84581 -6.99619,4.0063 -2.2647,0.1547 -4.2093,-0.79885 -5.34594,-3.12519 l 10e-5,-0.0117 c -0.70679,-1.36913 -0.38889,-3.51254 0.23417,-5.77013 0.62307,-2.25758 1.50987,-4.57707 1.64413,-6.46484 l 6e-5,-0.006 c 0.13919,-2.42577 0.29888,-4.53554 0.72318,-6.16333 0.42435,-1.63363 1.07183,-2.72718 2.21204,-3.3425 a 5.1228923,5.1228923 0 0 1 0.15864,-0.0804 c 0.10942,2.10054 1.13071,4.25038 2.96269,4.72918 2.00098,0.54468 4.91139,-1.14805 6.1465,-2.54617 l 0.71365,-0.0168 c 1.07626,-0.0194 1.97038,0.0531 2.887,0.86276 l -6e-5,0.006 c 0.70212,0.60296 1.0309,1.74054 1.31171,3.00634 0.28077,1.27166 0.50203,2.65388 1.36432,3.6443 1.6612,1.88667 2.1936,3.14309 2.1336,3.9496 z m -40.86626,5.56155 -1.6e-4,0.0175 c -0.22214,2.54198 -1.6734,3.91473 -3.87678,4.39749 -2.20923,0.48271 -5.19285,-0.0476 -8.16098,-1.63043 -3.28793,-1.78462 -7.21927,-1.64519 -9.729,-2.19454 -1.26071,-0.27472 -2.08161,-0.67993 -2.44917,-1.41433 -0.36751,-0.74026 -0.36747,-2.02103 0.45377,-4.20662 l 6e-5,-0.006 0.006,-0.0116 c 0.40885,-1.21855 0.12873,-2.56037 -0.0527,-3.81942 -0.18151,-1.2532 -0.26458,-2.40022 0.1696,-3.19161 l 0.006,-0.006 c 0.5594,-1.05341 1.36988,-1.42613 2.37312,-1.77368 0.99745,-0.35345 2.18713,-0.62327 3.13135,-1.55035 l 0.006,-0.006 0.006,5e-5 c 0.87389,-0.91017 1.53934,-2.05034 2.30701,-2.85622 0.64952,-0.6783 1.29696,-1.12853 2.2619,-1.12554 l 0.0292,2.7e-4 a 3.5673109,3.5673109 0 0 1 0.54342,0.0518 c 1.28475,0.20476 2.39343,1.11556 3.46187,2.58742 l 3.06485,5.70678 -5e-5,0.006 c 0.81453,1.73856 2.54555,3.66097 4.0131,5.61605 1.4675,1.96093 2.59583,3.91875 2.43597,5.4086 z"
    id="path55"
    style="stroke-width:0.999999"
  /><path
    fill="#d6a312"
    d="m 977.69062,226.62142 c -0.24695,-0.49352 -0.75143,-0.96601 -1.62533,-1.33076 -1.80569,-0.79437 -2.58881,-0.85418 -3.59448,-1.51841 -1.62769,-1.07346 -2.98685,-1.45435 -4.11548,-1.46469 a 4.8772742,4.8772742 0 0 0 -1.59312,0.26027 c -1.38437,0.45518 -2.30574,1.44094 -2.88375,1.97369 -0.11798,0.11004 -0.25918,0.20231 -0.61246,0.46225 -0.35317,0.24824 -0.88307,0.63522 -1.64853,1.20134 -0.6888,0.49664 -0.91128,1.16131 -0.68444,1.93536 0.22684,0.77406 0.96131,1.67558 2.31678,2.45997 l 0.006,6e-5 c 0.84338,0.50483 1.41615,1.18263 2.07792,1.72089 a 4.6842885,4.6842885 0 0 0 1.09897,0.69432 c 0.41938,0.18514 0.90947,0.31245 1.51732,0.35311 1.44945,0.101 2.51777,-0.32783 3.4583,-0.85141 0.94058,-0.52942 1.74188,-1.17709 2.65687,-1.46697 l 0.006,6e-5 c 1.87665,-0.56764 3.22072,-1.73083 3.65205,-2.84975 a 1.8947684,1.8947684 0 0 0 -0.0323,-1.57933 z"
    id="path56"
    style="stroke-width:0.999999"
  /><path
    fill="#202020"
    d="m 972.91691,229.33807 c -1.49832,0.76409 -3.24374,1.68967 -5.0975,1.67269 -1.8479,-0.0169 -3.30203,-0.88411 -4.34113,-1.72994 -0.52255,-0.41417 -0.94558,-0.83912 -1.26447,-1.14031 -0.55738,-0.44373 -0.48152,-1.06295 -0.25362,-1.04332 0.38553,0.0503 0.43934,0.55962 0.67701,0.78988 0.3247,0.30708 0.7304,0.70849 1.22387,1.10484 0.98689,0.79857 2.30733,1.57679 3.96226,1.59196 1.66077,0.0152 3.59944,-0.93784 4.78681,-1.59366 0.67593,-0.3681 1.53002,-1.03283 2.23057,-1.53521 0.52989,-0.38698 0.51664,-0.85496 0.95474,-0.79832 0.4381,0.0567 0.11219,0.52153 -0.50671,1.04805 -0.61895,0.53238 -1.59037,1.23697 -2.37183,1.63334 z"
    id="path57"
    style="stroke-width:0.999999"
  /><path
    fill="#ffffff"
    d="m 995.42632,261.32397 a 10.082039,10.082039 0 0 0 -0.60817,-0.006 l -0.0585,-5.4e-4 c 0.52945,-1.61512 -0.59415,-2.81262 -3.59328,-4.20276 -3.11014,-1.40285 -5.60253,-1.29118 -6.04914,1.49437 -0.0306,0.14593 -0.0553,0.29191 -0.0684,0.44384 a 4.6842885,4.6842885 0 0 0 -0.70463,0.30935 c -1.48099,0.78765 -2.29549,2.23641 -2.75632,4.02177 -0.46077,1.77951 -0.6092,3.93617 -0.75429,6.36773 -0.0872,1.21565 -0.60519,2.86012 -1.13003,4.6098 -5.15026,3.60214 -12.26981,5.11594 -18.26703,0.94379 -0.40345,-0.64701 -0.86538,-1.29456 -1.34496,-1.93057 a 80.995501,80.995501 0 0 0 -0.92466,-1.20737 3.8012329,3.8012329 0 0 0 1.56989,-0.27803 1.9883372,1.9883372 0 0 0 1.09798,-1.11281 c 0.37752,-0.99075 0.0219,-2.38591 -1.14482,-3.98733 -1.16078,-1.60723 -3.13843,-3.42078 -6.05168,-5.24875 -2.13966,-1.36471 -3.32931,-3.01313 -3.87441,-4.79601 -0.55089,-1.78878 -0.45719,-3.71786 -0.007,-5.61443 0.86972,-3.64722 3.04845,-7.18301 4.4314,-9.39854 0.37088,-0.26563 0.12989,0.50414 -1.41046,3.30306 -1.38027,2.5606 -3.97845,8.47281 -0.5415,13.142 0.12378,-3.2973 0.93825,-6.65846 2.29448,-9.78656 1.96396,-4.35068 6.06244,-11.88082 6.43352,-17.91287 0.16851,0.11852 0.72636,0.50961 0.98238,0.65232 0.73281,0.44534 1.28251,1.08784 1.99648,1.67336 a 4.970843,4.970843 0 0 0 3.35177,1.20037 c 1.40348,0.0129 2.50125,-0.43909 3.41243,-0.95124 0.99927,-0.55228 1.78866,-1.17666 2.54523,-1.40951 1.58346,-0.4826 2.85462,-1.34819 3.57743,-2.36502 1.18356,4.86493 3.98485,11.89101 5.78976,15.32295 0.95998,1.82177 2.87198,5.69332 3.66572,10.33829 0.53226,-0.007 1.1164,0.0687 1.74646,0.23824 2.24507,-5.66982 -1.7571,-11.84135 -3.5952,-13.5659 -0.74188,-0.73199 -0.77981,-1.05984 -0.39987,-1.03881 1.98951,1.79611 4.59987,5.40504 5.52773,9.45471 0.42171,1.84608 0.49169,3.7825 0.006,5.69045 0.233,0.10156 0.466,0.20311 0.69884,0.32221 3.51053,1.74572 4.80093,3.24886 4.15651,5.28401 z"
    id="path58"
    style="stroke-width:0.999999"
  /><path
    fill="#e6e6e6"
    d="m 970.43934,245.70229 c -3.25149,-0.0181 -6.44019,1.40891 -9.14925,4.10354 -2.71485,2.68874 -4.82024,6.51762 -6.05424,10.98611 l 0.35468,0.22549 -2.1e-4,0.0234 c 2.7325,1.76783 4.67544,3.54012 5.87093,5.1886 1.26481,1.74268 1.81661,3.43205 1.25937,4.88902 a 3.00005,3.00005 0 0 1 -1.59407,1.64046 l -0.24056,0.0855 c 0.42754,0.5712 0.84322,1.15984 1.2295,1.76575 5.48668,3.72301 11.92,2.42516 16.77488,-0.85219 0.48272,-1.6214 0.92343,-3.12623 0.99059,-4.07303 0.14504,-2.42572 0.28805,-4.62921 0.78514,-6.5429 0.49721,-1.92538 1.44893,-3.67115 3.22381,-4.61986 0.1,-0.0576 0.19963,-0.0859 0.29947,-0.13176 a 4.4211263,4.4211263 0 0 1 0.13369,-0.54852 c -1.38184,-3.6503 -3.39496,-6.69816 -5.8259,-8.82583 -2.43679,-2.12771 -5.21596,-3.2702 -8.05198,-3.31373 z m 13.74382,12.72902 -0.012,0.0291 10e-5,-0.0117 0.006,-0.0233 z"
    id="path59"
    style="stroke-width:0.999999"
  /><path
    fill="#ffffff"
    d="m 977.90553,221.03826 a 6.1404531,6.1404531 0 0 1 -1.29243,3.82464 24.08812,24.08812 0 0 0 -1.27,-0.53798 l -0.74026,-0.26996 c 0.17147,-0.20312 0.50109,-0.43403 0.63252,-0.73694 a 3.9123459,3.9123459 0 0 0 0.30542,-1.41833 l 0.006,-0.0584 a 3.9357381,3.9357381 0 0 0 -0.19203,-1.38196 2.538054,2.538054 0 0 0 -0.6217,-1.08178 1.3041153,1.3041153 0 0 0 -0.90851,-0.4177 l -0.0409,-3.8e-4 a 1.3333555,1.3333555 0 0 0 -0.88624,0.34278 2.538054,2.538054 0 0 0 -0.72281,1.01683 3.9532822,3.9532822 0 0 0 -0.30541,1.41833 l -5.3e-4,0.0585 a 4.1989003,4.1989003 0 0 0 0.0451,0.81918 10.368594,10.368594 0 0 0 -2.0637,-0.72071 6.9942685,6.9942685 0 0 1 -0.0513,-0.77829 l 7e-4,-0.076 a 6.0527324,6.0527324 0 0 1 0.53856,-2.60925 4.6375041,4.6375041 0 0 1 1.47953,-1.90468 3.23982,3.23982 0 0 1 2.02993,-0.70074 l 0.0351,3.2e-4 c 0.73098,0.007 1.35477,0.22295 1.99374,0.69667 a 4.5614795,4.5614795 0 0 1 1.48552,1.90846 c 0.36102,0.81037 0.53507,1.60149 0.54404,2.5373 l 0.005,0.0702 z m -11.06114,0.85777 a 6.1404531,6.1404531 0 0 0 -1.62654,0.71613 3.6433355,3.6433355 0 0 0 0.0197,-0.87707 l 4.3e-4,-0.0468 a 3.8070809,3.8070809 0 0 0 -0.27041,-1.12535 2.1637787,2.1637787 0 0 0 -0.55383,-0.82968 0.923992,0.923992 0 0 0 -0.69348,-0.26953 c -0.24582,0.0211 -0.45157,0.13622 -0.64674,0.37421 a 2.1754748,2.1754748 0 0 0 -0.41771,0.90851 3.6608797,3.6608797 0 0 0 -0.087,1.1981 l -4.2e-4,0.0468 a 3.7076641,3.7076641 0 0 0 0.27035,1.1312 2.1462346,2.1462346 0 0 0 0.66998,0.91848 l -0.60076,0.46236 -0.45913,0.32329 a 4.1287237,4.1287237 0 0 1 -0.92279,-1.41204 c -0.3035,-0.70458 -0.46666,-1.40787 -0.50588,-2.23284 l 5e-5,-0.006 a 6.2632622,6.2632622 0 0 1 0.28405,-2.27823 3.9064978,3.9064978 0 0 1 0.99223,-1.69861 2.0994502,2.0994502 0 0 1 1.55014,-0.6759 c 0.49122,0.005 0.92246,0.17221 1.36942,0.5389 a 3.9766744,3.9766744 0 0 1 1.14919,1.59542 c 0.3035,0.70457 0.45496,1.40776 0.49998,2.23863 l -5e-5,0.006 c 0.0143,0.35103 0.0114,0.67265 -0.0208,0.99402 z"
    id="path60"
    style="stroke-width:0.999999"
  /><path
    fill="#202020"
    d="m 969.27066,223.89498 c 0.0567,0.19936 0.37856,0.17307 0.56483,0.26835 0.15714,0.0833 0.28998,0.26583 0.46536,0.27329 0.17538,0.007 0.44497,-0.0544 0.46997,-0.22963 0.0313,-0.22195 -0.30071,-0.3712 -0.51048,-0.45499 -0.27383,-0.11363 -0.62422,-0.16948 -0.88286,-0.0256 -0.0588,0.0287 -0.12377,0.10414 -0.10687,0.17447 z m -1.88299,-0.0172 c -0.0603,0.19829 -0.38166,0.1661 -0.5638,0.25801 -0.16449,0.0804 -0.2948,0.26047 -0.47614,0.26465 -0.17548,0.004 -0.44389,-0.0625 -0.46568,-0.2382 -0.0272,-0.22248 0.30746,-0.36562 0.51873,-0.44556 0.27587,-0.10859 0.63307,-0.15795 0.88903,-0.009 0.0582,0.0298 0.11599,0.10633 0.0978,0.17635 z"
    id="path61"
    style="stroke-width:0.999999"
  /></svg>
